{
  "title" : "",
  "description" : "",
  "author" : "",
  "width" : 1920.0,
  "height" : 1080.0,
  "version" : "2.0",
  "editRate" : 30,
  "authoringClientName" :  {
    "name" : "Camtasia",
    "platform" : "Windows",
    "version" : "18.0"
  },
  "sourceBin" : [
    {
      "id" : 1,
      "src" : "C:\\Users\\Thomas\\Documents\\Camtasia\\Rec 02-06-19.trec",
      "rect" : [0, 0, 1920, 1080],
      "lastMod" : "20190206T223414",
      "sourceTracks" : [
        {
          "range" : [0, 2163],
          "type" : 0,
          "editRate" : 30,
          "trackRect" : [0, 0, 1920, 1080],
          "sampleRate" : 25,
          "bitDepth" : 0,
          "numChannels" : 0,
          "metaData" : "Rec 02-06-19.trec;"
        },
        {
          "range" : [0, 2164000],
          "type" : 0,
          "editRate" : 30000,
          "trackRect" : [0, 0, 640, 480],
          "sampleRate" : 30,
          "bitDepth" : 0,
          "numChannels" : 0,
          "metaData" : ""
        },
        {
          "range" : [0, 3176448],
          "type" : 2,
          "editRate" : 44100,
          "trackRect" : [0, 0, 0, 0],
          "sampleRate" : 44100,
          "bitDepth" : 16,
          "numChannels" : 2,
          "metaData" : ""
        }
      ]
    },
    {
      "id" : 2,
      "src" : "C:\\Users\\Thomas\\Documents\\Camtasia\\Rec 02-06-19_001.trec",
      "rect" : [0, 0, 1920, 1080],
      "lastMod" : "20190206T224221",
      "sourceTracks" : [
        {
          "range" : [0, 5276],
          "type" : 0,
          "editRate" : 30,
          "trackRect" : [0, 0, 1920, 1080],
          "sampleRate" : 24,
          "bitDepth" : 0,
          "numChannels" : 0,
          "metaData" : "Rec 02-06-19_001.trec;"
        },
        {
          "range" : [0, 5275000],
          "type" : 0,
          "editRate" : 30000,
          "trackRect" : [0, 0, 640, 480],
          "sampleRate" : 30,
          "bitDepth" : 0,
          "numChannels" : 0,
          "metaData" : ""
        },
        {
          "range" : [0, 7741440],
          "type" : 2,
          "editRate" : 44100,
          "trackRect" : [0, 0, 0, 0],
          "sampleRate" : 44100,
          "bitDepth" : 16,
          "numChannels" : 2,
          "metaData" : ""
        }
      ]
    },
    {
      "id" : 3,
      "src" : "C:\\Users\\Thomas\\Documents\\Camtasia\\Rec 02-06-19_002.trec",
      "rect" : [0, 0, 1920, 1080],
      "lastMod" : "20190206T230016",
      "sourceTracks" : [
        {
          "range" : [0, 4766],
          "type" : 0,
          "editRate" : 30,
          "trackRect" : [0, 0, 1920, 1080],
          "sampleRate" : 23,
          "bitDepth" : 0,
          "numChannels" : 0,
          "metaData" : "Rec 02-06-19_002.trec;"
        },
        {
          "range" : [0, 4767000],
          "type" : 0,
          "editRate" : 30000,
          "trackRect" : [0, 0, 640, 480],
          "sampleRate" : 30,
          "bitDepth" : 0,
          "numChannels" : 0,
          "metaData" : ""
        },
        {
          "range" : [0, 6991872],
          "type" : 2,
          "editRate" : 44100,
          "trackRect" : [0, 0, 0, 0],
          "sampleRate" : 44100,
          "bitDepth" : 16,
          "numChannels" : 2,
          "metaData" : ""
        }
      ]
    },
    {
      "id" : 4,
      "src" : "C:\\Users\\Thomas\\Documents\\Camtasia\\Rec 02-06-19_003.trec",
      "rect" : [0, 0, 1920, 1080],
      "lastMod" : "20190206T233327",
      "sourceTracks" : [
        {
          "range" : [0, 3004],
          "type" : 0,
          "editRate" : 30,
          "trackRect" : [0, 0, 1920, 1080],
          "sampleRate" : 25,
          "bitDepth" : 0,
          "numChannels" : 0,
          "metaData" : "Rec 02-06-19_003.trec;"
        },
        {
          "range" : [0, 3004000],
          "type" : 0,
          "editRate" : 30000,
          "trackRect" : [0, 0, 640, 480],
          "sampleRate" : 30,
          "bitDepth" : 0,
          "numChannels" : 0,
          "metaData" : ""
        },
        {
          "range" : [0, 4411392],
          "type" : 2,
          "editRate" : 44100,
          "trackRect" : [0, 0, 0, 0],
          "sampleRate" : 44100,
          "bitDepth" : 16,
          "numChannels" : 2,
          "metaData" : ""
        }
      ]
    },
    {
      "id" : 5,
      "src" : "C:\\Users\\Thomas\\Documents\\Camtasia\\Rec 02-06-19_004.trec",
      "rect" : [0, 0, 1920, 1080],
      "lastMod" : "20190206T235123",
      "sourceTracks" : [
        {
          "range" : [0, 15967],
          "type" : 0,
          "editRate" : 30,
          "trackRect" : [0, 0, 1920, 1080],
          "sampleRate" : 24,
          "bitDepth" : 0,
          "numChannels" : 0,
          "metaData" : "Rec 02-06-19_004.trec;"
        },
        {
          "range" : [0, 15969000],
          "type" : 0,
          "editRate" : 30000,
          "trackRect" : [0, 0, 640, 480],
          "sampleRate" : 30,
          "bitDepth" : 0,
          "numChannels" : 0,
          "metaData" : ""
        },
        {
          "range" : [0, 23462912],
          "type" : 2,
          "editRate" : 44100,
          "trackRect" : [0, 0, 0, 0],
          "sampleRate" : 44100,
          "bitDepth" : 16,
          "numChannels" : 2,
          "metaData" : ""
        }
      ]
    },
    {
      "id" : 6,
      "src" : "C:\\Users\\Thomas\\Documents\\Camtasia\\Rec 02-07-19.trec",
      "rect" : [0, 0, 1920, 1080],
      "lastMod" : "20190207T001249",
      "sourceTracks" : [
        {
          "range" : [0, 1372],
          "type" : 0,
          "editRate" : 30,
          "trackRect" : [0, 0, 1920, 1080],
          "sampleRate" : 24,
          "bitDepth" : 0,
          "numChannels" : 0,
          "metaData" : "Rec 02-07-19.trec;"
        },
        {
          "range" : [0, 1372000],
          "type" : 0,
          "editRate" : 30000,
          "trackRect" : [0, 0, 640, 480],
          "sampleRate" : 30,
          "bitDepth" : 0,
          "numChannels" : 0,
          "metaData" : ""
        },
        {
          "range" : [0, 2008064],
          "type" : 2,
          "editRate" : 44100,
          "trackRect" : [0, 0, 0, 0],
          "sampleRate" : 44100,
          "bitDepth" : 16,
          "numChannels" : 2,
          "metaData" : ""
        }
      ]
    },
    {
      "id" : 7,
      "src" : "C:\\Users\\Thomas\\Documents\\Camtasia\\Rec 02-07-19_001.trec",
      "rect" : [0, 0, 1920, 1080],
      "lastMod" : "20190207T195025",
      "sourceTracks" : [
        {
          "range" : [0, 26396],
          "type" : 0,
          "editRate" : 30,
          "trackRect" : [0, 0, 1920, 1080],
          "sampleRate" : 24,
          "bitDepth" : 0,
          "numChannels" : 0,
          "metaData" : "Rec 02-07-19_001.trec;"
        },
        {
          "range" : [0, 26397000],
          "type" : 0,
          "editRate" : 30000,
          "trackRect" : [0, 0, 640, 480],
          "sampleRate" : 30,
          "bitDepth" : 0,
          "numChannels" : 0,
          "metaData" : ""
        },
        {
          "range" : [0, 38787072],
          "type" : 2,
          "editRate" : 44100,
          "trackRect" : [0, 0, 0, 0],
          "sampleRate" : 44100,
          "bitDepth" : 16,
          "numChannels" : 2,
          "metaData" : ""
        }
      ]
    },
    {
      "id" : 8,
      "src" : "C:\\Users\\Thomas\\Documents\\YouTube Videos\\Actor Oriented Design\\5. Chat Window Application - Actor Framework Overrides and User Events\\PreLaunchandStop.PNG",
      "rect" : [0, 0, 1328, 367],
      "lastMod" : "20190207T200806",
      "sourceTracks" : [
        {
          "range" : [0, 1],
          "type" : 1,
          "editRate" : 10000000,
          "trackRect" : [0, 0, 1328, 367],
          "sampleRate" : 0,
          "bitDepth" : 32,
          "numChannels" : 0,
          "metaData" : ""
        }
      ]
    },
    {
      "id" : 9,
      "src" : "C:\\Users\\Thomas\\Documents\\Camtasia\\Rec 02-07-19_002.trec",
      "rect" : [0, 0, 1920, 1080],
      "lastMod" : "20190207T211327",
      "sourceTracks" : [
        {
          "range" : [0, 1701],
          "type" : 0,
          "editRate" : 30,
          "trackRect" : [0, 0, 1920, 1080],
          "sampleRate" : 26,
          "bitDepth" : 0,
          "numChannels" : 0,
          "metaData" : "Rec 02-07-19_002.trec;"
        },
        {
          "range" : [0, 1702000],
          "type" : 0,
          "editRate" : 30000,
          "trackRect" : [0, 0, 640, 480],
          "sampleRate" : 30,
          "bitDepth" : 0,
          "numChannels" : 0,
          "metaData" : ""
        },
        {
          "range" : [0, 2493440],
          "type" : 2,
          "editRate" : 44100,
          "trackRect" : [0, 0, 0, 0],
          "sampleRate" : 44100,
          "bitDepth" : 16,
          "numChannels" : 2,
          "metaData" : ""
        }
      ]
    },
    {
      "id" : 10,
      "src" : "C:\\ProgramData\\TechSmith\\Camtasia Studio 18\\Library 4.0\\User Libraries\\Default\\Outro.asset\\Functions.PNG",
      "rect" : [0, 0, 937, 447],
      "lastMod" : "20190202T205142",
      "sourceTracks" : [
        {
          "range" : [0, 1],
          "type" : 1,
          "editRate" : 10000000,
          "trackRect" : [0, 0, 937, 447],
          "sampleRate" : 0,
          "bitDepth" : 32,
          "numChannels" : 0,
          "metaData" : ""
        }
      ],
      "metadata" : {
        "assetLibraryId" : "76d91756-6377-4492-8e0c-f7687f54f666"
      }
    },
    {
      "id" : 11,
      "src" : "C:\\ProgramData\\TechSmith\\Camtasia Studio 18\\Library 4.0\\User Libraries\\Default\\Outro.asset\\Functions2.PNG",
      "rect" : [0, 0, 1890, 950],
      "lastMod" : "20190202T210915",
      "sourceTracks" : [
        {
          "range" : [0, 1],
          "type" : 1,
          "editRate" : 10000000,
          "trackRect" : [0, 0, 1890, 950],
          "sampleRate" : 0,
          "bitDepth" : 32,
          "numChannels" : 0,
          "metaData" : ""
        }
      ],
      "metadata" : {
        "assetLibraryId" : "76d91756-6377-4492-8e0c-f7687f54f666"
      }
    },
    {
      "id" : 12,
      "src" : "C:\\ProgramData\\TechSmith\\Camtasia Studio 18\\Library 4.0\\User Libraries\\Default\\Outro.asset\\Motion Graphics - Intro Clips - linewipe-91.png",
      "rect" : [0, 0, 1920, 1080],
      "lastMod" : "20180830T075426",
      "sourceTracks" : [
        {
          "range" : [0, 1],
          "type" : 1,
          "editRate" : 10000000,
          "trackRect" : [0, 0, 1920, 1080],
          "sampleRate" : 0,
          "bitDepth" : 32,
          "numChannels" : 0,
          "metaData" : ""
        }
      ],
      "metadata" : {
        "assetLibraryId" : "76d91756-6377-4492-8e0c-f7687f54f666"
      }
    },
    {
      "id" : 13,
      "src" : "C:\\ProgramData\\TechSmith\\Camtasia Studio 18\\Library 4.0\\User Libraries\\Default\\TLA Intro 2.asset\\Functions.PNG",
      "rect" : [0, 0, 937, 447],
      "lastMod" : "20190202T205142",
      "sourceTracks" : [
        {
          "range" : [0, 1],
          "type" : 1,
          "editRate" : 10000000,
          "trackRect" : [0, 0, 937, 447],
          "sampleRate" : 0,
          "bitDepth" : 32,
          "numChannels" : 0,
          "metaData" : ""
        }
      ],
      "metadata" : {
        "assetLibraryId" : "d2445d3d-d566-483b-9806-a8aac7c91df8"
      }
    },
    {
      "id" : 14,
      "src" : "C:\\ProgramData\\TechSmith\\Camtasia Studio 18\\Library 4.0\\User Libraries\\Default\\TLA Intro 2.asset\\Functions2.PNG",
      "rect" : [0, 0, 1890, 950],
      "lastMod" : "20190202T210915",
      "sourceTracks" : [
        {
          "range" : [0, 1],
          "type" : 1,
          "editRate" : 10000000,
          "trackRect" : [0, 0, 1890, 950],
          "sampleRate" : 0,
          "bitDepth" : 32,
          "numChannels" : 0,
          "metaData" : ""
        }
      ],
      "metadata" : {
        "assetLibraryId" : "d2445d3d-d566-483b-9806-a8aac7c91df8"
      }
    },
    {
      "id" : 15,
      "src" : "C:\\ProgramData\\TechSmith\\Camtasia Studio 18\\Library 4.0\\User Libraries\\Default\\TLA Intro 2.asset\\Motion Graphics - Intro Clips - linewipe-91.png",
      "rect" : [0, 0, 1920, 1080],
      "lastMod" : "20180830T075426",
      "sourceTracks" : [
        {
          "range" : [0, 1],
          "type" : 1,
          "editRate" : 10000000,
          "trackRect" : [0, 0, 1920, 1080],
          "sampleRate" : 0,
          "bitDepth" : 32,
          "numChannels" : 0,
          "metaData" : ""
        }
      ],
      "metadata" : {
        "assetLibraryId" : "d2445d3d-d566-483b-9806-a8aac7c91df8"
      }
    }
  ],
  "timeline" : {
    "id" : 16,
    "sceneTrack" : {
      "scenes" : [
        {
          "duration" : 1006.66666666667,
          "title" : "",
          "type" : "",
          "csml" : {
            "tracks" : [
              {
                "trackIndex" : 0,
                "medias" : [
                  {
                    "id" : 17,
                    "_type" : "ScreenVMFile",
                    "src" : 3,
                    "trackNumber" : 0,
                    "attributes" : {
                      "ident" : "Rec 02-06-19_002"
                    },
                    "parameters" : {
                      "translation0" : {
                        "type" : "double",
                        "defaultValue" : 590.384615384565,
                        "interp" : "eioe",
                        "keyframes" : [
                          {
                            "endTime" : 630,
                            "time" : 600,
                            "value" : -4.32009983342141e-12,
                            "duration" : 30
                          },
                          {
                            "endTime" : 747,
                            "time" : 717,
                            "value" : 1.97353244857368e-10,
                            "duration" : 30
                          },
                          {
                            "endTime" : 987,
                            "time" : 957,
                            "value" : -273.076923076775,
                            "duration" : 30
                          }
                        ]
                      },
                      "translation1" : {
                        "type" : "double",
                        "defaultValue" : -290.973076923057,
                        "interp" : "eioe",
                        "keyframes" : [
                          {
                            "endTime" : 630,
                            "time" : 600,
                            "value" : 176.334615384492,
                            "duration" : 30
                          },
                          {
                            "endTime" : 747,
                            "time" : 717,
                            "value" : -194.819230769224,
                            "duration" : 30
                          },
                          {
                            "endTime" : 987,
                            "time" : 957,
                            "value" : -10.2038461538006,
                            "duration" : 30
                          }
                        ]
                      },
                      "scale0" : {
                        "type" : "double",
                        "defaultValue" : 1.67333333333333,
                        "interp" : "eioe",
                        "keyframes" : [
                          {
                            "endTime" : 987,
                            "time" : 957,
                            "value" : 1.3,
                            "duration" : 30
                          }
                        ]
                      },
                      "scale1" : {
                        "type" : "double",
                        "defaultValue" : 1.67333333333333,
                        "interp" : "eioe",
                        "keyframes" : [
                          {
                            "endTime" : 987,
                            "time" : 957,
                            "value" : 1.3,
                            "duration" : 30
                          }
                        ]
                      },
                      "cursorScale" : {
                        "type" : "double",
                        "defaultValue" : 1.0,
                        "interp" : "linr"
                      },
                      "cursorOpacity" : {
                        "type" : "double",
                        "defaultValue" : 1.0,
                        "interp" : "linr"
                      }
                    },
                    "effects" : [

                    ],
                    "start" : 0,
                    "duration" : 1007,
                    "mediaStart" : 188,
                    "mediaDuration" : 1007,
                    "scalar" : 1,
                    "metadata" : {
                      "AutoAppliedSmartFocus" : "False",
                      "WinSubProjectDisplayName" : "",
                      "clipSpeedAttribute" : false,
                      "default-scale0" : 1.0,
                      "default-scale1" : 1.0,
                      "default-translation0" : 0.0,
                      "default-translation1" : 0.0
                    },
                    "animationTracks" : {
                      "visual" : [
                        {
                          "endTime" : 630,
                          "duration" : 30,
                          "range" : [ 600, 30]
                        },
                        {
                          "endTime" : 747,
                          "duration" : 30,
                          "range" : [ 717, 30]
                        },
                        {
                          "endTime" : 987,
                          "duration" : 30,
                          "range" : [ 957, 30]
                        }
                      ]
                    }
                  },
                  {
                    "id" : 18,
                    "_type" : "ScreenVMFile",
                    "src" : 3,
                    "trackNumber" : 0,
                    "attributes" : {
                      "ident" : "Rec 02-06-19_002"
                    },
                    "parameters" : {
                      "translation0" : {
                        "type" : "double",
                        "defaultValue" : 590.384615384565,
                        "interp" : "eioe",
                        "keyframes" : [
                          {
                            "endTime" : 630,
                            "time" : 600,
                            "value" : -4.32009983342141e-12,
                            "duration" : 30
                          },
                          {
                            "endTime" : 747,
                            "time" : 717,
                            "value" : 1.97353244857368e-10,
                            "duration" : 30
                          },
                          {
                            "endTime" : 987,
                            "time" : 957,
                            "value" : -273.076923076775,
                            "duration" : 30
                          }
                        ]
                      },
                      "translation1" : {
                        "type" : "double",
                        "defaultValue" : -290.973076923057,
                        "interp" : "eioe",
                        "keyframes" : [
                          {
                            "endTime" : 630,
                            "time" : 600,
                            "value" : 176.334615384492,
                            "duration" : 30
                          },
                          {
                            "endTime" : 747,
                            "time" : 717,
                            "value" : -194.819230769224,
                            "duration" : 30
                          },
                          {
                            "endTime" : 987,
                            "time" : 957,
                            "value" : -10.2038461538006,
                            "duration" : 30
                          }
                        ]
                      },
                      "scale0" : {
                        "type" : "double",
                        "defaultValue" : 1.67333333333333,
                        "interp" : "eioe",
                        "keyframes" : [
                          {
                            "endTime" : 987,
                            "time" : 957,
                            "value" : 1.3,
                            "duration" : 30
                          }
                        ]
                      },
                      "scale1" : {
                        "type" : "double",
                        "defaultValue" : 1.67333333333333,
                        "interp" : "eioe",
                        "keyframes" : [
                          {
                            "endTime" : 987,
                            "time" : 957,
                            "value" : 1.3,
                            "duration" : 30
                          }
                        ]
                      },
                      "cursorScale" : {
                        "type" : "double",
                        "defaultValue" : 1.0,
                        "interp" : "linr"
                      },
                      "cursorOpacity" : {
                        "type" : "double",
                        "defaultValue" : 1.0,
                        "interp" : "linr"
                      }
                    },
                    "effects" : [

                    ],
                    "start" : 1007,
                    "duration" : 119,
                    "mediaStart" : 1220,
                    "mediaDuration" : 119,
                    "scalar" : 1,
                    "metadata" : {
                      "AutoAppliedSmartFocus" : "False",
                      "WinSubProjectDisplayName" : "",
                      "clipSpeedAttribute" : false,
                      "default-scale0" : 1.0,
                      "default-scale1" : 1.0,
                      "default-translation0" : 0.0,
                      "default-translation1" : 0.0
                    },
                    "animationTracks" : {
                      "visual" : [
                        {
                          "endTime" : 630,
                          "duration" : 30,
                          "range" : [ 600, 30]
                        },
                        {
                          "endTime" : 747,
                          "duration" : 30,
                          "range" : [ 717, 30]
                        },
                        {
                          "endTime" : 987,
                          "duration" : 30,
                          "range" : [ 957, 30]
                        }
                      ]
                    }
                  },
                  {
                    "id" : 19,
                    "_type" : "ScreenVMFile",
                    "src" : 3,
                    "trackNumber" : 0,
                    "attributes" : {
                      "ident" : "Rec 02-06-19_002"
                    },
                    "parameters" : {
                      "translation0" : {
                        "type" : "double",
                        "defaultValue" : 590.384615384565,
                        "interp" : "eioe",
                        "keyframes" : [
                          {
                            "endTime" : 630,
                            "time" : 600,
                            "value" : -4.32009983342141e-12,
                            "duration" : 30
                          },
                          {
                            "endTime" : 747,
                            "time" : 717,
                            "value" : 1.97353244857368e-10,
                            "duration" : 30
                          },
                          {
                            "endTime" : 987,
                            "time" : 957,
                            "value" : -273.076923076775,
                            "duration" : 30
                          }
                        ]
                      },
                      "translation1" : {
                        "type" : "double",
                        "defaultValue" : -290.973076923057,
                        "interp" : "eioe",
                        "keyframes" : [
                          {
                            "endTime" : 630,
                            "time" : 600,
                            "value" : 176.334615384492,
                            "duration" : 30
                          },
                          {
                            "endTime" : 747,
                            "time" : 717,
                            "value" : -194.819230769224,
                            "duration" : 30
                          },
                          {
                            "endTime" : 987,
                            "time" : 957,
                            "value" : -10.2038461538006,
                            "duration" : 30
                          }
                        ]
                      },
                      "scale0" : {
                        "type" : "double",
                        "defaultValue" : 1.67333333333333,
                        "interp" : "eioe",
                        "keyframes" : [
                          {
                            "endTime" : 987,
                            "time" : 957,
                            "value" : 1.3,
                            "duration" : 30
                          }
                        ]
                      },
                      "scale1" : {
                        "type" : "double",
                        "defaultValue" : 1.67333333333333,
                        "interp" : "eioe",
                        "keyframes" : [
                          {
                            "endTime" : 987,
                            "time" : 957,
                            "value" : 1.3,
                            "duration" : 30
                          }
                        ]
                      },
                      "cursorScale" : {
                        "type" : "double",
                        "defaultValue" : 1.0,
                        "interp" : "linr"
                      },
                      "cursorOpacity" : {
                        "type" : "double",
                        "defaultValue" : 1.0,
                        "interp" : "linr"
                      }
                    },
                    "effects" : [

                    ],
                    "start" : 1126,
                    "duration" : 34,
                    "mediaStart" : 1339,
                    "mediaDuration" : 101,
                    "scalar" : "34/101",
                    "metadata" : {
                      "AutoAppliedSmartFocus" : "False",
                      "WinSubProjectDisplayName" : "",
                      "clipSpeedAttribute" : true,
                      "default-scale0" : 1.0,
                      "default-scale1" : 1.0,
                      "default-translation0" : 0.0,
                      "default-translation1" : 0.0
                    },
                    "animationTracks" : {
                      "visual" : [
                        {
                          "endTime" : 630,
                          "duration" : 30,
                          "range" : [ 600, 30]
                        },
                        {
                          "endTime" : 747,
                          "duration" : 30,
                          "range" : [ 717, 30]
                        },
                        {
                          "endTime" : 987,
                          "duration" : 30,
                          "range" : [ 957, 30]
                        }
                      ]
                    }
                  },
                  {
                    "id" : 20,
                    "_type" : "ScreenVMFile",
                    "src" : 3,
                    "trackNumber" : 0,
                    "attributes" : {
                      "ident" : "Rec 02-06-19_002"
                    },
                    "parameters" : {
                      "translation0" : {
                        "type" : "double",
                        "defaultValue" : 590.384615384565,
                        "interp" : "eioe",
                        "keyframes" : [
                          {
                            "endTime" : 630,
                            "time" : 600,
                            "value" : -4.32009983342141e-12,
                            "duration" : 30
                          },
                          {
                            "endTime" : 747,
                            "time" : 717,
                            "value" : 1.97353244857368e-10,
                            "duration" : 30
                          },
                          {
                            "endTime" : 987,
                            "time" : 957,
                            "value" : -273.076923076775,
                            "duration" : 30
                          }
                        ]
                      },
                      "translation1" : {
                        "type" : "double",
                        "defaultValue" : -290.973076923057,
                        "interp" : "eioe",
                        "keyframes" : [
                          {
                            "endTime" : 630,
                            "time" : 600,
                            "value" : 176.334615384492,
                            "duration" : 30
                          },
                          {
                            "endTime" : 747,
                            "time" : 717,
                            "value" : -194.819230769224,
                            "duration" : 30
                          },
                          {
                            "endTime" : 987,
                            "time" : 957,
                            "value" : -10.2038461538006,
                            "duration" : 30
                          }
                        ]
                      },
                      "scale0" : {
                        "type" : "double",
                        "defaultValue" : 1.67333333333333,
                        "interp" : "eioe",
                        "keyframes" : [
                          {
                            "endTime" : 987,
                            "time" : 957,
                            "value" : 1.3,
                            "duration" : 30
                          }
                        ]
                      },
                      "scale1" : {
                        "type" : "double",
                        "defaultValue" : 1.67333333333333,
                        "interp" : "eioe",
                        "keyframes" : [
                          {
                            "endTime" : 987,
                            "time" : 957,
                            "value" : 1.3,
                            "duration" : 30
                          }
                        ]
                      },
                      "cursorScale" : {
                        "type" : "double",
                        "defaultValue" : 1.0,
                        "interp" : "linr"
                      },
                      "cursorOpacity" : {
                        "type" : "double",
                        "defaultValue" : 1.0,
                        "interp" : "linr"
                      }
                    },
                    "effects" : [

                    ],
                    "start" : 1160,
                    "duration" : 96,
                    "mediaStart" : 1440,
                    "mediaDuration" : 96,
                    "scalar" : 1,
                    "metadata" : {
                      "AutoAppliedSmartFocus" : "False",
                      "WinSubProjectDisplayName" : "",
                      "clipSpeedAttribute" : false,
                      "default-scale0" : 1.0,
                      "default-scale1" : 1.0,
                      "default-translation0" : 0.0,
                      "default-translation1" : 0.0
                    },
                    "animationTracks" : {
                      "visual" : [
                        {
                          "endTime" : 630,
                          "duration" : 30,
                          "range" : [ 600, 30]
                        },
                        {
                          "endTime" : 747,
                          "duration" : 30,
                          "range" : [ 717, 30]
                        },
                        {
                          "endTime" : 987,
                          "duration" : 30,
                          "range" : [ 957, 30]
                        }
                      ]
                    }
                  },
                  {
                    "id" : 21,
                    "_type" : "StitchedMedia",
                    "minMediaStart" : 0,
                    "attributes" : {
                      "ident" : "Rec 02-06-19_002",
                      "gain" : 1.0,
                      "mixToMono" : false
                    },
                    "parameters" : {
                      "translation0" : {
                        "type" : "double",
                        "defaultValue" : 590.384615384565,
                        "keyframes" : [
                          {
                            "endTime" : 630,
                            "time" : 600,
                            "value" : -4.32009983342141e-12,
                            "duration" : 30
                          },
                          {
                            "endTime" : 747,
                            "time" : 717,
                            "value" : 1.97353244857368e-10,
                            "duration" : 30
                          },
                          {
                            "endTime" : 987,
                            "time" : 957,
                            "value" : -273.076923076775,
                            "duration" : 30
                          }
                        ]
                      },
                      "translation1" : {
                        "type" : "double",
                        "defaultValue" : -290.973076923057,
                        "keyframes" : [
                          {
                            "endTime" : 630,
                            "time" : 600,
                            "value" : 176.334615384492,
                            "duration" : 30
                          },
                          {
                            "endTime" : 747,
                            "time" : 717,
                            "value" : -194.819230769224,
                            "duration" : 30
                          },
                          {
                            "endTime" : 987,
                            "time" : 957,
                            "value" : -10.2038461538006,
                            "duration" : 30
                          }
                        ]
                      },
                      "scale0" : {
                        "type" : "double",
                        "defaultValue" : 1.67333333333333,
                        "keyframes" : [
                          {
                            "endTime" : 630,
                            "time" : 600,
                            "value" : 1.0,
                            "duration" : 30
                          },
                          {
                            "endTime" : 987,
                            "time" : 957,
                            "value" : 1.3,
                            "duration" : 30
                          }
                        ]
                      },
                      "scale1" : {
                        "type" : "double",
                        "defaultValue" : 1.67333333333333,
                        "keyframes" : [
                          {
                            "endTime" : 630,
                            "time" : 600,
                            "value" : 1.0,
                            "duration" : 30
                          },
                          {
                            "endTime" : 987,
                            "time" : 957,
                            "value" : 1.3,
                            "duration" : 30
                          }
                        ]
                      },
                      "cursorOpacity" : 1.0,
                      "cursorScale" : 1.0
                    },
                    "medias" : [
                        {
                          "id" : 22,
                          "_type" : "ScreenVMFile",
                          "src" : 3,
                          "trackNumber" : 0,
                          "attributes" : {
                            "ident" : "Rec 02-06-19_002"
                          },
                          "parameters" : {
                            "cursorScale" : {
                              "type" : "double",
                              "defaultValue" : 0.0,
                              "interp" : "linr"
                            },
                            "cursorOpacity" : {
                              "type" : "double",
                              "defaultValue" : 0.0,
                              "interp" : "linr"
                            }
                          },
                          "effects" : [

                          ],
                          "start" : 0,
                          "duration" : 1679,
                          "mediaStart" : 0,
                          "mediaDuration" : 1679,
                          "scalar" : 1,
                          "metadata" : {
                            "AutoAppliedSmartFocus" : "False",
                            "WinSubProjectDisplayName" : "",
                            "clipSpeedAttribute" : false,
                            "default-scale0" : 1.0,
                            "default-scale1" : 1.0,
                            "default-translation0" : 0.0,
                            "default-translation1" : 0.0
                          },
                          "animationTracks" : {

                          }
                        },
                        {
                          "id" : 23,
                          "_type" : "ScreenVMFile",
                          "src" : 3,
                          "trackNumber" : 0,
                          "attributes" : {
                            "ident" : "Rec 02-06-19_002"
                          },
                          "parameters" : {
                            "cursorScale" : {
                              "type" : "double",
                              "defaultValue" : 0.0,
                              "interp" : "linr"
                            },
                            "cursorOpacity" : {
                              "type" : "double",
                              "defaultValue" : 0.0,
                              "interp" : "linr"
                            }
                          },
                          "effects" : [

                          ],
                          "start" : 1679,
                          "duration" : 3035,
                          "mediaStart" : 1731,
                          "mediaDuration" : 3035,
                          "scalar" : 1,
                          "metadata" : {
                            "AutoAppliedSmartFocus" : "False",
                            "WinSubProjectDisplayName" : "",
                            "clipSpeedAttribute" : false,
                            "default-scale0" : 1.0,
                            "default-scale1" : 1.0,
                            "default-translation0" : 0.0,
                            "default-translation1" : 0.0
                          },
                          "animationTracks" : {

                          }
                        }
                    ],
                    "effects" : [

                    ],
                    "start" : 1256,
                    "duration" : 277,
                    "mediaStart" : 1557,
                    "mediaDuration" : 277,
                    "scalar" : 1,
                    "metadata" : {
                      "AutoAppliedSmartFocus" : "False",
                      "WinSubProjectDisplayName" : "",
                      "clipSpeedAttribute" : false
                    },
                    "animationTracks" : {
                      "visual" : [
                        {
                          "endTime" : 630,
                          "duration" : 30,
                          "range" : [ 600, 30]
                        },
                        {
                          "endTime" : 747,
                          "duration" : 30,
                          "range" : [ 717, 30]
                        },
                        {
                          "endTime" : 987,
                          "duration" : 30,
                          "range" : [ 957, 30]
                        }
                      ]
                    }
                  },
                  {
                    "id" : 24,
                    "_type" : "ScreenVMFile",
                    "src" : 3,
                    "trackNumber" : 0,
                    "attributes" : {
                      "ident" : "Rec 02-06-19_002"
                    },
                    "parameters" : {
                      "translation0" : {
                        "type" : "double",
                        "defaultValue" : 590.384615384565,
                        "interp" : "eioe",
                        "keyframes" : [
                          {
                            "endTime" : 630,
                            "time" : 600,
                            "value" : -4.32009983342141e-12,
                            "duration" : 30
                          },
                          {
                            "endTime" : 747,
                            "time" : 717,
                            "value" : 1.97353244857368e-10,
                            "duration" : 30
                          },
                          {
                            "endTime" : 987,
                            "time" : 957,
                            "value" : -273.076923076775,
                            "duration" : 30
                          },
                          {
                            "endTime" : 2054,
                            "time" : 2024,
                            "value" : 527.076923077042,
                            "duration" : 30
                          },
                          {
                            "endTime" : 2144,
                            "time" : 2114,
                            "value" : -240.407692307794,
                            "duration" : 30
                          }
                        ]
                      },
                      "translation1" : {
                        "type" : "double",
                        "defaultValue" : -290.973076923057,
                        "interp" : "eioe",
                        "keyframes" : [
                          {
                            "endTime" : 630,
                            "time" : 600,
                            "value" : 176.334615384492,
                            "duration" : 30
                          },
                          {
                            "endTime" : 747,
                            "time" : 717,
                            "value" : -194.819230769224,
                            "duration" : 30
                          },
                          {
                            "endTime" : 987,
                            "time" : 957,
                            "value" : -10.2038461538006,
                            "duration" : 30
                          },
                          {
                            "endTime" : 2054,
                            "time" : 2024,
                            "value" : 730.180769230816,
                            "duration" : 30
                          },
                          {
                            "endTime" : 2144,
                            "time" : 2114,
                            "value" : -1.77777792487177e-11,
                            "duration" : 30
                          }
                        ]
                      },
                      "scale0" : {
                        "type" : "double",
                        "defaultValue" : 1.67333333333333,
                        "interp" : "eioe",
                        "keyframes" : [
                          {
                            "endTime" : 987,
                            "time" : 957,
                            "value" : 1.3,
                            "duration" : 30
                          },
                          {
                            "endTime" : 2054,
                            "time" : 2024,
                            "value" : 2.63066666666667,
                            "duration" : 30
                          },
                          {
                            "endTime" : 2144,
                            "time" : 2114,
                            "value" : 1.3,
                            "duration" : 30
                          }
                        ]
                      },
                      "scale1" : {
                        "type" : "double",
                        "defaultValue" : 1.67333333333333,
                        "interp" : "eioe",
                        "keyframes" : [
                          {
                            "endTime" : 987,
                            "time" : 957,
                            "value" : 1.3,
                            "duration" : 30
                          },
                          {
                            "endTime" : 2054,
                            "time" : 2024,
                            "value" : 2.63066666666667,
                            "duration" : 30
                          },
                          {
                            "endTime" : 2144,
                            "time" : 2114,
                            "value" : 1.3,
                            "duration" : 30
                          }
                        ]
                      },
                      "cursorScale" : {
                        "type" : "double",
                        "defaultValue" : 1.0,
                        "interp" : "linr"
                      },
                      "cursorOpacity" : {
                        "type" : "double",
                        "defaultValue" : 1.0,
                        "interp" : "linr"
                      }
                    },
                    "effects" : [

                    ],
                    "start" : 1533,
                    "duration" : 441,
                    "mediaStart" : 1961,
                    "mediaDuration" : 441,
                    "scalar" : 1,
                    "metadata" : {
                      "AutoAppliedSmartFocus" : "False",
                      "WinSubProjectDisplayName" : "",
                      "clipSpeedAttribute" : false,
                      "default-scale0" : 1.0,
                      "default-scale1" : 1.0,
                      "default-translation0" : 0.0,
                      "default-translation1" : 0.0
                    },
                    "animationTracks" : {
                      "visual" : [
                        {
                          "endTime" : 630,
                          "duration" : 30,
                          "range" : [ 600, 30]
                        },
                        {
                          "endTime" : 747,
                          "duration" : 30,
                          "range" : [ 717, 30]
                        },
                        {
                          "endTime" : 987,
                          "duration" : 30,
                          "range" : [ 957, 30]
                        },
                        {
                          "endTime" : 2054,
                          "duration" : 30,
                          "range" : [ 2024, 30]
                        },
                        {
                          "endTime" : 2144,
                          "duration" : 30,
                          "range" : [ 2114, 30]
                        }
                      ]
                    }
                  },
                  {
                    "id" : 25,
                    "_type" : "ScreenVMFile",
                    "src" : 3,
                    "trackNumber" : 0,
                    "attributes" : {
                      "ident" : "Rec 02-06-19_002"
                    },
                    "parameters" : {
                      "translation0" : {
                        "type" : "double",
                        "defaultValue" : 590.384615384565,
                        "interp" : "eioe",
                        "keyframes" : [
                          {
                            "endTime" : 630,
                            "time" : 600,
                            "value" : -4.32009983342141e-12,
                            "duration" : 30
                          },
                          {
                            "endTime" : 747,
                            "time" : 717,
                            "value" : 1.97353244857368e-10,
                            "duration" : 30
                          },
                          {
                            "endTime" : 987,
                            "time" : 957,
                            "value" : -273.076923076775,
                            "duration" : 30
                          },
                          {
                            "endTime" : 2054,
                            "time" : 2024,
                            "value" : 527.076923077042,
                            "duration" : 30
                          },
                          {
                            "endTime" : 2144,
                            "time" : 2114,
                            "value" : -240.407692307794,
                            "duration" : 30
                          }
                        ]
                      },
                      "translation1" : {
                        "type" : "double",
                        "defaultValue" : -290.973076923057,
                        "interp" : "eioe",
                        "keyframes" : [
                          {
                            "endTime" : 630,
                            "time" : 600,
                            "value" : 176.334615384492,
                            "duration" : 30
                          },
                          {
                            "endTime" : 747,
                            "time" : 717,
                            "value" : -194.819230769224,
                            "duration" : 30
                          },
                          {
                            "endTime" : 987,
                            "time" : 957,
                            "value" : -10.2038461538006,
                            "duration" : 30
                          },
                          {
                            "endTime" : 2054,
                            "time" : 2024,
                            "value" : 730.180769230816,
                            "duration" : 30
                          },
                          {
                            "endTime" : 2144,
                            "time" : 2114,
                            "value" : -1.77777792487177e-11,
                            "duration" : 30
                          }
                        ]
                      },
                      "scale0" : {
                        "type" : "double",
                        "defaultValue" : 1.67333333333333,
                        "interp" : "eioe",
                        "keyframes" : [
                          {
                            "endTime" : 987,
                            "time" : 957,
                            "value" : 1.3,
                            "duration" : 30
                          },
                          {
                            "endTime" : 2054,
                            "time" : 2024,
                            "value" : 2.63066666666667,
                            "duration" : 30
                          },
                          {
                            "endTime" : 2144,
                            "time" : 2114,
                            "value" : 1.3,
                            "duration" : 30
                          }
                        ]
                      },
                      "scale1" : {
                        "type" : "double",
                        "defaultValue" : 1.67333333333333,
                        "interp" : "eioe",
                        "keyframes" : [
                          {
                            "endTime" : 987,
                            "time" : 957,
                            "value" : 1.3,
                            "duration" : 30
                          },
                          {
                            "endTime" : 2054,
                            "time" : 2024,
                            "value" : 2.63066666666667,
                            "duration" : 30
                          },
                          {
                            "endTime" : 2144,
                            "time" : 2114,
                            "value" : 1.3,
                            "duration" : 30
                          }
                        ]
                      },
                      "cursorScale" : {
                        "type" : "double",
                        "defaultValue" : 1.0,
                        "interp" : "linr"
                      },
                      "cursorOpacity" : {
                        "type" : "double",
                        "defaultValue" : 1.0,
                        "interp" : "linr"
                      }
                    },
                    "effects" : [

                    ],
                    "start" : 1974,
                    "duration" : 131,
                    "mediaStart" : 2474,
                    "mediaDuration" : 131,
                    "scalar" : 1,
                    "metadata" : {
                      "AutoAppliedSmartFocus" : "False",
                      "WinSubProjectDisplayName" : "",
                      "clipSpeedAttribute" : false,
                      "default-scale0" : 1.0,
                      "default-scale1" : 1.0,
                      "default-translation0" : 0.0,
                      "default-translation1" : 0.0
                    },
                    "animationTracks" : {
                      "visual" : [
                        {
                          "endTime" : 630,
                          "duration" : 30,
                          "range" : [ 600, 30]
                        },
                        {
                          "endTime" : 747,
                          "duration" : 30,
                          "range" : [ 717, 30]
                        },
                        {
                          "endTime" : 987,
                          "duration" : 30,
                          "range" : [ 957, 30]
                        },
                        {
                          "endTime" : 2054,
                          "duration" : 30,
                          "range" : [ 2024, 30]
                        },
                        {
                          "endTime" : 2144,
                          "duration" : 30,
                          "range" : [ 2114, 30]
                        }
                      ]
                    }
                  },
                  {
                    "id" : 26,
                    "_type" : "ScreenVMFile",
                    "src" : 3,
                    "trackNumber" : 0,
                    "attributes" : {
                      "ident" : "Rec 02-06-19_002"
                    },
                    "parameters" : {
                      "translation0" : {
                        "type" : "double",
                        "defaultValue" : 590.384615384565,
                        "interp" : "eioe",
                        "keyframes" : [
                          {
                            "endTime" : 630,
                            "time" : 600,
                            "value" : -4.32009983342141e-12,
                            "duration" : 30
                          },
                          {
                            "endTime" : 747,
                            "time" : 717,
                            "value" : 1.97353244857368e-10,
                            "duration" : 30
                          },
                          {
                            "endTime" : 987,
                            "time" : 957,
                            "value" : -273.076923076775,
                            "duration" : 30
                          },
                          {
                            "endTime" : 2054,
                            "time" : 2024,
                            "value" : 527.076923077042,
                            "duration" : 30
                          },
                          {
                            "endTime" : 2144,
                            "time" : 2114,
                            "value" : -240.407692307794,
                            "duration" : 30
                          }
                        ]
                      },
                      "translation1" : {
                        "type" : "double",
                        "defaultValue" : -290.973076923057,
                        "interp" : "eioe",
                        "keyframes" : [
                          {
                            "endTime" : 630,
                            "time" : 600,
                            "value" : 176.334615384492,
                            "duration" : 30
                          },
                          {
                            "endTime" : 747,
                            "time" : 717,
                            "value" : -194.819230769224,
                            "duration" : 30
                          },
                          {
                            "endTime" : 987,
                            "time" : 957,
                            "value" : -10.2038461538006,
                            "duration" : 30
                          },
                          {
                            "endTime" : 2054,
                            "time" : 2024,
                            "value" : 730.180769230816,
                            "duration" : 30
                          },
                          {
                            "endTime" : 2144,
                            "time" : 2114,
                            "value" : -1.77777792487177e-11,
                            "duration" : 30
                          }
                        ]
                      },
                      "scale0" : {
                        "type" : "double",
                        "defaultValue" : 1.67333333333333,
                        "interp" : "eioe",
                        "keyframes" : [
                          {
                            "endTime" : 987,
                            "time" : 957,
                            "value" : 1.3,
                            "duration" : 30
                          },
                          {
                            "endTime" : 2054,
                            "time" : 2024,
                            "value" : 2.63066666666667,
                            "duration" : 30
                          },
                          {
                            "endTime" : 2144,
                            "time" : 2114,
                            "value" : 1.3,
                            "duration" : 30
                          }
                        ]
                      },
                      "scale1" : {
                        "type" : "double",
                        "defaultValue" : 1.67333333333333,
                        "interp" : "eioe",
                        "keyframes" : [
                          {
                            "endTime" : 987,
                            "time" : 957,
                            "value" : 1.3,
                            "duration" : 30
                          },
                          {
                            "endTime" : 2054,
                            "time" : 2024,
                            "value" : 2.63066666666667,
                            "duration" : 30
                          },
                          {
                            "endTime" : 2144,
                            "time" : 2114,
                            "value" : 1.3,
                            "duration" : 30
                          }
                        ]
                      },
                      "cursorScale" : {
                        "type" : "double",
                        "defaultValue" : 1.0,
                        "interp" : "linr"
                      },
                      "cursorOpacity" : {
                        "type" : "double",
                        "defaultValue" : 1.0,
                        "interp" : "linr"
                      }
                    },
                    "effects" : [

                    ],
                    "start" : 2105,
                    "duration" : 39,
                    "mediaStart" : 2605,
                    "mediaDuration" : 117,
                    "scalar" : "1/3",
                    "metadata" : {
                      "AutoAppliedSmartFocus" : "False",
                      "WinSubProjectDisplayName" : "",
                      "clipSpeedAttribute" : true,
                      "default-scale0" : 1.0,
                      "default-scale1" : 1.0,
                      "default-translation0" : 0.0,
                      "default-translation1" : 0.0
                    },
                    "animationTracks" : {
                      "visual" : [
                        {
                          "endTime" : 630,
                          "duration" : 30,
                          "range" : [ 600, 30]
                        },
                        {
                          "endTime" : 747,
                          "duration" : 30,
                          "range" : [ 717, 30]
                        },
                        {
                          "endTime" : 987,
                          "duration" : 30,
                          "range" : [ 957, 30]
                        },
                        {
                          "endTime" : 2054,
                          "duration" : 30,
                          "range" : [ 2024, 30]
                        },
                        {
                          "endTime" : 2144,
                          "duration" : 30,
                          "range" : [ 2114, 30]
                        }
                      ]
                    }
                  },
                  {
                    "id" : 27,
                    "_type" : "ScreenVMFile",
                    "src" : 3,
                    "trackNumber" : 0,
                    "attributes" : {
                      "ident" : "Rec 02-06-19_002"
                    },
                    "parameters" : {
                      "translation0" : {
                        "type" : "double",
                        "defaultValue" : 590.384615384565,
                        "interp" : "eioe",
                        "keyframes" : [
                          {
                            "endTime" : 630,
                            "time" : 600,
                            "value" : -4.32009983342141e-12,
                            "duration" : 30
                          },
                          {
                            "endTime" : 747,
                            "time" : 717,
                            "value" : 1.97353244857368e-10,
                            "duration" : 30
                          },
                          {
                            "endTime" : 987,
                            "time" : 957,
                            "value" : -273.076923076775,
                            "duration" : 30
                          },
                          {
                            "endTime" : 2054,
                            "time" : 2024,
                            "value" : 527.076923077042,
                            "duration" : 30
                          },
                          {
                            "endTime" : 2144,
                            "time" : 2114,
                            "value" : -240.407692307794,
                            "duration" : 30
                          }
                        ]
                      },
                      "translation1" : {
                        "type" : "double",
                        "defaultValue" : -290.973076923057,
                        "interp" : "eioe",
                        "keyframes" : [
                          {
                            "endTime" : 630,
                            "time" : 600,
                            "value" : 176.334615384492,
                            "duration" : 30
                          },
                          {
                            "endTime" : 747,
                            "time" : 717,
                            "value" : -194.819230769224,
                            "duration" : 30
                          },
                          {
                            "endTime" : 987,
                            "time" : 957,
                            "value" : -10.2038461538006,
                            "duration" : 30
                          },
                          {
                            "endTime" : 2054,
                            "time" : 2024,
                            "value" : 730.180769230816,
                            "duration" : 30
                          },
                          {
                            "endTime" : 2144,
                            "time" : 2114,
                            "value" : -1.77777792487177e-11,
                            "duration" : 30
                          }
                        ]
                      },
                      "scale0" : {
                        "type" : "double",
                        "defaultValue" : 1.67333333333333,
                        "interp" : "eioe",
                        "keyframes" : [
                          {
                            "endTime" : 987,
                            "time" : 957,
                            "value" : 1.3,
                            "duration" : 30
                          },
                          {
                            "endTime" : 2054,
                            "time" : 2024,
                            "value" : 2.63066666666667,
                            "duration" : 30
                          },
                          {
                            "endTime" : 2144,
                            "time" : 2114,
                            "value" : 1.3,
                            "duration" : 30
                          }
                        ]
                      },
                      "scale1" : {
                        "type" : "double",
                        "defaultValue" : 1.67333333333333,
                        "interp" : "eioe",
                        "keyframes" : [
                          {
                            "endTime" : 987,
                            "time" : 957,
                            "value" : 1.3,
                            "duration" : 30
                          },
                          {
                            "endTime" : 2054,
                            "time" : 2024,
                            "value" : 2.63066666666667,
                            "duration" : 30
                          },
                          {
                            "endTime" : 2144,
                            "time" : 2114,
                            "value" : 1.3,
                            "duration" : 30
                          }
                        ]
                      },
                      "cursorScale" : {
                        "type" : "double",
                        "defaultValue" : 1.0,
                        "interp" : "linr"
                      },
                      "cursorOpacity" : {
                        "type" : "double",
                        "defaultValue" : 1.0,
                        "interp" : "linr"
                      }
                    },
                    "effects" : [

                    ],
                    "start" : 2144,
                    "duration" : 132,
                    "mediaStart" : 2822,
                    "mediaDuration" : 132,
                    "scalar" : 1,
                    "metadata" : {
                      "AutoAppliedSmartFocus" : "False",
                      "WinSubProjectDisplayName" : "",
                      "clipSpeedAttribute" : false,
                      "default-scale0" : 1.0,
                      "default-scale1" : 1.0,
                      "default-translation0" : 0.0,
                      "default-translation1" : 0.0
                    },
                    "animationTracks" : {
                      "visual" : [
                        {
                          "endTime" : 630,
                          "duration" : 30,
                          "range" : [ 600, 30]
                        },
                        {
                          "endTime" : 747,
                          "duration" : 30,
                          "range" : [ 717, 30]
                        },
                        {
                          "endTime" : 987,
                          "duration" : 30,
                          "range" : [ 957, 30]
                        },
                        {
                          "endTime" : 2054,
                          "duration" : 30,
                          "range" : [ 2024, 30]
                        },
                        {
                          "endTime" : 2144,
                          "duration" : 30,
                          "range" : [ 2114, 30]
                        }
                      ]
                    }
                  },
                  {
                    "id" : 28,
                    "_type" : "ScreenVMFile",
                    "src" : 3,
                    "trackNumber" : 0,
                    "attributes" : {
                      "ident" : "Rec 02-06-19_002"
                    },
                    "parameters" : {
                      "translation0" : {
                        "type" : "double",
                        "defaultValue" : 590.384615384565,
                        "interp" : "eioe",
                        "keyframes" : [
                          {
                            "endTime" : 630,
                            "time" : 600,
                            "value" : -4.32009983342141e-12,
                            "duration" : 30
                          },
                          {
                            "endTime" : 747,
                            "time" : 717,
                            "value" : 1.97353244857368e-10,
                            "duration" : 30
                          },
                          {
                            "endTime" : 987,
                            "time" : 957,
                            "value" : -273.076923076775,
                            "duration" : 30
                          },
                          {
                            "endTime" : 2054,
                            "time" : 2024,
                            "value" : 527.076923077042,
                            "duration" : 30
                          },
                          {
                            "endTime" : 2144,
                            "time" : 2114,
                            "value" : -240.407692307794,
                            "duration" : 30
                          }
                        ]
                      },
                      "translation1" : {
                        "type" : "double",
                        "defaultValue" : -290.973076923057,
                        "interp" : "eioe",
                        "keyframes" : [
                          {
                            "endTime" : 630,
                            "time" : 600,
                            "value" : 176.334615384492,
                            "duration" : 30
                          },
                          {
                            "endTime" : 747,
                            "time" : 717,
                            "value" : -194.819230769224,
                            "duration" : 30
                          },
                          {
                            "endTime" : 987,
                            "time" : 957,
                            "value" : -10.2038461538006,
                            "duration" : 30
                          },
                          {
                            "endTime" : 2054,
                            "time" : 2024,
                            "value" : 730.180769230816,
                            "duration" : 30
                          },
                          {
                            "endTime" : 2144,
                            "time" : 2114,
                            "value" : -1.77777792487177e-11,
                            "duration" : 30
                          }
                        ]
                      },
                      "scale0" : {
                        "type" : "double",
                        "defaultValue" : 1.67333333333333,
                        "interp" : "eioe",
                        "keyframes" : [
                          {
                            "endTime" : 987,
                            "time" : 957,
                            "value" : 1.3,
                            "duration" : 30
                          },
                          {
                            "endTime" : 2054,
                            "time" : 2024,
                            "value" : 2.63066666666667,
                            "duration" : 30
                          },
                          {
                            "endTime" : 2144,
                            "time" : 2114,
                            "value" : 1.3,
                            "duration" : 30
                          }
                        ]
                      },
                      "scale1" : {
                        "type" : "double",
                        "defaultValue" : 1.67333333333333,
                        "interp" : "eioe",
                        "keyframes" : [
                          {
                            "endTime" : 987,
                            "time" : 957,
                            "value" : 1.3,
                            "duration" : 30
                          },
                          {
                            "endTime" : 2054,
                            "time" : 2024,
                            "value" : 2.63066666666667,
                            "duration" : 30
                          },
                          {
                            "endTime" : 2144,
                            "time" : 2114,
                            "value" : 1.3,
                            "duration" : 30
                          }
                        ]
                      },
                      "cursorScale" : {
                        "type" : "double",
                        "defaultValue" : 1.0,
                        "interp" : "linr"
                      },
                      "cursorOpacity" : {
                        "type" : "double",
                        "defaultValue" : 1.0,
                        "interp" : "linr"
                      }
                    },
                    "effects" : [

                    ],
                    "start" : 2276,
                    "duration" : 104,
                    "mediaStart" : 2954,
                    "mediaDuration" : 416,
                    "scalar" : "1/4",
                    "metadata" : {
                      "AutoAppliedSmartFocus" : "False",
                      "WinSubProjectDisplayName" : "",
                      "clipSpeedAttribute" : true,
                      "default-scale0" : 1.0,
                      "default-scale1" : 1.0,
                      "default-translation0" : 0.0,
                      "default-translation1" : 0.0
                    },
                    "animationTracks" : {
                      "visual" : [
                        {
                          "endTime" : 630,
                          "duration" : 30,
                          "range" : [ 600, 30]
                        },
                        {
                          "endTime" : 747,
                          "duration" : 30,
                          "range" : [ 717, 30]
                        },
                        {
                          "endTime" : 987,
                          "duration" : 30,
                          "range" : [ 957, 30]
                        },
                        {
                          "endTime" : 2054,
                          "duration" : 30,
                          "range" : [ 2024, 30]
                        },
                        {
                          "endTime" : 2144,
                          "duration" : 30,
                          "range" : [ 2114, 30]
                        }
                      ]
                    }
                  },
                  {
                    "id" : 29,
                    "_type" : "ScreenVMFile",
                    "src" : 3,
                    "trackNumber" : 0,
                    "attributes" : {
                      "ident" : "Rec 02-06-19_002"
                    },
                    "parameters" : {
                      "translation0" : {
                        "type" : "double",
                        "defaultValue" : 590.384615384565,
                        "interp" : "eioe",
                        "keyframes" : [
                          {
                            "endTime" : 630,
                            "time" : 600,
                            "value" : -4.32009983342141e-12,
                            "duration" : 30
                          },
                          {
                            "endTime" : 747,
                            "time" : 717,
                            "value" : 1.97353244857368e-10,
                            "duration" : 30
                          },
                          {
                            "endTime" : 987,
                            "time" : 957,
                            "value" : -273.076923076775,
                            "duration" : 30
                          },
                          {
                            "endTime" : 2054,
                            "time" : 2024,
                            "value" : 527.076923077042,
                            "duration" : 30
                          },
                          {
                            "endTime" : 2144,
                            "time" : 2114,
                            "value" : -240.407692307794,
                            "duration" : 30
                          }
                        ]
                      },
                      "translation1" : {
                        "type" : "double",
                        "defaultValue" : -290.973076923057,
                        "interp" : "eioe",
                        "keyframes" : [
                          {
                            "endTime" : 630,
                            "time" : 600,
                            "value" : 176.334615384492,
                            "duration" : 30
                          },
                          {
                            "endTime" : 747,
                            "time" : 717,
                            "value" : -194.819230769224,
                            "duration" : 30
                          },
                          {
                            "endTime" : 987,
                            "time" : 957,
                            "value" : -10.2038461538006,
                            "duration" : 30
                          },
                          {
                            "endTime" : 2054,
                            "time" : 2024,
                            "value" : 730.180769230816,
                            "duration" : 30
                          },
                          {
                            "endTime" : 2144,
                            "time" : 2114,
                            "value" : -1.77777792487177e-11,
                            "duration" : 30
                          }
                        ]
                      },
                      "scale0" : {
                        "type" : "double",
                        "defaultValue" : 1.67333333333333,
                        "interp" : "eioe",
                        "keyframes" : [
                          {
                            "endTime" : 987,
                            "time" : 957,
                            "value" : 1.3,
                            "duration" : 30
                          },
                          {
                            "endTime" : 2054,
                            "time" : 2024,
                            "value" : 2.63066666666667,
                            "duration" : 30
                          },
                          {
                            "endTime" : 2144,
                            "time" : 2114,
                            "value" : 1.3,
                            "duration" : 30
                          }
                        ]
                      },
                      "scale1" : {
                        "type" : "double",
                        "defaultValue" : 1.67333333333333,
                        "interp" : "eioe",
                        "keyframes" : [
                          {
                            "endTime" : 987,
                            "time" : 957,
                            "value" : 1.3,
                            "duration" : 30
                          },
                          {
                            "endTime" : 2054,
                            "time" : 2024,
                            "value" : 2.63066666666667,
                            "duration" : 30
                          },
                          {
                            "endTime" : 2144,
                            "time" : 2114,
                            "value" : 1.3,
                            "duration" : 30
                          }
                        ]
                      },
                      "cursorScale" : {
                        "type" : "double",
                        "defaultValue" : 1.0,
                        "interp" : "linr"
                      },
                      "cursorOpacity" : {
                        "type" : "double",
                        "defaultValue" : 1.0,
                        "interp" : "linr"
                      }
                    },
                    "effects" : [

                    ],
                    "start" : 2380,
                    "duration" : 240,
                    "mediaStart" : 3370,
                    "mediaDuration" : 240,
                    "scalar" : 1,
                    "metadata" : {
                      "AutoAppliedSmartFocus" : "False",
                      "WinSubProjectDisplayName" : "",
                      "clipSpeedAttribute" : false,
                      "default-scale0" : 1.0,
                      "default-scale1" : 1.0,
                      "default-translation0" : 0.0,
                      "default-translation1" : 0.0
                    },
                    "animationTracks" : {
                      "visual" : [
                        {
                          "endTime" : 630,
                          "duration" : 30,
                          "range" : [ 600, 30]
                        },
                        {
                          "endTime" : 747,
                          "duration" : 30,
                          "range" : [ 717, 30]
                        },
                        {
                          "endTime" : 987,
                          "duration" : 30,
                          "range" : [ 957, 30]
                        },
                        {
                          "endTime" : 2054,
                          "duration" : 30,
                          "range" : [ 2024, 30]
                        },
                        {
                          "endTime" : 2144,
                          "duration" : 30,
                          "range" : [ 2114, 30]
                        }
                      ]
                    }
                  },
                  {
                    "id" : 30,
                    "_type" : "ScreenVMFile",
                    "src" : 3,
                    "trackNumber" : 0,
                    "attributes" : {
                      "ident" : "Rec 02-06-19_002"
                    },
                    "parameters" : {
                      "translation0" : {
                        "type" : "double",
                        "defaultValue" : 590.384615384565,
                        "interp" : "eioe",
                        "keyframes" : [
                          {
                            "endTime" : 630,
                            "time" : 600,
                            "value" : -4.32009983342141e-12,
                            "duration" : 30
                          },
                          {
                            "endTime" : 747,
                            "time" : 717,
                            "value" : 1.97353244857368e-10,
                            "duration" : 30
                          },
                          {
                            "endTime" : 987,
                            "time" : 957,
                            "value" : -273.076923076775,
                            "duration" : 30
                          },
                          {
                            "endTime" : 2054,
                            "time" : 2024,
                            "value" : 527.076923077042,
                            "duration" : 30
                          },
                          {
                            "endTime" : 2144,
                            "time" : 2114,
                            "value" : -240.407692307794,
                            "duration" : 30
                          }
                        ]
                      },
                      "translation1" : {
                        "type" : "double",
                        "defaultValue" : -290.973076923057,
                        "interp" : "eioe",
                        "keyframes" : [
                          {
                            "endTime" : 630,
                            "time" : 600,
                            "value" : 176.334615384492,
                            "duration" : 30
                          },
                          {
                            "endTime" : 747,
                            "time" : 717,
                            "value" : -194.819230769224,
                            "duration" : 30
                          },
                          {
                            "endTime" : 987,
                            "time" : 957,
                            "value" : -10.2038461538006,
                            "duration" : 30
                          },
                          {
                            "endTime" : 2054,
                            "time" : 2024,
                            "value" : 730.180769230816,
                            "duration" : 30
                          },
                          {
                            "endTime" : 2144,
                            "time" : 2114,
                            "value" : -1.77777792487177e-11,
                            "duration" : 30
                          }
                        ]
                      },
                      "scale0" : {
                        "type" : "double",
                        "defaultValue" : 1.67333333333333,
                        "interp" : "eioe",
                        "keyframes" : [
                          {
                            "endTime" : 987,
                            "time" : 957,
                            "value" : 1.3,
                            "duration" : 30
                          },
                          {
                            "endTime" : 2054,
                            "time" : 2024,
                            "value" : 2.63066666666667,
                            "duration" : 30
                          },
                          {
                            "endTime" : 2144,
                            "time" : 2114,
                            "value" : 1.3,
                            "duration" : 30
                          }
                        ]
                      },
                      "scale1" : {
                        "type" : "double",
                        "defaultValue" : 1.67333333333333,
                        "interp" : "eioe",
                        "keyframes" : [
                          {
                            "endTime" : 987,
                            "time" : 957,
                            "value" : 1.3,
                            "duration" : 30
                          },
                          {
                            "endTime" : 2054,
                            "time" : 2024,
                            "value" : 2.63066666666667,
                            "duration" : 30
                          },
                          {
                            "endTime" : 2144,
                            "time" : 2114,
                            "value" : 1.3,
                            "duration" : 30
                          }
                        ]
                      },
                      "cursorScale" : {
                        "type" : "double",
                        "defaultValue" : 1.0,
                        "interp" : "linr"
                      },
                      "cursorOpacity" : {
                        "type" : "double",
                        "defaultValue" : 1.0,
                        "interp" : "linr"
                      }
                    },
                    "effects" : [

                    ],
                    "start" : 2620,
                    "duration" : 648,
                    "mediaStart" : 3686,
                    "mediaDuration" : 648,
                    "scalar" : 1,
                    "metadata" : {
                      "AutoAppliedSmartFocus" : "False",
                      "WinSubProjectDisplayName" : "",
                      "clipSpeedAttribute" : false,
                      "default-scale0" : 1.0,
                      "default-scale1" : 1.0,
                      "default-translation0" : 0.0,
                      "default-translation1" : 0.0
                    },
                    "animationTracks" : {
                      "visual" : [
                        {
                          "endTime" : 630,
                          "duration" : 30,
                          "range" : [ 600, 30]
                        },
                        {
                          "endTime" : 747,
                          "duration" : 30,
                          "range" : [ 717, 30]
                        },
                        {
                          "endTime" : 987,
                          "duration" : 30,
                          "range" : [ 957, 30]
                        },
                        {
                          "endTime" : 2054,
                          "duration" : 30,
                          "range" : [ 2024, 30]
                        },
                        {
                          "endTime" : 2144,
                          "duration" : 30,
                          "range" : [ 2114, 30]
                        }
                      ]
                    }
                  },
                  {
                    "id" : 31,
                    "_type" : "StitchedMedia",
                    "minMediaStart" : 0,
                    "attributes" : {
                      "ident" : "Rec 02-06-19_003",
                      "gain" : 1.0,
                      "mixToMono" : false
                    },
                    "parameters" : {
                      "translation0" : 67.3076923077288,
                      "translation1" : -156.000000000124,
                      "scale0" : 1.37425,
                      "scale1" : 1.37425,
                      "cursorOpacity" : 1.0,
                      "cursorScale" : 1.0
                    },
                    "medias" : [
                        {
                          "id" : 32,
                          "_type" : "ScreenVMFile",
                          "src" : 4,
                          "trackNumber" : 0,
                          "attributes" : {
                            "ident" : "Rec 02-06-19_003"
                          },
                          "parameters" : {
                            "cursorScale" : {
                              "type" : "double",
                              "defaultValue" : 0.0,
                              "interp" : "linr"
                            },
                            "cursorOpacity" : {
                              "type" : "double",
                              "defaultValue" : 0.0,
                              "interp" : "linr"
                            }
                          },
                          "effects" : [

                          ],
                          "start" : 0,
                          "duration" : 2103,
                          "mediaStart" : 0,
                          "mediaDuration" : 2103,
                          "scalar" : 1,
                          "metadata" : {
                            "AutoAppliedSmartFocus" : "False",
                            "WinSubProjectDisplayName" : "",
                            "clipSpeedAttribute" : false,
                            "default-scale0" : 1.0,
                            "default-scale1" : 1.0,
                            "default-translation0" : 0.0,
                            "default-translation1" : 0.0
                          },
                          "animationTracks" : {

                          }
                        },
                        {
                          "id" : 33,
                          "_type" : "ScreenVMFile",
                          "src" : 4,
                          "trackNumber" : 0,
                          "attributes" : {
                            "ident" : "Rec 02-06-19_003"
                          },
                          "parameters" : {
                            "cursorScale" : {
                              "type" : "double",
                              "defaultValue" : 0.0,
                              "interp" : "linr"
                            },
                            "cursorOpacity" : {
                              "type" : "double",
                              "defaultValue" : 0.0,
                              "interp" : "linr"
                            }
                          },
                          "effects" : [

                          ],
                          "start" : 2103,
                          "duration" : 329,
                          "mediaStart" : 2317,
                          "mediaDuration" : 329,
                          "scalar" : 1,
                          "metadata" : {
                            "AutoAppliedSmartFocus" : "False",
                            "WinSubProjectDisplayName" : "",
                            "clipSpeedAttribute" : false
                          },
                          "animationTracks" : {

                          }
                        },
                        {
                          "id" : 34,
                          "_type" : "ScreenVMFile",
                          "src" : 4,
                          "trackNumber" : 0,
                          "attributes" : {
                            "ident" : "Rec 02-06-19_003"
                          },
                          "parameters" : {
                            "cursorScale" : {
                              "type" : "double",
                              "defaultValue" : 0.0,
                              "interp" : "linr"
                            },
                            "cursorOpacity" : {
                              "type" : "double",
                              "defaultValue" : 0.0,
                              "interp" : "linr"
                            }
                          },
                          "effects" : [

                          ],
                          "start" : 2432,
                          "duration" : 246,
                          "mediaStart" : 2758,
                          "mediaDuration" : 246,
                          "scalar" : 1,
                          "metadata" : {
                            "AutoAppliedSmartFocus" : "False",
                            "WinSubProjectDisplayName" : "",
                            "clipSpeedAttribute" : false
                          },
                          "animationTracks" : {

                          }
                        }
                    ],
                    "effects" : [

                    ],
                    "start" : 3268,
                    "duration" : 836,
                    "mediaStart" : 1761,
                    "mediaDuration" : 836,
                    "scalar" : 1,
                    "metadata" : {
                      "AutoAppliedSmartFocus" : "False",
                      "WinSubProjectDisplayName" : "",
                      "clipSpeedAttribute" : false
                    },
                    "animationTracks" : {

                    }
                  },
                  {
                    "id" : 35,
                    "_type" : "StitchedMedia",
                    "minMediaStart" : 0,
                    "attributes" : {
                      "ident" : "Rec 02-06-19_003",
                      "gain" : 1.0,
                      "mixToMono" : false
                    },
                    "parameters" : {
                      "translation0" : 67.3076923077288,
                      "translation1" : -156.000000000124,
                      "scale0" : 1.37425,
                      "scale1" : 1.37425,
                      "cursorOpacity" : 1.0,
                      "cursorScale" : 1.0
                    },
                    "medias" : [
                        {
                          "id" : 36,
                          "_type" : "ScreenVMFile",
                          "src" : 4,
                          "trackNumber" : 0,
                          "attributes" : {
                            "ident" : "Rec 02-06-19_003"
                          },
                          "parameters" : {
                            "cursorScale" : {
                              "type" : "double",
                              "defaultValue" : 0.0,
                              "interp" : "linr"
                            },
                            "cursorOpacity" : {
                              "type" : "double",
                              "defaultValue" : 0.0,
                              "interp" : "linr"
                            }
                          },
                          "effects" : [

                          ],
                          "start" : 0,
                          "duration" : 2103,
                          "mediaStart" : 0,
                          "mediaDuration" : 2103,
                          "scalar" : 1,
                          "metadata" : {
                            "AutoAppliedSmartFocus" : "False",
                            "WinSubProjectDisplayName" : "",
                            "clipSpeedAttribute" : false,
                            "default-scale0" : 1.0,
                            "default-scale1" : 1.0,
                            "default-translation0" : 0.0,
                            "default-translation1" : 0.0
                          },
                          "animationTracks" : {

                          }
                        },
                        {
                          "id" : 37,
                          "_type" : "ScreenVMFile",
                          "src" : 4,
                          "trackNumber" : 0,
                          "attributes" : {
                            "ident" : "Rec 02-06-19_003"
                          },
                          "parameters" : {
                            "cursorScale" : {
                              "type" : "double",
                              "defaultValue" : 0.0,
                              "interp" : "linr"
                            },
                            "cursorOpacity" : {
                              "type" : "double",
                              "defaultValue" : 0.0,
                              "interp" : "linr"
                            }
                          },
                          "effects" : [

                          ],
                          "start" : 2103,
                          "duration" : 329,
                          "mediaStart" : 2317,
                          "mediaDuration" : 329,
                          "scalar" : 1,
                          "metadata" : {
                            "AutoAppliedSmartFocus" : "False",
                            "WinSubProjectDisplayName" : "",
                            "clipSpeedAttribute" : false
                          },
                          "animationTracks" : {

                          }
                        },
                        {
                          "id" : 38,
                          "_type" : "ScreenVMFile",
                          "src" : 4,
                          "trackNumber" : 0,
                          "attributes" : {
                            "ident" : "Rec 02-06-19_003"
                          },
                          "parameters" : {
                            "cursorScale" : {
                              "type" : "double",
                              "defaultValue" : 0.0,
                              "interp" : "linr"
                            },
                            "cursorOpacity" : {
                              "type" : "double",
                              "defaultValue" : 0.0,
                              "interp" : "linr"
                            }
                          },
                          "effects" : [

                          ],
                          "start" : 2432,
                          "duration" : 165,
                          "mediaStart" : 2758,
                          "mediaDuration" : 165,
                          "scalar" : 1,
                          "metadata" : {
                            "AutoAppliedSmartFocus" : "False",
                            "WinSubProjectDisplayName" : "",
                            "clipSpeedAttribute" : false
                          },
                          "animationTracks" : {

                          }
                        },
                        {
                          "id" : 39,
                          "_type" : "ScreenVMFile",
                          "src" : 4,
                          "trackNumber" : 0,
                          "attributes" : {
                            "ident" : "Rec 02-06-19_003"
                          },
                          "parameters" : {
                            "cursorScale" : {
                              "type" : "double",
                              "defaultValue" : 0.0,
                              "interp" : "linr"
                            },
                            "cursorOpacity" : {
                              "type" : "double",
                              "defaultValue" : 0.0,
                              "interp" : "linr"
                            }
                          },
                          "effects" : [

                          ],
                          "start" : 2597,
                          "duration" : 3004,
                          "mediaStart" : 0,
                          "mediaDuration" : 3004,
                          "scalar" : 1,
                          "metadata" : {
                            "AutoAppliedSmartFocus" : "False",
                            "WinSubProjectDisplayName" : "",
                            "clipSpeedAttribute" : false
                          },
                          "animationTracks" : {

                          }
                        }
                    ],
                    "effects" : [

                    ],
                    "start" : 4104,
                    "duration" : 63,
                    "mediaStart" : 2775,
                    "mediaDuration" : 63,
                    "scalar" : 1,
                    "metadata" : {
                      "AutoAppliedSmartFocus" : "False",
                      "WinSubProjectDisplayName" : "",
                      "clipSpeedAttribute" : false
                    },
                    "animationTracks" : {

                    }
                  },
                  {
                    "id" : 40,
                    "_type" : "StitchedMedia",
                    "minMediaStart" : 0,
                    "attributes" : {
                      "ident" : "Rec 02-06-19_003",
                      "gain" : 1.0,
                      "mixToMono" : false
                    },
                    "parameters" : {
                      "translation0" : 67.3076923077288,
                      "translation1" : -156.000000000124,
                      "scale0" : 1.37425,
                      "scale1" : 1.37425,
                      "cursorOpacity" : 1.0,
                      "cursorScale" : 1.0
                    },
                    "medias" : [
                        {
                          "id" : 41,
                          "_type" : "ScreenVMFile",
                          "src" : 4,
                          "trackNumber" : 0,
                          "attributes" : {
                            "ident" : "Rec 02-06-19_003"
                          },
                          "parameters" : {
                            "cursorScale" : {
                              "type" : "double",
                              "defaultValue" : 0.0,
                              "interp" : "linr"
                            },
                            "cursorOpacity" : {
                              "type" : "double",
                              "defaultValue" : 0.0,
                              "interp" : "linr"
                            }
                          },
                          "effects" : [

                          ],
                          "start" : 0,
                          "duration" : 832,
                          "mediaStart" : 0,
                          "mediaDuration" : 832,
                          "scalar" : 1,
                          "metadata" : {
                            "AutoAppliedSmartFocus" : "False",
                            "WinSubProjectDisplayName" : "",
                            "clipSpeedAttribute" : false
                          },
                          "animationTracks" : {

                          }
                        },
                        {
                          "id" : 42,
                          "_type" : "ScreenVMFile",
                          "src" : 4,
                          "trackNumber" : 0,
                          "attributes" : {
                            "ident" : "Rec 02-06-19_003"
                          },
                          "parameters" : {
                            "cursorScale" : {
                              "type" : "double",
                              "defaultValue" : 0.0,
                              "interp" : "linr"
                            },
                            "cursorOpacity" : {
                              "type" : "double",
                              "defaultValue" : 0.0,
                              "interp" : "linr"
                            }
                          },
                          "effects" : [

                          ],
                          "start" : 832,
                          "duration" : 1927,
                          "mediaStart" : 1077,
                          "mediaDuration" : 1927,
                          "scalar" : 1,
                          "metadata" : {
                            "AutoAppliedSmartFocus" : "False",
                            "WinSubProjectDisplayName" : "",
                            "clipSpeedAttribute" : false
                          },
                          "animationTracks" : {

                          }
                        }
                    ],
                    "effects" : [

                    ],
                    "start" : 4167,
                    "duration" : 88,
                    "mediaStart" : 478,
                    "mediaDuration" : 88,
                    "scalar" : 1,
                    "metadata" : {
                      "AutoAppliedSmartFocus" : "False",
                      "WinSubProjectDisplayName" : "",
                      "clipSpeedAttribute" : false
                    },
                    "animationTracks" : {

                    }
                  },
                  {
                    "id" : 43,
                    "_type" : "IMFile",
                    "src" : 13,
                    "trackNumber" : 0,
                    "trimStartSum" : 0,
                    "attributes" : {
                      "ident" : "Functions"
                    },
                    "parameters" : {
                      "translation0" : {
                        "type" : "double",
                        "defaultValue" : -1574.35717649789,
                        "interp" : "eioe",
                        "keyframes" : [
                          {
                            "endTime" : 194,
                            "time" : 0,
                            "value" : -295.304544918954,
                            "duration" : 194
                          }
                        ]
                      },
                      "translation1" : {
                        "type" : "double",
                        "defaultValue" : -85.5263157891749,
                        "interp" : "eioe",
                        "keyframes" : [
                          {
                            "endTime" : 194,
                            "time" : 0,
                            "value" : -85.5,
                            "duration" : 194
                          }
                        ]
                      },
                      "scale0" : {
                        "type" : "double",
                        "defaultValue" : 5.40951371717717,
                        "interp" : "eioe"
                      },
                      "scale1" : {
                        "type" : "double",
                        "defaultValue" : 5.40951371717717,
                        "interp" : "eioe"
                      }
                    },
                    "effects" : [

                    ],
                    "start" : 4255,
                    "duration" : 194,
                    "mediaStart" : 0,
                    "mediaDuration" : 1,
                    "scalar" : 1,
                    "metadata" : {
                      "WinSubProjectDisplayName" : "",
                      "clipSpeedAttribute" : false
                    },
                    "animationTracks" : {
                      "visual" : [
                        {
                          "endTime" : 194,
                          "duration" : 194,
                          "range" : [ 0, 194],
                          "interp" : "linr"
                        }
                      ]
                    }
                  },
                  {
                    "id" : 44,
                    "_type" : "StitchedMedia",
                    "minMediaStart" : 0,
                    "attributes" : {
                      "ident" : "Rec 02-06-19_003",
                      "gain" : 1.0,
                      "mixToMono" : false
                    },
                    "parameters" : {
                      "translation0" : {
                        "type" : "double",
                        "defaultValue" : 67.3076923077288,
                        "interp" : "eioe"
                      },
                      "translation1" : {
                        "type" : "double",
                        "defaultValue" : -156.000000000124,
                        "interp" : "eioe"
                      },
                      "scale0" : {
                        "type" : "double",
                        "defaultValue" : 1.37425,
                        "interp" : "eioe"
                      },
                      "scale1" : {
                        "type" : "double",
                        "defaultValue" : 1.37425,
                        "interp" : "eioe"
                      },
                      "cursorOpacity" : {
                        "type" : "double",
                        "defaultValue" : 1.0,
                        "interp" : "linr"
                      },
                      "cursorScale" : {
                        "type" : "double",
                        "defaultValue" : 1.0,
                        "interp" : "linr"
                      }
                    },
                    "medias" : [
                        {
                          "id" : 45,
                          "_type" : "ScreenVMFile",
                          "src" : 4,
                          "trackNumber" : 0,
                          "attributes" : {
                            "ident" : "Rec 02-06-19_003"
                          },
                          "parameters" : {
                            "cursorScale" : {
                              "type" : "double",
                              "defaultValue" : 0.0,
                              "interp" : "linr"
                            },
                            "cursorOpacity" : {
                              "type" : "double",
                              "defaultValue" : 0.0,
                              "interp" : "linr"
                            }
                          },
                          "effects" : [

                          ],
                          "start" : 0,
                          "duration" : 832,
                          "mediaStart" : 0,
                          "mediaDuration" : 832,
                          "scalar" : 1,
                          "metadata" : {
                            "AutoAppliedSmartFocus" : "False",
                            "WinSubProjectDisplayName" : "",
                            "clipSpeedAttribute" : false
                          },
                          "animationTracks" : {

                          }
                        },
                        {
                          "id" : 46,
                          "_type" : "ScreenVMFile",
                          "src" : 4,
                          "trackNumber" : 0,
                          "attributes" : {
                            "ident" : "Rec 02-06-19_003"
                          },
                          "parameters" : {
                            "cursorScale" : {
                              "type" : "double",
                              "defaultValue" : 0.0,
                              "interp" : "linr"
                            },
                            "cursorOpacity" : {
                              "type" : "double",
                              "defaultValue" : 0.0,
                              "interp" : "linr"
                            }
                          },
                          "effects" : [

                          ],
                          "start" : 832,
                          "duration" : 1927,
                          "mediaStart" : 1077,
                          "mediaDuration" : 1927,
                          "scalar" : 1,
                          "metadata" : {
                            "AutoAppliedSmartFocus" : "False",
                            "WinSubProjectDisplayName" : "",
                            "clipSpeedAttribute" : false
                          },
                          "animationTracks" : {

                          }
                        }
                    ],
                    "effects" : [

                    ],
                    "start" : 4449,
                    "duration" : 388,
                    "mediaStart" : 566,
                    "mediaDuration" : 388,
                    "scalar" : 1,
                    "metadata" : {
                      "AutoAppliedSmartFocus" : "False",
                      "WinSubProjectDisplayName" : "",
                      "clipSpeedAttribute" : false
                    },
                    "animationTracks" : {

                    }
                  },
                  {
                    "id" : 47,
                    "_type" : "ScreenVMFile",
                    "src" : 5,
                    "trackNumber" : 0,
                    "attributes" : {
                      "ident" : "Rec 02-06-19_004"
                    },
                    "parameters" : {
                      "translation0" : {
                        "type" : "double",
                        "defaultValue" : 67.3,
                        "interp" : "eioe"
                      },
                      "translation1" : {
                        "type" : "double",
                        "defaultValue" : -156.0,
                        "interp" : "eioe"
                      },
                      "scale0" : {
                        "type" : "double",
                        "defaultValue" : 1.374,
                        "interp" : "eioe"
                      },
                      "scale1" : {
                        "type" : "double",
                        "defaultValue" : 1.374,
                        "interp" : "eioe"
                      },
                      "cursorScale" : {
                        "type" : "double",
                        "defaultValue" : 1.0,
                        "interp" : "linr"
                      },
                      "cursorOpacity" : {
                        "type" : "double",
                        "defaultValue" : 1.0,
                        "interp" : "linr"
                      }
                    },
                    "effects" : [

                    ],
                    "start" : 4837,
                    "duration" : 482,
                    "mediaStart" : 3,
                    "mediaDuration" : 482,
                    "scalar" : 1,
                    "metadata" : {
                      "AutoAppliedSmartFocus" : "False",
                      "WinSubProjectDisplayName" : "",
                      "clipSpeedAttribute" : false,
                      "default-scale0" : 1.0,
                      "default-scale1" : 1.0,
                      "default-translation0" : 0.0,
                      "default-translation1" : 0.0
                    },
                    "animationTracks" : {
                      "visual" : [
                        {
                          "endTime" : 449,
                          "duration" : 30,
                          "range" : [ 419, 30]
                        }
                      ]
                    }
                  },
                  {
                    "id" : 48,
                    "_type" : "StitchedMedia",
                    "minMediaStart" : 0,
                    "attributes" : {
                      "ident" : "Rec 02-06-19_004",
                      "gain" : 1.0,
                      "mixToMono" : false
                    },
                    "parameters" : {
                      "translation0" : 608.209090909182,
                      "translation1" : -74.1818181818022,
                      "scale0" : 2.66308333333333,
                      "scale1" : 2.66308333333333,
                      "cursorOpacity" : 1.0,
                      "cursorScale" : 1.0
                    },
                    "medias" : [
                        {
                          "id" : 49,
                          "_type" : "ScreenVMFile",
                          "src" : 5,
                          "trackNumber" : 0,
                          "attributes" : {
                            "ident" : "Rec 02-06-19_004"
                          },
                          "parameters" : {
                            "cursorScale" : {
                              "type" : "double",
                              "defaultValue" : 0.0,
                              "interp" : "linr"
                            },
                            "cursorOpacity" : {
                              "type" : "double",
                              "defaultValue" : 0.0,
                              "interp" : "linr"
                            }
                          },
                          "effects" : [

                          ],
                          "start" : 0,
                          "duration" : 850,
                          "mediaStart" : 0,
                          "mediaDuration" : 850,
                          "scalar" : 1,
                          "metadata" : {
                            "AutoAppliedSmartFocus" : "False",
                            "WinSubProjectDisplayName" : "",
                            "clipSpeedAttribute" : false,
                            "default-scale0" : 1.0,
                            "default-scale1" : 1.0,
                            "default-translation0" : 0.0,
                            "default-translation1" : 0.0
                          },
                          "animationTracks" : {

                          }
                        },
                        {
                          "id" : 50,
                          "_type" : "ScreenVMFile",
                          "src" : 5,
                          "trackNumber" : 0,
                          "attributes" : {
                            "ident" : "Rec 02-06-19_004"
                          },
                          "parameters" : {
                            "cursorScale" : {
                              "type" : "double",
                              "defaultValue" : 0.0,
                              "interp" : "linr"
                            },
                            "cursorOpacity" : {
                              "type" : "double",
                              "defaultValue" : 0.0,
                              "interp" : "linr"
                            }
                          },
                          "effects" : [

                          ],
                          "start" : 850,
                          "duration" : 15001,
                          "mediaStart" : 966,
                          "mediaDuration" : 15001,
                          "scalar" : 1,
                          "metadata" : {
                            "AutoAppliedSmartFocus" : "False",
                            "WinSubProjectDisplayName" : "",
                            "clipSpeedAttribute" : false,
                            "default-scale0" : 1.0,
                            "default-scale1" : 1.0,
                            "default-translation0" : 0.0,
                            "default-translation1" : 0.0
                          },
                          "animationTracks" : {

                          }
                        }
                    ],
                    "effects" : [

                    ],
                    "start" : 5319,
                    "duration" : 100,
                    "mediaStart" : 485,
                    "mediaDuration" : 398,
                    "scalar" : "50/199",
                    "metadata" : {
                      "AutoAppliedSmartFocus" : "False",
                      "WinSubProjectDisplayName" : "",
                      "clipSpeedAttribute" : true,
                      "default-scale0" : 1.374,
                      "default-scale1" : 1.374,
                      "default-translation0" : 67.3,
                      "default-translation1" : -156.0
                    },
                    "animationTracks" : {

                    }
                  },
                  {
                    "id" : 51,
                    "_type" : "ScreenVMFile",
                    "src" : 5,
                    "trackNumber" : 0,
                    "attributes" : {
                      "ident" : "Rec 02-06-19_004"
                    },
                    "parameters" : {
                      "translation0" : {
                        "type" : "double",
                        "defaultValue" : 608.2,
                        "interp" : "eioe"
                      },
                      "translation1" : {
                        "type" : "double",
                        "defaultValue" : -74.2,
                        "interp" : "eioe"
                      },
                      "scale0" : {
                        "type" : "double",
                        "defaultValue" : 2.663,
                        "interp" : "eioe"
                      },
                      "scale1" : {
                        "type" : "double",
                        "defaultValue" : 2.663,
                        "interp" : "eioe"
                      },
                      "cursorScale" : {
                        "type" : "double",
                        "defaultValue" : 1.0,
                        "interp" : "linr"
                      },
                      "cursorOpacity" : {
                        "type" : "double",
                        "defaultValue" : 1.0,
                        "interp" : "linr"
                      }
                    },
                    "effects" : [

                    ],
                    "start" : 5419,
                    "duration" : 383,
                    "mediaStart" : 999,
                    "mediaDuration" : 383,
                    "scalar" : 1,
                    "metadata" : {
                      "AutoAppliedSmartFocus" : "False",
                      "WinSubProjectDisplayName" : "",
                      "clipSpeedAttribute" : false,
                      "default-scale0" : 1.0,
                      "default-scale1" : 1.0,
                      "default-translation0" : 0.0,
                      "default-translation1" : 0.0
                    },
                    "animationTracks" : {

                    }
                  },
                  {
                    "id" : 52,
                    "_type" : "ScreenVMFile",
                    "src" : 5,
                    "trackNumber" : 0,
                    "attributes" : {
                      "ident" : "Rec 02-06-19_004"
                    },
                    "parameters" : {
                      "translation0" : {
                        "type" : "double",
                        "defaultValue" : 608.2,
                        "interp" : "eioe",
                        "keyframes" : [
                          {
                            "endTime" : 1852,
                            "time" : 1822,
                            "value" : -655.776923076996,
                            "duration" : 30
                          },
                          {
                            "endTime" : 2193,
                            "time" : 2163,
                            "value" : 67.3,
                            "duration" : 30
                          },
                          {
                            "endTime" : 2627,
                            "time" : 2597,
                            "value" : 790.027272727548,
                            "duration" : 30
                          }
                        ]
                      },
                      "translation1" : {
                        "type" : "double",
                        "defaultValue" : -74.2,
                        "interp" : "eioe",
                        "keyframes" : [
                          {
                            "endTime" : 1852,
                            "time" : 1822,
                            "value" : -292.538461538469,
                            "duration" : 30
                          },
                          {
                            "endTime" : 2193,
                            "time" : 2163,
                            "value" : -156.000000000003,
                            "duration" : 30
                          },
                          {
                            "endTime" : 2627,
                            "time" : 2597,
                            "value" : -226.454545454481,
                            "duration" : 30
                          }
                        ]
                      },
                      "scale0" : {
                        "type" : "double",
                        "defaultValue" : 2.663,
                        "interp" : "eioe",
                        "keyframes" : [
                          {
                            "endTime" : 1852,
                            "time" : 1822,
                            "value" : 2.04758333333333,
                            "duration" : 30
                          },
                          {
                            "endTime" : 2193,
                            "time" : 2163,
                            "value" : 1.374,
                            "duration" : 30
                          },
                          {
                            "endTime" : 2627,
                            "time" : 2597,
                            "value" : 2.21391666666667,
                            "duration" : 30
                          }
                        ]
                      },
                      "scale1" : {
                        "type" : "double",
                        "defaultValue" : 2.663,
                        "interp" : "eioe",
                        "keyframes" : [
                          {
                            "endTime" : 1852,
                            "time" : 1822,
                            "value" : 2.04758333333333,
                            "duration" : 30
                          },
                          {
                            "endTime" : 2193,
                            "time" : 2163,
                            "value" : 1.374,
                            "duration" : 30
                          },
                          {
                            "endTime" : 2627,
                            "time" : 2597,
                            "value" : 2.21391666666667,
                            "duration" : 30
                          }
                        ]
                      },
                      "cursorScale" : {
                        "type" : "double",
                        "defaultValue" : 1.0,
                        "interp" : "linr"
                      },
                      "cursorOpacity" : {
                        "type" : "double",
                        "defaultValue" : 1.0,
                        "interp" : "linr"
                      }
                    },
                    "effects" : [

                    ],
                    "start" : 5802,
                    "duration" : 1371,
                    "mediaStart" : 1430,
                    "mediaDuration" : 1371,
                    "scalar" : 1,
                    "metadata" : {
                      "AutoAppliedSmartFocus" : "False",
                      "WinSubProjectDisplayName" : "",
                      "clipSpeedAttribute" : false,
                      "default-scale0" : 1.0,
                      "default-scale1" : 1.0,
                      "default-translation0" : 0.0,
                      "default-translation1" : 0.0
                    },
                    "animationTracks" : {
                      "visual" : [
                        {
                          "endTime" : 1852,
                          "duration" : 30,
                          "range" : [ 1822, 30]
                        },
                        {
                          "endTime" : 2193,
                          "duration" : 30,
                          "range" : [ 2163, 30]
                        },
                        {
                          "endTime" : 2627,
                          "duration" : 30,
                          "range" : [ 2597, 30]
                        }
                      ]
                    }
                  },
                  {
                    "id" : 53,
                    "_type" : "ScreenVMFile",
                    "src" : 5,
                    "trackNumber" : 0,
                    "attributes" : {
                      "ident" : "Rec 02-06-19_004"
                    },
                    "parameters" : {
                      "translation0" : {
                        "type" : "double",
                        "defaultValue" : 67.3,
                        "interp" : "eioe",
                        "keyframes" : [
                          {
                            "endTime" : 1852,
                            "time" : 1822,
                            "value" : -655.776923076996,
                            "duration" : 30
                          },
                          {
                            "endTime" : 2193,
                            "time" : 2163,
                            "value" : 790.0,
                            "duration" : 30
                          }
                        ]
                      },
                      "translation1" : {
                        "type" : "double",
                        "defaultValue" : -156.0,
                        "interp" : "eioe",
                        "keyframes" : [
                          {
                            "endTime" : 1852,
                            "time" : 1822,
                            "value" : -292.538461538469,
                            "duration" : 30
                          },
                          {
                            "endTime" : 2193,
                            "time" : 2163,
                            "value" : -226.5,
                            "duration" : 30
                          }
                        ]
                      },
                      "scale0" : {
                        "type" : "double",
                        "defaultValue" : 1.374,
                        "interp" : "eioe",
                        "keyframes" : [
                          {
                            "endTime" : 1852,
                            "time" : 1822,
                            "value" : 2.04758333333333,
                            "duration" : 30
                          },
                          {
                            "endTime" : 2193,
                            "time" : 2163,
                            "value" : 2.214,
                            "duration" : 30
                          }
                        ]
                      },
                      "scale1" : {
                        "type" : "double",
                        "defaultValue" : 1.374,
                        "interp" : "eioe",
                        "keyframes" : [
                          {
                            "endTime" : 1852,
                            "time" : 1822,
                            "value" : 2.04758333333333,
                            "duration" : 30
                          },
                          {
                            "endTime" : 2193,
                            "time" : 2163,
                            "value" : 2.214,
                            "duration" : 30
                          }
                        ]
                      },
                      "cursorScale" : {
                        "type" : "double",
                        "defaultValue" : 1.0,
                        "interp" : "linr"
                      },
                      "cursorOpacity" : {
                        "type" : "double",
                        "defaultValue" : 1.0,
                        "interp" : "linr"
                      }
                    },
                    "effects" : [

                    ],
                    "start" : 7173,
                    "duration" : 110,
                    "mediaStart" : 2801,
                    "mediaDuration" : 330,
                    "scalar" : "1/3",
                    "metadata" : {
                      "AutoAppliedSmartFocus" : "False",
                      "WinSubProjectDisplayName" : "",
                      "clipSpeedAttribute" : true,
                      "default-scale0" : 1.0,
                      "default-scale1" : 1.0,
                      "default-translation0" : 0.0,
                      "default-translation1" : 0.0
                    },
                    "animationTracks" : {
                      "visual" : [
                        {
                          "endTime" : 1852,
                          "duration" : 30,
                          "range" : [ 1822, 30]
                        },
                        {
                          "endTime" : 2193,
                          "duration" : 30,
                          "range" : [ 2163, 30]
                        }
                      ]
                    }
                  },
                  {
                    "id" : 54,
                    "_type" : "ScreenVMFile",
                    "src" : 5,
                    "trackNumber" : 0,
                    "attributes" : {
                      "ident" : "Rec 02-06-19_004"
                    },
                    "parameters" : {
                      "translation0" : {
                        "type" : "double",
                        "defaultValue" : 67.3,
                        "interp" : "eioe",
                        "keyframes" : [
                          {
                            "endTime" : 1852,
                            "time" : 1822,
                            "value" : -655.776923076996,
                            "duration" : 30
                          },
                          {
                            "endTime" : 2193,
                            "time" : 2163,
                            "value" : 790.0,
                            "duration" : 30
                          },
                          {
                            "endTime" : 3302,
                            "time" : 3272,
                            "value" : -598.084615384748,
                            "duration" : 30
                          },
                          {
                            "endTime" : 3560,
                            "time" : 3530,
                            "value" : 67.3,
                            "duration" : 30
                          }
                        ]
                      },
                      "translation1" : {
                        "type" : "double",
                        "defaultValue" : -156.0,
                        "interp" : "eioe",
                        "keyframes" : [
                          {
                            "endTime" : 1852,
                            "time" : 1822,
                            "value" : -292.538461538469,
                            "duration" : 30
                          },
                          {
                            "endTime" : 2193,
                            "time" : 2163,
                            "value" : -226.5,
                            "duration" : 30
                          },
                          {
                            "endTime" : 3302,
                            "time" : 3272,
                            "value" : 113.230769230861,
                            "duration" : 30
                          },
                          {
                            "endTime" : 3560,
                            "time" : 3530,
                            "value" : -156.0,
                            "duration" : 30
                          }
                        ]
                      },
                      "scale0" : {
                        "type" : "double",
                        "defaultValue" : 1.374,
                        "interp" : "eioe",
                        "keyframes" : [
                          {
                            "endTime" : 1852,
                            "time" : 1822,
                            "value" : 2.04758333333333,
                            "duration" : 30
                          },
                          {
                            "endTime" : 2193,
                            "time" : 2163,
                            "value" : 2.214,
                            "duration" : 30
                          },
                          {
                            "endTime" : 3302,
                            "time" : 3272,
                            "value" : 1.873,
                            "duration" : 30
                          },
                          {
                            "endTime" : 3560,
                            "time" : 3530,
                            "value" : 1.374,
                            "duration" : 30
                          }
                        ]
                      },
                      "scale1" : {
                        "type" : "double",
                        "defaultValue" : 1.374,
                        "interp" : "eioe",
                        "keyframes" : [
                          {
                            "endTime" : 1852,
                            "time" : 1822,
                            "value" : 2.04758333333333,
                            "duration" : 30
                          },
                          {
                            "endTime" : 2193,
                            "time" : 2163,
                            "value" : 2.214,
                            "duration" : 30
                          },
                          {
                            "endTime" : 3302,
                            "time" : 3272,
                            "value" : 1.873,
                            "duration" : 30
                          },
                          {
                            "endTime" : 3560,
                            "time" : 3530,
                            "value" : 1.374,
                            "duration" : 30
                          }
                        ]
                      },
                      "cursorScale" : {
                        "type" : "double",
                        "defaultValue" : 1.0,
                        "interp" : "linr"
                      },
                      "cursorOpacity" : {
                        "type" : "double",
                        "defaultValue" : 1.0,
                        "interp" : "linr"
                      }
                    },
                    "effects" : [

                    ],
                    "start" : 7283,
                    "duration" : 1374,
                    "mediaStart" : 3131,
                    "mediaDuration" : 1374,
                    "scalar" : 1,
                    "metadata" : {
                      "AutoAppliedSmartFocus" : "False",
                      "WinSubProjectDisplayName" : "",
                      "clipSpeedAttribute" : false,
                      "default-scale0" : 1.0,
                      "default-scale1" : 1.0,
                      "default-translation0" : 0.0,
                      "default-translation1" : 0.0
                    },
                    "animationTracks" : {
                      "visual" : [
                        {
                          "endTime" : 1852,
                          "duration" : 30,
                          "range" : [ 1822, 30]
                        },
                        {
                          "endTime" : 2193,
                          "duration" : 30,
                          "range" : [ 2163, 30]
                        },
                        {
                          "endTime" : 3302,
                          "duration" : 30,
                          "range" : [ 3272, 30]
                        },
                        {
                          "endTime" : 3560,
                          "duration" : 30,
                          "range" : [ 3530, 30]
                        }
                      ]
                    }
                  },
                  {
                    "id" : 55,
                    "_type" : "ScreenVMFile",
                    "src" : 5,
                    "trackNumber" : 0,
                    "attributes" : {
                      "ident" : "Rec 02-06-19_004"
                    },
                    "parameters" : {
                      "translation0" : {
                        "type" : "double",
                        "defaultValue" : 67.3,
                        "interp" : "eioe",
                        "keyframes" : [
                          {
                            "endTime" : 1852,
                            "time" : 1822,
                            "value" : -655.776923076996,
                            "duration" : 30
                          },
                          {
                            "endTime" : 2193,
                            "time" : 2163,
                            "value" : 67.3,
                            "duration" : 30
                          },
                          {
                            "endTime" : 3302,
                            "time" : 3272,
                            "value" : -598.084615384748,
                            "duration" : 30
                          },
                          {
                            "endTime" : 3560,
                            "time" : 3530,
                            "value" : 67.3,
                            "duration" : 30
                          }
                        ]
                      },
                      "translation1" : {
                        "type" : "double",
                        "defaultValue" : -156.0,
                        "interp" : "eioe",
                        "keyframes" : [
                          {
                            "endTime" : 1852,
                            "time" : 1822,
                            "value" : -292.538461538469,
                            "duration" : 30
                          },
                          {
                            "endTime" : 2193,
                            "time" : 2163,
                            "value" : -156.000000000003,
                            "duration" : 30
                          },
                          {
                            "endTime" : 3302,
                            "time" : 3272,
                            "value" : 113.230769230861,
                            "duration" : 30
                          },
                          {
                            "endTime" : 3560,
                            "time" : 3530,
                            "value" : -156.0,
                            "duration" : 30
                          }
                        ]
                      },
                      "scale0" : {
                        "type" : "double",
                        "defaultValue" : 1.374,
                        "interp" : "eioe",
                        "keyframes" : [
                          {
                            "endTime" : 1852,
                            "time" : 1822,
                            "value" : 2.04758333333333,
                            "duration" : 30
                          },
                          {
                            "endTime" : 2193,
                            "time" : 2163,
                            "value" : 1.374,
                            "duration" : 30
                          },
                          {
                            "endTime" : 3302,
                            "time" : 3272,
                            "value" : 1.873,
                            "duration" : 30
                          },
                          {
                            "endTime" : 3560,
                            "time" : 3530,
                            "value" : 1.374,
                            "duration" : 30
                          }
                        ]
                      },
                      "scale1" : {
                        "type" : "double",
                        "defaultValue" : 1.374,
                        "interp" : "eioe",
                        "keyframes" : [
                          {
                            "endTime" : 1852,
                            "time" : 1822,
                            "value" : 2.04758333333333,
                            "duration" : 30
                          },
                          {
                            "endTime" : 2193,
                            "time" : 2163,
                            "value" : 1.374,
                            "duration" : 30
                          },
                          {
                            "endTime" : 3302,
                            "time" : 3272,
                            "value" : 1.873,
                            "duration" : 30
                          },
                          {
                            "endTime" : 3560,
                            "time" : 3530,
                            "value" : 1.374,
                            "duration" : 30
                          }
                        ]
                      },
                      "cursorScale" : {
                        "type" : "double",
                        "defaultValue" : 1.0,
                        "interp" : "linr"
                      },
                      "cursorOpacity" : {
                        "type" : "double",
                        "defaultValue" : 1.0,
                        "interp" : "linr"
                      }
                    },
                    "effects" : [

                    ],
                    "start" : 8657,
                    "duration" : 56,
                    "mediaStart" : 4505,
                    "mediaDuration" : 168,
                    "scalar" : "1/3",
                    "metadata" : {
                      "AutoAppliedSmartFocus" : "False",
                      "WinSubProjectDisplayName" : "",
                      "clipSpeedAttribute" : true,
                      "default-scale0" : 1.0,
                      "default-scale1" : 1.0,
                      "default-translation0" : 0.0,
                      "default-translation1" : 0.0
                    },
                    "animationTracks" : {
                      "visual" : [
                        {
                          "endTime" : 1852,
                          "duration" : 30,
                          "range" : [ 1822, 30]
                        },
                        {
                          "endTime" : 2193,
                          "duration" : 30,
                          "range" : [ 2163, 30]
                        },
                        {
                          "endTime" : 3302,
                          "duration" : 30,
                          "range" : [ 3272, 30]
                        },
                        {
                          "endTime" : 3560,
                          "duration" : 30,
                          "range" : [ 3530, 30]
                        }
                      ]
                    }
                  },
                  {
                    "id" : 56,
                    "_type" : "ScreenVMFile",
                    "src" : 5,
                    "trackNumber" : 0,
                    "attributes" : {
                      "ident" : "Rec 02-06-19_004"
                    },
                    "parameters" : {
                      "translation0" : {
                        "type" : "double",
                        "defaultValue" : 67.3,
                        "interp" : "eioe",
                        "keyframes" : [
                          {
                            "endTime" : 1852,
                            "time" : 1822,
                            "value" : -655.776923076996,
                            "duration" : 30
                          },
                          {
                            "endTime" : 2193,
                            "time" : 2163,
                            "value" : 67.3,
                            "duration" : 30
                          },
                          {
                            "endTime" : 3302,
                            "time" : 3272,
                            "value" : -598.084615384748,
                            "duration" : 30
                          },
                          {
                            "endTime" : 3560,
                            "time" : 3530,
                            "value" : 67.3,
                            "duration" : 30
                          },
                          {
                            "endTime" : 4965,
                            "time" : 4935,
                            "value" : -207.699999999977,
                            "duration" : 30
                          }
                        ]
                      },
                      "translation1" : {
                        "type" : "double",
                        "defaultValue" : -156.0,
                        "interp" : "eioe",
                        "keyframes" : [
                          {
                            "endTime" : 1852,
                            "time" : 1822,
                            "value" : -292.538461538469,
                            "duration" : 30
                          },
                          {
                            "endTime" : 2193,
                            "time" : 2163,
                            "value" : -156.000000000003,
                            "duration" : 30
                          },
                          {
                            "endTime" : 3302,
                            "time" : 3272,
                            "value" : 113.230769230861,
                            "duration" : 30
                          },
                          {
                            "endTime" : 3560,
                            "time" : 3530,
                            "value" : -156.0,
                            "duration" : 30
                          },
                          {
                            "endTime" : 4965,
                            "time" : 4935,
                            "value" : 153.615384615404,
                            "duration" : 30
                          }
                        ]
                      },
                      "scale0" : {
                        "type" : "double",
                        "defaultValue" : 1.374,
                        "interp" : "eioe",
                        "keyframes" : [
                          {
                            "endTime" : 1852,
                            "time" : 1822,
                            "value" : 2.04758333333333,
                            "duration" : 30
                          },
                          {
                            "endTime" : 2193,
                            "time" : 2163,
                            "value" : 1.374,
                            "duration" : 30
                          },
                          {
                            "endTime" : 3302,
                            "time" : 3272,
                            "value" : 1.873,
                            "duration" : 30
                          },
                          {
                            "endTime" : 3560,
                            "time" : 3530,
                            "value" : 1.374,
                            "duration" : 30
                          }
                        ]
                      },
                      "scale1" : {
                        "type" : "double",
                        "defaultValue" : 1.374,
                        "interp" : "eioe",
                        "keyframes" : [
                          {
                            "endTime" : 1852,
                            "time" : 1822,
                            "value" : 2.04758333333333,
                            "duration" : 30
                          },
                          {
                            "endTime" : 2193,
                            "time" : 2163,
                            "value" : 1.374,
                            "duration" : 30
                          },
                          {
                            "endTime" : 3302,
                            "time" : 3272,
                            "value" : 1.873,
                            "duration" : 30
                          },
                          {
                            "endTime" : 3560,
                            "time" : 3530,
                            "value" : 1.374,
                            "duration" : 30
                          }
                        ]
                      },
                      "cursorScale" : {
                        "type" : "double",
                        "defaultValue" : 1.0,
                        "interp" : "linr"
                      },
                      "cursorOpacity" : {
                        "type" : "double",
                        "defaultValue" : 1.0,
                        "interp" : "linr"
                      }
                    },
                    "effects" : [

                    ],
                    "start" : 8713,
                    "duration" : 425,
                    "mediaStart" : 4673,
                    "mediaDuration" : 425,
                    "scalar" : 1,
                    "metadata" : {
                      "AutoAppliedSmartFocus" : "False",
                      "WinSubProjectDisplayName" : "",
                      "clipSpeedAttribute" : false,
                      "default-scale0" : 1.0,
                      "default-scale1" : 1.0,
                      "default-translation0" : 0.0,
                      "default-translation1" : 0.0
                    },
                    "animationTracks" : {
                      "visual" : [
                        {
                          "endTime" : 1852,
                          "duration" : 30,
                          "range" : [ 1822, 30]
                        },
                        {
                          "endTime" : 2193,
                          "duration" : 30,
                          "range" : [ 2163, 30]
                        },
                        {
                          "endTime" : 3302,
                          "duration" : 30,
                          "range" : [ 3272, 30]
                        },
                        {
                          "endTime" : 3560,
                          "duration" : 30,
                          "range" : [ 3530, 30]
                        },
                        {
                          "endTime" : 4965,
                          "duration" : 30,
                          "range" : [ 4935, 30]
                        }
                      ]
                    }
                  },
                  {
                    "id" : 57,
                    "_type" : "ScreenVMFile",
                    "src" : 5,
                    "trackNumber" : 0,
                    "attributes" : {
                      "ident" : "Rec 02-06-19_004"
                    },
                    "parameters" : {
                      "translation0" : {
                        "type" : "double",
                        "defaultValue" : 67.3,
                        "interp" : "eioe",
                        "keyframes" : [
                          {
                            "endTime" : 1852,
                            "time" : 1822,
                            "value" : -655.776923076996,
                            "duration" : 30
                          },
                          {
                            "endTime" : 2193,
                            "time" : 2163,
                            "value" : 67.3,
                            "duration" : 30
                          },
                          {
                            "endTime" : 3302,
                            "time" : 3272,
                            "value" : -598.084615384748,
                            "duration" : 30
                          },
                          {
                            "endTime" : 3560,
                            "time" : 3530,
                            "value" : 67.3,
                            "duration" : 30
                          },
                          {
                            "endTime" : 4965,
                            "time" : 4935,
                            "value" : -207.699999999977,
                            "duration" : 30
                          }
                        ]
                      },
                      "translation1" : {
                        "type" : "double",
                        "defaultValue" : -156.0,
                        "interp" : "eioe",
                        "keyframes" : [
                          {
                            "endTime" : 1852,
                            "time" : 1822,
                            "value" : -292.538461538469,
                            "duration" : 30
                          },
                          {
                            "endTime" : 2193,
                            "time" : 2163,
                            "value" : -156.000000000003,
                            "duration" : 30
                          },
                          {
                            "endTime" : 3302,
                            "time" : 3272,
                            "value" : 113.230769230861,
                            "duration" : 30
                          },
                          {
                            "endTime" : 3560,
                            "time" : 3530,
                            "value" : -156.0,
                            "duration" : 30
                          },
                          {
                            "endTime" : 4965,
                            "time" : 4935,
                            "value" : 153.615384615404,
                            "duration" : 30
                          }
                        ]
                      },
                      "scale0" : {
                        "type" : "double",
                        "defaultValue" : 1.374,
                        "interp" : "eioe",
                        "keyframes" : [
                          {
                            "endTime" : 1852,
                            "time" : 1822,
                            "value" : 2.04758333333333,
                            "duration" : 30
                          },
                          {
                            "endTime" : 2193,
                            "time" : 2163,
                            "value" : 1.374,
                            "duration" : 30
                          },
                          {
                            "endTime" : 3302,
                            "time" : 3272,
                            "value" : 1.873,
                            "duration" : 30
                          },
                          {
                            "endTime" : 3560,
                            "time" : 3530,
                            "value" : 1.374,
                            "duration" : 30
                          }
                        ]
                      },
                      "scale1" : {
                        "type" : "double",
                        "defaultValue" : 1.374,
                        "interp" : "eioe",
                        "keyframes" : [
                          {
                            "endTime" : 1852,
                            "time" : 1822,
                            "value" : 2.04758333333333,
                            "duration" : 30
                          },
                          {
                            "endTime" : 2193,
                            "time" : 2163,
                            "value" : 1.374,
                            "duration" : 30
                          },
                          {
                            "endTime" : 3302,
                            "time" : 3272,
                            "value" : 1.873,
                            "duration" : 30
                          },
                          {
                            "endTime" : 3560,
                            "time" : 3530,
                            "value" : 1.374,
                            "duration" : 30
                          }
                        ]
                      },
                      "cursorScale" : {
                        "type" : "double",
                        "defaultValue" : 1.0,
                        "interp" : "linr"
                      },
                      "cursorOpacity" : {
                        "type" : "double",
                        "defaultValue" : 1.0,
                        "interp" : "linr"
                      }
                    },
                    "effects" : [

                    ],
                    "start" : 9138,
                    "duration" : 59,
                    "mediaStart" : 5098,
                    "mediaDuration" : 178,
                    "scalar" : "59/178",
                    "metadata" : {
                      "AutoAppliedSmartFocus" : "False",
                      "WinSubProjectDisplayName" : "",
                      "clipSpeedAttribute" : true,
                      "default-scale0" : 1.0,
                      "default-scale1" : 1.0,
                      "default-translation0" : 0.0,
                      "default-translation1" : 0.0
                    },
                    "animationTracks" : {
                      "visual" : [
                        {
                          "endTime" : 1852,
                          "duration" : 30,
                          "range" : [ 1822, 30]
                        },
                        {
                          "endTime" : 2193,
                          "duration" : 30,
                          "range" : [ 2163, 30]
                        },
                        {
                          "endTime" : 3302,
                          "duration" : 30,
                          "range" : [ 3272, 30]
                        },
                        {
                          "endTime" : 3560,
                          "duration" : 30,
                          "range" : [ 3530, 30]
                        },
                        {
                          "endTime" : 4965,
                          "duration" : 30,
                          "range" : [ 4935, 30]
                        }
                      ]
                    }
                  },
                  {
                    "id" : 58,
                    "_type" : "StitchedMedia",
                    "minMediaStart" : 0,
                    "attributes" : {
                      "ident" : "Rec 02-06-19_004",
                      "gain" : 1.0,
                      "mixToMono" : false
                    },
                    "parameters" : {
                      "translation0" : {
                        "type" : "double",
                        "defaultValue" : 67.3,
                        "keyframes" : [
                          {
                            "endTime" : 1852,
                            "time" : 1822,
                            "value" : -655.776923076996,
                            "duration" : 30
                          },
                          {
                            "endTime" : 2193,
                            "time" : 2163,
                            "value" : 67.3,
                            "duration" : 30
                          },
                          {
                            "endTime" : 3302,
                            "time" : 3272,
                            "value" : -598.084615384748,
                            "duration" : 30
                          },
                          {
                            "endTime" : 3560,
                            "time" : 3530,
                            "value" : 67.3,
                            "duration" : 30
                          },
                          {
                            "endTime" : 4965,
                            "time" : 4935,
                            "value" : -207.699999999977,
                            "duration" : 30
                          },
                          {
                            "endTime" : 5494,
                            "time" : 5464,
                            "value" : 257.684615384671,
                            "duration" : 30
                          },
                          {
                            "endTime" : 6595,
                            "time" : 6565,
                            "value" : -1.55807811097475e-10,
                            "duration" : 30
                          }
                        ]
                      },
                      "translation1" : {
                        "type" : "double",
                        "defaultValue" : -156.0,
                        "keyframes" : [
                          {
                            "endTime" : 1852,
                            "time" : 1822,
                            "value" : -292.538461538469,
                            "duration" : 30
                          },
                          {
                            "endTime" : 2193,
                            "time" : 2163,
                            "value" : -156.000000000003,
                            "duration" : 30
                          },
                          {
                            "endTime" : 3302,
                            "time" : 3272,
                            "value" : 113.230769230861,
                            "duration" : 30
                          },
                          {
                            "endTime" : 3560,
                            "time" : 3530,
                            "value" : -156.0,
                            "duration" : 30
                          },
                          {
                            "endTime" : 4965,
                            "time" : 4935,
                            "value" : 153.615384615404,
                            "duration" : 30
                          },
                          {
                            "endTime" : 5494,
                            "time" : 5464,
                            "value" : -74.9999999999178,
                            "duration" : 30
                          },
                          {
                            "endTime" : 6595,
                            "time" : 6565,
                            "value" : -105.769230769154,
                            "duration" : 30
                          }
                        ]
                      },
                      "scale0" : {
                        "type" : "double",
                        "defaultValue" : 1.374,
                        "keyframes" : [
                          {
                            "endTime" : 1852,
                            "time" : 1822,
                            "value" : 2.04758333333333,
                            "duration" : 30
                          },
                          {
                            "endTime" : 2193,
                            "time" : 2163,
                            "value" : 1.374,
                            "duration" : 30
                          },
                          {
                            "endTime" : 3302,
                            "time" : 3272,
                            "value" : 1.873,
                            "duration" : 30
                          },
                          {
                            "endTime" : 3560,
                            "time" : 3530,
                            "value" : 1.374,
                            "duration" : 30
                          },
                          {
                            "endTime" : 5494,
                            "time" : 5464,
                            "value" : 1.873,
                            "duration" : 30
                          },
                          {
                            "endTime" : 6595,
                            "time" : 6565,
                            "value" : 1.24925,
                            "duration" : 30
                          }
                        ]
                      },
                      "scale1" : {
                        "type" : "double",
                        "defaultValue" : 1.374,
                        "keyframes" : [
                          {
                            "endTime" : 1852,
                            "time" : 1822,
                            "value" : 2.04758333333333,
                            "duration" : 30
                          },
                          {
                            "endTime" : 2193,
                            "time" : 2163,
                            "value" : 1.374,
                            "duration" : 30
                          },
                          {
                            "endTime" : 3302,
                            "time" : 3272,
                            "value" : 1.873,
                            "duration" : 30
                          },
                          {
                            "endTime" : 3560,
                            "time" : 3530,
                            "value" : 1.374,
                            "duration" : 30
                          },
                          {
                            "endTime" : 5494,
                            "time" : 5464,
                            "value" : 1.873,
                            "duration" : 30
                          },
                          {
                            "endTime" : 6595,
                            "time" : 6565,
                            "value" : 1.24925,
                            "duration" : 30
                          }
                        ]
                      },
                      "cursorOpacity" : 1.0,
                      "cursorScale" : 1.0
                    },
                    "medias" : [
                        {
                          "id" : 59,
                          "_type" : "ScreenVMFile",
                          "src" : 5,
                          "trackNumber" : 0,
                          "attributes" : {
                            "ident" : "Rec 02-06-19_004"
                          },
                          "parameters" : {
                            "cursorScale" : {
                              "type" : "double",
                              "defaultValue" : 0.0,
                              "interp" : "linr"
                            },
                            "cursorOpacity" : {
                              "type" : "double",
                              "defaultValue" : 0.0,
                              "interp" : "linr"
                            }
                          },
                          "effects" : [

                          ],
                          "start" : 0,
                          "duration" : 5938,
                          "mediaStart" : 0,
                          "mediaDuration" : 5938,
                          "scalar" : 1,
                          "metadata" : {
                            "AutoAppliedSmartFocus" : "False",
                            "WinSubProjectDisplayName" : "",
                            "clipSpeedAttribute" : false,
                            "default-scale0" : 1.0,
                            "default-scale1" : 1.0,
                            "default-translation0" : 0.0,
                            "default-translation1" : 0.0
                          },
                          "animationTracks" : {

                          }
                        },
                        {
                          "id" : 60,
                          "_type" : "ScreenVMFile",
                          "src" : 5,
                          "trackNumber" : 0,
                          "attributes" : {
                            "ident" : "Rec 02-06-19_004"
                          },
                          "parameters" : {
                            "cursorScale" : {
                              "type" : "double",
                              "defaultValue" : 0.0,
                              "interp" : "linr"
                            },
                            "cursorOpacity" : {
                              "type" : "double",
                              "defaultValue" : 0.0,
                              "interp" : "linr"
                            }
                          },
                          "effects" : [

                          ],
                          "start" : 5938,
                          "duration" : 9908,
                          "mediaStart" : 6059,
                          "mediaDuration" : 9908,
                          "scalar" : 1,
                          "metadata" : {
                            "AutoAppliedSmartFocus" : "False",
                            "WinSubProjectDisplayName" : "",
                            "clipSpeedAttribute" : false,
                            "default-scale0" : 1.0,
                            "default-scale1" : 1.0,
                            "default-translation0" : 0.0,
                            "default-translation1" : 0.0
                          },
                          "animationTracks" : {

                          }
                        }
                    ],
                    "effects" : [

                    ],
                    "start" : 9197,
                    "duration" : 1334,
                    "mediaStart" : 5276,
                    "mediaDuration" : 1334,
                    "scalar" : 1,
                    "metadata" : {
                      "AutoAppliedSmartFocus" : "False",
                      "WinSubProjectDisplayName" : "",
                      "clipSpeedAttribute" : false,
                      "default-scale0" : 1.873,
                      "default-scale1" : 1.873,
                      "default-translation0" : 257.684615384671,
                      "default-translation1" : -74.9999999999178
                    },
                    "animationTracks" : {
                      "visual" : [
                        {
                          "endTime" : 1852,
                          "duration" : 30,
                          "range" : [ 1822, 30]
                        },
                        {
                          "endTime" : 2193,
                          "duration" : 30,
                          "range" : [ 2163, 30]
                        },
                        {
                          "endTime" : 3302,
                          "duration" : 30,
                          "range" : [ 3272, 30]
                        },
                        {
                          "endTime" : 3560,
                          "duration" : 30,
                          "range" : [ 3530, 30]
                        },
                        {
                          "endTime" : 4965,
                          "duration" : 30,
                          "range" : [ 4935, 30]
                        },
                        {
                          "endTime" : 5494,
                          "duration" : 30,
                          "range" : [ 5464, 30]
                        },
                        {
                          "endTime" : 6595,
                          "duration" : 30,
                          "range" : [ 6565, 30]
                        }
                      ]
                    }
                  },
                  {
                    "id" : 61,
                    "_type" : "StitchedMedia",
                    "minMediaStart" : 0,
                    "attributes" : {
                      "ident" : "Rec 02-06-19_004",
                      "gain" : 1.0,
                      "mixToMono" : false
                    },
                    "parameters" : {
                      "translation0" : {
                        "type" : "double",
                        "defaultValue" : 67.3,
                        "keyframes" : [
                          {
                            "endTime" : 1852,
                            "time" : 1822,
                            "value" : -655.776923076996,
                            "duration" : 30
                          },
                          {
                            "endTime" : 2193,
                            "time" : 2163,
                            "value" : 67.3,
                            "duration" : 30
                          },
                          {
                            "endTime" : 3302,
                            "time" : 3272,
                            "value" : -598.084615384748,
                            "duration" : 30
                          },
                          {
                            "endTime" : 3560,
                            "time" : 3530,
                            "value" : 67.3,
                            "duration" : 30
                          },
                          {
                            "endTime" : 4965,
                            "time" : 4935,
                            "value" : -207.699999999977,
                            "duration" : 30
                          },
                          {
                            "endTime" : 5494,
                            "time" : 5464,
                            "value" : 257.684615384671,
                            "duration" : 30
                          },
                          {
                            "endTime" : 6595,
                            "time" : 6565,
                            "value" : -1.55807811097475e-10,
                            "duration" : 30
                          }
                        ]
                      },
                      "translation1" : {
                        "type" : "double",
                        "defaultValue" : -156.0,
                        "keyframes" : [
                          {
                            "endTime" : 1852,
                            "time" : 1822,
                            "value" : -292.538461538469,
                            "duration" : 30
                          },
                          {
                            "endTime" : 2193,
                            "time" : 2163,
                            "value" : -156.000000000003,
                            "duration" : 30
                          },
                          {
                            "endTime" : 3302,
                            "time" : 3272,
                            "value" : 113.230769230861,
                            "duration" : 30
                          },
                          {
                            "endTime" : 3560,
                            "time" : 3530,
                            "value" : -156.0,
                            "duration" : 30
                          },
                          {
                            "endTime" : 4965,
                            "time" : 4935,
                            "value" : 153.615384615404,
                            "duration" : 30
                          },
                          {
                            "endTime" : 5494,
                            "time" : 5464,
                            "value" : -74.9999999999178,
                            "duration" : 30
                          },
                          {
                            "endTime" : 6595,
                            "time" : 6565,
                            "value" : -105.769230769154,
                            "duration" : 30
                          }
                        ]
                      },
                      "scale0" : {
                        "type" : "double",
                        "defaultValue" : 1.374,
                        "keyframes" : [
                          {
                            "endTime" : 1852,
                            "time" : 1822,
                            "value" : 2.04758333333333,
                            "duration" : 30
                          },
                          {
                            "endTime" : 2193,
                            "time" : 2163,
                            "value" : 1.374,
                            "duration" : 30
                          },
                          {
                            "endTime" : 3302,
                            "time" : 3272,
                            "value" : 1.873,
                            "duration" : 30
                          },
                          {
                            "endTime" : 3560,
                            "time" : 3530,
                            "value" : 1.374,
                            "duration" : 30
                          },
                          {
                            "endTime" : 5494,
                            "time" : 5464,
                            "value" : 1.873,
                            "duration" : 30
                          },
                          {
                            "endTime" : 6595,
                            "time" : 6565,
                            "value" : 1.24925,
                            "duration" : 30
                          }
                        ]
                      },
                      "scale1" : {
                        "type" : "double",
                        "defaultValue" : 1.374,
                        "keyframes" : [
                          {
                            "endTime" : 1852,
                            "time" : 1822,
                            "value" : 2.04758333333333,
                            "duration" : 30
                          },
                          {
                            "endTime" : 2193,
                            "time" : 2163,
                            "value" : 1.374,
                            "duration" : 30
                          },
                          {
                            "endTime" : 3302,
                            "time" : 3272,
                            "value" : 1.873,
                            "duration" : 30
                          },
                          {
                            "endTime" : 3560,
                            "time" : 3530,
                            "value" : 1.374,
                            "duration" : 30
                          },
                          {
                            "endTime" : 5494,
                            "time" : 5464,
                            "value" : 1.873,
                            "duration" : 30
                          },
                          {
                            "endTime" : 6595,
                            "time" : 6565,
                            "value" : 1.24925,
                            "duration" : 30
                          }
                        ]
                      },
                      "cursorOpacity" : 1.0,
                      "cursorScale" : 1.0
                    },
                    "medias" : [
                        {
                          "id" : 62,
                          "_type" : "ScreenVMFile",
                          "src" : 5,
                          "trackNumber" : 0,
                          "attributes" : {
                            "ident" : "Rec 02-06-19_004"
                          },
                          "parameters" : {
                            "cursorScale" : {
                              "type" : "double",
                              "defaultValue" : 0.0,
                              "interp" : "linr"
                            },
                            "cursorOpacity" : {
                              "type" : "double",
                              "defaultValue" : 0.0,
                              "interp" : "linr"
                            }
                          },
                          "effects" : [

                          ],
                          "start" : 0,
                          "duration" : 5938,
                          "mediaStart" : 0,
                          "mediaDuration" : 5938,
                          "scalar" : 1,
                          "metadata" : {
                            "AutoAppliedSmartFocus" : "False",
                            "WinSubProjectDisplayName" : "",
                            "clipSpeedAttribute" : false,
                            "default-scale0" : 1.0,
                            "default-scale1" : 1.0,
                            "default-translation0" : 0.0,
                            "default-translation1" : 0.0
                          },
                          "animationTracks" : {

                          }
                        },
                        {
                          "id" : 63,
                          "_type" : "ScreenVMFile",
                          "src" : 5,
                          "trackNumber" : 0,
                          "attributes" : {
                            "ident" : "Rec 02-06-19_004"
                          },
                          "parameters" : {
                            "cursorScale" : {
                              "type" : "double",
                              "defaultValue" : 0.0,
                              "interp" : "linr"
                            },
                            "cursorOpacity" : {
                              "type" : "double",
                              "defaultValue" : 0.0,
                              "interp" : "linr"
                            }
                          },
                          "effects" : [

                          ],
                          "start" : 5938,
                          "duration" : 9908,
                          "mediaStart" : 6059,
                          "mediaDuration" : 9908,
                          "scalar" : 1,
                          "metadata" : {
                            "AutoAppliedSmartFocus" : "False",
                            "WinSubProjectDisplayName" : "",
                            "clipSpeedAttribute" : false,
                            "default-scale0" : 1.0,
                            "default-scale1" : 1.0,
                            "default-translation0" : 0.0,
                            "default-translation1" : 0.0
                          },
                          "animationTracks" : {

                          }
                        }
                    ],
                    "effects" : [

                    ],
                    "start" : 10531,
                    "duration" : 258,
                    "mediaStart" : 6610,
                    "mediaDuration" : 1032,
                    "scalar" : "1/4",
                    "metadata" : {
                      "AutoAppliedSmartFocus" : "False",
                      "WinSubProjectDisplayName" : "",
                      "clipSpeedAttribute" : true,
                      "default-scale0" : 1.873,
                      "default-scale1" : 1.873,
                      "default-translation0" : 257.684615384671,
                      "default-translation1" : -74.9999999999178
                    },
                    "animationTracks" : {
                      "visual" : [
                        {
                          "endTime" : 1852,
                          "duration" : 30,
                          "range" : [ 1822, 30]
                        },
                        {
                          "endTime" : 2193,
                          "duration" : 30,
                          "range" : [ 2163, 30]
                        },
                        {
                          "endTime" : 3302,
                          "duration" : 30,
                          "range" : [ 3272, 30]
                        },
                        {
                          "endTime" : 3560,
                          "duration" : 30,
                          "range" : [ 3530, 30]
                        },
                        {
                          "endTime" : 4965,
                          "duration" : 30,
                          "range" : [ 4935, 30]
                        },
                        {
                          "endTime" : 5494,
                          "duration" : 30,
                          "range" : [ 5464, 30]
                        },
                        {
                          "endTime" : 6595,
                          "duration" : 30,
                          "range" : [ 6565, 30]
                        }
                      ]
                    }
                  },
                  {
                    "id" : 64,
                    "_type" : "StitchedMedia",
                    "minMediaStart" : 0,
                    "attributes" : {
                      "ident" : "Rec 02-06-19_004",
                      "gain" : 1.0,
                      "mixToMono" : false
                    },
                    "parameters" : {
                      "translation0" : {
                        "type" : "double",
                        "defaultValue" : 67.3,
                        "keyframes" : [
                          {
                            "endTime" : 1852,
                            "time" : 1822,
                            "value" : -655.776923076996,
                            "duration" : 30
                          },
                          {
                            "endTime" : 2193,
                            "time" : 2163,
                            "value" : 67.3,
                            "duration" : 30
                          },
                          {
                            "endTime" : 3302,
                            "time" : 3272,
                            "value" : -598.084615384748,
                            "duration" : 30
                          },
                          {
                            "endTime" : 3560,
                            "time" : 3530,
                            "value" : 67.3,
                            "duration" : 30
                          },
                          {
                            "endTime" : 4965,
                            "time" : 4935,
                            "value" : -207.699999999977,
                            "duration" : 30
                          },
                          {
                            "endTime" : 5494,
                            "time" : 5464,
                            "value" : 257.684615384671,
                            "duration" : 30
                          },
                          {
                            "endTime" : 6595,
                            "time" : 6565,
                            "value" : -1.55807811097475e-10,
                            "duration" : 30
                          },
                          {
                            "endTime" : 7701,
                            "time" : 7671,
                            "value" : 78.8461538453181,
                            "duration" : 30
                          },
                          {
                            "endTime" : 9262,
                            "time" : 9232,
                            "value" : -130.769230770076,
                            "duration" : 30
                          },
                          {
                            "endTime" : 9574,
                            "time" : 9544,
                            "value" : 163.46153846071,
                            "duration" : 30
                          }
                        ]
                      },
                      "translation1" : {
                        "type" : "double",
                        "defaultValue" : -156.0,
                        "keyframes" : [
                          {
                            "endTime" : 1852,
                            "time" : 1822,
                            "value" : -292.538461538469,
                            "duration" : 30
                          },
                          {
                            "endTime" : 2193,
                            "time" : 2163,
                            "value" : -156.000000000003,
                            "duration" : 30
                          },
                          {
                            "endTime" : 3302,
                            "time" : 3272,
                            "value" : 113.230769230861,
                            "duration" : 30
                          },
                          {
                            "endTime" : 3560,
                            "time" : 3530,
                            "value" : -156.0,
                            "duration" : 30
                          },
                          {
                            "endTime" : 4965,
                            "time" : 4935,
                            "value" : 153.615384615404,
                            "duration" : 30
                          },
                          {
                            "endTime" : 5494,
                            "time" : 5464,
                            "value" : -74.9999999999178,
                            "duration" : 30
                          },
                          {
                            "endTime" : 6595,
                            "time" : 6565,
                            "value" : -105.769230769154,
                            "duration" : 30
                          },
                          {
                            "endTime" : 7701,
                            "time" : 7671,
                            "value" : -156.000000000009,
                            "duration" : 30
                          },
                          {
                            "endTime" : 8335,
                            "time" : 8305,
                            "value" : -217.53846153845,
                            "duration" : 30
                          },
                          {
                            "endTime" : 9262,
                            "time" : 9232,
                            "value" : 170.923076923083,
                            "duration" : 30
                          },
                          {
                            "endTime" : 9574,
                            "time" : 9544,
                            "value" : -69.4615384615322,
                            "duration" : 30
                          }
                        ]
                      },
                      "scale0" : {
                        "type" : "double",
                        "defaultValue" : 1.374,
                        "keyframes" : [
                          {
                            "endTime" : 1852,
                            "time" : 1822,
                            "value" : 2.04758333333333,
                            "duration" : 30
                          },
                          {
                            "endTime" : 2193,
                            "time" : 2163,
                            "value" : 1.374,
                            "duration" : 30
                          },
                          {
                            "endTime" : 3302,
                            "time" : 3272,
                            "value" : 1.873,
                            "duration" : 30
                          },
                          {
                            "endTime" : 3560,
                            "time" : 3530,
                            "value" : 1.374,
                            "duration" : 30
                          },
                          {
                            "endTime" : 5494,
                            "time" : 5464,
                            "value" : 1.873,
                            "duration" : 30
                          },
                          {
                            "endTime" : 6595,
                            "time" : 6565,
                            "value" : 1.24925,
                            "duration" : 30
                          },
                          {
                            "endTime" : 7701,
                            "time" : 7671,
                            "value" : 1.605,
                            "duration" : 30
                          }
                        ]
                      },
                      "scale1" : {
                        "type" : "double",
                        "defaultValue" : 1.374,
                        "keyframes" : [
                          {
                            "endTime" : 1852,
                            "time" : 1822,
                            "value" : 2.04758333333333,
                            "duration" : 30
                          },
                          {
                            "endTime" : 2193,
                            "time" : 2163,
                            "value" : 1.374,
                            "duration" : 30
                          },
                          {
                            "endTime" : 3302,
                            "time" : 3272,
                            "value" : 1.873,
                            "duration" : 30
                          },
                          {
                            "endTime" : 3560,
                            "time" : 3530,
                            "value" : 1.374,
                            "duration" : 30
                          },
                          {
                            "endTime" : 5494,
                            "time" : 5464,
                            "value" : 1.873,
                            "duration" : 30
                          },
                          {
                            "endTime" : 6595,
                            "time" : 6565,
                            "value" : 1.24925,
                            "duration" : 30
                          },
                          {
                            "endTime" : 7701,
                            "time" : 7671,
                            "value" : 1.605,
                            "duration" : 30
                          }
                        ]
                      },
                      "cursorOpacity" : 1.0,
                      "cursorScale" : 1.0
                    },
                    "medias" : [
                        {
                          "id" : 65,
                          "_type" : "ScreenVMFile",
                          "src" : 5,
                          "trackNumber" : 0,
                          "attributes" : {
                            "ident" : "Rec 02-06-19_004"
                          },
                          "parameters" : {
                            "cursorScale" : {
                              "type" : "double",
                              "defaultValue" : 0.0,
                              "interp" : "linr"
                            },
                            "cursorOpacity" : {
                              "type" : "double",
                              "defaultValue" : 0.0,
                              "interp" : "linr"
                            }
                          },
                          "effects" : [

                          ],
                          "start" : 0,
                          "duration" : 5938,
                          "mediaStart" : 0,
                          "mediaDuration" : 5938,
                          "scalar" : 1,
                          "metadata" : {
                            "AutoAppliedSmartFocus" : "False",
                            "WinSubProjectDisplayName" : "",
                            "clipSpeedAttribute" : false,
                            "default-scale0" : 1.0,
                            "default-scale1" : 1.0,
                            "default-translation0" : 0.0,
                            "default-translation1" : 0.0
                          },
                          "animationTracks" : {

                          }
                        },
                        {
                          "id" : 66,
                          "_type" : "ScreenVMFile",
                          "src" : 5,
                          "trackNumber" : 0,
                          "attributes" : {
                            "ident" : "Rec 02-06-19_004"
                          },
                          "parameters" : {
                            "cursorScale" : {
                              "type" : "double",
                              "defaultValue" : 0.0,
                              "interp" : "linr"
                            },
                            "cursorOpacity" : {
                              "type" : "double",
                              "defaultValue" : 0.0,
                              "interp" : "linr"
                            }
                          },
                          "effects" : [

                          ],
                          "start" : 5938,
                          "duration" : 2276,
                          "mediaStart" : 6059,
                          "mediaDuration" : 2276,
                          "scalar" : 1,
                          "metadata" : {
                            "AutoAppliedSmartFocus" : "False",
                            "WinSubProjectDisplayName" : "",
                            "clipSpeedAttribute" : false,
                            "default-scale0" : 1.0,
                            "default-scale1" : 1.0,
                            "default-translation0" : 0.0,
                            "default-translation1" : 0.0
                          },
                          "animationTracks" : {

                          }
                        },
                        {
                          "id" : 67,
                          "_type" : "ScreenVMFile",
                          "src" : 5,
                          "trackNumber" : 0,
                          "attributes" : {
                            "ident" : "Rec 02-06-19_004"
                          },
                          "parameters" : {
                            "cursorScale" : {
                              "type" : "double",
                              "defaultValue" : 0.0,
                              "interp" : "linr"
                            },
                            "cursorOpacity" : {
                              "type" : "double",
                              "defaultValue" : 0.0,
                              "interp" : "linr"
                            }
                          },
                          "effects" : [

                          ],
                          "start" : 8214,
                          "duration" : 1367,
                          "mediaStart" : 8589,
                          "mediaDuration" : 1367,
                          "scalar" : 1,
                          "metadata" : {
                            "AutoAppliedSmartFocus" : "False",
                            "WinSubProjectDisplayName" : "",
                            "clipSpeedAttribute" : false,
                            "default-scale0" : 1.0,
                            "default-scale1" : 1.0,
                            "default-translation0" : 0.0,
                            "default-translation1" : 0.0
                          },
                          "animationTracks" : {

                          }
                        },
                        {
                          "id" : 68,
                          "_type" : "ScreenVMFile",
                          "src" : 5,
                          "trackNumber" : 0,
                          "attributes" : {
                            "ident" : "Rec 02-06-19_004"
                          },
                          "parameters" : {
                            "cursorScale" : {
                              "type" : "double",
                              "defaultValue" : 0.0,
                              "interp" : "linr"
                            },
                            "cursorOpacity" : {
                              "type" : "double",
                              "defaultValue" : 0.0,
                              "interp" : "linr"
                            }
                          },
                          "effects" : [

                          ],
                          "start" : 9581,
                          "duration" : 468,
                          "mediaStart" : 10199,
                          "mediaDuration" : 468,
                          "scalar" : 1,
                          "metadata" : {
                            "AutoAppliedSmartFocus" : "False",
                            "WinSubProjectDisplayName" : "",
                            "clipSpeedAttribute" : false,
                            "default-scale0" : 1.0,
                            "default-scale1" : 1.0,
                            "default-translation0" : 0.0,
                            "default-translation1" : 0.0
                          },
                          "animationTracks" : {

                          }
                        },
                        {
                          "id" : 69,
                          "_type" : "ScreenVMFile",
                          "src" : 5,
                          "trackNumber" : 0,
                          "attributes" : {
                            "ident" : "Rec 02-06-19_004"
                          },
                          "parameters" : {
                            "cursorScale" : {
                              "type" : "double",
                              "defaultValue" : 0.0,
                              "interp" : "linr"
                            },
                            "cursorOpacity" : {
                              "type" : "double",
                              "defaultValue" : 0.0,
                              "interp" : "linr"
                            }
                          },
                          "effects" : [

                          ],
                          "start" : 10049,
                          "duration" : 4787,
                          "mediaStart" : 11180,
                          "mediaDuration" : 4787,
                          "scalar" : 1,
                          "metadata" : {
                            "AutoAppliedSmartFocus" : "False",
                            "WinSubProjectDisplayName" : "",
                            "clipSpeedAttribute" : false,
                            "default-scale0" : 1.0,
                            "default-scale1" : 1.0,
                            "default-translation0" : 0.0,
                            "default-translation1" : 0.0
                          },
                          "animationTracks" : {

                          }
                        }
                    ],
                    "effects" : [

                    ],
                    "start" : 10789,
                    "duration" : 2390,
                    "mediaStart" : 7642,
                    "mediaDuration" : 2390,
                    "scalar" : 1,
                    "metadata" : {
                      "AutoAppliedSmartFocus" : "False",
                      "WinSubProjectDisplayName" : "",
                      "clipSpeedAttribute" : false
                    },
                    "animationTracks" : {
                      "visual" : [
                        {
                          "endTime" : 1852,
                          "duration" : 30,
                          "range" : [ 1822, 30]
                        },
                        {
                          "endTime" : 2193,
                          "duration" : 30,
                          "range" : [ 2163, 30]
                        },
                        {
                          "endTime" : 3302,
                          "duration" : 30,
                          "range" : [ 3272, 30]
                        },
                        {
                          "endTime" : 3560,
                          "duration" : 30,
                          "range" : [ 3530, 30]
                        },
                        {
                          "endTime" : 4965,
                          "duration" : 30,
                          "range" : [ 4935, 30]
                        },
                        {
                          "endTime" : 5494,
                          "duration" : 30,
                          "range" : [ 5464, 30]
                        },
                        {
                          "endTime" : 6595,
                          "duration" : 30,
                          "range" : [ 6565, 30]
                        },
                        {
                          "endTime" : 7701,
                          "duration" : 30,
                          "range" : [ 7671, 30]
                        },
                        {
                          "endTime" : 8335,
                          "duration" : 30,
                          "range" : [ 8305, 30]
                        },
                        {
                          "endTime" : 9262,
                          "duration" : 30,
                          "range" : [ 9232, 30]
                        },
                        {
                          "endTime" : 9574,
                          "duration" : 30,
                          "range" : [ 9544, 30]
                        }
                      ]
                    }
                  },
                  {
                    "id" : 70,
                    "_type" : "ScreenVMFile",
                    "src" : 6,
                    "trackNumber" : 0,
                    "attributes" : {
                      "ident" : "Rec 02-07-19"
                    },
                    "parameters" : {
                      "translation0" : {
                        "type" : "double",
                        "defaultValue" : 163.5,
                        "interp" : "eioe"
                      },
                      "translation1" : {
                        "type" : "double",
                        "defaultValue" : -69.5,
                        "interp" : "eioe"
                      },
                      "scale0" : {
                        "type" : "double",
                        "defaultValue" : 1.605,
                        "interp" : "eioe"
                      },
                      "scale1" : {
                        "type" : "double",
                        "defaultValue" : 1.605,
                        "interp" : "eioe"
                      },
                      "cursorScale" : {
                        "type" : "double",
                        "defaultValue" : 1.0,
                        "interp" : "linr"
                      },
                      "cursorOpacity" : {
                        "type" : "double",
                        "defaultValue" : 1.0,
                        "interp" : "linr"
                      }
                    },
                    "effects" : [

                    ],
                    "start" : 13179,
                    "duration" : 827,
                    "mediaStart" : 437,
                    "mediaDuration" : 827,
                    "scalar" : 1,
                    "metadata" : {
                      "AutoAppliedSmartFocus" : "False",
                      "WinSubProjectDisplayName" : "",
                      "clipSpeedAttribute" : false,
                      "default-scale0" : 1.0,
                      "default-scale1" : 1.0,
                      "default-translation0" : 0.0,
                      "default-translation1" : 0.0
                    },
                    "animationTracks" : {

                    }
                  },
                  {
                    "id" : 71,
                    "_type" : "StitchedMedia",
                    "minMediaStart" : 0,
                    "attributes" : {
                      "ident" : "Rec 02-06-19_004",
                      "gain" : 1.0,
                      "mixToMono" : false
                    },
                    "parameters" : {
                      "translation0" : {
                        "type" : "double",
                        "defaultValue" : 67.3,
                        "keyframes" : [
                          {
                            "endTime" : 1852,
                            "time" : 1822,
                            "value" : -655.776923076996,
                            "duration" : 30
                          },
                          {
                            "endTime" : 2193,
                            "time" : 2163,
                            "value" : 67.3,
                            "duration" : 30
                          },
                          {
                            "endTime" : 3302,
                            "time" : 3272,
                            "value" : -598.084615384748,
                            "duration" : 30
                          },
                          {
                            "endTime" : 3560,
                            "time" : 3530,
                            "value" : 67.3,
                            "duration" : 30
                          },
                          {
                            "endTime" : 4965,
                            "time" : 4935,
                            "value" : -207.699999999977,
                            "duration" : 30
                          },
                          {
                            "endTime" : 5494,
                            "time" : 5464,
                            "value" : 257.684615384671,
                            "duration" : 30
                          },
                          {
                            "endTime" : 6595,
                            "time" : 6565,
                            "value" : -1.55807811097475e-10,
                            "duration" : 30
                          },
                          {
                            "endTime" : 7701,
                            "time" : 7671,
                            "value" : 78.8461538453181,
                            "duration" : 30
                          },
                          {
                            "endTime" : 9262,
                            "time" : 9232,
                            "value" : -130.769230770076,
                            "duration" : 30
                          },
                          {
                            "endTime" : 9574,
                            "time" : 9544,
                            "value" : 163.46153846071,
                            "duration" : 30
                          }
                        ]
                      },
                      "translation1" : {
                        "type" : "double",
                        "defaultValue" : -156.0,
                        "keyframes" : [
                          {
                            "endTime" : 1852,
                            "time" : 1822,
                            "value" : -292.538461538469,
                            "duration" : 30
                          },
                          {
                            "endTime" : 2193,
                            "time" : 2163,
                            "value" : -156.000000000003,
                            "duration" : 30
                          },
                          {
                            "endTime" : 3302,
                            "time" : 3272,
                            "value" : 113.230769230861,
                            "duration" : 30
                          },
                          {
                            "endTime" : 3560,
                            "time" : 3530,
                            "value" : -156.0,
                            "duration" : 30
                          },
                          {
                            "endTime" : 4965,
                            "time" : 4935,
                            "value" : 153.615384615404,
                            "duration" : 30
                          },
                          {
                            "endTime" : 5494,
                            "time" : 5464,
                            "value" : -74.9999999999178,
                            "duration" : 30
                          },
                          {
                            "endTime" : 6595,
                            "time" : 6565,
                            "value" : -105.769230769154,
                            "duration" : 30
                          },
                          {
                            "endTime" : 7701,
                            "time" : 7671,
                            "value" : -156.000000000009,
                            "duration" : 30
                          },
                          {
                            "endTime" : 8335,
                            "time" : 8305,
                            "value" : -217.53846153845,
                            "duration" : 30
                          },
                          {
                            "endTime" : 9262,
                            "time" : 9232,
                            "value" : 170.923076923083,
                            "duration" : 30
                          },
                          {
                            "endTime" : 9574,
                            "time" : 9544,
                            "value" : -69.4615384615322,
                            "duration" : 30
                          }
                        ]
                      },
                      "scale0" : {
                        "type" : "double",
                        "defaultValue" : 1.374,
                        "keyframes" : [
                          {
                            "endTime" : 1852,
                            "time" : 1822,
                            "value" : 2.04758333333333,
                            "duration" : 30
                          },
                          {
                            "endTime" : 2193,
                            "time" : 2163,
                            "value" : 1.374,
                            "duration" : 30
                          },
                          {
                            "endTime" : 3302,
                            "time" : 3272,
                            "value" : 1.873,
                            "duration" : 30
                          },
                          {
                            "endTime" : 3560,
                            "time" : 3530,
                            "value" : 1.374,
                            "duration" : 30
                          },
                          {
                            "endTime" : 5494,
                            "time" : 5464,
                            "value" : 1.873,
                            "duration" : 30
                          },
                          {
                            "endTime" : 6595,
                            "time" : 6565,
                            "value" : 1.24925,
                            "duration" : 30
                          },
                          {
                            "endTime" : 7701,
                            "time" : 7671,
                            "value" : 1.605,
                            "duration" : 30
                          }
                        ]
                      },
                      "scale1" : {
                        "type" : "double",
                        "defaultValue" : 1.374,
                        "keyframes" : [
                          {
                            "endTime" : 1852,
                            "time" : 1822,
                            "value" : 2.04758333333333,
                            "duration" : 30
                          },
                          {
                            "endTime" : 2193,
                            "time" : 2163,
                            "value" : 1.374,
                            "duration" : 30
                          },
                          {
                            "endTime" : 3302,
                            "time" : 3272,
                            "value" : 1.873,
                            "duration" : 30
                          },
                          {
                            "endTime" : 3560,
                            "time" : 3530,
                            "value" : 1.374,
                            "duration" : 30
                          },
                          {
                            "endTime" : 5494,
                            "time" : 5464,
                            "value" : 1.873,
                            "duration" : 30
                          },
                          {
                            "endTime" : 6595,
                            "time" : 6565,
                            "value" : 1.24925,
                            "duration" : 30
                          },
                          {
                            "endTime" : 7701,
                            "time" : 7671,
                            "value" : 1.605,
                            "duration" : 30
                          }
                        ]
                      },
                      "cursorOpacity" : 1.0,
                      "cursorScale" : 1.0
                    },
                    "medias" : [
                        {
                          "id" : 72,
                          "_type" : "ScreenVMFile",
                          "src" : 5,
                          "trackNumber" : 0,
                          "attributes" : {
                            "ident" : "Rec 02-06-19_004"
                          },
                          "parameters" : {
                            "cursorScale" : {
                              "type" : "double",
                              "defaultValue" : 0.0,
                              "interp" : "linr"
                            },
                            "cursorOpacity" : {
                              "type" : "double",
                              "defaultValue" : 0.0,
                              "interp" : "linr"
                            }
                          },
                          "effects" : [

                          ],
                          "start" : 0,
                          "duration" : 5938,
                          "mediaStart" : 0,
                          "mediaDuration" : 5938,
                          "scalar" : 1,
                          "metadata" : {
                            "AutoAppliedSmartFocus" : "False",
                            "WinSubProjectDisplayName" : "",
                            "clipSpeedAttribute" : false,
                            "default-scale0" : 1.0,
                            "default-scale1" : 1.0,
                            "default-translation0" : 0.0,
                            "default-translation1" : 0.0
                          },
                          "animationTracks" : {

                          }
                        },
                        {
                          "id" : 73,
                          "_type" : "ScreenVMFile",
                          "src" : 5,
                          "trackNumber" : 0,
                          "attributes" : {
                            "ident" : "Rec 02-06-19_004"
                          },
                          "parameters" : {
                            "cursorScale" : {
                              "type" : "double",
                              "defaultValue" : 0.0,
                              "interp" : "linr"
                            },
                            "cursorOpacity" : {
                              "type" : "double",
                              "defaultValue" : 0.0,
                              "interp" : "linr"
                            }
                          },
                          "effects" : [

                          ],
                          "start" : 5938,
                          "duration" : 2276,
                          "mediaStart" : 6059,
                          "mediaDuration" : 2276,
                          "scalar" : 1,
                          "metadata" : {
                            "AutoAppliedSmartFocus" : "False",
                            "WinSubProjectDisplayName" : "",
                            "clipSpeedAttribute" : false,
                            "default-scale0" : 1.0,
                            "default-scale1" : 1.0,
                            "default-translation0" : 0.0,
                            "default-translation1" : 0.0
                          },
                          "animationTracks" : {

                          }
                        },
                        {
                          "id" : 74,
                          "_type" : "ScreenVMFile",
                          "src" : 5,
                          "trackNumber" : 0,
                          "attributes" : {
                            "ident" : "Rec 02-06-19_004"
                          },
                          "parameters" : {
                            "cursorScale" : {
                              "type" : "double",
                              "defaultValue" : 0.0,
                              "interp" : "linr"
                            },
                            "cursorOpacity" : {
                              "type" : "double",
                              "defaultValue" : 0.0,
                              "interp" : "linr"
                            }
                          },
                          "effects" : [

                          ],
                          "start" : 8214,
                          "duration" : 1367,
                          "mediaStart" : 8589,
                          "mediaDuration" : 1367,
                          "scalar" : 1,
                          "metadata" : {
                            "AutoAppliedSmartFocus" : "False",
                            "WinSubProjectDisplayName" : "",
                            "clipSpeedAttribute" : false,
                            "default-scale0" : 1.0,
                            "default-scale1" : 1.0,
                            "default-translation0" : 0.0,
                            "default-translation1" : 0.0
                          },
                          "animationTracks" : {

                          }
                        },
                        {
                          "id" : 75,
                          "_type" : "ScreenVMFile",
                          "src" : 5,
                          "trackNumber" : 0,
                          "attributes" : {
                            "ident" : "Rec 02-06-19_004"
                          },
                          "parameters" : {
                            "cursorScale" : {
                              "type" : "double",
                              "defaultValue" : 0.0,
                              "interp" : "linr"
                            },
                            "cursorOpacity" : {
                              "type" : "double",
                              "defaultValue" : 0.0,
                              "interp" : "linr"
                            }
                          },
                          "effects" : [

                          ],
                          "start" : 9581,
                          "duration" : 468,
                          "mediaStart" : 10199,
                          "mediaDuration" : 468,
                          "scalar" : 1,
                          "metadata" : {
                            "AutoAppliedSmartFocus" : "False",
                            "WinSubProjectDisplayName" : "",
                            "clipSpeedAttribute" : false,
                            "default-scale0" : 1.0,
                            "default-scale1" : 1.0,
                            "default-translation0" : 0.0,
                            "default-translation1" : 0.0
                          },
                          "animationTracks" : {

                          }
                        },
                        {
                          "id" : 76,
                          "_type" : "ScreenVMFile",
                          "src" : 5,
                          "trackNumber" : 0,
                          "attributes" : {
                            "ident" : "Rec 02-06-19_004"
                          },
                          "parameters" : {
                            "cursorScale" : {
                              "type" : "double",
                              "defaultValue" : 0.0,
                              "interp" : "linr"
                            },
                            "cursorOpacity" : {
                              "type" : "double",
                              "defaultValue" : 0.0,
                              "interp" : "linr"
                            }
                          },
                          "effects" : [

                          ],
                          "start" : 10049,
                          "duration" : 4787,
                          "mediaStart" : 11180,
                          "mediaDuration" : 4787,
                          "scalar" : 1,
                          "metadata" : {
                            "AutoAppliedSmartFocus" : "False",
                            "WinSubProjectDisplayName" : "",
                            "clipSpeedAttribute" : false,
                            "default-scale0" : 1.0,
                            "default-scale1" : 1.0,
                            "default-translation0" : 0.0,
                            "default-translation1" : 0.0
                          },
                          "animationTracks" : {

                          }
                        }
                    ],
                    "effects" : [

                    ],
                    "start" : 14006,
                    "duration" : 296,
                    "mediaStart" : 14407,
                    "mediaDuration" : 296,
                    "scalar" : 1,
                    "metadata" : {
                      "AutoAppliedSmartFocus" : "False",
                      "WinSubProjectDisplayName" : "",
                      "clipSpeedAttribute" : false
                    },
                    "animationTracks" : {
                      "visual" : [
                        {
                          "endTime" : 1852,
                          "duration" : 30,
                          "range" : [ 1822, 30]
                        },
                        {
                          "endTime" : 2193,
                          "duration" : 30,
                          "range" : [ 2163, 30]
                        },
                        {
                          "endTime" : 3302,
                          "duration" : 30,
                          "range" : [ 3272, 30]
                        },
                        {
                          "endTime" : 3560,
                          "duration" : 30,
                          "range" : [ 3530, 30]
                        },
                        {
                          "endTime" : 4965,
                          "duration" : 30,
                          "range" : [ 4935, 30]
                        },
                        {
                          "endTime" : 5494,
                          "duration" : 30,
                          "range" : [ 5464, 30]
                        },
                        {
                          "endTime" : 6595,
                          "duration" : 30,
                          "range" : [ 6565, 30]
                        },
                        {
                          "endTime" : 7701,
                          "duration" : 30,
                          "range" : [ 7671, 30]
                        },
                        {
                          "endTime" : 8335,
                          "duration" : 30,
                          "range" : [ 8305, 30]
                        },
                        {
                          "endTime" : 9262,
                          "duration" : 30,
                          "range" : [ 9232, 30]
                        },
                        {
                          "endTime" : 9574,
                          "duration" : 30,
                          "range" : [ 9544, 30]
                        }
                      ]
                    }
                  },
                  {
                    "id" : 77,
                    "_type" : "StitchedMedia",
                    "minMediaStart" : 0,
                    "attributes" : {
                      "ident" : "Rec 02-07-19_001",
                      "gain" : 1.0,
                      "mixToMono" : false
                    },
                    "parameters" : {
                      "translation0" : {
                        "type" : "double",
                        "defaultValue" : 90.3846153842169,
                        "keyframes" : [
                          {
                            "endTime" : 1043,
                            "time" : 1013,
                            "value" : 173.076923076545,
                            "duration" : 30
                          },
                          {
                            "endTime" : 1141,
                            "time" : 1111,
                            "value" : 90.4,
                            "duration" : 30
                          },
                          {
                            "endTime" : 2358,
                            "time" : 2328,
                            "value" : 134.630769230764,
                            "duration" : 30
                          },
                          {
                            "endTime" : 2478,
                            "time" : 2448,
                            "value" : 382.70769230741,
                            "duration" : 30
                          }
                        ]
                      },
                      "translation1" : {
                        "type" : "double",
                        "defaultValue" : -155.999999999973,
                        "keyframes" : [
                          {
                            "endTime" : 1043,
                            "time" : 1013,
                            "value" : 101.692307692331,
                            "duration" : 30
                          },
                          {
                            "endTime" : 1141,
                            "time" : 1111,
                            "value" : -156.0,
                            "duration" : 30
                          },
                          {
                            "endTime" : 2358,
                            "time" : 2328,
                            "value" : 217.076923076909,
                            "duration" : 30
                          },
                          {
                            "endTime" : 2478,
                            "time" : 2448,
                            "value" : -59.6153846154014,
                            "duration" : 30
                          }
                        ]
                      },
                      "scale0" : 1.66533333333333,
                      "scale1" : 1.66533333333333,
                      "cursorOpacity" : 1.0,
                      "cursorScale" : 1.0
                    },
                    "medias" : [
                        {
                          "id" : 78,
                          "_type" : "ScreenVMFile",
                          "src" : 7,
                          "trackNumber" : 0,
                          "attributes" : {
                            "ident" : "Rec 02-07-19_001"
                          },
                          "parameters" : {
                            "cursorScale" : {
                              "type" : "double",
                              "defaultValue" : 0.0,
                              "interp" : "linr"
                            },
                            "cursorOpacity" : {
                              "type" : "double",
                              "defaultValue" : 0.0,
                              "interp" : "linr"
                            }
                          },
                          "effects" : [

                          ],
                          "start" : 0,
                          "duration" : 496,
                          "mediaStart" : 0,
                          "mediaDuration" : 496,
                          "scalar" : 1,
                          "metadata" : {
                            "AutoAppliedSmartFocus" : "False",
                            "WinSubProjectDisplayName" : "",
                            "clipSpeedAttribute" : false,
                            "default-scale0" : 1.0,
                            "default-scale1" : 1.0,
                            "default-translation0" : 0.0,
                            "default-translation1" : 0.0
                          },
                          "animationTracks" : {

                          }
                        },
                        {
                          "id" : 79,
                          "_type" : "ScreenVMFile",
                          "src" : 7,
                          "trackNumber" : 0,
                          "attributes" : {
                            "ident" : "Rec 02-07-19_001"
                          },
                          "parameters" : {
                            "cursorScale" : {
                              "type" : "double",
                              "defaultValue" : 0.0,
                              "interp" : "linr"
                            },
                            "cursorOpacity" : {
                              "type" : "double",
                              "defaultValue" : 0.0,
                              "interp" : "linr"
                            }
                          },
                          "effects" : [

                          ],
                          "start" : 496,
                          "duration" : 190,
                          "mediaStart" : 715,
                          "mediaDuration" : 190,
                          "scalar" : 1,
                          "metadata" : {
                            "AutoAppliedSmartFocus" : "False",
                            "WinSubProjectDisplayName" : "",
                            "clipSpeedAttribute" : false,
                            "default-scale0" : 1.0,
                            "default-scale1" : 1.0,
                            "default-translation0" : 0.0,
                            "default-translation1" : 0.0
                          },
                          "animationTracks" : {

                          }
                        },
                        {
                          "id" : 80,
                          "_type" : "ScreenVMFile",
                          "src" : 7,
                          "trackNumber" : 0,
                          "attributes" : {
                            "ident" : "Rec 02-07-19_001"
                          },
                          "parameters" : {
                            "cursorScale" : {
                              "type" : "double",
                              "defaultValue" : 0.0,
                              "interp" : "linr"
                            },
                            "cursorOpacity" : {
                              "type" : "double",
                              "defaultValue" : 0.0,
                              "interp" : "linr"
                            }
                          },
                          "effects" : [

                          ],
                          "start" : 686,
                          "duration" : 239,
                          "mediaStart" : 1444,
                          "mediaDuration" : 239,
                          "scalar" : 1,
                          "metadata" : {
                            "AutoAppliedSmartFocus" : "False",
                            "WinSubProjectDisplayName" : "",
                            "clipSpeedAttribute" : false,
                            "default-scale0" : 1.0,
                            "default-scale1" : 1.0,
                            "default-translation0" : 0.0,
                            "default-translation1" : 0.0
                          },
                          "animationTracks" : {

                          }
                        },
                        {
                          "id" : 81,
                          "_type" : "ScreenVMFile",
                          "src" : 7,
                          "trackNumber" : 0,
                          "attributes" : {
                            "ident" : "Rec 02-07-19_001"
                          },
                          "parameters" : {
                            "cursorScale" : {
                              "type" : "double",
                              "defaultValue" : 0.0,
                              "interp" : "linr"
                            },
                            "cursorOpacity" : {
                              "type" : "double",
                              "defaultValue" : 0.0,
                              "interp" : "linr"
                            }
                          },
                          "effects" : [

                          ],
                          "start" : 925,
                          "duration" : 128,
                          "mediaStart" : 1750,
                          "mediaDuration" : 128,
                          "scalar" : 1,
                          "metadata" : {
                            "AutoAppliedSmartFocus" : "False",
                            "WinSubProjectDisplayName" : "",
                            "clipSpeedAttribute" : false,
                            "default-scale0" : 1.0,
                            "default-scale1" : 1.0,
                            "default-translation0" : 0.0,
                            "default-translation1" : 0.0
                          },
                          "animationTracks" : {

                          }
                        },
                        {
                          "id" : 82,
                          "_type" : "ScreenVMFile",
                          "src" : 7,
                          "trackNumber" : 0,
                          "attributes" : {
                            "ident" : "Rec 02-07-19_001"
                          },
                          "parameters" : {
                            "cursorScale" : {
                              "type" : "double",
                              "defaultValue" : 0.0,
                              "interp" : "linr"
                            },
                            "cursorOpacity" : {
                              "type" : "double",
                              "defaultValue" : 0.0,
                              "interp" : "linr"
                            }
                          },
                          "effects" : [

                          ],
                          "start" : 1053,
                          "duration" : 298,
                          "mediaStart" : 1939,
                          "mediaDuration" : 298,
                          "scalar" : 1,
                          "metadata" : {
                            "AutoAppliedSmartFocus" : "False",
                            "WinSubProjectDisplayName" : "",
                            "clipSpeedAttribute" : false,
                            "default-scale0" : 1.0,
                            "default-scale1" : 1.0,
                            "default-translation0" : 0.0,
                            "default-translation1" : 0.0
                          },
                          "animationTracks" : {

                          }
                        },
                        {
                          "id" : 83,
                          "_type" : "ScreenVMFile",
                          "src" : 7,
                          "trackNumber" : 0,
                          "attributes" : {
                            "ident" : "Rec 02-07-19_001"
                          },
                          "parameters" : {
                            "cursorScale" : {
                              "type" : "double",
                              "defaultValue" : 0.0,
                              "interp" : "linr"
                            },
                            "cursorOpacity" : {
                              "type" : "double",
                              "defaultValue" : 0.0,
                              "interp" : "linr"
                            }
                          },
                          "effects" : [

                          ],
                          "start" : 1351,
                          "duration" : 524,
                          "mediaStart" : 2386,
                          "mediaDuration" : 524,
                          "scalar" : 1,
                          "metadata" : {
                            "AutoAppliedSmartFocus" : "False",
                            "WinSubProjectDisplayName" : "",
                            "clipSpeedAttribute" : false,
                            "default-scale0" : 1.0,
                            "default-scale1" : 1.0,
                            "default-translation0" : 0.0,
                            "default-translation1" : 0.0
                          },
                          "animationTracks" : {

                          }
                        },
                        {
                          "id" : 84,
                          "_type" : "ScreenVMFile",
                          "src" : 7,
                          "trackNumber" : 0,
                          "attributes" : {
                            "ident" : "Rec 02-07-19_001"
                          },
                          "parameters" : {
                            "cursorScale" : {
                              "type" : "double",
                              "defaultValue" : 0.0,
                              "interp" : "linr"
                            },
                            "cursorOpacity" : {
                              "type" : "double",
                              "defaultValue" : 0.0,
                              "interp" : "linr"
                            }
                          },
                          "effects" : [

                          ],
                          "start" : 1875,
                          "duration" : 143,
                          "mediaStart" : 3086,
                          "mediaDuration" : 143,
                          "scalar" : 1,
                          "metadata" : {
                            "AutoAppliedSmartFocus" : "False",
                            "WinSubProjectDisplayName" : "",
                            "clipSpeedAttribute" : false,
                            "default-scale0" : 1.0,
                            "default-scale1" : 1.0,
                            "default-translation0" : 0.0,
                            "default-translation1" : 0.0
                          },
                          "animationTracks" : {

                          }
                        },
                        {
                          "id" : 85,
                          "_type" : "ScreenVMFile",
                          "src" : 7,
                          "trackNumber" : 0,
                          "attributes" : {
                            "ident" : "Rec 02-07-19_001"
                          },
                          "parameters" : {
                            "cursorScale" : {
                              "type" : "double",
                              "defaultValue" : 0.0,
                              "interp" : "linr"
                            },
                            "cursorOpacity" : {
                              "type" : "double",
                              "defaultValue" : 0.0,
                              "interp" : "linr"
                            }
                          },
                          "effects" : [

                          ],
                          "start" : 2018,
                          "duration" : 22704,
                          "mediaStart" : 3692,
                          "mediaDuration" : 22704,
                          "scalar" : 1,
                          "metadata" : {
                            "AutoAppliedSmartFocus" : "False",
                            "WinSubProjectDisplayName" : "",
                            "clipSpeedAttribute" : false,
                            "default-scale0" : 1.0,
                            "default-scale1" : 1.0,
                            "default-translation0" : 0.0,
                            "default-translation1" : 0.0
                          },
                          "animationTracks" : {

                          }
                        }
                    ],
                    "effects" : [

                    ],
                    "start" : 14302,
                    "duration" : 2943,
                    "mediaStart" : 95,
                    "mediaDuration" : 2943,
                    "scalar" : 1,
                    "metadata" : {
                      "AutoAppliedSmartFocus" : "False",
                      "WinSubProjectDisplayName" : "",
                      "clipSpeedAttribute" : false,
                      "default-translation0" : 90.4,
                      "default-translation1" : -156.0
                    },
                    "animationTracks" : {
                      "visual" : [
                        {
                          "endTime" : 1043,
                          "duration" : 30,
                          "range" : [ 1013, 30]
                        },
                        {
                          "endTime" : 1141,
                          "duration" : 30,
                          "range" : [ 1111, 30]
                        },
                        {
                          "endTime" : 2358,
                          "duration" : 30,
                          "range" : [ 2328, 30]
                        },
                        {
                          "endTime" : 2478,
                          "duration" : 30,
                          "range" : [ 2448, 30]
                        }
                      ]
                    }
                  },
                  {
                    "id" : 86,
                    "_type" : "StitchedMedia",
                    "minMediaStart" : 0,
                    "attributes" : {
                      "ident" : "Rec 02-07-19_001",
                      "gain" : 1.0,
                      "mixToMono" : false
                    },
                    "parameters" : {
                      "translation0" : {
                        "type" : "double",
                        "defaultValue" : 90.3846153842169,
                        "keyframes" : [
                          {
                            "endTime" : 1043,
                            "time" : 1013,
                            "value" : 173.076923076545,
                            "duration" : 30
                          },
                          {
                            "endTime" : 1141,
                            "time" : 1111,
                            "value" : 90.4,
                            "duration" : 30
                          },
                          {
                            "endTime" : 2358,
                            "time" : 2328,
                            "value" : 134.630769230764,
                            "duration" : 30
                          },
                          {
                            "endTime" : 2478,
                            "time" : 2448,
                            "value" : 382.7,
                            "duration" : 30
                          },
                          {
                            "endTime" : 3666,
                            "time" : 3636,
                            "value" : -560.474125874959,
                            "duration" : 30
                          },
                          {
                            "endTime" : 4066,
                            "time" : 4036,
                            "value" : 27.2727272727602,
                            "duration" : 30
                          },
                          {
                            "endTime" : 4469,
                            "time" : 4439,
                            "value" : -581.8181818181,
                            "duration" : 30
                          }
                        ]
                      },
                      "translation1" : {
                        "type" : "double",
                        "defaultValue" : -155.999999999973,
                        "keyframes" : [
                          {
                            "endTime" : 1043,
                            "time" : 1013,
                            "value" : 101.692307692331,
                            "duration" : 30
                          },
                          {
                            "endTime" : 1141,
                            "time" : 1111,
                            "value" : -156.0,
                            "duration" : 30
                          },
                          {
                            "endTime" : 2358,
                            "time" : 2328,
                            "value" : 217.076923076909,
                            "duration" : 30
                          },
                          {
                            "endTime" : 2478,
                            "time" : 2448,
                            "value" : -59.6,
                            "duration" : 30
                          },
                          {
                            "endTime" : 3666,
                            "time" : 3636,
                            "value" : -179.81818181819,
                            "duration" : 30
                          },
                          {
                            "endTime" : 4066,
                            "time" : 4036,
                            "value" : -347.999999999825,
                            "duration" : 30
                          },
                          {
                            "endTime" : 4469,
                            "time" : 4439,
                            "value" : -372.999999999852,
                            "duration" : 30
                          }
                        ]
                      },
                      "scale0" : {
                        "type" : "double",
                        "defaultValue" : 1.66533333333333,
                        "keyframes" : [
                          {
                            "endTime" : 1043,
                            "time" : 1013,
                            "value" : 1.0,
                            "duration" : 30
                          },
                          {
                            "endTime" : 2478,
                            "time" : 2448,
                            "value" : 1.665,
                            "duration" : 30
                          },
                          {
                            "endTime" : 3666,
                            "time" : 3636,
                            "value" : 2.12275,
                            "duration" : 30
                          },
                          {
                            "endTime" : 4066,
                            "time" : 4036,
                            "value" : 1.66533333333333,
                            "duration" : 30
                          },
                          {
                            "endTime" : 4469,
                            "time" : 4439,
                            "value" : 2.66333333333333,
                            "duration" : 30
                          }
                        ]
                      },
                      "scale1" : {
                        "type" : "double",
                        "defaultValue" : 1.66533333333333,
                        "keyframes" : [
                          {
                            "endTime" : 1043,
                            "time" : 1013,
                            "value" : 1.0,
                            "duration" : 30
                          },
                          {
                            "endTime" : 2478,
                            "time" : 2448,
                            "value" : 1.665,
                            "duration" : 30
                          },
                          {
                            "endTime" : 3666,
                            "time" : 3636,
                            "value" : 2.12275,
                            "duration" : 30
                          },
                          {
                            "endTime" : 4066,
                            "time" : 4036,
                            "value" : 1.66533333333333,
                            "duration" : 30
                          },
                          {
                            "endTime" : 4469,
                            "time" : 4439,
                            "value" : 2.66333333333333,
                            "duration" : 30
                          }
                        ]
                      },
                      "cursorOpacity" : 1.0,
                      "cursorScale" : 1.0
                    },
                    "medias" : [
                        {
                          "id" : 87,
                          "_type" : "ScreenVMFile",
                          "src" : 7,
                          "trackNumber" : 0,
                          "attributes" : {
                            "ident" : "Rec 02-07-19_001"
                          },
                          "parameters" : {
                            "cursorScale" : {
                              "type" : "double",
                              "defaultValue" : 0.0,
                              "interp" : "linr"
                            },
                            "cursorOpacity" : {
                              "type" : "double",
                              "defaultValue" : 0.0,
                              "interp" : "linr"
                            }
                          },
                          "effects" : [

                          ],
                          "start" : 0,
                          "duration" : 496,
                          "mediaStart" : 0,
                          "mediaDuration" : 496,
                          "scalar" : 1,
                          "metadata" : {
                            "AutoAppliedSmartFocus" : "False",
                            "WinSubProjectDisplayName" : "",
                            "clipSpeedAttribute" : false,
                            "default-scale0" : 1.0,
                            "default-scale1" : 1.0,
                            "default-translation0" : 0.0,
                            "default-translation1" : 0.0
                          },
                          "animationTracks" : {

                          }
                        },
                        {
                          "id" : 88,
                          "_type" : "ScreenVMFile",
                          "src" : 7,
                          "trackNumber" : 0,
                          "attributes" : {
                            "ident" : "Rec 02-07-19_001"
                          },
                          "parameters" : {
                            "cursorScale" : {
                              "type" : "double",
                              "defaultValue" : 0.0,
                              "interp" : "linr"
                            },
                            "cursorOpacity" : {
                              "type" : "double",
                              "defaultValue" : 0.0,
                              "interp" : "linr"
                            }
                          },
                          "effects" : [

                          ],
                          "start" : 496,
                          "duration" : 190,
                          "mediaStart" : 715,
                          "mediaDuration" : 190,
                          "scalar" : 1,
                          "metadata" : {
                            "AutoAppliedSmartFocus" : "False",
                            "WinSubProjectDisplayName" : "",
                            "clipSpeedAttribute" : false,
                            "default-scale0" : 1.0,
                            "default-scale1" : 1.0,
                            "default-translation0" : 0.0,
                            "default-translation1" : 0.0
                          },
                          "animationTracks" : {

                          }
                        },
                        {
                          "id" : 89,
                          "_type" : "ScreenVMFile",
                          "src" : 7,
                          "trackNumber" : 0,
                          "attributes" : {
                            "ident" : "Rec 02-07-19_001"
                          },
                          "parameters" : {
                            "cursorScale" : {
                              "type" : "double",
                              "defaultValue" : 0.0,
                              "interp" : "linr"
                            },
                            "cursorOpacity" : {
                              "type" : "double",
                              "defaultValue" : 0.0,
                              "interp" : "linr"
                            }
                          },
                          "effects" : [

                          ],
                          "start" : 686,
                          "duration" : 239,
                          "mediaStart" : 1444,
                          "mediaDuration" : 239,
                          "scalar" : 1,
                          "metadata" : {
                            "AutoAppliedSmartFocus" : "False",
                            "WinSubProjectDisplayName" : "",
                            "clipSpeedAttribute" : false,
                            "default-scale0" : 1.0,
                            "default-scale1" : 1.0,
                            "default-translation0" : 0.0,
                            "default-translation1" : 0.0
                          },
                          "animationTracks" : {

                          }
                        },
                        {
                          "id" : 90,
                          "_type" : "ScreenVMFile",
                          "src" : 7,
                          "trackNumber" : 0,
                          "attributes" : {
                            "ident" : "Rec 02-07-19_001"
                          },
                          "parameters" : {
                            "cursorScale" : {
                              "type" : "double",
                              "defaultValue" : 0.0,
                              "interp" : "linr"
                            },
                            "cursorOpacity" : {
                              "type" : "double",
                              "defaultValue" : 0.0,
                              "interp" : "linr"
                            }
                          },
                          "effects" : [

                          ],
                          "start" : 925,
                          "duration" : 128,
                          "mediaStart" : 1750,
                          "mediaDuration" : 128,
                          "scalar" : 1,
                          "metadata" : {
                            "AutoAppliedSmartFocus" : "False",
                            "WinSubProjectDisplayName" : "",
                            "clipSpeedAttribute" : false,
                            "default-scale0" : 1.0,
                            "default-scale1" : 1.0,
                            "default-translation0" : 0.0,
                            "default-translation1" : 0.0
                          },
                          "animationTracks" : {

                          }
                        },
                        {
                          "id" : 91,
                          "_type" : "ScreenVMFile",
                          "src" : 7,
                          "trackNumber" : 0,
                          "attributes" : {
                            "ident" : "Rec 02-07-19_001"
                          },
                          "parameters" : {
                            "cursorScale" : {
                              "type" : "double",
                              "defaultValue" : 0.0,
                              "interp" : "linr"
                            },
                            "cursorOpacity" : {
                              "type" : "double",
                              "defaultValue" : 0.0,
                              "interp" : "linr"
                            }
                          },
                          "effects" : [

                          ],
                          "start" : 1053,
                          "duration" : 298,
                          "mediaStart" : 1939,
                          "mediaDuration" : 298,
                          "scalar" : 1,
                          "metadata" : {
                            "AutoAppliedSmartFocus" : "False",
                            "WinSubProjectDisplayName" : "",
                            "clipSpeedAttribute" : false,
                            "default-scale0" : 1.0,
                            "default-scale1" : 1.0,
                            "default-translation0" : 0.0,
                            "default-translation1" : 0.0
                          },
                          "animationTracks" : {

                          }
                        },
                        {
                          "id" : 92,
                          "_type" : "ScreenVMFile",
                          "src" : 7,
                          "trackNumber" : 0,
                          "attributes" : {
                            "ident" : "Rec 02-07-19_001"
                          },
                          "parameters" : {
                            "cursorScale" : {
                              "type" : "double",
                              "defaultValue" : 0.0,
                              "interp" : "linr"
                            },
                            "cursorOpacity" : {
                              "type" : "double",
                              "defaultValue" : 0.0,
                              "interp" : "linr"
                            }
                          },
                          "effects" : [

                          ],
                          "start" : 1351,
                          "duration" : 524,
                          "mediaStart" : 2386,
                          "mediaDuration" : 524,
                          "scalar" : 1,
                          "metadata" : {
                            "AutoAppliedSmartFocus" : "False",
                            "WinSubProjectDisplayName" : "",
                            "clipSpeedAttribute" : false,
                            "default-scale0" : 1.0,
                            "default-scale1" : 1.0,
                            "default-translation0" : 0.0,
                            "default-translation1" : 0.0
                          },
                          "animationTracks" : {

                          }
                        },
                        {
                          "id" : 93,
                          "_type" : "ScreenVMFile",
                          "src" : 7,
                          "trackNumber" : 0,
                          "attributes" : {
                            "ident" : "Rec 02-07-19_001"
                          },
                          "parameters" : {
                            "cursorScale" : {
                              "type" : "double",
                              "defaultValue" : 0.0,
                              "interp" : "linr"
                            },
                            "cursorOpacity" : {
                              "type" : "double",
                              "defaultValue" : 0.0,
                              "interp" : "linr"
                            }
                          },
                          "effects" : [

                          ],
                          "start" : 1875,
                          "duration" : 143,
                          "mediaStart" : 3086,
                          "mediaDuration" : 143,
                          "scalar" : 1,
                          "metadata" : {
                            "AutoAppliedSmartFocus" : "False",
                            "WinSubProjectDisplayName" : "",
                            "clipSpeedAttribute" : false,
                            "default-scale0" : 1.0,
                            "default-scale1" : 1.0,
                            "default-translation0" : 0.0,
                            "default-translation1" : 0.0
                          },
                          "animationTracks" : {

                          }
                        },
                        {
                          "id" : 94,
                          "_type" : "ScreenVMFile",
                          "src" : 7,
                          "trackNumber" : 0,
                          "attributes" : {
                            "ident" : "Rec 02-07-19_001"
                          },
                          "parameters" : {
                            "cursorScale" : {
                              "type" : "double",
                              "defaultValue" : 0.0,
                              "interp" : "linr"
                            },
                            "cursorOpacity" : {
                              "type" : "double",
                              "defaultValue" : 0.0,
                              "interp" : "linr"
                            }
                          },
                          "effects" : [

                          ],
                          "start" : 2018,
                          "duration" : 1362,
                          "mediaStart" : 3692,
                          "mediaDuration" : 1362,
                          "scalar" : 1,
                          "metadata" : {
                            "AutoAppliedSmartFocus" : "False",
                            "WinSubProjectDisplayName" : "",
                            "clipSpeedAttribute" : false,
                            "default-scale0" : 1.0,
                            "default-scale1" : 1.0,
                            "default-translation0" : 0.0,
                            "default-translation1" : 0.0
                          },
                          "animationTracks" : {

                          }
                        },
                        {
                          "id" : 95,
                          "_type" : "ScreenVMFile",
                          "src" : 7,
                          "trackNumber" : 0,
                          "attributes" : {
                            "ident" : "Rec 02-07-19_001"
                          },
                          "parameters" : {
                            "cursorScale" : {
                              "type" : "double",
                              "defaultValue" : 0.0,
                              "interp" : "linr"
                            },
                            "cursorOpacity" : {
                              "type" : "double",
                              "defaultValue" : 0.0,
                              "interp" : "linr"
                            }
                          },
                          "effects" : [

                          ],
                          "start" : 3380,
                          "duration" : 218,
                          "mediaStart" : 5246,
                          "mediaDuration" : 218,
                          "scalar" : 1,
                          "metadata" : {
                            "AutoAppliedSmartFocus" : "False",
                            "WinSubProjectDisplayName" : "",
                            "clipSpeedAttribute" : false,
                            "default-scale0" : 1.0,
                            "default-scale1" : 1.0,
                            "default-translation0" : 0.0,
                            "default-translation1" : 0.0
                          },
                          "animationTracks" : {

                          }
                        },
                        {
                          "id" : 96,
                          "_type" : "ScreenVMFile",
                          "src" : 7,
                          "trackNumber" : 0,
                          "attributes" : {
                            "ident" : "Rec 02-07-19_001"
                          },
                          "parameters" : {
                            "cursorScale" : {
                              "type" : "double",
                              "defaultValue" : 0.0,
                              "interp" : "linr"
                            },
                            "cursorOpacity" : {
                              "type" : "double",
                              "defaultValue" : 0.0,
                              "interp" : "linr"
                            }
                          },
                          "effects" : [

                          ],
                          "start" : 3598,
                          "duration" : 473,
                          "mediaStart" : 6154,
                          "mediaDuration" : 473,
                          "scalar" : 1,
                          "metadata" : {
                            "AutoAppliedSmartFocus" : "False",
                            "WinSubProjectDisplayName" : "",
                            "clipSpeedAttribute" : false,
                            "default-scale0" : 1.0,
                            "default-scale1" : 1.0,
                            "default-translation0" : 0.0,
                            "default-translation1" : 0.0
                          },
                          "animationTracks" : {

                          }
                        },
                        {
                          "id" : 97,
                          "_type" : "ScreenVMFile",
                          "src" : 7,
                          "trackNumber" : 0,
                          "attributes" : {
                            "ident" : "Rec 02-07-19_001"
                          },
                          "parameters" : {
                            "cursorScale" : {
                              "type" : "double",
                              "defaultValue" : 0.0,
                              "interp" : "linr"
                            },
                            "cursorOpacity" : {
                              "type" : "double",
                              "defaultValue" : 0.0,
                              "interp" : "linr"
                            }
                          },
                          "effects" : [

                          ],
                          "start" : 4071,
                          "duration" : 164,
                          "mediaStart" : 6726,
                          "mediaDuration" : 164,
                          "scalar" : 1,
                          "metadata" : {
                            "AutoAppliedSmartFocus" : "False",
                            "WinSubProjectDisplayName" : "",
                            "clipSpeedAttribute" : false,
                            "default-scale0" : 1.0,
                            "default-scale1" : 1.0,
                            "default-translation0" : 0.0,
                            "default-translation1" : 0.0
                          },
                          "animationTracks" : {

                          }
                        },
                        {
                          "id" : 98,
                          "_type" : "ScreenVMFile",
                          "src" : 7,
                          "trackNumber" : 0,
                          "attributes" : {
                            "ident" : "Rec 02-07-19_001"
                          },
                          "parameters" : {
                            "cursorScale" : {
                              "type" : "double",
                              "defaultValue" : 0.0,
                              "interp" : "linr"
                            },
                            "cursorOpacity" : {
                              "type" : "double",
                              "defaultValue" : 0.0,
                              "interp" : "linr"
                            }
                          },
                          "effects" : [

                          ],
                          "start" : 4235,
                          "duration" : 19289,
                          "mediaStart" : 7107,
                          "mediaDuration" : 19289,
                          "scalar" : 1,
                          "metadata" : {
                            "AutoAppliedSmartFocus" : "False",
                            "WinSubProjectDisplayName" : "",
                            "clipSpeedAttribute" : false,
                            "default-scale0" : 1.0,
                            "default-scale1" : 1.0,
                            "default-translation0" : 0.0,
                            "default-translation1" : 0.0
                          },
                          "animationTracks" : {

                          }
                        }
                    ],
                    "effects" : [

                    ],
                    "start" : 17245,
                    "duration" : 1464,
                    "mediaStart" : 3038,
                    "mediaDuration" : 1464,
                    "scalar" : 1,
                    "metadata" : {
                      "AutoAppliedSmartFocus" : "False",
                      "WinSubProjectDisplayName" : "",
                      "clipSpeedAttribute" : false,
                      "default-scale0" : 1.66533333333333,
                      "default-scale1" : 1.66533333333333,
                      "default-translation0" : 27.2727272727602,
                      "default-translation1" : -347.999999999825
                    },
                    "animationTracks" : {
                      "visual" : [
                        {
                          "endTime" : 1043,
                          "duration" : 30,
                          "range" : [ 1013, 30]
                        },
                        {
                          "endTime" : 1141,
                          "duration" : 30,
                          "range" : [ 1111, 30]
                        },
                        {
                          "endTime" : 2358,
                          "duration" : 30,
                          "range" : [ 2328, 30]
                        },
                        {
                          "endTime" : 2478,
                          "duration" : 30,
                          "range" : [ 2448, 30]
                        },
                        {
                          "endTime" : 3666,
                          "duration" : 30,
                          "range" : [ 3636, 30]
                        },
                        {
                          "endTime" : 4066,
                          "duration" : 30,
                          "range" : [ 4036, 30]
                        },
                        {
                          "endTime" : 4469,
                          "duration" : 30,
                          "range" : [ 4439, 30]
                        }
                      ]
                    }
                  },
                  {
                    "id" : 99,
                    "_type" : "StitchedMedia",
                    "minMediaStart" : 0,
                    "attributes" : {
                      "ident" : "Rec 02-07-19_001",
                      "gain" : 1.0,
                      "mixToMono" : false
                    },
                    "parameters" : {
                      "translation0" : {
                        "type" : "double",
                        "defaultValue" : 90.3846153842169,
                        "interp" : "eioe",
                        "keyframes" : [
                          {
                            "endTime" : 1043,
                            "time" : 1013,
                            "value" : 173.076923076545,
                            "duration" : 30
                          },
                          {
                            "endTime" : 1141,
                            "time" : 1111,
                            "value" : 90.4,
                            "duration" : 30
                          },
                          {
                            "endTime" : 2358,
                            "time" : 2328,
                            "value" : 134.630769230764,
                            "duration" : 30
                          },
                          {
                            "endTime" : 2478,
                            "time" : 2448,
                            "value" : 382.70769230741,
                            "duration" : 30
                          },
                          {
                            "endTime" : 3666,
                            "time" : 3636,
                            "value" : -560.474125874959,
                            "duration" : 30
                          },
                          {
                            "endTime" : 4066,
                            "time" : 4036,
                            "value" : 27.2727272727602,
                            "duration" : 30
                          },
                          {
                            "endTime" : 4469,
                            "time" : 4439,
                            "value" : -581.8181818181,
                            "duration" : 30
                          }
                        ]
                      },
                      "translation1" : {
                        "type" : "double",
                        "defaultValue" : -155.999999999973,
                        "interp" : "eioe",
                        "keyframes" : [
                          {
                            "endTime" : 1043,
                            "time" : 1013,
                            "value" : 101.692307692331,
                            "duration" : 30
                          },
                          {
                            "endTime" : 1141,
                            "time" : 1111,
                            "value" : -156.0,
                            "duration" : 30
                          },
                          {
                            "endTime" : 2358,
                            "time" : 2328,
                            "value" : 217.076923076909,
                            "duration" : 30
                          },
                          {
                            "endTime" : 2478,
                            "time" : 2448,
                            "value" : -59.6153846154014,
                            "duration" : 30
                          },
                          {
                            "endTime" : 3666,
                            "time" : 3636,
                            "value" : -179.81818181819,
                            "duration" : 30
                          },
                          {
                            "endTime" : 4066,
                            "time" : 4036,
                            "value" : -347.999999999825,
                            "duration" : 30
                          },
                          {
                            "endTime" : 4469,
                            "time" : 4439,
                            "value" : -372.999999999852,
                            "duration" : 30
                          }
                        ]
                      },
                      "scale0" : {
                        "type" : "double",
                        "defaultValue" : 1.66533333333333,
                        "interp" : "eioe",
                        "keyframes" : [
                          {
                            "endTime" : 1043,
                            "time" : 1013,
                            "value" : 1.0,
                            "duration" : 30
                          },
                          {
                            "endTime" : 3666,
                            "time" : 3636,
                            "value" : 2.12275,
                            "duration" : 30
                          },
                          {
                            "endTime" : 4066,
                            "time" : 4036,
                            "value" : 1.66533333333333,
                            "duration" : 30
                          },
                          {
                            "endTime" : 4469,
                            "time" : 4439,
                            "value" : 2.66333333333333,
                            "duration" : 30
                          }
                        ]
                      },
                      "scale1" : {
                        "type" : "double",
                        "defaultValue" : 1.66533333333333,
                        "interp" : "eioe",
                        "keyframes" : [
                          {
                            "endTime" : 1043,
                            "time" : 1013,
                            "value" : 1.0,
                            "duration" : 30
                          },
                          {
                            "endTime" : 3666,
                            "time" : 3636,
                            "value" : 2.12275,
                            "duration" : 30
                          },
                          {
                            "endTime" : 4066,
                            "time" : 4036,
                            "value" : 1.66533333333333,
                            "duration" : 30
                          },
                          {
                            "endTime" : 4469,
                            "time" : 4439,
                            "value" : 2.66333333333333,
                            "duration" : 30
                          }
                        ]
                      },
                      "cursorOpacity" : {
                        "type" : "double",
                        "defaultValue" : 1.0,
                        "interp" : "linr"
                      },
                      "cursorScale" : {
                        "type" : "double",
                        "defaultValue" : 1.0,
                        "interp" : "linr"
                      }
                    },
                    "medias" : [
                        {
                          "id" : 100,
                          "_type" : "ScreenVMFile",
                          "src" : 7,
                          "trackNumber" : 0,
                          "attributes" : {
                            "ident" : "Rec 02-07-19_001"
                          },
                          "parameters" : {
                            "cursorScale" : {
                              "type" : "double",
                              "defaultValue" : 0.0,
                              "interp" : "linr"
                            },
                            "cursorOpacity" : {
                              "type" : "double",
                              "defaultValue" : 0.0,
                              "interp" : "linr"
                            }
                          },
                          "effects" : [

                          ],
                          "start" : 0,
                          "duration" : 496,
                          "mediaStart" : 0,
                          "mediaDuration" : 496,
                          "scalar" : 1,
                          "metadata" : {
                            "AutoAppliedSmartFocus" : "False",
                            "WinSubProjectDisplayName" : "",
                            "clipSpeedAttribute" : false,
                            "default-scale0" : 1.0,
                            "default-scale1" : 1.0,
                            "default-translation0" : 0.0,
                            "default-translation1" : 0.0
                          },
                          "animationTracks" : {

                          }
                        },
                        {
                          "id" : 101,
                          "_type" : "ScreenVMFile",
                          "src" : 7,
                          "trackNumber" : 0,
                          "attributes" : {
                            "ident" : "Rec 02-07-19_001"
                          },
                          "parameters" : {
                            "cursorScale" : {
                              "type" : "double",
                              "defaultValue" : 0.0,
                              "interp" : "linr"
                            },
                            "cursorOpacity" : {
                              "type" : "double",
                              "defaultValue" : 0.0,
                              "interp" : "linr"
                            }
                          },
                          "effects" : [

                          ],
                          "start" : 496,
                          "duration" : 190,
                          "mediaStart" : 715,
                          "mediaDuration" : 190,
                          "scalar" : 1,
                          "metadata" : {
                            "AutoAppliedSmartFocus" : "False",
                            "WinSubProjectDisplayName" : "",
                            "clipSpeedAttribute" : false,
                            "default-scale0" : 1.0,
                            "default-scale1" : 1.0,
                            "default-translation0" : 0.0,
                            "default-translation1" : 0.0
                          },
                          "animationTracks" : {

                          }
                        },
                        {
                          "id" : 102,
                          "_type" : "ScreenVMFile",
                          "src" : 7,
                          "trackNumber" : 0,
                          "attributes" : {
                            "ident" : "Rec 02-07-19_001"
                          },
                          "parameters" : {
                            "cursorScale" : {
                              "type" : "double",
                              "defaultValue" : 0.0,
                              "interp" : "linr"
                            },
                            "cursorOpacity" : {
                              "type" : "double",
                              "defaultValue" : 0.0,
                              "interp" : "linr"
                            }
                          },
                          "effects" : [

                          ],
                          "start" : 686,
                          "duration" : 239,
                          "mediaStart" : 1444,
                          "mediaDuration" : 239,
                          "scalar" : 1,
                          "metadata" : {
                            "AutoAppliedSmartFocus" : "False",
                            "WinSubProjectDisplayName" : "",
                            "clipSpeedAttribute" : false,
                            "default-scale0" : 1.0,
                            "default-scale1" : 1.0,
                            "default-translation0" : 0.0,
                            "default-translation1" : 0.0
                          },
                          "animationTracks" : {

                          }
                        },
                        {
                          "id" : 103,
                          "_type" : "ScreenVMFile",
                          "src" : 7,
                          "trackNumber" : 0,
                          "attributes" : {
                            "ident" : "Rec 02-07-19_001"
                          },
                          "parameters" : {
                            "cursorScale" : {
                              "type" : "double",
                              "defaultValue" : 0.0,
                              "interp" : "linr"
                            },
                            "cursorOpacity" : {
                              "type" : "double",
                              "defaultValue" : 0.0,
                              "interp" : "linr"
                            }
                          },
                          "effects" : [

                          ],
                          "start" : 925,
                          "duration" : 128,
                          "mediaStart" : 1750,
                          "mediaDuration" : 128,
                          "scalar" : 1,
                          "metadata" : {
                            "AutoAppliedSmartFocus" : "False",
                            "WinSubProjectDisplayName" : "",
                            "clipSpeedAttribute" : false,
                            "default-scale0" : 1.0,
                            "default-scale1" : 1.0,
                            "default-translation0" : 0.0,
                            "default-translation1" : 0.0
                          },
                          "animationTracks" : {

                          }
                        },
                        {
                          "id" : 104,
                          "_type" : "ScreenVMFile",
                          "src" : 7,
                          "trackNumber" : 0,
                          "attributes" : {
                            "ident" : "Rec 02-07-19_001"
                          },
                          "parameters" : {
                            "cursorScale" : {
                              "type" : "double",
                              "defaultValue" : 0.0,
                              "interp" : "linr"
                            },
                            "cursorOpacity" : {
                              "type" : "double",
                              "defaultValue" : 0.0,
                              "interp" : "linr"
                            }
                          },
                          "effects" : [

                          ],
                          "start" : 1053,
                          "duration" : 298,
                          "mediaStart" : 1939,
                          "mediaDuration" : 298,
                          "scalar" : 1,
                          "metadata" : {
                            "AutoAppliedSmartFocus" : "False",
                            "WinSubProjectDisplayName" : "",
                            "clipSpeedAttribute" : false,
                            "default-scale0" : 1.0,
                            "default-scale1" : 1.0,
                            "default-translation0" : 0.0,
                            "default-translation1" : 0.0
                          },
                          "animationTracks" : {

                          }
                        },
                        {
                          "id" : 105,
                          "_type" : "ScreenVMFile",
                          "src" : 7,
                          "trackNumber" : 0,
                          "attributes" : {
                            "ident" : "Rec 02-07-19_001"
                          },
                          "parameters" : {
                            "cursorScale" : {
                              "type" : "double",
                              "defaultValue" : 0.0,
                              "interp" : "linr"
                            },
                            "cursorOpacity" : {
                              "type" : "double",
                              "defaultValue" : 0.0,
                              "interp" : "linr"
                            }
                          },
                          "effects" : [

                          ],
                          "start" : 1351,
                          "duration" : 524,
                          "mediaStart" : 2386,
                          "mediaDuration" : 524,
                          "scalar" : 1,
                          "metadata" : {
                            "AutoAppliedSmartFocus" : "False",
                            "WinSubProjectDisplayName" : "",
                            "clipSpeedAttribute" : false,
                            "default-scale0" : 1.0,
                            "default-scale1" : 1.0,
                            "default-translation0" : 0.0,
                            "default-translation1" : 0.0
                          },
                          "animationTracks" : {

                          }
                        },
                        {
                          "id" : 106,
                          "_type" : "ScreenVMFile",
                          "src" : 7,
                          "trackNumber" : 0,
                          "attributes" : {
                            "ident" : "Rec 02-07-19_001"
                          },
                          "parameters" : {
                            "cursorScale" : {
                              "type" : "double",
                              "defaultValue" : 0.0,
                              "interp" : "linr"
                            },
                            "cursorOpacity" : {
                              "type" : "double",
                              "defaultValue" : 0.0,
                              "interp" : "linr"
                            }
                          },
                          "effects" : [

                          ],
                          "start" : 1875,
                          "duration" : 143,
                          "mediaStart" : 3086,
                          "mediaDuration" : 143,
                          "scalar" : 1,
                          "metadata" : {
                            "AutoAppliedSmartFocus" : "False",
                            "WinSubProjectDisplayName" : "",
                            "clipSpeedAttribute" : false,
                            "default-scale0" : 1.0,
                            "default-scale1" : 1.0,
                            "default-translation0" : 0.0,
                            "default-translation1" : 0.0
                          },
                          "animationTracks" : {

                          }
                        },
                        {
                          "id" : 107,
                          "_type" : "ScreenVMFile",
                          "src" : 7,
                          "trackNumber" : 0,
                          "attributes" : {
                            "ident" : "Rec 02-07-19_001"
                          },
                          "parameters" : {
                            "cursorScale" : {
                              "type" : "double",
                              "defaultValue" : 0.0,
                              "interp" : "linr"
                            },
                            "cursorOpacity" : {
                              "type" : "double",
                              "defaultValue" : 0.0,
                              "interp" : "linr"
                            }
                          },
                          "effects" : [

                          ],
                          "start" : 2018,
                          "duration" : 1362,
                          "mediaStart" : 3692,
                          "mediaDuration" : 1362,
                          "scalar" : 1,
                          "metadata" : {
                            "AutoAppliedSmartFocus" : "False",
                            "WinSubProjectDisplayName" : "",
                            "clipSpeedAttribute" : false,
                            "default-scale0" : 1.0,
                            "default-scale1" : 1.0,
                            "default-translation0" : 0.0,
                            "default-translation1" : 0.0
                          },
                          "animationTracks" : {

                          }
                        },
                        {
                          "id" : 108,
                          "_type" : "ScreenVMFile",
                          "src" : 7,
                          "trackNumber" : 0,
                          "attributes" : {
                            "ident" : "Rec 02-07-19_001"
                          },
                          "parameters" : {
                            "cursorScale" : {
                              "type" : "double",
                              "defaultValue" : 0.0,
                              "interp" : "linr"
                            },
                            "cursorOpacity" : {
                              "type" : "double",
                              "defaultValue" : 0.0,
                              "interp" : "linr"
                            }
                          },
                          "effects" : [

                          ],
                          "start" : 3380,
                          "duration" : 218,
                          "mediaStart" : 5246,
                          "mediaDuration" : 218,
                          "scalar" : 1,
                          "metadata" : {
                            "AutoAppliedSmartFocus" : "False",
                            "WinSubProjectDisplayName" : "",
                            "clipSpeedAttribute" : false,
                            "default-scale0" : 1.0,
                            "default-scale1" : 1.0,
                            "default-translation0" : 0.0,
                            "default-translation1" : 0.0
                          },
                          "animationTracks" : {

                          }
                        },
                        {
                          "id" : 109,
                          "_type" : "ScreenVMFile",
                          "src" : 7,
                          "trackNumber" : 0,
                          "attributes" : {
                            "ident" : "Rec 02-07-19_001"
                          },
                          "parameters" : {
                            "cursorScale" : {
                              "type" : "double",
                              "defaultValue" : 0.0,
                              "interp" : "linr"
                            },
                            "cursorOpacity" : {
                              "type" : "double",
                              "defaultValue" : 0.0,
                              "interp" : "linr"
                            }
                          },
                          "effects" : [

                          ],
                          "start" : 3598,
                          "duration" : 473,
                          "mediaStart" : 6154,
                          "mediaDuration" : 473,
                          "scalar" : 1,
                          "metadata" : {
                            "AutoAppliedSmartFocus" : "False",
                            "WinSubProjectDisplayName" : "",
                            "clipSpeedAttribute" : false,
                            "default-scale0" : 1.0,
                            "default-scale1" : 1.0,
                            "default-translation0" : 0.0,
                            "default-translation1" : 0.0
                          },
                          "animationTracks" : {

                          }
                        },
                        {
                          "id" : 110,
                          "_type" : "ScreenVMFile",
                          "src" : 7,
                          "trackNumber" : 0,
                          "attributes" : {
                            "ident" : "Rec 02-07-19_001"
                          },
                          "parameters" : {
                            "cursorScale" : {
                              "type" : "double",
                              "defaultValue" : 0.0,
                              "interp" : "linr"
                            },
                            "cursorOpacity" : {
                              "type" : "double",
                              "defaultValue" : 0.0,
                              "interp" : "linr"
                            }
                          },
                          "effects" : [

                          ],
                          "start" : 4071,
                          "duration" : 164,
                          "mediaStart" : 6726,
                          "mediaDuration" : 164,
                          "scalar" : 1,
                          "metadata" : {
                            "AutoAppliedSmartFocus" : "False",
                            "WinSubProjectDisplayName" : "",
                            "clipSpeedAttribute" : false,
                            "default-scale0" : 1.0,
                            "default-scale1" : 1.0,
                            "default-translation0" : 0.0,
                            "default-translation1" : 0.0
                          },
                          "animationTracks" : {

                          }
                        },
                        {
                          "id" : 111,
                          "_type" : "ScreenVMFile",
                          "src" : 7,
                          "trackNumber" : 0,
                          "attributes" : {
                            "ident" : "Rec 02-07-19_001"
                          },
                          "parameters" : {
                            "cursorScale" : {
                              "type" : "double",
                              "defaultValue" : 0.0,
                              "interp" : "linr"
                            },
                            "cursorOpacity" : {
                              "type" : "double",
                              "defaultValue" : 0.0,
                              "interp" : "linr"
                            }
                          },
                          "effects" : [

                          ],
                          "start" : 4235,
                          "duration" : 19289,
                          "mediaStart" : 7107,
                          "mediaDuration" : 19289,
                          "scalar" : 1,
                          "metadata" : {
                            "AutoAppliedSmartFocus" : "False",
                            "WinSubProjectDisplayName" : "",
                            "clipSpeedAttribute" : false,
                            "default-scale0" : 1.0,
                            "default-scale1" : 1.0,
                            "default-translation0" : 0.0,
                            "default-translation1" : 0.0
                          },
                          "animationTracks" : {

                          }
                        }
                    ],
                    "effects" : [

                    ],
                    "start" : 18709,
                    "duration" : 140,
                    "mediaStart" : 4502,
                    "mediaDuration" : 420,
                    "scalar" : "1/3",
                    "metadata" : {
                      "AutoAppliedSmartFocus" : "False",
                      "WinSubProjectDisplayName" : "",
                      "clipSpeedAttribute" : true,
                      "default-scale0" : 1.66533333333333,
                      "default-scale1" : 1.66533333333333,
                      "default-translation0" : 27.2727272727602,
                      "default-translation1" : -347.999999999825
                    },
                    "animationTracks" : {
                      "visual" : [
                        {
                          "endTime" : 1043,
                          "duration" : 30,
                          "range" : [ 1013, 30]
                        },
                        {
                          "endTime" : 1141,
                          "duration" : 30,
                          "range" : [ 1111, 30]
                        },
                        {
                          "endTime" : 2358,
                          "duration" : 30,
                          "range" : [ 2328, 30]
                        },
                        {
                          "endTime" : 2478,
                          "duration" : 30,
                          "range" : [ 2448, 30]
                        },
                        {
                          "endTime" : 3666,
                          "duration" : 30,
                          "range" : [ 3636, 30]
                        },
                        {
                          "endTime" : 4066,
                          "duration" : 30,
                          "range" : [ 4036, 30]
                        },
                        {
                          "endTime" : 4469,
                          "duration" : 30,
                          "range" : [ 4439, 30]
                        }
                      ]
                    }
                  },
                  {
                    "id" : 112,
                    "_type" : "StitchedMedia",
                    "minMediaStart" : 0,
                    "attributes" : {
                      "ident" : "Rec 02-07-19_001",
                      "gain" : 1.0,
                      "mixToMono" : false
                    },
                    "parameters" : {
                      "translation0" : {
                        "type" : "double",
                        "defaultValue" : 90.3846153842169,
                        "keyframes" : [
                          {
                            "endTime" : 1043,
                            "time" : 1013,
                            "value" : 173.076923076545,
                            "duration" : 30
                          },
                          {
                            "endTime" : 1141,
                            "time" : 1111,
                            "value" : 90.4,
                            "duration" : 30
                          },
                          {
                            "endTime" : 2358,
                            "time" : 2328,
                            "value" : 134.630769230764,
                            "duration" : 30
                          },
                          {
                            "endTime" : 2478,
                            "time" : 2448,
                            "value" : 382.70769230741,
                            "duration" : 30
                          },
                          {
                            "endTime" : 3666,
                            "time" : 3636,
                            "value" : -560.474125874959,
                            "duration" : 30
                          },
                          {
                            "endTime" : 4066,
                            "time" : 4036,
                            "value" : 27.2727272727602,
                            "duration" : 30
                          },
                          {
                            "endTime" : 4469,
                            "time" : 4439,
                            "value" : -581.8181818181,
                            "duration" : 30
                          },
                          {
                            "endTime" : 4992,
                            "time" : 4962,
                            "value" : 986.363636363861,
                            "duration" : 30
                          },
                          {
                            "endTime" : 5236,
                            "time" : 5206,
                            "value" : 342.636363636759,
                            "duration" : 30
                          }
                        ]
                      },
                      "translation1" : {
                        "type" : "double",
                        "defaultValue" : -155.999999999973,
                        "keyframes" : [
                          {
                            "endTime" : 1043,
                            "time" : 1013,
                            "value" : 101.692307692331,
                            "duration" : 30
                          },
                          {
                            "endTime" : 1141,
                            "time" : 1111,
                            "value" : -156.0,
                            "duration" : 30
                          },
                          {
                            "endTime" : 2358,
                            "time" : 2328,
                            "value" : 217.076923076909,
                            "duration" : 30
                          },
                          {
                            "endTime" : 2478,
                            "time" : 2448,
                            "value" : -59.6153846154014,
                            "duration" : 30
                          },
                          {
                            "endTime" : 3666,
                            "time" : 3636,
                            "value" : -179.81818181819,
                            "duration" : 30
                          },
                          {
                            "endTime" : 4066,
                            "time" : 4036,
                            "value" : -347.999999999825,
                            "duration" : 30
                          },
                          {
                            "endTime" : 4469,
                            "time" : 4439,
                            "value" : -372.999999999852,
                            "duration" : 30
                          },
                          {
                            "endTime" : 4992,
                            "time" : 4962,
                            "value" : -539.999999999761,
                            "duration" : 30
                          },
                          {
                            "endTime" : 5236,
                            "time" : 5206,
                            "value" : -155.999999999852,
                            "duration" : 30
                          }
                        ]
                      },
                      "scale0" : {
                        "type" : "double",
                        "defaultValue" : 1.66533333333333,
                        "keyframes" : [
                          {
                            "endTime" : 1043,
                            "time" : 1013,
                            "value" : 1.0,
                            "duration" : 30
                          },
                          {
                            "endTime" : 3666,
                            "time" : 3636,
                            "value" : 2.12275,
                            "duration" : 30
                          },
                          {
                            "endTime" : 4066,
                            "time" : 4036,
                            "value" : 1.66533333333333,
                            "duration" : 30
                          },
                          {
                            "endTime" : 4469,
                            "time" : 4439,
                            "value" : 2.66333333333333,
                            "duration" : 30
                          },
                          {
                            "endTime" : 4992,
                            "time" : 4962,
                            "value" : 2.28908333333333,
                            "duration" : 30
                          },
                          {
                            "endTime" : 5236,
                            "time" : 5206,
                            "value" : 1.79008333333333,
                            "duration" : 30
                          }
                        ]
                      },
                      "scale1" : {
                        "type" : "double",
                        "defaultValue" : 1.66533333333333,
                        "keyframes" : [
                          {
                            "endTime" : 1043,
                            "time" : 1013,
                            "value" : 1.0,
                            "duration" : 30
                          },
                          {
                            "endTime" : 3666,
                            "time" : 3636,
                            "value" : 2.12275,
                            "duration" : 30
                          },
                          {
                            "endTime" : 4066,
                            "time" : 4036,
                            "value" : 1.66533333333333,
                            "duration" : 30
                          },
                          {
                            "endTime" : 4469,
                            "time" : 4439,
                            "value" : 2.66333333333333,
                            "duration" : 30
                          },
                          {
                            "endTime" : 4992,
                            "time" : 4962,
                            "value" : 2.28908333333333,
                            "duration" : 30
                          },
                          {
                            "endTime" : 5236,
                            "time" : 5206,
                            "value" : 1.79008333333333,
                            "duration" : 30
                          }
                        ]
                      },
                      "cursorOpacity" : 1.0,
                      "cursorScale" : 1.0
                    },
                    "medias" : [
                        {
                          "id" : 113,
                          "_type" : "ScreenVMFile",
                          "src" : 7,
                          "trackNumber" : 0,
                          "attributes" : {
                            "ident" : "Rec 02-07-19_001"
                          },
                          "parameters" : {
                            "cursorScale" : {
                              "type" : "double",
                              "defaultValue" : 0.0,
                              "interp" : "linr"
                            },
                            "cursorOpacity" : {
                              "type" : "double",
                              "defaultValue" : 0.0,
                              "interp" : "linr"
                            }
                          },
                          "effects" : [

                          ],
                          "start" : 0,
                          "duration" : 496,
                          "mediaStart" : 0,
                          "mediaDuration" : 496,
                          "scalar" : 1,
                          "metadata" : {
                            "AutoAppliedSmartFocus" : "False",
                            "WinSubProjectDisplayName" : "",
                            "clipSpeedAttribute" : false,
                            "default-scale0" : 1.0,
                            "default-scale1" : 1.0,
                            "default-translation0" : 0.0,
                            "default-translation1" : 0.0
                          },
                          "animationTracks" : {

                          }
                        },
                        {
                          "id" : 114,
                          "_type" : "ScreenVMFile",
                          "src" : 7,
                          "trackNumber" : 0,
                          "attributes" : {
                            "ident" : "Rec 02-07-19_001"
                          },
                          "parameters" : {
                            "cursorScale" : {
                              "type" : "double",
                              "defaultValue" : 0.0,
                              "interp" : "linr"
                            },
                            "cursorOpacity" : {
                              "type" : "double",
                              "defaultValue" : 0.0,
                              "interp" : "linr"
                            }
                          },
                          "effects" : [

                          ],
                          "start" : 496,
                          "duration" : 190,
                          "mediaStart" : 715,
                          "mediaDuration" : 190,
                          "scalar" : 1,
                          "metadata" : {
                            "AutoAppliedSmartFocus" : "False",
                            "WinSubProjectDisplayName" : "",
                            "clipSpeedAttribute" : false,
                            "default-scale0" : 1.0,
                            "default-scale1" : 1.0,
                            "default-translation0" : 0.0,
                            "default-translation1" : 0.0
                          },
                          "animationTracks" : {

                          }
                        },
                        {
                          "id" : 115,
                          "_type" : "ScreenVMFile",
                          "src" : 7,
                          "trackNumber" : 0,
                          "attributes" : {
                            "ident" : "Rec 02-07-19_001"
                          },
                          "parameters" : {
                            "cursorScale" : {
                              "type" : "double",
                              "defaultValue" : 0.0,
                              "interp" : "linr"
                            },
                            "cursorOpacity" : {
                              "type" : "double",
                              "defaultValue" : 0.0,
                              "interp" : "linr"
                            }
                          },
                          "effects" : [

                          ],
                          "start" : 686,
                          "duration" : 239,
                          "mediaStart" : 1444,
                          "mediaDuration" : 239,
                          "scalar" : 1,
                          "metadata" : {
                            "AutoAppliedSmartFocus" : "False",
                            "WinSubProjectDisplayName" : "",
                            "clipSpeedAttribute" : false,
                            "default-scale0" : 1.0,
                            "default-scale1" : 1.0,
                            "default-translation0" : 0.0,
                            "default-translation1" : 0.0
                          },
                          "animationTracks" : {

                          }
                        },
                        {
                          "id" : 116,
                          "_type" : "ScreenVMFile",
                          "src" : 7,
                          "trackNumber" : 0,
                          "attributes" : {
                            "ident" : "Rec 02-07-19_001"
                          },
                          "parameters" : {
                            "cursorScale" : {
                              "type" : "double",
                              "defaultValue" : 0.0,
                              "interp" : "linr"
                            },
                            "cursorOpacity" : {
                              "type" : "double",
                              "defaultValue" : 0.0,
                              "interp" : "linr"
                            }
                          },
                          "effects" : [

                          ],
                          "start" : 925,
                          "duration" : 128,
                          "mediaStart" : 1750,
                          "mediaDuration" : 128,
                          "scalar" : 1,
                          "metadata" : {
                            "AutoAppliedSmartFocus" : "False",
                            "WinSubProjectDisplayName" : "",
                            "clipSpeedAttribute" : false,
                            "default-scale0" : 1.0,
                            "default-scale1" : 1.0,
                            "default-translation0" : 0.0,
                            "default-translation1" : 0.0
                          },
                          "animationTracks" : {

                          }
                        },
                        {
                          "id" : 117,
                          "_type" : "ScreenVMFile",
                          "src" : 7,
                          "trackNumber" : 0,
                          "attributes" : {
                            "ident" : "Rec 02-07-19_001"
                          },
                          "parameters" : {
                            "cursorScale" : {
                              "type" : "double",
                              "defaultValue" : 0.0,
                              "interp" : "linr"
                            },
                            "cursorOpacity" : {
                              "type" : "double",
                              "defaultValue" : 0.0,
                              "interp" : "linr"
                            }
                          },
                          "effects" : [

                          ],
                          "start" : 1053,
                          "duration" : 298,
                          "mediaStart" : 1939,
                          "mediaDuration" : 298,
                          "scalar" : 1,
                          "metadata" : {
                            "AutoAppliedSmartFocus" : "False",
                            "WinSubProjectDisplayName" : "",
                            "clipSpeedAttribute" : false,
                            "default-scale0" : 1.0,
                            "default-scale1" : 1.0,
                            "default-translation0" : 0.0,
                            "default-translation1" : 0.0
                          },
                          "animationTracks" : {

                          }
                        },
                        {
                          "id" : 118,
                          "_type" : "ScreenVMFile",
                          "src" : 7,
                          "trackNumber" : 0,
                          "attributes" : {
                            "ident" : "Rec 02-07-19_001"
                          },
                          "parameters" : {
                            "cursorScale" : {
                              "type" : "double",
                              "defaultValue" : 0.0,
                              "interp" : "linr"
                            },
                            "cursorOpacity" : {
                              "type" : "double",
                              "defaultValue" : 0.0,
                              "interp" : "linr"
                            }
                          },
                          "effects" : [

                          ],
                          "start" : 1351,
                          "duration" : 524,
                          "mediaStart" : 2386,
                          "mediaDuration" : 524,
                          "scalar" : 1,
                          "metadata" : {
                            "AutoAppliedSmartFocus" : "False",
                            "WinSubProjectDisplayName" : "",
                            "clipSpeedAttribute" : false,
                            "default-scale0" : 1.0,
                            "default-scale1" : 1.0,
                            "default-translation0" : 0.0,
                            "default-translation1" : 0.0
                          },
                          "animationTracks" : {

                          }
                        },
                        {
                          "id" : 119,
                          "_type" : "ScreenVMFile",
                          "src" : 7,
                          "trackNumber" : 0,
                          "attributes" : {
                            "ident" : "Rec 02-07-19_001"
                          },
                          "parameters" : {
                            "cursorScale" : {
                              "type" : "double",
                              "defaultValue" : 0.0,
                              "interp" : "linr"
                            },
                            "cursorOpacity" : {
                              "type" : "double",
                              "defaultValue" : 0.0,
                              "interp" : "linr"
                            }
                          },
                          "effects" : [

                          ],
                          "start" : 1875,
                          "duration" : 143,
                          "mediaStart" : 3086,
                          "mediaDuration" : 143,
                          "scalar" : 1,
                          "metadata" : {
                            "AutoAppliedSmartFocus" : "False",
                            "WinSubProjectDisplayName" : "",
                            "clipSpeedAttribute" : false,
                            "default-scale0" : 1.0,
                            "default-scale1" : 1.0,
                            "default-translation0" : 0.0,
                            "default-translation1" : 0.0
                          },
                          "animationTracks" : {

                          }
                        },
                        {
                          "id" : 120,
                          "_type" : "ScreenVMFile",
                          "src" : 7,
                          "trackNumber" : 0,
                          "attributes" : {
                            "ident" : "Rec 02-07-19_001"
                          },
                          "parameters" : {
                            "cursorScale" : {
                              "type" : "double",
                              "defaultValue" : 0.0,
                              "interp" : "linr"
                            },
                            "cursorOpacity" : {
                              "type" : "double",
                              "defaultValue" : 0.0,
                              "interp" : "linr"
                            }
                          },
                          "effects" : [

                          ],
                          "start" : 2018,
                          "duration" : 1362,
                          "mediaStart" : 3692,
                          "mediaDuration" : 1362,
                          "scalar" : 1,
                          "metadata" : {
                            "AutoAppliedSmartFocus" : "False",
                            "WinSubProjectDisplayName" : "",
                            "clipSpeedAttribute" : false,
                            "default-scale0" : 1.0,
                            "default-scale1" : 1.0,
                            "default-translation0" : 0.0,
                            "default-translation1" : 0.0
                          },
                          "animationTracks" : {

                          }
                        },
                        {
                          "id" : 121,
                          "_type" : "ScreenVMFile",
                          "src" : 7,
                          "trackNumber" : 0,
                          "attributes" : {
                            "ident" : "Rec 02-07-19_001"
                          },
                          "parameters" : {
                            "cursorScale" : {
                              "type" : "double",
                              "defaultValue" : 0.0,
                              "interp" : "linr"
                            },
                            "cursorOpacity" : {
                              "type" : "double",
                              "defaultValue" : 0.0,
                              "interp" : "linr"
                            }
                          },
                          "effects" : [

                          ],
                          "start" : 3380,
                          "duration" : 218,
                          "mediaStart" : 5246,
                          "mediaDuration" : 218,
                          "scalar" : 1,
                          "metadata" : {
                            "AutoAppliedSmartFocus" : "False",
                            "WinSubProjectDisplayName" : "",
                            "clipSpeedAttribute" : false,
                            "default-scale0" : 1.0,
                            "default-scale1" : 1.0,
                            "default-translation0" : 0.0,
                            "default-translation1" : 0.0
                          },
                          "animationTracks" : {

                          }
                        },
                        {
                          "id" : 122,
                          "_type" : "ScreenVMFile",
                          "src" : 7,
                          "trackNumber" : 0,
                          "attributes" : {
                            "ident" : "Rec 02-07-19_001"
                          },
                          "parameters" : {
                            "cursorScale" : {
                              "type" : "double",
                              "defaultValue" : 0.0,
                              "interp" : "linr"
                            },
                            "cursorOpacity" : {
                              "type" : "double",
                              "defaultValue" : 0.0,
                              "interp" : "linr"
                            }
                          },
                          "effects" : [

                          ],
                          "start" : 3598,
                          "duration" : 473,
                          "mediaStart" : 6154,
                          "mediaDuration" : 473,
                          "scalar" : 1,
                          "metadata" : {
                            "AutoAppliedSmartFocus" : "False",
                            "WinSubProjectDisplayName" : "",
                            "clipSpeedAttribute" : false,
                            "default-scale0" : 1.0,
                            "default-scale1" : 1.0,
                            "default-translation0" : 0.0,
                            "default-translation1" : 0.0
                          },
                          "animationTracks" : {

                          }
                        },
                        {
                          "id" : 123,
                          "_type" : "ScreenVMFile",
                          "src" : 7,
                          "trackNumber" : 0,
                          "attributes" : {
                            "ident" : "Rec 02-07-19_001"
                          },
                          "parameters" : {
                            "cursorScale" : {
                              "type" : "double",
                              "defaultValue" : 0.0,
                              "interp" : "linr"
                            },
                            "cursorOpacity" : {
                              "type" : "double",
                              "defaultValue" : 0.0,
                              "interp" : "linr"
                            }
                          },
                          "effects" : [

                          ],
                          "start" : 4071,
                          "duration" : 164,
                          "mediaStart" : 6726,
                          "mediaDuration" : 164,
                          "scalar" : 1,
                          "metadata" : {
                            "AutoAppliedSmartFocus" : "False",
                            "WinSubProjectDisplayName" : "",
                            "clipSpeedAttribute" : false,
                            "default-scale0" : 1.0,
                            "default-scale1" : 1.0,
                            "default-translation0" : 0.0,
                            "default-translation1" : 0.0
                          },
                          "animationTracks" : {

                          }
                        },
                        {
                          "id" : 124,
                          "_type" : "ScreenVMFile",
                          "src" : 7,
                          "trackNumber" : 0,
                          "attributes" : {
                            "ident" : "Rec 02-07-19_001"
                          },
                          "parameters" : {
                            "cursorScale" : {
                              "type" : "double",
                              "defaultValue" : 0.0,
                              "interp" : "linr"
                            },
                            "cursorOpacity" : {
                              "type" : "double",
                              "defaultValue" : 0.0,
                              "interp" : "linr"
                            }
                          },
                          "effects" : [

                          ],
                          "start" : 4235,
                          "duration" : 1279,
                          "mediaStart" : 7107,
                          "mediaDuration" : 1279,
                          "scalar" : 1,
                          "metadata" : {
                            "AutoAppliedSmartFocus" : "False",
                            "WinSubProjectDisplayName" : "",
                            "clipSpeedAttribute" : false,
                            "default-scale0" : 1.0,
                            "default-scale1" : 1.0,
                            "default-translation0" : 0.0,
                            "default-translation1" : 0.0
                          },
                          "animationTracks" : {

                          }
                        },
                        {
                          "id" : 125,
                          "_type" : "ScreenVMFile",
                          "src" : 7,
                          "trackNumber" : 0,
                          "attributes" : {
                            "ident" : "Rec 02-07-19_001"
                          },
                          "parameters" : {
                            "cursorScale" : {
                              "type" : "double",
                              "defaultValue" : 0.0,
                              "interp" : "linr"
                            },
                            "cursorOpacity" : {
                              "type" : "double",
                              "defaultValue" : 0.0,
                              "interp" : "linr"
                            }
                          },
                          "effects" : [

                          ],
                          "start" : 5514,
                          "duration" : 17878,
                          "mediaStart" : 8518,
                          "mediaDuration" : 17878,
                          "scalar" : 1,
                          "metadata" : {
                            "AutoAppliedSmartFocus" : "False",
                            "WinSubProjectDisplayName" : "",
                            "clipSpeedAttribute" : false,
                            "default-scale0" : 1.0,
                            "default-scale1" : 1.0,
                            "default-translation0" : 0.0,
                            "default-translation1" : 0.0
                          },
                          "animationTracks" : {

                          }
                        }
                    ],
                    "effects" : [

                    ],
                    "start" : 18849,
                    "duration" : 314,
                    "mediaStart" : 4922,
                    "mediaDuration" : 314,
                    "scalar" : 1,
                    "metadata" : {
                      "AutoAppliedSmartFocus" : "False",
                      "WinSubProjectDisplayName" : "",
                      "clipSpeedAttribute" : false,
                      "default-scale0" : 2.28908333333333,
                      "default-scale1" : 2.28908333333333,
                      "default-translation0" : 986.363636363861,
                      "default-translation1" : -539.999999999761
                    },
                    "animationTracks" : {
                      "visual" : [
                        {
                          "endTime" : 1043,
                          "duration" : 30,
                          "range" : [ 1013, 30]
                        },
                        {
                          "endTime" : 1141,
                          "duration" : 30,
                          "range" : [ 1111, 30]
                        },
                        {
                          "endTime" : 2358,
                          "duration" : 30,
                          "range" : [ 2328, 30]
                        },
                        {
                          "endTime" : 2478,
                          "duration" : 30,
                          "range" : [ 2448, 30]
                        },
                        {
                          "endTime" : 3666,
                          "duration" : 30,
                          "range" : [ 3636, 30]
                        },
                        {
                          "endTime" : 4066,
                          "duration" : 30,
                          "range" : [ 4036, 30]
                        },
                        {
                          "endTime" : 4469,
                          "duration" : 30,
                          "range" : [ 4439, 30]
                        },
                        {
                          "endTime" : 4992,
                          "duration" : 30,
                          "range" : [ 4962, 30]
                        },
                        {
                          "endTime" : 5236,
                          "duration" : 30,
                          "range" : [ 5206, 30]
                        }
                      ]
                    }
                  },
                  {
                    "id" : 126,
                    "_type" : "StitchedMedia",
                    "minMediaStart" : 0,
                    "attributes" : {
                      "ident" : "Rec 02-07-19_001",
                      "gain" : 1.0,
                      "mixToMono" : false
                    },
                    "parameters" : {
                      "translation0" : {
                        "type" : "double",
                        "defaultValue" : 90.3846153842169,
                        "interp" : "eioe",
                        "keyframes" : [
                          {
                            "endTime" : 1043,
                            "time" : 1013,
                            "value" : 173.076923076545,
                            "duration" : 30
                          },
                          {
                            "endTime" : 1141,
                            "time" : 1111,
                            "value" : 90.4,
                            "duration" : 30
                          },
                          {
                            "endTime" : 2358,
                            "time" : 2328,
                            "value" : 134.630769230764,
                            "duration" : 30
                          },
                          {
                            "endTime" : 2478,
                            "time" : 2448,
                            "value" : 382.70769230741,
                            "duration" : 30
                          },
                          {
                            "endTime" : 3666,
                            "time" : 3636,
                            "value" : -560.474125874959,
                            "duration" : 30
                          },
                          {
                            "endTime" : 4066,
                            "time" : 4036,
                            "value" : 27.2727272727602,
                            "duration" : 30
                          },
                          {
                            "endTime" : 4469,
                            "time" : 4439,
                            "value" : -581.8181818181,
                            "duration" : 30
                          },
                          {
                            "endTime" : 4992,
                            "time" : 4962,
                            "value" : 986.363636363861,
                            "duration" : 30
                          },
                          {
                            "endTime" : 5236,
                            "time" : 5206,
                            "value" : 49.4545454549895,
                            "duration" : 30
                          }
                        ]
                      },
                      "translation1" : {
                        "type" : "double",
                        "defaultValue" : -155.999999999973,
                        "interp" : "eioe",
                        "keyframes" : [
                          {
                            "endTime" : 1043,
                            "time" : 1013,
                            "value" : 101.692307692331,
                            "duration" : 30
                          },
                          {
                            "endTime" : 1141,
                            "time" : 1111,
                            "value" : -156.0,
                            "duration" : 30
                          },
                          {
                            "endTime" : 2358,
                            "time" : 2328,
                            "value" : 217.076923076909,
                            "duration" : 30
                          },
                          {
                            "endTime" : 2478,
                            "time" : 2448,
                            "value" : -59.6153846154014,
                            "duration" : 30
                          },
                          {
                            "endTime" : 3666,
                            "time" : 3636,
                            "value" : -179.81818181819,
                            "duration" : 30
                          },
                          {
                            "endTime" : 4066,
                            "time" : 4036,
                            "value" : -347.999999999825,
                            "duration" : 30
                          },
                          {
                            "endTime" : 4469,
                            "time" : 4439,
                            "value" : -372.999999999852,
                            "duration" : 30
                          },
                          {
                            "endTime" : 4992,
                            "time" : 4962,
                            "value" : -539.999999999761,
                            "duration" : 30
                          },
                          {
                            "endTime" : 5236,
                            "time" : 5206,
                            "value" : 62.1818181819394,
                            "duration" : 30
                          }
                        ]
                      },
                      "scale0" : {
                        "type" : "double",
                        "defaultValue" : 1.66533333333333,
                        "interp" : "eioe",
                        "keyframes" : [
                          {
                            "endTime" : 1043,
                            "time" : 1013,
                            "value" : 1.0,
                            "duration" : 30
                          },
                          {
                            "endTime" : 3666,
                            "time" : 3636,
                            "value" : 2.12275,
                            "duration" : 30
                          },
                          {
                            "endTime" : 4066,
                            "time" : 4036,
                            "value" : 1.66533333333333,
                            "duration" : 30
                          },
                          {
                            "endTime" : 4469,
                            "time" : 4439,
                            "value" : 2.66333333333333,
                            "duration" : 30
                          },
                          {
                            "endTime" : 4992,
                            "time" : 4962,
                            "value" : 2.28908333333333,
                            "duration" : 30
                          },
                          {
                            "endTime" : 5236,
                            "time" : 5206,
                            "value" : 1.2495,
                            "duration" : 30
                          }
                        ]
                      },
                      "scale1" : {
                        "type" : "double",
                        "defaultValue" : 1.66533333333333,
                        "interp" : "eioe",
                        "keyframes" : [
                          {
                            "endTime" : 1043,
                            "time" : 1013,
                            "value" : 1.0,
                            "duration" : 30
                          },
                          {
                            "endTime" : 3666,
                            "time" : 3636,
                            "value" : 2.12275,
                            "duration" : 30
                          },
                          {
                            "endTime" : 4066,
                            "time" : 4036,
                            "value" : 1.66533333333333,
                            "duration" : 30
                          },
                          {
                            "endTime" : 4469,
                            "time" : 4439,
                            "value" : 2.66333333333333,
                            "duration" : 30
                          },
                          {
                            "endTime" : 4992,
                            "time" : 4962,
                            "value" : 2.28908333333333,
                            "duration" : 30
                          },
                          {
                            "endTime" : 5236,
                            "time" : 5206,
                            "value" : 1.2495,
                            "duration" : 30
                          }
                        ]
                      },
                      "cursorOpacity" : {
                        "type" : "double",
                        "defaultValue" : 1.0,
                        "interp" : "linr"
                      },
                      "cursorScale" : {
                        "type" : "double",
                        "defaultValue" : 1.0,
                        "interp" : "linr"
                      }
                    },
                    "medias" : [
                        {
                          "id" : 127,
                          "_type" : "ScreenVMFile",
                          "src" : 7,
                          "trackNumber" : 0,
                          "attributes" : {
                            "ident" : "Rec 02-07-19_001"
                          },
                          "parameters" : {
                            "cursorScale" : {
                              "type" : "double",
                              "defaultValue" : 0.0,
                              "interp" : "linr"
                            },
                            "cursorOpacity" : {
                              "type" : "double",
                              "defaultValue" : 0.0,
                              "interp" : "linr"
                            }
                          },
                          "effects" : [

                          ],
                          "start" : 0,
                          "duration" : 496,
                          "mediaStart" : 0,
                          "mediaDuration" : 496,
                          "scalar" : 1,
                          "metadata" : {
                            "AutoAppliedSmartFocus" : "False",
                            "WinSubProjectDisplayName" : "",
                            "clipSpeedAttribute" : false,
                            "default-scale0" : 1.0,
                            "default-scale1" : 1.0,
                            "default-translation0" : 0.0,
                            "default-translation1" : 0.0
                          },
                          "animationTracks" : {

                          }
                        },
                        {
                          "id" : 128,
                          "_type" : "ScreenVMFile",
                          "src" : 7,
                          "trackNumber" : 0,
                          "attributes" : {
                            "ident" : "Rec 02-07-19_001"
                          },
                          "parameters" : {
                            "cursorScale" : {
                              "type" : "double",
                              "defaultValue" : 0.0,
                              "interp" : "linr"
                            },
                            "cursorOpacity" : {
                              "type" : "double",
                              "defaultValue" : 0.0,
                              "interp" : "linr"
                            }
                          },
                          "effects" : [

                          ],
                          "start" : 496,
                          "duration" : 190,
                          "mediaStart" : 715,
                          "mediaDuration" : 190,
                          "scalar" : 1,
                          "metadata" : {
                            "AutoAppliedSmartFocus" : "False",
                            "WinSubProjectDisplayName" : "",
                            "clipSpeedAttribute" : false,
                            "default-scale0" : 1.0,
                            "default-scale1" : 1.0,
                            "default-translation0" : 0.0,
                            "default-translation1" : 0.0
                          },
                          "animationTracks" : {

                          }
                        },
                        {
                          "id" : 129,
                          "_type" : "ScreenVMFile",
                          "src" : 7,
                          "trackNumber" : 0,
                          "attributes" : {
                            "ident" : "Rec 02-07-19_001"
                          },
                          "parameters" : {
                            "cursorScale" : {
                              "type" : "double",
                              "defaultValue" : 0.0,
                              "interp" : "linr"
                            },
                            "cursorOpacity" : {
                              "type" : "double",
                              "defaultValue" : 0.0,
                              "interp" : "linr"
                            }
                          },
                          "effects" : [

                          ],
                          "start" : 686,
                          "duration" : 239,
                          "mediaStart" : 1444,
                          "mediaDuration" : 239,
                          "scalar" : 1,
                          "metadata" : {
                            "AutoAppliedSmartFocus" : "False",
                            "WinSubProjectDisplayName" : "",
                            "clipSpeedAttribute" : false,
                            "default-scale0" : 1.0,
                            "default-scale1" : 1.0,
                            "default-translation0" : 0.0,
                            "default-translation1" : 0.0
                          },
                          "animationTracks" : {

                          }
                        },
                        {
                          "id" : 130,
                          "_type" : "ScreenVMFile",
                          "src" : 7,
                          "trackNumber" : 0,
                          "attributes" : {
                            "ident" : "Rec 02-07-19_001"
                          },
                          "parameters" : {
                            "cursorScale" : {
                              "type" : "double",
                              "defaultValue" : 0.0,
                              "interp" : "linr"
                            },
                            "cursorOpacity" : {
                              "type" : "double",
                              "defaultValue" : 0.0,
                              "interp" : "linr"
                            }
                          },
                          "effects" : [

                          ],
                          "start" : 925,
                          "duration" : 128,
                          "mediaStart" : 1750,
                          "mediaDuration" : 128,
                          "scalar" : 1,
                          "metadata" : {
                            "AutoAppliedSmartFocus" : "False",
                            "WinSubProjectDisplayName" : "",
                            "clipSpeedAttribute" : false,
                            "default-scale0" : 1.0,
                            "default-scale1" : 1.0,
                            "default-translation0" : 0.0,
                            "default-translation1" : 0.0
                          },
                          "animationTracks" : {

                          }
                        },
                        {
                          "id" : 131,
                          "_type" : "ScreenVMFile",
                          "src" : 7,
                          "trackNumber" : 0,
                          "attributes" : {
                            "ident" : "Rec 02-07-19_001"
                          },
                          "parameters" : {
                            "cursorScale" : {
                              "type" : "double",
                              "defaultValue" : 0.0,
                              "interp" : "linr"
                            },
                            "cursorOpacity" : {
                              "type" : "double",
                              "defaultValue" : 0.0,
                              "interp" : "linr"
                            }
                          },
                          "effects" : [

                          ],
                          "start" : 1053,
                          "duration" : 298,
                          "mediaStart" : 1939,
                          "mediaDuration" : 298,
                          "scalar" : 1,
                          "metadata" : {
                            "AutoAppliedSmartFocus" : "False",
                            "WinSubProjectDisplayName" : "",
                            "clipSpeedAttribute" : false,
                            "default-scale0" : 1.0,
                            "default-scale1" : 1.0,
                            "default-translation0" : 0.0,
                            "default-translation1" : 0.0
                          },
                          "animationTracks" : {

                          }
                        },
                        {
                          "id" : 132,
                          "_type" : "ScreenVMFile",
                          "src" : 7,
                          "trackNumber" : 0,
                          "attributes" : {
                            "ident" : "Rec 02-07-19_001"
                          },
                          "parameters" : {
                            "cursorScale" : {
                              "type" : "double",
                              "defaultValue" : 0.0,
                              "interp" : "linr"
                            },
                            "cursorOpacity" : {
                              "type" : "double",
                              "defaultValue" : 0.0,
                              "interp" : "linr"
                            }
                          },
                          "effects" : [

                          ],
                          "start" : 1351,
                          "duration" : 524,
                          "mediaStart" : 2386,
                          "mediaDuration" : 524,
                          "scalar" : 1,
                          "metadata" : {
                            "AutoAppliedSmartFocus" : "False",
                            "WinSubProjectDisplayName" : "",
                            "clipSpeedAttribute" : false,
                            "default-scale0" : 1.0,
                            "default-scale1" : 1.0,
                            "default-translation0" : 0.0,
                            "default-translation1" : 0.0
                          },
                          "animationTracks" : {

                          }
                        },
                        {
                          "id" : 133,
                          "_type" : "ScreenVMFile",
                          "src" : 7,
                          "trackNumber" : 0,
                          "attributes" : {
                            "ident" : "Rec 02-07-19_001"
                          },
                          "parameters" : {
                            "cursorScale" : {
                              "type" : "double",
                              "defaultValue" : 0.0,
                              "interp" : "linr"
                            },
                            "cursorOpacity" : {
                              "type" : "double",
                              "defaultValue" : 0.0,
                              "interp" : "linr"
                            }
                          },
                          "effects" : [

                          ],
                          "start" : 1875,
                          "duration" : 143,
                          "mediaStart" : 3086,
                          "mediaDuration" : 143,
                          "scalar" : 1,
                          "metadata" : {
                            "AutoAppliedSmartFocus" : "False",
                            "WinSubProjectDisplayName" : "",
                            "clipSpeedAttribute" : false,
                            "default-scale0" : 1.0,
                            "default-scale1" : 1.0,
                            "default-translation0" : 0.0,
                            "default-translation1" : 0.0
                          },
                          "animationTracks" : {

                          }
                        },
                        {
                          "id" : 134,
                          "_type" : "ScreenVMFile",
                          "src" : 7,
                          "trackNumber" : 0,
                          "attributes" : {
                            "ident" : "Rec 02-07-19_001"
                          },
                          "parameters" : {
                            "cursorScale" : {
                              "type" : "double",
                              "defaultValue" : 0.0,
                              "interp" : "linr"
                            },
                            "cursorOpacity" : {
                              "type" : "double",
                              "defaultValue" : 0.0,
                              "interp" : "linr"
                            }
                          },
                          "effects" : [

                          ],
                          "start" : 2018,
                          "duration" : 1362,
                          "mediaStart" : 3692,
                          "mediaDuration" : 1362,
                          "scalar" : 1,
                          "metadata" : {
                            "AutoAppliedSmartFocus" : "False",
                            "WinSubProjectDisplayName" : "",
                            "clipSpeedAttribute" : false,
                            "default-scale0" : 1.0,
                            "default-scale1" : 1.0,
                            "default-translation0" : 0.0,
                            "default-translation1" : 0.0
                          },
                          "animationTracks" : {

                          }
                        },
                        {
                          "id" : 135,
                          "_type" : "ScreenVMFile",
                          "src" : 7,
                          "trackNumber" : 0,
                          "attributes" : {
                            "ident" : "Rec 02-07-19_001"
                          },
                          "parameters" : {
                            "cursorScale" : {
                              "type" : "double",
                              "defaultValue" : 0.0,
                              "interp" : "linr"
                            },
                            "cursorOpacity" : {
                              "type" : "double",
                              "defaultValue" : 0.0,
                              "interp" : "linr"
                            }
                          },
                          "effects" : [

                          ],
                          "start" : 3380,
                          "duration" : 218,
                          "mediaStart" : 5246,
                          "mediaDuration" : 218,
                          "scalar" : 1,
                          "metadata" : {
                            "AutoAppliedSmartFocus" : "False",
                            "WinSubProjectDisplayName" : "",
                            "clipSpeedAttribute" : false,
                            "default-scale0" : 1.0,
                            "default-scale1" : 1.0,
                            "default-translation0" : 0.0,
                            "default-translation1" : 0.0
                          },
                          "animationTracks" : {

                          }
                        },
                        {
                          "id" : 136,
                          "_type" : "ScreenVMFile",
                          "src" : 7,
                          "trackNumber" : 0,
                          "attributes" : {
                            "ident" : "Rec 02-07-19_001"
                          },
                          "parameters" : {
                            "cursorScale" : {
                              "type" : "double",
                              "defaultValue" : 0.0,
                              "interp" : "linr"
                            },
                            "cursorOpacity" : {
                              "type" : "double",
                              "defaultValue" : 0.0,
                              "interp" : "linr"
                            }
                          },
                          "effects" : [

                          ],
                          "start" : 3598,
                          "duration" : 473,
                          "mediaStart" : 6154,
                          "mediaDuration" : 473,
                          "scalar" : 1,
                          "metadata" : {
                            "AutoAppliedSmartFocus" : "False",
                            "WinSubProjectDisplayName" : "",
                            "clipSpeedAttribute" : false,
                            "default-scale0" : 1.0,
                            "default-scale1" : 1.0,
                            "default-translation0" : 0.0,
                            "default-translation1" : 0.0
                          },
                          "animationTracks" : {

                          }
                        },
                        {
                          "id" : 137,
                          "_type" : "ScreenVMFile",
                          "src" : 7,
                          "trackNumber" : 0,
                          "attributes" : {
                            "ident" : "Rec 02-07-19_001"
                          },
                          "parameters" : {
                            "cursorScale" : {
                              "type" : "double",
                              "defaultValue" : 0.0,
                              "interp" : "linr"
                            },
                            "cursorOpacity" : {
                              "type" : "double",
                              "defaultValue" : 0.0,
                              "interp" : "linr"
                            }
                          },
                          "effects" : [

                          ],
                          "start" : 4071,
                          "duration" : 164,
                          "mediaStart" : 6726,
                          "mediaDuration" : 164,
                          "scalar" : 1,
                          "metadata" : {
                            "AutoAppliedSmartFocus" : "False",
                            "WinSubProjectDisplayName" : "",
                            "clipSpeedAttribute" : false,
                            "default-scale0" : 1.0,
                            "default-scale1" : 1.0,
                            "default-translation0" : 0.0,
                            "default-translation1" : 0.0
                          },
                          "animationTracks" : {

                          }
                        },
                        {
                          "id" : 138,
                          "_type" : "ScreenVMFile",
                          "src" : 7,
                          "trackNumber" : 0,
                          "attributes" : {
                            "ident" : "Rec 02-07-19_001"
                          },
                          "parameters" : {
                            "cursorScale" : {
                              "type" : "double",
                              "defaultValue" : 0.0,
                              "interp" : "linr"
                            },
                            "cursorOpacity" : {
                              "type" : "double",
                              "defaultValue" : 0.0,
                              "interp" : "linr"
                            }
                          },
                          "effects" : [

                          ],
                          "start" : 4235,
                          "duration" : 1279,
                          "mediaStart" : 7107,
                          "mediaDuration" : 1279,
                          "scalar" : 1,
                          "metadata" : {
                            "AutoAppliedSmartFocus" : "False",
                            "WinSubProjectDisplayName" : "",
                            "clipSpeedAttribute" : false,
                            "default-scale0" : 1.0,
                            "default-scale1" : 1.0,
                            "default-translation0" : 0.0,
                            "default-translation1" : 0.0
                          },
                          "animationTracks" : {

                          }
                        },
                        {
                          "id" : 139,
                          "_type" : "ScreenVMFile",
                          "src" : 7,
                          "trackNumber" : 0,
                          "attributes" : {
                            "ident" : "Rec 02-07-19_001"
                          },
                          "parameters" : {
                            "cursorScale" : {
                              "type" : "double",
                              "defaultValue" : 0.0,
                              "interp" : "linr"
                            },
                            "cursorOpacity" : {
                              "type" : "double",
                              "defaultValue" : 0.0,
                              "interp" : "linr"
                            }
                          },
                          "effects" : [

                          ],
                          "start" : 5514,
                          "duration" : 17878,
                          "mediaStart" : 8518,
                          "mediaDuration" : 17878,
                          "scalar" : 1,
                          "metadata" : {
                            "AutoAppliedSmartFocus" : "False",
                            "WinSubProjectDisplayName" : "",
                            "clipSpeedAttribute" : false,
                            "default-scale0" : 1.0,
                            "default-scale1" : 1.0,
                            "default-translation0" : 0.0,
                            "default-translation1" : 0.0
                          },
                          "animationTracks" : {

                          }
                        }
                    ],
                    "effects" : [

                    ],
                    "start" : 19163,
                    "duration" : 85,
                    "mediaStart" : 5236,
                    "mediaDuration" : 169,
                    "scalar" : "85/169",
                    "metadata" : {
                      "AutoAppliedSmartFocus" : "False",
                      "WinSubProjectDisplayName" : "",
                      "clipSpeedAttribute" : true,
                      "default-scale0" : 2.28908333333333,
                      "default-scale1" : 2.28908333333333,
                      "default-translation0" : 986.363636363861,
                      "default-translation1" : -539.999999999761
                    },
                    "animationTracks" : {
                      "visual" : [
                        {
                          "endTime" : 1043,
                          "duration" : 30,
                          "range" : [ 1013, 30]
                        },
                        {
                          "endTime" : 1141,
                          "duration" : 30,
                          "range" : [ 1111, 30]
                        },
                        {
                          "endTime" : 2358,
                          "duration" : 30,
                          "range" : [ 2328, 30]
                        },
                        {
                          "endTime" : 2478,
                          "duration" : 30,
                          "range" : [ 2448, 30]
                        },
                        {
                          "endTime" : 3666,
                          "duration" : 30,
                          "range" : [ 3636, 30]
                        },
                        {
                          "endTime" : 4066,
                          "duration" : 30,
                          "range" : [ 4036, 30]
                        },
                        {
                          "endTime" : 4469,
                          "duration" : 30,
                          "range" : [ 4439, 30]
                        },
                        {
                          "endTime" : 4992,
                          "duration" : 30,
                          "range" : [ 4962, 30]
                        },
                        {
                          "endTime" : 5236,
                          "duration" : 30,
                          "range" : [ 5206, 30]
                        },
                        {
                          "endTime" : 5442,
                          "duration" : 30,
                          "range" : [ 5412, 30]
                        }
                      ]
                    }
                  },
                  {
                    "id" : 140,
                    "_type" : "StitchedMedia",
                    "minMediaStart" : 0,
                    "attributes" : {
                      "ident" : "Rec 02-07-19_001",
                      "gain" : 1.0,
                      "mixToMono" : false
                    },
                    "parameters" : {
                      "translation0" : {
                        "type" : "double",
                        "defaultValue" : 90.3846153842169,
                        "interp" : "eioe",
                        "keyframes" : [
                          {
                            "endTime" : 1043,
                            "time" : 1013,
                            "value" : 173.076923076545,
                            "duration" : 30
                          },
                          {
                            "endTime" : 1141,
                            "time" : 1111,
                            "value" : 90.4,
                            "duration" : 30
                          },
                          {
                            "endTime" : 2358,
                            "time" : 2328,
                            "value" : 134.630769230764,
                            "duration" : 30
                          },
                          {
                            "endTime" : 2478,
                            "time" : 2448,
                            "value" : 382.70769230741,
                            "duration" : 30
                          },
                          {
                            "endTime" : 3666,
                            "time" : 3636,
                            "value" : -560.474125874959,
                            "duration" : 30
                          },
                          {
                            "endTime" : 4066,
                            "time" : 4036,
                            "value" : 27.2727272727602,
                            "duration" : 30
                          },
                          {
                            "endTime" : 4469,
                            "time" : 4439,
                            "value" : -581.8181818181,
                            "duration" : 30
                          },
                          {
                            "endTime" : 4992,
                            "time" : 4962,
                            "value" : 986.363636363861,
                            "duration" : 30
                          },
                          {
                            "endTime" : 5236,
                            "time" : 5206,
                            "value" : 49.4545454549895,
                            "duration" : 30
                          },
                          {
                            "endTime" : 5442,
                            "time" : 5412,
                            "value" : 908.545454546065,
                            "duration" : 30
                          }
                        ]
                      },
                      "translation1" : {
                        "type" : "double",
                        "defaultValue" : -155.999999999973,
                        "interp" : "eioe",
                        "keyframes" : [
                          {
                            "endTime" : 1043,
                            "time" : 1013,
                            "value" : 101.692307692331,
                            "duration" : 30
                          },
                          {
                            "endTime" : 1141,
                            "time" : 1111,
                            "value" : -156.0,
                            "duration" : 30
                          },
                          {
                            "endTime" : 2358,
                            "time" : 2328,
                            "value" : 217.076923076909,
                            "duration" : 30
                          },
                          {
                            "endTime" : 2478,
                            "time" : 2448,
                            "value" : -59.6153846154014,
                            "duration" : 30
                          },
                          {
                            "endTime" : 3666,
                            "time" : 3636,
                            "value" : -179.81818181819,
                            "duration" : 30
                          },
                          {
                            "endTime" : 4066,
                            "time" : 4036,
                            "value" : -347.999999999825,
                            "duration" : 30
                          },
                          {
                            "endTime" : 4469,
                            "time" : 4439,
                            "value" : -372.999999999852,
                            "duration" : 30
                          },
                          {
                            "endTime" : 4992,
                            "time" : 4962,
                            "value" : -539.999999999761,
                            "duration" : 30
                          },
                          {
                            "endTime" : 5236,
                            "time" : 5206,
                            "value" : 62.1818181819394,
                            "duration" : 30
                          },
                          {
                            "endTime" : 5442,
                            "time" : 5412,
                            "value" : -474.181818181744,
                            "duration" : 30
                          }
                        ]
                      },
                      "scale0" : {
                        "type" : "double",
                        "defaultValue" : 1.66533333333333,
                        "interp" : "eioe",
                        "keyframes" : [
                          {
                            "endTime" : 1043,
                            "time" : 1013,
                            "value" : 1.0,
                            "duration" : 30
                          },
                          {
                            "endTime" : 3666,
                            "time" : 3636,
                            "value" : 2.12275,
                            "duration" : 30
                          },
                          {
                            "endTime" : 4066,
                            "time" : 4036,
                            "value" : 1.66533333333333,
                            "duration" : 30
                          },
                          {
                            "endTime" : 4469,
                            "time" : 4439,
                            "value" : 2.66333333333333,
                            "duration" : 30
                          },
                          {
                            "endTime" : 4992,
                            "time" : 4962,
                            "value" : 2.28908333333333,
                            "duration" : 30
                          },
                          {
                            "endTime" : 5236,
                            "time" : 5206,
                            "value" : 1.2495,
                            "duration" : 30
                          },
                          {
                            "endTime" : 5442,
                            "time" : 5412,
                            "value" : 2.54658333333333,
                            "duration" : 30
                          }
                        ]
                      },
                      "scale1" : {
                        "type" : "double",
                        "defaultValue" : 1.66533333333333,
                        "interp" : "eioe",
                        "keyframes" : [
                          {
                            "endTime" : 1043,
                            "time" : 1013,
                            "value" : 1.0,
                            "duration" : 30
                          },
                          {
                            "endTime" : 3666,
                            "time" : 3636,
                            "value" : 2.12275,
                            "duration" : 30
                          },
                          {
                            "endTime" : 4066,
                            "time" : 4036,
                            "value" : 1.66533333333333,
                            "duration" : 30
                          },
                          {
                            "endTime" : 4469,
                            "time" : 4439,
                            "value" : 2.66333333333333,
                            "duration" : 30
                          },
                          {
                            "endTime" : 4992,
                            "time" : 4962,
                            "value" : 2.28908333333333,
                            "duration" : 30
                          },
                          {
                            "endTime" : 5236,
                            "time" : 5206,
                            "value" : 1.2495,
                            "duration" : 30
                          },
                          {
                            "endTime" : 5442,
                            "time" : 5412,
                            "value" : 2.54658333333333,
                            "duration" : 30
                          }
                        ]
                      },
                      "cursorOpacity" : {
                        "type" : "double",
                        "defaultValue" : 1.0,
                        "interp" : "linr"
                      },
                      "cursorScale" : {
                        "type" : "double",
                        "defaultValue" : 1.0,
                        "interp" : "linr"
                      }
                    },
                    "medias" : [
                        {
                          "id" : 141,
                          "_type" : "ScreenVMFile",
                          "src" : 7,
                          "trackNumber" : 0,
                          "attributes" : {
                            "ident" : "Rec 02-07-19_001"
                          },
                          "parameters" : {
                            "cursorScale" : {
                              "type" : "double",
                              "defaultValue" : 0.0,
                              "interp" : "linr"
                            },
                            "cursorOpacity" : {
                              "type" : "double",
                              "defaultValue" : 0.0,
                              "interp" : "linr"
                            }
                          },
                          "effects" : [

                          ],
                          "start" : 0,
                          "duration" : 496,
                          "mediaStart" : 0,
                          "mediaDuration" : 496,
                          "scalar" : 1,
                          "metadata" : {
                            "AutoAppliedSmartFocus" : "False",
                            "WinSubProjectDisplayName" : "",
                            "clipSpeedAttribute" : false,
                            "default-scale0" : 1.0,
                            "default-scale1" : 1.0,
                            "default-translation0" : 0.0,
                            "default-translation1" : 0.0
                          },
                          "animationTracks" : {

                          }
                        },
                        {
                          "id" : 142,
                          "_type" : "ScreenVMFile",
                          "src" : 7,
                          "trackNumber" : 0,
                          "attributes" : {
                            "ident" : "Rec 02-07-19_001"
                          },
                          "parameters" : {
                            "cursorScale" : {
                              "type" : "double",
                              "defaultValue" : 0.0,
                              "interp" : "linr"
                            },
                            "cursorOpacity" : {
                              "type" : "double",
                              "defaultValue" : 0.0,
                              "interp" : "linr"
                            }
                          },
                          "effects" : [

                          ],
                          "start" : 496,
                          "duration" : 190,
                          "mediaStart" : 715,
                          "mediaDuration" : 190,
                          "scalar" : 1,
                          "metadata" : {
                            "AutoAppliedSmartFocus" : "False",
                            "WinSubProjectDisplayName" : "",
                            "clipSpeedAttribute" : false,
                            "default-scale0" : 1.0,
                            "default-scale1" : 1.0,
                            "default-translation0" : 0.0,
                            "default-translation1" : 0.0
                          },
                          "animationTracks" : {

                          }
                        },
                        {
                          "id" : 143,
                          "_type" : "ScreenVMFile",
                          "src" : 7,
                          "trackNumber" : 0,
                          "attributes" : {
                            "ident" : "Rec 02-07-19_001"
                          },
                          "parameters" : {
                            "cursorScale" : {
                              "type" : "double",
                              "defaultValue" : 0.0,
                              "interp" : "linr"
                            },
                            "cursorOpacity" : {
                              "type" : "double",
                              "defaultValue" : 0.0,
                              "interp" : "linr"
                            }
                          },
                          "effects" : [

                          ],
                          "start" : 686,
                          "duration" : 239,
                          "mediaStart" : 1444,
                          "mediaDuration" : 239,
                          "scalar" : 1,
                          "metadata" : {
                            "AutoAppliedSmartFocus" : "False",
                            "WinSubProjectDisplayName" : "",
                            "clipSpeedAttribute" : false,
                            "default-scale0" : 1.0,
                            "default-scale1" : 1.0,
                            "default-translation0" : 0.0,
                            "default-translation1" : 0.0
                          },
                          "animationTracks" : {

                          }
                        },
                        {
                          "id" : 144,
                          "_type" : "ScreenVMFile",
                          "src" : 7,
                          "trackNumber" : 0,
                          "attributes" : {
                            "ident" : "Rec 02-07-19_001"
                          },
                          "parameters" : {
                            "cursorScale" : {
                              "type" : "double",
                              "defaultValue" : 0.0,
                              "interp" : "linr"
                            },
                            "cursorOpacity" : {
                              "type" : "double",
                              "defaultValue" : 0.0,
                              "interp" : "linr"
                            }
                          },
                          "effects" : [

                          ],
                          "start" : 925,
                          "duration" : 128,
                          "mediaStart" : 1750,
                          "mediaDuration" : 128,
                          "scalar" : 1,
                          "metadata" : {
                            "AutoAppliedSmartFocus" : "False",
                            "WinSubProjectDisplayName" : "",
                            "clipSpeedAttribute" : false,
                            "default-scale0" : 1.0,
                            "default-scale1" : 1.0,
                            "default-translation0" : 0.0,
                            "default-translation1" : 0.0
                          },
                          "animationTracks" : {

                          }
                        },
                        {
                          "id" : 145,
                          "_type" : "ScreenVMFile",
                          "src" : 7,
                          "trackNumber" : 0,
                          "attributes" : {
                            "ident" : "Rec 02-07-19_001"
                          },
                          "parameters" : {
                            "cursorScale" : {
                              "type" : "double",
                              "defaultValue" : 0.0,
                              "interp" : "linr"
                            },
                            "cursorOpacity" : {
                              "type" : "double",
                              "defaultValue" : 0.0,
                              "interp" : "linr"
                            }
                          },
                          "effects" : [

                          ],
                          "start" : 1053,
                          "duration" : 298,
                          "mediaStart" : 1939,
                          "mediaDuration" : 298,
                          "scalar" : 1,
                          "metadata" : {
                            "AutoAppliedSmartFocus" : "False",
                            "WinSubProjectDisplayName" : "",
                            "clipSpeedAttribute" : false,
                            "default-scale0" : 1.0,
                            "default-scale1" : 1.0,
                            "default-translation0" : 0.0,
                            "default-translation1" : 0.0
                          },
                          "animationTracks" : {

                          }
                        },
                        {
                          "id" : 146,
                          "_type" : "ScreenVMFile",
                          "src" : 7,
                          "trackNumber" : 0,
                          "attributes" : {
                            "ident" : "Rec 02-07-19_001"
                          },
                          "parameters" : {
                            "cursorScale" : {
                              "type" : "double",
                              "defaultValue" : 0.0,
                              "interp" : "linr"
                            },
                            "cursorOpacity" : {
                              "type" : "double",
                              "defaultValue" : 0.0,
                              "interp" : "linr"
                            }
                          },
                          "effects" : [

                          ],
                          "start" : 1351,
                          "duration" : 524,
                          "mediaStart" : 2386,
                          "mediaDuration" : 524,
                          "scalar" : 1,
                          "metadata" : {
                            "AutoAppliedSmartFocus" : "False",
                            "WinSubProjectDisplayName" : "",
                            "clipSpeedAttribute" : false,
                            "default-scale0" : 1.0,
                            "default-scale1" : 1.0,
                            "default-translation0" : 0.0,
                            "default-translation1" : 0.0
                          },
                          "animationTracks" : {

                          }
                        },
                        {
                          "id" : 147,
                          "_type" : "ScreenVMFile",
                          "src" : 7,
                          "trackNumber" : 0,
                          "attributes" : {
                            "ident" : "Rec 02-07-19_001"
                          },
                          "parameters" : {
                            "cursorScale" : {
                              "type" : "double",
                              "defaultValue" : 0.0,
                              "interp" : "linr"
                            },
                            "cursorOpacity" : {
                              "type" : "double",
                              "defaultValue" : 0.0,
                              "interp" : "linr"
                            }
                          },
                          "effects" : [

                          ],
                          "start" : 1875,
                          "duration" : 143,
                          "mediaStart" : 3086,
                          "mediaDuration" : 143,
                          "scalar" : 1,
                          "metadata" : {
                            "AutoAppliedSmartFocus" : "False",
                            "WinSubProjectDisplayName" : "",
                            "clipSpeedAttribute" : false,
                            "default-scale0" : 1.0,
                            "default-scale1" : 1.0,
                            "default-translation0" : 0.0,
                            "default-translation1" : 0.0
                          },
                          "animationTracks" : {

                          }
                        },
                        {
                          "id" : 148,
                          "_type" : "ScreenVMFile",
                          "src" : 7,
                          "trackNumber" : 0,
                          "attributes" : {
                            "ident" : "Rec 02-07-19_001"
                          },
                          "parameters" : {
                            "cursorScale" : {
                              "type" : "double",
                              "defaultValue" : 0.0,
                              "interp" : "linr"
                            },
                            "cursorOpacity" : {
                              "type" : "double",
                              "defaultValue" : 0.0,
                              "interp" : "linr"
                            }
                          },
                          "effects" : [

                          ],
                          "start" : 2018,
                          "duration" : 1362,
                          "mediaStart" : 3692,
                          "mediaDuration" : 1362,
                          "scalar" : 1,
                          "metadata" : {
                            "AutoAppliedSmartFocus" : "False",
                            "WinSubProjectDisplayName" : "",
                            "clipSpeedAttribute" : false,
                            "default-scale0" : 1.0,
                            "default-scale1" : 1.0,
                            "default-translation0" : 0.0,
                            "default-translation1" : 0.0
                          },
                          "animationTracks" : {

                          }
                        },
                        {
                          "id" : 149,
                          "_type" : "ScreenVMFile",
                          "src" : 7,
                          "trackNumber" : 0,
                          "attributes" : {
                            "ident" : "Rec 02-07-19_001"
                          },
                          "parameters" : {
                            "cursorScale" : {
                              "type" : "double",
                              "defaultValue" : 0.0,
                              "interp" : "linr"
                            },
                            "cursorOpacity" : {
                              "type" : "double",
                              "defaultValue" : 0.0,
                              "interp" : "linr"
                            }
                          },
                          "effects" : [

                          ],
                          "start" : 3380,
                          "duration" : 218,
                          "mediaStart" : 5246,
                          "mediaDuration" : 218,
                          "scalar" : 1,
                          "metadata" : {
                            "AutoAppliedSmartFocus" : "False",
                            "WinSubProjectDisplayName" : "",
                            "clipSpeedAttribute" : false,
                            "default-scale0" : 1.0,
                            "default-scale1" : 1.0,
                            "default-translation0" : 0.0,
                            "default-translation1" : 0.0
                          },
                          "animationTracks" : {

                          }
                        },
                        {
                          "id" : 150,
                          "_type" : "ScreenVMFile",
                          "src" : 7,
                          "trackNumber" : 0,
                          "attributes" : {
                            "ident" : "Rec 02-07-19_001"
                          },
                          "parameters" : {
                            "cursorScale" : {
                              "type" : "double",
                              "defaultValue" : 0.0,
                              "interp" : "linr"
                            },
                            "cursorOpacity" : {
                              "type" : "double",
                              "defaultValue" : 0.0,
                              "interp" : "linr"
                            }
                          },
                          "effects" : [

                          ],
                          "start" : 3598,
                          "duration" : 473,
                          "mediaStart" : 6154,
                          "mediaDuration" : 473,
                          "scalar" : 1,
                          "metadata" : {
                            "AutoAppliedSmartFocus" : "False",
                            "WinSubProjectDisplayName" : "",
                            "clipSpeedAttribute" : false,
                            "default-scale0" : 1.0,
                            "default-scale1" : 1.0,
                            "default-translation0" : 0.0,
                            "default-translation1" : 0.0
                          },
                          "animationTracks" : {

                          }
                        },
                        {
                          "id" : 151,
                          "_type" : "ScreenVMFile",
                          "src" : 7,
                          "trackNumber" : 0,
                          "attributes" : {
                            "ident" : "Rec 02-07-19_001"
                          },
                          "parameters" : {
                            "cursorScale" : {
                              "type" : "double",
                              "defaultValue" : 0.0,
                              "interp" : "linr"
                            },
                            "cursorOpacity" : {
                              "type" : "double",
                              "defaultValue" : 0.0,
                              "interp" : "linr"
                            }
                          },
                          "effects" : [

                          ],
                          "start" : 4071,
                          "duration" : 164,
                          "mediaStart" : 6726,
                          "mediaDuration" : 164,
                          "scalar" : 1,
                          "metadata" : {
                            "AutoAppliedSmartFocus" : "False",
                            "WinSubProjectDisplayName" : "",
                            "clipSpeedAttribute" : false,
                            "default-scale0" : 1.0,
                            "default-scale1" : 1.0,
                            "default-translation0" : 0.0,
                            "default-translation1" : 0.0
                          },
                          "animationTracks" : {

                          }
                        },
                        {
                          "id" : 152,
                          "_type" : "ScreenVMFile",
                          "src" : 7,
                          "trackNumber" : 0,
                          "attributes" : {
                            "ident" : "Rec 02-07-19_001"
                          },
                          "parameters" : {
                            "cursorScale" : {
                              "type" : "double",
                              "defaultValue" : 0.0,
                              "interp" : "linr"
                            },
                            "cursorOpacity" : {
                              "type" : "double",
                              "defaultValue" : 0.0,
                              "interp" : "linr"
                            }
                          },
                          "effects" : [

                          ],
                          "start" : 4235,
                          "duration" : 1279,
                          "mediaStart" : 7107,
                          "mediaDuration" : 1279,
                          "scalar" : 1,
                          "metadata" : {
                            "AutoAppliedSmartFocus" : "False",
                            "WinSubProjectDisplayName" : "",
                            "clipSpeedAttribute" : false,
                            "default-scale0" : 1.0,
                            "default-scale1" : 1.0,
                            "default-translation0" : 0.0,
                            "default-translation1" : 0.0
                          },
                          "animationTracks" : {

                          }
                        },
                        {
                          "id" : 153,
                          "_type" : "ScreenVMFile",
                          "src" : 7,
                          "trackNumber" : 0,
                          "attributes" : {
                            "ident" : "Rec 02-07-19_001"
                          },
                          "parameters" : {
                            "cursorScale" : {
                              "type" : "double",
                              "defaultValue" : 0.0,
                              "interp" : "linr"
                            },
                            "cursorOpacity" : {
                              "type" : "double",
                              "defaultValue" : 0.0,
                              "interp" : "linr"
                            }
                          },
                          "effects" : [

                          ],
                          "start" : 5514,
                          "duration" : 17878,
                          "mediaStart" : 8518,
                          "mediaDuration" : 17878,
                          "scalar" : 1,
                          "metadata" : {
                            "AutoAppliedSmartFocus" : "False",
                            "WinSubProjectDisplayName" : "",
                            "clipSpeedAttribute" : false,
                            "default-scale0" : 1.0,
                            "default-scale1" : 1.0,
                            "default-translation0" : 0.0,
                            "default-translation1" : 0.0
                          },
                          "animationTracks" : {

                          }
                        }
                    ],
                    "effects" : [

                    ],
                    "start" : 19248,
                    "duration" : 209,
                    "mediaStart" : 5405,
                    "mediaDuration" : 209,
                    "scalar" : 1,
                    "metadata" : {
                      "AutoAppliedSmartFocus" : "False",
                      "WinSubProjectDisplayName" : "",
                      "clipSpeedAttribute" : false,
                      "default-scale0" : 2.28908333333333,
                      "default-scale1" : 2.28908333333333,
                      "default-translation0" : 986.363636363861,
                      "default-translation1" : -539.999999999761
                    },
                    "animationTracks" : {
                      "visual" : [
                        {
                          "endTime" : 1043,
                          "duration" : 30,
                          "range" : [ 1013, 30]
                        },
                        {
                          "endTime" : 1141,
                          "duration" : 30,
                          "range" : [ 1111, 30]
                        },
                        {
                          "endTime" : 2358,
                          "duration" : 30,
                          "range" : [ 2328, 30]
                        },
                        {
                          "endTime" : 2478,
                          "duration" : 30,
                          "range" : [ 2448, 30]
                        },
                        {
                          "endTime" : 3666,
                          "duration" : 30,
                          "range" : [ 3636, 30]
                        },
                        {
                          "endTime" : 4066,
                          "duration" : 30,
                          "range" : [ 4036, 30]
                        },
                        {
                          "endTime" : 4469,
                          "duration" : 30,
                          "range" : [ 4439, 30]
                        },
                        {
                          "endTime" : 4992,
                          "duration" : 30,
                          "range" : [ 4962, 30]
                        },
                        {
                          "endTime" : 5236,
                          "duration" : 30,
                          "range" : [ 5206, 30]
                        },
                        {
                          "endTime" : 5442,
                          "duration" : 30,
                          "range" : [ 5412, 30]
                        }
                      ]
                    }
                  },
                  {
                    "id" : 154,
                    "_type" : "StitchedMedia",
                    "minMediaStart" : 0,
                    "attributes" : {
                      "ident" : "Rec 02-07-19_001",
                      "gain" : 1.0,
                      "mixToMono" : false
                    },
                    "parameters" : {
                      "translation0" : {
                        "type" : "double",
                        "defaultValue" : 90.3846153842169,
                        "interp" : "eioe",
                        "keyframes" : [
                          {
                            "endTime" : 1043,
                            "time" : 1013,
                            "value" : 173.076923076545,
                            "duration" : 30
                          },
                          {
                            "endTime" : 1141,
                            "time" : 1111,
                            "value" : 90.4,
                            "duration" : 30
                          },
                          {
                            "endTime" : 2358,
                            "time" : 2328,
                            "value" : 134.630769230764,
                            "duration" : 30
                          },
                          {
                            "endTime" : 2478,
                            "time" : 2448,
                            "value" : 382.70769230741,
                            "duration" : 30
                          },
                          {
                            "endTime" : 3666,
                            "time" : 3636,
                            "value" : -560.474125874959,
                            "duration" : 30
                          },
                          {
                            "endTime" : 4066,
                            "time" : 4036,
                            "value" : 27.2727272727602,
                            "duration" : 30
                          },
                          {
                            "endTime" : 4469,
                            "time" : 4439,
                            "value" : -581.8181818181,
                            "duration" : 30
                          },
                          {
                            "endTime" : 4992,
                            "time" : 4962,
                            "value" : 986.363636363861,
                            "duration" : 30
                          },
                          {
                            "endTime" : 5236,
                            "time" : 5206,
                            "value" : 49.4545454549895,
                            "duration" : 30
                          },
                          {
                            "endTime" : 5442,
                            "time" : 5412,
                            "value" : 908.545454546065,
                            "duration" : 30
                          }
                        ]
                      },
                      "translation1" : {
                        "type" : "double",
                        "defaultValue" : -155.999999999973,
                        "interp" : "eioe",
                        "keyframes" : [
                          {
                            "endTime" : 1043,
                            "time" : 1013,
                            "value" : 101.692307692331,
                            "duration" : 30
                          },
                          {
                            "endTime" : 1141,
                            "time" : 1111,
                            "value" : -156.0,
                            "duration" : 30
                          },
                          {
                            "endTime" : 2358,
                            "time" : 2328,
                            "value" : 217.076923076909,
                            "duration" : 30
                          },
                          {
                            "endTime" : 2478,
                            "time" : 2448,
                            "value" : -59.6153846154014,
                            "duration" : 30
                          },
                          {
                            "endTime" : 3666,
                            "time" : 3636,
                            "value" : -179.81818181819,
                            "duration" : 30
                          },
                          {
                            "endTime" : 4066,
                            "time" : 4036,
                            "value" : -347.999999999825,
                            "duration" : 30
                          },
                          {
                            "endTime" : 4469,
                            "time" : 4439,
                            "value" : -372.999999999852,
                            "duration" : 30
                          },
                          {
                            "endTime" : 4992,
                            "time" : 4962,
                            "value" : -539.999999999761,
                            "duration" : 30
                          },
                          {
                            "endTime" : 5236,
                            "time" : 5206,
                            "value" : 62.1818181819394,
                            "duration" : 30
                          },
                          {
                            "endTime" : 5442,
                            "time" : 5412,
                            "value" : -474.181818181744,
                            "duration" : 30
                          }
                        ]
                      },
                      "scale0" : {
                        "type" : "double",
                        "defaultValue" : 1.66533333333333,
                        "interp" : "eioe",
                        "keyframes" : [
                          {
                            "endTime" : 1043,
                            "time" : 1013,
                            "value" : 1.0,
                            "duration" : 30
                          },
                          {
                            "endTime" : 3666,
                            "time" : 3636,
                            "value" : 2.12275,
                            "duration" : 30
                          },
                          {
                            "endTime" : 4066,
                            "time" : 4036,
                            "value" : 1.66533333333333,
                            "duration" : 30
                          },
                          {
                            "endTime" : 4469,
                            "time" : 4439,
                            "value" : 2.66333333333333,
                            "duration" : 30
                          },
                          {
                            "endTime" : 4992,
                            "time" : 4962,
                            "value" : 2.28908333333333,
                            "duration" : 30
                          },
                          {
                            "endTime" : 5236,
                            "time" : 5206,
                            "value" : 1.2495,
                            "duration" : 30
                          },
                          {
                            "endTime" : 5442,
                            "time" : 5412,
                            "value" : 2.54658333333333,
                            "duration" : 30
                          }
                        ]
                      },
                      "scale1" : {
                        "type" : "double",
                        "defaultValue" : 1.66533333333333,
                        "interp" : "eioe",
                        "keyframes" : [
                          {
                            "endTime" : 1043,
                            "time" : 1013,
                            "value" : 1.0,
                            "duration" : 30
                          },
                          {
                            "endTime" : 3666,
                            "time" : 3636,
                            "value" : 2.12275,
                            "duration" : 30
                          },
                          {
                            "endTime" : 4066,
                            "time" : 4036,
                            "value" : 1.66533333333333,
                            "duration" : 30
                          },
                          {
                            "endTime" : 4469,
                            "time" : 4439,
                            "value" : 2.66333333333333,
                            "duration" : 30
                          },
                          {
                            "endTime" : 4992,
                            "time" : 4962,
                            "value" : 2.28908333333333,
                            "duration" : 30
                          },
                          {
                            "endTime" : 5236,
                            "time" : 5206,
                            "value" : 1.2495,
                            "duration" : 30
                          },
                          {
                            "endTime" : 5442,
                            "time" : 5412,
                            "value" : 2.54658333333333,
                            "duration" : 30
                          }
                        ]
                      },
                      "cursorOpacity" : {
                        "type" : "double",
                        "defaultValue" : 1.0,
                        "interp" : "linr"
                      },
                      "cursorScale" : {
                        "type" : "double",
                        "defaultValue" : 1.0,
                        "interp" : "linr"
                      }
                    },
                    "medias" : [
                        {
                          "id" : 155,
                          "_type" : "ScreenVMFile",
                          "src" : 7,
                          "trackNumber" : 0,
                          "attributes" : {
                            "ident" : "Rec 02-07-19_001"
                          },
                          "parameters" : {
                            "cursorScale" : {
                              "type" : "double",
                              "defaultValue" : 0.0,
                              "interp" : "linr"
                            },
                            "cursorOpacity" : {
                              "type" : "double",
                              "defaultValue" : 0.0,
                              "interp" : "linr"
                            }
                          },
                          "effects" : [

                          ],
                          "start" : 0,
                          "duration" : 496,
                          "mediaStart" : 0,
                          "mediaDuration" : 496,
                          "scalar" : 1,
                          "metadata" : {
                            "AutoAppliedSmartFocus" : "False",
                            "WinSubProjectDisplayName" : "",
                            "clipSpeedAttribute" : false,
                            "default-scale0" : 1.0,
                            "default-scale1" : 1.0,
                            "default-translation0" : 0.0,
                            "default-translation1" : 0.0
                          },
                          "animationTracks" : {

                          }
                        },
                        {
                          "id" : 156,
                          "_type" : "ScreenVMFile",
                          "src" : 7,
                          "trackNumber" : 0,
                          "attributes" : {
                            "ident" : "Rec 02-07-19_001"
                          },
                          "parameters" : {
                            "cursorScale" : {
                              "type" : "double",
                              "defaultValue" : 0.0,
                              "interp" : "linr"
                            },
                            "cursorOpacity" : {
                              "type" : "double",
                              "defaultValue" : 0.0,
                              "interp" : "linr"
                            }
                          },
                          "effects" : [

                          ],
                          "start" : 496,
                          "duration" : 190,
                          "mediaStart" : 715,
                          "mediaDuration" : 190,
                          "scalar" : 1,
                          "metadata" : {
                            "AutoAppliedSmartFocus" : "False",
                            "WinSubProjectDisplayName" : "",
                            "clipSpeedAttribute" : false,
                            "default-scale0" : 1.0,
                            "default-scale1" : 1.0,
                            "default-translation0" : 0.0,
                            "default-translation1" : 0.0
                          },
                          "animationTracks" : {

                          }
                        },
                        {
                          "id" : 157,
                          "_type" : "ScreenVMFile",
                          "src" : 7,
                          "trackNumber" : 0,
                          "attributes" : {
                            "ident" : "Rec 02-07-19_001"
                          },
                          "parameters" : {
                            "cursorScale" : {
                              "type" : "double",
                              "defaultValue" : 0.0,
                              "interp" : "linr"
                            },
                            "cursorOpacity" : {
                              "type" : "double",
                              "defaultValue" : 0.0,
                              "interp" : "linr"
                            }
                          },
                          "effects" : [

                          ],
                          "start" : 686,
                          "duration" : 239,
                          "mediaStart" : 1444,
                          "mediaDuration" : 239,
                          "scalar" : 1,
                          "metadata" : {
                            "AutoAppliedSmartFocus" : "False",
                            "WinSubProjectDisplayName" : "",
                            "clipSpeedAttribute" : false,
                            "default-scale0" : 1.0,
                            "default-scale1" : 1.0,
                            "default-translation0" : 0.0,
                            "default-translation1" : 0.0
                          },
                          "animationTracks" : {

                          }
                        },
                        {
                          "id" : 158,
                          "_type" : "ScreenVMFile",
                          "src" : 7,
                          "trackNumber" : 0,
                          "attributes" : {
                            "ident" : "Rec 02-07-19_001"
                          },
                          "parameters" : {
                            "cursorScale" : {
                              "type" : "double",
                              "defaultValue" : 0.0,
                              "interp" : "linr"
                            },
                            "cursorOpacity" : {
                              "type" : "double",
                              "defaultValue" : 0.0,
                              "interp" : "linr"
                            }
                          },
                          "effects" : [

                          ],
                          "start" : 925,
                          "duration" : 128,
                          "mediaStart" : 1750,
                          "mediaDuration" : 128,
                          "scalar" : 1,
                          "metadata" : {
                            "AutoAppliedSmartFocus" : "False",
                            "WinSubProjectDisplayName" : "",
                            "clipSpeedAttribute" : false,
                            "default-scale0" : 1.0,
                            "default-scale1" : 1.0,
                            "default-translation0" : 0.0,
                            "default-translation1" : 0.0
                          },
                          "animationTracks" : {

                          }
                        },
                        {
                          "id" : 159,
                          "_type" : "ScreenVMFile",
                          "src" : 7,
                          "trackNumber" : 0,
                          "attributes" : {
                            "ident" : "Rec 02-07-19_001"
                          },
                          "parameters" : {
                            "cursorScale" : {
                              "type" : "double",
                              "defaultValue" : 0.0,
                              "interp" : "linr"
                            },
                            "cursorOpacity" : {
                              "type" : "double",
                              "defaultValue" : 0.0,
                              "interp" : "linr"
                            }
                          },
                          "effects" : [

                          ],
                          "start" : 1053,
                          "duration" : 298,
                          "mediaStart" : 1939,
                          "mediaDuration" : 298,
                          "scalar" : 1,
                          "metadata" : {
                            "AutoAppliedSmartFocus" : "False",
                            "WinSubProjectDisplayName" : "",
                            "clipSpeedAttribute" : false,
                            "default-scale0" : 1.0,
                            "default-scale1" : 1.0,
                            "default-translation0" : 0.0,
                            "default-translation1" : 0.0
                          },
                          "animationTracks" : {

                          }
                        },
                        {
                          "id" : 160,
                          "_type" : "ScreenVMFile",
                          "src" : 7,
                          "trackNumber" : 0,
                          "attributes" : {
                            "ident" : "Rec 02-07-19_001"
                          },
                          "parameters" : {
                            "cursorScale" : {
                              "type" : "double",
                              "defaultValue" : 0.0,
                              "interp" : "linr"
                            },
                            "cursorOpacity" : {
                              "type" : "double",
                              "defaultValue" : 0.0,
                              "interp" : "linr"
                            }
                          },
                          "effects" : [

                          ],
                          "start" : 1351,
                          "duration" : 524,
                          "mediaStart" : 2386,
                          "mediaDuration" : 524,
                          "scalar" : 1,
                          "metadata" : {
                            "AutoAppliedSmartFocus" : "False",
                            "WinSubProjectDisplayName" : "",
                            "clipSpeedAttribute" : false,
                            "default-scale0" : 1.0,
                            "default-scale1" : 1.0,
                            "default-translation0" : 0.0,
                            "default-translation1" : 0.0
                          },
                          "animationTracks" : {

                          }
                        },
                        {
                          "id" : 161,
                          "_type" : "ScreenVMFile",
                          "src" : 7,
                          "trackNumber" : 0,
                          "attributes" : {
                            "ident" : "Rec 02-07-19_001"
                          },
                          "parameters" : {
                            "cursorScale" : {
                              "type" : "double",
                              "defaultValue" : 0.0,
                              "interp" : "linr"
                            },
                            "cursorOpacity" : {
                              "type" : "double",
                              "defaultValue" : 0.0,
                              "interp" : "linr"
                            }
                          },
                          "effects" : [

                          ],
                          "start" : 1875,
                          "duration" : 143,
                          "mediaStart" : 3086,
                          "mediaDuration" : 143,
                          "scalar" : 1,
                          "metadata" : {
                            "AutoAppliedSmartFocus" : "False",
                            "WinSubProjectDisplayName" : "",
                            "clipSpeedAttribute" : false,
                            "default-scale0" : 1.0,
                            "default-scale1" : 1.0,
                            "default-translation0" : 0.0,
                            "default-translation1" : 0.0
                          },
                          "animationTracks" : {

                          }
                        },
                        {
                          "id" : 162,
                          "_type" : "ScreenVMFile",
                          "src" : 7,
                          "trackNumber" : 0,
                          "attributes" : {
                            "ident" : "Rec 02-07-19_001"
                          },
                          "parameters" : {
                            "cursorScale" : {
                              "type" : "double",
                              "defaultValue" : 0.0,
                              "interp" : "linr"
                            },
                            "cursorOpacity" : {
                              "type" : "double",
                              "defaultValue" : 0.0,
                              "interp" : "linr"
                            }
                          },
                          "effects" : [

                          ],
                          "start" : 2018,
                          "duration" : 1362,
                          "mediaStart" : 3692,
                          "mediaDuration" : 1362,
                          "scalar" : 1,
                          "metadata" : {
                            "AutoAppliedSmartFocus" : "False",
                            "WinSubProjectDisplayName" : "",
                            "clipSpeedAttribute" : false,
                            "default-scale0" : 1.0,
                            "default-scale1" : 1.0,
                            "default-translation0" : 0.0,
                            "default-translation1" : 0.0
                          },
                          "animationTracks" : {

                          }
                        },
                        {
                          "id" : 163,
                          "_type" : "ScreenVMFile",
                          "src" : 7,
                          "trackNumber" : 0,
                          "attributes" : {
                            "ident" : "Rec 02-07-19_001"
                          },
                          "parameters" : {
                            "cursorScale" : {
                              "type" : "double",
                              "defaultValue" : 0.0,
                              "interp" : "linr"
                            },
                            "cursorOpacity" : {
                              "type" : "double",
                              "defaultValue" : 0.0,
                              "interp" : "linr"
                            }
                          },
                          "effects" : [

                          ],
                          "start" : 3380,
                          "duration" : 218,
                          "mediaStart" : 5246,
                          "mediaDuration" : 218,
                          "scalar" : 1,
                          "metadata" : {
                            "AutoAppliedSmartFocus" : "False",
                            "WinSubProjectDisplayName" : "",
                            "clipSpeedAttribute" : false,
                            "default-scale0" : 1.0,
                            "default-scale1" : 1.0,
                            "default-translation0" : 0.0,
                            "default-translation1" : 0.0
                          },
                          "animationTracks" : {

                          }
                        },
                        {
                          "id" : 164,
                          "_type" : "ScreenVMFile",
                          "src" : 7,
                          "trackNumber" : 0,
                          "attributes" : {
                            "ident" : "Rec 02-07-19_001"
                          },
                          "parameters" : {
                            "cursorScale" : {
                              "type" : "double",
                              "defaultValue" : 0.0,
                              "interp" : "linr"
                            },
                            "cursorOpacity" : {
                              "type" : "double",
                              "defaultValue" : 0.0,
                              "interp" : "linr"
                            }
                          },
                          "effects" : [

                          ],
                          "start" : 3598,
                          "duration" : 473,
                          "mediaStart" : 6154,
                          "mediaDuration" : 473,
                          "scalar" : 1,
                          "metadata" : {
                            "AutoAppliedSmartFocus" : "False",
                            "WinSubProjectDisplayName" : "",
                            "clipSpeedAttribute" : false,
                            "default-scale0" : 1.0,
                            "default-scale1" : 1.0,
                            "default-translation0" : 0.0,
                            "default-translation1" : 0.0
                          },
                          "animationTracks" : {

                          }
                        },
                        {
                          "id" : 165,
                          "_type" : "ScreenVMFile",
                          "src" : 7,
                          "trackNumber" : 0,
                          "attributes" : {
                            "ident" : "Rec 02-07-19_001"
                          },
                          "parameters" : {
                            "cursorScale" : {
                              "type" : "double",
                              "defaultValue" : 0.0,
                              "interp" : "linr"
                            },
                            "cursorOpacity" : {
                              "type" : "double",
                              "defaultValue" : 0.0,
                              "interp" : "linr"
                            }
                          },
                          "effects" : [

                          ],
                          "start" : 4071,
                          "duration" : 164,
                          "mediaStart" : 6726,
                          "mediaDuration" : 164,
                          "scalar" : 1,
                          "metadata" : {
                            "AutoAppliedSmartFocus" : "False",
                            "WinSubProjectDisplayName" : "",
                            "clipSpeedAttribute" : false,
                            "default-scale0" : 1.0,
                            "default-scale1" : 1.0,
                            "default-translation0" : 0.0,
                            "default-translation1" : 0.0
                          },
                          "animationTracks" : {

                          }
                        },
                        {
                          "id" : 166,
                          "_type" : "ScreenVMFile",
                          "src" : 7,
                          "trackNumber" : 0,
                          "attributes" : {
                            "ident" : "Rec 02-07-19_001"
                          },
                          "parameters" : {
                            "cursorScale" : {
                              "type" : "double",
                              "defaultValue" : 0.0,
                              "interp" : "linr"
                            },
                            "cursorOpacity" : {
                              "type" : "double",
                              "defaultValue" : 0.0,
                              "interp" : "linr"
                            }
                          },
                          "effects" : [

                          ],
                          "start" : 4235,
                          "duration" : 1279,
                          "mediaStart" : 7107,
                          "mediaDuration" : 1279,
                          "scalar" : 1,
                          "metadata" : {
                            "AutoAppliedSmartFocus" : "False",
                            "WinSubProjectDisplayName" : "",
                            "clipSpeedAttribute" : false,
                            "default-scale0" : 1.0,
                            "default-scale1" : 1.0,
                            "default-translation0" : 0.0,
                            "default-translation1" : 0.0
                          },
                          "animationTracks" : {

                          }
                        },
                        {
                          "id" : 167,
                          "_type" : "ScreenVMFile",
                          "src" : 7,
                          "trackNumber" : 0,
                          "attributes" : {
                            "ident" : "Rec 02-07-19_001"
                          },
                          "parameters" : {
                            "cursorScale" : {
                              "type" : "double",
                              "defaultValue" : 0.0,
                              "interp" : "linr"
                            },
                            "cursorOpacity" : {
                              "type" : "double",
                              "defaultValue" : 0.0,
                              "interp" : "linr"
                            }
                          },
                          "effects" : [

                          ],
                          "start" : 5514,
                          "duration" : 17878,
                          "mediaStart" : 8518,
                          "mediaDuration" : 17878,
                          "scalar" : 1,
                          "metadata" : {
                            "AutoAppliedSmartFocus" : "False",
                            "WinSubProjectDisplayName" : "",
                            "clipSpeedAttribute" : false,
                            "default-scale0" : 1.0,
                            "default-scale1" : 1.0,
                            "default-translation0" : 0.0,
                            "default-translation1" : 0.0
                          },
                          "animationTracks" : {

                          }
                        }
                    ],
                    "effects" : [

                    ],
                    "start" : 19457,
                    "duration" : 104,
                    "mediaStart" : 5614,
                    "mediaDuration" : 311,
                    "scalar" : "104/311",
                    "metadata" : {
                      "AutoAppliedSmartFocus" : "False",
                      "WinSubProjectDisplayName" : "",
                      "clipSpeedAttribute" : true,
                      "default-scale0" : 2.28908333333333,
                      "default-scale1" : 2.28908333333333,
                      "default-translation0" : 986.363636363861,
                      "default-translation1" : -539.999999999761
                    },
                    "animationTracks" : {
                      "visual" : [
                        {
                          "endTime" : 1043,
                          "duration" : 30,
                          "range" : [ 1013, 30]
                        },
                        {
                          "endTime" : 1141,
                          "duration" : 30,
                          "range" : [ 1111, 30]
                        },
                        {
                          "endTime" : 2358,
                          "duration" : 30,
                          "range" : [ 2328, 30]
                        },
                        {
                          "endTime" : 2478,
                          "duration" : 30,
                          "range" : [ 2448, 30]
                        },
                        {
                          "endTime" : 3666,
                          "duration" : 30,
                          "range" : [ 3636, 30]
                        },
                        {
                          "endTime" : 4066,
                          "duration" : 30,
                          "range" : [ 4036, 30]
                        },
                        {
                          "endTime" : 4469,
                          "duration" : 30,
                          "range" : [ 4439, 30]
                        },
                        {
                          "endTime" : 4992,
                          "duration" : 30,
                          "range" : [ 4962, 30]
                        },
                        {
                          "endTime" : 5236,
                          "duration" : 30,
                          "range" : [ 5206, 30]
                        },
                        {
                          "endTime" : 5442,
                          "duration" : 30,
                          "range" : [ 5412, 30]
                        }
                      ]
                    }
                  },
                  {
                    "id" : 168,
                    "_type" : "StitchedMedia",
                    "minMediaStart" : 0,
                    "attributes" : {
                      "ident" : "Rec 02-07-19_001",
                      "gain" : 1.0,
                      "mixToMono" : false
                    },
                    "parameters" : {
                      "translation0" : {
                        "type" : "double",
                        "defaultValue" : 90.3846153842169,
                        "keyframes" : [
                          {
                            "endTime" : 1043,
                            "time" : 1013,
                            "value" : 173.076923076545,
                            "duration" : 30
                          },
                          {
                            "endTime" : 1141,
                            "time" : 1111,
                            "value" : 90.4,
                            "duration" : 30
                          },
                          {
                            "endTime" : 2358,
                            "time" : 2328,
                            "value" : 134.630769230764,
                            "duration" : 30
                          },
                          {
                            "endTime" : 2478,
                            "time" : 2448,
                            "value" : 382.70769230741,
                            "duration" : 30
                          },
                          {
                            "endTime" : 3666,
                            "time" : 3636,
                            "value" : -560.474125874959,
                            "duration" : 30
                          },
                          {
                            "endTime" : 4066,
                            "time" : 4036,
                            "value" : 27.2727272727602,
                            "duration" : 30
                          },
                          {
                            "endTime" : 4469,
                            "time" : 4439,
                            "value" : -581.8181818181,
                            "duration" : 30
                          },
                          {
                            "endTime" : 4992,
                            "time" : 4962,
                            "value" : 986.363636363861,
                            "duration" : 30
                          },
                          {
                            "endTime" : 5236,
                            "time" : 5206,
                            "value" : 49.4545454549895,
                            "duration" : 30
                          },
                          {
                            "endTime" : 5442,
                            "time" : 5412,
                            "value" : 908.545454546065,
                            "duration" : 30
                          },
                          {
                            "endTime" : 6736,
                            "time" : 6706,
                            "value" : 447.999999999954,
                            "duration" : 30
                          }
                        ]
                      },
                      "translation1" : {
                        "type" : "double",
                        "defaultValue" : -155.999999999973,
                        "keyframes" : [
                          {
                            "endTime" : 1043,
                            "time" : 1013,
                            "value" : 101.692307692331,
                            "duration" : 30
                          },
                          {
                            "endTime" : 1141,
                            "time" : 1111,
                            "value" : -156.0,
                            "duration" : 30
                          },
                          {
                            "endTime" : 2358,
                            "time" : 2328,
                            "value" : 217.076923076909,
                            "duration" : 30
                          },
                          {
                            "endTime" : 2478,
                            "time" : 2448,
                            "value" : -59.6153846154014,
                            "duration" : 30
                          },
                          {
                            "endTime" : 3666,
                            "time" : 3636,
                            "value" : -179.81818181819,
                            "duration" : 30
                          },
                          {
                            "endTime" : 4066,
                            "time" : 4036,
                            "value" : -347.999999999825,
                            "duration" : 30
                          },
                          {
                            "endTime" : 4469,
                            "time" : 4439,
                            "value" : -372.999999999852,
                            "duration" : 30
                          },
                          {
                            "endTime" : 4992,
                            "time" : 4962,
                            "value" : -539.999999999761,
                            "duration" : 30
                          },
                          {
                            "endTime" : 5236,
                            "time" : 5206,
                            "value" : 62.1818181819394,
                            "duration" : 30
                          },
                          {
                            "endTime" : 5442,
                            "time" : 5412,
                            "value" : -474.181818181744,
                            "duration" : 30
                          },
                          {
                            "endTime" : 6736,
                            "time" : 6706,
                            "value" : -471.90909090916,
                            "duration" : 30
                          }
                        ]
                      },
                      "scale0" : {
                        "type" : "double",
                        "defaultValue" : 1.66533333333333,
                        "keyframes" : [
                          {
                            "endTime" : 1043,
                            "time" : 1013,
                            "value" : 1.0,
                            "duration" : 30
                          },
                          {
                            "endTime" : 3666,
                            "time" : 3636,
                            "value" : 2.12275,
                            "duration" : 30
                          },
                          {
                            "endTime" : 4066,
                            "time" : 4036,
                            "value" : 1.66533333333333,
                            "duration" : 30
                          },
                          {
                            "endTime" : 4469,
                            "time" : 4439,
                            "value" : 2.66333333333333,
                            "duration" : 30
                          },
                          {
                            "endTime" : 4992,
                            "time" : 4962,
                            "value" : 2.28908333333333,
                            "duration" : 30
                          },
                          {
                            "endTime" : 5236,
                            "time" : 5206,
                            "value" : 1.2495,
                            "duration" : 30
                          },
                          {
                            "endTime" : 5442,
                            "time" : 5412,
                            "value" : 2.54658333333333,
                            "duration" : 30
                          }
                        ]
                      },
                      "scale1" : {
                        "type" : "double",
                        "defaultValue" : 1.66533333333333,
                        "keyframes" : [
                          {
                            "endTime" : 1043,
                            "time" : 1013,
                            "value" : 1.0,
                            "duration" : 30
                          },
                          {
                            "endTime" : 3666,
                            "time" : 3636,
                            "value" : 2.12275,
                            "duration" : 30
                          },
                          {
                            "endTime" : 4066,
                            "time" : 4036,
                            "value" : 1.66533333333333,
                            "duration" : 30
                          },
                          {
                            "endTime" : 4469,
                            "time" : 4439,
                            "value" : 2.66333333333333,
                            "duration" : 30
                          },
                          {
                            "endTime" : 4992,
                            "time" : 4962,
                            "value" : 2.28908333333333,
                            "duration" : 30
                          },
                          {
                            "endTime" : 5236,
                            "time" : 5206,
                            "value" : 1.2495,
                            "duration" : 30
                          },
                          {
                            "endTime" : 5442,
                            "time" : 5412,
                            "value" : 2.54658333333333,
                            "duration" : 30
                          }
                        ]
                      },
                      "cursorOpacity" : 1.0,
                      "cursorScale" : 1.0
                    },
                    "medias" : [
                        {
                          "id" : 169,
                          "_type" : "ScreenVMFile",
                          "src" : 7,
                          "trackNumber" : 0,
                          "attributes" : {
                            "ident" : "Rec 02-07-19_001"
                          },
                          "parameters" : {
                            "cursorScale" : {
                              "type" : "double",
                              "defaultValue" : 0.0,
                              "interp" : "linr"
                            },
                            "cursorOpacity" : {
                              "type" : "double",
                              "defaultValue" : 0.0,
                              "interp" : "linr"
                            }
                          },
                          "effects" : [

                          ],
                          "start" : 0,
                          "duration" : 496,
                          "mediaStart" : 0,
                          "mediaDuration" : 496,
                          "scalar" : 1,
                          "metadata" : {
                            "AutoAppliedSmartFocus" : "False",
                            "WinSubProjectDisplayName" : "",
                            "clipSpeedAttribute" : false,
                            "default-scale0" : 1.0,
                            "default-scale1" : 1.0,
                            "default-translation0" : 0.0,
                            "default-translation1" : 0.0
                          },
                          "animationTracks" : {

                          }
                        },
                        {
                          "id" : 170,
                          "_type" : "ScreenVMFile",
                          "src" : 7,
                          "trackNumber" : 0,
                          "attributes" : {
                            "ident" : "Rec 02-07-19_001"
                          },
                          "parameters" : {
                            "cursorScale" : {
                              "type" : "double",
                              "defaultValue" : 0.0,
                              "interp" : "linr"
                            },
                            "cursorOpacity" : {
                              "type" : "double",
                              "defaultValue" : 0.0,
                              "interp" : "linr"
                            }
                          },
                          "effects" : [

                          ],
                          "start" : 496,
                          "duration" : 190,
                          "mediaStart" : 715,
                          "mediaDuration" : 190,
                          "scalar" : 1,
                          "metadata" : {
                            "AutoAppliedSmartFocus" : "False",
                            "WinSubProjectDisplayName" : "",
                            "clipSpeedAttribute" : false,
                            "default-scale0" : 1.0,
                            "default-scale1" : 1.0,
                            "default-translation0" : 0.0,
                            "default-translation1" : 0.0
                          },
                          "animationTracks" : {

                          }
                        },
                        {
                          "id" : 171,
                          "_type" : "ScreenVMFile",
                          "src" : 7,
                          "trackNumber" : 0,
                          "attributes" : {
                            "ident" : "Rec 02-07-19_001"
                          },
                          "parameters" : {
                            "cursorScale" : {
                              "type" : "double",
                              "defaultValue" : 0.0,
                              "interp" : "linr"
                            },
                            "cursorOpacity" : {
                              "type" : "double",
                              "defaultValue" : 0.0,
                              "interp" : "linr"
                            }
                          },
                          "effects" : [

                          ],
                          "start" : 686,
                          "duration" : 239,
                          "mediaStart" : 1444,
                          "mediaDuration" : 239,
                          "scalar" : 1,
                          "metadata" : {
                            "AutoAppliedSmartFocus" : "False",
                            "WinSubProjectDisplayName" : "",
                            "clipSpeedAttribute" : false,
                            "default-scale0" : 1.0,
                            "default-scale1" : 1.0,
                            "default-translation0" : 0.0,
                            "default-translation1" : 0.0
                          },
                          "animationTracks" : {

                          }
                        },
                        {
                          "id" : 172,
                          "_type" : "ScreenVMFile",
                          "src" : 7,
                          "trackNumber" : 0,
                          "attributes" : {
                            "ident" : "Rec 02-07-19_001"
                          },
                          "parameters" : {
                            "cursorScale" : {
                              "type" : "double",
                              "defaultValue" : 0.0,
                              "interp" : "linr"
                            },
                            "cursorOpacity" : {
                              "type" : "double",
                              "defaultValue" : 0.0,
                              "interp" : "linr"
                            }
                          },
                          "effects" : [

                          ],
                          "start" : 925,
                          "duration" : 128,
                          "mediaStart" : 1750,
                          "mediaDuration" : 128,
                          "scalar" : 1,
                          "metadata" : {
                            "AutoAppliedSmartFocus" : "False",
                            "WinSubProjectDisplayName" : "",
                            "clipSpeedAttribute" : false,
                            "default-scale0" : 1.0,
                            "default-scale1" : 1.0,
                            "default-translation0" : 0.0,
                            "default-translation1" : 0.0
                          },
                          "animationTracks" : {

                          }
                        },
                        {
                          "id" : 173,
                          "_type" : "ScreenVMFile",
                          "src" : 7,
                          "trackNumber" : 0,
                          "attributes" : {
                            "ident" : "Rec 02-07-19_001"
                          },
                          "parameters" : {
                            "cursorScale" : {
                              "type" : "double",
                              "defaultValue" : 0.0,
                              "interp" : "linr"
                            },
                            "cursorOpacity" : {
                              "type" : "double",
                              "defaultValue" : 0.0,
                              "interp" : "linr"
                            }
                          },
                          "effects" : [

                          ],
                          "start" : 1053,
                          "duration" : 298,
                          "mediaStart" : 1939,
                          "mediaDuration" : 298,
                          "scalar" : 1,
                          "metadata" : {
                            "AutoAppliedSmartFocus" : "False",
                            "WinSubProjectDisplayName" : "",
                            "clipSpeedAttribute" : false,
                            "default-scale0" : 1.0,
                            "default-scale1" : 1.0,
                            "default-translation0" : 0.0,
                            "default-translation1" : 0.0
                          },
                          "animationTracks" : {

                          }
                        },
                        {
                          "id" : 174,
                          "_type" : "ScreenVMFile",
                          "src" : 7,
                          "trackNumber" : 0,
                          "attributes" : {
                            "ident" : "Rec 02-07-19_001"
                          },
                          "parameters" : {
                            "cursorScale" : {
                              "type" : "double",
                              "defaultValue" : 0.0,
                              "interp" : "linr"
                            },
                            "cursorOpacity" : {
                              "type" : "double",
                              "defaultValue" : 0.0,
                              "interp" : "linr"
                            }
                          },
                          "effects" : [

                          ],
                          "start" : 1351,
                          "duration" : 524,
                          "mediaStart" : 2386,
                          "mediaDuration" : 524,
                          "scalar" : 1,
                          "metadata" : {
                            "AutoAppliedSmartFocus" : "False",
                            "WinSubProjectDisplayName" : "",
                            "clipSpeedAttribute" : false,
                            "default-scale0" : 1.0,
                            "default-scale1" : 1.0,
                            "default-translation0" : 0.0,
                            "default-translation1" : 0.0
                          },
                          "animationTracks" : {

                          }
                        },
                        {
                          "id" : 175,
                          "_type" : "ScreenVMFile",
                          "src" : 7,
                          "trackNumber" : 0,
                          "attributes" : {
                            "ident" : "Rec 02-07-19_001"
                          },
                          "parameters" : {
                            "cursorScale" : {
                              "type" : "double",
                              "defaultValue" : 0.0,
                              "interp" : "linr"
                            },
                            "cursorOpacity" : {
                              "type" : "double",
                              "defaultValue" : 0.0,
                              "interp" : "linr"
                            }
                          },
                          "effects" : [

                          ],
                          "start" : 1875,
                          "duration" : 143,
                          "mediaStart" : 3086,
                          "mediaDuration" : 143,
                          "scalar" : 1,
                          "metadata" : {
                            "AutoAppliedSmartFocus" : "False",
                            "WinSubProjectDisplayName" : "",
                            "clipSpeedAttribute" : false,
                            "default-scale0" : 1.0,
                            "default-scale1" : 1.0,
                            "default-translation0" : 0.0,
                            "default-translation1" : 0.0
                          },
                          "animationTracks" : {

                          }
                        },
                        {
                          "id" : 176,
                          "_type" : "ScreenVMFile",
                          "src" : 7,
                          "trackNumber" : 0,
                          "attributes" : {
                            "ident" : "Rec 02-07-19_001"
                          },
                          "parameters" : {
                            "cursorScale" : {
                              "type" : "double",
                              "defaultValue" : 0.0,
                              "interp" : "linr"
                            },
                            "cursorOpacity" : {
                              "type" : "double",
                              "defaultValue" : 0.0,
                              "interp" : "linr"
                            }
                          },
                          "effects" : [

                          ],
                          "start" : 2018,
                          "duration" : 1362,
                          "mediaStart" : 3692,
                          "mediaDuration" : 1362,
                          "scalar" : 1,
                          "metadata" : {
                            "AutoAppliedSmartFocus" : "False",
                            "WinSubProjectDisplayName" : "",
                            "clipSpeedAttribute" : false,
                            "default-scale0" : 1.0,
                            "default-scale1" : 1.0,
                            "default-translation0" : 0.0,
                            "default-translation1" : 0.0
                          },
                          "animationTracks" : {

                          }
                        },
                        {
                          "id" : 177,
                          "_type" : "ScreenVMFile",
                          "src" : 7,
                          "trackNumber" : 0,
                          "attributes" : {
                            "ident" : "Rec 02-07-19_001"
                          },
                          "parameters" : {
                            "cursorScale" : {
                              "type" : "double",
                              "defaultValue" : 0.0,
                              "interp" : "linr"
                            },
                            "cursorOpacity" : {
                              "type" : "double",
                              "defaultValue" : 0.0,
                              "interp" : "linr"
                            }
                          },
                          "effects" : [

                          ],
                          "start" : 3380,
                          "duration" : 218,
                          "mediaStart" : 5246,
                          "mediaDuration" : 218,
                          "scalar" : 1,
                          "metadata" : {
                            "AutoAppliedSmartFocus" : "False",
                            "WinSubProjectDisplayName" : "",
                            "clipSpeedAttribute" : false,
                            "default-scale0" : 1.0,
                            "default-scale1" : 1.0,
                            "default-translation0" : 0.0,
                            "default-translation1" : 0.0
                          },
                          "animationTracks" : {

                          }
                        },
                        {
                          "id" : 178,
                          "_type" : "ScreenVMFile",
                          "src" : 7,
                          "trackNumber" : 0,
                          "attributes" : {
                            "ident" : "Rec 02-07-19_001"
                          },
                          "parameters" : {
                            "cursorScale" : {
                              "type" : "double",
                              "defaultValue" : 0.0,
                              "interp" : "linr"
                            },
                            "cursorOpacity" : {
                              "type" : "double",
                              "defaultValue" : 0.0,
                              "interp" : "linr"
                            }
                          },
                          "effects" : [

                          ],
                          "start" : 3598,
                          "duration" : 473,
                          "mediaStart" : 6154,
                          "mediaDuration" : 473,
                          "scalar" : 1,
                          "metadata" : {
                            "AutoAppliedSmartFocus" : "False",
                            "WinSubProjectDisplayName" : "",
                            "clipSpeedAttribute" : false,
                            "default-scale0" : 1.0,
                            "default-scale1" : 1.0,
                            "default-translation0" : 0.0,
                            "default-translation1" : 0.0
                          },
                          "animationTracks" : {

                          }
                        },
                        {
                          "id" : 179,
                          "_type" : "ScreenVMFile",
                          "src" : 7,
                          "trackNumber" : 0,
                          "attributes" : {
                            "ident" : "Rec 02-07-19_001"
                          },
                          "parameters" : {
                            "cursorScale" : {
                              "type" : "double",
                              "defaultValue" : 0.0,
                              "interp" : "linr"
                            },
                            "cursorOpacity" : {
                              "type" : "double",
                              "defaultValue" : 0.0,
                              "interp" : "linr"
                            }
                          },
                          "effects" : [

                          ],
                          "start" : 4071,
                          "duration" : 164,
                          "mediaStart" : 6726,
                          "mediaDuration" : 164,
                          "scalar" : 1,
                          "metadata" : {
                            "AutoAppliedSmartFocus" : "False",
                            "WinSubProjectDisplayName" : "",
                            "clipSpeedAttribute" : false,
                            "default-scale0" : 1.0,
                            "default-scale1" : 1.0,
                            "default-translation0" : 0.0,
                            "default-translation1" : 0.0
                          },
                          "animationTracks" : {

                          }
                        },
                        {
                          "id" : 180,
                          "_type" : "ScreenVMFile",
                          "src" : 7,
                          "trackNumber" : 0,
                          "attributes" : {
                            "ident" : "Rec 02-07-19_001"
                          },
                          "parameters" : {
                            "cursorScale" : {
                              "type" : "double",
                              "defaultValue" : 0.0,
                              "interp" : "linr"
                            },
                            "cursorOpacity" : {
                              "type" : "double",
                              "defaultValue" : 0.0,
                              "interp" : "linr"
                            }
                          },
                          "effects" : [

                          ],
                          "start" : 4235,
                          "duration" : 1279,
                          "mediaStart" : 7107,
                          "mediaDuration" : 1279,
                          "scalar" : 1,
                          "metadata" : {
                            "AutoAppliedSmartFocus" : "False",
                            "WinSubProjectDisplayName" : "",
                            "clipSpeedAttribute" : false,
                            "default-scale0" : 1.0,
                            "default-scale1" : 1.0,
                            "default-translation0" : 0.0,
                            "default-translation1" : 0.0
                          },
                          "animationTracks" : {

                          }
                        },
                        {
                          "id" : 181,
                          "_type" : "ScreenVMFile",
                          "src" : 7,
                          "trackNumber" : 0,
                          "attributes" : {
                            "ident" : "Rec 02-07-19_001"
                          },
                          "parameters" : {
                            "cursorScale" : {
                              "type" : "double",
                              "defaultValue" : 0.0,
                              "interp" : "linr"
                            },
                            "cursorOpacity" : {
                              "type" : "double",
                              "defaultValue" : 0.0,
                              "interp" : "linr"
                            }
                          },
                          "effects" : [

                          ],
                          "start" : 5514,
                          "duration" : 1542,
                          "mediaStart" : 8518,
                          "mediaDuration" : 1542,
                          "scalar" : 1,
                          "metadata" : {
                            "AutoAppliedSmartFocus" : "False",
                            "WinSubProjectDisplayName" : "",
                            "clipSpeedAttribute" : false,
                            "default-scale0" : 1.0,
                            "default-scale1" : 1.0,
                            "default-translation0" : 0.0,
                            "default-translation1" : 0.0
                          },
                          "animationTracks" : {

                          }
                        },
                        {
                          "id" : 182,
                          "_type" : "ScreenVMFile",
                          "src" : 7,
                          "trackNumber" : 0,
                          "attributes" : {
                            "ident" : "Rec 02-07-19_001"
                          },
                          "parameters" : {
                            "cursorScale" : {
                              "type" : "double",
                              "defaultValue" : 0.0,
                              "interp" : "linr"
                            },
                            "cursorOpacity" : {
                              "type" : "double",
                              "defaultValue" : 0.0,
                              "interp" : "linr"
                            }
                          },
                          "effects" : [

                          ],
                          "start" : 7056,
                          "duration" : 16004,
                          "mediaStart" : 10392,
                          "mediaDuration" : 16004,
                          "scalar" : 1,
                          "metadata" : {
                            "AutoAppliedSmartFocus" : "False",
                            "WinSubProjectDisplayName" : "",
                            "clipSpeedAttribute" : false,
                            "default-scale0" : 1.0,
                            "default-scale1" : 1.0,
                            "default-translation0" : 0.0,
                            "default-translation1" : 0.0
                          },
                          "animationTracks" : {

                          }
                        }
                    ],
                    "effects" : [

                    ],
                    "start" : 19561,
                    "duration" : 1466,
                    "mediaStart" : 5925,
                    "mediaDuration" : 1466,
                    "scalar" : 1,
                    "metadata" : {
                      "AutoAppliedSmartFocus" : "False",
                      "WinSubProjectDisplayName" : "",
                      "clipSpeedAttribute" : false
                    },
                    "animationTracks" : {
                      "visual" : [
                        {
                          "endTime" : 1043,
                          "duration" : 30,
                          "range" : [ 1013, 30]
                        },
                        {
                          "endTime" : 1141,
                          "duration" : 30,
                          "range" : [ 1111, 30]
                        },
                        {
                          "endTime" : 2358,
                          "duration" : 30,
                          "range" : [ 2328, 30]
                        },
                        {
                          "endTime" : 2478,
                          "duration" : 30,
                          "range" : [ 2448, 30]
                        },
                        {
                          "endTime" : 3666,
                          "duration" : 30,
                          "range" : [ 3636, 30]
                        },
                        {
                          "endTime" : 4066,
                          "duration" : 30,
                          "range" : [ 4036, 30]
                        },
                        {
                          "endTime" : 4469,
                          "duration" : 30,
                          "range" : [ 4439, 30]
                        },
                        {
                          "endTime" : 4992,
                          "duration" : 30,
                          "range" : [ 4962, 30]
                        },
                        {
                          "endTime" : 5236,
                          "duration" : 30,
                          "range" : [ 5206, 30]
                        },
                        {
                          "endTime" : 5442,
                          "duration" : 30,
                          "range" : [ 5412, 30]
                        },
                        {
                          "endTime" : 6736,
                          "duration" : 30,
                          "range" : [ 6706, 30]
                        }
                      ]
                    }
                  },
                  {
                    "id" : 183,
                    "_type" : "StitchedMedia",
                    "minMediaStart" : 0,
                    "attributes" : {
                      "ident" : "Rec 02-07-19_001",
                      "gain" : 1.0,
                      "mixToMono" : false
                    },
                    "parameters" : {
                      "translation0" : {
                        "type" : "double",
                        "defaultValue" : 90.3846153842169,
                        "interp" : "eioe",
                        "keyframes" : [
                          {
                            "endTime" : 1043,
                            "time" : 1013,
                            "value" : 173.076923076545,
                            "duration" : 30
                          },
                          {
                            "endTime" : 1141,
                            "time" : 1111,
                            "value" : 90.4,
                            "duration" : 30
                          },
                          {
                            "endTime" : 2358,
                            "time" : 2328,
                            "value" : 134.630769230764,
                            "duration" : 30
                          },
                          {
                            "endTime" : 2478,
                            "time" : 2448,
                            "value" : 382.70769230741,
                            "duration" : 30
                          },
                          {
                            "endTime" : 3666,
                            "time" : 3636,
                            "value" : -560.474125874959,
                            "duration" : 30
                          },
                          {
                            "endTime" : 4066,
                            "time" : 4036,
                            "value" : 27.2727272727602,
                            "duration" : 30
                          },
                          {
                            "endTime" : 4469,
                            "time" : 4439,
                            "value" : -581.8181818181,
                            "duration" : 30
                          },
                          {
                            "endTime" : 4992,
                            "time" : 4962,
                            "value" : 986.363636363861,
                            "duration" : 30
                          },
                          {
                            "endTime" : 5236,
                            "time" : 5206,
                            "value" : 49.4545454549895,
                            "duration" : 30
                          },
                          {
                            "endTime" : 5442,
                            "time" : 5412,
                            "value" : 908.545454546065,
                            "duration" : 30
                          },
                          {
                            "endTime" : 6736,
                            "time" : 6706,
                            "value" : 447.999999999954,
                            "duration" : 30
                          }
                        ]
                      },
                      "translation1" : {
                        "type" : "double",
                        "defaultValue" : -155.999999999973,
                        "interp" : "eioe",
                        "keyframes" : [
                          {
                            "endTime" : 1043,
                            "time" : 1013,
                            "value" : 101.692307692331,
                            "duration" : 30
                          },
                          {
                            "endTime" : 1141,
                            "time" : 1111,
                            "value" : -156.0,
                            "duration" : 30
                          },
                          {
                            "endTime" : 2358,
                            "time" : 2328,
                            "value" : 217.076923076909,
                            "duration" : 30
                          },
                          {
                            "endTime" : 2478,
                            "time" : 2448,
                            "value" : -59.6153846154014,
                            "duration" : 30
                          },
                          {
                            "endTime" : 3666,
                            "time" : 3636,
                            "value" : -179.81818181819,
                            "duration" : 30
                          },
                          {
                            "endTime" : 4066,
                            "time" : 4036,
                            "value" : -347.999999999825,
                            "duration" : 30
                          },
                          {
                            "endTime" : 4469,
                            "time" : 4439,
                            "value" : -372.999999999852,
                            "duration" : 30
                          },
                          {
                            "endTime" : 4992,
                            "time" : 4962,
                            "value" : -539.999999999761,
                            "duration" : 30
                          },
                          {
                            "endTime" : 5236,
                            "time" : 5206,
                            "value" : 62.1818181819394,
                            "duration" : 30
                          },
                          {
                            "endTime" : 5442,
                            "time" : 5412,
                            "value" : -474.181818181744,
                            "duration" : 30
                          },
                          {
                            "endTime" : 6736,
                            "time" : 6706,
                            "value" : -471.90909090916,
                            "duration" : 30
                          }
                        ]
                      },
                      "scale0" : {
                        "type" : "double",
                        "defaultValue" : 1.66533333333333,
                        "interp" : "eioe",
                        "keyframes" : [
                          {
                            "endTime" : 1043,
                            "time" : 1013,
                            "value" : 1.0,
                            "duration" : 30
                          },
                          {
                            "endTime" : 3666,
                            "time" : 3636,
                            "value" : 2.12275,
                            "duration" : 30
                          },
                          {
                            "endTime" : 4066,
                            "time" : 4036,
                            "value" : 1.66533333333333,
                            "duration" : 30
                          },
                          {
                            "endTime" : 4469,
                            "time" : 4439,
                            "value" : 2.66333333333333,
                            "duration" : 30
                          },
                          {
                            "endTime" : 4992,
                            "time" : 4962,
                            "value" : 2.28908333333333,
                            "duration" : 30
                          },
                          {
                            "endTime" : 5236,
                            "time" : 5206,
                            "value" : 1.2495,
                            "duration" : 30
                          },
                          {
                            "endTime" : 5442,
                            "time" : 5412,
                            "value" : 2.54658333333333,
                            "duration" : 30
                          }
                        ]
                      },
                      "scale1" : {
                        "type" : "double",
                        "defaultValue" : 1.66533333333333,
                        "interp" : "eioe",
                        "keyframes" : [
                          {
                            "endTime" : 1043,
                            "time" : 1013,
                            "value" : 1.0,
                            "duration" : 30
                          },
                          {
                            "endTime" : 3666,
                            "time" : 3636,
                            "value" : 2.12275,
                            "duration" : 30
                          },
                          {
                            "endTime" : 4066,
                            "time" : 4036,
                            "value" : 1.66533333333333,
                            "duration" : 30
                          },
                          {
                            "endTime" : 4469,
                            "time" : 4439,
                            "value" : 2.66333333333333,
                            "duration" : 30
                          },
                          {
                            "endTime" : 4992,
                            "time" : 4962,
                            "value" : 2.28908333333333,
                            "duration" : 30
                          },
                          {
                            "endTime" : 5236,
                            "time" : 5206,
                            "value" : 1.2495,
                            "duration" : 30
                          },
                          {
                            "endTime" : 5442,
                            "time" : 5412,
                            "value" : 2.54658333333333,
                            "duration" : 30
                          }
                        ]
                      },
                      "cursorOpacity" : {
                        "type" : "double",
                        "defaultValue" : 1.0,
                        "interp" : "linr"
                      },
                      "cursorScale" : {
                        "type" : "double",
                        "defaultValue" : 1.0,
                        "interp" : "linr"
                      }
                    },
                    "medias" : [
                        {
                          "id" : 184,
                          "_type" : "ScreenVMFile",
                          "src" : 7,
                          "trackNumber" : 0,
                          "attributes" : {
                            "ident" : "Rec 02-07-19_001"
                          },
                          "parameters" : {
                            "cursorScale" : {
                              "type" : "double",
                              "defaultValue" : 0.0,
                              "interp" : "linr"
                            },
                            "cursorOpacity" : {
                              "type" : "double",
                              "defaultValue" : 0.0,
                              "interp" : "linr"
                            }
                          },
                          "effects" : [

                          ],
                          "start" : 0,
                          "duration" : 496,
                          "mediaStart" : 0,
                          "mediaDuration" : 496,
                          "scalar" : 1,
                          "metadata" : {
                            "AutoAppliedSmartFocus" : "False",
                            "WinSubProjectDisplayName" : "",
                            "clipSpeedAttribute" : false,
                            "default-scale0" : 1.0,
                            "default-scale1" : 1.0,
                            "default-translation0" : 0.0,
                            "default-translation1" : 0.0
                          },
                          "animationTracks" : {

                          }
                        },
                        {
                          "id" : 185,
                          "_type" : "ScreenVMFile",
                          "src" : 7,
                          "trackNumber" : 0,
                          "attributes" : {
                            "ident" : "Rec 02-07-19_001"
                          },
                          "parameters" : {
                            "cursorScale" : {
                              "type" : "double",
                              "defaultValue" : 0.0,
                              "interp" : "linr"
                            },
                            "cursorOpacity" : {
                              "type" : "double",
                              "defaultValue" : 0.0,
                              "interp" : "linr"
                            }
                          },
                          "effects" : [

                          ],
                          "start" : 496,
                          "duration" : 190,
                          "mediaStart" : 715,
                          "mediaDuration" : 190,
                          "scalar" : 1,
                          "metadata" : {
                            "AutoAppliedSmartFocus" : "False",
                            "WinSubProjectDisplayName" : "",
                            "clipSpeedAttribute" : false,
                            "default-scale0" : 1.0,
                            "default-scale1" : 1.0,
                            "default-translation0" : 0.0,
                            "default-translation1" : 0.0
                          },
                          "animationTracks" : {

                          }
                        },
                        {
                          "id" : 186,
                          "_type" : "ScreenVMFile",
                          "src" : 7,
                          "trackNumber" : 0,
                          "attributes" : {
                            "ident" : "Rec 02-07-19_001"
                          },
                          "parameters" : {
                            "cursorScale" : {
                              "type" : "double",
                              "defaultValue" : 0.0,
                              "interp" : "linr"
                            },
                            "cursorOpacity" : {
                              "type" : "double",
                              "defaultValue" : 0.0,
                              "interp" : "linr"
                            }
                          },
                          "effects" : [

                          ],
                          "start" : 686,
                          "duration" : 239,
                          "mediaStart" : 1444,
                          "mediaDuration" : 239,
                          "scalar" : 1,
                          "metadata" : {
                            "AutoAppliedSmartFocus" : "False",
                            "WinSubProjectDisplayName" : "",
                            "clipSpeedAttribute" : false,
                            "default-scale0" : 1.0,
                            "default-scale1" : 1.0,
                            "default-translation0" : 0.0,
                            "default-translation1" : 0.0
                          },
                          "animationTracks" : {

                          }
                        },
                        {
                          "id" : 187,
                          "_type" : "ScreenVMFile",
                          "src" : 7,
                          "trackNumber" : 0,
                          "attributes" : {
                            "ident" : "Rec 02-07-19_001"
                          },
                          "parameters" : {
                            "cursorScale" : {
                              "type" : "double",
                              "defaultValue" : 0.0,
                              "interp" : "linr"
                            },
                            "cursorOpacity" : {
                              "type" : "double",
                              "defaultValue" : 0.0,
                              "interp" : "linr"
                            }
                          },
                          "effects" : [

                          ],
                          "start" : 925,
                          "duration" : 128,
                          "mediaStart" : 1750,
                          "mediaDuration" : 128,
                          "scalar" : 1,
                          "metadata" : {
                            "AutoAppliedSmartFocus" : "False",
                            "WinSubProjectDisplayName" : "",
                            "clipSpeedAttribute" : false,
                            "default-scale0" : 1.0,
                            "default-scale1" : 1.0,
                            "default-translation0" : 0.0,
                            "default-translation1" : 0.0
                          },
                          "animationTracks" : {

                          }
                        },
                        {
                          "id" : 188,
                          "_type" : "ScreenVMFile",
                          "src" : 7,
                          "trackNumber" : 0,
                          "attributes" : {
                            "ident" : "Rec 02-07-19_001"
                          },
                          "parameters" : {
                            "cursorScale" : {
                              "type" : "double",
                              "defaultValue" : 0.0,
                              "interp" : "linr"
                            },
                            "cursorOpacity" : {
                              "type" : "double",
                              "defaultValue" : 0.0,
                              "interp" : "linr"
                            }
                          },
                          "effects" : [

                          ],
                          "start" : 1053,
                          "duration" : 298,
                          "mediaStart" : 1939,
                          "mediaDuration" : 298,
                          "scalar" : 1,
                          "metadata" : {
                            "AutoAppliedSmartFocus" : "False",
                            "WinSubProjectDisplayName" : "",
                            "clipSpeedAttribute" : false,
                            "default-scale0" : 1.0,
                            "default-scale1" : 1.0,
                            "default-translation0" : 0.0,
                            "default-translation1" : 0.0
                          },
                          "animationTracks" : {

                          }
                        },
                        {
                          "id" : 189,
                          "_type" : "ScreenVMFile",
                          "src" : 7,
                          "trackNumber" : 0,
                          "attributes" : {
                            "ident" : "Rec 02-07-19_001"
                          },
                          "parameters" : {
                            "cursorScale" : {
                              "type" : "double",
                              "defaultValue" : 0.0,
                              "interp" : "linr"
                            },
                            "cursorOpacity" : {
                              "type" : "double",
                              "defaultValue" : 0.0,
                              "interp" : "linr"
                            }
                          },
                          "effects" : [

                          ],
                          "start" : 1351,
                          "duration" : 524,
                          "mediaStart" : 2386,
                          "mediaDuration" : 524,
                          "scalar" : 1,
                          "metadata" : {
                            "AutoAppliedSmartFocus" : "False",
                            "WinSubProjectDisplayName" : "",
                            "clipSpeedAttribute" : false,
                            "default-scale0" : 1.0,
                            "default-scale1" : 1.0,
                            "default-translation0" : 0.0,
                            "default-translation1" : 0.0
                          },
                          "animationTracks" : {

                          }
                        },
                        {
                          "id" : 190,
                          "_type" : "ScreenVMFile",
                          "src" : 7,
                          "trackNumber" : 0,
                          "attributes" : {
                            "ident" : "Rec 02-07-19_001"
                          },
                          "parameters" : {
                            "cursorScale" : {
                              "type" : "double",
                              "defaultValue" : 0.0,
                              "interp" : "linr"
                            },
                            "cursorOpacity" : {
                              "type" : "double",
                              "defaultValue" : 0.0,
                              "interp" : "linr"
                            }
                          },
                          "effects" : [

                          ],
                          "start" : 1875,
                          "duration" : 143,
                          "mediaStart" : 3086,
                          "mediaDuration" : 143,
                          "scalar" : 1,
                          "metadata" : {
                            "AutoAppliedSmartFocus" : "False",
                            "WinSubProjectDisplayName" : "",
                            "clipSpeedAttribute" : false,
                            "default-scale0" : 1.0,
                            "default-scale1" : 1.0,
                            "default-translation0" : 0.0,
                            "default-translation1" : 0.0
                          },
                          "animationTracks" : {

                          }
                        },
                        {
                          "id" : 191,
                          "_type" : "ScreenVMFile",
                          "src" : 7,
                          "trackNumber" : 0,
                          "attributes" : {
                            "ident" : "Rec 02-07-19_001"
                          },
                          "parameters" : {
                            "cursorScale" : {
                              "type" : "double",
                              "defaultValue" : 0.0,
                              "interp" : "linr"
                            },
                            "cursorOpacity" : {
                              "type" : "double",
                              "defaultValue" : 0.0,
                              "interp" : "linr"
                            }
                          },
                          "effects" : [

                          ],
                          "start" : 2018,
                          "duration" : 1362,
                          "mediaStart" : 3692,
                          "mediaDuration" : 1362,
                          "scalar" : 1,
                          "metadata" : {
                            "AutoAppliedSmartFocus" : "False",
                            "WinSubProjectDisplayName" : "",
                            "clipSpeedAttribute" : false,
                            "default-scale0" : 1.0,
                            "default-scale1" : 1.0,
                            "default-translation0" : 0.0,
                            "default-translation1" : 0.0
                          },
                          "animationTracks" : {

                          }
                        },
                        {
                          "id" : 192,
                          "_type" : "ScreenVMFile",
                          "src" : 7,
                          "trackNumber" : 0,
                          "attributes" : {
                            "ident" : "Rec 02-07-19_001"
                          },
                          "parameters" : {
                            "cursorScale" : {
                              "type" : "double",
                              "defaultValue" : 0.0,
                              "interp" : "linr"
                            },
                            "cursorOpacity" : {
                              "type" : "double",
                              "defaultValue" : 0.0,
                              "interp" : "linr"
                            }
                          },
                          "effects" : [

                          ],
                          "start" : 3380,
                          "duration" : 218,
                          "mediaStart" : 5246,
                          "mediaDuration" : 218,
                          "scalar" : 1,
                          "metadata" : {
                            "AutoAppliedSmartFocus" : "False",
                            "WinSubProjectDisplayName" : "",
                            "clipSpeedAttribute" : false,
                            "default-scale0" : 1.0,
                            "default-scale1" : 1.0,
                            "default-translation0" : 0.0,
                            "default-translation1" : 0.0
                          },
                          "animationTracks" : {

                          }
                        },
                        {
                          "id" : 193,
                          "_type" : "ScreenVMFile",
                          "src" : 7,
                          "trackNumber" : 0,
                          "attributes" : {
                            "ident" : "Rec 02-07-19_001"
                          },
                          "parameters" : {
                            "cursorScale" : {
                              "type" : "double",
                              "defaultValue" : 0.0,
                              "interp" : "linr"
                            },
                            "cursorOpacity" : {
                              "type" : "double",
                              "defaultValue" : 0.0,
                              "interp" : "linr"
                            }
                          },
                          "effects" : [

                          ],
                          "start" : 3598,
                          "duration" : 473,
                          "mediaStart" : 6154,
                          "mediaDuration" : 473,
                          "scalar" : 1,
                          "metadata" : {
                            "AutoAppliedSmartFocus" : "False",
                            "WinSubProjectDisplayName" : "",
                            "clipSpeedAttribute" : false,
                            "default-scale0" : 1.0,
                            "default-scale1" : 1.0,
                            "default-translation0" : 0.0,
                            "default-translation1" : 0.0
                          },
                          "animationTracks" : {

                          }
                        },
                        {
                          "id" : 194,
                          "_type" : "ScreenVMFile",
                          "src" : 7,
                          "trackNumber" : 0,
                          "attributes" : {
                            "ident" : "Rec 02-07-19_001"
                          },
                          "parameters" : {
                            "cursorScale" : {
                              "type" : "double",
                              "defaultValue" : 0.0,
                              "interp" : "linr"
                            },
                            "cursorOpacity" : {
                              "type" : "double",
                              "defaultValue" : 0.0,
                              "interp" : "linr"
                            }
                          },
                          "effects" : [

                          ],
                          "start" : 4071,
                          "duration" : 164,
                          "mediaStart" : 6726,
                          "mediaDuration" : 164,
                          "scalar" : 1,
                          "metadata" : {
                            "AutoAppliedSmartFocus" : "False",
                            "WinSubProjectDisplayName" : "",
                            "clipSpeedAttribute" : false,
                            "default-scale0" : 1.0,
                            "default-scale1" : 1.0,
                            "default-translation0" : 0.0,
                            "default-translation1" : 0.0
                          },
                          "animationTracks" : {

                          }
                        },
                        {
                          "id" : 195,
                          "_type" : "ScreenVMFile",
                          "src" : 7,
                          "trackNumber" : 0,
                          "attributes" : {
                            "ident" : "Rec 02-07-19_001"
                          },
                          "parameters" : {
                            "cursorScale" : {
                              "type" : "double",
                              "defaultValue" : 0.0,
                              "interp" : "linr"
                            },
                            "cursorOpacity" : {
                              "type" : "double",
                              "defaultValue" : 0.0,
                              "interp" : "linr"
                            }
                          },
                          "effects" : [

                          ],
                          "start" : 4235,
                          "duration" : 1279,
                          "mediaStart" : 7107,
                          "mediaDuration" : 1279,
                          "scalar" : 1,
                          "metadata" : {
                            "AutoAppliedSmartFocus" : "False",
                            "WinSubProjectDisplayName" : "",
                            "clipSpeedAttribute" : false,
                            "default-scale0" : 1.0,
                            "default-scale1" : 1.0,
                            "default-translation0" : 0.0,
                            "default-translation1" : 0.0
                          },
                          "animationTracks" : {

                          }
                        },
                        {
                          "id" : 196,
                          "_type" : "ScreenVMFile",
                          "src" : 7,
                          "trackNumber" : 0,
                          "attributes" : {
                            "ident" : "Rec 02-07-19_001"
                          },
                          "parameters" : {
                            "cursorScale" : {
                              "type" : "double",
                              "defaultValue" : 0.0,
                              "interp" : "linr"
                            },
                            "cursorOpacity" : {
                              "type" : "double",
                              "defaultValue" : 0.0,
                              "interp" : "linr"
                            }
                          },
                          "effects" : [

                          ],
                          "start" : 5514,
                          "duration" : 1542,
                          "mediaStart" : 8518,
                          "mediaDuration" : 1542,
                          "scalar" : 1,
                          "metadata" : {
                            "AutoAppliedSmartFocus" : "False",
                            "WinSubProjectDisplayName" : "",
                            "clipSpeedAttribute" : false,
                            "default-scale0" : 1.0,
                            "default-scale1" : 1.0,
                            "default-translation0" : 0.0,
                            "default-translation1" : 0.0
                          },
                          "animationTracks" : {

                          }
                        },
                        {
                          "id" : 197,
                          "_type" : "ScreenVMFile",
                          "src" : 7,
                          "trackNumber" : 0,
                          "attributes" : {
                            "ident" : "Rec 02-07-19_001"
                          },
                          "parameters" : {
                            "cursorScale" : {
                              "type" : "double",
                              "defaultValue" : 0.0,
                              "interp" : "linr"
                            },
                            "cursorOpacity" : {
                              "type" : "double",
                              "defaultValue" : 0.0,
                              "interp" : "linr"
                            }
                          },
                          "effects" : [

                          ],
                          "start" : 7056,
                          "duration" : 16004,
                          "mediaStart" : 10392,
                          "mediaDuration" : 16004,
                          "scalar" : 1,
                          "metadata" : {
                            "AutoAppliedSmartFocus" : "False",
                            "WinSubProjectDisplayName" : "",
                            "clipSpeedAttribute" : false,
                            "default-scale0" : 1.0,
                            "default-scale1" : 1.0,
                            "default-translation0" : 0.0,
                            "default-translation1" : 0.0
                          },
                          "animationTracks" : {

                          }
                        }
                    ],
                    "effects" : [

                    ],
                    "start" : 21027,
                    "duration" : 166,
                    "mediaStart" : 7391,
                    "mediaDuration" : 497,
                    "scalar" : "166/497",
                    "metadata" : {
                      "AutoAppliedSmartFocus" : "False",
                      "WinSubProjectDisplayName" : "",
                      "clipSpeedAttribute" : true
                    },
                    "animationTracks" : {
                      "visual" : [
                        {
                          "endTime" : 1043,
                          "duration" : 30,
                          "range" : [ 1013, 30]
                        },
                        {
                          "endTime" : 1141,
                          "duration" : 30,
                          "range" : [ 1111, 30]
                        },
                        {
                          "endTime" : 2358,
                          "duration" : 30,
                          "range" : [ 2328, 30]
                        },
                        {
                          "endTime" : 2478,
                          "duration" : 30,
                          "range" : [ 2448, 30]
                        },
                        {
                          "endTime" : 3666,
                          "duration" : 30,
                          "range" : [ 3636, 30]
                        },
                        {
                          "endTime" : 4066,
                          "duration" : 30,
                          "range" : [ 4036, 30]
                        },
                        {
                          "endTime" : 4469,
                          "duration" : 30,
                          "range" : [ 4439, 30]
                        },
                        {
                          "endTime" : 4992,
                          "duration" : 30,
                          "range" : [ 4962, 30]
                        },
                        {
                          "endTime" : 5236,
                          "duration" : 30,
                          "range" : [ 5206, 30]
                        },
                        {
                          "endTime" : 5442,
                          "duration" : 30,
                          "range" : [ 5412, 30]
                        },
                        {
                          "endTime" : 6736,
                          "duration" : 30,
                          "range" : [ 6706, 30]
                        }
                      ]
                    }
                  },
                  {
                    "id" : 198,
                    "_type" : "StitchedMedia",
                    "minMediaStart" : 0,
                    "attributes" : {
                      "ident" : "Rec 02-07-19_001",
                      "gain" : 1.0,
                      "mixToMono" : false
                    },
                    "parameters" : {
                      "translation0" : {
                        "type" : "double",
                        "defaultValue" : 90.3846153842169,
                        "keyframes" : [
                          {
                            "endTime" : 1043,
                            "time" : 1013,
                            "value" : 173.076923076545,
                            "duration" : 30
                          },
                          {
                            "endTime" : 1141,
                            "time" : 1111,
                            "value" : 90.4,
                            "duration" : 30
                          },
                          {
                            "endTime" : 2358,
                            "time" : 2328,
                            "value" : 134.630769230764,
                            "duration" : 30
                          },
                          {
                            "endTime" : 2478,
                            "time" : 2448,
                            "value" : 382.70769230741,
                            "duration" : 30
                          },
                          {
                            "endTime" : 3666,
                            "time" : 3636,
                            "value" : -560.474125874959,
                            "duration" : 30
                          },
                          {
                            "endTime" : 4066,
                            "time" : 4036,
                            "value" : 27.2727272727602,
                            "duration" : 30
                          },
                          {
                            "endTime" : 4469,
                            "time" : 4439,
                            "value" : -581.8181818181,
                            "duration" : 30
                          },
                          {
                            "endTime" : 4992,
                            "time" : 4962,
                            "value" : 986.363636363861,
                            "duration" : 30
                          },
                          {
                            "endTime" : 5236,
                            "time" : 5206,
                            "value" : 49.4545454549895,
                            "duration" : 30
                          },
                          {
                            "endTime" : 5442,
                            "time" : 5412,
                            "value" : 908.545454546065,
                            "duration" : 30
                          },
                          {
                            "endTime" : 6736,
                            "time" : 6706,
                            "value" : 447.999999999954,
                            "duration" : 30
                          },
                          {
                            "endTime" : 7923,
                            "time" : 7893,
                            "value" : 841.181818181749,
                            "duration" : 30
                          }
                        ]
                      },
                      "translation1" : {
                        "type" : "double",
                        "defaultValue" : -155.999999999973,
                        "keyframes" : [
                          {
                            "endTime" : 1043,
                            "time" : 1013,
                            "value" : 101.692307692331,
                            "duration" : 30
                          },
                          {
                            "endTime" : 1141,
                            "time" : 1111,
                            "value" : -156.0,
                            "duration" : 30
                          },
                          {
                            "endTime" : 2358,
                            "time" : 2328,
                            "value" : 217.076923076909,
                            "duration" : 30
                          },
                          {
                            "endTime" : 2478,
                            "time" : 2448,
                            "value" : -59.6153846154014,
                            "duration" : 30
                          },
                          {
                            "endTime" : 3666,
                            "time" : 3636,
                            "value" : -179.81818181819,
                            "duration" : 30
                          },
                          {
                            "endTime" : 4066,
                            "time" : 4036,
                            "value" : -347.999999999825,
                            "duration" : 30
                          },
                          {
                            "endTime" : 4469,
                            "time" : 4439,
                            "value" : -372.999999999852,
                            "duration" : 30
                          },
                          {
                            "endTime" : 4992,
                            "time" : 4962,
                            "value" : -539.999999999761,
                            "duration" : 30
                          },
                          {
                            "endTime" : 5236,
                            "time" : 5206,
                            "value" : 62.1818181819394,
                            "duration" : 30
                          },
                          {
                            "endTime" : 5442,
                            "time" : 5412,
                            "value" : -474.181818181744,
                            "duration" : 30
                          },
                          {
                            "endTime" : 6736,
                            "time" : 6706,
                            "value" : -471.90909090916,
                            "duration" : 30
                          },
                          {
                            "endTime" : 7923,
                            "time" : 7893,
                            "value" : -392.363636363758,
                            "duration" : 30
                          }
                        ]
                      },
                      "scale0" : {
                        "type" : "double",
                        "defaultValue" : 1.66533333333333,
                        "keyframes" : [
                          {
                            "endTime" : 1043,
                            "time" : 1013,
                            "value" : 1.0,
                            "duration" : 30
                          },
                          {
                            "endTime" : 3666,
                            "time" : 3636,
                            "value" : 2.12275,
                            "duration" : 30
                          },
                          {
                            "endTime" : 4066,
                            "time" : 4036,
                            "value" : 1.66533333333333,
                            "duration" : 30
                          },
                          {
                            "endTime" : 4469,
                            "time" : 4439,
                            "value" : 2.66333333333333,
                            "duration" : 30
                          },
                          {
                            "endTime" : 4992,
                            "time" : 4962,
                            "value" : 2.28908333333333,
                            "duration" : 30
                          },
                          {
                            "endTime" : 5236,
                            "time" : 5206,
                            "value" : 1.2495,
                            "duration" : 30
                          },
                          {
                            "endTime" : 5442,
                            "time" : 5412,
                            "value" : 2.54658333333333,
                            "duration" : 30
                          }
                        ]
                      },
                      "scale1" : {
                        "type" : "double",
                        "defaultValue" : 1.66533333333333,
                        "keyframes" : [
                          {
                            "endTime" : 1043,
                            "time" : 1013,
                            "value" : 1.0,
                            "duration" : 30
                          },
                          {
                            "endTime" : 3666,
                            "time" : 3636,
                            "value" : 2.12275,
                            "duration" : 30
                          },
                          {
                            "endTime" : 4066,
                            "time" : 4036,
                            "value" : 1.66533333333333,
                            "duration" : 30
                          },
                          {
                            "endTime" : 4469,
                            "time" : 4439,
                            "value" : 2.66333333333333,
                            "duration" : 30
                          },
                          {
                            "endTime" : 4992,
                            "time" : 4962,
                            "value" : 2.28908333333333,
                            "duration" : 30
                          },
                          {
                            "endTime" : 5236,
                            "time" : 5206,
                            "value" : 1.2495,
                            "duration" : 30
                          },
                          {
                            "endTime" : 5442,
                            "time" : 5412,
                            "value" : 2.54658333333333,
                            "duration" : 30
                          }
                        ]
                      },
                      "cursorOpacity" : 1.0,
                      "cursorScale" : 1.0
                    },
                    "medias" : [
                        {
                          "id" : 199,
                          "_type" : "ScreenVMFile",
                          "src" : 7,
                          "trackNumber" : 0,
                          "attributes" : {
                            "ident" : "Rec 02-07-19_001"
                          },
                          "parameters" : {
                            "cursorScale" : {
                              "type" : "double",
                              "defaultValue" : 0.0,
                              "interp" : "linr"
                            },
                            "cursorOpacity" : {
                              "type" : "double",
                              "defaultValue" : 0.0,
                              "interp" : "linr"
                            }
                          },
                          "effects" : [

                          ],
                          "start" : 0,
                          "duration" : 496,
                          "mediaStart" : 0,
                          "mediaDuration" : 496,
                          "scalar" : 1,
                          "metadata" : {
                            "AutoAppliedSmartFocus" : "False",
                            "WinSubProjectDisplayName" : "",
                            "clipSpeedAttribute" : false,
                            "default-scale0" : 1.0,
                            "default-scale1" : 1.0,
                            "default-translation0" : 0.0,
                            "default-translation1" : 0.0
                          },
                          "animationTracks" : {

                          }
                        },
                        {
                          "id" : 200,
                          "_type" : "ScreenVMFile",
                          "src" : 7,
                          "trackNumber" : 0,
                          "attributes" : {
                            "ident" : "Rec 02-07-19_001"
                          },
                          "parameters" : {
                            "cursorScale" : {
                              "type" : "double",
                              "defaultValue" : 0.0,
                              "interp" : "linr"
                            },
                            "cursorOpacity" : {
                              "type" : "double",
                              "defaultValue" : 0.0,
                              "interp" : "linr"
                            }
                          },
                          "effects" : [

                          ],
                          "start" : 496,
                          "duration" : 190,
                          "mediaStart" : 715,
                          "mediaDuration" : 190,
                          "scalar" : 1,
                          "metadata" : {
                            "AutoAppliedSmartFocus" : "False",
                            "WinSubProjectDisplayName" : "",
                            "clipSpeedAttribute" : false,
                            "default-scale0" : 1.0,
                            "default-scale1" : 1.0,
                            "default-translation0" : 0.0,
                            "default-translation1" : 0.0
                          },
                          "animationTracks" : {

                          }
                        },
                        {
                          "id" : 201,
                          "_type" : "ScreenVMFile",
                          "src" : 7,
                          "trackNumber" : 0,
                          "attributes" : {
                            "ident" : "Rec 02-07-19_001"
                          },
                          "parameters" : {
                            "cursorScale" : {
                              "type" : "double",
                              "defaultValue" : 0.0,
                              "interp" : "linr"
                            },
                            "cursorOpacity" : {
                              "type" : "double",
                              "defaultValue" : 0.0,
                              "interp" : "linr"
                            }
                          },
                          "effects" : [

                          ],
                          "start" : 686,
                          "duration" : 239,
                          "mediaStart" : 1444,
                          "mediaDuration" : 239,
                          "scalar" : 1,
                          "metadata" : {
                            "AutoAppliedSmartFocus" : "False",
                            "WinSubProjectDisplayName" : "",
                            "clipSpeedAttribute" : false,
                            "default-scale0" : 1.0,
                            "default-scale1" : 1.0,
                            "default-translation0" : 0.0,
                            "default-translation1" : 0.0
                          },
                          "animationTracks" : {

                          }
                        },
                        {
                          "id" : 202,
                          "_type" : "ScreenVMFile",
                          "src" : 7,
                          "trackNumber" : 0,
                          "attributes" : {
                            "ident" : "Rec 02-07-19_001"
                          },
                          "parameters" : {
                            "cursorScale" : {
                              "type" : "double",
                              "defaultValue" : 0.0,
                              "interp" : "linr"
                            },
                            "cursorOpacity" : {
                              "type" : "double",
                              "defaultValue" : 0.0,
                              "interp" : "linr"
                            }
                          },
                          "effects" : [

                          ],
                          "start" : 925,
                          "duration" : 128,
                          "mediaStart" : 1750,
                          "mediaDuration" : 128,
                          "scalar" : 1,
                          "metadata" : {
                            "AutoAppliedSmartFocus" : "False",
                            "WinSubProjectDisplayName" : "",
                            "clipSpeedAttribute" : false,
                            "default-scale0" : 1.0,
                            "default-scale1" : 1.0,
                            "default-translation0" : 0.0,
                            "default-translation1" : 0.0
                          },
                          "animationTracks" : {

                          }
                        },
                        {
                          "id" : 203,
                          "_type" : "ScreenVMFile",
                          "src" : 7,
                          "trackNumber" : 0,
                          "attributes" : {
                            "ident" : "Rec 02-07-19_001"
                          },
                          "parameters" : {
                            "cursorScale" : {
                              "type" : "double",
                              "defaultValue" : 0.0,
                              "interp" : "linr"
                            },
                            "cursorOpacity" : {
                              "type" : "double",
                              "defaultValue" : 0.0,
                              "interp" : "linr"
                            }
                          },
                          "effects" : [

                          ],
                          "start" : 1053,
                          "duration" : 298,
                          "mediaStart" : 1939,
                          "mediaDuration" : 298,
                          "scalar" : 1,
                          "metadata" : {
                            "AutoAppliedSmartFocus" : "False",
                            "WinSubProjectDisplayName" : "",
                            "clipSpeedAttribute" : false,
                            "default-scale0" : 1.0,
                            "default-scale1" : 1.0,
                            "default-translation0" : 0.0,
                            "default-translation1" : 0.0
                          },
                          "animationTracks" : {

                          }
                        },
                        {
                          "id" : 204,
                          "_type" : "ScreenVMFile",
                          "src" : 7,
                          "trackNumber" : 0,
                          "attributes" : {
                            "ident" : "Rec 02-07-19_001"
                          },
                          "parameters" : {
                            "cursorScale" : {
                              "type" : "double",
                              "defaultValue" : 0.0,
                              "interp" : "linr"
                            },
                            "cursorOpacity" : {
                              "type" : "double",
                              "defaultValue" : 0.0,
                              "interp" : "linr"
                            }
                          },
                          "effects" : [

                          ],
                          "start" : 1351,
                          "duration" : 524,
                          "mediaStart" : 2386,
                          "mediaDuration" : 524,
                          "scalar" : 1,
                          "metadata" : {
                            "AutoAppliedSmartFocus" : "False",
                            "WinSubProjectDisplayName" : "",
                            "clipSpeedAttribute" : false,
                            "default-scale0" : 1.0,
                            "default-scale1" : 1.0,
                            "default-translation0" : 0.0,
                            "default-translation1" : 0.0
                          },
                          "animationTracks" : {

                          }
                        },
                        {
                          "id" : 205,
                          "_type" : "ScreenVMFile",
                          "src" : 7,
                          "trackNumber" : 0,
                          "attributes" : {
                            "ident" : "Rec 02-07-19_001"
                          },
                          "parameters" : {
                            "cursorScale" : {
                              "type" : "double",
                              "defaultValue" : 0.0,
                              "interp" : "linr"
                            },
                            "cursorOpacity" : {
                              "type" : "double",
                              "defaultValue" : 0.0,
                              "interp" : "linr"
                            }
                          },
                          "effects" : [

                          ],
                          "start" : 1875,
                          "duration" : 143,
                          "mediaStart" : 3086,
                          "mediaDuration" : 143,
                          "scalar" : 1,
                          "metadata" : {
                            "AutoAppliedSmartFocus" : "False",
                            "WinSubProjectDisplayName" : "",
                            "clipSpeedAttribute" : false,
                            "default-scale0" : 1.0,
                            "default-scale1" : 1.0,
                            "default-translation0" : 0.0,
                            "default-translation1" : 0.0
                          },
                          "animationTracks" : {

                          }
                        },
                        {
                          "id" : 206,
                          "_type" : "ScreenVMFile",
                          "src" : 7,
                          "trackNumber" : 0,
                          "attributes" : {
                            "ident" : "Rec 02-07-19_001"
                          },
                          "parameters" : {
                            "cursorScale" : {
                              "type" : "double",
                              "defaultValue" : 0.0,
                              "interp" : "linr"
                            },
                            "cursorOpacity" : {
                              "type" : "double",
                              "defaultValue" : 0.0,
                              "interp" : "linr"
                            }
                          },
                          "effects" : [

                          ],
                          "start" : 2018,
                          "duration" : 1362,
                          "mediaStart" : 3692,
                          "mediaDuration" : 1362,
                          "scalar" : 1,
                          "metadata" : {
                            "AutoAppliedSmartFocus" : "False",
                            "WinSubProjectDisplayName" : "",
                            "clipSpeedAttribute" : false,
                            "default-scale0" : 1.0,
                            "default-scale1" : 1.0,
                            "default-translation0" : 0.0,
                            "default-translation1" : 0.0
                          },
                          "animationTracks" : {

                          }
                        },
                        {
                          "id" : 207,
                          "_type" : "ScreenVMFile",
                          "src" : 7,
                          "trackNumber" : 0,
                          "attributes" : {
                            "ident" : "Rec 02-07-19_001"
                          },
                          "parameters" : {
                            "cursorScale" : {
                              "type" : "double",
                              "defaultValue" : 0.0,
                              "interp" : "linr"
                            },
                            "cursorOpacity" : {
                              "type" : "double",
                              "defaultValue" : 0.0,
                              "interp" : "linr"
                            }
                          },
                          "effects" : [

                          ],
                          "start" : 3380,
                          "duration" : 218,
                          "mediaStart" : 5246,
                          "mediaDuration" : 218,
                          "scalar" : 1,
                          "metadata" : {
                            "AutoAppliedSmartFocus" : "False",
                            "WinSubProjectDisplayName" : "",
                            "clipSpeedAttribute" : false,
                            "default-scale0" : 1.0,
                            "default-scale1" : 1.0,
                            "default-translation0" : 0.0,
                            "default-translation1" : 0.0
                          },
                          "animationTracks" : {

                          }
                        },
                        {
                          "id" : 208,
                          "_type" : "ScreenVMFile",
                          "src" : 7,
                          "trackNumber" : 0,
                          "attributes" : {
                            "ident" : "Rec 02-07-19_001"
                          },
                          "parameters" : {
                            "cursorScale" : {
                              "type" : "double",
                              "defaultValue" : 0.0,
                              "interp" : "linr"
                            },
                            "cursorOpacity" : {
                              "type" : "double",
                              "defaultValue" : 0.0,
                              "interp" : "linr"
                            }
                          },
                          "effects" : [

                          ],
                          "start" : 3598,
                          "duration" : 473,
                          "mediaStart" : 6154,
                          "mediaDuration" : 473,
                          "scalar" : 1,
                          "metadata" : {
                            "AutoAppliedSmartFocus" : "False",
                            "WinSubProjectDisplayName" : "",
                            "clipSpeedAttribute" : false,
                            "default-scale0" : 1.0,
                            "default-scale1" : 1.0,
                            "default-translation0" : 0.0,
                            "default-translation1" : 0.0
                          },
                          "animationTracks" : {

                          }
                        },
                        {
                          "id" : 209,
                          "_type" : "ScreenVMFile",
                          "src" : 7,
                          "trackNumber" : 0,
                          "attributes" : {
                            "ident" : "Rec 02-07-19_001"
                          },
                          "parameters" : {
                            "cursorScale" : {
                              "type" : "double",
                              "defaultValue" : 0.0,
                              "interp" : "linr"
                            },
                            "cursorOpacity" : {
                              "type" : "double",
                              "defaultValue" : 0.0,
                              "interp" : "linr"
                            }
                          },
                          "effects" : [

                          ],
                          "start" : 4071,
                          "duration" : 164,
                          "mediaStart" : 6726,
                          "mediaDuration" : 164,
                          "scalar" : 1,
                          "metadata" : {
                            "AutoAppliedSmartFocus" : "False",
                            "WinSubProjectDisplayName" : "",
                            "clipSpeedAttribute" : false,
                            "default-scale0" : 1.0,
                            "default-scale1" : 1.0,
                            "default-translation0" : 0.0,
                            "default-translation1" : 0.0
                          },
                          "animationTracks" : {

                          }
                        },
                        {
                          "id" : 210,
                          "_type" : "ScreenVMFile",
                          "src" : 7,
                          "trackNumber" : 0,
                          "attributes" : {
                            "ident" : "Rec 02-07-19_001"
                          },
                          "parameters" : {
                            "cursorScale" : {
                              "type" : "double",
                              "defaultValue" : 0.0,
                              "interp" : "linr"
                            },
                            "cursorOpacity" : {
                              "type" : "double",
                              "defaultValue" : 0.0,
                              "interp" : "linr"
                            }
                          },
                          "effects" : [

                          ],
                          "start" : 4235,
                          "duration" : 1279,
                          "mediaStart" : 7107,
                          "mediaDuration" : 1279,
                          "scalar" : 1,
                          "metadata" : {
                            "AutoAppliedSmartFocus" : "False",
                            "WinSubProjectDisplayName" : "",
                            "clipSpeedAttribute" : false,
                            "default-scale0" : 1.0,
                            "default-scale1" : 1.0,
                            "default-translation0" : 0.0,
                            "default-translation1" : 0.0
                          },
                          "animationTracks" : {

                          }
                        },
                        {
                          "id" : 211,
                          "_type" : "ScreenVMFile",
                          "src" : 7,
                          "trackNumber" : 0,
                          "attributes" : {
                            "ident" : "Rec 02-07-19_001"
                          },
                          "parameters" : {
                            "cursorScale" : {
                              "type" : "double",
                              "defaultValue" : 0.0,
                              "interp" : "linr"
                            },
                            "cursorOpacity" : {
                              "type" : "double",
                              "defaultValue" : 0.0,
                              "interp" : "linr"
                            }
                          },
                          "effects" : [

                          ],
                          "start" : 5514,
                          "duration" : 1542,
                          "mediaStart" : 8518,
                          "mediaDuration" : 1542,
                          "scalar" : 1,
                          "metadata" : {
                            "AutoAppliedSmartFocus" : "False",
                            "WinSubProjectDisplayName" : "",
                            "clipSpeedAttribute" : false,
                            "default-scale0" : 1.0,
                            "default-scale1" : 1.0,
                            "default-translation0" : 0.0,
                            "default-translation1" : 0.0
                          },
                          "animationTracks" : {

                          }
                        },
                        {
                          "id" : 212,
                          "_type" : "ScreenVMFile",
                          "src" : 7,
                          "trackNumber" : 0,
                          "attributes" : {
                            "ident" : "Rec 02-07-19_001"
                          },
                          "parameters" : {
                            "cursorScale" : {
                              "type" : "double",
                              "defaultValue" : 0.0,
                              "interp" : "linr"
                            },
                            "cursorOpacity" : {
                              "type" : "double",
                              "defaultValue" : 0.0,
                              "interp" : "linr"
                            }
                          },
                          "effects" : [

                          ],
                          "start" : 7056,
                          "duration" : 846,
                          "mediaStart" : 10392,
                          "mediaDuration" : 846,
                          "scalar" : 1,
                          "metadata" : {
                            "AutoAppliedSmartFocus" : "False",
                            "WinSubProjectDisplayName" : "",
                            "clipSpeedAttribute" : false,
                            "default-scale0" : 1.0,
                            "default-scale1" : 1.0,
                            "default-translation0" : 0.0,
                            "default-translation1" : 0.0
                          },
                          "animationTracks" : {

                          }
                        },
                        {
                          "id" : 213,
                          "_type" : "ScreenVMFile",
                          "src" : 7,
                          "trackNumber" : 0,
                          "attributes" : {
                            "ident" : "Rec 02-07-19_001"
                          },
                          "parameters" : {
                            "cursorScale" : {
                              "type" : "double",
                              "defaultValue" : 0.0,
                              "interp" : "linr"
                            },
                            "cursorOpacity" : {
                              "type" : "double",
                              "defaultValue" : 0.0,
                              "interp" : "linr"
                            }
                          },
                          "effects" : [

                          ],
                          "start" : 7902,
                          "duration" : 451,
                          "mediaStart" : 11363,
                          "mediaDuration" : 451,
                          "scalar" : 1,
                          "metadata" : {
                            "AutoAppliedSmartFocus" : "False",
                            "WinSubProjectDisplayName" : "",
                            "clipSpeedAttribute" : false,
                            "default-scale0" : 1.0,
                            "default-scale1" : 1.0,
                            "default-translation0" : 0.0,
                            "default-translation1" : 0.0
                          },
                          "animationTracks" : {

                          }
                        },
                        {
                          "id" : 214,
                          "_type" : "ScreenVMFile",
                          "src" : 7,
                          "trackNumber" : 0,
                          "attributes" : {
                            "ident" : "Rec 02-07-19_001"
                          },
                          "parameters" : {
                            "cursorScale" : {
                              "type" : "double",
                              "defaultValue" : 0.0,
                              "interp" : "linr"
                            },
                            "cursorOpacity" : {
                              "type" : "double",
                              "defaultValue" : 0.0,
                              "interp" : "linr"
                            }
                          },
                          "effects" : [

                          ],
                          "start" : 8353,
                          "duration" : 423,
                          "mediaStart" : 12079,
                          "mediaDuration" : 423,
                          "scalar" : 1,
                          "metadata" : {
                            "AutoAppliedSmartFocus" : "False",
                            "WinSubProjectDisplayName" : "",
                            "clipSpeedAttribute" : false,
                            "default-scale0" : 1.0,
                            "default-scale1" : 1.0,
                            "default-translation0" : 0.0,
                            "default-translation1" : 0.0
                          },
                          "animationTracks" : {

                          }
                        },
                        {
                          "id" : 215,
                          "_type" : "ScreenVMFile",
                          "src" : 7,
                          "trackNumber" : 0,
                          "attributes" : {
                            "ident" : "Rec 02-07-19_001"
                          },
                          "parameters" : {
                            "cursorScale" : {
                              "type" : "double",
                              "defaultValue" : 0.0,
                              "interp" : "linr"
                            },
                            "cursorOpacity" : {
                              "type" : "double",
                              "defaultValue" : 0.0,
                              "interp" : "linr"
                            }
                          },
                          "effects" : [

                          ],
                          "start" : 8776,
                          "duration" : 13589,
                          "mediaStart" : 12807,
                          "mediaDuration" : 13589,
                          "scalar" : 1,
                          "metadata" : {
                            "AutoAppliedSmartFocus" : "False",
                            "WinSubProjectDisplayName" : "",
                            "clipSpeedAttribute" : false,
                            "default-scale0" : 1.0,
                            "default-scale1" : 1.0,
                            "default-translation0" : 0.0,
                            "default-translation1" : 0.0
                          },
                          "animationTracks" : {

                          }
                        }
                    ],
                    "effects" : [

                    ],
                    "start" : 21193,
                    "duration" : 1219,
                    "mediaStart" : 7888,
                    "mediaDuration" : 1219,
                    "scalar" : 1,
                    "metadata" : {
                      "AutoAppliedSmartFocus" : "False",
                      "WinSubProjectDisplayName" : "",
                      "clipSpeedAttribute" : false
                    },
                    "animationTracks" : {
                      "visual" : [
                        {
                          "endTime" : 1043,
                          "duration" : 30,
                          "range" : [ 1013, 30]
                        },
                        {
                          "endTime" : 1141,
                          "duration" : 30,
                          "range" : [ 1111, 30]
                        },
                        {
                          "endTime" : 2358,
                          "duration" : 30,
                          "range" : [ 2328, 30]
                        },
                        {
                          "endTime" : 2478,
                          "duration" : 30,
                          "range" : [ 2448, 30]
                        },
                        {
                          "endTime" : 3666,
                          "duration" : 30,
                          "range" : [ 3636, 30]
                        },
                        {
                          "endTime" : 4066,
                          "duration" : 30,
                          "range" : [ 4036, 30]
                        },
                        {
                          "endTime" : 4469,
                          "duration" : 30,
                          "range" : [ 4439, 30]
                        },
                        {
                          "endTime" : 4992,
                          "duration" : 30,
                          "range" : [ 4962, 30]
                        },
                        {
                          "endTime" : 5236,
                          "duration" : 30,
                          "range" : [ 5206, 30]
                        },
                        {
                          "endTime" : 5442,
                          "duration" : 30,
                          "range" : [ 5412, 30]
                        },
                        {
                          "endTime" : 6736,
                          "duration" : 30,
                          "range" : [ 6706, 30]
                        },
                        {
                          "endTime" : 7923,
                          "duration" : 30,
                          "range" : [ 7893, 30]
                        }
                      ]
                    }
                  },
                  {
                    "id" : 216,
                    "_type" : "StitchedMedia",
                    "minMediaStart" : 0,
                    "attributes" : {
                      "ident" : "Rec 02-07-19_001",
                      "gain" : 1.0,
                      "mixToMono" : false
                    },
                    "parameters" : {
                      "translation0" : {
                        "type" : "double",
                        "defaultValue" : 90.3846153842169,
                        "interp" : "eioe",
                        "keyframes" : [
                          {
                            "endTime" : 1043,
                            "time" : 1013,
                            "value" : 173.076923076545,
                            "duration" : 30
                          },
                          {
                            "endTime" : 1141,
                            "time" : 1111,
                            "value" : 90.4,
                            "duration" : 30
                          },
                          {
                            "endTime" : 2358,
                            "time" : 2328,
                            "value" : 134.630769230764,
                            "duration" : 30
                          },
                          {
                            "endTime" : 2478,
                            "time" : 2448,
                            "value" : 382.70769230741,
                            "duration" : 30
                          },
                          {
                            "endTime" : 3666,
                            "time" : 3636,
                            "value" : -560.474125874959,
                            "duration" : 30
                          },
                          {
                            "endTime" : 4066,
                            "time" : 4036,
                            "value" : 27.2727272727602,
                            "duration" : 30
                          },
                          {
                            "endTime" : 4469,
                            "time" : 4439,
                            "value" : -581.8181818181,
                            "duration" : 30
                          },
                          {
                            "endTime" : 4992,
                            "time" : 4962,
                            "value" : 986.363636363861,
                            "duration" : 30
                          },
                          {
                            "endTime" : 5236,
                            "time" : 5206,
                            "value" : 49.4545454549895,
                            "duration" : 30
                          },
                          {
                            "endTime" : 5442,
                            "time" : 5412,
                            "value" : 908.545454546065,
                            "duration" : 30
                          },
                          {
                            "endTime" : 6736,
                            "time" : 6706,
                            "value" : 447.999999999954,
                            "duration" : 30
                          },
                          {
                            "endTime" : 7923,
                            "time" : 7893,
                            "value" : 841.181818181749,
                            "duration" : 30
                          }
                        ]
                      },
                      "translation1" : {
                        "type" : "double",
                        "defaultValue" : -155.999999999973,
                        "interp" : "eioe",
                        "keyframes" : [
                          {
                            "endTime" : 1043,
                            "time" : 1013,
                            "value" : 101.692307692331,
                            "duration" : 30
                          },
                          {
                            "endTime" : 1141,
                            "time" : 1111,
                            "value" : -156.0,
                            "duration" : 30
                          },
                          {
                            "endTime" : 2358,
                            "time" : 2328,
                            "value" : 217.076923076909,
                            "duration" : 30
                          },
                          {
                            "endTime" : 2478,
                            "time" : 2448,
                            "value" : -59.6153846154014,
                            "duration" : 30
                          },
                          {
                            "endTime" : 3666,
                            "time" : 3636,
                            "value" : -179.81818181819,
                            "duration" : 30
                          },
                          {
                            "endTime" : 4066,
                            "time" : 4036,
                            "value" : -347.999999999825,
                            "duration" : 30
                          },
                          {
                            "endTime" : 4469,
                            "time" : 4439,
                            "value" : -372.999999999852,
                            "duration" : 30
                          },
                          {
                            "endTime" : 4992,
                            "time" : 4962,
                            "value" : -539.999999999761,
                            "duration" : 30
                          },
                          {
                            "endTime" : 5236,
                            "time" : 5206,
                            "value" : 62.1818181819394,
                            "duration" : 30
                          },
                          {
                            "endTime" : 5442,
                            "time" : 5412,
                            "value" : -474.181818181744,
                            "duration" : 30
                          },
                          {
                            "endTime" : 6736,
                            "time" : 6706,
                            "value" : -471.90909090916,
                            "duration" : 30
                          },
                          {
                            "endTime" : 7923,
                            "time" : 7893,
                            "value" : -392.363636363758,
                            "duration" : 30
                          }
                        ]
                      },
                      "scale0" : {
                        "type" : "double",
                        "defaultValue" : 1.66533333333333,
                        "interp" : "eioe",
                        "keyframes" : [
                          {
                            "endTime" : 1043,
                            "time" : 1013,
                            "value" : 1.0,
                            "duration" : 30
                          },
                          {
                            "endTime" : 3666,
                            "time" : 3636,
                            "value" : 2.12275,
                            "duration" : 30
                          },
                          {
                            "endTime" : 4066,
                            "time" : 4036,
                            "value" : 1.66533333333333,
                            "duration" : 30
                          },
                          {
                            "endTime" : 4469,
                            "time" : 4439,
                            "value" : 2.66333333333333,
                            "duration" : 30
                          },
                          {
                            "endTime" : 4992,
                            "time" : 4962,
                            "value" : 2.28908333333333,
                            "duration" : 30
                          },
                          {
                            "endTime" : 5236,
                            "time" : 5206,
                            "value" : 1.2495,
                            "duration" : 30
                          },
                          {
                            "endTime" : 5442,
                            "time" : 5412,
                            "value" : 2.54658333333333,
                            "duration" : 30
                          }
                        ]
                      },
                      "scale1" : {
                        "type" : "double",
                        "defaultValue" : 1.66533333333333,
                        "interp" : "eioe",
                        "keyframes" : [
                          {
                            "endTime" : 1043,
                            "time" : 1013,
                            "value" : 1.0,
                            "duration" : 30
                          },
                          {
                            "endTime" : 3666,
                            "time" : 3636,
                            "value" : 2.12275,
                            "duration" : 30
                          },
                          {
                            "endTime" : 4066,
                            "time" : 4036,
                            "value" : 1.66533333333333,
                            "duration" : 30
                          },
                          {
                            "endTime" : 4469,
                            "time" : 4439,
                            "value" : 2.66333333333333,
                            "duration" : 30
                          },
                          {
                            "endTime" : 4992,
                            "time" : 4962,
                            "value" : 2.28908333333333,
                            "duration" : 30
                          },
                          {
                            "endTime" : 5236,
                            "time" : 5206,
                            "value" : 1.2495,
                            "duration" : 30
                          },
                          {
                            "endTime" : 5442,
                            "time" : 5412,
                            "value" : 2.54658333333333,
                            "duration" : 30
                          }
                        ]
                      },
                      "cursorOpacity" : {
                        "type" : "double",
                        "defaultValue" : 1.0,
                        "interp" : "linr"
                      },
                      "cursorScale" : {
                        "type" : "double",
                        "defaultValue" : 1.0,
                        "interp" : "linr"
                      }
                    },
                    "medias" : [
                        {
                          "id" : 217,
                          "_type" : "ScreenVMFile",
                          "src" : 7,
                          "trackNumber" : 0,
                          "attributes" : {
                            "ident" : "Rec 02-07-19_001"
                          },
                          "parameters" : {
                            "cursorScale" : {
                              "type" : "double",
                              "defaultValue" : 0.0,
                              "interp" : "linr"
                            },
                            "cursorOpacity" : {
                              "type" : "double",
                              "defaultValue" : 0.0,
                              "interp" : "linr"
                            }
                          },
                          "effects" : [

                          ],
                          "start" : 0,
                          "duration" : 496,
                          "mediaStart" : 0,
                          "mediaDuration" : 496,
                          "scalar" : 1,
                          "metadata" : {
                            "AutoAppliedSmartFocus" : "False",
                            "WinSubProjectDisplayName" : "",
                            "clipSpeedAttribute" : false,
                            "default-scale0" : 1.0,
                            "default-scale1" : 1.0,
                            "default-translation0" : 0.0,
                            "default-translation1" : 0.0
                          },
                          "animationTracks" : {

                          }
                        },
                        {
                          "id" : 218,
                          "_type" : "ScreenVMFile",
                          "src" : 7,
                          "trackNumber" : 0,
                          "attributes" : {
                            "ident" : "Rec 02-07-19_001"
                          },
                          "parameters" : {
                            "cursorScale" : {
                              "type" : "double",
                              "defaultValue" : 0.0,
                              "interp" : "linr"
                            },
                            "cursorOpacity" : {
                              "type" : "double",
                              "defaultValue" : 0.0,
                              "interp" : "linr"
                            }
                          },
                          "effects" : [

                          ],
                          "start" : 496,
                          "duration" : 190,
                          "mediaStart" : 715,
                          "mediaDuration" : 190,
                          "scalar" : 1,
                          "metadata" : {
                            "AutoAppliedSmartFocus" : "False",
                            "WinSubProjectDisplayName" : "",
                            "clipSpeedAttribute" : false,
                            "default-scale0" : 1.0,
                            "default-scale1" : 1.0,
                            "default-translation0" : 0.0,
                            "default-translation1" : 0.0
                          },
                          "animationTracks" : {

                          }
                        },
                        {
                          "id" : 219,
                          "_type" : "ScreenVMFile",
                          "src" : 7,
                          "trackNumber" : 0,
                          "attributes" : {
                            "ident" : "Rec 02-07-19_001"
                          },
                          "parameters" : {
                            "cursorScale" : {
                              "type" : "double",
                              "defaultValue" : 0.0,
                              "interp" : "linr"
                            },
                            "cursorOpacity" : {
                              "type" : "double",
                              "defaultValue" : 0.0,
                              "interp" : "linr"
                            }
                          },
                          "effects" : [

                          ],
                          "start" : 686,
                          "duration" : 239,
                          "mediaStart" : 1444,
                          "mediaDuration" : 239,
                          "scalar" : 1,
                          "metadata" : {
                            "AutoAppliedSmartFocus" : "False",
                            "WinSubProjectDisplayName" : "",
                            "clipSpeedAttribute" : false,
                            "default-scale0" : 1.0,
                            "default-scale1" : 1.0,
                            "default-translation0" : 0.0,
                            "default-translation1" : 0.0
                          },
                          "animationTracks" : {

                          }
                        },
                        {
                          "id" : 220,
                          "_type" : "ScreenVMFile",
                          "src" : 7,
                          "trackNumber" : 0,
                          "attributes" : {
                            "ident" : "Rec 02-07-19_001"
                          },
                          "parameters" : {
                            "cursorScale" : {
                              "type" : "double",
                              "defaultValue" : 0.0,
                              "interp" : "linr"
                            },
                            "cursorOpacity" : {
                              "type" : "double",
                              "defaultValue" : 0.0,
                              "interp" : "linr"
                            }
                          },
                          "effects" : [

                          ],
                          "start" : 925,
                          "duration" : 128,
                          "mediaStart" : 1750,
                          "mediaDuration" : 128,
                          "scalar" : 1,
                          "metadata" : {
                            "AutoAppliedSmartFocus" : "False",
                            "WinSubProjectDisplayName" : "",
                            "clipSpeedAttribute" : false,
                            "default-scale0" : 1.0,
                            "default-scale1" : 1.0,
                            "default-translation0" : 0.0,
                            "default-translation1" : 0.0
                          },
                          "animationTracks" : {

                          }
                        },
                        {
                          "id" : 221,
                          "_type" : "ScreenVMFile",
                          "src" : 7,
                          "trackNumber" : 0,
                          "attributes" : {
                            "ident" : "Rec 02-07-19_001"
                          },
                          "parameters" : {
                            "cursorScale" : {
                              "type" : "double",
                              "defaultValue" : 0.0,
                              "interp" : "linr"
                            },
                            "cursorOpacity" : {
                              "type" : "double",
                              "defaultValue" : 0.0,
                              "interp" : "linr"
                            }
                          },
                          "effects" : [

                          ],
                          "start" : 1053,
                          "duration" : 298,
                          "mediaStart" : 1939,
                          "mediaDuration" : 298,
                          "scalar" : 1,
                          "metadata" : {
                            "AutoAppliedSmartFocus" : "False",
                            "WinSubProjectDisplayName" : "",
                            "clipSpeedAttribute" : false,
                            "default-scale0" : 1.0,
                            "default-scale1" : 1.0,
                            "default-translation0" : 0.0,
                            "default-translation1" : 0.0
                          },
                          "animationTracks" : {

                          }
                        },
                        {
                          "id" : 222,
                          "_type" : "ScreenVMFile",
                          "src" : 7,
                          "trackNumber" : 0,
                          "attributes" : {
                            "ident" : "Rec 02-07-19_001"
                          },
                          "parameters" : {
                            "cursorScale" : {
                              "type" : "double",
                              "defaultValue" : 0.0,
                              "interp" : "linr"
                            },
                            "cursorOpacity" : {
                              "type" : "double",
                              "defaultValue" : 0.0,
                              "interp" : "linr"
                            }
                          },
                          "effects" : [

                          ],
                          "start" : 1351,
                          "duration" : 524,
                          "mediaStart" : 2386,
                          "mediaDuration" : 524,
                          "scalar" : 1,
                          "metadata" : {
                            "AutoAppliedSmartFocus" : "False",
                            "WinSubProjectDisplayName" : "",
                            "clipSpeedAttribute" : false,
                            "default-scale0" : 1.0,
                            "default-scale1" : 1.0,
                            "default-translation0" : 0.0,
                            "default-translation1" : 0.0
                          },
                          "animationTracks" : {

                          }
                        },
                        {
                          "id" : 223,
                          "_type" : "ScreenVMFile",
                          "src" : 7,
                          "trackNumber" : 0,
                          "attributes" : {
                            "ident" : "Rec 02-07-19_001"
                          },
                          "parameters" : {
                            "cursorScale" : {
                              "type" : "double",
                              "defaultValue" : 0.0,
                              "interp" : "linr"
                            },
                            "cursorOpacity" : {
                              "type" : "double",
                              "defaultValue" : 0.0,
                              "interp" : "linr"
                            }
                          },
                          "effects" : [

                          ],
                          "start" : 1875,
                          "duration" : 143,
                          "mediaStart" : 3086,
                          "mediaDuration" : 143,
                          "scalar" : 1,
                          "metadata" : {
                            "AutoAppliedSmartFocus" : "False",
                            "WinSubProjectDisplayName" : "",
                            "clipSpeedAttribute" : false,
                            "default-scale0" : 1.0,
                            "default-scale1" : 1.0,
                            "default-translation0" : 0.0,
                            "default-translation1" : 0.0
                          },
                          "animationTracks" : {

                          }
                        },
                        {
                          "id" : 224,
                          "_type" : "ScreenVMFile",
                          "src" : 7,
                          "trackNumber" : 0,
                          "attributes" : {
                            "ident" : "Rec 02-07-19_001"
                          },
                          "parameters" : {
                            "cursorScale" : {
                              "type" : "double",
                              "defaultValue" : 0.0,
                              "interp" : "linr"
                            },
                            "cursorOpacity" : {
                              "type" : "double",
                              "defaultValue" : 0.0,
                              "interp" : "linr"
                            }
                          },
                          "effects" : [

                          ],
                          "start" : 2018,
                          "duration" : 1362,
                          "mediaStart" : 3692,
                          "mediaDuration" : 1362,
                          "scalar" : 1,
                          "metadata" : {
                            "AutoAppliedSmartFocus" : "False",
                            "WinSubProjectDisplayName" : "",
                            "clipSpeedAttribute" : false,
                            "default-scale0" : 1.0,
                            "default-scale1" : 1.0,
                            "default-translation0" : 0.0,
                            "default-translation1" : 0.0
                          },
                          "animationTracks" : {

                          }
                        },
                        {
                          "id" : 225,
                          "_type" : "ScreenVMFile",
                          "src" : 7,
                          "trackNumber" : 0,
                          "attributes" : {
                            "ident" : "Rec 02-07-19_001"
                          },
                          "parameters" : {
                            "cursorScale" : {
                              "type" : "double",
                              "defaultValue" : 0.0,
                              "interp" : "linr"
                            },
                            "cursorOpacity" : {
                              "type" : "double",
                              "defaultValue" : 0.0,
                              "interp" : "linr"
                            }
                          },
                          "effects" : [

                          ],
                          "start" : 3380,
                          "duration" : 218,
                          "mediaStart" : 5246,
                          "mediaDuration" : 218,
                          "scalar" : 1,
                          "metadata" : {
                            "AutoAppliedSmartFocus" : "False",
                            "WinSubProjectDisplayName" : "",
                            "clipSpeedAttribute" : false,
                            "default-scale0" : 1.0,
                            "default-scale1" : 1.0,
                            "default-translation0" : 0.0,
                            "default-translation1" : 0.0
                          },
                          "animationTracks" : {

                          }
                        },
                        {
                          "id" : 226,
                          "_type" : "ScreenVMFile",
                          "src" : 7,
                          "trackNumber" : 0,
                          "attributes" : {
                            "ident" : "Rec 02-07-19_001"
                          },
                          "parameters" : {
                            "cursorScale" : {
                              "type" : "double",
                              "defaultValue" : 0.0,
                              "interp" : "linr"
                            },
                            "cursorOpacity" : {
                              "type" : "double",
                              "defaultValue" : 0.0,
                              "interp" : "linr"
                            }
                          },
                          "effects" : [

                          ],
                          "start" : 3598,
                          "duration" : 473,
                          "mediaStart" : 6154,
                          "mediaDuration" : 473,
                          "scalar" : 1,
                          "metadata" : {
                            "AutoAppliedSmartFocus" : "False",
                            "WinSubProjectDisplayName" : "",
                            "clipSpeedAttribute" : false,
                            "default-scale0" : 1.0,
                            "default-scale1" : 1.0,
                            "default-translation0" : 0.0,
                            "default-translation1" : 0.0
                          },
                          "animationTracks" : {

                          }
                        },
                        {
                          "id" : 227,
                          "_type" : "ScreenVMFile",
                          "src" : 7,
                          "trackNumber" : 0,
                          "attributes" : {
                            "ident" : "Rec 02-07-19_001"
                          },
                          "parameters" : {
                            "cursorScale" : {
                              "type" : "double",
                              "defaultValue" : 0.0,
                              "interp" : "linr"
                            },
                            "cursorOpacity" : {
                              "type" : "double",
                              "defaultValue" : 0.0,
                              "interp" : "linr"
                            }
                          },
                          "effects" : [

                          ],
                          "start" : 4071,
                          "duration" : 164,
                          "mediaStart" : 6726,
                          "mediaDuration" : 164,
                          "scalar" : 1,
                          "metadata" : {
                            "AutoAppliedSmartFocus" : "False",
                            "WinSubProjectDisplayName" : "",
                            "clipSpeedAttribute" : false,
                            "default-scale0" : 1.0,
                            "default-scale1" : 1.0,
                            "default-translation0" : 0.0,
                            "default-translation1" : 0.0
                          },
                          "animationTracks" : {

                          }
                        },
                        {
                          "id" : 228,
                          "_type" : "ScreenVMFile",
                          "src" : 7,
                          "trackNumber" : 0,
                          "attributes" : {
                            "ident" : "Rec 02-07-19_001"
                          },
                          "parameters" : {
                            "cursorScale" : {
                              "type" : "double",
                              "defaultValue" : 0.0,
                              "interp" : "linr"
                            },
                            "cursorOpacity" : {
                              "type" : "double",
                              "defaultValue" : 0.0,
                              "interp" : "linr"
                            }
                          },
                          "effects" : [

                          ],
                          "start" : 4235,
                          "duration" : 1279,
                          "mediaStart" : 7107,
                          "mediaDuration" : 1279,
                          "scalar" : 1,
                          "metadata" : {
                            "AutoAppliedSmartFocus" : "False",
                            "WinSubProjectDisplayName" : "",
                            "clipSpeedAttribute" : false,
                            "default-scale0" : 1.0,
                            "default-scale1" : 1.0,
                            "default-translation0" : 0.0,
                            "default-translation1" : 0.0
                          },
                          "animationTracks" : {

                          }
                        },
                        {
                          "id" : 229,
                          "_type" : "ScreenVMFile",
                          "src" : 7,
                          "trackNumber" : 0,
                          "attributes" : {
                            "ident" : "Rec 02-07-19_001"
                          },
                          "parameters" : {
                            "cursorScale" : {
                              "type" : "double",
                              "defaultValue" : 0.0,
                              "interp" : "linr"
                            },
                            "cursorOpacity" : {
                              "type" : "double",
                              "defaultValue" : 0.0,
                              "interp" : "linr"
                            }
                          },
                          "effects" : [

                          ],
                          "start" : 5514,
                          "duration" : 1542,
                          "mediaStart" : 8518,
                          "mediaDuration" : 1542,
                          "scalar" : 1,
                          "metadata" : {
                            "AutoAppliedSmartFocus" : "False",
                            "WinSubProjectDisplayName" : "",
                            "clipSpeedAttribute" : false,
                            "default-scale0" : 1.0,
                            "default-scale1" : 1.0,
                            "default-translation0" : 0.0,
                            "default-translation1" : 0.0
                          },
                          "animationTracks" : {

                          }
                        },
                        {
                          "id" : 230,
                          "_type" : "ScreenVMFile",
                          "src" : 7,
                          "trackNumber" : 0,
                          "attributes" : {
                            "ident" : "Rec 02-07-19_001"
                          },
                          "parameters" : {
                            "cursorScale" : {
                              "type" : "double",
                              "defaultValue" : 0.0,
                              "interp" : "linr"
                            },
                            "cursorOpacity" : {
                              "type" : "double",
                              "defaultValue" : 0.0,
                              "interp" : "linr"
                            }
                          },
                          "effects" : [

                          ],
                          "start" : 7056,
                          "duration" : 846,
                          "mediaStart" : 10392,
                          "mediaDuration" : 846,
                          "scalar" : 1,
                          "metadata" : {
                            "AutoAppliedSmartFocus" : "False",
                            "WinSubProjectDisplayName" : "",
                            "clipSpeedAttribute" : false,
                            "default-scale0" : 1.0,
                            "default-scale1" : 1.0,
                            "default-translation0" : 0.0,
                            "default-translation1" : 0.0
                          },
                          "animationTracks" : {

                          }
                        },
                        {
                          "id" : 231,
                          "_type" : "ScreenVMFile",
                          "src" : 7,
                          "trackNumber" : 0,
                          "attributes" : {
                            "ident" : "Rec 02-07-19_001"
                          },
                          "parameters" : {
                            "cursorScale" : {
                              "type" : "double",
                              "defaultValue" : 0.0,
                              "interp" : "linr"
                            },
                            "cursorOpacity" : {
                              "type" : "double",
                              "defaultValue" : 0.0,
                              "interp" : "linr"
                            }
                          },
                          "effects" : [

                          ],
                          "start" : 7902,
                          "duration" : 451,
                          "mediaStart" : 11363,
                          "mediaDuration" : 451,
                          "scalar" : 1,
                          "metadata" : {
                            "AutoAppliedSmartFocus" : "False",
                            "WinSubProjectDisplayName" : "",
                            "clipSpeedAttribute" : false,
                            "default-scale0" : 1.0,
                            "default-scale1" : 1.0,
                            "default-translation0" : 0.0,
                            "default-translation1" : 0.0
                          },
                          "animationTracks" : {

                          }
                        },
                        {
                          "id" : 232,
                          "_type" : "ScreenVMFile",
                          "src" : 7,
                          "trackNumber" : 0,
                          "attributes" : {
                            "ident" : "Rec 02-07-19_001"
                          },
                          "parameters" : {
                            "cursorScale" : {
                              "type" : "double",
                              "defaultValue" : 0.0,
                              "interp" : "linr"
                            },
                            "cursorOpacity" : {
                              "type" : "double",
                              "defaultValue" : 0.0,
                              "interp" : "linr"
                            }
                          },
                          "effects" : [

                          ],
                          "start" : 8353,
                          "duration" : 423,
                          "mediaStart" : 12079,
                          "mediaDuration" : 423,
                          "scalar" : 1,
                          "metadata" : {
                            "AutoAppliedSmartFocus" : "False",
                            "WinSubProjectDisplayName" : "",
                            "clipSpeedAttribute" : false,
                            "default-scale0" : 1.0,
                            "default-scale1" : 1.0,
                            "default-translation0" : 0.0,
                            "default-translation1" : 0.0
                          },
                          "animationTracks" : {

                          }
                        },
                        {
                          "id" : 233,
                          "_type" : "ScreenVMFile",
                          "src" : 7,
                          "trackNumber" : 0,
                          "attributes" : {
                            "ident" : "Rec 02-07-19_001"
                          },
                          "parameters" : {
                            "cursorScale" : {
                              "type" : "double",
                              "defaultValue" : 0.0,
                              "interp" : "linr"
                            },
                            "cursorOpacity" : {
                              "type" : "double",
                              "defaultValue" : 0.0,
                              "interp" : "linr"
                            }
                          },
                          "effects" : [

                          ],
                          "start" : 8776,
                          "duration" : 13589,
                          "mediaStart" : 12807,
                          "mediaDuration" : 13589,
                          "scalar" : 1,
                          "metadata" : {
                            "AutoAppliedSmartFocus" : "False",
                            "WinSubProjectDisplayName" : "",
                            "clipSpeedAttribute" : false,
                            "default-scale0" : 1.0,
                            "default-scale1" : 1.0,
                            "default-translation0" : 0.0,
                            "default-translation1" : 0.0
                          },
                          "animationTracks" : {

                          }
                        }
                    ],
                    "effects" : [

                    ],
                    "start" : 22412,
                    "duration" : 402,
                    "mediaStart" : 9107,
                    "mediaDuration" : 1609,
                    "scalar" : "402/1609",
                    "metadata" : {
                      "AutoAppliedSmartFocus" : "False",
                      "WinSubProjectDisplayName" : "",
                      "clipSpeedAttribute" : true
                    },
                    "animationTracks" : {
                      "visual" : [
                        {
                          "endTime" : 1043,
                          "duration" : 30,
                          "range" : [ 1013, 30]
                        },
                        {
                          "endTime" : 1141,
                          "duration" : 30,
                          "range" : [ 1111, 30]
                        },
                        {
                          "endTime" : 2358,
                          "duration" : 30,
                          "range" : [ 2328, 30]
                        },
                        {
                          "endTime" : 2478,
                          "duration" : 30,
                          "range" : [ 2448, 30]
                        },
                        {
                          "endTime" : 3666,
                          "duration" : 30,
                          "range" : [ 3636, 30]
                        },
                        {
                          "endTime" : 4066,
                          "duration" : 30,
                          "range" : [ 4036, 30]
                        },
                        {
                          "endTime" : 4469,
                          "duration" : 30,
                          "range" : [ 4439, 30]
                        },
                        {
                          "endTime" : 4992,
                          "duration" : 30,
                          "range" : [ 4962, 30]
                        },
                        {
                          "endTime" : 5236,
                          "duration" : 30,
                          "range" : [ 5206, 30]
                        },
                        {
                          "endTime" : 5442,
                          "duration" : 30,
                          "range" : [ 5412, 30]
                        },
                        {
                          "endTime" : 6736,
                          "duration" : 30,
                          "range" : [ 6706, 30]
                        },
                        {
                          "endTime" : 7923,
                          "duration" : 30,
                          "range" : [ 7893, 30]
                        }
                      ]
                    }
                  },
                  {
                    "id" : 234,
                    "_type" : "StitchedMedia",
                    "minMediaStart" : 0,
                    "attributes" : {
                      "ident" : "Rec 02-07-19_001",
                      "gain" : 1.0,
                      "mixToMono" : false
                    },
                    "parameters" : {
                      "translation0" : {
                        "type" : "double",
                        "defaultValue" : 90.3846153842169,
                        "interp" : "eioe",
                        "keyframes" : [
                          {
                            "endTime" : 1043,
                            "time" : 1013,
                            "value" : 173.076923076545,
                            "duration" : 30
                          },
                          {
                            "endTime" : 1141,
                            "time" : 1111,
                            "value" : 90.4,
                            "duration" : 30
                          },
                          {
                            "endTime" : 2358,
                            "time" : 2328,
                            "value" : 134.630769230764,
                            "duration" : 30
                          },
                          {
                            "endTime" : 2478,
                            "time" : 2448,
                            "value" : 382.70769230741,
                            "duration" : 30
                          },
                          {
                            "endTime" : 3666,
                            "time" : 3636,
                            "value" : -560.474125874959,
                            "duration" : 30
                          },
                          {
                            "endTime" : 4066,
                            "time" : 4036,
                            "value" : 27.2727272727602,
                            "duration" : 30
                          },
                          {
                            "endTime" : 4469,
                            "time" : 4439,
                            "value" : -581.8181818181,
                            "duration" : 30
                          },
                          {
                            "endTime" : 4992,
                            "time" : 4962,
                            "value" : 986.363636363861,
                            "duration" : 30
                          },
                          {
                            "endTime" : 5236,
                            "time" : 5206,
                            "value" : 49.4545454549895,
                            "duration" : 30
                          },
                          {
                            "endTime" : 5442,
                            "time" : 5412,
                            "value" : 908.545454546065,
                            "duration" : 30
                          },
                          {
                            "endTime" : 6736,
                            "time" : 6706,
                            "value" : 447.999999999954,
                            "duration" : 30
                          },
                          {
                            "endTime" : 7923,
                            "time" : 7893,
                            "value" : 841.181818181749,
                            "duration" : 30
                          },
                          {
                            "endTime" : 11994,
                            "time" : 11964,
                            "value" : 448.000000000077,
                            "duration" : 30
                          },
                          {
                            "endTime" : 12178,
                            "time" : 12148,
                            "value" : 98.0000000001039,
                            "duration" : 30
                          }
                        ]
                      },
                      "translation1" : {
                        "type" : "double",
                        "defaultValue" : -155.999999999973,
                        "interp" : "eioe",
                        "keyframes" : [
                          {
                            "endTime" : 1043,
                            "time" : 1013,
                            "value" : 101.692307692331,
                            "duration" : 30
                          },
                          {
                            "endTime" : 1141,
                            "time" : 1111,
                            "value" : -156.0,
                            "duration" : 30
                          },
                          {
                            "endTime" : 2358,
                            "time" : 2328,
                            "value" : 217.076923076909,
                            "duration" : 30
                          },
                          {
                            "endTime" : 2478,
                            "time" : 2448,
                            "value" : -59.6153846154014,
                            "duration" : 30
                          },
                          {
                            "endTime" : 3666,
                            "time" : 3636,
                            "value" : -179.81818181819,
                            "duration" : 30
                          },
                          {
                            "endTime" : 4066,
                            "time" : 4036,
                            "value" : -347.999999999825,
                            "duration" : 30
                          },
                          {
                            "endTime" : 4469,
                            "time" : 4439,
                            "value" : -372.999999999852,
                            "duration" : 30
                          },
                          {
                            "endTime" : 4992,
                            "time" : 4962,
                            "value" : -539.999999999761,
                            "duration" : 30
                          },
                          {
                            "endTime" : 5236,
                            "time" : 5206,
                            "value" : 62.1818181819394,
                            "duration" : 30
                          },
                          {
                            "endTime" : 5442,
                            "time" : 5412,
                            "value" : -474.181818181744,
                            "duration" : 30
                          },
                          {
                            "endTime" : 6736,
                            "time" : 6706,
                            "value" : -471.90909090916,
                            "duration" : 30
                          },
                          {
                            "endTime" : 7923,
                            "time" : 7893,
                            "value" : -392.363636363758,
                            "duration" : 30
                          },
                          {
                            "endTime" : 11994,
                            "time" : 11964,
                            "value" : -242.363636363752,
                            "duration" : 30
                          },
                          {
                            "endTime" : 12178,
                            "time" : 12148,
                            "value" : -101.454545454671,
                            "duration" : 30
                          }
                        ]
                      },
                      "scale0" : {
                        "type" : "double",
                        "defaultValue" : 1.66533333333333,
                        "interp" : "eioe",
                        "keyframes" : [
                          {
                            "endTime" : 1043,
                            "time" : 1013,
                            "value" : 1.0,
                            "duration" : 30
                          },
                          {
                            "endTime" : 3666,
                            "time" : 3636,
                            "value" : 2.12275,
                            "duration" : 30
                          },
                          {
                            "endTime" : 4066,
                            "time" : 4036,
                            "value" : 1.66533333333333,
                            "duration" : 30
                          },
                          {
                            "endTime" : 4469,
                            "time" : 4439,
                            "value" : 2.66333333333333,
                            "duration" : 30
                          },
                          {
                            "endTime" : 4992,
                            "time" : 4962,
                            "value" : 2.28908333333333,
                            "duration" : 30
                          },
                          {
                            "endTime" : 5236,
                            "time" : 5206,
                            "value" : 1.2495,
                            "duration" : 30
                          },
                          {
                            "endTime" : 5442,
                            "time" : 5412,
                            "value" : 2.54658333333333,
                            "duration" : 30
                          },
                          {
                            "endTime" : 11994,
                            "time" : 11964,
                            "value" : 1.78,
                            "duration" : 30
                          },
                          {
                            "endTime" : 12178,
                            "time" : 12148,
                            "value" : 2.778,
                            "duration" : 30
                          }
                        ]
                      },
                      "scale1" : {
                        "type" : "double",
                        "defaultValue" : 1.66533333333333,
                        "interp" : "eioe",
                        "keyframes" : [
                          {
                            "endTime" : 1043,
                            "time" : 1013,
                            "value" : 1.0,
                            "duration" : 30
                          },
                          {
                            "endTime" : 3666,
                            "time" : 3636,
                            "value" : 2.12275,
                            "duration" : 30
                          },
                          {
                            "endTime" : 4066,
                            "time" : 4036,
                            "value" : 1.66533333333333,
                            "duration" : 30
                          },
                          {
                            "endTime" : 4469,
                            "time" : 4439,
                            "value" : 2.66333333333333,
                            "duration" : 30
                          },
                          {
                            "endTime" : 4992,
                            "time" : 4962,
                            "value" : 2.28908333333333,
                            "duration" : 30
                          },
                          {
                            "endTime" : 5236,
                            "time" : 5206,
                            "value" : 1.2495,
                            "duration" : 30
                          },
                          {
                            "endTime" : 5442,
                            "time" : 5412,
                            "value" : 2.54658333333333,
                            "duration" : 30
                          },
                          {
                            "endTime" : 11994,
                            "time" : 11964,
                            "value" : 1.78,
                            "duration" : 30
                          },
                          {
                            "endTime" : 12178,
                            "time" : 12148,
                            "value" : 2.778,
                            "duration" : 30
                          }
                        ]
                      },
                      "cursorOpacity" : {
                        "type" : "double",
                        "defaultValue" : 1.0,
                        "interp" : "linr"
                      },
                      "cursorScale" : {
                        "type" : "double",
                        "defaultValue" : 1.0,
                        "interp" : "linr"
                      }
                    },
                    "medias" : [
                        {
                          "id" : 235,
                          "_type" : "ScreenVMFile",
                          "src" : 7,
                          "trackNumber" : 0,
                          "attributes" : {
                            "ident" : "Rec 02-07-19_001"
                          },
                          "parameters" : {
                            "cursorScale" : {
                              "type" : "double",
                              "defaultValue" : 0.0,
                              "interp" : "linr"
                            },
                            "cursorOpacity" : {
                              "type" : "double",
                              "defaultValue" : 0.0,
                              "interp" : "linr"
                            }
                          },
                          "effects" : [

                          ],
                          "start" : 0,
                          "duration" : 496,
                          "mediaStart" : 0,
                          "mediaDuration" : 496,
                          "scalar" : 1,
                          "metadata" : {
                            "AutoAppliedSmartFocus" : "False",
                            "WinSubProjectDisplayName" : "",
                            "clipSpeedAttribute" : false,
                            "default-scale0" : 1.0,
                            "default-scale1" : 1.0,
                            "default-translation0" : 0.0,
                            "default-translation1" : 0.0
                          },
                          "animationTracks" : {

                          }
                        },
                        {
                          "id" : 236,
                          "_type" : "ScreenVMFile",
                          "src" : 7,
                          "trackNumber" : 0,
                          "attributes" : {
                            "ident" : "Rec 02-07-19_001"
                          },
                          "parameters" : {
                            "cursorScale" : {
                              "type" : "double",
                              "defaultValue" : 0.0,
                              "interp" : "linr"
                            },
                            "cursorOpacity" : {
                              "type" : "double",
                              "defaultValue" : 0.0,
                              "interp" : "linr"
                            }
                          },
                          "effects" : [

                          ],
                          "start" : 496,
                          "duration" : 190,
                          "mediaStart" : 715,
                          "mediaDuration" : 190,
                          "scalar" : 1,
                          "metadata" : {
                            "AutoAppliedSmartFocus" : "False",
                            "WinSubProjectDisplayName" : "",
                            "clipSpeedAttribute" : false,
                            "default-scale0" : 1.0,
                            "default-scale1" : 1.0,
                            "default-translation0" : 0.0,
                            "default-translation1" : 0.0
                          },
                          "animationTracks" : {

                          }
                        },
                        {
                          "id" : 237,
                          "_type" : "ScreenVMFile",
                          "src" : 7,
                          "trackNumber" : 0,
                          "attributes" : {
                            "ident" : "Rec 02-07-19_001"
                          },
                          "parameters" : {
                            "cursorScale" : {
                              "type" : "double",
                              "defaultValue" : 0.0,
                              "interp" : "linr"
                            },
                            "cursorOpacity" : {
                              "type" : "double",
                              "defaultValue" : 0.0,
                              "interp" : "linr"
                            }
                          },
                          "effects" : [

                          ],
                          "start" : 686,
                          "duration" : 239,
                          "mediaStart" : 1444,
                          "mediaDuration" : 239,
                          "scalar" : 1,
                          "metadata" : {
                            "AutoAppliedSmartFocus" : "False",
                            "WinSubProjectDisplayName" : "",
                            "clipSpeedAttribute" : false,
                            "default-scale0" : 1.0,
                            "default-scale1" : 1.0,
                            "default-translation0" : 0.0,
                            "default-translation1" : 0.0
                          },
                          "animationTracks" : {

                          }
                        },
                        {
                          "id" : 238,
                          "_type" : "ScreenVMFile",
                          "src" : 7,
                          "trackNumber" : 0,
                          "attributes" : {
                            "ident" : "Rec 02-07-19_001"
                          },
                          "parameters" : {
                            "cursorScale" : {
                              "type" : "double",
                              "defaultValue" : 0.0,
                              "interp" : "linr"
                            },
                            "cursorOpacity" : {
                              "type" : "double",
                              "defaultValue" : 0.0,
                              "interp" : "linr"
                            }
                          },
                          "effects" : [

                          ],
                          "start" : 925,
                          "duration" : 128,
                          "mediaStart" : 1750,
                          "mediaDuration" : 128,
                          "scalar" : 1,
                          "metadata" : {
                            "AutoAppliedSmartFocus" : "False",
                            "WinSubProjectDisplayName" : "",
                            "clipSpeedAttribute" : false,
                            "default-scale0" : 1.0,
                            "default-scale1" : 1.0,
                            "default-translation0" : 0.0,
                            "default-translation1" : 0.0
                          },
                          "animationTracks" : {

                          }
                        },
                        {
                          "id" : 239,
                          "_type" : "ScreenVMFile",
                          "src" : 7,
                          "trackNumber" : 0,
                          "attributes" : {
                            "ident" : "Rec 02-07-19_001"
                          },
                          "parameters" : {
                            "cursorScale" : {
                              "type" : "double",
                              "defaultValue" : 0.0,
                              "interp" : "linr"
                            },
                            "cursorOpacity" : {
                              "type" : "double",
                              "defaultValue" : 0.0,
                              "interp" : "linr"
                            }
                          },
                          "effects" : [

                          ],
                          "start" : 1053,
                          "duration" : 298,
                          "mediaStart" : 1939,
                          "mediaDuration" : 298,
                          "scalar" : 1,
                          "metadata" : {
                            "AutoAppliedSmartFocus" : "False",
                            "WinSubProjectDisplayName" : "",
                            "clipSpeedAttribute" : false,
                            "default-scale0" : 1.0,
                            "default-scale1" : 1.0,
                            "default-translation0" : 0.0,
                            "default-translation1" : 0.0
                          },
                          "animationTracks" : {

                          }
                        },
                        {
                          "id" : 240,
                          "_type" : "ScreenVMFile",
                          "src" : 7,
                          "trackNumber" : 0,
                          "attributes" : {
                            "ident" : "Rec 02-07-19_001"
                          },
                          "parameters" : {
                            "cursorScale" : {
                              "type" : "double",
                              "defaultValue" : 0.0,
                              "interp" : "linr"
                            },
                            "cursorOpacity" : {
                              "type" : "double",
                              "defaultValue" : 0.0,
                              "interp" : "linr"
                            }
                          },
                          "effects" : [

                          ],
                          "start" : 1351,
                          "duration" : 524,
                          "mediaStart" : 2386,
                          "mediaDuration" : 524,
                          "scalar" : 1,
                          "metadata" : {
                            "AutoAppliedSmartFocus" : "False",
                            "WinSubProjectDisplayName" : "",
                            "clipSpeedAttribute" : false,
                            "default-scale0" : 1.0,
                            "default-scale1" : 1.0,
                            "default-translation0" : 0.0,
                            "default-translation1" : 0.0
                          },
                          "animationTracks" : {

                          }
                        },
                        {
                          "id" : 241,
                          "_type" : "ScreenVMFile",
                          "src" : 7,
                          "trackNumber" : 0,
                          "attributes" : {
                            "ident" : "Rec 02-07-19_001"
                          },
                          "parameters" : {
                            "cursorScale" : {
                              "type" : "double",
                              "defaultValue" : 0.0,
                              "interp" : "linr"
                            },
                            "cursorOpacity" : {
                              "type" : "double",
                              "defaultValue" : 0.0,
                              "interp" : "linr"
                            }
                          },
                          "effects" : [

                          ],
                          "start" : 1875,
                          "duration" : 143,
                          "mediaStart" : 3086,
                          "mediaDuration" : 143,
                          "scalar" : 1,
                          "metadata" : {
                            "AutoAppliedSmartFocus" : "False",
                            "WinSubProjectDisplayName" : "",
                            "clipSpeedAttribute" : false,
                            "default-scale0" : 1.0,
                            "default-scale1" : 1.0,
                            "default-translation0" : 0.0,
                            "default-translation1" : 0.0
                          },
                          "animationTracks" : {

                          }
                        },
                        {
                          "id" : 242,
                          "_type" : "ScreenVMFile",
                          "src" : 7,
                          "trackNumber" : 0,
                          "attributes" : {
                            "ident" : "Rec 02-07-19_001"
                          },
                          "parameters" : {
                            "cursorScale" : {
                              "type" : "double",
                              "defaultValue" : 0.0,
                              "interp" : "linr"
                            },
                            "cursorOpacity" : {
                              "type" : "double",
                              "defaultValue" : 0.0,
                              "interp" : "linr"
                            }
                          },
                          "effects" : [

                          ],
                          "start" : 2018,
                          "duration" : 1362,
                          "mediaStart" : 3692,
                          "mediaDuration" : 1362,
                          "scalar" : 1,
                          "metadata" : {
                            "AutoAppliedSmartFocus" : "False",
                            "WinSubProjectDisplayName" : "",
                            "clipSpeedAttribute" : false,
                            "default-scale0" : 1.0,
                            "default-scale1" : 1.0,
                            "default-translation0" : 0.0,
                            "default-translation1" : 0.0
                          },
                          "animationTracks" : {

                          }
                        },
                        {
                          "id" : 243,
                          "_type" : "ScreenVMFile",
                          "src" : 7,
                          "trackNumber" : 0,
                          "attributes" : {
                            "ident" : "Rec 02-07-19_001"
                          },
                          "parameters" : {
                            "cursorScale" : {
                              "type" : "double",
                              "defaultValue" : 0.0,
                              "interp" : "linr"
                            },
                            "cursorOpacity" : {
                              "type" : "double",
                              "defaultValue" : 0.0,
                              "interp" : "linr"
                            }
                          },
                          "effects" : [

                          ],
                          "start" : 3380,
                          "duration" : 218,
                          "mediaStart" : 5246,
                          "mediaDuration" : 218,
                          "scalar" : 1,
                          "metadata" : {
                            "AutoAppliedSmartFocus" : "False",
                            "WinSubProjectDisplayName" : "",
                            "clipSpeedAttribute" : false,
                            "default-scale0" : 1.0,
                            "default-scale1" : 1.0,
                            "default-translation0" : 0.0,
                            "default-translation1" : 0.0
                          },
                          "animationTracks" : {

                          }
                        },
                        {
                          "id" : 244,
                          "_type" : "ScreenVMFile",
                          "src" : 7,
                          "trackNumber" : 0,
                          "attributes" : {
                            "ident" : "Rec 02-07-19_001"
                          },
                          "parameters" : {
                            "cursorScale" : {
                              "type" : "double",
                              "defaultValue" : 0.0,
                              "interp" : "linr"
                            },
                            "cursorOpacity" : {
                              "type" : "double",
                              "defaultValue" : 0.0,
                              "interp" : "linr"
                            }
                          },
                          "effects" : [

                          ],
                          "start" : 3598,
                          "duration" : 473,
                          "mediaStart" : 6154,
                          "mediaDuration" : 473,
                          "scalar" : 1,
                          "metadata" : {
                            "AutoAppliedSmartFocus" : "False",
                            "WinSubProjectDisplayName" : "",
                            "clipSpeedAttribute" : false,
                            "default-scale0" : 1.0,
                            "default-scale1" : 1.0,
                            "default-translation0" : 0.0,
                            "default-translation1" : 0.0
                          },
                          "animationTracks" : {

                          }
                        },
                        {
                          "id" : 245,
                          "_type" : "ScreenVMFile",
                          "src" : 7,
                          "trackNumber" : 0,
                          "attributes" : {
                            "ident" : "Rec 02-07-19_001"
                          },
                          "parameters" : {
                            "cursorScale" : {
                              "type" : "double",
                              "defaultValue" : 0.0,
                              "interp" : "linr"
                            },
                            "cursorOpacity" : {
                              "type" : "double",
                              "defaultValue" : 0.0,
                              "interp" : "linr"
                            }
                          },
                          "effects" : [

                          ],
                          "start" : 4071,
                          "duration" : 164,
                          "mediaStart" : 6726,
                          "mediaDuration" : 164,
                          "scalar" : 1,
                          "metadata" : {
                            "AutoAppliedSmartFocus" : "False",
                            "WinSubProjectDisplayName" : "",
                            "clipSpeedAttribute" : false,
                            "default-scale0" : 1.0,
                            "default-scale1" : 1.0,
                            "default-translation0" : 0.0,
                            "default-translation1" : 0.0
                          },
                          "animationTracks" : {

                          }
                        },
                        {
                          "id" : 246,
                          "_type" : "ScreenVMFile",
                          "src" : 7,
                          "trackNumber" : 0,
                          "attributes" : {
                            "ident" : "Rec 02-07-19_001"
                          },
                          "parameters" : {
                            "cursorScale" : {
                              "type" : "double",
                              "defaultValue" : 0.0,
                              "interp" : "linr"
                            },
                            "cursorOpacity" : {
                              "type" : "double",
                              "defaultValue" : 0.0,
                              "interp" : "linr"
                            }
                          },
                          "effects" : [

                          ],
                          "start" : 4235,
                          "duration" : 1279,
                          "mediaStart" : 7107,
                          "mediaDuration" : 1279,
                          "scalar" : 1,
                          "metadata" : {
                            "AutoAppliedSmartFocus" : "False",
                            "WinSubProjectDisplayName" : "",
                            "clipSpeedAttribute" : false,
                            "default-scale0" : 1.0,
                            "default-scale1" : 1.0,
                            "default-translation0" : 0.0,
                            "default-translation1" : 0.0
                          },
                          "animationTracks" : {

                          }
                        },
                        {
                          "id" : 247,
                          "_type" : "ScreenVMFile",
                          "src" : 7,
                          "trackNumber" : 0,
                          "attributes" : {
                            "ident" : "Rec 02-07-19_001"
                          },
                          "parameters" : {
                            "cursorScale" : {
                              "type" : "double",
                              "defaultValue" : 0.0,
                              "interp" : "linr"
                            },
                            "cursorOpacity" : {
                              "type" : "double",
                              "defaultValue" : 0.0,
                              "interp" : "linr"
                            }
                          },
                          "effects" : [

                          ],
                          "start" : 5514,
                          "duration" : 1542,
                          "mediaStart" : 8518,
                          "mediaDuration" : 1542,
                          "scalar" : 1,
                          "metadata" : {
                            "AutoAppliedSmartFocus" : "False",
                            "WinSubProjectDisplayName" : "",
                            "clipSpeedAttribute" : false,
                            "default-scale0" : 1.0,
                            "default-scale1" : 1.0,
                            "default-translation0" : 0.0,
                            "default-translation1" : 0.0
                          },
                          "animationTracks" : {

                          }
                        },
                        {
                          "id" : 248,
                          "_type" : "ScreenVMFile",
                          "src" : 7,
                          "trackNumber" : 0,
                          "attributes" : {
                            "ident" : "Rec 02-07-19_001"
                          },
                          "parameters" : {
                            "cursorScale" : {
                              "type" : "double",
                              "defaultValue" : 0.0,
                              "interp" : "linr"
                            },
                            "cursorOpacity" : {
                              "type" : "double",
                              "defaultValue" : 0.0,
                              "interp" : "linr"
                            }
                          },
                          "effects" : [

                          ],
                          "start" : 7056,
                          "duration" : 846,
                          "mediaStart" : 10392,
                          "mediaDuration" : 846,
                          "scalar" : 1,
                          "metadata" : {
                            "AutoAppliedSmartFocus" : "False",
                            "WinSubProjectDisplayName" : "",
                            "clipSpeedAttribute" : false,
                            "default-scale0" : 1.0,
                            "default-scale1" : 1.0,
                            "default-translation0" : 0.0,
                            "default-translation1" : 0.0
                          },
                          "animationTracks" : {

                          }
                        },
                        {
                          "id" : 249,
                          "_type" : "ScreenVMFile",
                          "src" : 7,
                          "trackNumber" : 0,
                          "attributes" : {
                            "ident" : "Rec 02-07-19_001"
                          },
                          "parameters" : {
                            "cursorScale" : {
                              "type" : "double",
                              "defaultValue" : 0.0,
                              "interp" : "linr"
                            },
                            "cursorOpacity" : {
                              "type" : "double",
                              "defaultValue" : 0.0,
                              "interp" : "linr"
                            }
                          },
                          "effects" : [

                          ],
                          "start" : 7902,
                          "duration" : 451,
                          "mediaStart" : 11363,
                          "mediaDuration" : 451,
                          "scalar" : 1,
                          "metadata" : {
                            "AutoAppliedSmartFocus" : "False",
                            "WinSubProjectDisplayName" : "",
                            "clipSpeedAttribute" : false,
                            "default-scale0" : 1.0,
                            "default-scale1" : 1.0,
                            "default-translation0" : 0.0,
                            "default-translation1" : 0.0
                          },
                          "animationTracks" : {

                          }
                        },
                        {
                          "id" : 250,
                          "_type" : "ScreenVMFile",
                          "src" : 7,
                          "trackNumber" : 0,
                          "attributes" : {
                            "ident" : "Rec 02-07-19_001"
                          },
                          "parameters" : {
                            "cursorScale" : {
                              "type" : "double",
                              "defaultValue" : 0.0,
                              "interp" : "linr"
                            },
                            "cursorOpacity" : {
                              "type" : "double",
                              "defaultValue" : 0.0,
                              "interp" : "linr"
                            }
                          },
                          "effects" : [

                          ],
                          "start" : 8353,
                          "duration" : 423,
                          "mediaStart" : 12079,
                          "mediaDuration" : 423,
                          "scalar" : 1,
                          "metadata" : {
                            "AutoAppliedSmartFocus" : "False",
                            "WinSubProjectDisplayName" : "",
                            "clipSpeedAttribute" : false,
                            "default-scale0" : 1.0,
                            "default-scale1" : 1.0,
                            "default-translation0" : 0.0,
                            "default-translation1" : 0.0
                          },
                          "animationTracks" : {

                          }
                        },
                        {
                          "id" : 251,
                          "_type" : "ScreenVMFile",
                          "src" : 7,
                          "trackNumber" : 0,
                          "attributes" : {
                            "ident" : "Rec 02-07-19_001"
                          },
                          "parameters" : {
                            "cursorScale" : {
                              "type" : "double",
                              "defaultValue" : 0.0,
                              "interp" : "linr"
                            },
                            "cursorOpacity" : {
                              "type" : "double",
                              "defaultValue" : 0.0,
                              "interp" : "linr"
                            }
                          },
                          "effects" : [

                          ],
                          "start" : 8776,
                          "duration" : 2615,
                          "mediaStart" : 12807,
                          "mediaDuration" : 2615,
                          "scalar" : 1,
                          "metadata" : {
                            "AutoAppliedSmartFocus" : "False",
                            "WinSubProjectDisplayName" : "",
                            "clipSpeedAttribute" : false,
                            "default-scale0" : 1.0,
                            "default-scale1" : 1.0,
                            "default-translation0" : 0.0,
                            "default-translation1" : 0.0
                          },
                          "animationTracks" : {

                          }
                        },
                        {
                          "id" : 252,
                          "_type" : "ScreenVMFile",
                          "src" : 7,
                          "trackNumber" : 0,
                          "attributes" : {
                            "ident" : "Rec 02-07-19_001"
                          },
                          "parameters" : {
                            "cursorScale" : {
                              "type" : "double",
                              "defaultValue" : 0.0,
                              "interp" : "linr"
                            },
                            "cursorOpacity" : {
                              "type" : "double",
                              "defaultValue" : 0.0,
                              "interp" : "linr"
                            }
                          },
                          "effects" : [

                          ],
                          "start" : 11391,
                          "duration" : 10090,
                          "mediaStart" : 16306,
                          "mediaDuration" : 10090,
                          "scalar" : 1,
                          "metadata" : {
                            "AutoAppliedSmartFocus" : "False",
                            "WinSubProjectDisplayName" : "",
                            "clipSpeedAttribute" : false,
                            "default-scale0" : 1.0,
                            "default-scale1" : 1.0,
                            "default-translation0" : 0.0,
                            "default-translation1" : 0.0
                          },
                          "animationTracks" : {

                          }
                        }
                    ],
                    "effects" : [

                    ],
                    "start" : 22814,
                    "duration" : 1627,
                    "mediaStart" : 11392,
                    "mediaDuration" : 1627,
                    "scalar" : 1,
                    "metadata" : {
                      "AutoAppliedSmartFocus" : "False",
                      "WinSubProjectDisplayName" : "",
                      "clipSpeedAttribute" : false,
                      "default-scale0" : 2.54658333333333,
                      "default-scale1" : 2.54658333333333,
                      "default-translation0" : 841.181818181749,
                      "default-translation1" : -392.363636363758
                    },
                    "animationTracks" : {
                      "visual" : [
                        {
                          "endTime" : 1043,
                          "duration" : 30,
                          "range" : [ 1013, 30]
                        },
                        {
                          "endTime" : 1141,
                          "duration" : 30,
                          "range" : [ 1111, 30]
                        },
                        {
                          "endTime" : 2358,
                          "duration" : 30,
                          "range" : [ 2328, 30]
                        },
                        {
                          "endTime" : 2478,
                          "duration" : 30,
                          "range" : [ 2448, 30]
                        },
                        {
                          "endTime" : 3666,
                          "duration" : 30,
                          "range" : [ 3636, 30]
                        },
                        {
                          "endTime" : 4066,
                          "duration" : 30,
                          "range" : [ 4036, 30]
                        },
                        {
                          "endTime" : 4469,
                          "duration" : 30,
                          "range" : [ 4439, 30]
                        },
                        {
                          "endTime" : 4992,
                          "duration" : 30,
                          "range" : [ 4962, 30]
                        },
                        {
                          "endTime" : 5236,
                          "duration" : 30,
                          "range" : [ 5206, 30]
                        },
                        {
                          "endTime" : 5442,
                          "duration" : 30,
                          "range" : [ 5412, 30]
                        },
                        {
                          "endTime" : 6736,
                          "duration" : 30,
                          "range" : [ 6706, 30]
                        },
                        {
                          "endTime" : 7923,
                          "duration" : 30,
                          "range" : [ 7893, 30]
                        },
                        {
                          "endTime" : 11994,
                          "duration" : 30,
                          "range" : [ 11964, 30]
                        },
                        {
                          "endTime" : 12178,
                          "duration" : 30,
                          "range" : [ 12148, 30]
                        }
                      ]
                    }
                  },
                  {
                    "id" : 253,
                    "_type" : "StitchedMedia",
                    "minMediaStart" : 0,
                    "attributes" : {
                      "ident" : "Rec 02-07-19_001",
                      "gain" : 1.0,
                      "mixToMono" : false
                    },
                    "parameters" : {
                      "translation0" : {
                        "type" : "double",
                        "defaultValue" : 90.3846153842169,
                        "interp" : "eioe",
                        "keyframes" : [
                          {
                            "endTime" : 1043,
                            "time" : 1013,
                            "value" : 173.076923076545,
                            "duration" : 30
                          },
                          {
                            "endTime" : 1141,
                            "time" : 1111,
                            "value" : 90.4,
                            "duration" : 30
                          },
                          {
                            "endTime" : 2358,
                            "time" : 2328,
                            "value" : 134.630769230764,
                            "duration" : 30
                          },
                          {
                            "endTime" : 2478,
                            "time" : 2448,
                            "value" : 382.70769230741,
                            "duration" : 30
                          },
                          {
                            "endTime" : 3666,
                            "time" : 3636,
                            "value" : -560.474125874959,
                            "duration" : 30
                          },
                          {
                            "endTime" : 4066,
                            "time" : 4036,
                            "value" : 27.2727272727602,
                            "duration" : 30
                          },
                          {
                            "endTime" : 4469,
                            "time" : 4439,
                            "value" : -581.8181818181,
                            "duration" : 30
                          },
                          {
                            "endTime" : 4992,
                            "time" : 4962,
                            "value" : 986.363636363861,
                            "duration" : 30
                          },
                          {
                            "endTime" : 5236,
                            "time" : 5206,
                            "value" : 49.4545454549895,
                            "duration" : 30
                          },
                          {
                            "endTime" : 5442,
                            "time" : 5412,
                            "value" : 908.545454546065,
                            "duration" : 30
                          },
                          {
                            "endTime" : 6736,
                            "time" : 6706,
                            "value" : 447.999999999954,
                            "duration" : 30
                          },
                          {
                            "endTime" : 7923,
                            "time" : 7893,
                            "value" : 841.181818181749,
                            "duration" : 30
                          },
                          {
                            "endTime" : 11994,
                            "time" : 11964,
                            "value" : 448.000000000077,
                            "duration" : 30
                          },
                          {
                            "endTime" : 12178,
                            "time" : 12148,
                            "value" : 98.0000000001039,
                            "duration" : 30
                          }
                        ]
                      },
                      "translation1" : {
                        "type" : "double",
                        "defaultValue" : -155.999999999973,
                        "interp" : "eioe",
                        "keyframes" : [
                          {
                            "endTime" : 1043,
                            "time" : 1013,
                            "value" : 101.692307692331,
                            "duration" : 30
                          },
                          {
                            "endTime" : 1141,
                            "time" : 1111,
                            "value" : -156.0,
                            "duration" : 30
                          },
                          {
                            "endTime" : 2358,
                            "time" : 2328,
                            "value" : 217.076923076909,
                            "duration" : 30
                          },
                          {
                            "endTime" : 2478,
                            "time" : 2448,
                            "value" : -59.6153846154014,
                            "duration" : 30
                          },
                          {
                            "endTime" : 3666,
                            "time" : 3636,
                            "value" : -179.81818181819,
                            "duration" : 30
                          },
                          {
                            "endTime" : 4066,
                            "time" : 4036,
                            "value" : -347.999999999825,
                            "duration" : 30
                          },
                          {
                            "endTime" : 4469,
                            "time" : 4439,
                            "value" : -372.999999999852,
                            "duration" : 30
                          },
                          {
                            "endTime" : 4992,
                            "time" : 4962,
                            "value" : -539.999999999761,
                            "duration" : 30
                          },
                          {
                            "endTime" : 5236,
                            "time" : 5206,
                            "value" : 62.1818181819394,
                            "duration" : 30
                          },
                          {
                            "endTime" : 5442,
                            "time" : 5412,
                            "value" : -474.181818181744,
                            "duration" : 30
                          },
                          {
                            "endTime" : 6736,
                            "time" : 6706,
                            "value" : -471.90909090916,
                            "duration" : 30
                          },
                          {
                            "endTime" : 7923,
                            "time" : 7893,
                            "value" : -392.363636363758,
                            "duration" : 30
                          },
                          {
                            "endTime" : 11994,
                            "time" : 11964,
                            "value" : -242.363636363752,
                            "duration" : 30
                          },
                          {
                            "endTime" : 12178,
                            "time" : 12148,
                            "value" : -101.454545454671,
                            "duration" : 30
                          }
                        ]
                      },
                      "scale0" : {
                        "type" : "double",
                        "defaultValue" : 1.66533333333333,
                        "interp" : "eioe",
                        "keyframes" : [
                          {
                            "endTime" : 1043,
                            "time" : 1013,
                            "value" : 1.0,
                            "duration" : 30
                          },
                          {
                            "endTime" : 3666,
                            "time" : 3636,
                            "value" : 2.12275,
                            "duration" : 30
                          },
                          {
                            "endTime" : 4066,
                            "time" : 4036,
                            "value" : 1.66533333333333,
                            "duration" : 30
                          },
                          {
                            "endTime" : 4469,
                            "time" : 4439,
                            "value" : 2.66333333333333,
                            "duration" : 30
                          },
                          {
                            "endTime" : 4992,
                            "time" : 4962,
                            "value" : 2.28908333333333,
                            "duration" : 30
                          },
                          {
                            "endTime" : 5236,
                            "time" : 5206,
                            "value" : 1.2495,
                            "duration" : 30
                          },
                          {
                            "endTime" : 5442,
                            "time" : 5412,
                            "value" : 2.54658333333333,
                            "duration" : 30
                          },
                          {
                            "endTime" : 11994,
                            "time" : 11964,
                            "value" : 1.78,
                            "duration" : 30
                          },
                          {
                            "endTime" : 12178,
                            "time" : 12148,
                            "value" : 2.778,
                            "duration" : 30
                          }
                        ]
                      },
                      "scale1" : {
                        "type" : "double",
                        "defaultValue" : 1.66533333333333,
                        "interp" : "eioe",
                        "keyframes" : [
                          {
                            "endTime" : 1043,
                            "time" : 1013,
                            "value" : 1.0,
                            "duration" : 30
                          },
                          {
                            "endTime" : 3666,
                            "time" : 3636,
                            "value" : 2.12275,
                            "duration" : 30
                          },
                          {
                            "endTime" : 4066,
                            "time" : 4036,
                            "value" : 1.66533333333333,
                            "duration" : 30
                          },
                          {
                            "endTime" : 4469,
                            "time" : 4439,
                            "value" : 2.66333333333333,
                            "duration" : 30
                          },
                          {
                            "endTime" : 4992,
                            "time" : 4962,
                            "value" : 2.28908333333333,
                            "duration" : 30
                          },
                          {
                            "endTime" : 5236,
                            "time" : 5206,
                            "value" : 1.2495,
                            "duration" : 30
                          },
                          {
                            "endTime" : 5442,
                            "time" : 5412,
                            "value" : 2.54658333333333,
                            "duration" : 30
                          },
                          {
                            "endTime" : 11994,
                            "time" : 11964,
                            "value" : 1.78,
                            "duration" : 30
                          },
                          {
                            "endTime" : 12178,
                            "time" : 12148,
                            "value" : 2.778,
                            "duration" : 30
                          }
                        ]
                      },
                      "cursorOpacity" : {
                        "type" : "double",
                        "defaultValue" : 1.0,
                        "interp" : "linr"
                      },
                      "cursorScale" : {
                        "type" : "double",
                        "defaultValue" : 1.0,
                        "interp" : "linr"
                      }
                    },
                    "medias" : [
                        {
                          "id" : 254,
                          "_type" : "ScreenVMFile",
                          "src" : 7,
                          "trackNumber" : 0,
                          "attributes" : {
                            "ident" : "Rec 02-07-19_001"
                          },
                          "parameters" : {
                            "cursorScale" : {
                              "type" : "double",
                              "defaultValue" : 0.0,
                              "interp" : "linr"
                            },
                            "cursorOpacity" : {
                              "type" : "double",
                              "defaultValue" : 0.0,
                              "interp" : "linr"
                            }
                          },
                          "effects" : [

                          ],
                          "start" : 0,
                          "duration" : 496,
                          "mediaStart" : 0,
                          "mediaDuration" : 496,
                          "scalar" : 1,
                          "metadata" : {
                            "AutoAppliedSmartFocus" : "False",
                            "WinSubProjectDisplayName" : "",
                            "clipSpeedAttribute" : false,
                            "default-scale0" : 1.0,
                            "default-scale1" : 1.0,
                            "default-translation0" : 0.0,
                            "default-translation1" : 0.0
                          },
                          "animationTracks" : {

                          }
                        },
                        {
                          "id" : 255,
                          "_type" : "ScreenVMFile",
                          "src" : 7,
                          "trackNumber" : 0,
                          "attributes" : {
                            "ident" : "Rec 02-07-19_001"
                          },
                          "parameters" : {
                            "cursorScale" : {
                              "type" : "double",
                              "defaultValue" : 0.0,
                              "interp" : "linr"
                            },
                            "cursorOpacity" : {
                              "type" : "double",
                              "defaultValue" : 0.0,
                              "interp" : "linr"
                            }
                          },
                          "effects" : [

                          ],
                          "start" : 496,
                          "duration" : 190,
                          "mediaStart" : 715,
                          "mediaDuration" : 190,
                          "scalar" : 1,
                          "metadata" : {
                            "AutoAppliedSmartFocus" : "False",
                            "WinSubProjectDisplayName" : "",
                            "clipSpeedAttribute" : false,
                            "default-scale0" : 1.0,
                            "default-scale1" : 1.0,
                            "default-translation0" : 0.0,
                            "default-translation1" : 0.0
                          },
                          "animationTracks" : {

                          }
                        },
                        {
                          "id" : 256,
                          "_type" : "ScreenVMFile",
                          "src" : 7,
                          "trackNumber" : 0,
                          "attributes" : {
                            "ident" : "Rec 02-07-19_001"
                          },
                          "parameters" : {
                            "cursorScale" : {
                              "type" : "double",
                              "defaultValue" : 0.0,
                              "interp" : "linr"
                            },
                            "cursorOpacity" : {
                              "type" : "double",
                              "defaultValue" : 0.0,
                              "interp" : "linr"
                            }
                          },
                          "effects" : [

                          ],
                          "start" : 686,
                          "duration" : 239,
                          "mediaStart" : 1444,
                          "mediaDuration" : 239,
                          "scalar" : 1,
                          "metadata" : {
                            "AutoAppliedSmartFocus" : "False",
                            "WinSubProjectDisplayName" : "",
                            "clipSpeedAttribute" : false,
                            "default-scale0" : 1.0,
                            "default-scale1" : 1.0,
                            "default-translation0" : 0.0,
                            "default-translation1" : 0.0
                          },
                          "animationTracks" : {

                          }
                        },
                        {
                          "id" : 257,
                          "_type" : "ScreenVMFile",
                          "src" : 7,
                          "trackNumber" : 0,
                          "attributes" : {
                            "ident" : "Rec 02-07-19_001"
                          },
                          "parameters" : {
                            "cursorScale" : {
                              "type" : "double",
                              "defaultValue" : 0.0,
                              "interp" : "linr"
                            },
                            "cursorOpacity" : {
                              "type" : "double",
                              "defaultValue" : 0.0,
                              "interp" : "linr"
                            }
                          },
                          "effects" : [

                          ],
                          "start" : 925,
                          "duration" : 128,
                          "mediaStart" : 1750,
                          "mediaDuration" : 128,
                          "scalar" : 1,
                          "metadata" : {
                            "AutoAppliedSmartFocus" : "False",
                            "WinSubProjectDisplayName" : "",
                            "clipSpeedAttribute" : false,
                            "default-scale0" : 1.0,
                            "default-scale1" : 1.0,
                            "default-translation0" : 0.0,
                            "default-translation1" : 0.0
                          },
                          "animationTracks" : {

                          }
                        },
                        {
                          "id" : 258,
                          "_type" : "ScreenVMFile",
                          "src" : 7,
                          "trackNumber" : 0,
                          "attributes" : {
                            "ident" : "Rec 02-07-19_001"
                          },
                          "parameters" : {
                            "cursorScale" : {
                              "type" : "double",
                              "defaultValue" : 0.0,
                              "interp" : "linr"
                            },
                            "cursorOpacity" : {
                              "type" : "double",
                              "defaultValue" : 0.0,
                              "interp" : "linr"
                            }
                          },
                          "effects" : [

                          ],
                          "start" : 1053,
                          "duration" : 298,
                          "mediaStart" : 1939,
                          "mediaDuration" : 298,
                          "scalar" : 1,
                          "metadata" : {
                            "AutoAppliedSmartFocus" : "False",
                            "WinSubProjectDisplayName" : "",
                            "clipSpeedAttribute" : false,
                            "default-scale0" : 1.0,
                            "default-scale1" : 1.0,
                            "default-translation0" : 0.0,
                            "default-translation1" : 0.0
                          },
                          "animationTracks" : {

                          }
                        },
                        {
                          "id" : 259,
                          "_type" : "ScreenVMFile",
                          "src" : 7,
                          "trackNumber" : 0,
                          "attributes" : {
                            "ident" : "Rec 02-07-19_001"
                          },
                          "parameters" : {
                            "cursorScale" : {
                              "type" : "double",
                              "defaultValue" : 0.0,
                              "interp" : "linr"
                            },
                            "cursorOpacity" : {
                              "type" : "double",
                              "defaultValue" : 0.0,
                              "interp" : "linr"
                            }
                          },
                          "effects" : [

                          ],
                          "start" : 1351,
                          "duration" : 524,
                          "mediaStart" : 2386,
                          "mediaDuration" : 524,
                          "scalar" : 1,
                          "metadata" : {
                            "AutoAppliedSmartFocus" : "False",
                            "WinSubProjectDisplayName" : "",
                            "clipSpeedAttribute" : false,
                            "default-scale0" : 1.0,
                            "default-scale1" : 1.0,
                            "default-translation0" : 0.0,
                            "default-translation1" : 0.0
                          },
                          "animationTracks" : {

                          }
                        },
                        {
                          "id" : 260,
                          "_type" : "ScreenVMFile",
                          "src" : 7,
                          "trackNumber" : 0,
                          "attributes" : {
                            "ident" : "Rec 02-07-19_001"
                          },
                          "parameters" : {
                            "cursorScale" : {
                              "type" : "double",
                              "defaultValue" : 0.0,
                              "interp" : "linr"
                            },
                            "cursorOpacity" : {
                              "type" : "double",
                              "defaultValue" : 0.0,
                              "interp" : "linr"
                            }
                          },
                          "effects" : [

                          ],
                          "start" : 1875,
                          "duration" : 143,
                          "mediaStart" : 3086,
                          "mediaDuration" : 143,
                          "scalar" : 1,
                          "metadata" : {
                            "AutoAppliedSmartFocus" : "False",
                            "WinSubProjectDisplayName" : "",
                            "clipSpeedAttribute" : false,
                            "default-scale0" : 1.0,
                            "default-scale1" : 1.0,
                            "default-translation0" : 0.0,
                            "default-translation1" : 0.0
                          },
                          "animationTracks" : {

                          }
                        },
                        {
                          "id" : 261,
                          "_type" : "ScreenVMFile",
                          "src" : 7,
                          "trackNumber" : 0,
                          "attributes" : {
                            "ident" : "Rec 02-07-19_001"
                          },
                          "parameters" : {
                            "cursorScale" : {
                              "type" : "double",
                              "defaultValue" : 0.0,
                              "interp" : "linr"
                            },
                            "cursorOpacity" : {
                              "type" : "double",
                              "defaultValue" : 0.0,
                              "interp" : "linr"
                            }
                          },
                          "effects" : [

                          ],
                          "start" : 2018,
                          "duration" : 1362,
                          "mediaStart" : 3692,
                          "mediaDuration" : 1362,
                          "scalar" : 1,
                          "metadata" : {
                            "AutoAppliedSmartFocus" : "False",
                            "WinSubProjectDisplayName" : "",
                            "clipSpeedAttribute" : false,
                            "default-scale0" : 1.0,
                            "default-scale1" : 1.0,
                            "default-translation0" : 0.0,
                            "default-translation1" : 0.0
                          },
                          "animationTracks" : {

                          }
                        },
                        {
                          "id" : 262,
                          "_type" : "ScreenVMFile",
                          "src" : 7,
                          "trackNumber" : 0,
                          "attributes" : {
                            "ident" : "Rec 02-07-19_001"
                          },
                          "parameters" : {
                            "cursorScale" : {
                              "type" : "double",
                              "defaultValue" : 0.0,
                              "interp" : "linr"
                            },
                            "cursorOpacity" : {
                              "type" : "double",
                              "defaultValue" : 0.0,
                              "interp" : "linr"
                            }
                          },
                          "effects" : [

                          ],
                          "start" : 3380,
                          "duration" : 218,
                          "mediaStart" : 5246,
                          "mediaDuration" : 218,
                          "scalar" : 1,
                          "metadata" : {
                            "AutoAppliedSmartFocus" : "False",
                            "WinSubProjectDisplayName" : "",
                            "clipSpeedAttribute" : false,
                            "default-scale0" : 1.0,
                            "default-scale1" : 1.0,
                            "default-translation0" : 0.0,
                            "default-translation1" : 0.0
                          },
                          "animationTracks" : {

                          }
                        },
                        {
                          "id" : 263,
                          "_type" : "ScreenVMFile",
                          "src" : 7,
                          "trackNumber" : 0,
                          "attributes" : {
                            "ident" : "Rec 02-07-19_001"
                          },
                          "parameters" : {
                            "cursorScale" : {
                              "type" : "double",
                              "defaultValue" : 0.0,
                              "interp" : "linr"
                            },
                            "cursorOpacity" : {
                              "type" : "double",
                              "defaultValue" : 0.0,
                              "interp" : "linr"
                            }
                          },
                          "effects" : [

                          ],
                          "start" : 3598,
                          "duration" : 473,
                          "mediaStart" : 6154,
                          "mediaDuration" : 473,
                          "scalar" : 1,
                          "metadata" : {
                            "AutoAppliedSmartFocus" : "False",
                            "WinSubProjectDisplayName" : "",
                            "clipSpeedAttribute" : false,
                            "default-scale0" : 1.0,
                            "default-scale1" : 1.0,
                            "default-translation0" : 0.0,
                            "default-translation1" : 0.0
                          },
                          "animationTracks" : {

                          }
                        },
                        {
                          "id" : 264,
                          "_type" : "ScreenVMFile",
                          "src" : 7,
                          "trackNumber" : 0,
                          "attributes" : {
                            "ident" : "Rec 02-07-19_001"
                          },
                          "parameters" : {
                            "cursorScale" : {
                              "type" : "double",
                              "defaultValue" : 0.0,
                              "interp" : "linr"
                            },
                            "cursorOpacity" : {
                              "type" : "double",
                              "defaultValue" : 0.0,
                              "interp" : "linr"
                            }
                          },
                          "effects" : [

                          ],
                          "start" : 4071,
                          "duration" : 164,
                          "mediaStart" : 6726,
                          "mediaDuration" : 164,
                          "scalar" : 1,
                          "metadata" : {
                            "AutoAppliedSmartFocus" : "False",
                            "WinSubProjectDisplayName" : "",
                            "clipSpeedAttribute" : false,
                            "default-scale0" : 1.0,
                            "default-scale1" : 1.0,
                            "default-translation0" : 0.0,
                            "default-translation1" : 0.0
                          },
                          "animationTracks" : {

                          }
                        },
                        {
                          "id" : 265,
                          "_type" : "ScreenVMFile",
                          "src" : 7,
                          "trackNumber" : 0,
                          "attributes" : {
                            "ident" : "Rec 02-07-19_001"
                          },
                          "parameters" : {
                            "cursorScale" : {
                              "type" : "double",
                              "defaultValue" : 0.0,
                              "interp" : "linr"
                            },
                            "cursorOpacity" : {
                              "type" : "double",
                              "defaultValue" : 0.0,
                              "interp" : "linr"
                            }
                          },
                          "effects" : [

                          ],
                          "start" : 4235,
                          "duration" : 1279,
                          "mediaStart" : 7107,
                          "mediaDuration" : 1279,
                          "scalar" : 1,
                          "metadata" : {
                            "AutoAppliedSmartFocus" : "False",
                            "WinSubProjectDisplayName" : "",
                            "clipSpeedAttribute" : false,
                            "default-scale0" : 1.0,
                            "default-scale1" : 1.0,
                            "default-translation0" : 0.0,
                            "default-translation1" : 0.0
                          },
                          "animationTracks" : {

                          }
                        },
                        {
                          "id" : 266,
                          "_type" : "ScreenVMFile",
                          "src" : 7,
                          "trackNumber" : 0,
                          "attributes" : {
                            "ident" : "Rec 02-07-19_001"
                          },
                          "parameters" : {
                            "cursorScale" : {
                              "type" : "double",
                              "defaultValue" : 0.0,
                              "interp" : "linr"
                            },
                            "cursorOpacity" : {
                              "type" : "double",
                              "defaultValue" : 0.0,
                              "interp" : "linr"
                            }
                          },
                          "effects" : [

                          ],
                          "start" : 5514,
                          "duration" : 1542,
                          "mediaStart" : 8518,
                          "mediaDuration" : 1542,
                          "scalar" : 1,
                          "metadata" : {
                            "AutoAppliedSmartFocus" : "False",
                            "WinSubProjectDisplayName" : "",
                            "clipSpeedAttribute" : false,
                            "default-scale0" : 1.0,
                            "default-scale1" : 1.0,
                            "default-translation0" : 0.0,
                            "default-translation1" : 0.0
                          },
                          "animationTracks" : {

                          }
                        },
                        {
                          "id" : 267,
                          "_type" : "ScreenVMFile",
                          "src" : 7,
                          "trackNumber" : 0,
                          "attributes" : {
                            "ident" : "Rec 02-07-19_001"
                          },
                          "parameters" : {
                            "cursorScale" : {
                              "type" : "double",
                              "defaultValue" : 0.0,
                              "interp" : "linr"
                            },
                            "cursorOpacity" : {
                              "type" : "double",
                              "defaultValue" : 0.0,
                              "interp" : "linr"
                            }
                          },
                          "effects" : [

                          ],
                          "start" : 7056,
                          "duration" : 846,
                          "mediaStart" : 10392,
                          "mediaDuration" : 846,
                          "scalar" : 1,
                          "metadata" : {
                            "AutoAppliedSmartFocus" : "False",
                            "WinSubProjectDisplayName" : "",
                            "clipSpeedAttribute" : false,
                            "default-scale0" : 1.0,
                            "default-scale1" : 1.0,
                            "default-translation0" : 0.0,
                            "default-translation1" : 0.0
                          },
                          "animationTracks" : {

                          }
                        },
                        {
                          "id" : 268,
                          "_type" : "ScreenVMFile",
                          "src" : 7,
                          "trackNumber" : 0,
                          "attributes" : {
                            "ident" : "Rec 02-07-19_001"
                          },
                          "parameters" : {
                            "cursorScale" : {
                              "type" : "double",
                              "defaultValue" : 0.0,
                              "interp" : "linr"
                            },
                            "cursorOpacity" : {
                              "type" : "double",
                              "defaultValue" : 0.0,
                              "interp" : "linr"
                            }
                          },
                          "effects" : [

                          ],
                          "start" : 7902,
                          "duration" : 451,
                          "mediaStart" : 11363,
                          "mediaDuration" : 451,
                          "scalar" : 1,
                          "metadata" : {
                            "AutoAppliedSmartFocus" : "False",
                            "WinSubProjectDisplayName" : "",
                            "clipSpeedAttribute" : false,
                            "default-scale0" : 1.0,
                            "default-scale1" : 1.0,
                            "default-translation0" : 0.0,
                            "default-translation1" : 0.0
                          },
                          "animationTracks" : {

                          }
                        },
                        {
                          "id" : 269,
                          "_type" : "ScreenVMFile",
                          "src" : 7,
                          "trackNumber" : 0,
                          "attributes" : {
                            "ident" : "Rec 02-07-19_001"
                          },
                          "parameters" : {
                            "cursorScale" : {
                              "type" : "double",
                              "defaultValue" : 0.0,
                              "interp" : "linr"
                            },
                            "cursorOpacity" : {
                              "type" : "double",
                              "defaultValue" : 0.0,
                              "interp" : "linr"
                            }
                          },
                          "effects" : [

                          ],
                          "start" : 8353,
                          "duration" : 423,
                          "mediaStart" : 12079,
                          "mediaDuration" : 423,
                          "scalar" : 1,
                          "metadata" : {
                            "AutoAppliedSmartFocus" : "False",
                            "WinSubProjectDisplayName" : "",
                            "clipSpeedAttribute" : false,
                            "default-scale0" : 1.0,
                            "default-scale1" : 1.0,
                            "default-translation0" : 0.0,
                            "default-translation1" : 0.0
                          },
                          "animationTracks" : {

                          }
                        },
                        {
                          "id" : 270,
                          "_type" : "ScreenVMFile",
                          "src" : 7,
                          "trackNumber" : 0,
                          "attributes" : {
                            "ident" : "Rec 02-07-19_001"
                          },
                          "parameters" : {
                            "cursorScale" : {
                              "type" : "double",
                              "defaultValue" : 0.0,
                              "interp" : "linr"
                            },
                            "cursorOpacity" : {
                              "type" : "double",
                              "defaultValue" : 0.0,
                              "interp" : "linr"
                            }
                          },
                          "effects" : [

                          ],
                          "start" : 8776,
                          "duration" : 2615,
                          "mediaStart" : 12807,
                          "mediaDuration" : 2615,
                          "scalar" : 1,
                          "metadata" : {
                            "AutoAppliedSmartFocus" : "False",
                            "WinSubProjectDisplayName" : "",
                            "clipSpeedAttribute" : false,
                            "default-scale0" : 1.0,
                            "default-scale1" : 1.0,
                            "default-translation0" : 0.0,
                            "default-translation1" : 0.0
                          },
                          "animationTracks" : {

                          }
                        },
                        {
                          "id" : 271,
                          "_type" : "ScreenVMFile",
                          "src" : 7,
                          "trackNumber" : 0,
                          "attributes" : {
                            "ident" : "Rec 02-07-19_001"
                          },
                          "parameters" : {
                            "cursorScale" : {
                              "type" : "double",
                              "defaultValue" : 0.0,
                              "interp" : "linr"
                            },
                            "cursorOpacity" : {
                              "type" : "double",
                              "defaultValue" : 0.0,
                              "interp" : "linr"
                            }
                          },
                          "effects" : [

                          ],
                          "start" : 11391,
                          "duration" : 10090,
                          "mediaStart" : 16306,
                          "mediaDuration" : 10090,
                          "scalar" : 1,
                          "metadata" : {
                            "AutoAppliedSmartFocus" : "False",
                            "WinSubProjectDisplayName" : "",
                            "clipSpeedAttribute" : false,
                            "default-scale0" : 1.0,
                            "default-scale1" : 1.0,
                            "default-translation0" : 0.0,
                            "default-translation1" : 0.0
                          },
                          "animationTracks" : {

                          }
                        }
                    ],
                    "effects" : [

                    ],
                    "start" : 24441,
                    "duration" : 181,
                    "mediaStart" : 13220,
                    "mediaDuration" : 181,
                    "scalar" : 1,
                    "metadata" : {
                      "AutoAppliedSmartFocus" : "False",
                      "WinSubProjectDisplayName" : "",
                      "clipSpeedAttribute" : false,
                      "default-scale0" : 2.54658333333333,
                      "default-scale1" : 2.54658333333333,
                      "default-translation0" : 841.181818181749,
                      "default-translation1" : -392.363636363758
                    },
                    "animationTracks" : {
                      "visual" : [
                        {
                          "endTime" : 1043,
                          "duration" : 30,
                          "range" : [ 1013, 30]
                        },
                        {
                          "endTime" : 1141,
                          "duration" : 30,
                          "range" : [ 1111, 30]
                        },
                        {
                          "endTime" : 2358,
                          "duration" : 30,
                          "range" : [ 2328, 30]
                        },
                        {
                          "endTime" : 2478,
                          "duration" : 30,
                          "range" : [ 2448, 30]
                        },
                        {
                          "endTime" : 3666,
                          "duration" : 30,
                          "range" : [ 3636, 30]
                        },
                        {
                          "endTime" : 4066,
                          "duration" : 30,
                          "range" : [ 4036, 30]
                        },
                        {
                          "endTime" : 4469,
                          "duration" : 30,
                          "range" : [ 4439, 30]
                        },
                        {
                          "endTime" : 4992,
                          "duration" : 30,
                          "range" : [ 4962, 30]
                        },
                        {
                          "endTime" : 5236,
                          "duration" : 30,
                          "range" : [ 5206, 30]
                        },
                        {
                          "endTime" : 5442,
                          "duration" : 30,
                          "range" : [ 5412, 30]
                        },
                        {
                          "endTime" : 6736,
                          "duration" : 30,
                          "range" : [ 6706, 30]
                        },
                        {
                          "endTime" : 7923,
                          "duration" : 30,
                          "range" : [ 7893, 30]
                        },
                        {
                          "endTime" : 11994,
                          "duration" : 30,
                          "range" : [ 11964, 30]
                        },
                        {
                          "endTime" : 12178,
                          "duration" : 30,
                          "range" : [ 12148, 30]
                        }
                      ]
                    }
                  },
                  {
                    "id" : 272,
                    "_type" : "StitchedMedia",
                    "minMediaStart" : 0,
                    "attributes" : {
                      "ident" : "Rec 02-07-19_001",
                      "gain" : 1.0,
                      "mixToMono" : false
                    },
                    "parameters" : {
                      "translation0" : {
                        "type" : "double",
                        "defaultValue" : 90.3846153842169,
                        "interp" : "eioe",
                        "keyframes" : [
                          {
                            "endTime" : 1043,
                            "time" : 1013,
                            "value" : 173.076923076545,
                            "duration" : 30
                          },
                          {
                            "endTime" : 1141,
                            "time" : 1111,
                            "value" : 90.4,
                            "duration" : 30
                          },
                          {
                            "endTime" : 2358,
                            "time" : 2328,
                            "value" : 134.630769230764,
                            "duration" : 30
                          },
                          {
                            "endTime" : 2478,
                            "time" : 2448,
                            "value" : 382.70769230741,
                            "duration" : 30
                          },
                          {
                            "endTime" : 3666,
                            "time" : 3636,
                            "value" : -560.474125874959,
                            "duration" : 30
                          },
                          {
                            "endTime" : 4066,
                            "time" : 4036,
                            "value" : 27.2727272727602,
                            "duration" : 30
                          },
                          {
                            "endTime" : 4469,
                            "time" : 4439,
                            "value" : -581.8181818181,
                            "duration" : 30
                          },
                          {
                            "endTime" : 4992,
                            "time" : 4962,
                            "value" : 986.363636363861,
                            "duration" : 30
                          },
                          {
                            "endTime" : 5236,
                            "time" : 5206,
                            "value" : 49.4545454549895,
                            "duration" : 30
                          },
                          {
                            "endTime" : 5442,
                            "time" : 5412,
                            "value" : 908.545454546065,
                            "duration" : 30
                          },
                          {
                            "endTime" : 6736,
                            "time" : 6706,
                            "value" : 447.999999999954,
                            "duration" : 30
                          },
                          {
                            "endTime" : 7923,
                            "time" : 7893,
                            "value" : 841.181818181749,
                            "duration" : 30
                          },
                          {
                            "endTime" : 11994,
                            "time" : 11964,
                            "value" : 448.000000000077,
                            "duration" : 30
                          },
                          {
                            "endTime" : 12178,
                            "time" : 12148,
                            "value" : 98.0000000001039,
                            "duration" : 30
                          }
                        ]
                      },
                      "translation1" : {
                        "type" : "double",
                        "defaultValue" : -155.999999999973,
                        "interp" : "eioe",
                        "keyframes" : [
                          {
                            "endTime" : 1043,
                            "time" : 1013,
                            "value" : 101.692307692331,
                            "duration" : 30
                          },
                          {
                            "endTime" : 1141,
                            "time" : 1111,
                            "value" : -156.0,
                            "duration" : 30
                          },
                          {
                            "endTime" : 2358,
                            "time" : 2328,
                            "value" : 217.076923076909,
                            "duration" : 30
                          },
                          {
                            "endTime" : 2478,
                            "time" : 2448,
                            "value" : -59.6153846154014,
                            "duration" : 30
                          },
                          {
                            "endTime" : 3666,
                            "time" : 3636,
                            "value" : -179.81818181819,
                            "duration" : 30
                          },
                          {
                            "endTime" : 4066,
                            "time" : 4036,
                            "value" : -347.999999999825,
                            "duration" : 30
                          },
                          {
                            "endTime" : 4469,
                            "time" : 4439,
                            "value" : -372.999999999852,
                            "duration" : 30
                          },
                          {
                            "endTime" : 4992,
                            "time" : 4962,
                            "value" : -539.999999999761,
                            "duration" : 30
                          },
                          {
                            "endTime" : 5236,
                            "time" : 5206,
                            "value" : 62.1818181819394,
                            "duration" : 30
                          },
                          {
                            "endTime" : 5442,
                            "time" : 5412,
                            "value" : -474.181818181744,
                            "duration" : 30
                          },
                          {
                            "endTime" : 6736,
                            "time" : 6706,
                            "value" : -471.90909090916,
                            "duration" : 30
                          },
                          {
                            "endTime" : 7923,
                            "time" : 7893,
                            "value" : -392.363636363758,
                            "duration" : 30
                          },
                          {
                            "endTime" : 11994,
                            "time" : 11964,
                            "value" : -242.363636363752,
                            "duration" : 30
                          },
                          {
                            "endTime" : 12178,
                            "time" : 12148,
                            "value" : -101.454545454671,
                            "duration" : 30
                          }
                        ]
                      },
                      "scale0" : {
                        "type" : "double",
                        "defaultValue" : 1.66533333333333,
                        "interp" : "eioe",
                        "keyframes" : [
                          {
                            "endTime" : 1043,
                            "time" : 1013,
                            "value" : 1.0,
                            "duration" : 30
                          },
                          {
                            "endTime" : 3666,
                            "time" : 3636,
                            "value" : 2.12275,
                            "duration" : 30
                          },
                          {
                            "endTime" : 4066,
                            "time" : 4036,
                            "value" : 1.66533333333333,
                            "duration" : 30
                          },
                          {
                            "endTime" : 4469,
                            "time" : 4439,
                            "value" : 2.66333333333333,
                            "duration" : 30
                          },
                          {
                            "endTime" : 4992,
                            "time" : 4962,
                            "value" : 2.28908333333333,
                            "duration" : 30
                          },
                          {
                            "endTime" : 5236,
                            "time" : 5206,
                            "value" : 1.2495,
                            "duration" : 30
                          },
                          {
                            "endTime" : 5442,
                            "time" : 5412,
                            "value" : 2.54658333333333,
                            "duration" : 30
                          },
                          {
                            "endTime" : 11994,
                            "time" : 11964,
                            "value" : 1.78,
                            "duration" : 30
                          },
                          {
                            "endTime" : 12178,
                            "time" : 12148,
                            "value" : 2.778,
                            "duration" : 30
                          }
                        ]
                      },
                      "scale1" : {
                        "type" : "double",
                        "defaultValue" : 1.66533333333333,
                        "interp" : "eioe",
                        "keyframes" : [
                          {
                            "endTime" : 1043,
                            "time" : 1013,
                            "value" : 1.0,
                            "duration" : 30
                          },
                          {
                            "endTime" : 3666,
                            "time" : 3636,
                            "value" : 2.12275,
                            "duration" : 30
                          },
                          {
                            "endTime" : 4066,
                            "time" : 4036,
                            "value" : 1.66533333333333,
                            "duration" : 30
                          },
                          {
                            "endTime" : 4469,
                            "time" : 4439,
                            "value" : 2.66333333333333,
                            "duration" : 30
                          },
                          {
                            "endTime" : 4992,
                            "time" : 4962,
                            "value" : 2.28908333333333,
                            "duration" : 30
                          },
                          {
                            "endTime" : 5236,
                            "time" : 5206,
                            "value" : 1.2495,
                            "duration" : 30
                          },
                          {
                            "endTime" : 5442,
                            "time" : 5412,
                            "value" : 2.54658333333333,
                            "duration" : 30
                          },
                          {
                            "endTime" : 11994,
                            "time" : 11964,
                            "value" : 1.78,
                            "duration" : 30
                          },
                          {
                            "endTime" : 12178,
                            "time" : 12148,
                            "value" : 2.778,
                            "duration" : 30
                          }
                        ]
                      },
                      "cursorOpacity" : {
                        "type" : "double",
                        "defaultValue" : 1.0,
                        "interp" : "linr"
                      },
                      "cursorScale" : {
                        "type" : "double",
                        "defaultValue" : 1.0,
                        "interp" : "linr"
                      }
                    },
                    "medias" : [
                        {
                          "id" : 273,
                          "_type" : "ScreenVMFile",
                          "src" : 7,
                          "trackNumber" : 0,
                          "attributes" : {
                            "ident" : "Rec 02-07-19_001"
                          },
                          "parameters" : {
                            "cursorScale" : {
                              "type" : "double",
                              "defaultValue" : 0.0,
                              "interp" : "linr"
                            },
                            "cursorOpacity" : {
                              "type" : "double",
                              "defaultValue" : 0.0,
                              "interp" : "linr"
                            }
                          },
                          "effects" : [

                          ],
                          "start" : 0,
                          "duration" : 496,
                          "mediaStart" : 0,
                          "mediaDuration" : 496,
                          "scalar" : 1,
                          "metadata" : {
                            "AutoAppliedSmartFocus" : "False",
                            "WinSubProjectDisplayName" : "",
                            "clipSpeedAttribute" : false,
                            "default-scale0" : 1.0,
                            "default-scale1" : 1.0,
                            "default-translation0" : 0.0,
                            "default-translation1" : 0.0
                          },
                          "animationTracks" : {

                          }
                        },
                        {
                          "id" : 274,
                          "_type" : "ScreenVMFile",
                          "src" : 7,
                          "trackNumber" : 0,
                          "attributes" : {
                            "ident" : "Rec 02-07-19_001"
                          },
                          "parameters" : {
                            "cursorScale" : {
                              "type" : "double",
                              "defaultValue" : 0.0,
                              "interp" : "linr"
                            },
                            "cursorOpacity" : {
                              "type" : "double",
                              "defaultValue" : 0.0,
                              "interp" : "linr"
                            }
                          },
                          "effects" : [

                          ],
                          "start" : 496,
                          "duration" : 190,
                          "mediaStart" : 715,
                          "mediaDuration" : 190,
                          "scalar" : 1,
                          "metadata" : {
                            "AutoAppliedSmartFocus" : "False",
                            "WinSubProjectDisplayName" : "",
                            "clipSpeedAttribute" : false,
                            "default-scale0" : 1.0,
                            "default-scale1" : 1.0,
                            "default-translation0" : 0.0,
                            "default-translation1" : 0.0
                          },
                          "animationTracks" : {

                          }
                        },
                        {
                          "id" : 275,
                          "_type" : "ScreenVMFile",
                          "src" : 7,
                          "trackNumber" : 0,
                          "attributes" : {
                            "ident" : "Rec 02-07-19_001"
                          },
                          "parameters" : {
                            "cursorScale" : {
                              "type" : "double",
                              "defaultValue" : 0.0,
                              "interp" : "linr"
                            },
                            "cursorOpacity" : {
                              "type" : "double",
                              "defaultValue" : 0.0,
                              "interp" : "linr"
                            }
                          },
                          "effects" : [

                          ],
                          "start" : 686,
                          "duration" : 239,
                          "mediaStart" : 1444,
                          "mediaDuration" : 239,
                          "scalar" : 1,
                          "metadata" : {
                            "AutoAppliedSmartFocus" : "False",
                            "WinSubProjectDisplayName" : "",
                            "clipSpeedAttribute" : false,
                            "default-scale0" : 1.0,
                            "default-scale1" : 1.0,
                            "default-translation0" : 0.0,
                            "default-translation1" : 0.0
                          },
                          "animationTracks" : {

                          }
                        },
                        {
                          "id" : 276,
                          "_type" : "ScreenVMFile",
                          "src" : 7,
                          "trackNumber" : 0,
                          "attributes" : {
                            "ident" : "Rec 02-07-19_001"
                          },
                          "parameters" : {
                            "cursorScale" : {
                              "type" : "double",
                              "defaultValue" : 0.0,
                              "interp" : "linr"
                            },
                            "cursorOpacity" : {
                              "type" : "double",
                              "defaultValue" : 0.0,
                              "interp" : "linr"
                            }
                          },
                          "effects" : [

                          ],
                          "start" : 925,
                          "duration" : 128,
                          "mediaStart" : 1750,
                          "mediaDuration" : 128,
                          "scalar" : 1,
                          "metadata" : {
                            "AutoAppliedSmartFocus" : "False",
                            "WinSubProjectDisplayName" : "",
                            "clipSpeedAttribute" : false,
                            "default-scale0" : 1.0,
                            "default-scale1" : 1.0,
                            "default-translation0" : 0.0,
                            "default-translation1" : 0.0
                          },
                          "animationTracks" : {

                          }
                        },
                        {
                          "id" : 277,
                          "_type" : "ScreenVMFile",
                          "src" : 7,
                          "trackNumber" : 0,
                          "attributes" : {
                            "ident" : "Rec 02-07-19_001"
                          },
                          "parameters" : {
                            "cursorScale" : {
                              "type" : "double",
                              "defaultValue" : 0.0,
                              "interp" : "linr"
                            },
                            "cursorOpacity" : {
                              "type" : "double",
                              "defaultValue" : 0.0,
                              "interp" : "linr"
                            }
                          },
                          "effects" : [

                          ],
                          "start" : 1053,
                          "duration" : 298,
                          "mediaStart" : 1939,
                          "mediaDuration" : 298,
                          "scalar" : 1,
                          "metadata" : {
                            "AutoAppliedSmartFocus" : "False",
                            "WinSubProjectDisplayName" : "",
                            "clipSpeedAttribute" : false,
                            "default-scale0" : 1.0,
                            "default-scale1" : 1.0,
                            "default-translation0" : 0.0,
                            "default-translation1" : 0.0
                          },
                          "animationTracks" : {

                          }
                        },
                        {
                          "id" : 278,
                          "_type" : "ScreenVMFile",
                          "src" : 7,
                          "trackNumber" : 0,
                          "attributes" : {
                            "ident" : "Rec 02-07-19_001"
                          },
                          "parameters" : {
                            "cursorScale" : {
                              "type" : "double",
                              "defaultValue" : 0.0,
                              "interp" : "linr"
                            },
                            "cursorOpacity" : {
                              "type" : "double",
                              "defaultValue" : 0.0,
                              "interp" : "linr"
                            }
                          },
                          "effects" : [

                          ],
                          "start" : 1351,
                          "duration" : 524,
                          "mediaStart" : 2386,
                          "mediaDuration" : 524,
                          "scalar" : 1,
                          "metadata" : {
                            "AutoAppliedSmartFocus" : "False",
                            "WinSubProjectDisplayName" : "",
                            "clipSpeedAttribute" : false,
                            "default-scale0" : 1.0,
                            "default-scale1" : 1.0,
                            "default-translation0" : 0.0,
                            "default-translation1" : 0.0
                          },
                          "animationTracks" : {

                          }
                        },
                        {
                          "id" : 279,
                          "_type" : "ScreenVMFile",
                          "src" : 7,
                          "trackNumber" : 0,
                          "attributes" : {
                            "ident" : "Rec 02-07-19_001"
                          },
                          "parameters" : {
                            "cursorScale" : {
                              "type" : "double",
                              "defaultValue" : 0.0,
                              "interp" : "linr"
                            },
                            "cursorOpacity" : {
                              "type" : "double",
                              "defaultValue" : 0.0,
                              "interp" : "linr"
                            }
                          },
                          "effects" : [

                          ],
                          "start" : 1875,
                          "duration" : 143,
                          "mediaStart" : 3086,
                          "mediaDuration" : 143,
                          "scalar" : 1,
                          "metadata" : {
                            "AutoAppliedSmartFocus" : "False",
                            "WinSubProjectDisplayName" : "",
                            "clipSpeedAttribute" : false,
                            "default-scale0" : 1.0,
                            "default-scale1" : 1.0,
                            "default-translation0" : 0.0,
                            "default-translation1" : 0.0
                          },
                          "animationTracks" : {

                          }
                        },
                        {
                          "id" : 280,
                          "_type" : "ScreenVMFile",
                          "src" : 7,
                          "trackNumber" : 0,
                          "attributes" : {
                            "ident" : "Rec 02-07-19_001"
                          },
                          "parameters" : {
                            "cursorScale" : {
                              "type" : "double",
                              "defaultValue" : 0.0,
                              "interp" : "linr"
                            },
                            "cursorOpacity" : {
                              "type" : "double",
                              "defaultValue" : 0.0,
                              "interp" : "linr"
                            }
                          },
                          "effects" : [

                          ],
                          "start" : 2018,
                          "duration" : 1362,
                          "mediaStart" : 3692,
                          "mediaDuration" : 1362,
                          "scalar" : 1,
                          "metadata" : {
                            "AutoAppliedSmartFocus" : "False",
                            "WinSubProjectDisplayName" : "",
                            "clipSpeedAttribute" : false,
                            "default-scale0" : 1.0,
                            "default-scale1" : 1.0,
                            "default-translation0" : 0.0,
                            "default-translation1" : 0.0
                          },
                          "animationTracks" : {

                          }
                        },
                        {
                          "id" : 281,
                          "_type" : "ScreenVMFile",
                          "src" : 7,
                          "trackNumber" : 0,
                          "attributes" : {
                            "ident" : "Rec 02-07-19_001"
                          },
                          "parameters" : {
                            "cursorScale" : {
                              "type" : "double",
                              "defaultValue" : 0.0,
                              "interp" : "linr"
                            },
                            "cursorOpacity" : {
                              "type" : "double",
                              "defaultValue" : 0.0,
                              "interp" : "linr"
                            }
                          },
                          "effects" : [

                          ],
                          "start" : 3380,
                          "duration" : 218,
                          "mediaStart" : 5246,
                          "mediaDuration" : 218,
                          "scalar" : 1,
                          "metadata" : {
                            "AutoAppliedSmartFocus" : "False",
                            "WinSubProjectDisplayName" : "",
                            "clipSpeedAttribute" : false,
                            "default-scale0" : 1.0,
                            "default-scale1" : 1.0,
                            "default-translation0" : 0.0,
                            "default-translation1" : 0.0
                          },
                          "animationTracks" : {

                          }
                        },
                        {
                          "id" : 282,
                          "_type" : "ScreenVMFile",
                          "src" : 7,
                          "trackNumber" : 0,
                          "attributes" : {
                            "ident" : "Rec 02-07-19_001"
                          },
                          "parameters" : {
                            "cursorScale" : {
                              "type" : "double",
                              "defaultValue" : 0.0,
                              "interp" : "linr"
                            },
                            "cursorOpacity" : {
                              "type" : "double",
                              "defaultValue" : 0.0,
                              "interp" : "linr"
                            }
                          },
                          "effects" : [

                          ],
                          "start" : 3598,
                          "duration" : 473,
                          "mediaStart" : 6154,
                          "mediaDuration" : 473,
                          "scalar" : 1,
                          "metadata" : {
                            "AutoAppliedSmartFocus" : "False",
                            "WinSubProjectDisplayName" : "",
                            "clipSpeedAttribute" : false,
                            "default-scale0" : 1.0,
                            "default-scale1" : 1.0,
                            "default-translation0" : 0.0,
                            "default-translation1" : 0.0
                          },
                          "animationTracks" : {

                          }
                        },
                        {
                          "id" : 283,
                          "_type" : "ScreenVMFile",
                          "src" : 7,
                          "trackNumber" : 0,
                          "attributes" : {
                            "ident" : "Rec 02-07-19_001"
                          },
                          "parameters" : {
                            "cursorScale" : {
                              "type" : "double",
                              "defaultValue" : 0.0,
                              "interp" : "linr"
                            },
                            "cursorOpacity" : {
                              "type" : "double",
                              "defaultValue" : 0.0,
                              "interp" : "linr"
                            }
                          },
                          "effects" : [

                          ],
                          "start" : 4071,
                          "duration" : 164,
                          "mediaStart" : 6726,
                          "mediaDuration" : 164,
                          "scalar" : 1,
                          "metadata" : {
                            "AutoAppliedSmartFocus" : "False",
                            "WinSubProjectDisplayName" : "",
                            "clipSpeedAttribute" : false,
                            "default-scale0" : 1.0,
                            "default-scale1" : 1.0,
                            "default-translation0" : 0.0,
                            "default-translation1" : 0.0
                          },
                          "animationTracks" : {

                          }
                        },
                        {
                          "id" : 284,
                          "_type" : "ScreenVMFile",
                          "src" : 7,
                          "trackNumber" : 0,
                          "attributes" : {
                            "ident" : "Rec 02-07-19_001"
                          },
                          "parameters" : {
                            "cursorScale" : {
                              "type" : "double",
                              "defaultValue" : 0.0,
                              "interp" : "linr"
                            },
                            "cursorOpacity" : {
                              "type" : "double",
                              "defaultValue" : 0.0,
                              "interp" : "linr"
                            }
                          },
                          "effects" : [

                          ],
                          "start" : 4235,
                          "duration" : 1279,
                          "mediaStart" : 7107,
                          "mediaDuration" : 1279,
                          "scalar" : 1,
                          "metadata" : {
                            "AutoAppliedSmartFocus" : "False",
                            "WinSubProjectDisplayName" : "",
                            "clipSpeedAttribute" : false,
                            "default-scale0" : 1.0,
                            "default-scale1" : 1.0,
                            "default-translation0" : 0.0,
                            "default-translation1" : 0.0
                          },
                          "animationTracks" : {

                          }
                        },
                        {
                          "id" : 285,
                          "_type" : "ScreenVMFile",
                          "src" : 7,
                          "trackNumber" : 0,
                          "attributes" : {
                            "ident" : "Rec 02-07-19_001"
                          },
                          "parameters" : {
                            "cursorScale" : {
                              "type" : "double",
                              "defaultValue" : 0.0,
                              "interp" : "linr"
                            },
                            "cursorOpacity" : {
                              "type" : "double",
                              "defaultValue" : 0.0,
                              "interp" : "linr"
                            }
                          },
                          "effects" : [

                          ],
                          "start" : 5514,
                          "duration" : 1542,
                          "mediaStart" : 8518,
                          "mediaDuration" : 1542,
                          "scalar" : 1,
                          "metadata" : {
                            "AutoAppliedSmartFocus" : "False",
                            "WinSubProjectDisplayName" : "",
                            "clipSpeedAttribute" : false,
                            "default-scale0" : 1.0,
                            "default-scale1" : 1.0,
                            "default-translation0" : 0.0,
                            "default-translation1" : 0.0
                          },
                          "animationTracks" : {

                          }
                        },
                        {
                          "id" : 286,
                          "_type" : "ScreenVMFile",
                          "src" : 7,
                          "trackNumber" : 0,
                          "attributes" : {
                            "ident" : "Rec 02-07-19_001"
                          },
                          "parameters" : {
                            "cursorScale" : {
                              "type" : "double",
                              "defaultValue" : 0.0,
                              "interp" : "linr"
                            },
                            "cursorOpacity" : {
                              "type" : "double",
                              "defaultValue" : 0.0,
                              "interp" : "linr"
                            }
                          },
                          "effects" : [

                          ],
                          "start" : 7056,
                          "duration" : 846,
                          "mediaStart" : 10392,
                          "mediaDuration" : 846,
                          "scalar" : 1,
                          "metadata" : {
                            "AutoAppliedSmartFocus" : "False",
                            "WinSubProjectDisplayName" : "",
                            "clipSpeedAttribute" : false,
                            "default-scale0" : 1.0,
                            "default-scale1" : 1.0,
                            "default-translation0" : 0.0,
                            "default-translation1" : 0.0
                          },
                          "animationTracks" : {

                          }
                        },
                        {
                          "id" : 287,
                          "_type" : "ScreenVMFile",
                          "src" : 7,
                          "trackNumber" : 0,
                          "attributes" : {
                            "ident" : "Rec 02-07-19_001"
                          },
                          "parameters" : {
                            "cursorScale" : {
                              "type" : "double",
                              "defaultValue" : 0.0,
                              "interp" : "linr"
                            },
                            "cursorOpacity" : {
                              "type" : "double",
                              "defaultValue" : 0.0,
                              "interp" : "linr"
                            }
                          },
                          "effects" : [

                          ],
                          "start" : 7902,
                          "duration" : 451,
                          "mediaStart" : 11363,
                          "mediaDuration" : 451,
                          "scalar" : 1,
                          "metadata" : {
                            "AutoAppliedSmartFocus" : "False",
                            "WinSubProjectDisplayName" : "",
                            "clipSpeedAttribute" : false,
                            "default-scale0" : 1.0,
                            "default-scale1" : 1.0,
                            "default-translation0" : 0.0,
                            "default-translation1" : 0.0
                          },
                          "animationTracks" : {

                          }
                        },
                        {
                          "id" : 288,
                          "_type" : "ScreenVMFile",
                          "src" : 7,
                          "trackNumber" : 0,
                          "attributes" : {
                            "ident" : "Rec 02-07-19_001"
                          },
                          "parameters" : {
                            "cursorScale" : {
                              "type" : "double",
                              "defaultValue" : 0.0,
                              "interp" : "linr"
                            },
                            "cursorOpacity" : {
                              "type" : "double",
                              "defaultValue" : 0.0,
                              "interp" : "linr"
                            }
                          },
                          "effects" : [

                          ],
                          "start" : 8353,
                          "duration" : 423,
                          "mediaStart" : 12079,
                          "mediaDuration" : 423,
                          "scalar" : 1,
                          "metadata" : {
                            "AutoAppliedSmartFocus" : "False",
                            "WinSubProjectDisplayName" : "",
                            "clipSpeedAttribute" : false,
                            "default-scale0" : 1.0,
                            "default-scale1" : 1.0,
                            "default-translation0" : 0.0,
                            "default-translation1" : 0.0
                          },
                          "animationTracks" : {

                          }
                        },
                        {
                          "id" : 289,
                          "_type" : "ScreenVMFile",
                          "src" : 7,
                          "trackNumber" : 0,
                          "attributes" : {
                            "ident" : "Rec 02-07-19_001"
                          },
                          "parameters" : {
                            "cursorScale" : {
                              "type" : "double",
                              "defaultValue" : 0.0,
                              "interp" : "linr"
                            },
                            "cursorOpacity" : {
                              "type" : "double",
                              "defaultValue" : 0.0,
                              "interp" : "linr"
                            }
                          },
                          "effects" : [

                          ],
                          "start" : 8776,
                          "duration" : 2615,
                          "mediaStart" : 12807,
                          "mediaDuration" : 2615,
                          "scalar" : 1,
                          "metadata" : {
                            "AutoAppliedSmartFocus" : "False",
                            "WinSubProjectDisplayName" : "",
                            "clipSpeedAttribute" : false,
                            "default-scale0" : 1.0,
                            "default-scale1" : 1.0,
                            "default-translation0" : 0.0,
                            "default-translation1" : 0.0
                          },
                          "animationTracks" : {

                          }
                        },
                        {
                          "id" : 290,
                          "_type" : "ScreenVMFile",
                          "src" : 7,
                          "trackNumber" : 0,
                          "attributes" : {
                            "ident" : "Rec 02-07-19_001"
                          },
                          "parameters" : {
                            "cursorScale" : {
                              "type" : "double",
                              "defaultValue" : 0.0,
                              "interp" : "linr"
                            },
                            "cursorOpacity" : {
                              "type" : "double",
                              "defaultValue" : 0.0,
                              "interp" : "linr"
                            }
                          },
                          "effects" : [

                          ],
                          "start" : 11391,
                          "duration" : 10090,
                          "mediaStart" : 16306,
                          "mediaDuration" : 10090,
                          "scalar" : 1,
                          "metadata" : {
                            "AutoAppliedSmartFocus" : "False",
                            "WinSubProjectDisplayName" : "",
                            "clipSpeedAttribute" : false,
                            "default-scale0" : 1.0,
                            "default-scale1" : 1.0,
                            "default-translation0" : 0.0,
                            "default-translation1" : 0.0
                          },
                          "animationTracks" : {

                          }
                        }
                    ],
                    "effects" : [

                    ],
                    "start" : 24622,
                    "duration" : 197,
                    "mediaStart" : 13401,
                    "mediaDuration" : 592,
                    "scalar" : "197/592",
                    "metadata" : {
                      "AutoAppliedSmartFocus" : "False",
                      "WinSubProjectDisplayName" : "",
                      "clipSpeedAttribute" : true,
                      "default-scale0" : 2.54658333333333,
                      "default-scale1" : 2.54658333333333,
                      "default-translation0" : 841.181818181749,
                      "default-translation1" : -392.363636363758
                    },
                    "animationTracks" : {
                      "visual" : [
                        {
                          "endTime" : 1043,
                          "duration" : 30,
                          "range" : [ 1013, 30]
                        },
                        {
                          "endTime" : 1141,
                          "duration" : 30,
                          "range" : [ 1111, 30]
                        },
                        {
                          "endTime" : 2358,
                          "duration" : 30,
                          "range" : [ 2328, 30]
                        },
                        {
                          "endTime" : 2478,
                          "duration" : 30,
                          "range" : [ 2448, 30]
                        },
                        {
                          "endTime" : 3666,
                          "duration" : 30,
                          "range" : [ 3636, 30]
                        },
                        {
                          "endTime" : 4066,
                          "duration" : 30,
                          "range" : [ 4036, 30]
                        },
                        {
                          "endTime" : 4469,
                          "duration" : 30,
                          "range" : [ 4439, 30]
                        },
                        {
                          "endTime" : 4992,
                          "duration" : 30,
                          "range" : [ 4962, 30]
                        },
                        {
                          "endTime" : 5236,
                          "duration" : 30,
                          "range" : [ 5206, 30]
                        },
                        {
                          "endTime" : 5442,
                          "duration" : 30,
                          "range" : [ 5412, 30]
                        },
                        {
                          "endTime" : 6736,
                          "duration" : 30,
                          "range" : [ 6706, 30]
                        },
                        {
                          "endTime" : 7923,
                          "duration" : 30,
                          "range" : [ 7893, 30]
                        },
                        {
                          "endTime" : 11994,
                          "duration" : 30,
                          "range" : [ 11964, 30]
                        },
                        {
                          "endTime" : 12178,
                          "duration" : 30,
                          "range" : [ 12148, 30]
                        }
                      ]
                    }
                  },
                  {
                    "id" : 291,
                    "_type" : "StitchedMedia",
                    "minMediaStart" : 0,
                    "attributes" : {
                      "ident" : "Rec 02-07-19_001",
                      "gain" : 1.0,
                      "mixToMono" : false
                    },
                    "parameters" : {
                      "translation0" : {
                        "type" : "double",
                        "defaultValue" : 90.3846153842169,
                        "keyframes" : [
                          {
                            "endTime" : 1043,
                            "time" : 1013,
                            "value" : 173.076923076545,
                            "duration" : 30
                          },
                          {
                            "endTime" : 1141,
                            "time" : 1111,
                            "value" : 90.4,
                            "duration" : 30
                          },
                          {
                            "endTime" : 2358,
                            "time" : 2328,
                            "value" : 134.630769230764,
                            "duration" : 30
                          },
                          {
                            "endTime" : 2478,
                            "time" : 2448,
                            "value" : 382.70769230741,
                            "duration" : 30
                          },
                          {
                            "endTime" : 3666,
                            "time" : 3636,
                            "value" : -560.474125874959,
                            "duration" : 30
                          },
                          {
                            "endTime" : 4066,
                            "time" : 4036,
                            "value" : 27.2727272727602,
                            "duration" : 30
                          },
                          {
                            "endTime" : 4469,
                            "time" : 4439,
                            "value" : -581.8181818181,
                            "duration" : 30
                          },
                          {
                            "endTime" : 4992,
                            "time" : 4962,
                            "value" : 986.363636363861,
                            "duration" : 30
                          },
                          {
                            "endTime" : 5236,
                            "time" : 5206,
                            "value" : 49.4545454549895,
                            "duration" : 30
                          },
                          {
                            "endTime" : 5442,
                            "time" : 5412,
                            "value" : 908.545454546065,
                            "duration" : 30
                          },
                          {
                            "endTime" : 6736,
                            "time" : 6706,
                            "value" : 447.999999999954,
                            "duration" : 30
                          },
                          {
                            "endTime" : 7923,
                            "time" : 7893,
                            "value" : 841.181818181749,
                            "duration" : 30
                          },
                          {
                            "endTime" : 11994,
                            "time" : 11964,
                            "value" : 448.000000000077,
                            "duration" : 30
                          },
                          {
                            "endTime" : 12178,
                            "time" : 12148,
                            "value" : 98.0000000001039,
                            "duration" : 30
                          },
                          {
                            "endTime" : 14434,
                            "time" : 14404,
                            "value" : 479.81818181804,
                            "duration" : 30
                          }
                        ]
                      },
                      "translation1" : {
                        "type" : "double",
                        "defaultValue" : -155.999999999973,
                        "keyframes" : [
                          {
                            "endTime" : 1043,
                            "time" : 1013,
                            "value" : 101.692307692331,
                            "duration" : 30
                          },
                          {
                            "endTime" : 1141,
                            "time" : 1111,
                            "value" : -156.0,
                            "duration" : 30
                          },
                          {
                            "endTime" : 2358,
                            "time" : 2328,
                            "value" : 217.076923076909,
                            "duration" : 30
                          },
                          {
                            "endTime" : 2478,
                            "time" : 2448,
                            "value" : -59.6153846154014,
                            "duration" : 30
                          },
                          {
                            "endTime" : 3666,
                            "time" : 3636,
                            "value" : -179.81818181819,
                            "duration" : 30
                          },
                          {
                            "endTime" : 4066,
                            "time" : 4036,
                            "value" : -347.999999999825,
                            "duration" : 30
                          },
                          {
                            "endTime" : 4469,
                            "time" : 4439,
                            "value" : -372.999999999852,
                            "duration" : 30
                          },
                          {
                            "endTime" : 4992,
                            "time" : 4962,
                            "value" : -539.999999999761,
                            "duration" : 30
                          },
                          {
                            "endTime" : 5236,
                            "time" : 5206,
                            "value" : 62.1818181819394,
                            "duration" : 30
                          },
                          {
                            "endTime" : 5442,
                            "time" : 5412,
                            "value" : -474.181818181744,
                            "duration" : 30
                          },
                          {
                            "endTime" : 6736,
                            "time" : 6706,
                            "value" : -471.90909090916,
                            "duration" : 30
                          },
                          {
                            "endTime" : 7923,
                            "time" : 7893,
                            "value" : -392.363636363758,
                            "duration" : 30
                          },
                          {
                            "endTime" : 11994,
                            "time" : 11964,
                            "value" : -242.363636363752,
                            "duration" : 30
                          },
                          {
                            "endTime" : 12178,
                            "time" : 12148,
                            "value" : -101.454545454671,
                            "duration" : 30
                          },
                          {
                            "endTime" : 14434,
                            "time" : 14404,
                            "value" : -53.7272727273309,
                            "duration" : 30
                          }
                        ]
                      },
                      "scale0" : {
                        "type" : "double",
                        "defaultValue" : 1.66533333333333,
                        "keyframes" : [
                          {
                            "endTime" : 1043,
                            "time" : 1013,
                            "value" : 1.0,
                            "duration" : 30
                          },
                          {
                            "endTime" : 3666,
                            "time" : 3636,
                            "value" : 2.12275,
                            "duration" : 30
                          },
                          {
                            "endTime" : 4066,
                            "time" : 4036,
                            "value" : 1.66533333333333,
                            "duration" : 30
                          },
                          {
                            "endTime" : 4469,
                            "time" : 4439,
                            "value" : 2.66333333333333,
                            "duration" : 30
                          },
                          {
                            "endTime" : 4992,
                            "time" : 4962,
                            "value" : 2.28908333333333,
                            "duration" : 30
                          },
                          {
                            "endTime" : 5236,
                            "time" : 5206,
                            "value" : 1.2495,
                            "duration" : 30
                          },
                          {
                            "endTime" : 5442,
                            "time" : 5412,
                            "value" : 2.54658333333333,
                            "duration" : 30
                          },
                          {
                            "endTime" : 11994,
                            "time" : 11964,
                            "value" : 1.78,
                            "duration" : 30
                          },
                          {
                            "endTime" : 12178,
                            "time" : 12148,
                            "value" : 2.778,
                            "duration" : 30
                          },
                          {
                            "endTime" : 14434,
                            "time" : 14404,
                            "value" : 2.2,
                            "duration" : 30
                          }
                        ]
                      },
                      "scale1" : {
                        "type" : "double",
                        "defaultValue" : 1.66533333333333,
                        "keyframes" : [
                          {
                            "endTime" : 1043,
                            "time" : 1013,
                            "value" : 1.0,
                            "duration" : 30
                          },
                          {
                            "endTime" : 3666,
                            "time" : 3636,
                            "value" : 2.12275,
                            "duration" : 30
                          },
                          {
                            "endTime" : 4066,
                            "time" : 4036,
                            "value" : 1.66533333333333,
                            "duration" : 30
                          },
                          {
                            "endTime" : 4469,
                            "time" : 4439,
                            "value" : 2.66333333333333,
                            "duration" : 30
                          },
                          {
                            "endTime" : 4992,
                            "time" : 4962,
                            "value" : 2.28908333333333,
                            "duration" : 30
                          },
                          {
                            "endTime" : 5236,
                            "time" : 5206,
                            "value" : 1.2495,
                            "duration" : 30
                          },
                          {
                            "endTime" : 5442,
                            "time" : 5412,
                            "value" : 2.54658333333333,
                            "duration" : 30
                          },
                          {
                            "endTime" : 11994,
                            "time" : 11964,
                            "value" : 1.78,
                            "duration" : 30
                          },
                          {
                            "endTime" : 12178,
                            "time" : 12148,
                            "value" : 2.778,
                            "duration" : 30
                          },
                          {
                            "endTime" : 14434,
                            "time" : 14404,
                            "value" : 2.2,
                            "duration" : 30
                          }
                        ]
                      },
                      "cursorOpacity" : 1.0,
                      "cursorScale" : 1.0
                    },
                    "medias" : [
                        {
                          "id" : 292,
                          "_type" : "ScreenVMFile",
                          "src" : 7,
                          "trackNumber" : 0,
                          "attributes" : {
                            "ident" : "Rec 02-07-19_001"
                          },
                          "parameters" : {
                            "cursorScale" : {
                              "type" : "double",
                              "defaultValue" : 0.0,
                              "interp" : "linr"
                            },
                            "cursorOpacity" : {
                              "type" : "double",
                              "defaultValue" : 0.0,
                              "interp" : "linr"
                            }
                          },
                          "effects" : [

                          ],
                          "start" : 0,
                          "duration" : 496,
                          "mediaStart" : 0,
                          "mediaDuration" : 496,
                          "scalar" : 1,
                          "metadata" : {
                            "AutoAppliedSmartFocus" : "False",
                            "WinSubProjectDisplayName" : "",
                            "clipSpeedAttribute" : false,
                            "default-scale0" : 1.0,
                            "default-scale1" : 1.0,
                            "default-translation0" : 0.0,
                            "default-translation1" : 0.0
                          },
                          "animationTracks" : {

                          }
                        },
                        {
                          "id" : 293,
                          "_type" : "ScreenVMFile",
                          "src" : 7,
                          "trackNumber" : 0,
                          "attributes" : {
                            "ident" : "Rec 02-07-19_001"
                          },
                          "parameters" : {
                            "cursorScale" : {
                              "type" : "double",
                              "defaultValue" : 0.0,
                              "interp" : "linr"
                            },
                            "cursorOpacity" : {
                              "type" : "double",
                              "defaultValue" : 0.0,
                              "interp" : "linr"
                            }
                          },
                          "effects" : [

                          ],
                          "start" : 496,
                          "duration" : 190,
                          "mediaStart" : 715,
                          "mediaDuration" : 190,
                          "scalar" : 1,
                          "metadata" : {
                            "AutoAppliedSmartFocus" : "False",
                            "WinSubProjectDisplayName" : "",
                            "clipSpeedAttribute" : false,
                            "default-scale0" : 1.0,
                            "default-scale1" : 1.0,
                            "default-translation0" : 0.0,
                            "default-translation1" : 0.0
                          },
                          "animationTracks" : {

                          }
                        },
                        {
                          "id" : 294,
                          "_type" : "ScreenVMFile",
                          "src" : 7,
                          "trackNumber" : 0,
                          "attributes" : {
                            "ident" : "Rec 02-07-19_001"
                          },
                          "parameters" : {
                            "cursorScale" : {
                              "type" : "double",
                              "defaultValue" : 0.0,
                              "interp" : "linr"
                            },
                            "cursorOpacity" : {
                              "type" : "double",
                              "defaultValue" : 0.0,
                              "interp" : "linr"
                            }
                          },
                          "effects" : [

                          ],
                          "start" : 686,
                          "duration" : 239,
                          "mediaStart" : 1444,
                          "mediaDuration" : 239,
                          "scalar" : 1,
                          "metadata" : {
                            "AutoAppliedSmartFocus" : "False",
                            "WinSubProjectDisplayName" : "",
                            "clipSpeedAttribute" : false,
                            "default-scale0" : 1.0,
                            "default-scale1" : 1.0,
                            "default-translation0" : 0.0,
                            "default-translation1" : 0.0
                          },
                          "animationTracks" : {

                          }
                        },
                        {
                          "id" : 295,
                          "_type" : "ScreenVMFile",
                          "src" : 7,
                          "trackNumber" : 0,
                          "attributes" : {
                            "ident" : "Rec 02-07-19_001"
                          },
                          "parameters" : {
                            "cursorScale" : {
                              "type" : "double",
                              "defaultValue" : 0.0,
                              "interp" : "linr"
                            },
                            "cursorOpacity" : {
                              "type" : "double",
                              "defaultValue" : 0.0,
                              "interp" : "linr"
                            }
                          },
                          "effects" : [

                          ],
                          "start" : 925,
                          "duration" : 128,
                          "mediaStart" : 1750,
                          "mediaDuration" : 128,
                          "scalar" : 1,
                          "metadata" : {
                            "AutoAppliedSmartFocus" : "False",
                            "WinSubProjectDisplayName" : "",
                            "clipSpeedAttribute" : false,
                            "default-scale0" : 1.0,
                            "default-scale1" : 1.0,
                            "default-translation0" : 0.0,
                            "default-translation1" : 0.0
                          },
                          "animationTracks" : {

                          }
                        },
                        {
                          "id" : 296,
                          "_type" : "ScreenVMFile",
                          "src" : 7,
                          "trackNumber" : 0,
                          "attributes" : {
                            "ident" : "Rec 02-07-19_001"
                          },
                          "parameters" : {
                            "cursorScale" : {
                              "type" : "double",
                              "defaultValue" : 0.0,
                              "interp" : "linr"
                            },
                            "cursorOpacity" : {
                              "type" : "double",
                              "defaultValue" : 0.0,
                              "interp" : "linr"
                            }
                          },
                          "effects" : [

                          ],
                          "start" : 1053,
                          "duration" : 298,
                          "mediaStart" : 1939,
                          "mediaDuration" : 298,
                          "scalar" : 1,
                          "metadata" : {
                            "AutoAppliedSmartFocus" : "False",
                            "WinSubProjectDisplayName" : "",
                            "clipSpeedAttribute" : false,
                            "default-scale0" : 1.0,
                            "default-scale1" : 1.0,
                            "default-translation0" : 0.0,
                            "default-translation1" : 0.0
                          },
                          "animationTracks" : {

                          }
                        },
                        {
                          "id" : 297,
                          "_type" : "ScreenVMFile",
                          "src" : 7,
                          "trackNumber" : 0,
                          "attributes" : {
                            "ident" : "Rec 02-07-19_001"
                          },
                          "parameters" : {
                            "cursorScale" : {
                              "type" : "double",
                              "defaultValue" : 0.0,
                              "interp" : "linr"
                            },
                            "cursorOpacity" : {
                              "type" : "double",
                              "defaultValue" : 0.0,
                              "interp" : "linr"
                            }
                          },
                          "effects" : [

                          ],
                          "start" : 1351,
                          "duration" : 524,
                          "mediaStart" : 2386,
                          "mediaDuration" : 524,
                          "scalar" : 1,
                          "metadata" : {
                            "AutoAppliedSmartFocus" : "False",
                            "WinSubProjectDisplayName" : "",
                            "clipSpeedAttribute" : false,
                            "default-scale0" : 1.0,
                            "default-scale1" : 1.0,
                            "default-translation0" : 0.0,
                            "default-translation1" : 0.0
                          },
                          "animationTracks" : {

                          }
                        },
                        {
                          "id" : 298,
                          "_type" : "ScreenVMFile",
                          "src" : 7,
                          "trackNumber" : 0,
                          "attributes" : {
                            "ident" : "Rec 02-07-19_001"
                          },
                          "parameters" : {
                            "cursorScale" : {
                              "type" : "double",
                              "defaultValue" : 0.0,
                              "interp" : "linr"
                            },
                            "cursorOpacity" : {
                              "type" : "double",
                              "defaultValue" : 0.0,
                              "interp" : "linr"
                            }
                          },
                          "effects" : [

                          ],
                          "start" : 1875,
                          "duration" : 143,
                          "mediaStart" : 3086,
                          "mediaDuration" : 143,
                          "scalar" : 1,
                          "metadata" : {
                            "AutoAppliedSmartFocus" : "False",
                            "WinSubProjectDisplayName" : "",
                            "clipSpeedAttribute" : false,
                            "default-scale0" : 1.0,
                            "default-scale1" : 1.0,
                            "default-translation0" : 0.0,
                            "default-translation1" : 0.0
                          },
                          "animationTracks" : {

                          }
                        },
                        {
                          "id" : 299,
                          "_type" : "ScreenVMFile",
                          "src" : 7,
                          "trackNumber" : 0,
                          "attributes" : {
                            "ident" : "Rec 02-07-19_001"
                          },
                          "parameters" : {
                            "cursorScale" : {
                              "type" : "double",
                              "defaultValue" : 0.0,
                              "interp" : "linr"
                            },
                            "cursorOpacity" : {
                              "type" : "double",
                              "defaultValue" : 0.0,
                              "interp" : "linr"
                            }
                          },
                          "effects" : [

                          ],
                          "start" : 2018,
                          "duration" : 1362,
                          "mediaStart" : 3692,
                          "mediaDuration" : 1362,
                          "scalar" : 1,
                          "metadata" : {
                            "AutoAppliedSmartFocus" : "False",
                            "WinSubProjectDisplayName" : "",
                            "clipSpeedAttribute" : false,
                            "default-scale0" : 1.0,
                            "default-scale1" : 1.0,
                            "default-translation0" : 0.0,
                            "default-translation1" : 0.0
                          },
                          "animationTracks" : {

                          }
                        },
                        {
                          "id" : 300,
                          "_type" : "ScreenVMFile",
                          "src" : 7,
                          "trackNumber" : 0,
                          "attributes" : {
                            "ident" : "Rec 02-07-19_001"
                          },
                          "parameters" : {
                            "cursorScale" : {
                              "type" : "double",
                              "defaultValue" : 0.0,
                              "interp" : "linr"
                            },
                            "cursorOpacity" : {
                              "type" : "double",
                              "defaultValue" : 0.0,
                              "interp" : "linr"
                            }
                          },
                          "effects" : [

                          ],
                          "start" : 3380,
                          "duration" : 218,
                          "mediaStart" : 5246,
                          "mediaDuration" : 218,
                          "scalar" : 1,
                          "metadata" : {
                            "AutoAppliedSmartFocus" : "False",
                            "WinSubProjectDisplayName" : "",
                            "clipSpeedAttribute" : false,
                            "default-scale0" : 1.0,
                            "default-scale1" : 1.0,
                            "default-translation0" : 0.0,
                            "default-translation1" : 0.0
                          },
                          "animationTracks" : {

                          }
                        },
                        {
                          "id" : 301,
                          "_type" : "ScreenVMFile",
                          "src" : 7,
                          "trackNumber" : 0,
                          "attributes" : {
                            "ident" : "Rec 02-07-19_001"
                          },
                          "parameters" : {
                            "cursorScale" : {
                              "type" : "double",
                              "defaultValue" : 0.0,
                              "interp" : "linr"
                            },
                            "cursorOpacity" : {
                              "type" : "double",
                              "defaultValue" : 0.0,
                              "interp" : "linr"
                            }
                          },
                          "effects" : [

                          ],
                          "start" : 3598,
                          "duration" : 473,
                          "mediaStart" : 6154,
                          "mediaDuration" : 473,
                          "scalar" : 1,
                          "metadata" : {
                            "AutoAppliedSmartFocus" : "False",
                            "WinSubProjectDisplayName" : "",
                            "clipSpeedAttribute" : false,
                            "default-scale0" : 1.0,
                            "default-scale1" : 1.0,
                            "default-translation0" : 0.0,
                            "default-translation1" : 0.0
                          },
                          "animationTracks" : {

                          }
                        },
                        {
                          "id" : 302,
                          "_type" : "ScreenVMFile",
                          "src" : 7,
                          "trackNumber" : 0,
                          "attributes" : {
                            "ident" : "Rec 02-07-19_001"
                          },
                          "parameters" : {
                            "cursorScale" : {
                              "type" : "double",
                              "defaultValue" : 0.0,
                              "interp" : "linr"
                            },
                            "cursorOpacity" : {
                              "type" : "double",
                              "defaultValue" : 0.0,
                              "interp" : "linr"
                            }
                          },
                          "effects" : [

                          ],
                          "start" : 4071,
                          "duration" : 164,
                          "mediaStart" : 6726,
                          "mediaDuration" : 164,
                          "scalar" : 1,
                          "metadata" : {
                            "AutoAppliedSmartFocus" : "False",
                            "WinSubProjectDisplayName" : "",
                            "clipSpeedAttribute" : false,
                            "default-scale0" : 1.0,
                            "default-scale1" : 1.0,
                            "default-translation0" : 0.0,
                            "default-translation1" : 0.0
                          },
                          "animationTracks" : {

                          }
                        },
                        {
                          "id" : 303,
                          "_type" : "ScreenVMFile",
                          "src" : 7,
                          "trackNumber" : 0,
                          "attributes" : {
                            "ident" : "Rec 02-07-19_001"
                          },
                          "parameters" : {
                            "cursorScale" : {
                              "type" : "double",
                              "defaultValue" : 0.0,
                              "interp" : "linr"
                            },
                            "cursorOpacity" : {
                              "type" : "double",
                              "defaultValue" : 0.0,
                              "interp" : "linr"
                            }
                          },
                          "effects" : [

                          ],
                          "start" : 4235,
                          "duration" : 1279,
                          "mediaStart" : 7107,
                          "mediaDuration" : 1279,
                          "scalar" : 1,
                          "metadata" : {
                            "AutoAppliedSmartFocus" : "False",
                            "WinSubProjectDisplayName" : "",
                            "clipSpeedAttribute" : false,
                            "default-scale0" : 1.0,
                            "default-scale1" : 1.0,
                            "default-translation0" : 0.0,
                            "default-translation1" : 0.0
                          },
                          "animationTracks" : {

                          }
                        },
                        {
                          "id" : 304,
                          "_type" : "ScreenVMFile",
                          "src" : 7,
                          "trackNumber" : 0,
                          "attributes" : {
                            "ident" : "Rec 02-07-19_001"
                          },
                          "parameters" : {
                            "cursorScale" : {
                              "type" : "double",
                              "defaultValue" : 0.0,
                              "interp" : "linr"
                            },
                            "cursorOpacity" : {
                              "type" : "double",
                              "defaultValue" : 0.0,
                              "interp" : "linr"
                            }
                          },
                          "effects" : [

                          ],
                          "start" : 5514,
                          "duration" : 1542,
                          "mediaStart" : 8518,
                          "mediaDuration" : 1542,
                          "scalar" : 1,
                          "metadata" : {
                            "AutoAppliedSmartFocus" : "False",
                            "WinSubProjectDisplayName" : "",
                            "clipSpeedAttribute" : false,
                            "default-scale0" : 1.0,
                            "default-scale1" : 1.0,
                            "default-translation0" : 0.0,
                            "default-translation1" : 0.0
                          },
                          "animationTracks" : {

                          }
                        },
                        {
                          "id" : 305,
                          "_type" : "ScreenVMFile",
                          "src" : 7,
                          "trackNumber" : 0,
                          "attributes" : {
                            "ident" : "Rec 02-07-19_001"
                          },
                          "parameters" : {
                            "cursorScale" : {
                              "type" : "double",
                              "defaultValue" : 0.0,
                              "interp" : "linr"
                            },
                            "cursorOpacity" : {
                              "type" : "double",
                              "defaultValue" : 0.0,
                              "interp" : "linr"
                            }
                          },
                          "effects" : [

                          ],
                          "start" : 7056,
                          "duration" : 846,
                          "mediaStart" : 10392,
                          "mediaDuration" : 846,
                          "scalar" : 1,
                          "metadata" : {
                            "AutoAppliedSmartFocus" : "False",
                            "WinSubProjectDisplayName" : "",
                            "clipSpeedAttribute" : false,
                            "default-scale0" : 1.0,
                            "default-scale1" : 1.0,
                            "default-translation0" : 0.0,
                            "default-translation1" : 0.0
                          },
                          "animationTracks" : {

                          }
                        },
                        {
                          "id" : 306,
                          "_type" : "ScreenVMFile",
                          "src" : 7,
                          "trackNumber" : 0,
                          "attributes" : {
                            "ident" : "Rec 02-07-19_001"
                          },
                          "parameters" : {
                            "cursorScale" : {
                              "type" : "double",
                              "defaultValue" : 0.0,
                              "interp" : "linr"
                            },
                            "cursorOpacity" : {
                              "type" : "double",
                              "defaultValue" : 0.0,
                              "interp" : "linr"
                            }
                          },
                          "effects" : [

                          ],
                          "start" : 7902,
                          "duration" : 451,
                          "mediaStart" : 11363,
                          "mediaDuration" : 451,
                          "scalar" : 1,
                          "metadata" : {
                            "AutoAppliedSmartFocus" : "False",
                            "WinSubProjectDisplayName" : "",
                            "clipSpeedAttribute" : false,
                            "default-scale0" : 1.0,
                            "default-scale1" : 1.0,
                            "default-translation0" : 0.0,
                            "default-translation1" : 0.0
                          },
                          "animationTracks" : {

                          }
                        },
                        {
                          "id" : 307,
                          "_type" : "ScreenVMFile",
                          "src" : 7,
                          "trackNumber" : 0,
                          "attributes" : {
                            "ident" : "Rec 02-07-19_001"
                          },
                          "parameters" : {
                            "cursorScale" : {
                              "type" : "double",
                              "defaultValue" : 0.0,
                              "interp" : "linr"
                            },
                            "cursorOpacity" : {
                              "type" : "double",
                              "defaultValue" : 0.0,
                              "interp" : "linr"
                            }
                          },
                          "effects" : [

                          ],
                          "start" : 8353,
                          "duration" : 423,
                          "mediaStart" : 12079,
                          "mediaDuration" : 423,
                          "scalar" : 1,
                          "metadata" : {
                            "AutoAppliedSmartFocus" : "False",
                            "WinSubProjectDisplayName" : "",
                            "clipSpeedAttribute" : false,
                            "default-scale0" : 1.0,
                            "default-scale1" : 1.0,
                            "default-translation0" : 0.0,
                            "default-translation1" : 0.0
                          },
                          "animationTracks" : {

                          }
                        },
                        {
                          "id" : 308,
                          "_type" : "ScreenVMFile",
                          "src" : 7,
                          "trackNumber" : 0,
                          "attributes" : {
                            "ident" : "Rec 02-07-19_001"
                          },
                          "parameters" : {
                            "cursorScale" : {
                              "type" : "double",
                              "defaultValue" : 0.0,
                              "interp" : "linr"
                            },
                            "cursorOpacity" : {
                              "type" : "double",
                              "defaultValue" : 0.0,
                              "interp" : "linr"
                            }
                          },
                          "effects" : [

                          ],
                          "start" : 8776,
                          "duration" : 2615,
                          "mediaStart" : 12807,
                          "mediaDuration" : 2615,
                          "scalar" : 1,
                          "metadata" : {
                            "AutoAppliedSmartFocus" : "False",
                            "WinSubProjectDisplayName" : "",
                            "clipSpeedAttribute" : false,
                            "default-scale0" : 1.0,
                            "default-scale1" : 1.0,
                            "default-translation0" : 0.0,
                            "default-translation1" : 0.0
                          },
                          "animationTracks" : {

                          }
                        },
                        {
                          "id" : 309,
                          "_type" : "ScreenVMFile",
                          "src" : 7,
                          "trackNumber" : 0,
                          "attributes" : {
                            "ident" : "Rec 02-07-19_001"
                          },
                          "parameters" : {
                            "cursorScale" : {
                              "type" : "double",
                              "defaultValue" : 0.0,
                              "interp" : "linr"
                            },
                            "cursorOpacity" : {
                              "type" : "double",
                              "defaultValue" : 0.0,
                              "interp" : "linr"
                            }
                          },
                          "effects" : [

                          ],
                          "start" : 11391,
                          "duration" : 2763,
                          "mediaStart" : 16306,
                          "mediaDuration" : 2763,
                          "scalar" : 1,
                          "metadata" : {
                            "AutoAppliedSmartFocus" : "False",
                            "WinSubProjectDisplayName" : "",
                            "clipSpeedAttribute" : false,
                            "default-scale0" : 1.0,
                            "default-scale1" : 1.0,
                            "default-translation0" : 0.0,
                            "default-translation1" : 0.0
                          },
                          "animationTracks" : {

                          }
                        },
                        {
                          "id" : 310,
                          "_type" : "ScreenVMFile",
                          "src" : 7,
                          "trackNumber" : 0,
                          "attributes" : {
                            "ident" : "Rec 02-07-19_001"
                          },
                          "parameters" : {
                            "cursorScale" : {
                              "type" : "double",
                              "defaultValue" : 0.0,
                              "interp" : "linr"
                            },
                            "cursorOpacity" : {
                              "type" : "double",
                              "defaultValue" : 0.0,
                              "interp" : "linr"
                            }
                          },
                          "effects" : [

                          ],
                          "start" : 14154,
                          "duration" : 153,
                          "mediaStart" : 20839,
                          "mediaDuration" : 153,
                          "scalar" : 1,
                          "metadata" : {
                            "AutoAppliedSmartFocus" : "False",
                            "WinSubProjectDisplayName" : "",
                            "clipSpeedAttribute" : false,
                            "default-scale0" : 1.0,
                            "default-scale1" : 1.0,
                            "default-translation0" : 0.0,
                            "default-translation1" : 0.0
                          },
                          "animationTracks" : {

                          }
                        },
                        {
                          "id" : 311,
                          "_type" : "ScreenVMFile",
                          "src" : 7,
                          "trackNumber" : 0,
                          "attributes" : {
                            "ident" : "Rec 02-07-19_001"
                          },
                          "parameters" : {
                            "cursorScale" : {
                              "type" : "double",
                              "defaultValue" : 0.0,
                              "interp" : "linr"
                            },
                            "cursorOpacity" : {
                              "type" : "double",
                              "defaultValue" : 0.0,
                              "interp" : "linr"
                            }
                          },
                          "effects" : [

                          ],
                          "start" : 14307,
                          "duration" : 5295,
                          "mediaStart" : 21101,
                          "mediaDuration" : 5295,
                          "scalar" : 1,
                          "metadata" : {
                            "AutoAppliedSmartFocus" : "False",
                            "WinSubProjectDisplayName" : "",
                            "clipSpeedAttribute" : false,
                            "default-scale0" : 1.0,
                            "default-scale1" : 1.0,
                            "default-translation0" : 0.0,
                            "default-translation1" : 0.0
                          },
                          "animationTracks" : {

                          }
                        }
                    ],
                    "effects" : [

                    ],
                    "start" : 24819,
                    "duration" : 864,
                    "mediaStart" : 13993,
                    "mediaDuration" : 864,
                    "scalar" : 1,
                    "metadata" : {
                      "AutoAppliedSmartFocus" : "False",
                      "WinSubProjectDisplayName" : "",
                      "clipSpeedAttribute" : false,
                      "default-scale0" : 2.778,
                      "default-scale1" : 2.778,
                      "default-translation0" : 98.0000000001039,
                      "default-translation1" : -101.454545454671
                    },
                    "animationTracks" : {
                      "visual" : [
                        {
                          "endTime" : 1043,
                          "duration" : 30,
                          "range" : [ 1013, 30]
                        },
                        {
                          "endTime" : 1141,
                          "duration" : 30,
                          "range" : [ 1111, 30]
                        },
                        {
                          "endTime" : 2358,
                          "duration" : 30,
                          "range" : [ 2328, 30]
                        },
                        {
                          "endTime" : 2478,
                          "duration" : 30,
                          "range" : [ 2448, 30]
                        },
                        {
                          "endTime" : 3666,
                          "duration" : 30,
                          "range" : [ 3636, 30]
                        },
                        {
                          "endTime" : 4066,
                          "duration" : 30,
                          "range" : [ 4036, 30]
                        },
                        {
                          "endTime" : 4469,
                          "duration" : 30,
                          "range" : [ 4439, 30]
                        },
                        {
                          "endTime" : 4992,
                          "duration" : 30,
                          "range" : [ 4962, 30]
                        },
                        {
                          "endTime" : 5236,
                          "duration" : 30,
                          "range" : [ 5206, 30]
                        },
                        {
                          "endTime" : 5442,
                          "duration" : 30,
                          "range" : [ 5412, 30]
                        },
                        {
                          "endTime" : 6736,
                          "duration" : 30,
                          "range" : [ 6706, 30]
                        },
                        {
                          "endTime" : 7923,
                          "duration" : 30,
                          "range" : [ 7893, 30]
                        },
                        {
                          "endTime" : 11994,
                          "duration" : 30,
                          "range" : [ 11964, 30]
                        },
                        {
                          "endTime" : 12178,
                          "duration" : 30,
                          "range" : [ 12148, 30]
                        },
                        {
                          "endTime" : 14093,
                          "duration" : 30,
                          "range" : [ 14063, 30]
                        },
                        {
                          "endTime" : 14434,
                          "duration" : 30,
                          "range" : [ 14404, 30]
                        }
                      ]
                    }
                  },
                  {
                    "id" : 312,
                    "_type" : "StitchedMedia",
                    "minMediaStart" : 0,
                    "attributes" : {
                      "ident" : "Rec 02-07-19_001",
                      "gain" : 1.0,
                      "mixToMono" : false
                    },
                    "parameters" : {
                      "translation0" : {
                        "type" : "double",
                        "defaultValue" : 90.3846153842169,
                        "keyframes" : [
                          {
                            "endTime" : 1043,
                            "time" : 1013,
                            "value" : 173.076923076545,
                            "duration" : 30
                          },
                          {
                            "endTime" : 1141,
                            "time" : 1111,
                            "value" : 90.4,
                            "duration" : 30
                          },
                          {
                            "endTime" : 2358,
                            "time" : 2328,
                            "value" : 134.630769230764,
                            "duration" : 30
                          },
                          {
                            "endTime" : 2478,
                            "time" : 2448,
                            "value" : 382.70769230741,
                            "duration" : 30
                          },
                          {
                            "endTime" : 3666,
                            "time" : 3636,
                            "value" : -560.474125874959,
                            "duration" : 30
                          },
                          {
                            "endTime" : 4066,
                            "time" : 4036,
                            "value" : 27.2727272727602,
                            "duration" : 30
                          },
                          {
                            "endTime" : 4469,
                            "time" : 4439,
                            "value" : -581.8181818181,
                            "duration" : 30
                          },
                          {
                            "endTime" : 4992,
                            "time" : 4962,
                            "value" : 986.363636363861,
                            "duration" : 30
                          },
                          {
                            "endTime" : 5236,
                            "time" : 5206,
                            "value" : 49.4545454549895,
                            "duration" : 30
                          },
                          {
                            "endTime" : 5442,
                            "time" : 5412,
                            "value" : 908.545454546065,
                            "duration" : 30
                          },
                          {
                            "endTime" : 6736,
                            "time" : 6706,
                            "value" : 447.999999999954,
                            "duration" : 30
                          },
                          {
                            "endTime" : 7923,
                            "time" : 7893,
                            "value" : 841.181818181749,
                            "duration" : 30
                          },
                          {
                            "endTime" : 11994,
                            "time" : 11964,
                            "value" : 448.000000000077,
                            "duration" : 30
                          },
                          {
                            "endTime" : 12178,
                            "time" : 12148,
                            "value" : 98.0000000001039,
                            "duration" : 30
                          },
                          {
                            "endTime" : 14434,
                            "time" : 14404,
                            "value" : 479.81818181804,
                            "duration" : 30
                          }
                        ]
                      },
                      "translation1" : {
                        "type" : "double",
                        "defaultValue" : -155.999999999973,
                        "keyframes" : [
                          {
                            "endTime" : 1043,
                            "time" : 1013,
                            "value" : 101.692307692331,
                            "duration" : 30
                          },
                          {
                            "endTime" : 1141,
                            "time" : 1111,
                            "value" : -156.0,
                            "duration" : 30
                          },
                          {
                            "endTime" : 2358,
                            "time" : 2328,
                            "value" : 217.076923076909,
                            "duration" : 30
                          },
                          {
                            "endTime" : 2478,
                            "time" : 2448,
                            "value" : -59.6153846154014,
                            "duration" : 30
                          },
                          {
                            "endTime" : 3666,
                            "time" : 3636,
                            "value" : -179.81818181819,
                            "duration" : 30
                          },
                          {
                            "endTime" : 4066,
                            "time" : 4036,
                            "value" : -347.999999999825,
                            "duration" : 30
                          },
                          {
                            "endTime" : 4469,
                            "time" : 4439,
                            "value" : -372.999999999852,
                            "duration" : 30
                          },
                          {
                            "endTime" : 4992,
                            "time" : 4962,
                            "value" : -539.999999999761,
                            "duration" : 30
                          },
                          {
                            "endTime" : 5236,
                            "time" : 5206,
                            "value" : 62.1818181819394,
                            "duration" : 30
                          },
                          {
                            "endTime" : 5442,
                            "time" : 5412,
                            "value" : -474.181818181744,
                            "duration" : 30
                          },
                          {
                            "endTime" : 6736,
                            "time" : 6706,
                            "value" : -471.90909090916,
                            "duration" : 30
                          },
                          {
                            "endTime" : 7923,
                            "time" : 7893,
                            "value" : -392.363636363758,
                            "duration" : 30
                          },
                          {
                            "endTime" : 11994,
                            "time" : 11964,
                            "value" : -242.363636363752,
                            "duration" : 30
                          },
                          {
                            "endTime" : 12178,
                            "time" : 12148,
                            "value" : -101.454545454671,
                            "duration" : 30
                          },
                          {
                            "endTime" : 14434,
                            "time" : 14404,
                            "value" : -53.7272727273309,
                            "duration" : 30
                          }
                        ]
                      },
                      "scale0" : {
                        "type" : "double",
                        "defaultValue" : 1.66533333333333,
                        "keyframes" : [
                          {
                            "endTime" : 1043,
                            "time" : 1013,
                            "value" : 1.0,
                            "duration" : 30
                          },
                          {
                            "endTime" : 3666,
                            "time" : 3636,
                            "value" : 2.12275,
                            "duration" : 30
                          },
                          {
                            "endTime" : 4066,
                            "time" : 4036,
                            "value" : 1.66533333333333,
                            "duration" : 30
                          },
                          {
                            "endTime" : 4469,
                            "time" : 4439,
                            "value" : 2.66333333333333,
                            "duration" : 30
                          },
                          {
                            "endTime" : 4992,
                            "time" : 4962,
                            "value" : 2.28908333333333,
                            "duration" : 30
                          },
                          {
                            "endTime" : 5236,
                            "time" : 5206,
                            "value" : 1.2495,
                            "duration" : 30
                          },
                          {
                            "endTime" : 5442,
                            "time" : 5412,
                            "value" : 2.54658333333333,
                            "duration" : 30
                          },
                          {
                            "endTime" : 11994,
                            "time" : 11964,
                            "value" : 1.78,
                            "duration" : 30
                          },
                          {
                            "endTime" : 12178,
                            "time" : 12148,
                            "value" : 2.778,
                            "duration" : 30
                          },
                          {
                            "endTime" : 14434,
                            "time" : 14404,
                            "value" : 2.2,
                            "duration" : 30
                          }
                        ]
                      },
                      "scale1" : {
                        "type" : "double",
                        "defaultValue" : 1.66533333333333,
                        "keyframes" : [
                          {
                            "endTime" : 1043,
                            "time" : 1013,
                            "value" : 1.0,
                            "duration" : 30
                          },
                          {
                            "endTime" : 3666,
                            "time" : 3636,
                            "value" : 2.12275,
                            "duration" : 30
                          },
                          {
                            "endTime" : 4066,
                            "time" : 4036,
                            "value" : 1.66533333333333,
                            "duration" : 30
                          },
                          {
                            "endTime" : 4469,
                            "time" : 4439,
                            "value" : 2.66333333333333,
                            "duration" : 30
                          },
                          {
                            "endTime" : 4992,
                            "time" : 4962,
                            "value" : 2.28908333333333,
                            "duration" : 30
                          },
                          {
                            "endTime" : 5236,
                            "time" : 5206,
                            "value" : 1.2495,
                            "duration" : 30
                          },
                          {
                            "endTime" : 5442,
                            "time" : 5412,
                            "value" : 2.54658333333333,
                            "duration" : 30
                          },
                          {
                            "endTime" : 11994,
                            "time" : 11964,
                            "value" : 1.78,
                            "duration" : 30
                          },
                          {
                            "endTime" : 12178,
                            "time" : 12148,
                            "value" : 2.778,
                            "duration" : 30
                          },
                          {
                            "endTime" : 14434,
                            "time" : 14404,
                            "value" : 2.2,
                            "duration" : 30
                          }
                        ]
                      },
                      "cursorOpacity" : 1.0,
                      "cursorScale" : 1.0
                    },
                    "medias" : [
                        {
                          "id" : 313,
                          "_type" : "ScreenVMFile",
                          "src" : 7,
                          "trackNumber" : 0,
                          "attributes" : {
                            "ident" : "Rec 02-07-19_001"
                          },
                          "parameters" : {
                            "cursorScale" : {
                              "type" : "double",
                              "defaultValue" : 0.0,
                              "interp" : "linr"
                            },
                            "cursorOpacity" : {
                              "type" : "double",
                              "defaultValue" : 0.0,
                              "interp" : "linr"
                            }
                          },
                          "effects" : [

                          ],
                          "start" : 0,
                          "duration" : 496,
                          "mediaStart" : 0,
                          "mediaDuration" : 496,
                          "scalar" : 1,
                          "metadata" : {
                            "AutoAppliedSmartFocus" : "False",
                            "WinSubProjectDisplayName" : "",
                            "clipSpeedAttribute" : false,
                            "default-scale0" : 1.0,
                            "default-scale1" : 1.0,
                            "default-translation0" : 0.0,
                            "default-translation1" : 0.0
                          },
                          "animationTracks" : {

                          }
                        },
                        {
                          "id" : 314,
                          "_type" : "ScreenVMFile",
                          "src" : 7,
                          "trackNumber" : 0,
                          "attributes" : {
                            "ident" : "Rec 02-07-19_001"
                          },
                          "parameters" : {
                            "cursorScale" : {
                              "type" : "double",
                              "defaultValue" : 0.0,
                              "interp" : "linr"
                            },
                            "cursorOpacity" : {
                              "type" : "double",
                              "defaultValue" : 0.0,
                              "interp" : "linr"
                            }
                          },
                          "effects" : [

                          ],
                          "start" : 496,
                          "duration" : 190,
                          "mediaStart" : 715,
                          "mediaDuration" : 190,
                          "scalar" : 1,
                          "metadata" : {
                            "AutoAppliedSmartFocus" : "False",
                            "WinSubProjectDisplayName" : "",
                            "clipSpeedAttribute" : false,
                            "default-scale0" : 1.0,
                            "default-scale1" : 1.0,
                            "default-translation0" : 0.0,
                            "default-translation1" : 0.0
                          },
                          "animationTracks" : {

                          }
                        },
                        {
                          "id" : 315,
                          "_type" : "ScreenVMFile",
                          "src" : 7,
                          "trackNumber" : 0,
                          "attributes" : {
                            "ident" : "Rec 02-07-19_001"
                          },
                          "parameters" : {
                            "cursorScale" : {
                              "type" : "double",
                              "defaultValue" : 0.0,
                              "interp" : "linr"
                            },
                            "cursorOpacity" : {
                              "type" : "double",
                              "defaultValue" : 0.0,
                              "interp" : "linr"
                            }
                          },
                          "effects" : [

                          ],
                          "start" : 686,
                          "duration" : 239,
                          "mediaStart" : 1444,
                          "mediaDuration" : 239,
                          "scalar" : 1,
                          "metadata" : {
                            "AutoAppliedSmartFocus" : "False",
                            "WinSubProjectDisplayName" : "",
                            "clipSpeedAttribute" : false,
                            "default-scale0" : 1.0,
                            "default-scale1" : 1.0,
                            "default-translation0" : 0.0,
                            "default-translation1" : 0.0
                          },
                          "animationTracks" : {

                          }
                        },
                        {
                          "id" : 316,
                          "_type" : "ScreenVMFile",
                          "src" : 7,
                          "trackNumber" : 0,
                          "attributes" : {
                            "ident" : "Rec 02-07-19_001"
                          },
                          "parameters" : {
                            "cursorScale" : {
                              "type" : "double",
                              "defaultValue" : 0.0,
                              "interp" : "linr"
                            },
                            "cursorOpacity" : {
                              "type" : "double",
                              "defaultValue" : 0.0,
                              "interp" : "linr"
                            }
                          },
                          "effects" : [

                          ],
                          "start" : 925,
                          "duration" : 128,
                          "mediaStart" : 1750,
                          "mediaDuration" : 128,
                          "scalar" : 1,
                          "metadata" : {
                            "AutoAppliedSmartFocus" : "False",
                            "WinSubProjectDisplayName" : "",
                            "clipSpeedAttribute" : false,
                            "default-scale0" : 1.0,
                            "default-scale1" : 1.0,
                            "default-translation0" : 0.0,
                            "default-translation1" : 0.0
                          },
                          "animationTracks" : {

                          }
                        },
                        {
                          "id" : 317,
                          "_type" : "ScreenVMFile",
                          "src" : 7,
                          "trackNumber" : 0,
                          "attributes" : {
                            "ident" : "Rec 02-07-19_001"
                          },
                          "parameters" : {
                            "cursorScale" : {
                              "type" : "double",
                              "defaultValue" : 0.0,
                              "interp" : "linr"
                            },
                            "cursorOpacity" : {
                              "type" : "double",
                              "defaultValue" : 0.0,
                              "interp" : "linr"
                            }
                          },
                          "effects" : [

                          ],
                          "start" : 1053,
                          "duration" : 298,
                          "mediaStart" : 1939,
                          "mediaDuration" : 298,
                          "scalar" : 1,
                          "metadata" : {
                            "AutoAppliedSmartFocus" : "False",
                            "WinSubProjectDisplayName" : "",
                            "clipSpeedAttribute" : false,
                            "default-scale0" : 1.0,
                            "default-scale1" : 1.0,
                            "default-translation0" : 0.0,
                            "default-translation1" : 0.0
                          },
                          "animationTracks" : {

                          }
                        },
                        {
                          "id" : 318,
                          "_type" : "ScreenVMFile",
                          "src" : 7,
                          "trackNumber" : 0,
                          "attributes" : {
                            "ident" : "Rec 02-07-19_001"
                          },
                          "parameters" : {
                            "cursorScale" : {
                              "type" : "double",
                              "defaultValue" : 0.0,
                              "interp" : "linr"
                            },
                            "cursorOpacity" : {
                              "type" : "double",
                              "defaultValue" : 0.0,
                              "interp" : "linr"
                            }
                          },
                          "effects" : [

                          ],
                          "start" : 1351,
                          "duration" : 524,
                          "mediaStart" : 2386,
                          "mediaDuration" : 524,
                          "scalar" : 1,
                          "metadata" : {
                            "AutoAppliedSmartFocus" : "False",
                            "WinSubProjectDisplayName" : "",
                            "clipSpeedAttribute" : false,
                            "default-scale0" : 1.0,
                            "default-scale1" : 1.0,
                            "default-translation0" : 0.0,
                            "default-translation1" : 0.0
                          },
                          "animationTracks" : {

                          }
                        },
                        {
                          "id" : 319,
                          "_type" : "ScreenVMFile",
                          "src" : 7,
                          "trackNumber" : 0,
                          "attributes" : {
                            "ident" : "Rec 02-07-19_001"
                          },
                          "parameters" : {
                            "cursorScale" : {
                              "type" : "double",
                              "defaultValue" : 0.0,
                              "interp" : "linr"
                            },
                            "cursorOpacity" : {
                              "type" : "double",
                              "defaultValue" : 0.0,
                              "interp" : "linr"
                            }
                          },
                          "effects" : [

                          ],
                          "start" : 1875,
                          "duration" : 143,
                          "mediaStart" : 3086,
                          "mediaDuration" : 143,
                          "scalar" : 1,
                          "metadata" : {
                            "AutoAppliedSmartFocus" : "False",
                            "WinSubProjectDisplayName" : "",
                            "clipSpeedAttribute" : false,
                            "default-scale0" : 1.0,
                            "default-scale1" : 1.0,
                            "default-translation0" : 0.0,
                            "default-translation1" : 0.0
                          },
                          "animationTracks" : {

                          }
                        },
                        {
                          "id" : 320,
                          "_type" : "ScreenVMFile",
                          "src" : 7,
                          "trackNumber" : 0,
                          "attributes" : {
                            "ident" : "Rec 02-07-19_001"
                          },
                          "parameters" : {
                            "cursorScale" : {
                              "type" : "double",
                              "defaultValue" : 0.0,
                              "interp" : "linr"
                            },
                            "cursorOpacity" : {
                              "type" : "double",
                              "defaultValue" : 0.0,
                              "interp" : "linr"
                            }
                          },
                          "effects" : [

                          ],
                          "start" : 2018,
                          "duration" : 1362,
                          "mediaStart" : 3692,
                          "mediaDuration" : 1362,
                          "scalar" : 1,
                          "metadata" : {
                            "AutoAppliedSmartFocus" : "False",
                            "WinSubProjectDisplayName" : "",
                            "clipSpeedAttribute" : false,
                            "default-scale0" : 1.0,
                            "default-scale1" : 1.0,
                            "default-translation0" : 0.0,
                            "default-translation1" : 0.0
                          },
                          "animationTracks" : {

                          }
                        },
                        {
                          "id" : 321,
                          "_type" : "ScreenVMFile",
                          "src" : 7,
                          "trackNumber" : 0,
                          "attributes" : {
                            "ident" : "Rec 02-07-19_001"
                          },
                          "parameters" : {
                            "cursorScale" : {
                              "type" : "double",
                              "defaultValue" : 0.0,
                              "interp" : "linr"
                            },
                            "cursorOpacity" : {
                              "type" : "double",
                              "defaultValue" : 0.0,
                              "interp" : "linr"
                            }
                          },
                          "effects" : [

                          ],
                          "start" : 3380,
                          "duration" : 218,
                          "mediaStart" : 5246,
                          "mediaDuration" : 218,
                          "scalar" : 1,
                          "metadata" : {
                            "AutoAppliedSmartFocus" : "False",
                            "WinSubProjectDisplayName" : "",
                            "clipSpeedAttribute" : false,
                            "default-scale0" : 1.0,
                            "default-scale1" : 1.0,
                            "default-translation0" : 0.0,
                            "default-translation1" : 0.0
                          },
                          "animationTracks" : {

                          }
                        },
                        {
                          "id" : 322,
                          "_type" : "ScreenVMFile",
                          "src" : 7,
                          "trackNumber" : 0,
                          "attributes" : {
                            "ident" : "Rec 02-07-19_001"
                          },
                          "parameters" : {
                            "cursorScale" : {
                              "type" : "double",
                              "defaultValue" : 0.0,
                              "interp" : "linr"
                            },
                            "cursorOpacity" : {
                              "type" : "double",
                              "defaultValue" : 0.0,
                              "interp" : "linr"
                            }
                          },
                          "effects" : [

                          ],
                          "start" : 3598,
                          "duration" : 473,
                          "mediaStart" : 6154,
                          "mediaDuration" : 473,
                          "scalar" : 1,
                          "metadata" : {
                            "AutoAppliedSmartFocus" : "False",
                            "WinSubProjectDisplayName" : "",
                            "clipSpeedAttribute" : false,
                            "default-scale0" : 1.0,
                            "default-scale1" : 1.0,
                            "default-translation0" : 0.0,
                            "default-translation1" : 0.0
                          },
                          "animationTracks" : {

                          }
                        },
                        {
                          "id" : 323,
                          "_type" : "ScreenVMFile",
                          "src" : 7,
                          "trackNumber" : 0,
                          "attributes" : {
                            "ident" : "Rec 02-07-19_001"
                          },
                          "parameters" : {
                            "cursorScale" : {
                              "type" : "double",
                              "defaultValue" : 0.0,
                              "interp" : "linr"
                            },
                            "cursorOpacity" : {
                              "type" : "double",
                              "defaultValue" : 0.0,
                              "interp" : "linr"
                            }
                          },
                          "effects" : [

                          ],
                          "start" : 4071,
                          "duration" : 164,
                          "mediaStart" : 6726,
                          "mediaDuration" : 164,
                          "scalar" : 1,
                          "metadata" : {
                            "AutoAppliedSmartFocus" : "False",
                            "WinSubProjectDisplayName" : "",
                            "clipSpeedAttribute" : false,
                            "default-scale0" : 1.0,
                            "default-scale1" : 1.0,
                            "default-translation0" : 0.0,
                            "default-translation1" : 0.0
                          },
                          "animationTracks" : {

                          }
                        },
                        {
                          "id" : 324,
                          "_type" : "ScreenVMFile",
                          "src" : 7,
                          "trackNumber" : 0,
                          "attributes" : {
                            "ident" : "Rec 02-07-19_001"
                          },
                          "parameters" : {
                            "cursorScale" : {
                              "type" : "double",
                              "defaultValue" : 0.0,
                              "interp" : "linr"
                            },
                            "cursorOpacity" : {
                              "type" : "double",
                              "defaultValue" : 0.0,
                              "interp" : "linr"
                            }
                          },
                          "effects" : [

                          ],
                          "start" : 4235,
                          "duration" : 1279,
                          "mediaStart" : 7107,
                          "mediaDuration" : 1279,
                          "scalar" : 1,
                          "metadata" : {
                            "AutoAppliedSmartFocus" : "False",
                            "WinSubProjectDisplayName" : "",
                            "clipSpeedAttribute" : false,
                            "default-scale0" : 1.0,
                            "default-scale1" : 1.0,
                            "default-translation0" : 0.0,
                            "default-translation1" : 0.0
                          },
                          "animationTracks" : {

                          }
                        },
                        {
                          "id" : 325,
                          "_type" : "ScreenVMFile",
                          "src" : 7,
                          "trackNumber" : 0,
                          "attributes" : {
                            "ident" : "Rec 02-07-19_001"
                          },
                          "parameters" : {
                            "cursorScale" : {
                              "type" : "double",
                              "defaultValue" : 0.0,
                              "interp" : "linr"
                            },
                            "cursorOpacity" : {
                              "type" : "double",
                              "defaultValue" : 0.0,
                              "interp" : "linr"
                            }
                          },
                          "effects" : [

                          ],
                          "start" : 5514,
                          "duration" : 1542,
                          "mediaStart" : 8518,
                          "mediaDuration" : 1542,
                          "scalar" : 1,
                          "metadata" : {
                            "AutoAppliedSmartFocus" : "False",
                            "WinSubProjectDisplayName" : "",
                            "clipSpeedAttribute" : false,
                            "default-scale0" : 1.0,
                            "default-scale1" : 1.0,
                            "default-translation0" : 0.0,
                            "default-translation1" : 0.0
                          },
                          "animationTracks" : {

                          }
                        },
                        {
                          "id" : 326,
                          "_type" : "ScreenVMFile",
                          "src" : 7,
                          "trackNumber" : 0,
                          "attributes" : {
                            "ident" : "Rec 02-07-19_001"
                          },
                          "parameters" : {
                            "cursorScale" : {
                              "type" : "double",
                              "defaultValue" : 0.0,
                              "interp" : "linr"
                            },
                            "cursorOpacity" : {
                              "type" : "double",
                              "defaultValue" : 0.0,
                              "interp" : "linr"
                            }
                          },
                          "effects" : [

                          ],
                          "start" : 7056,
                          "duration" : 846,
                          "mediaStart" : 10392,
                          "mediaDuration" : 846,
                          "scalar" : 1,
                          "metadata" : {
                            "AutoAppliedSmartFocus" : "False",
                            "WinSubProjectDisplayName" : "",
                            "clipSpeedAttribute" : false,
                            "default-scale0" : 1.0,
                            "default-scale1" : 1.0,
                            "default-translation0" : 0.0,
                            "default-translation1" : 0.0
                          },
                          "animationTracks" : {

                          }
                        },
                        {
                          "id" : 327,
                          "_type" : "ScreenVMFile",
                          "src" : 7,
                          "trackNumber" : 0,
                          "attributes" : {
                            "ident" : "Rec 02-07-19_001"
                          },
                          "parameters" : {
                            "cursorScale" : {
                              "type" : "double",
                              "defaultValue" : 0.0,
                              "interp" : "linr"
                            },
                            "cursorOpacity" : {
                              "type" : "double",
                              "defaultValue" : 0.0,
                              "interp" : "linr"
                            }
                          },
                          "effects" : [

                          ],
                          "start" : 7902,
                          "duration" : 451,
                          "mediaStart" : 11363,
                          "mediaDuration" : 451,
                          "scalar" : 1,
                          "metadata" : {
                            "AutoAppliedSmartFocus" : "False",
                            "WinSubProjectDisplayName" : "",
                            "clipSpeedAttribute" : false,
                            "default-scale0" : 1.0,
                            "default-scale1" : 1.0,
                            "default-translation0" : 0.0,
                            "default-translation1" : 0.0
                          },
                          "animationTracks" : {

                          }
                        },
                        {
                          "id" : 328,
                          "_type" : "ScreenVMFile",
                          "src" : 7,
                          "trackNumber" : 0,
                          "attributes" : {
                            "ident" : "Rec 02-07-19_001"
                          },
                          "parameters" : {
                            "cursorScale" : {
                              "type" : "double",
                              "defaultValue" : 0.0,
                              "interp" : "linr"
                            },
                            "cursorOpacity" : {
                              "type" : "double",
                              "defaultValue" : 0.0,
                              "interp" : "linr"
                            }
                          },
                          "effects" : [

                          ],
                          "start" : 8353,
                          "duration" : 423,
                          "mediaStart" : 12079,
                          "mediaDuration" : 423,
                          "scalar" : 1,
                          "metadata" : {
                            "AutoAppliedSmartFocus" : "False",
                            "WinSubProjectDisplayName" : "",
                            "clipSpeedAttribute" : false,
                            "default-scale0" : 1.0,
                            "default-scale1" : 1.0,
                            "default-translation0" : 0.0,
                            "default-translation1" : 0.0
                          },
                          "animationTracks" : {

                          }
                        },
                        {
                          "id" : 329,
                          "_type" : "ScreenVMFile",
                          "src" : 7,
                          "trackNumber" : 0,
                          "attributes" : {
                            "ident" : "Rec 02-07-19_001"
                          },
                          "parameters" : {
                            "cursorScale" : {
                              "type" : "double",
                              "defaultValue" : 0.0,
                              "interp" : "linr"
                            },
                            "cursorOpacity" : {
                              "type" : "double",
                              "defaultValue" : 0.0,
                              "interp" : "linr"
                            }
                          },
                          "effects" : [

                          ],
                          "start" : 8776,
                          "duration" : 2615,
                          "mediaStart" : 12807,
                          "mediaDuration" : 2615,
                          "scalar" : 1,
                          "metadata" : {
                            "AutoAppliedSmartFocus" : "False",
                            "WinSubProjectDisplayName" : "",
                            "clipSpeedAttribute" : false,
                            "default-scale0" : 1.0,
                            "default-scale1" : 1.0,
                            "default-translation0" : 0.0,
                            "default-translation1" : 0.0
                          },
                          "animationTracks" : {

                          }
                        },
                        {
                          "id" : 330,
                          "_type" : "ScreenVMFile",
                          "src" : 7,
                          "trackNumber" : 0,
                          "attributes" : {
                            "ident" : "Rec 02-07-19_001"
                          },
                          "parameters" : {
                            "cursorScale" : {
                              "type" : "double",
                              "defaultValue" : 0.0,
                              "interp" : "linr"
                            },
                            "cursorOpacity" : {
                              "type" : "double",
                              "defaultValue" : 0.0,
                              "interp" : "linr"
                            }
                          },
                          "effects" : [

                          ],
                          "start" : 11391,
                          "duration" : 2763,
                          "mediaStart" : 16306,
                          "mediaDuration" : 2763,
                          "scalar" : 1,
                          "metadata" : {
                            "AutoAppliedSmartFocus" : "False",
                            "WinSubProjectDisplayName" : "",
                            "clipSpeedAttribute" : false,
                            "default-scale0" : 1.0,
                            "default-scale1" : 1.0,
                            "default-translation0" : 0.0,
                            "default-translation1" : 0.0
                          },
                          "animationTracks" : {

                          }
                        },
                        {
                          "id" : 331,
                          "_type" : "ScreenVMFile",
                          "src" : 7,
                          "trackNumber" : 0,
                          "attributes" : {
                            "ident" : "Rec 02-07-19_001"
                          },
                          "parameters" : {
                            "cursorScale" : {
                              "type" : "double",
                              "defaultValue" : 0.0,
                              "interp" : "linr"
                            },
                            "cursorOpacity" : {
                              "type" : "double",
                              "defaultValue" : 0.0,
                              "interp" : "linr"
                            }
                          },
                          "effects" : [

                          ],
                          "start" : 14154,
                          "duration" : 153,
                          "mediaStart" : 20839,
                          "mediaDuration" : 153,
                          "scalar" : 1,
                          "metadata" : {
                            "AutoAppliedSmartFocus" : "False",
                            "WinSubProjectDisplayName" : "",
                            "clipSpeedAttribute" : false,
                            "default-scale0" : 1.0,
                            "default-scale1" : 1.0,
                            "default-translation0" : 0.0,
                            "default-translation1" : 0.0
                          },
                          "animationTracks" : {

                          }
                        },
                        {
                          "id" : 332,
                          "_type" : "ScreenVMFile",
                          "src" : 7,
                          "trackNumber" : 0,
                          "attributes" : {
                            "ident" : "Rec 02-07-19_001"
                          },
                          "parameters" : {
                            "cursorScale" : {
                              "type" : "double",
                              "defaultValue" : 0.0,
                              "interp" : "linr"
                            },
                            "cursorOpacity" : {
                              "type" : "double",
                              "defaultValue" : 0.0,
                              "interp" : "linr"
                            }
                          },
                          "effects" : [

                          ],
                          "start" : 14307,
                          "duration" : 5295,
                          "mediaStart" : 21101,
                          "mediaDuration" : 5295,
                          "scalar" : 1,
                          "metadata" : {
                            "AutoAppliedSmartFocus" : "False",
                            "WinSubProjectDisplayName" : "",
                            "clipSpeedAttribute" : false,
                            "default-scale0" : 1.0,
                            "default-scale1" : 1.0,
                            "default-translation0" : 0.0,
                            "default-translation1" : 0.0
                          },
                          "animationTracks" : {

                          }
                        }
                    ],
                    "effects" : [

                    ],
                    "start" : 25683,
                    "duration" : 231,
                    "mediaStart" : 14857,
                    "mediaDuration" : 925,
                    "scalar" : "231/925",
                    "metadata" : {
                      "AutoAppliedSmartFocus" : "False",
                      "WinSubProjectDisplayName" : "",
                      "clipSpeedAttribute" : true
                    },
                    "animationTracks" : {
                      "visual" : [
                        {
                          "endTime" : 1043,
                          "duration" : 30,
                          "range" : [ 1013, 30]
                        },
                        {
                          "endTime" : 1141,
                          "duration" : 30,
                          "range" : [ 1111, 30]
                        },
                        {
                          "endTime" : 2358,
                          "duration" : 30,
                          "range" : [ 2328, 30]
                        },
                        {
                          "endTime" : 2478,
                          "duration" : 30,
                          "range" : [ 2448, 30]
                        },
                        {
                          "endTime" : 3666,
                          "duration" : 30,
                          "range" : [ 3636, 30]
                        },
                        {
                          "endTime" : 4066,
                          "duration" : 30,
                          "range" : [ 4036, 30]
                        },
                        {
                          "endTime" : 4469,
                          "duration" : 30,
                          "range" : [ 4439, 30]
                        },
                        {
                          "endTime" : 4992,
                          "duration" : 30,
                          "range" : [ 4962, 30]
                        },
                        {
                          "endTime" : 5236,
                          "duration" : 30,
                          "range" : [ 5206, 30]
                        },
                        {
                          "endTime" : 5442,
                          "duration" : 30,
                          "range" : [ 5412, 30]
                        },
                        {
                          "endTime" : 6736,
                          "duration" : 30,
                          "range" : [ 6706, 30]
                        },
                        {
                          "endTime" : 7923,
                          "duration" : 30,
                          "range" : [ 7893, 30]
                        },
                        {
                          "endTime" : 11994,
                          "duration" : 30,
                          "range" : [ 11964, 30]
                        },
                        {
                          "endTime" : 12178,
                          "duration" : 30,
                          "range" : [ 12148, 30]
                        },
                        {
                          "endTime" : 14093,
                          "duration" : 30,
                          "range" : [ 14063, 30]
                        },
                        {
                          "endTime" : 14434,
                          "duration" : 30,
                          "range" : [ 14404, 30]
                        }
                      ]
                    }
                  },
                  {
                    "id" : 333,
                    "_type" : "ScreenVMFile",
                    "src" : 7,
                    "trackNumber" : 0,
                    "attributes" : {
                      "ident" : "Rec 02-07-19_001"
                    },
                    "parameters" : {
                      "translation0" : {
                        "type" : "double",
                        "defaultValue" : 479.81818181804,
                        "interp" : "eioe",
                        "keyframes" : [
                          {
                            "endTime" : 23460,
                            "time" : 23430,
                            "value" : 20.7272727270287,
                            "duration" : 30
                          }
                        ]
                      },
                      "translation1" : {
                        "type" : "double",
                        "defaultValue" : -53.7272727273309,
                        "interp" : "eioe"
                      },
                      "scale0" : {
                        "type" : "double",
                        "defaultValue" : 2.2,
                        "interp" : "eioe"
                      },
                      "scale1" : {
                        "type" : "double",
                        "defaultValue" : 2.2,
                        "interp" : "eioe"
                      },
                      "cursorScale" : {
                        "type" : "double",
                        "defaultValue" : 1.0,
                        "interp" : "linr"
                      },
                      "cursorOpacity" : {
                        "type" : "double",
                        "defaultValue" : 1.0,
                        "interp" : "linr"
                      }
                    },
                    "effects" : [

                    ],
                    "start" : 25914,
                    "duration" : 788,
                    "mediaStart" : 22781,
                    "mediaDuration" : 788,
                    "scalar" : 1,
                    "metadata" : {
                      "AutoAppliedSmartFocus" : "False",
                      "WinSubProjectDisplayName" : "",
                      "clipSpeedAttribute" : false,
                      "default-scale0" : 1.0,
                      "default-scale1" : 1.0,
                      "default-translation0" : 0.0,
                      "default-translation1" : 0.0
                    },
                    "animationTracks" : {
                      "visual" : [
                        {
                          "endTime" : 23460,
                          "duration" : 30,
                          "range" : [ 23430, 30]
                        }
                      ]
                    }
                  },
                  {
                    "id" : 334,
                    "_type" : "ScreenVMFile",
                    "src" : 7,
                    "trackNumber" : 0,
                    "attributes" : {
                      "ident" : "Rec 02-07-19_001"
                    },
                    "parameters" : {
                      "translation0" : {
                        "type" : "double",
                        "defaultValue" : 479.81818181804,
                        "interp" : "eioe",
                        "keyframes" : [
                          {
                            "endTime" : 23460,
                            "time" : 23430,
                            "value" : 20.7272727270287,
                            "duration" : 30
                          }
                        ]
                      },
                      "translation1" : {
                        "type" : "double",
                        "defaultValue" : -53.7272727273309,
                        "interp" : "eioe"
                      },
                      "scale0" : {
                        "type" : "double",
                        "defaultValue" : 2.2,
                        "interp" : "eioe"
                      },
                      "scale1" : {
                        "type" : "double",
                        "defaultValue" : 2.2,
                        "interp" : "eioe"
                      },
                      "cursorScale" : {
                        "type" : "double",
                        "defaultValue" : 1.0,
                        "interp" : "linr"
                      },
                      "cursorOpacity" : {
                        "type" : "double",
                        "defaultValue" : 1.0,
                        "interp" : "linr"
                      }
                    },
                    "effects" : [

                    ],
                    "start" : 26702,
                    "duration" : 115,
                    "mediaStart" : 23569,
                    "mediaDuration" : 346,
                    "scalar" : "115/346",
                    "metadata" : {
                      "AutoAppliedSmartFocus" : "False",
                      "WinSubProjectDisplayName" : "",
                      "clipSpeedAttribute" : true,
                      "default-scale0" : 1.0,
                      "default-scale1" : 1.0,
                      "default-translation0" : 0.0,
                      "default-translation1" : 0.0
                    },
                    "animationTracks" : {
                      "visual" : [
                        {
                          "endTime" : 23460,
                          "duration" : 30,
                          "range" : [ 23430, 30]
                        }
                      ]
                    }
                  },
                  {
                    "id" : 335,
                    "_type" : "StitchedMedia",
                    "minMediaStart" : 0,
                    "attributes" : {
                      "ident" : "Rec 02-07-19_001",
                      "gain" : 1.0,
                      "mixToMono" : false
                    },
                    "parameters" : {
                      "translation0" : {
                        "type" : "double",
                        "defaultValue" : 479.81818181804,
                        "keyframes" : [
                          {
                            "endTime" : 23460,
                            "time" : 23430,
                            "value" : 20.7272727270287,
                            "duration" : 30
                          },
                          {
                            "endTime" : 24131,
                            "time" : 24101,
                            "value" : 570.727272727206,
                            "duration" : 30
                          },
                          {
                            "endTime" : 24740,
                            "time" : 24710,
                            "value" : 197.999999999845,
                            "duration" : 30
                          },
                          {
                            "endTime" : 25813,
                            "time" : 25783,
                            "value" : -492.909090909298,
                            "duration" : 30
                          }
                        ]
                      },
                      "translation1" : {
                        "type" : "double",
                        "defaultValue" : -53.7272727273309,
                        "keyframes" : [
                          {
                            "endTime" : 23460,
                            "time" : 23430,
                            "value" : 0.0,
                            "duration" : 30
                          },
                          {
                            "endTime" : 24131,
                            "time" : 24101,
                            "value" : -347.999999999925,
                            "duration" : 30
                          },
                          {
                            "endTime" : 24740,
                            "time" : 24710,
                            "value" : -461.636363636248,
                            "duration" : 30
                          },
                          {
                            "endTime" : 25813,
                            "time" : 25783,
                            "value" : -540.000000000082,
                            "duration" : 30
                          }
                        ]
                      },
                      "scale0" : {
                        "type" : "double",
                        "defaultValue" : 2.2,
                        "keyframes" : [
                          {
                            "endTime" : 25813,
                            "time" : 25783,
                            "value" : 2.86533333333333,
                            "duration" : 30
                          }
                        ]
                      },
                      "scale1" : {
                        "type" : "double",
                        "defaultValue" : 2.2,
                        "keyframes" : [
                          {
                            "endTime" : 25813,
                            "time" : 25783,
                            "value" : 2.86533333333333,
                            "duration" : 30
                          }
                        ]
                      },
                      "cursorOpacity" : 1.0,
                      "cursorScale" : 1.0
                    },
                    "medias" : [
                        {
                          "id" : 336,
                          "_type" : "ScreenVMFile",
                          "src" : 7,
                          "trackNumber" : 0,
                          "attributes" : {
                            "ident" : "Rec 02-07-19_001"
                          },
                          "parameters" : {
                            "cursorScale" : {
                              "type" : "double",
                              "defaultValue" : 0.0,
                              "interp" : "linr"
                            },
                            "cursorOpacity" : {
                              "type" : "double",
                              "defaultValue" : 0.0,
                              "interp" : "linr"
                            }
                          },
                          "effects" : [

                          ],
                          "start" : 0,
                          "duration" : 25233,
                          "mediaStart" : 0,
                          "mediaDuration" : 25233,
                          "scalar" : 1,
                          "metadata" : {
                            "AutoAppliedSmartFocus" : "False",
                            "WinSubProjectDisplayName" : "",
                            "clipSpeedAttribute" : false,
                            "default-scale0" : 1.0,
                            "default-scale1" : 1.0,
                            "default-translation0" : 0.0,
                            "default-translation1" : 0.0
                          },
                          "animationTracks" : {

                          }
                        },
                        {
                          "id" : 337,
                          "_type" : "ScreenVMFile",
                          "src" : 7,
                          "trackNumber" : 0,
                          "attributes" : {
                            "ident" : "Rec 02-07-19_001"
                          },
                          "parameters" : {
                            "cursorScale" : {
                              "type" : "double",
                              "defaultValue" : 0.0,
                              "interp" : "linr"
                            },
                            "cursorOpacity" : {
                              "type" : "double",
                              "defaultValue" : 0.0,
                              "interp" : "linr"
                            }
                          },
                          "effects" : [

                          ],
                          "start" : 25233,
                          "duration" : 133,
                          "mediaStart" : 25358,
                          "mediaDuration" : 133,
                          "scalar" : 1,
                          "metadata" : {
                            "AutoAppliedSmartFocus" : "False",
                            "WinSubProjectDisplayName" : "",
                            "clipSpeedAttribute" : false,
                            "default-scale0" : 1.0,
                            "default-scale1" : 1.0,
                            "default-translation0" : 0.0,
                            "default-translation1" : 0.0
                          },
                          "animationTracks" : {

                          }
                        },
                        {
                          "id" : 338,
                          "_type" : "ScreenVMFile",
                          "src" : 7,
                          "trackNumber" : 0,
                          "attributes" : {
                            "ident" : "Rec 02-07-19_001"
                          },
                          "parameters" : {
                            "cursorScale" : {
                              "type" : "double",
                              "defaultValue" : 0.0,
                              "interp" : "linr"
                            },
                            "cursorOpacity" : {
                              "type" : "double",
                              "defaultValue" : 0.0,
                              "interp" : "linr"
                            }
                          },
                          "effects" : [

                          ],
                          "start" : 25366,
                          "duration" : 718,
                          "mediaStart" : 25678,
                          "mediaDuration" : 718,
                          "scalar" : 1,
                          "metadata" : {
                            "AutoAppliedSmartFocus" : "False",
                            "WinSubProjectDisplayName" : "",
                            "clipSpeedAttribute" : false,
                            "default-scale0" : 1.0,
                            "default-scale1" : 1.0,
                            "default-translation0" : 0.0,
                            "default-translation1" : 0.0
                          },
                          "animationTracks" : {

                          }
                        }
                    ],
                    "effects" : [

                    ],
                    "start" : 26817,
                    "duration" : 2038,
                    "mediaStart" : 23915,
                    "mediaDuration" : 2038,
                    "scalar" : 1,
                    "metadata" : {
                      "AutoAppliedSmartFocus" : "False",
                      "WinSubProjectDisplayName" : "",
                      "clipSpeedAttribute" : false,
                      "default-scale0" : 2.2,
                      "default-scale1" : 2.2,
                      "default-translation0" : 197.999999999845,
                      "default-translation1" : -461.636363636248
                    },
                    "animationTracks" : {
                      "visual" : [
                        {
                          "endTime" : 23460,
                          "duration" : 30,
                          "range" : [ 23430, 30]
                        },
                        {
                          "endTime" : 24131,
                          "duration" : 30,
                          "range" : [ 24101, 30]
                        },
                        {
                          "endTime" : 24740,
                          "duration" : 30,
                          "range" : [ 24710, 30]
                        },
                        {
                          "endTime" : 25813,
                          "duration" : 30,
                          "range" : [ 25783, 30]
                        }
                      ]
                    }
                  },
                  {
                    "id" : 339,
                    "_type" : "StitchedMedia",
                    "minMediaStart" : 0,
                    "attributes" : {
                      "ident" : "Rec 02-07-19_002",
                      "gain" : 1.0,
                      "mixToMono" : false
                    },
                    "parameters" : {
                      "translation0" : -359.090909090888,
                      "translation1" : -684.090909090869,
                      "scale0" : 3.37825,
                      "scale1" : 3.37825,
                      "cursorOpacity" : 1.0,
                      "cursorScale" : 1.0
                    },
                    "medias" : [
                        {
                          "id" : 340,
                          "_type" : "ScreenVMFile",
                          "src" : 9,
                          "trackNumber" : 0,
                          "attributes" : {
                            "ident" : "Rec 02-07-19_002"
                          },
                          "parameters" : {
                            "cursorScale" : {
                              "type" : "double",
                              "defaultValue" : 0.0,
                              "interp" : "linr"
                            },
                            "cursorOpacity" : {
                              "type" : "double",
                              "defaultValue" : 0.0,
                              "interp" : "linr"
                            }
                          },
                          "effects" : [

                          ],
                          "start" : 0,
                          "duration" : 763,
                          "mediaStart" : 0,
                          "mediaDuration" : 763,
                          "scalar" : 1,
                          "metadata" : {
                            "AutoAppliedSmartFocus" : "False",
                            "WinSubProjectDisplayName" : "",
                            "clipSpeedAttribute" : false,
                            "default-scale0" : 1.0,
                            "default-scale1" : 1.0,
                            "default-translation0" : 0.0,
                            "default-translation1" : 0.0
                          },
                          "animationTracks" : {

                          }
                        },
                        {
                          "id" : 341,
                          "_type" : "ScreenVMFile",
                          "src" : 9,
                          "trackNumber" : 0,
                          "attributes" : {
                            "ident" : "Rec 02-07-19_002"
                          },
                          "parameters" : {
                            "cursorScale" : {
                              "type" : "double",
                              "defaultValue" : 0.0,
                              "interp" : "linr"
                            },
                            "cursorOpacity" : {
                              "type" : "double",
                              "defaultValue" : 0.0,
                              "interp" : "linr"
                            }
                          },
                          "effects" : [

                          ],
                          "start" : 763,
                          "duration" : 838,
                          "mediaStart" : 863,
                          "mediaDuration" : 838,
                          "scalar" : 1,
                          "metadata" : {
                            "AutoAppliedSmartFocus" : "False",
                            "WinSubProjectDisplayName" : "",
                            "clipSpeedAttribute" : false,
                            "default-scale0" : 1.0,
                            "default-scale1" : 1.0,
                            "default-translation0" : 0.0,
                            "default-translation1" : 0.0
                          },
                          "animationTracks" : {

                          }
                        }
                    ],
                    "effects" : [

                    ],
                    "start" : 28855,
                    "duration" : 1100,
                    "mediaStart" : 443,
                    "mediaDuration" : 1100,
                    "scalar" : 1,
                    "metadata" : {
                      "AutoAppliedSmartFocus" : "False",
                      "WinSubProjectDisplayName" : "",
                      "clipSpeedAttribute" : false
                    },
                    "animationTracks" : {

                    }
                  },
                  {
                    "id" : 342,
                    "_type" : "IMFile",
                    "src" : 10,
                    "trackNumber" : 0,
                    "trimStartSum" : 0,
                    "attributes" : {
                      "ident" : "Functions"
                    },
                    "parameters" : {
                      "translation0" : {
                        "type" : "double",
                        "defaultValue" : -1574.35717649789,
                        "interp" : "eioe",
                        "keyframes" : [
                          {
                            "endTime" : 237,
                            "time" : 0,
                            "value" : -295.304544918954,
                            "duration" : 237
                          }
                        ]
                      },
                      "translation1" : {
                        "type" : "double",
                        "defaultValue" : -85.5263157891749,
                        "interp" : "eioe",
                        "keyframes" : [
                          {
                            "endTime" : 237,
                            "time" : 0,
                            "value" : -85.5,
                            "duration" : 237
                          }
                        ]
                      },
                      "scale0" : {
                        "type" : "double",
                        "defaultValue" : 5.40951371717717,
                        "interp" : "eioe"
                      },
                      "scale1" : {
                        "type" : "double",
                        "defaultValue" : 5.40951371717717,
                        "interp" : "eioe"
                      }
                    },
                    "effects" : [

                    ],
                    "start" : 29955,
                    "duration" : 245,
                    "mediaStart" : 0,
                    "mediaDuration" : 1,
                    "scalar" : 1,
                    "metadata" : {
                      "WinSubProjectDisplayName" : "",
                      "clipSpeedAttribute" : false
                    },
                    "animationTracks" : {
                      "visual" : [
                        {
                          "endTime" : 237,
                          "duration" : 237,
                          "range" : [ 0, 237],
                          "interp" : "linr"
                        }
                      ]
                    }
                  }
                ],
                "transitions" : [
                  {
                    "name" : "Fade",
                    "duration" : 30,
                    "trivial" : false,
                    "useAudioPreRoll" : true,
                    "useVisualPreRoll" : true,
                    "leftMedia" : 43
                  },
                  {
                    "name" : "Fade",
                    "duration" : 30,
                    "trivial" : false,
                    "useAudioPreRoll" : true,
                    "useVisualPreRoll" : true,
                    "leftMedia" : 342
                  }
                ]
              },
              {
                "trackIndex" : 1,
                "medias" : [
                  {
                    "id" : 343,
                    "_type" : "UnifiedMedia",
                    "video" : 
                        {
                          "id" : 344,
                          "_type" : "VMFile",
                          "src" : 3,
                          "trackNumber" : 1,
                          "attributes" : {
                            "ident" : "Rec 02-06-19_002"
                          },
                          "parameters" : {
                            "translation0" : 704.000000000007,
                            "translation1" : -348.000000000024,
                            "scale0" : 0.8,
                            "scale1" : 0.8
                          },
                          "effects" : [

                          ],
                          "start" : 0,
                          "duration" : 1007,
                          "mediaStart" : 188,
                          "mediaDuration" : 1007,
                          "scalar" : 1,
                          "animationTracks" : {

                          }
                        },
                    "audio" : 
                        {
                          "id" : 345,
                          "_type" : "AMFile",
                          "src" : 3,
                          "trackNumber" : 2,
                          "attributes" : {
                            "ident" : "",
                            "sampleRate" : 44100,
                            "bitDepth" : 16,
                            "gain" : 1.0,
                            "mixToMono" : false
                          },
                            "channelNumber" : "0,1",
                          "effects" : [

                          ],
                          "start" : 0,
                          "duration" : 1007,
                          "mediaStart" : 188,
                          "mediaDuration" : 1007,
                          "scalar" : 1,
                          "animationTracks" : {

                          }
                        }
,
                    "start" : 0,
                    "duration" : 1007,
                    "mediaStart" : 0,
                    "mediaDuration" : 4756,
                    "scalar" : 1,
                    "metadata" : {
                      "WinSubProjectDisplayName" : "",
                      "clipSpeedAttribute" : false,
                      "default-scale0" : 0.25,
                      "default-scale1" : 0.25,
                      "default-translation0" : 880.0,
                      "default-translation1" : -480.0
                    }
                  },
                  {
                    "id" : 346,
                    "_type" : "UnifiedMedia",
                    "video" : 
                        {
                          "id" : 347,
                          "_type" : "VMFile",
                          "src" : 3,
                          "trackNumber" : 1,
                          "attributes" : {
                            "ident" : "Rec 02-06-19_002"
                          },
                          "parameters" : {
                            "translation0" : 704.000000000007,
                            "translation1" : -348.000000000024,
                            "scale0" : 0.8,
                            "scale1" : 0.8
                          },
                          "effects" : [

                          ],
                          "start" : 1007,
                          "duration" : 119,
                          "mediaStart" : 1220,
                          "mediaDuration" : 119,
                          "scalar" : 1,
                          "animationTracks" : {

                          }
                        },
                    "audio" : 
                        {
                          "id" : 348,
                          "_type" : "AMFile",
                          "src" : 3,
                          "trackNumber" : 2,
                          "attributes" : {
                            "ident" : "",
                            "sampleRate" : 44100,
                            "bitDepth" : 16,
                            "gain" : 1.0,
                            "mixToMono" : false
                          },
                            "channelNumber" : "0,1",
                          "effects" : [

                          ],
                          "start" : 1007,
                          "duration" : 119,
                          "mediaStart" : 1220,
                          "mediaDuration" : 119,
                          "scalar" : 1,
                          "animationTracks" : {

                          }
                        }
,
                    "start" : 1007,
                    "duration" : 119,
                    "mediaStart" : 0,
                    "mediaDuration" : 4756,
                    "scalar" : 1,
                    "metadata" : {
                      "WinSubProjectDisplayName" : "",
                      "clipSpeedAttribute" : false,
                      "default-scale0" : 0.25,
                      "default-scale1" : 0.25,
                      "default-translation0" : 880.0,
                      "default-translation1" : -480.0
                    }
                  },
                  {
                    "id" : 349,
                    "_type" : "UnifiedMedia",
                    "video" : 
                        {
                          "id" : 350,
                          "_type" : "VMFile",
                          "src" : 3,
                          "trackNumber" : 1,
                          "attributes" : {
                            "ident" : "Rec 02-06-19_002"
                          },
                          "parameters" : {
                            "translation0" : 704.000000000007,
                            "translation1" : -348.000000000024,
                            "scale0" : 0.8,
                            "scale1" : 0.8
                          },
                          "effects" : [

                          ],
                          "start" : 1126,
                          "duration" : 34,
                          "mediaStart" : 1339,
                          "mediaDuration" : 101,
                          "scalar" : "34/101",
                          "animationTracks" : {

                          }
                        },
                    "audio" : 
                        {
                          "id" : 351,
                          "_type" : "AMFile",
                          "src" : 3,
                          "trackNumber" : 2,
                          "attributes" : {
                            "ident" : "",
                            "sampleRate" : 44100,
                            "bitDepth" : 16,
                            "gain" : 1.0,
                            "mixToMono" : false
                          },
                            "channelNumber" : "0,1",
                          "effects" : [

                          ],
                          "start" : 1126,
                          "duration" : 34,
                          "mediaStart" : 1339,
                          "mediaDuration" : 101,
                          "scalar" : "34/101",
                          "animationTracks" : {

                          }
                        }
,
                    "start" : 1126,
                    "duration" : 34,
                    "mediaStart" : 0,
                    "mediaDuration" : 4756,
                    "scalar" : "34/101",
                    "metadata" : {
                      "WinSubProjectDisplayName" : "",
                      "clipSpeedAttribute" : true,
                      "default-scale0" : 0.25,
                      "default-scale1" : 0.25,
                      "default-translation0" : 880.0,
                      "default-translation1" : -480.0
                    }
                  },
                  {
                    "id" : 352,
                    "_type" : "UnifiedMedia",
                    "video" : 
                        {
                          "id" : 353,
                          "_type" : "VMFile",
                          "src" : 3,
                          "trackNumber" : 1,
                          "attributes" : {
                            "ident" : "Rec 02-06-19_002"
                          },
                          "parameters" : {
                            "translation0" : 704.000000000007,
                            "translation1" : -348.000000000024,
                            "scale0" : 0.8,
                            "scale1" : 0.8
                          },
                          "effects" : [

                          ],
                          "start" : 1160,
                          "duration" : 96,
                          "mediaStart" : 1440,
                          "mediaDuration" : 96,
                          "scalar" : 1,
                          "animationTracks" : {

                          }
                        },
                    "audio" : 
                        {
                          "id" : 354,
                          "_type" : "AMFile",
                          "src" : 3,
                          "trackNumber" : 2,
                          "attributes" : {
                            "ident" : "",
                            "sampleRate" : 44100,
                            "bitDepth" : 16,
                            "gain" : 1.0,
                            "mixToMono" : false
                          },
                            "channelNumber" : "0,1",
                          "effects" : [

                          ],
                          "start" : 1160,
                          "duration" : 96,
                          "mediaStart" : 1440,
                          "mediaDuration" : 96,
                          "scalar" : 1,
                          "animationTracks" : {

                          }
                        }
,
                    "start" : 1160,
                    "duration" : 96,
                    "mediaStart" : 0,
                    "mediaDuration" : 4756,
                    "scalar" : 1,
                    "metadata" : {
                      "WinSubProjectDisplayName" : "",
                      "clipSpeedAttribute" : false,
                      "default-scale0" : 0.25,
                      "default-scale1" : 0.25,
                      "default-translation0" : 880.0,
                      "default-translation1" : -480.0
                    }
                  },
                  {
                    "id" : 355,
                    "_type" : "StitchedMedia",
                    "minMediaStart" : 0,
                    "attributes" : {
                      "ident" : "Rec 02-06-19_002",
                      "gain" : 1.0,
                      "mixToMono" : false
                    },
                    "parameters" : {
                      "translation0" : 704.000000000007,
                      "translation1" : -348.000000000024,
                      "scale0" : 0.8,
                      "scale1" : 0.8,
                      "volume" : 1.0,
                      "cursorOpacity" : 1.0,
                      "cursorScale" : 1.0
                    },
                    "medias" : [
                        {
                          "id" : 356,
                          "_type" : "UnifiedMedia",
                          "video" : 
                              {
                                "id" : 357,
                                "_type" : "VMFile",
                                "src" : 3,
                                "trackNumber" : 1,
                                "attributes" : {
                                  "ident" : "Rec 02-06-19_002"
                                },
                                "effects" : [

                                ],
                                "start" : 0,
                                "duration" : 1679,
                                "mediaStart" : 0,
                                "mediaDuration" : 1679,
                                "scalar" : 1,
                                "animationTracks" : {

                                }
                              },
                          "audio" : 
                              {
                                "id" : 358,
                                "_type" : "AMFile",
                                "src" : 3,
                                "trackNumber" : 2,
                                "attributes" : {
                                  "ident" : "",
                                  "sampleRate" : 44100,
                                  "bitDepth" : 16,
                                  "gain" : 1.0,
                                  "mixToMono" : false
                                },
                                  "channelNumber" : "0,1",
                                "effects" : [

                                ],
                                "start" : 0,
                                "duration" : 1679,
                                "mediaStart" : 0,
                                "mediaDuration" : 1679,
                                "scalar" : 1,
                                "animationTracks" : {

                                }
                              }
,
                          "start" : 0,
                          "duration" : 1679,
                          "mediaStart" : 0,
                          "mediaDuration" : 4756,
                          "scalar" : 1,
                          "metadata" : {
                            "WinSubProjectDisplayName" : "",
                            "clipSpeedAttribute" : false,
                            "default-scale0" : 0.25,
                            "default-scale1" : 0.25,
                            "default-translation0" : 880.0,
                            "default-translation1" : -480.0
                          }
                        },
                        {
                          "id" : 359,
                          "_type" : "UnifiedMedia",
                          "video" : 
                              {
                                "id" : 360,
                                "_type" : "VMFile",
                                "src" : 3,
                                "trackNumber" : 1,
                                "attributes" : {
                                  "ident" : "Rec 02-06-19_002"
                                },
                                "effects" : [

                                ],
                                "start" : 1679,
                                "duration" : 3025,
                                "mediaStart" : 1731,
                                "mediaDuration" : 3025,
                                "scalar" : 1,
                                "animationTracks" : {

                                }
                              },
                          "audio" : 
                              {
                                "id" : 361,
                                "_type" : "AMFile",
                                "src" : 3,
                                "trackNumber" : 2,
                                "attributes" : {
                                  "ident" : "",
                                  "sampleRate" : 44100,
                                  "bitDepth" : 16,
                                  "gain" : 1.0,
                                  "mixToMono" : false
                                },
                                  "channelNumber" : "0,1",
                                "effects" : [

                                ],
                                "start" : 1679,
                                "duration" : 3025,
                                "mediaStart" : 1731,
                                "mediaDuration" : 3025,
                                "scalar" : 1,
                                "animationTracks" : {

                                }
                              }
,
                          "start" : 1679,
                          "duration" : 3025,
                          "mediaStart" : 0,
                          "mediaDuration" : 4756,
                          "scalar" : 1,
                          "metadata" : {
                            "WinSubProjectDisplayName" : "",
                            "clipSpeedAttribute" : false,
                            "default-scale0" : 0.25,
                            "default-scale1" : 0.25,
                            "default-translation0" : 880.0,
                            "default-translation1" : -480.0
                          }
                        }
                    ],
                    "effects" : [

                    ],
                    "start" : 1256,
                    "duration" : 277,
                    "mediaStart" : 1557,
                    "mediaDuration" : 277,
                    "scalar" : 1,
                    "metadata" : {
                      "WinSubProjectDisplayName" : "",
                      "clipSpeedAttribute" : false
                    },
                    "animationTracks" : {

                    }
                  },
                  {
                    "id" : 362,
                    "_type" : "UnifiedMedia",
                    "video" : 
                        {
                          "id" : 363,
                          "_type" : "VMFile",
                          "src" : 3,
                          "trackNumber" : 1,
                          "attributes" : {
                            "ident" : "Rec 02-06-19_002"
                          },
                          "parameters" : {
                            "translation0" : 704.000000000007,
                            "translation1" : -348.000000000024,
                            "scale0" : 0.8,
                            "scale1" : 0.8
                          },
                          "effects" : [

                          ],
                          "start" : 1533,
                          "duration" : 441,
                          "mediaStart" : 1961,
                          "mediaDuration" : 441,
                          "scalar" : 1,
                          "animationTracks" : {

                          }
                        },
                    "audio" : 
                        {
                          "id" : 364,
                          "_type" : "AMFile",
                          "src" : 3,
                          "trackNumber" : 2,
                          "attributes" : {
                            "ident" : "",
                            "sampleRate" : 44100,
                            "bitDepth" : 16,
                            "gain" : 1.0,
                            "mixToMono" : false
                          },
                            "channelNumber" : "0,1",
                          "effects" : [

                          ],
                          "start" : 1533,
                          "duration" : 441,
                          "mediaStart" : 1961,
                          "mediaDuration" : 441,
                          "scalar" : 1,
                          "animationTracks" : {

                          }
                        }
,
                    "start" : 1533,
                    "duration" : 441,
                    "mediaStart" : 0,
                    "mediaDuration" : 4756,
                    "scalar" : 1,
                    "metadata" : {
                      "WinSubProjectDisplayName" : "",
                      "clipSpeedAttribute" : false,
                      "default-scale0" : 0.25,
                      "default-scale1" : 0.25,
                      "default-translation0" : 880.0,
                      "default-translation1" : -480.0
                    }
                  },
                  {
                    "id" : 365,
                    "_type" : "UnifiedMedia",
                    "video" : 
                        {
                          "id" : 366,
                          "_type" : "VMFile",
                          "src" : 3,
                          "trackNumber" : 1,
                          "attributes" : {
                            "ident" : "Rec 02-06-19_002"
                          },
                          "parameters" : {
                            "translation0" : 704.000000000007,
                            "translation1" : -348.000000000024,
                            "scale0" : 0.8,
                            "scale1" : 0.8
                          },
                          "effects" : [

                          ],
                          "start" : 1974,
                          "duration" : 131,
                          "mediaStart" : 2474,
                          "mediaDuration" : 131,
                          "scalar" : 1,
                          "animationTracks" : {

                          }
                        },
                    "audio" : 
                        {
                          "id" : 367,
                          "_type" : "AMFile",
                          "src" : 3,
                          "trackNumber" : 2,
                          "attributes" : {
                            "ident" : "",
                            "sampleRate" : 44100,
                            "bitDepth" : 16,
                            "gain" : 1.0,
                            "mixToMono" : false
                          },
                            "channelNumber" : "0,1",
                          "effects" : [

                          ],
                          "start" : 1974,
                          "duration" : 131,
                          "mediaStart" : 2474,
                          "mediaDuration" : 131,
                          "scalar" : 1,
                          "animationTracks" : {

                          }
                        }
,
                    "start" : 1974,
                    "duration" : 131,
                    "mediaStart" : 0,
                    "mediaDuration" : 4756,
                    "scalar" : 1,
                    "metadata" : {
                      "WinSubProjectDisplayName" : "",
                      "clipSpeedAttribute" : false,
                      "default-scale0" : 0.25,
                      "default-scale1" : 0.25,
                      "default-translation0" : 880.0,
                      "default-translation1" : -480.0
                    }
                  },
                  {
                    "id" : 368,
                    "_type" : "UnifiedMedia",
                    "video" : 
                        {
                          "id" : 369,
                          "_type" : "VMFile",
                          "src" : 3,
                          "trackNumber" : 1,
                          "attributes" : {
                            "ident" : "Rec 02-06-19_002"
                          },
                          "parameters" : {
                            "translation0" : 704.000000000007,
                            "translation1" : -348.000000000024,
                            "scale0" : 0.8,
                            "scale1" : 0.8
                          },
                          "effects" : [

                          ],
                          "start" : 2105,
                          "duration" : 39,
                          "mediaStart" : 2605,
                          "mediaDuration" : 117,
                          "scalar" : "1/3",
                          "animationTracks" : {

                          }
                        },
                    "audio" : 
                        {
                          "id" : 370,
                          "_type" : "AMFile",
                          "src" : 3,
                          "trackNumber" : 2,
                          "attributes" : {
                            "ident" : "",
                            "sampleRate" : 44100,
                            "bitDepth" : 16,
                            "gain" : 1.0,
                            "mixToMono" : false
                          },
                            "channelNumber" : "0,1",
                          "effects" : [

                          ],
                          "start" : 2105,
                          "duration" : 39,
                          "mediaStart" : 2605,
                          "mediaDuration" : 117,
                          "scalar" : "1/3",
                          "animationTracks" : {

                          }
                        }
,
                    "start" : 2105,
                    "duration" : 39,
                    "mediaStart" : 0,
                    "mediaDuration" : 4756,
                    "scalar" : "1/3",
                    "metadata" : {
                      "WinSubProjectDisplayName" : "",
                      "clipSpeedAttribute" : true,
                      "default-scale0" : 0.25,
                      "default-scale1" : 0.25,
                      "default-translation0" : 880.0,
                      "default-translation1" : -480.0
                    }
                  },
                  {
                    "id" : 371,
                    "_type" : "UnifiedMedia",
                    "video" : 
                        {
                          "id" : 372,
                          "_type" : "VMFile",
                          "src" : 3,
                          "trackNumber" : 1,
                          "attributes" : {
                            "ident" : "Rec 02-06-19_002"
                          },
                          "parameters" : {
                            "translation0" : 704.000000000007,
                            "translation1" : -348.000000000024,
                            "scale0" : 0.8,
                            "scale1" : 0.8
                          },
                          "effects" : [

                          ],
                          "start" : 2144,
                          "duration" : 132,
                          "mediaStart" : 2822,
                          "mediaDuration" : 132,
                          "scalar" : 1,
                          "animationTracks" : {

                          }
                        },
                    "audio" : 
                        {
                          "id" : 373,
                          "_type" : "AMFile",
                          "src" : 3,
                          "trackNumber" : 2,
                          "attributes" : {
                            "ident" : "",
                            "sampleRate" : 44100,
                            "bitDepth" : 16,
                            "gain" : 1.0,
                            "mixToMono" : false
                          },
                            "channelNumber" : "0,1",
                          "effects" : [

                          ],
                          "start" : 2144,
                          "duration" : 132,
                          "mediaStart" : 2822,
                          "mediaDuration" : 132,
                          "scalar" : 1,
                          "animationTracks" : {

                          }
                        }
,
                    "start" : 2144,
                    "duration" : 132,
                    "mediaStart" : 0,
                    "mediaDuration" : 4756,
                    "scalar" : 1,
                    "metadata" : {
                      "WinSubProjectDisplayName" : "",
                      "clipSpeedAttribute" : false,
                      "default-scale0" : 0.25,
                      "default-scale1" : 0.25,
                      "default-translation0" : 880.0,
                      "default-translation1" : -480.0
                    }
                  },
                  {
                    "id" : 374,
                    "_type" : "UnifiedMedia",
                    "video" : 
                        {
                          "id" : 375,
                          "_type" : "VMFile",
                          "src" : 3,
                          "trackNumber" : 1,
                          "attributes" : {
                            "ident" : "Rec 02-06-19_002"
                          },
                          "parameters" : {
                            "translation0" : 704.000000000007,
                            "translation1" : -348.000000000024,
                            "scale0" : 0.8,
                            "scale1" : 0.8
                          },
                          "effects" : [

                          ],
                          "start" : 2276,
                          "duration" : 104,
                          "mediaStart" : 2954,
                          "mediaDuration" : 416,
                          "scalar" : "1/4",
                          "animationTracks" : {

                          }
                        },
                    "audio" : 
                        {
                          "id" : 376,
                          "_type" : "AMFile",
                          "src" : 3,
                          "trackNumber" : 2,
                          "attributes" : {
                            "ident" : "",
                            "sampleRate" : 44100,
                            "bitDepth" : 16,
                            "gain" : 1.0,
                            "mixToMono" : false
                          },
                            "channelNumber" : "0,1",
                          "effects" : [

                          ],
                          "start" : 2276,
                          "duration" : 104,
                          "mediaStart" : 2954,
                          "mediaDuration" : 416,
                          "scalar" : "1/4",
                          "animationTracks" : {

                          }
                        }
,
                    "start" : 2276,
                    "duration" : 104,
                    "mediaStart" : 0,
                    "mediaDuration" : 4756,
                    "scalar" : "1/4",
                    "metadata" : {
                      "WinSubProjectDisplayName" : "",
                      "clipSpeedAttribute" : true,
                      "default-scale0" : 0.25,
                      "default-scale1" : 0.25,
                      "default-translation0" : 880.0,
                      "default-translation1" : -480.0
                    }
                  },
                  {
                    "id" : 377,
                    "_type" : "UnifiedMedia",
                    "video" : 
                        {
                          "id" : 378,
                          "_type" : "VMFile",
                          "src" : 3,
                          "trackNumber" : 1,
                          "attributes" : {
                            "ident" : "Rec 02-06-19_002"
                          },
                          "parameters" : {
                            "translation0" : 704.000000000007,
                            "translation1" : -348.000000000024,
                            "scale0" : 0.8,
                            "scale1" : 0.8
                          },
                          "effects" : [

                          ],
                          "start" : 2380,
                          "duration" : 240,
                          "mediaStart" : 3370,
                          "mediaDuration" : 240,
                          "scalar" : 1,
                          "animationTracks" : {

                          }
                        },
                    "audio" : 
                        {
                          "id" : 379,
                          "_type" : "AMFile",
                          "src" : 3,
                          "trackNumber" : 2,
                          "attributes" : {
                            "ident" : "",
                            "sampleRate" : 44100,
                            "bitDepth" : 16,
                            "gain" : 1.0,
                            "mixToMono" : false
                          },
                            "channelNumber" : "0,1",
                          "effects" : [

                          ],
                          "start" : 2380,
                          "duration" : 240,
                          "mediaStart" : 3370,
                          "mediaDuration" : 240,
                          "scalar" : 1,
                          "animationTracks" : {

                          }
                        }
,
                    "start" : 2380,
                    "duration" : 240,
                    "mediaStart" : 0,
                    "mediaDuration" : 4756,
                    "scalar" : 1,
                    "metadata" : {
                      "WinSubProjectDisplayName" : "",
                      "clipSpeedAttribute" : false,
                      "default-scale0" : 0.25,
                      "default-scale1" : 0.25,
                      "default-translation0" : 880.0,
                      "default-translation1" : -480.0
                    }
                  },
                  {
                    "id" : 380,
                    "_type" : "UnifiedMedia",
                    "video" : 
                        {
                          "id" : 381,
                          "_type" : "VMFile",
                          "src" : 3,
                          "trackNumber" : 1,
                          "attributes" : {
                            "ident" : "Rec 02-06-19_002"
                          },
                          "parameters" : {
                            "translation0" : 704.000000000007,
                            "translation1" : -348.000000000024,
                            "scale0" : 0.8,
                            "scale1" : 0.8
                          },
                          "effects" : [

                          ],
                          "start" : 2620,
                          "duration" : 648,
                          "mediaStart" : 3686,
                          "mediaDuration" : 648,
                          "scalar" : 1,
                          "animationTracks" : {

                          }
                        },
                    "audio" : 
                        {
                          "id" : 382,
                          "_type" : "AMFile",
                          "src" : 3,
                          "trackNumber" : 2,
                          "attributes" : {
                            "ident" : "",
                            "sampleRate" : 44100,
                            "bitDepth" : 16,
                            "gain" : 1.0,
                            "mixToMono" : false
                          },
                            "channelNumber" : "0,1",
                          "effects" : [

                          ],
                          "start" : 2620,
                          "duration" : 648,
                          "mediaStart" : 3686,
                          "mediaDuration" : 648,
                          "scalar" : 1,
                          "animationTracks" : {

                          }
                        }
,
                    "start" : 2620,
                    "duration" : 648,
                    "mediaStart" : 0,
                    "mediaDuration" : 4756,
                    "scalar" : 1,
                    "metadata" : {
                      "WinSubProjectDisplayName" : "",
                      "clipSpeedAttribute" : false,
                      "default-scale0" : 0.25,
                      "default-scale1" : 0.25,
                      "default-translation0" : 880.0,
                      "default-translation1" : -480.0
                    }
                  },
                  {
                    "id" : 383,
                    "_type" : "UnifiedMedia",
                    "video" : 
                        {
                          "id" : 384,
                          "_type" : "VMFile",
                          "src" : 4,
                          "trackNumber" : 1,
                          "attributes" : {
                            "ident" : "Rec 02-06-19_003"
                          },
                          "parameters" : {
                            "translation0" : 703.999999999886,
                            "translation1" : -348.000000000028,
                            "scale0" : 0.8,
                            "scale1" : 0.8
                          },
                          "effects" : [

                          ],
                          "start" : 3268,
                          "duration" : 342,
                          "mediaStart" : 1761,
                          "mediaDuration" : 342,
                          "scalar" : 1,
                          "animationTracks" : {

                          }
                        },
                    "audio" : 
                        {
                          "id" : 385,
                          "_type" : "AMFile",
                          "src" : 4,
                          "trackNumber" : 2,
                          "attributes" : {
                            "ident" : "",
                            "sampleRate" : 44100,
                            "bitDepth" : 16,
                            "gain" : 1.0,
                            "mixToMono" : false
                          },
                            "channelNumber" : "0,1",
                          "effects" : [

                          ],
                          "start" : 3268,
                          "duration" : 342,
                          "mediaStart" : 1761,
                          "mediaDuration" : 342,
                          "scalar" : 1,
                          "animationTracks" : {

                          }
                        }
,
                    "start" : 3268,
                    "duration" : 342,
                    "mediaStart" : 0,
                    "mediaDuration" : 3001,
                    "scalar" : 1,
                    "metadata" : {
                      "WinSubProjectDisplayName" : "",
                      "clipSpeedAttribute" : false,
                      "default-scale0" : 0.25,
                      "default-scale1" : 0.25,
                      "default-translation0" : 880.0,
                      "default-translation1" : -480.0
                    }
                  },
                  {
                    "id" : 386,
                    "_type" : "UnifiedMedia",
                    "video" : 
                        {
                          "id" : 387,
                          "_type" : "VMFile",
                          "src" : 4,
                          "trackNumber" : 1,
                          "attributes" : {
                            "ident" : "Rec 02-06-19_003"
                          },
                          "parameters" : {
                            "translation0" : 703.999999999886,
                            "translation1" : -348.000000000028,
                            "scale0" : 0.8,
                            "scale1" : 0.8
                          },
                          "effects" : [

                          ],
                          "start" : 3610,
                          "duration" : 329,
                          "mediaStart" : 2317,
                          "mediaDuration" : 329,
                          "scalar" : 1,
                          "animationTracks" : {

                          }
                        },
                    "audio" : 
                        {
                          "id" : 388,
                          "_type" : "AMFile",
                          "src" : 4,
                          "trackNumber" : 2,
                          "attributes" : {
                            "ident" : "",
                            "sampleRate" : 44100,
                            "bitDepth" : 16,
                            "gain" : 1.0,
                            "mixToMono" : false
                          },
                            "channelNumber" : "0,1",
                          "effects" : [

                          ],
                          "start" : 3610,
                          "duration" : 329,
                          "mediaStart" : 2317,
                          "mediaDuration" : 329,
                          "scalar" : 1,
                          "animationTracks" : {

                          }
                        }
,
                    "start" : 3610,
                    "duration" : 329,
                    "mediaStart" : 0,
                    "mediaDuration" : 3001,
                    "scalar" : 1,
                    "metadata" : {
                      "WinSubProjectDisplayName" : "",
                      "clipSpeedAttribute" : false,
                      "default-scale0" : 0.25,
                      "default-scale1" : 0.25,
                      "default-translation0" : 880.0,
                      "default-translation1" : -480.0
                    }
                  },
                  {
                    "id" : 389,
                    "_type" : "UnifiedMedia",
                    "video" : 
                        {
                          "id" : 390,
                          "_type" : "VMFile",
                          "src" : 4,
                          "trackNumber" : 1,
                          "attributes" : {
                            "ident" : "Rec 02-06-19_003"
                          },
                          "parameters" : {
                            "translation0" : 703.999999999886,
                            "translation1" : -348.000000000028,
                            "scale0" : 0.8,
                            "scale1" : 0.8
                          },
                          "effects" : [

                          ],
                          "start" : 3939,
                          "duration" : 165,
                          "mediaStart" : 2758,
                          "mediaDuration" : 165,
                          "scalar" : 1,
                          "animationTracks" : {

                          }
                        },
                    "audio" : 
                        {
                          "id" : 391,
                          "_type" : "AMFile",
                          "src" : 4,
                          "trackNumber" : 2,
                          "attributes" : {
                            "ident" : "",
                            "sampleRate" : 44100,
                            "bitDepth" : 16,
                            "gain" : 1.0,
                            "mixToMono" : false
                          },
                            "channelNumber" : "0,1",
                          "effects" : [

                          ],
                          "start" : 3939,
                          "duration" : 165,
                          "mediaStart" : 2758,
                          "mediaDuration" : 165,
                          "scalar" : 1,
                          "animationTracks" : {

                          }
                        }
,
                    "start" : 3939,
                    "duration" : 165,
                    "mediaStart" : 0,
                    "mediaDuration" : 3001,
                    "scalar" : 1,
                    "metadata" : {
                      "WinSubProjectDisplayName" : "",
                      "clipSpeedAttribute" : false,
                      "default-scale0" : 0.25,
                      "default-scale1" : 0.25,
                      "default-translation0" : 880.0,
                      "default-translation1" : -480.0
                    }
                  },
                  {
                    "id" : 392,
                    "_type" : "UnifiedMedia",
                    "video" : 
                        {
                          "id" : 393,
                          "_type" : "VMFile",
                          "src" : 4,
                          "trackNumber" : 1,
                          "attributes" : {
                            "ident" : "Rec 02-06-19_003"
                          },
                          "parameters" : {
                            "translation0" : 703.999999999886,
                            "translation1" : -348.000000000028,
                            "scale0" : 0.8,
                            "scale1" : 0.8
                          },
                          "effects" : [

                          ],
                          "start" : 4104,
                          "duration" : 63,
                          "mediaStart" : 178,
                          "mediaDuration" : 63,
                          "scalar" : 1,
                          "animationTracks" : {

                          }
                        },
                    "audio" : 
                        {
                          "id" : 394,
                          "_type" : "AMFile",
                          "src" : 4,
                          "trackNumber" : 2,
                          "attributes" : {
                            "ident" : "",
                            "sampleRate" : 44100,
                            "bitDepth" : 16,
                            "gain" : 1.0,
                            "mixToMono" : false
                          },
                            "channelNumber" : "0,1",
                          "effects" : [

                          ],
                          "start" : 4104,
                          "duration" : 63,
                          "mediaStart" : 178,
                          "mediaDuration" : 63,
                          "scalar" : 1,
                          "animationTracks" : {

                          }
                        }
,
                    "start" : 4104,
                    "duration" : 63,
                    "mediaStart" : 0,
                    "mediaDuration" : 3001,
                    "scalar" : 1,
                    "metadata" : {
                      "WinSubProjectDisplayName" : "",
                      "clipSpeedAttribute" : false,
                      "default-scale0" : 0.25,
                      "default-scale1" : 0.25,
                      "default-translation0" : 880.0,
                      "default-translation1" : -480.0
                    }
                  },
                  {
                    "id" : 395,
                    "_type" : "UnifiedMedia",
                    "video" : 
                        {
                          "id" : 396,
                          "_type" : "VMFile",
                          "src" : 4,
                          "trackNumber" : 1,
                          "attributes" : {
                            "ident" : "Rec 02-06-19_003"
                          },
                          "parameters" : {
                            "translation0" : 703.999999999886,
                            "translation1" : -348.000000000028,
                            "scale0" : 0.8,
                            "scale1" : 0.8
                          },
                          "effects" : [

                          ],
                          "start" : 4167,
                          "duration" : 88,
                          "mediaStart" : 478,
                          "mediaDuration" : 88,
                          "scalar" : 1,
                          "animationTracks" : {

                          }
                        },
                    "audio" : 
                        {
                          "id" : 397,
                          "_type" : "AMFile",
                          "src" : 4,
                          "trackNumber" : 2,
                          "attributes" : {
                            "ident" : "",
                            "sampleRate" : 44100,
                            "bitDepth" : 16,
                            "gain" : 1.0,
                            "mixToMono" : false
                          },
                            "channelNumber" : "0,1",
                          "effects" : [

                          ],
                          "start" : 4167,
                          "duration" : 88,
                          "mediaStart" : 478,
                          "mediaDuration" : 88,
                          "scalar" : 1,
                          "animationTracks" : {

                          }
                        }
,
                    "start" : 4167,
                    "duration" : 88,
                    "mediaStart" : 0,
                    "mediaDuration" : 3001,
                    "scalar" : 1,
                    "metadata" : {
                      "WinSubProjectDisplayName" : "",
                      "clipSpeedAttribute" : false,
                      "default-scale0" : 0.25,
                      "default-scale1" : 0.25,
                      "default-translation0" : 880.0,
                      "default-translation1" : -480.0
                    }
                  },
                  {
                    "id" : 398,
                    "_type" : "IMFile",
                    "src" : 13,
                    "trackNumber" : 0,
                    "trimStartSum" : 0,
                    "attributes" : {
                      "ident" : "Functions"
                    },
                    "parameters" : {
                      "translation0" : {
                        "type" : "double",
                        "defaultValue" : -505.819375000225,
                        "interp" : "eioe",
                        "keyframes" : [
                          {
                            "endTime" : 194,
                            "time" : 0,
                            "value" : 505.819374999883,
                            "duration" : 194
                          }
                        ]
                      },
                      "translation1" : {
                        "type" : "double",
                        "defaultValue" : -5.72795144648808e-11,
                        "interp" : "eioe",
                        "keyframes" : [
                          {
                            "endTime" : 194,
                            "time" : 0,
                            "value" : 0.0,
                            "duration" : 194
                          }
                        ]
                      },
                      "scale0" : {
                        "type" : "double",
                        "defaultValue" : 3.12875,
                        "interp" : "eioe"
                      },
                      "scale1" : {
                        "type" : "double",
                        "defaultValue" : 3.12875,
                        "interp" : "eioe"
                      },
                      "opacity" : {
                        "type" : "double",
                        "defaultValue" : 0.5,
                        "interp" : "linr"
                      }
                    },
                    "effects" : [

                    ],
                    "start" : 4255,
                    "duration" : 194,
                    "mediaStart" : 0,
                    "mediaDuration" : 1,
                    "scalar" : 1,
                    "metadata" : {
                      "WinSubProjectDisplayName" : "",
                      "clipSpeedAttribute" : false
                    },
                    "animationTracks" : {
                      "visual" : [
                        {
                          "endTime" : 194,
                          "duration" : 194,
                          "range" : [ 0, 194],
                          "interp" : "linr"
                        }
                      ]
                    }
                  },
                  {
                    "id" : 399,
                    "_type" : "UnifiedMedia",
                    "video" : 
                        {
                          "id" : 400,
                          "_type" : "VMFile",
                          "src" : 4,
                          "trackNumber" : 1,
                          "attributes" : {
                            "ident" : "Rec 02-06-19_003"
                          },
                          "parameters" : {
                            "translation0" : {
                              "type" : "double",
                              "defaultValue" : 703.999999999886,
                              "interp" : "eioe"
                            },
                            "translation1" : {
                              "type" : "double",
                              "defaultValue" : -348.000000000028,
                              "interp" : "eioe"
                            },
                            "scale0" : {
                              "type" : "double",
                              "defaultValue" : 0.8,
                              "interp" : "eioe"
                            },
                            "scale1" : {
                              "type" : "double",
                              "defaultValue" : 0.8,
                              "interp" : "eioe"
                            }
                          },
                          "effects" : [

                          ],
                          "start" : 4449,
                          "duration" : 266,
                          "mediaStart" : 566,
                          "mediaDuration" : 266,
                          "scalar" : 1,
                          "animationTracks" : {

                          }
                        },
                    "audio" : 
                        {
                          "id" : 401,
                          "_type" : "AMFile",
                          "src" : 4,
                          "trackNumber" : 2,
                          "attributes" : {
                            "ident" : "",
                            "sampleRate" : 44100,
                            "bitDepth" : 16,
                            "gain" : 1.0,
                            "mixToMono" : false
                          },
                            "channelNumber" : "0,1",
                          "effects" : [

                          ],
                          "start" : 4449,
                          "duration" : 266,
                          "mediaStart" : 566,
                          "mediaDuration" : 266,
                          "scalar" : 1,
                          "animationTracks" : {

                          }
                        }
,
                    "start" : 4449,
                    "duration" : 266,
                    "mediaStart" : 0,
                    "mediaDuration" : 3001,
                    "scalar" : 1,
                    "metadata" : {
                      "WinSubProjectDisplayName" : "",
                      "clipSpeedAttribute" : false,
                      "default-scale0" : 0.25,
                      "default-scale1" : 0.25,
                      "default-translation0" : 880.0,
                      "default-translation1" : -480.0
                    }
                  },
                  {
                    "id" : 402,
                    "_type" : "UnifiedMedia",
                    "video" : 
                        {
                          "id" : 403,
                          "_type" : "VMFile",
                          "src" : 4,
                          "trackNumber" : 1,
                          "attributes" : {
                            "ident" : "Rec 02-06-19_003"
                          },
                          "parameters" : {
                            "translation0" : 703.999999999886,
                            "translation1" : -348.000000000028,
                            "scale0" : 0.8,
                            "scale1" : 0.8
                          },
                          "effects" : [

                          ],
                          "start" : 4715,
                          "duration" : 122,
                          "mediaStart" : 1077,
                          "mediaDuration" : 122,
                          "scalar" : 1,
                          "animationTracks" : {

                          }
                        },
                    "audio" : 
                        {
                          "id" : 404,
                          "_type" : "AMFile",
                          "src" : 4,
                          "trackNumber" : 2,
                          "attributes" : {
                            "ident" : "",
                            "sampleRate" : 44100,
                            "bitDepth" : 16,
                            "gain" : 1.0,
                            "mixToMono" : false
                          },
                            "channelNumber" : "0,1",
                          "effects" : [

                          ],
                          "start" : 4715,
                          "duration" : 122,
                          "mediaStart" : 1077,
                          "mediaDuration" : 122,
                          "scalar" : 1,
                          "animationTracks" : {

                          }
                        }
,
                    "start" : 4715,
                    "duration" : 122,
                    "mediaStart" : 0,
                    "mediaDuration" : 3001,
                    "scalar" : 1,
                    "metadata" : {
                      "WinSubProjectDisplayName" : "",
                      "clipSpeedAttribute" : false,
                      "default-scale0" : 0.25,
                      "default-scale1" : 0.25,
                      "default-translation0" : 880.0,
                      "default-translation1" : -480.0
                    }
                  },
                  {
                    "id" : 405,
                    "_type" : "UnifiedMedia",
                    "video" : 
                        {
                          "id" : 406,
                          "_type" : "VMFile",
                          "src" : 5,
                          "trackNumber" : 1,
                          "attributes" : {
                            "ident" : "Rec 02-06-19_004"
                          },
                          "parameters" : {
                            "translation0" : {
                              "type" : "double",
                              "defaultValue" : 703.999999999945,
                              "interp" : "eioe"
                            },
                            "translation1" : {
                              "type" : "double",
                              "defaultValue" : -347.99999999997,
                              "interp" : "eioe"
                            },
                            "scale0" : {
                              "type" : "double",
                              "defaultValue" : 0.8,
                              "interp" : "eioe"
                            },
                            "scale1" : {
                              "type" : "double",
                              "defaultValue" : 0.8,
                              "interp" : "eioe"
                            }
                          },
                          "effects" : [

                          ],
                          "start" : 4837,
                          "duration" : 482,
                          "mediaStart" : 3,
                          "mediaDuration" : 482,
                          "scalar" : 1,
                          "animationTracks" : {

                          }
                        },
                    "audio" : 
                        {
                          "id" : 407,
                          "_type" : "AMFile",
                          "src" : 5,
                          "trackNumber" : 2,
                          "attributes" : {
                            "ident" : "",
                            "sampleRate" : 44100,
                            "bitDepth" : 16,
                            "gain" : 1.0,
                            "mixToMono" : false
                          },
                            "channelNumber" : "0,1",
                          "effects" : [

                          ],
                          "start" : 4837,
                          "duration" : 482,
                          "mediaStart" : 3,
                          "mediaDuration" : 482,
                          "scalar" : 1,
                          "animationTracks" : {

                          }
                        }
,
                    "start" : 4837,
                    "duration" : 482,
                    "mediaStart" : 0,
                    "mediaDuration" : 15961,
                    "scalar" : 1,
                    "metadata" : {
                      "WinSubProjectDisplayName" : "",
                      "clipSpeedAttribute" : false,
                      "default-scale0" : 0.25,
                      "default-scale1" : 0.25,
                      "default-translation0" : 880.0,
                      "default-translation1" : -480.0
                    }
                  },
                  {
                    "id" : 408,
                    "_type" : "StitchedMedia",
                    "minMediaStart" : 0,
                    "attributes" : {
                      "ident" : "Rec 02-06-19_004",
                      "gain" : 1.0,
                      "mixToMono" : false
                    },
                    "parameters" : {
                      "translation0" : 703.999999999945,
                      "translation1" : -347.99999999997,
                      "scale0" : 0.8,
                      "scale1" : 0.8,
                      "volume" : 1.0,
                      "cursorOpacity" : 1.0,
                      "cursorScale" : 1.0
                    },
                    "medias" : [
                        {
                          "id" : 409,
                          "_type" : "UnifiedMedia",
                          "video" : 
                              {
                                "id" : 410,
                                "_type" : "VMFile",
                                "src" : 5,
                                "trackNumber" : 1,
                                "attributes" : {
                                  "ident" : "Rec 02-06-19_004"
                                },
                                "effects" : [

                                ],
                                "start" : 0,
                                "duration" : 850,
                                "mediaStart" : 0,
                                "mediaDuration" : 850,
                                "scalar" : 1,
                                "animationTracks" : {

                                }
                              },
                          "audio" : 
                              {
                                "id" : 411,
                                "_type" : "AMFile",
                                "src" : 5,
                                "trackNumber" : 2,
                                "attributes" : {
                                  "ident" : "",
                                  "sampleRate" : 44100,
                                  "bitDepth" : 16,
                                  "gain" : 1.0,
                                  "mixToMono" : false
                                },
                                  "channelNumber" : "0,1",
                                "effects" : [

                                ],
                                "start" : 0,
                                "duration" : 850,
                                "mediaStart" : 0,
                                "mediaDuration" : 850,
                                "scalar" : 1,
                                "animationTracks" : {

                                }
                              }
,
                          "start" : 0,
                          "duration" : 850,
                          "mediaStart" : 0,
                          "mediaDuration" : 15961,
                          "scalar" : 1,
                          "metadata" : {
                            "WinSubProjectDisplayName" : "",
                            "clipSpeedAttribute" : false,
                            "default-scale0" : 0.25,
                            "default-scale1" : 0.25,
                            "default-translation0" : 880.0,
                            "default-translation1" : -480.0
                          }
                        },
                        {
                          "id" : 412,
                          "_type" : "UnifiedMedia",
                          "video" : 
                              {
                                "id" : 413,
                                "_type" : "VMFile",
                                "src" : 5,
                                "trackNumber" : 1,
                                "attributes" : {
                                  "ident" : "Rec 02-06-19_004"
                                },
                                "effects" : [

                                ],
                                "start" : 850,
                                "duration" : 14995,
                                "mediaStart" : 966,
                                "mediaDuration" : 14995,
                                "scalar" : 1,
                                "animationTracks" : {

                                }
                              },
                          "audio" : 
                              {
                                "id" : 414,
                                "_type" : "AMFile",
                                "src" : 5,
                                "trackNumber" : 2,
                                "attributes" : {
                                  "ident" : "",
                                  "sampleRate" : 44100,
                                  "bitDepth" : 16,
                                  "gain" : 1.0,
                                  "mixToMono" : false
                                },
                                  "channelNumber" : "0,1",
                                "effects" : [

                                ],
                                "start" : 850,
                                "duration" : 14995,
                                "mediaStart" : 966,
                                "mediaDuration" : 14995,
                                "scalar" : 1,
                                "animationTracks" : {

                                }
                              }
,
                          "start" : 850,
                          "duration" : 14995,
                          "mediaStart" : 0,
                          "mediaDuration" : 15961,
                          "scalar" : 1,
                          "metadata" : {
                            "WinSubProjectDisplayName" : "",
                            "clipSpeedAttribute" : false,
                            "default-scale0" : 0.25,
                            "default-scale1" : 0.25,
                            "default-translation0" : 880.0,
                            "default-translation1" : -480.0
                          }
                        }
                    ],
                    "effects" : [

                    ],
                    "start" : 5319,
                    "duration" : 100,
                    "mediaStart" : 485,
                    "mediaDuration" : 398,
                    "scalar" : "50/199",
                    "metadata" : {
                      "WinSubProjectDisplayName" : "",
                      "clipSpeedAttribute" : true
                    },
                    "animationTracks" : {

                    }
                  },
                  {
                    "id" : 415,
                    "_type" : "UnifiedMedia",
                    "video" : 
                        {
                          "id" : 416,
                          "_type" : "VMFile",
                          "src" : 5,
                          "trackNumber" : 1,
                          "attributes" : {
                            "ident" : "Rec 02-06-19_004"
                          },
                          "parameters" : {
                            "translation0" : 703.999999999945,
                            "translation1" : -347.99999999997,
                            "scale0" : 0.8,
                            "scale1" : 0.8
                          },
                          "effects" : [

                          ],
                          "start" : 5419,
                          "duration" : 383,
                          "mediaStart" : 999,
                          "mediaDuration" : 383,
                          "scalar" : 1,
                          "animationTracks" : {

                          }
                        },
                    "audio" : 
                        {
                          "id" : 417,
                          "_type" : "AMFile",
                          "src" : 5,
                          "trackNumber" : 2,
                          "attributes" : {
                            "ident" : "",
                            "sampleRate" : 44100,
                            "bitDepth" : 16,
                            "gain" : 1.0,
                            "mixToMono" : false
                          },
                            "channelNumber" : "0,1",
                          "effects" : [

                          ],
                          "start" : 5419,
                          "duration" : 383,
                          "mediaStart" : 999,
                          "mediaDuration" : 383,
                          "scalar" : 1,
                          "animationTracks" : {

                          }
                        }
,
                    "start" : 5419,
                    "duration" : 383,
                    "mediaStart" : 0,
                    "mediaDuration" : 15961,
                    "scalar" : 1,
                    "metadata" : {
                      "WinSubProjectDisplayName" : "",
                      "clipSpeedAttribute" : false,
                      "default-scale0" : 0.25,
                      "default-scale1" : 0.25,
                      "default-translation0" : 880.0,
                      "default-translation1" : -480.0
                    }
                  },
                  {
                    "id" : 418,
                    "_type" : "UnifiedMedia",
                    "video" : 
                        {
                          "id" : 419,
                          "_type" : "VMFile",
                          "src" : 5,
                          "trackNumber" : 1,
                          "attributes" : {
                            "ident" : "Rec 02-06-19_004"
                          },
                          "parameters" : {
                            "translation0" : 703.999999999945,
                            "translation1" : -347.99999999997,
                            "scale0" : 0.8,
                            "scale1" : 0.8
                          },
                          "effects" : [

                          ],
                          "start" : 5802,
                          "duration" : 1371,
                          "mediaStart" : 1430,
                          "mediaDuration" : 1371,
                          "scalar" : 1,
                          "animationTracks" : {

                          }
                        },
                    "audio" : 
                        {
                          "id" : 420,
                          "_type" : "AMFile",
                          "src" : 5,
                          "trackNumber" : 2,
                          "attributes" : {
                            "ident" : "",
                            "sampleRate" : 44100,
                            "bitDepth" : 16,
                            "gain" : 1.0,
                            "mixToMono" : false
                          },
                            "channelNumber" : "0,1",
                          "effects" : [

                          ],
                          "start" : 5802,
                          "duration" : 1371,
                          "mediaStart" : 1430,
                          "mediaDuration" : 1371,
                          "scalar" : 1,
                          "animationTracks" : {

                          }
                        }
,
                    "start" : 5802,
                    "duration" : 1371,
                    "mediaStart" : 0,
                    "mediaDuration" : 15961,
                    "scalar" : 1,
                    "metadata" : {
                      "WinSubProjectDisplayName" : "",
                      "clipSpeedAttribute" : false,
                      "default-scale0" : 0.25,
                      "default-scale1" : 0.25,
                      "default-translation0" : 880.0,
                      "default-translation1" : -480.0
                    }
                  },
                  {
                    "id" : 421,
                    "_type" : "UnifiedMedia",
                    "video" : 
                        {
                          "id" : 422,
                          "_type" : "VMFile",
                          "src" : 5,
                          "trackNumber" : 1,
                          "attributes" : {
                            "ident" : "Rec 02-06-19_004"
                          },
                          "parameters" : {
                            "translation0" : 703.999999999945,
                            "translation1" : -347.99999999997,
                            "scale0" : 0.8,
                            "scale1" : 0.8
                          },
                          "effects" : [

                          ],
                          "start" : 7173,
                          "duration" : 110,
                          "mediaStart" : 2801,
                          "mediaDuration" : 330,
                          "scalar" : "1/3",
                          "animationTracks" : {

                          }
                        },
                    "audio" : 
                        {
                          "id" : 423,
                          "_type" : "AMFile",
                          "src" : 5,
                          "trackNumber" : 2,
                          "attributes" : {
                            "ident" : "",
                            "sampleRate" : 44100,
                            "bitDepth" : 16,
                            "gain" : 1.0,
                            "mixToMono" : false
                          },
                            "channelNumber" : "0,1",
                          "effects" : [

                          ],
                          "start" : 7173,
                          "duration" : 110,
                          "mediaStart" : 2801,
                          "mediaDuration" : 330,
                          "scalar" : "1/3",
                          "animationTracks" : {

                          }
                        }
,
                    "start" : 7173,
                    "duration" : 110,
                    "mediaStart" : 0,
                    "mediaDuration" : 15961,
                    "scalar" : "1/3",
                    "metadata" : {
                      "WinSubProjectDisplayName" : "",
                      "clipSpeedAttribute" : true,
                      "default-scale0" : 0.25,
                      "default-scale1" : 0.25,
                      "default-translation0" : 880.0,
                      "default-translation1" : -480.0
                    }
                  },
                  {
                    "id" : 424,
                    "_type" : "UnifiedMedia",
                    "video" : 
                        {
                          "id" : 425,
                          "_type" : "VMFile",
                          "src" : 5,
                          "trackNumber" : 1,
                          "attributes" : {
                            "ident" : "Rec 02-06-19_004"
                          },
                          "parameters" : {
                            "translation0" : 703.999999999945,
                            "translation1" : -347.99999999997,
                            "scale0" : 0.8,
                            "scale1" : 0.8
                          },
                          "effects" : [

                          ],
                          "start" : 7283,
                          "duration" : 1374,
                          "mediaStart" : 3131,
                          "mediaDuration" : 1374,
                          "scalar" : 1,
                          "animationTracks" : {

                          }
                        },
                    "audio" : 
                        {
                          "id" : 426,
                          "_type" : "AMFile",
                          "src" : 5,
                          "trackNumber" : 2,
                          "attributes" : {
                            "ident" : "",
                            "sampleRate" : 44100,
                            "bitDepth" : 16,
                            "gain" : 1.0,
                            "mixToMono" : false
                          },
                            "channelNumber" : "0,1",
                          "effects" : [

                          ],
                          "start" : 7283,
                          "duration" : 1374,
                          "mediaStart" : 3131,
                          "mediaDuration" : 1374,
                          "scalar" : 1,
                          "animationTracks" : {

                          }
                        }
,
                    "start" : 7283,
                    "duration" : 1374,
                    "mediaStart" : 0,
                    "mediaDuration" : 15961,
                    "scalar" : 1,
                    "metadata" : {
                      "WinSubProjectDisplayName" : "",
                      "clipSpeedAttribute" : false,
                      "default-scale0" : 0.25,
                      "default-scale1" : 0.25,
                      "default-translation0" : 880.0,
                      "default-translation1" : -480.0
                    }
                  },
                  {
                    "id" : 427,
                    "_type" : "UnifiedMedia",
                    "video" : 
                        {
                          "id" : 428,
                          "_type" : "VMFile",
                          "src" : 5,
                          "trackNumber" : 1,
                          "attributes" : {
                            "ident" : "Rec 02-06-19_004"
                          },
                          "parameters" : {
                            "translation0" : 703.999999999945,
                            "translation1" : -347.99999999997,
                            "scale0" : 0.8,
                            "scale1" : 0.8
                          },
                          "effects" : [

                          ],
                          "start" : 8657,
                          "duration" : 56,
                          "mediaStart" : 4505,
                          "mediaDuration" : 168,
                          "scalar" : "1/3",
                          "animationTracks" : {

                          }
                        },
                    "audio" : 
                        {
                          "id" : 429,
                          "_type" : "AMFile",
                          "src" : 5,
                          "trackNumber" : 2,
                          "attributes" : {
                            "ident" : "",
                            "sampleRate" : 44100,
                            "bitDepth" : 16,
                            "gain" : 1.0,
                            "mixToMono" : false
                          },
                            "channelNumber" : "0,1",
                          "effects" : [

                          ],
                          "start" : 8657,
                          "duration" : 56,
                          "mediaStart" : 4505,
                          "mediaDuration" : 168,
                          "scalar" : "1/3",
                          "animationTracks" : {

                          }
                        }
,
                    "start" : 8657,
                    "duration" : 56,
                    "mediaStart" : 0,
                    "mediaDuration" : 15961,
                    "scalar" : "1/3",
                    "metadata" : {
                      "WinSubProjectDisplayName" : "",
                      "clipSpeedAttribute" : true,
                      "default-scale0" : 0.25,
                      "default-scale1" : 0.25,
                      "default-translation0" : 880.0,
                      "default-translation1" : -480.0
                    }
                  },
                  {
                    "id" : 430,
                    "_type" : "UnifiedMedia",
                    "video" : 
                        {
                          "id" : 431,
                          "_type" : "VMFile",
                          "src" : 5,
                          "trackNumber" : 1,
                          "attributes" : {
                            "ident" : "Rec 02-06-19_004"
                          },
                          "parameters" : {
                            "translation0" : 703.999999999945,
                            "translation1" : -347.99999999997,
                            "scale0" : 0.8,
                            "scale1" : 0.8
                          },
                          "effects" : [

                          ],
                          "start" : 8713,
                          "duration" : 425,
                          "mediaStart" : 4673,
                          "mediaDuration" : 425,
                          "scalar" : 1,
                          "animationTracks" : {

                          }
                        },
                    "audio" : 
                        {
                          "id" : 432,
                          "_type" : "AMFile",
                          "src" : 5,
                          "trackNumber" : 2,
                          "attributes" : {
                            "ident" : "",
                            "sampleRate" : 44100,
                            "bitDepth" : 16,
                            "gain" : 1.0,
                            "mixToMono" : false
                          },
                            "channelNumber" : "0,1",
                          "effects" : [

                          ],
                          "start" : 8713,
                          "duration" : 425,
                          "mediaStart" : 4673,
                          "mediaDuration" : 425,
                          "scalar" : 1,
                          "animationTracks" : {

                          }
                        }
,
                    "start" : 8713,
                    "duration" : 425,
                    "mediaStart" : 0,
                    "mediaDuration" : 15961,
                    "scalar" : 1,
                    "metadata" : {
                      "WinSubProjectDisplayName" : "",
                      "clipSpeedAttribute" : false,
                      "default-scale0" : 0.25,
                      "default-scale1" : 0.25,
                      "default-translation0" : 880.0,
                      "default-translation1" : -480.0
                    }
                  },
                  {
                    "id" : 433,
                    "_type" : "UnifiedMedia",
                    "video" : 
                        {
                          "id" : 434,
                          "_type" : "VMFile",
                          "src" : 5,
                          "trackNumber" : 1,
                          "attributes" : {
                            "ident" : "Rec 02-06-19_004"
                          },
                          "parameters" : {
                            "translation0" : 703.999999999945,
                            "translation1" : -347.99999999997,
                            "scale0" : 0.8,
                            "scale1" : 0.8
                          },
                          "effects" : [

                          ],
                          "start" : 9138,
                          "duration" : 59,
                          "mediaStart" : 5098,
                          "mediaDuration" : 178,
                          "scalar" : "59/178",
                          "animationTracks" : {

                          }
                        },
                    "audio" : 
                        {
                          "id" : 435,
                          "_type" : "AMFile",
                          "src" : 5,
                          "trackNumber" : 2,
                          "attributes" : {
                            "ident" : "",
                            "sampleRate" : 44100,
                            "bitDepth" : 16,
                            "gain" : 1.0,
                            "mixToMono" : false
                          },
                            "channelNumber" : "0,1",
                          "effects" : [

                          ],
                          "start" : 9138,
                          "duration" : 59,
                          "mediaStart" : 5098,
                          "mediaDuration" : 178,
                          "scalar" : "59/178",
                          "animationTracks" : {

                          }
                        }
,
                    "start" : 9138,
                    "duration" : 59,
                    "mediaStart" : 0,
                    "mediaDuration" : 15961,
                    "scalar" : "59/178",
                    "metadata" : {
                      "WinSubProjectDisplayName" : "",
                      "clipSpeedAttribute" : true,
                      "default-scale0" : 0.25,
                      "default-scale1" : 0.25,
                      "default-translation0" : 880.0,
                      "default-translation1" : -480.0
                    }
                  },
                  {
                    "id" : 436,
                    "_type" : "StitchedMedia",
                    "minMediaStart" : 0,
                    "attributes" : {
                      "ident" : "Rec 02-06-19_004",
                      "gain" : 1.0,
                      "mixToMono" : false
                    },
                    "parameters" : {
                      "translation0" : 703.999999999945,
                      "translation1" : -347.99999999997,
                      "scale0" : 0.8,
                      "scale1" : 0.8,
                      "volume" : 1.0,
                      "cursorOpacity" : 1.0,
                      "cursorScale" : 1.0
                    },
                    "medias" : [
                        {
                          "id" : 437,
                          "_type" : "UnifiedMedia",
                          "video" : 
                              {
                                "id" : 438,
                                "_type" : "VMFile",
                                "src" : 5,
                                "trackNumber" : 1,
                                "attributes" : {
                                  "ident" : "Rec 02-06-19_004"
                                },
                                "effects" : [

                                ],
                                "start" : 0,
                                "duration" : 5938,
                                "mediaStart" : 0,
                                "mediaDuration" : 5938,
                                "scalar" : 1,
                                "animationTracks" : {

                                }
                              },
                          "audio" : 
                              {
                                "id" : 439,
                                "_type" : "AMFile",
                                "src" : 5,
                                "trackNumber" : 2,
                                "attributes" : {
                                  "ident" : "",
                                  "sampleRate" : 44100,
                                  "bitDepth" : 16,
                                  "gain" : 1.0,
                                  "mixToMono" : false
                                },
                                  "channelNumber" : "0,1",
                                "effects" : [

                                ],
                                "start" : 0,
                                "duration" : 5938,
                                "mediaStart" : 0,
                                "mediaDuration" : 5938,
                                "scalar" : 1,
                                "animationTracks" : {

                                }
                              }
,
                          "start" : 0,
                          "duration" : 5938,
                          "mediaStart" : 0,
                          "mediaDuration" : 15961,
                          "scalar" : 1,
                          "metadata" : {
                            "WinSubProjectDisplayName" : "",
                            "clipSpeedAttribute" : false,
                            "default-scale0" : 0.25,
                            "default-scale1" : 0.25,
                            "default-translation0" : 880.0,
                            "default-translation1" : -480.0
                          }
                        },
                        {
                          "id" : 440,
                          "_type" : "UnifiedMedia",
                          "video" : 
                              {
                                "id" : 441,
                                "_type" : "VMFile",
                                "src" : 5,
                                "trackNumber" : 1,
                                "attributes" : {
                                  "ident" : "Rec 02-06-19_004"
                                },
                                "effects" : [

                                ],
                                "start" : 5938,
                                "duration" : 9902,
                                "mediaStart" : 6059,
                                "mediaDuration" : 9902,
                                "scalar" : 1,
                                "animationTracks" : {

                                }
                              },
                          "audio" : 
                              {
                                "id" : 442,
                                "_type" : "AMFile",
                                "src" : 5,
                                "trackNumber" : 2,
                                "attributes" : {
                                  "ident" : "",
                                  "sampleRate" : 44100,
                                  "bitDepth" : 16,
                                  "gain" : 1.0,
                                  "mixToMono" : false
                                },
                                  "channelNumber" : "0,1",
                                "effects" : [

                                ],
                                "start" : 5938,
                                "duration" : 9902,
                                "mediaStart" : 6059,
                                "mediaDuration" : 9902,
                                "scalar" : 1,
                                "animationTracks" : {

                                }
                              }
,
                          "start" : 5938,
                          "duration" : 9902,
                          "mediaStart" : 0,
                          "mediaDuration" : 15961,
                          "scalar" : 1,
                          "metadata" : {
                            "WinSubProjectDisplayName" : "",
                            "clipSpeedAttribute" : false,
                            "default-scale0" : 0.25,
                            "default-scale1" : 0.25,
                            "default-translation0" : 880.0,
                            "default-translation1" : -480.0
                          }
                        }
                    ],
                    "effects" : [

                    ],
                    "start" : 9197,
                    "duration" : 1334,
                    "mediaStart" : 5276,
                    "mediaDuration" : 1334,
                    "scalar" : 1,
                    "metadata" : {
                      "WinSubProjectDisplayName" : "",
                      "clipSpeedAttribute" : false
                    },
                    "animationTracks" : {

                    }
                  },
                  {
                    "id" : 443,
                    "_type" : "StitchedMedia",
                    "minMediaStart" : 0,
                    "attributes" : {
                      "ident" : "Rec 02-06-19_004",
                      "gain" : 1.0,
                      "mixToMono" : false
                    },
                    "parameters" : {
                      "translation0" : 703.999999999945,
                      "translation1" : -347.99999999997,
                      "scale0" : 0.8,
                      "scale1" : 0.8,
                      "volume" : 1.0,
                      "cursorOpacity" : 1.0,
                      "cursorScale" : 1.0
                    },
                    "medias" : [
                        {
                          "id" : 444,
                          "_type" : "UnifiedMedia",
                          "video" : 
                              {
                                "id" : 445,
                                "_type" : "VMFile",
                                "src" : 5,
                                "trackNumber" : 1,
                                "attributes" : {
                                  "ident" : "Rec 02-06-19_004"
                                },
                                "effects" : [

                                ],
                                "start" : 0,
                                "duration" : 5938,
                                "mediaStart" : 0,
                                "mediaDuration" : 5938,
                                "scalar" : 1,
                                "animationTracks" : {

                                }
                              },
                          "audio" : 
                              {
                                "id" : 446,
                                "_type" : "AMFile",
                                "src" : 5,
                                "trackNumber" : 2,
                                "attributes" : {
                                  "ident" : "",
                                  "sampleRate" : 44100,
                                  "bitDepth" : 16,
                                  "gain" : 1.0,
                                  "mixToMono" : false
                                },
                                  "channelNumber" : "0,1",
                                "effects" : [

                                ],
                                "start" : 0,
                                "duration" : 5938,
                                "mediaStart" : 0,
                                "mediaDuration" : 5938,
                                "scalar" : 1,
                                "animationTracks" : {

                                }
                              }
,
                          "start" : 0,
                          "duration" : 5938,
                          "mediaStart" : 0,
                          "mediaDuration" : 15961,
                          "scalar" : 1,
                          "metadata" : {
                            "WinSubProjectDisplayName" : "",
                            "clipSpeedAttribute" : false,
                            "default-scale0" : 0.25,
                            "default-scale1" : 0.25,
                            "default-translation0" : 880.0,
                            "default-translation1" : -480.0
                          }
                        },
                        {
                          "id" : 447,
                          "_type" : "UnifiedMedia",
                          "video" : 
                              {
                                "id" : 448,
                                "_type" : "VMFile",
                                "src" : 5,
                                "trackNumber" : 1,
                                "attributes" : {
                                  "ident" : "Rec 02-06-19_004"
                                },
                                "effects" : [

                                ],
                                "start" : 5938,
                                "duration" : 9902,
                                "mediaStart" : 6059,
                                "mediaDuration" : 9902,
                                "scalar" : 1,
                                "animationTracks" : {

                                }
                              },
                          "audio" : 
                              {
                                "id" : 449,
                                "_type" : "AMFile",
                                "src" : 5,
                                "trackNumber" : 2,
                                "attributes" : {
                                  "ident" : "",
                                  "sampleRate" : 44100,
                                  "bitDepth" : 16,
                                  "gain" : 1.0,
                                  "mixToMono" : false
                                },
                                  "channelNumber" : "0,1",
                                "effects" : [

                                ],
                                "start" : 5938,
                                "duration" : 9902,
                                "mediaStart" : 6059,
                                "mediaDuration" : 9902,
                                "scalar" : 1,
                                "animationTracks" : {

                                }
                              }
,
                          "start" : 5938,
                          "duration" : 9902,
                          "mediaStart" : 0,
                          "mediaDuration" : 15961,
                          "scalar" : 1,
                          "metadata" : {
                            "WinSubProjectDisplayName" : "",
                            "clipSpeedAttribute" : false,
                            "default-scale0" : 0.25,
                            "default-scale1" : 0.25,
                            "default-translation0" : 880.0,
                            "default-translation1" : -480.0
                          }
                        }
                    ],
                    "effects" : [

                    ],
                    "start" : 10531,
                    "duration" : 258,
                    "mediaStart" : 6610,
                    "mediaDuration" : 1032,
                    "scalar" : "1/4",
                    "metadata" : {
                      "WinSubProjectDisplayName" : "",
                      "clipSpeedAttribute" : true
                    },
                    "animationTracks" : {

                    }
                  },
                  {
                    "id" : 450,
                    "_type" : "StitchedMedia",
                    "minMediaStart" : 0,
                    "attributes" : {
                      "ident" : "Rec 02-06-19_004",
                      "gain" : 1.0,
                      "mixToMono" : false
                    },
                    "parameters" : {
                      "translation0" : 703.9999999999,
                      "translation1" : -348.000000000012,
                      "scale0" : 0.8,
                      "scale1" : 0.8,
                      "volume" : 1.0,
                      "cursorOpacity" : 1.0,
                      "cursorScale" : 1.0
                    },
                    "medias" : [
                        {
                          "id" : 451,
                          "_type" : "UnifiedMedia",
                          "video" : 
                              {
                                "id" : 452,
                                "_type" : "VMFile",
                                "src" : 5,
                                "trackNumber" : 1,
                                "attributes" : {
                                  "ident" : "Rec 02-06-19_004"
                                },
                                "effects" : [

                                ],
                                "start" : 0,
                                "duration" : 5938,
                                "mediaStart" : 0,
                                "mediaDuration" : 5938,
                                "scalar" : 1,
                                "animationTracks" : {

                                }
                              },
                          "audio" : 
                              {
                                "id" : 453,
                                "_type" : "AMFile",
                                "src" : 5,
                                "trackNumber" : 2,
                                "attributes" : {
                                  "ident" : "",
                                  "sampleRate" : 44100,
                                  "bitDepth" : 16,
                                  "gain" : 1.0,
                                  "mixToMono" : false
                                },
                                  "channelNumber" : "0,1",
                                "effects" : [

                                ],
                                "start" : 0,
                                "duration" : 5938,
                                "mediaStart" : 0,
                                "mediaDuration" : 5938,
                                "scalar" : 1,
                                "animationTracks" : {

                                }
                              }
,
                          "start" : 0,
                          "duration" : 5938,
                          "mediaStart" : 0,
                          "mediaDuration" : 15961,
                          "scalar" : 1,
                          "metadata" : {
                            "WinSubProjectDisplayName" : "",
                            "clipSpeedAttribute" : false,
                            "default-scale0" : 0.25,
                            "default-scale1" : 0.25,
                            "default-translation0" : 880.0,
                            "default-translation1" : -480.0
                          }
                        },
                        {
                          "id" : 454,
                          "_type" : "UnifiedMedia",
                          "video" : 
                              {
                                "id" : 455,
                                "_type" : "VMFile",
                                "src" : 5,
                                "trackNumber" : 1,
                                "attributes" : {
                                  "ident" : "Rec 02-06-19_004"
                                },
                                "effects" : [

                                ],
                                "start" : 5938,
                                "duration" : 2276,
                                "mediaStart" : 6059,
                                "mediaDuration" : 2276,
                                "scalar" : 1,
                                "animationTracks" : {

                                }
                              },
                          "audio" : 
                              {
                                "id" : 456,
                                "_type" : "AMFile",
                                "src" : 5,
                                "trackNumber" : 2,
                                "attributes" : {
                                  "ident" : "",
                                  "sampleRate" : 44100,
                                  "bitDepth" : 16,
                                  "gain" : 1.0,
                                  "mixToMono" : false
                                },
                                  "channelNumber" : "0,1",
                                "effects" : [

                                ],
                                "start" : 5938,
                                "duration" : 2276,
                                "mediaStart" : 6059,
                                "mediaDuration" : 2276,
                                "scalar" : 1,
                                "animationTracks" : {

                                }
                              }
,
                          "start" : 5938,
                          "duration" : 2276,
                          "mediaStart" : 0,
                          "mediaDuration" : 15961,
                          "scalar" : 1,
                          "metadata" : {
                            "WinSubProjectDisplayName" : "",
                            "clipSpeedAttribute" : false,
                            "default-scale0" : 0.25,
                            "default-scale1" : 0.25,
                            "default-translation0" : 880.0,
                            "default-translation1" : -480.0
                          }
                        },
                        {
                          "id" : 457,
                          "_type" : "UnifiedMedia",
                          "video" : 
                              {
                                "id" : 458,
                                "_type" : "VMFile",
                                "src" : 5,
                                "trackNumber" : 1,
                                "attributes" : {
                                  "ident" : "Rec 02-06-19_004"
                                },
                                "effects" : [

                                ],
                                "start" : 8214,
                                "duration" : 1367,
                                "mediaStart" : 8589,
                                "mediaDuration" : 1367,
                                "scalar" : 1,
                                "animationTracks" : {

                                }
                              },
                          "audio" : 
                              {
                                "id" : 459,
                                "_type" : "AMFile",
                                "src" : 5,
                                "trackNumber" : 2,
                                "attributes" : {
                                  "ident" : "",
                                  "sampleRate" : 44100,
                                  "bitDepth" : 16,
                                  "gain" : 1.0,
                                  "mixToMono" : false
                                },
                                  "channelNumber" : "0,1",
                                "effects" : [

                                ],
                                "start" : 8214,
                                "duration" : 1367,
                                "mediaStart" : 8589,
                                "mediaDuration" : 1367,
                                "scalar" : 1,
                                "animationTracks" : {

                                }
                              }
,
                          "start" : 8214,
                          "duration" : 1367,
                          "mediaStart" : 0,
                          "mediaDuration" : 15961,
                          "scalar" : 1,
                          "metadata" : {
                            "WinSubProjectDisplayName" : "",
                            "clipSpeedAttribute" : false,
                            "default-scale0" : 0.25,
                            "default-scale1" : 0.25,
                            "default-translation0" : 880.0,
                            "default-translation1" : -480.0
                          }
                        },
                        {
                          "id" : 460,
                          "_type" : "UnifiedMedia",
                          "video" : 
                              {
                                "id" : 461,
                                "_type" : "VMFile",
                                "src" : 5,
                                "trackNumber" : 1,
                                "attributes" : {
                                  "ident" : "Rec 02-06-19_004"
                                },
                                "effects" : [

                                ],
                                "start" : 9581,
                                "duration" : 468,
                                "mediaStart" : 10199,
                                "mediaDuration" : 468,
                                "scalar" : 1,
                                "animationTracks" : {

                                }
                              },
                          "audio" : 
                              {
                                "id" : 462,
                                "_type" : "AMFile",
                                "src" : 5,
                                "trackNumber" : 2,
                                "attributes" : {
                                  "ident" : "",
                                  "sampleRate" : 44100,
                                  "bitDepth" : 16,
                                  "gain" : 1.0,
                                  "mixToMono" : false
                                },
                                  "channelNumber" : "0,1",
                                "effects" : [

                                ],
                                "start" : 9581,
                                "duration" : 468,
                                "mediaStart" : 10199,
                                "mediaDuration" : 468,
                                "scalar" : 1,
                                "animationTracks" : {

                                }
                              }
,
                          "start" : 9581,
                          "duration" : 468,
                          "mediaStart" : 0,
                          "mediaDuration" : 15961,
                          "scalar" : 1,
                          "metadata" : {
                            "WinSubProjectDisplayName" : "",
                            "clipSpeedAttribute" : false,
                            "default-scale0" : 0.25,
                            "default-scale1" : 0.25,
                            "default-translation0" : 880.0,
                            "default-translation1" : -480.0
                          }
                        },
                        {
                          "id" : 463,
                          "_type" : "UnifiedMedia",
                          "video" : 
                              {
                                "id" : 464,
                                "_type" : "VMFile",
                                "src" : 5,
                                "trackNumber" : 1,
                                "attributes" : {
                                  "ident" : "Rec 02-06-19_004"
                                },
                                "effects" : [

                                ],
                                "start" : 10049,
                                "duration" : 4781,
                                "mediaStart" : 11180,
                                "mediaDuration" : 4781,
                                "scalar" : 1,
                                "animationTracks" : {

                                }
                              },
                          "audio" : 
                              {
                                "id" : 465,
                                "_type" : "AMFile",
                                "src" : 5,
                                "trackNumber" : 2,
                                "attributes" : {
                                  "ident" : "",
                                  "sampleRate" : 44100,
                                  "bitDepth" : 16,
                                  "gain" : 1.0,
                                  "mixToMono" : false
                                },
                                  "channelNumber" : "0,1",
                                "effects" : [

                                ],
                                "start" : 10049,
                                "duration" : 4781,
                                "mediaStart" : 11180,
                                "mediaDuration" : 4781,
                                "scalar" : 1,
                                "animationTracks" : {

                                }
                              }
,
                          "start" : 10049,
                          "duration" : 4781,
                          "mediaStart" : 0,
                          "mediaDuration" : 15961,
                          "scalar" : 1,
                          "metadata" : {
                            "WinSubProjectDisplayName" : "",
                            "clipSpeedAttribute" : false,
                            "default-scale0" : 0.25,
                            "default-scale1" : 0.25,
                            "default-translation0" : 880.0,
                            "default-translation1" : -480.0
                          }
                        }
                    ],
                    "effects" : [

                    ],
                    "start" : 10789,
                    "duration" : 2390,
                    "mediaStart" : 7642,
                    "mediaDuration" : 2390,
                    "scalar" : 1,
                    "metadata" : {
                      "WinSubProjectDisplayName" : "",
                      "clipSpeedAttribute" : false
                    },
                    "animationTracks" : {

                    }
                  },
                  {
                    "id" : 466,
                    "_type" : "UnifiedMedia",
                    "video" : 
                        {
                          "id" : 467,
                          "_type" : "VMFile",
                          "src" : 6,
                          "trackNumber" : 1,
                          "attributes" : {
                            "ident" : "Rec 02-07-19"
                          },
                          "parameters" : {
                            "translation0" : 703.999999999818,
                            "translation1" : -348.000000000028,
                            "scale0" : 0.8,
                            "scale1" : 0.8
                          },
                          "effects" : [

                          ],
                          "start" : 13179,
                          "duration" : 827,
                          "mediaStart" : 437,
                          "mediaDuration" : 827,
                          "scalar" : 1,
                          "animationTracks" : {

                          }
                        },
                    "audio" : 
                        {
                          "id" : 468,
                          "_type" : "AMFile",
                          "src" : 6,
                          "trackNumber" : 2,
                          "attributes" : {
                            "ident" : "",
                            "sampleRate" : 44100,
                            "bitDepth" : 16,
                            "gain" : 1.0,
                            "mixToMono" : false
                          },
                            "channelNumber" : "0,1",
                          "effects" : [

                          ],
                          "start" : 13179,
                          "duration" : 827,
                          "mediaStart" : 437,
                          "mediaDuration" : 827,
                          "scalar" : 1,
                          "animationTracks" : {

                          }
                        }
,
                    "start" : 13179,
                    "duration" : 827,
                    "mediaStart" : 0,
                    "mediaDuration" : 1366,
                    "scalar" : 1,
                    "metadata" : {
                      "WinSubProjectDisplayName" : "",
                      "clipSpeedAttribute" : false,
                      "default-scale0" : 0.25,
                      "default-scale1" : 0.25,
                      "default-translation0" : 880.0,
                      "default-translation1" : -480.0
                    }
                  },
                  {
                    "id" : 469,
                    "_type" : "StitchedMedia",
                    "minMediaStart" : 0,
                    "attributes" : {
                      "ident" : "Rec 02-06-19_004",
                      "gain" : 1.0,
                      "mixToMono" : false
                    },
                    "parameters" : {
                      "translation0" : 703.9999999999,
                      "translation1" : -348.000000000012,
                      "scale0" : 0.8,
                      "scale1" : 0.8,
                      "volume" : 1.0,
                      "cursorOpacity" : 1.0,
                      "cursorScale" : 1.0
                    },
                    "medias" : [
                        {
                          "id" : 470,
                          "_type" : "UnifiedMedia",
                          "video" : 
                              {
                                "id" : 471,
                                "_type" : "VMFile",
                                "src" : 5,
                                "trackNumber" : 1,
                                "attributes" : {
                                  "ident" : "Rec 02-06-19_004"
                                },
                                "effects" : [

                                ],
                                "start" : 0,
                                "duration" : 5938,
                                "mediaStart" : 0,
                                "mediaDuration" : 5938,
                                "scalar" : 1,
                                "animationTracks" : {

                                }
                              },
                          "audio" : 
                              {
                                "id" : 472,
                                "_type" : "AMFile",
                                "src" : 5,
                                "trackNumber" : 2,
                                "attributes" : {
                                  "ident" : "",
                                  "sampleRate" : 44100,
                                  "bitDepth" : 16,
                                  "gain" : 1.0,
                                  "mixToMono" : false
                                },
                                  "channelNumber" : "0,1",
                                "effects" : [

                                ],
                                "start" : 0,
                                "duration" : 5938,
                                "mediaStart" : 0,
                                "mediaDuration" : 5938,
                                "scalar" : 1,
                                "animationTracks" : {

                                }
                              }
,
                          "start" : 0,
                          "duration" : 5938,
                          "mediaStart" : 0,
                          "mediaDuration" : 15961,
                          "scalar" : 1,
                          "metadata" : {
                            "WinSubProjectDisplayName" : "",
                            "clipSpeedAttribute" : false,
                            "default-scale0" : 0.25,
                            "default-scale1" : 0.25,
                            "default-translation0" : 880.0,
                            "default-translation1" : -480.0
                          }
                        },
                        {
                          "id" : 473,
                          "_type" : "UnifiedMedia",
                          "video" : 
                              {
                                "id" : 474,
                                "_type" : "VMFile",
                                "src" : 5,
                                "trackNumber" : 1,
                                "attributes" : {
                                  "ident" : "Rec 02-06-19_004"
                                },
                                "effects" : [

                                ],
                                "start" : 5938,
                                "duration" : 2276,
                                "mediaStart" : 6059,
                                "mediaDuration" : 2276,
                                "scalar" : 1,
                                "animationTracks" : {

                                }
                              },
                          "audio" : 
                              {
                                "id" : 475,
                                "_type" : "AMFile",
                                "src" : 5,
                                "trackNumber" : 2,
                                "attributes" : {
                                  "ident" : "",
                                  "sampleRate" : 44100,
                                  "bitDepth" : 16,
                                  "gain" : 1.0,
                                  "mixToMono" : false
                                },
                                  "channelNumber" : "0,1",
                                "effects" : [

                                ],
                                "start" : 5938,
                                "duration" : 2276,
                                "mediaStart" : 6059,
                                "mediaDuration" : 2276,
                                "scalar" : 1,
                                "animationTracks" : {

                                }
                              }
,
                          "start" : 5938,
                          "duration" : 2276,
                          "mediaStart" : 0,
                          "mediaDuration" : 15961,
                          "scalar" : 1,
                          "metadata" : {
                            "WinSubProjectDisplayName" : "",
                            "clipSpeedAttribute" : false,
                            "default-scale0" : 0.25,
                            "default-scale1" : 0.25,
                            "default-translation0" : 880.0,
                            "default-translation1" : -480.0
                          }
                        },
                        {
                          "id" : 476,
                          "_type" : "UnifiedMedia",
                          "video" : 
                              {
                                "id" : 477,
                                "_type" : "VMFile",
                                "src" : 5,
                                "trackNumber" : 1,
                                "attributes" : {
                                  "ident" : "Rec 02-06-19_004"
                                },
                                "effects" : [

                                ],
                                "start" : 8214,
                                "duration" : 1367,
                                "mediaStart" : 8589,
                                "mediaDuration" : 1367,
                                "scalar" : 1,
                                "animationTracks" : {

                                }
                              },
                          "audio" : 
                              {
                                "id" : 478,
                                "_type" : "AMFile",
                                "src" : 5,
                                "trackNumber" : 2,
                                "attributes" : {
                                  "ident" : "",
                                  "sampleRate" : 44100,
                                  "bitDepth" : 16,
                                  "gain" : 1.0,
                                  "mixToMono" : false
                                },
                                  "channelNumber" : "0,1",
                                "effects" : [

                                ],
                                "start" : 8214,
                                "duration" : 1367,
                                "mediaStart" : 8589,
                                "mediaDuration" : 1367,
                                "scalar" : 1,
                                "animationTracks" : {

                                }
                              }
,
                          "start" : 8214,
                          "duration" : 1367,
                          "mediaStart" : 0,
                          "mediaDuration" : 15961,
                          "scalar" : 1,
                          "metadata" : {
                            "WinSubProjectDisplayName" : "",
                            "clipSpeedAttribute" : false,
                            "default-scale0" : 0.25,
                            "default-scale1" : 0.25,
                            "default-translation0" : 880.0,
                            "default-translation1" : -480.0
                          }
                        },
                        {
                          "id" : 479,
                          "_type" : "UnifiedMedia",
                          "video" : 
                              {
                                "id" : 480,
                                "_type" : "VMFile",
                                "src" : 5,
                                "trackNumber" : 1,
                                "attributes" : {
                                  "ident" : "Rec 02-06-19_004"
                                },
                                "effects" : [

                                ],
                                "start" : 9581,
                                "duration" : 468,
                                "mediaStart" : 10199,
                                "mediaDuration" : 468,
                                "scalar" : 1,
                                "animationTracks" : {

                                }
                              },
                          "audio" : 
                              {
                                "id" : 481,
                                "_type" : "AMFile",
                                "src" : 5,
                                "trackNumber" : 2,
                                "attributes" : {
                                  "ident" : "",
                                  "sampleRate" : 44100,
                                  "bitDepth" : 16,
                                  "gain" : 1.0,
                                  "mixToMono" : false
                                },
                                  "channelNumber" : "0,1",
                                "effects" : [

                                ],
                                "start" : 9581,
                                "duration" : 468,
                                "mediaStart" : 10199,
                                "mediaDuration" : 468,
                                "scalar" : 1,
                                "animationTracks" : {

                                }
                              }
,
                          "start" : 9581,
                          "duration" : 468,
                          "mediaStart" : 0,
                          "mediaDuration" : 15961,
                          "scalar" : 1,
                          "metadata" : {
                            "WinSubProjectDisplayName" : "",
                            "clipSpeedAttribute" : false,
                            "default-scale0" : 0.25,
                            "default-scale1" : 0.25,
                            "default-translation0" : 880.0,
                            "default-translation1" : -480.0
                          }
                        },
                        {
                          "id" : 482,
                          "_type" : "UnifiedMedia",
                          "video" : 
                              {
                                "id" : 483,
                                "_type" : "VMFile",
                                "src" : 5,
                                "trackNumber" : 1,
                                "attributes" : {
                                  "ident" : "Rec 02-06-19_004"
                                },
                                "effects" : [

                                ],
                                "start" : 10049,
                                "duration" : 4781,
                                "mediaStart" : 11180,
                                "mediaDuration" : 4781,
                                "scalar" : 1,
                                "animationTracks" : {

                                }
                              },
                          "audio" : 
                              {
                                "id" : 484,
                                "_type" : "AMFile",
                                "src" : 5,
                                "trackNumber" : 2,
                                "attributes" : {
                                  "ident" : "",
                                  "sampleRate" : 44100,
                                  "bitDepth" : 16,
                                  "gain" : 1.0,
                                  "mixToMono" : false
                                },
                                  "channelNumber" : "0,1",
                                "effects" : [

                                ],
                                "start" : 10049,
                                "duration" : 4781,
                                "mediaStart" : 11180,
                                "mediaDuration" : 4781,
                                "scalar" : 1,
                                "animationTracks" : {

                                }
                              }
,
                          "start" : 10049,
                          "duration" : 4781,
                          "mediaStart" : 0,
                          "mediaDuration" : 15961,
                          "scalar" : 1,
                          "metadata" : {
                            "WinSubProjectDisplayName" : "",
                            "clipSpeedAttribute" : false,
                            "default-scale0" : 0.25,
                            "default-scale1" : 0.25,
                            "default-translation0" : 880.0,
                            "default-translation1" : -480.0
                          }
                        }
                    ],
                    "effects" : [

                    ],
                    "start" : 14006,
                    "duration" : 296,
                    "mediaStart" : 14407,
                    "mediaDuration" : 296,
                    "scalar" : 1,
                    "metadata" : {
                      "WinSubProjectDisplayName" : "",
                      "clipSpeedAttribute" : false
                    },
                    "animationTracks" : {

                    }
                  },
                  {
                    "id" : 485,
                    "_type" : "StitchedMedia",
                    "minMediaStart" : 0,
                    "attributes" : {
                      "ident" : "Rec 02-07-19_001",
                      "gain" : 1.0,
                      "mixToMono" : false
                    },
                    "parameters" : {
                      "translation0" : 703.999999999878,
                      "translation1" : -347.999999999956,
                      "scale0" : 0.8,
                      "scale1" : 0.8,
                      "volume" : 1.0,
                      "cursorOpacity" : 1.0,
                      "cursorScale" : 1.0
                    },
                    "medias" : [
                        {
                          "id" : 486,
                          "_type" : "UnifiedMedia",
                          "video" : 
                              {
                                "id" : 487,
                                "_type" : "VMFile",
                                "src" : 7,
                                "trackNumber" : 1,
                                "attributes" : {
                                  "ident" : "Rec 02-07-19_001"
                                },
                                "effects" : [

                                ],
                                "start" : 0,
                                "duration" : 496,
                                "mediaStart" : 0,
                                "mediaDuration" : 496,
                                "scalar" : 1,
                                "animationTracks" : {

                                }
                              },
                          "audio" : 
                              {
                                "id" : 488,
                                "_type" : "AMFile",
                                "src" : 7,
                                "trackNumber" : 2,
                                "attributes" : {
                                  "ident" : "",
                                  "sampleRate" : 44100,
                                  "bitDepth" : 16,
                                  "gain" : 1.0,
                                  "mixToMono" : false
                                },
                                  "channelNumber" : "0,1",
                                "effects" : [

                                ],
                                "start" : 0,
                                "duration" : 496,
                                "mediaStart" : 0,
                                "mediaDuration" : 496,
                                "scalar" : 1,
                                "animationTracks" : {

                                }
                              }
,
                          "start" : 0,
                          "duration" : 496,
                          "mediaStart" : 0,
                          "mediaDuration" : 26386,
                          "scalar" : 1,
                          "metadata" : {
                            "WinSubProjectDisplayName" : "",
                            "clipSpeedAttribute" : false,
                            "default-scale0" : 0.25,
                            "default-scale1" : 0.25,
                            "default-translation0" : 880.0,
                            "default-translation1" : -480.0
                          }
                        },
                        {
                          "id" : 489,
                          "_type" : "UnifiedMedia",
                          "video" : 
                              {
                                "id" : 490,
                                "_type" : "VMFile",
                                "src" : 7,
                                "trackNumber" : 1,
                                "attributes" : {
                                  "ident" : "Rec 02-07-19_001"
                                },
                                "effects" : [

                                ],
                                "start" : 496,
                                "duration" : 190,
                                "mediaStart" : 715,
                                "mediaDuration" : 190,
                                "scalar" : 1,
                                "animationTracks" : {

                                }
                              },
                          "audio" : 
                              {
                                "id" : 491,
                                "_type" : "AMFile",
                                "src" : 7,
                                "trackNumber" : 2,
                                "attributes" : {
                                  "ident" : "",
                                  "sampleRate" : 44100,
                                  "bitDepth" : 16,
                                  "gain" : 1.0,
                                  "mixToMono" : false
                                },
                                  "channelNumber" : "0,1",
                                "effects" : [

                                ],
                                "start" : 496,
                                "duration" : 190,
                                "mediaStart" : 715,
                                "mediaDuration" : 190,
                                "scalar" : 1,
                                "animationTracks" : {

                                }
                              }
,
                          "start" : 496,
                          "duration" : 190,
                          "mediaStart" : 0,
                          "mediaDuration" : 26386,
                          "scalar" : 1,
                          "metadata" : {
                            "WinSubProjectDisplayName" : "",
                            "clipSpeedAttribute" : false,
                            "default-scale0" : 0.25,
                            "default-scale1" : 0.25,
                            "default-translation0" : 880.0,
                            "default-translation1" : -480.0
                          }
                        },
                        {
                          "id" : 492,
                          "_type" : "UnifiedMedia",
                          "video" : 
                              {
                                "id" : 493,
                                "_type" : "VMFile",
                                "src" : 7,
                                "trackNumber" : 1,
                                "attributes" : {
                                  "ident" : "Rec 02-07-19_001"
                                },
                                "effects" : [

                                ],
                                "start" : 686,
                                "duration" : 239,
                                "mediaStart" : 1444,
                                "mediaDuration" : 239,
                                "scalar" : 1,
                                "animationTracks" : {

                                }
                              },
                          "audio" : 
                              {
                                "id" : 494,
                                "_type" : "AMFile",
                                "src" : 7,
                                "trackNumber" : 2,
                                "attributes" : {
                                  "ident" : "",
                                  "sampleRate" : 44100,
                                  "bitDepth" : 16,
                                  "gain" : 1.0,
                                  "mixToMono" : false
                                },
                                  "channelNumber" : "0,1",
                                "effects" : [

                                ],
                                "start" : 686,
                                "duration" : 239,
                                "mediaStart" : 1444,
                                "mediaDuration" : 239,
                                "scalar" : 1,
                                "animationTracks" : {

                                }
                              }
,
                          "start" : 686,
                          "duration" : 239,
                          "mediaStart" : 0,
                          "mediaDuration" : 26386,
                          "scalar" : 1,
                          "metadata" : {
                            "WinSubProjectDisplayName" : "",
                            "clipSpeedAttribute" : false,
                            "default-scale0" : 0.25,
                            "default-scale1" : 0.25,
                            "default-translation0" : 880.0,
                            "default-translation1" : -480.0
                          }
                        },
                        {
                          "id" : 495,
                          "_type" : "UnifiedMedia",
                          "video" : 
                              {
                                "id" : 496,
                                "_type" : "VMFile",
                                "src" : 7,
                                "trackNumber" : 1,
                                "attributes" : {
                                  "ident" : "Rec 02-07-19_001"
                                },
                                "effects" : [

                                ],
                                "start" : 925,
                                "duration" : 128,
                                "mediaStart" : 1750,
                                "mediaDuration" : 128,
                                "scalar" : 1,
                                "animationTracks" : {

                                }
                              },
                          "audio" : 
                              {
                                "id" : 497,
                                "_type" : "AMFile",
                                "src" : 7,
                                "trackNumber" : 2,
                                "attributes" : {
                                  "ident" : "",
                                  "sampleRate" : 44100,
                                  "bitDepth" : 16,
                                  "gain" : 1.0,
                                  "mixToMono" : false
                                },
                                  "channelNumber" : "0,1",
                                "effects" : [

                                ],
                                "start" : 925,
                                "duration" : 128,
                                "mediaStart" : 1750,
                                "mediaDuration" : 128,
                                "scalar" : 1,
                                "animationTracks" : {

                                }
                              }
,
                          "start" : 925,
                          "duration" : 128,
                          "mediaStart" : 0,
                          "mediaDuration" : 26386,
                          "scalar" : 1,
                          "metadata" : {
                            "WinSubProjectDisplayName" : "",
                            "clipSpeedAttribute" : false,
                            "default-scale0" : 0.25,
                            "default-scale1" : 0.25,
                            "default-translation0" : 880.0,
                            "default-translation1" : -480.0
                          }
                        },
                        {
                          "id" : 498,
                          "_type" : "UnifiedMedia",
                          "video" : 
                              {
                                "id" : 499,
                                "_type" : "VMFile",
                                "src" : 7,
                                "trackNumber" : 1,
                                "attributes" : {
                                  "ident" : "Rec 02-07-19_001"
                                },
                                "effects" : [

                                ],
                                "start" : 1053,
                                "duration" : 298,
                                "mediaStart" : 1939,
                                "mediaDuration" : 298,
                                "scalar" : 1,
                                "animationTracks" : {

                                }
                              },
                          "audio" : 
                              {
                                "id" : 500,
                                "_type" : "AMFile",
                                "src" : 7,
                                "trackNumber" : 2,
                                "attributes" : {
                                  "ident" : "",
                                  "sampleRate" : 44100,
                                  "bitDepth" : 16,
                                  "gain" : 1.0,
                                  "mixToMono" : false
                                },
                                  "channelNumber" : "0,1",
                                "effects" : [

                                ],
                                "start" : 1053,
                                "duration" : 298,
                                "mediaStart" : 1939,
                                "mediaDuration" : 298,
                                "scalar" : 1,
                                "animationTracks" : {

                                }
                              }
,
                          "start" : 1053,
                          "duration" : 298,
                          "mediaStart" : 0,
                          "mediaDuration" : 26386,
                          "scalar" : 1,
                          "metadata" : {
                            "WinSubProjectDisplayName" : "",
                            "clipSpeedAttribute" : false,
                            "default-scale0" : 0.25,
                            "default-scale1" : 0.25,
                            "default-translation0" : 880.0,
                            "default-translation1" : -480.0
                          }
                        },
                        {
                          "id" : 501,
                          "_type" : "UnifiedMedia",
                          "video" : 
                              {
                                "id" : 502,
                                "_type" : "VMFile",
                                "src" : 7,
                                "trackNumber" : 1,
                                "attributes" : {
                                  "ident" : "Rec 02-07-19_001"
                                },
                                "effects" : [

                                ],
                                "start" : 1351,
                                "duration" : 524,
                                "mediaStart" : 2386,
                                "mediaDuration" : 524,
                                "scalar" : 1,
                                "animationTracks" : {

                                }
                              },
                          "audio" : 
                              {
                                "id" : 503,
                                "_type" : "AMFile",
                                "src" : 7,
                                "trackNumber" : 2,
                                "attributes" : {
                                  "ident" : "",
                                  "sampleRate" : 44100,
                                  "bitDepth" : 16,
                                  "gain" : 1.0,
                                  "mixToMono" : false
                                },
                                  "channelNumber" : "0,1",
                                "effects" : [

                                ],
                                "start" : 1351,
                                "duration" : 524,
                                "mediaStart" : 2386,
                                "mediaDuration" : 524,
                                "scalar" : 1,
                                "animationTracks" : {

                                }
                              }
,
                          "start" : 1351,
                          "duration" : 524,
                          "mediaStart" : 0,
                          "mediaDuration" : 26386,
                          "scalar" : 1,
                          "metadata" : {
                            "WinSubProjectDisplayName" : "",
                            "clipSpeedAttribute" : false,
                            "default-scale0" : 0.25,
                            "default-scale1" : 0.25,
                            "default-translation0" : 880.0,
                            "default-translation1" : -480.0
                          }
                        },
                        {
                          "id" : 504,
                          "_type" : "UnifiedMedia",
                          "video" : 
                              {
                                "id" : 505,
                                "_type" : "VMFile",
                                "src" : 7,
                                "trackNumber" : 1,
                                "attributes" : {
                                  "ident" : "Rec 02-07-19_001"
                                },
                                "effects" : [

                                ],
                                "start" : 1875,
                                "duration" : 143,
                                "mediaStart" : 3086,
                                "mediaDuration" : 143,
                                "scalar" : 1,
                                "animationTracks" : {

                                }
                              },
                          "audio" : 
                              {
                                "id" : 506,
                                "_type" : "AMFile",
                                "src" : 7,
                                "trackNumber" : 2,
                                "attributes" : {
                                  "ident" : "",
                                  "sampleRate" : 44100,
                                  "bitDepth" : 16,
                                  "gain" : 1.0,
                                  "mixToMono" : false
                                },
                                  "channelNumber" : "0,1",
                                "effects" : [

                                ],
                                "start" : 1875,
                                "duration" : 143,
                                "mediaStart" : 3086,
                                "mediaDuration" : 143,
                                "scalar" : 1,
                                "animationTracks" : {

                                }
                              }
,
                          "start" : 1875,
                          "duration" : 143,
                          "mediaStart" : 0,
                          "mediaDuration" : 26386,
                          "scalar" : 1,
                          "metadata" : {
                            "WinSubProjectDisplayName" : "",
                            "clipSpeedAttribute" : false,
                            "default-scale0" : 0.25,
                            "default-scale1" : 0.25,
                            "default-translation0" : 880.0,
                            "default-translation1" : -480.0
                          }
                        },
                        {
                          "id" : 507,
                          "_type" : "UnifiedMedia",
                          "video" : 
                              {
                                "id" : 508,
                                "_type" : "VMFile",
                                "src" : 7,
                                "trackNumber" : 1,
                                "attributes" : {
                                  "ident" : "Rec 02-07-19_001"
                                },
                                "effects" : [

                                ],
                                "start" : 2018,
                                "duration" : 1362,
                                "mediaStart" : 3692,
                                "mediaDuration" : 1362,
                                "scalar" : 1,
                                "animationTracks" : {

                                }
                              },
                          "audio" : 
                              {
                                "id" : 509,
                                "_type" : "AMFile",
                                "src" : 7,
                                "trackNumber" : 2,
                                "attributes" : {
                                  "ident" : "",
                                  "sampleRate" : 44100,
                                  "bitDepth" : 16,
                                  "gain" : 1.0,
                                  "mixToMono" : false
                                },
                                  "channelNumber" : "0,1",
                                "effects" : [

                                ],
                                "start" : 2018,
                                "duration" : 1362,
                                "mediaStart" : 3692,
                                "mediaDuration" : 1362,
                                "scalar" : 1,
                                "animationTracks" : {

                                }
                              }
,
                          "start" : 2018,
                          "duration" : 1362,
                          "mediaStart" : 0,
                          "mediaDuration" : 26386,
                          "scalar" : 1,
                          "metadata" : {
                            "WinSubProjectDisplayName" : "",
                            "clipSpeedAttribute" : false,
                            "default-scale0" : 0.25,
                            "default-scale1" : 0.25,
                            "default-translation0" : 880.0,
                            "default-translation1" : -480.0
                          }
                        },
                        {
                          "id" : 510,
                          "_type" : "UnifiedMedia",
                          "video" : 
                              {
                                "id" : 511,
                                "_type" : "VMFile",
                                "src" : 7,
                                "trackNumber" : 1,
                                "attributes" : {
                                  "ident" : "Rec 02-07-19_001"
                                },
                                "effects" : [

                                ],
                                "start" : 3380,
                                "duration" : 218,
                                "mediaStart" : 5246,
                                "mediaDuration" : 218,
                                "scalar" : 1,
                                "animationTracks" : {

                                }
                              },
                          "audio" : 
                              {
                                "id" : 512,
                                "_type" : "AMFile",
                                "src" : 7,
                                "trackNumber" : 2,
                                "attributes" : {
                                  "ident" : "",
                                  "sampleRate" : 44100,
                                  "bitDepth" : 16,
                                  "gain" : 1.0,
                                  "mixToMono" : false
                                },
                                  "channelNumber" : "0,1",
                                "effects" : [

                                ],
                                "start" : 3380,
                                "duration" : 218,
                                "mediaStart" : 5246,
                                "mediaDuration" : 218,
                                "scalar" : 1,
                                "animationTracks" : {

                                }
                              }
,
                          "start" : 3380,
                          "duration" : 218,
                          "mediaStart" : 0,
                          "mediaDuration" : 26386,
                          "scalar" : 1,
                          "metadata" : {
                            "WinSubProjectDisplayName" : "",
                            "clipSpeedAttribute" : false,
                            "default-scale0" : 0.25,
                            "default-scale1" : 0.25,
                            "default-translation0" : 880.0,
                            "default-translation1" : -480.0
                          }
                        },
                        {
                          "id" : 513,
                          "_type" : "UnifiedMedia",
                          "video" : 
                              {
                                "id" : 514,
                                "_type" : "VMFile",
                                "src" : 7,
                                "trackNumber" : 1,
                                "attributes" : {
                                  "ident" : "Rec 02-07-19_001"
                                },
                                "effects" : [

                                ],
                                "start" : 3598,
                                "duration" : 473,
                                "mediaStart" : 6154,
                                "mediaDuration" : 473,
                                "scalar" : 1,
                                "animationTracks" : {

                                }
                              },
                          "audio" : 
                              {
                                "id" : 515,
                                "_type" : "AMFile",
                                "src" : 7,
                                "trackNumber" : 2,
                                "attributes" : {
                                  "ident" : "",
                                  "sampleRate" : 44100,
                                  "bitDepth" : 16,
                                  "gain" : 1.0,
                                  "mixToMono" : false
                                },
                                  "channelNumber" : "0,1",
                                "effects" : [

                                ],
                                "start" : 3598,
                                "duration" : 473,
                                "mediaStart" : 6154,
                                "mediaDuration" : 473,
                                "scalar" : 1,
                                "animationTracks" : {

                                }
                              }
,
                          "start" : 3598,
                          "duration" : 473,
                          "mediaStart" : 0,
                          "mediaDuration" : 26386,
                          "scalar" : 1,
                          "metadata" : {
                            "WinSubProjectDisplayName" : "",
                            "clipSpeedAttribute" : false,
                            "default-scale0" : 0.25,
                            "default-scale1" : 0.25,
                            "default-translation0" : 880.0,
                            "default-translation1" : -480.0
                          }
                        },
                        {
                          "id" : 516,
                          "_type" : "UnifiedMedia",
                          "video" : 
                              {
                                "id" : 517,
                                "_type" : "VMFile",
                                "src" : 7,
                                "trackNumber" : 1,
                                "attributes" : {
                                  "ident" : "Rec 02-07-19_001"
                                },
                                "effects" : [

                                ],
                                "start" : 4071,
                                "duration" : 164,
                                "mediaStart" : 6726,
                                "mediaDuration" : 164,
                                "scalar" : 1,
                                "animationTracks" : {

                                }
                              },
                          "audio" : 
                              {
                                "id" : 518,
                                "_type" : "AMFile",
                                "src" : 7,
                                "trackNumber" : 2,
                                "attributes" : {
                                  "ident" : "",
                                  "sampleRate" : 44100,
                                  "bitDepth" : 16,
                                  "gain" : 1.0,
                                  "mixToMono" : false
                                },
                                  "channelNumber" : "0,1",
                                "effects" : [

                                ],
                                "start" : 4071,
                                "duration" : 164,
                                "mediaStart" : 6726,
                                "mediaDuration" : 164,
                                "scalar" : 1,
                                "animationTracks" : {

                                }
                              }
,
                          "start" : 4071,
                          "duration" : 164,
                          "mediaStart" : 0,
                          "mediaDuration" : 26386,
                          "scalar" : 1,
                          "metadata" : {
                            "WinSubProjectDisplayName" : "",
                            "clipSpeedAttribute" : false,
                            "default-scale0" : 0.25,
                            "default-scale1" : 0.25,
                            "default-translation0" : 880.0,
                            "default-translation1" : -480.0
                          }
                        },
                        {
                          "id" : 519,
                          "_type" : "UnifiedMedia",
                          "video" : 
                              {
                                "id" : 520,
                                "_type" : "VMFile",
                                "src" : 7,
                                "trackNumber" : 1,
                                "attributes" : {
                                  "ident" : "Rec 02-07-19_001"
                                },
                                "effects" : [

                                ],
                                "start" : 4235,
                                "duration" : 19279,
                                "mediaStart" : 7107,
                                "mediaDuration" : 19279,
                                "scalar" : 1,
                                "animationTracks" : {

                                }
                              },
                          "audio" : 
                              {
                                "id" : 521,
                                "_type" : "AMFile",
                                "src" : 7,
                                "trackNumber" : 2,
                                "attributes" : {
                                  "ident" : "",
                                  "sampleRate" : 44100,
                                  "bitDepth" : 16,
                                  "gain" : 1.0,
                                  "mixToMono" : false
                                },
                                  "channelNumber" : "0,1",
                                "effects" : [

                                ],
                                "start" : 4235,
                                "duration" : 19279,
                                "mediaStart" : 7107,
                                "mediaDuration" : 19279,
                                "scalar" : 1,
                                "animationTracks" : {

                                }
                              }
,
                          "start" : 4235,
                          "duration" : 19279,
                          "mediaStart" : 0,
                          "mediaDuration" : 26386,
                          "scalar" : 1,
                          "metadata" : {
                            "WinSubProjectDisplayName" : "",
                            "clipSpeedAttribute" : false,
                            "default-scale0" : 0.25,
                            "default-scale1" : 0.25,
                            "default-translation0" : 880.0,
                            "default-translation1" : -480.0
                          }
                        }
                    ],
                    "effects" : [

                    ],
                    "start" : 14302,
                    "duration" : 4407,
                    "mediaStart" : 95,
                    "mediaDuration" : 4407,
                    "scalar" : 1,
                    "metadata" : {
                      "WinSubProjectDisplayName" : "",
                      "clipSpeedAttribute" : false,
                      "default-translation0" : 703.999999999945,
                      "default-translation1" : -347.999999999936
                    },
                    "animationTracks" : {

                    }
                  },
                  {
                    "id" : 522,
                    "_type" : "StitchedMedia",
                    "minMediaStart" : 0,
                    "attributes" : {
                      "ident" : "Rec 02-07-19_001",
                      "gain" : 1.0,
                      "mixToMono" : false
                    },
                    "parameters" : {
                      "translation0" : {
                        "type" : "double",
                        "defaultValue" : 703.999999999945,
                        "interp" : "eioe"
                      },
                      "translation1" : {
                        "type" : "double",
                        "defaultValue" : -347.999999999936,
                        "interp" : "eioe"
                      },
                      "scale0" : {
                        "type" : "double",
                        "defaultValue" : 0.8,
                        "interp" : "eioe"
                      },
                      "scale1" : {
                        "type" : "double",
                        "defaultValue" : 0.8,
                        "interp" : "eioe"
                      },
                      "volume" : 1.0,
                      "cursorOpacity" : {
                        "type" : "double",
                        "defaultValue" : 1.0,
                        "interp" : "linr"
                      },
                      "cursorScale" : {
                        "type" : "double",
                        "defaultValue" : 1.0,
                        "interp" : "linr"
                      }
                    },
                    "medias" : [
                        {
                          "id" : 523,
                          "_type" : "UnifiedMedia",
                          "video" : 
                              {
                                "id" : 524,
                                "_type" : "VMFile",
                                "src" : 7,
                                "trackNumber" : 1,
                                "attributes" : {
                                  "ident" : "Rec 02-07-19_001"
                                },
                                "effects" : [

                                ],
                                "start" : 0,
                                "duration" : 496,
                                "mediaStart" : 0,
                                "mediaDuration" : 496,
                                "scalar" : 1,
                                "animationTracks" : {

                                }
                              },
                          "audio" : 
                              {
                                "id" : 525,
                                "_type" : "AMFile",
                                "src" : 7,
                                "trackNumber" : 2,
                                "attributes" : {
                                  "ident" : "",
                                  "sampleRate" : 44100,
                                  "bitDepth" : 16,
                                  "gain" : 1.0,
                                  "mixToMono" : false
                                },
                                  "channelNumber" : "0,1",
                                "effects" : [

                                ],
                                "start" : 0,
                                "duration" : 496,
                                "mediaStart" : 0,
                                "mediaDuration" : 496,
                                "scalar" : 1,
                                "animationTracks" : {

                                }
                              }
,
                          "start" : 0,
                          "duration" : 496,
                          "mediaStart" : 0,
                          "mediaDuration" : 26386,
                          "scalar" : 1,
                          "metadata" : {
                            "WinSubProjectDisplayName" : "",
                            "clipSpeedAttribute" : false,
                            "default-scale0" : 0.25,
                            "default-scale1" : 0.25,
                            "default-translation0" : 880.0,
                            "default-translation1" : -480.0
                          }
                        },
                        {
                          "id" : 526,
                          "_type" : "UnifiedMedia",
                          "video" : 
                              {
                                "id" : 527,
                                "_type" : "VMFile",
                                "src" : 7,
                                "trackNumber" : 1,
                                "attributes" : {
                                  "ident" : "Rec 02-07-19_001"
                                },
                                "effects" : [

                                ],
                                "start" : 496,
                                "duration" : 190,
                                "mediaStart" : 715,
                                "mediaDuration" : 190,
                                "scalar" : 1,
                                "animationTracks" : {

                                }
                              },
                          "audio" : 
                              {
                                "id" : 528,
                                "_type" : "AMFile",
                                "src" : 7,
                                "trackNumber" : 2,
                                "attributes" : {
                                  "ident" : "",
                                  "sampleRate" : 44100,
                                  "bitDepth" : 16,
                                  "gain" : 1.0,
                                  "mixToMono" : false
                                },
                                  "channelNumber" : "0,1",
                                "effects" : [

                                ],
                                "start" : 496,
                                "duration" : 190,
                                "mediaStart" : 715,
                                "mediaDuration" : 190,
                                "scalar" : 1,
                                "animationTracks" : {

                                }
                              }
,
                          "start" : 496,
                          "duration" : 190,
                          "mediaStart" : 0,
                          "mediaDuration" : 26386,
                          "scalar" : 1,
                          "metadata" : {
                            "WinSubProjectDisplayName" : "",
                            "clipSpeedAttribute" : false,
                            "default-scale0" : 0.25,
                            "default-scale1" : 0.25,
                            "default-translation0" : 880.0,
                            "default-translation1" : -480.0
                          }
                        },
                        {
                          "id" : 529,
                          "_type" : "UnifiedMedia",
                          "video" : 
                              {
                                "id" : 530,
                                "_type" : "VMFile",
                                "src" : 7,
                                "trackNumber" : 1,
                                "attributes" : {
                                  "ident" : "Rec 02-07-19_001"
                                },
                                "effects" : [

                                ],
                                "start" : 686,
                                "duration" : 239,
                                "mediaStart" : 1444,
                                "mediaDuration" : 239,
                                "scalar" : 1,
                                "animationTracks" : {

                                }
                              },
                          "audio" : 
                              {
                                "id" : 531,
                                "_type" : "AMFile",
                                "src" : 7,
                                "trackNumber" : 2,
                                "attributes" : {
                                  "ident" : "",
                                  "sampleRate" : 44100,
                                  "bitDepth" : 16,
                                  "gain" : 1.0,
                                  "mixToMono" : false
                                },
                                  "channelNumber" : "0,1",
                                "effects" : [

                                ],
                                "start" : 686,
                                "duration" : 239,
                                "mediaStart" : 1444,
                                "mediaDuration" : 239,
                                "scalar" : 1,
                                "animationTracks" : {

                                }
                              }
,
                          "start" : 686,
                          "duration" : 239,
                          "mediaStart" : 0,
                          "mediaDuration" : 26386,
                          "scalar" : 1,
                          "metadata" : {
                            "WinSubProjectDisplayName" : "",
                            "clipSpeedAttribute" : false,
                            "default-scale0" : 0.25,
                            "default-scale1" : 0.25,
                            "default-translation0" : 880.0,
                            "default-translation1" : -480.0
                          }
                        },
                        {
                          "id" : 532,
                          "_type" : "UnifiedMedia",
                          "video" : 
                              {
                                "id" : 533,
                                "_type" : "VMFile",
                                "src" : 7,
                                "trackNumber" : 1,
                                "attributes" : {
                                  "ident" : "Rec 02-07-19_001"
                                },
                                "effects" : [

                                ],
                                "start" : 925,
                                "duration" : 128,
                                "mediaStart" : 1750,
                                "mediaDuration" : 128,
                                "scalar" : 1,
                                "animationTracks" : {

                                }
                              },
                          "audio" : 
                              {
                                "id" : 534,
                                "_type" : "AMFile",
                                "src" : 7,
                                "trackNumber" : 2,
                                "attributes" : {
                                  "ident" : "",
                                  "sampleRate" : 44100,
                                  "bitDepth" : 16,
                                  "gain" : 1.0,
                                  "mixToMono" : false
                                },
                                  "channelNumber" : "0,1",
                                "effects" : [

                                ],
                                "start" : 925,
                                "duration" : 128,
                                "mediaStart" : 1750,
                                "mediaDuration" : 128,
                                "scalar" : 1,
                                "animationTracks" : {

                                }
                              }
,
                          "start" : 925,
                          "duration" : 128,
                          "mediaStart" : 0,
                          "mediaDuration" : 26386,
                          "scalar" : 1,
                          "metadata" : {
                            "WinSubProjectDisplayName" : "",
                            "clipSpeedAttribute" : false,
                            "default-scale0" : 0.25,
                            "default-scale1" : 0.25,
                            "default-translation0" : 880.0,
                            "default-translation1" : -480.0
                          }
                        },
                        {
                          "id" : 535,
                          "_type" : "UnifiedMedia",
                          "video" : 
                              {
                                "id" : 536,
                                "_type" : "VMFile",
                                "src" : 7,
                                "trackNumber" : 1,
                                "attributes" : {
                                  "ident" : "Rec 02-07-19_001"
                                },
                                "effects" : [

                                ],
                                "start" : 1053,
                                "duration" : 298,
                                "mediaStart" : 1939,
                                "mediaDuration" : 298,
                                "scalar" : 1,
                                "animationTracks" : {

                                }
                              },
                          "audio" : 
                              {
                                "id" : 537,
                                "_type" : "AMFile",
                                "src" : 7,
                                "trackNumber" : 2,
                                "attributes" : {
                                  "ident" : "",
                                  "sampleRate" : 44100,
                                  "bitDepth" : 16,
                                  "gain" : 1.0,
                                  "mixToMono" : false
                                },
                                  "channelNumber" : "0,1",
                                "effects" : [

                                ],
                                "start" : 1053,
                                "duration" : 298,
                                "mediaStart" : 1939,
                                "mediaDuration" : 298,
                                "scalar" : 1,
                                "animationTracks" : {

                                }
                              }
,
                          "start" : 1053,
                          "duration" : 298,
                          "mediaStart" : 0,
                          "mediaDuration" : 26386,
                          "scalar" : 1,
                          "metadata" : {
                            "WinSubProjectDisplayName" : "",
                            "clipSpeedAttribute" : false,
                            "default-scale0" : 0.25,
                            "default-scale1" : 0.25,
                            "default-translation0" : 880.0,
                            "default-translation1" : -480.0
                          }
                        },
                        {
                          "id" : 538,
                          "_type" : "UnifiedMedia",
                          "video" : 
                              {
                                "id" : 539,
                                "_type" : "VMFile",
                                "src" : 7,
                                "trackNumber" : 1,
                                "attributes" : {
                                  "ident" : "Rec 02-07-19_001"
                                },
                                "effects" : [

                                ],
                                "start" : 1351,
                                "duration" : 524,
                                "mediaStart" : 2386,
                                "mediaDuration" : 524,
                                "scalar" : 1,
                                "animationTracks" : {

                                }
                              },
                          "audio" : 
                              {
                                "id" : 540,
                                "_type" : "AMFile",
                                "src" : 7,
                                "trackNumber" : 2,
                                "attributes" : {
                                  "ident" : "",
                                  "sampleRate" : 44100,
                                  "bitDepth" : 16,
                                  "gain" : 1.0,
                                  "mixToMono" : false
                                },
                                  "channelNumber" : "0,1",
                                "effects" : [

                                ],
                                "start" : 1351,
                                "duration" : 524,
                                "mediaStart" : 2386,
                                "mediaDuration" : 524,
                                "scalar" : 1,
                                "animationTracks" : {

                                }
                              }
,
                          "start" : 1351,
                          "duration" : 524,
                          "mediaStart" : 0,
                          "mediaDuration" : 26386,
                          "scalar" : 1,
                          "metadata" : {
                            "WinSubProjectDisplayName" : "",
                            "clipSpeedAttribute" : false,
                            "default-scale0" : 0.25,
                            "default-scale1" : 0.25,
                            "default-translation0" : 880.0,
                            "default-translation1" : -480.0
                          }
                        },
                        {
                          "id" : 541,
                          "_type" : "UnifiedMedia",
                          "video" : 
                              {
                                "id" : 542,
                                "_type" : "VMFile",
                                "src" : 7,
                                "trackNumber" : 1,
                                "attributes" : {
                                  "ident" : "Rec 02-07-19_001"
                                },
                                "effects" : [

                                ],
                                "start" : 1875,
                                "duration" : 143,
                                "mediaStart" : 3086,
                                "mediaDuration" : 143,
                                "scalar" : 1,
                                "animationTracks" : {

                                }
                              },
                          "audio" : 
                              {
                                "id" : 543,
                                "_type" : "AMFile",
                                "src" : 7,
                                "trackNumber" : 2,
                                "attributes" : {
                                  "ident" : "",
                                  "sampleRate" : 44100,
                                  "bitDepth" : 16,
                                  "gain" : 1.0,
                                  "mixToMono" : false
                                },
                                  "channelNumber" : "0,1",
                                "effects" : [

                                ],
                                "start" : 1875,
                                "duration" : 143,
                                "mediaStart" : 3086,
                                "mediaDuration" : 143,
                                "scalar" : 1,
                                "animationTracks" : {

                                }
                              }
,
                          "start" : 1875,
                          "duration" : 143,
                          "mediaStart" : 0,
                          "mediaDuration" : 26386,
                          "scalar" : 1,
                          "metadata" : {
                            "WinSubProjectDisplayName" : "",
                            "clipSpeedAttribute" : false,
                            "default-scale0" : 0.25,
                            "default-scale1" : 0.25,
                            "default-translation0" : 880.0,
                            "default-translation1" : -480.0
                          }
                        },
                        {
                          "id" : 544,
                          "_type" : "UnifiedMedia",
                          "video" : 
                              {
                                "id" : 545,
                                "_type" : "VMFile",
                                "src" : 7,
                                "trackNumber" : 1,
                                "attributes" : {
                                  "ident" : "Rec 02-07-19_001"
                                },
                                "effects" : [

                                ],
                                "start" : 2018,
                                "duration" : 1362,
                                "mediaStart" : 3692,
                                "mediaDuration" : 1362,
                                "scalar" : 1,
                                "animationTracks" : {

                                }
                              },
                          "audio" : 
                              {
                                "id" : 546,
                                "_type" : "AMFile",
                                "src" : 7,
                                "trackNumber" : 2,
                                "attributes" : {
                                  "ident" : "",
                                  "sampleRate" : 44100,
                                  "bitDepth" : 16,
                                  "gain" : 1.0,
                                  "mixToMono" : false
                                },
                                  "channelNumber" : "0,1",
                                "effects" : [

                                ],
                                "start" : 2018,
                                "duration" : 1362,
                                "mediaStart" : 3692,
                                "mediaDuration" : 1362,
                                "scalar" : 1,
                                "animationTracks" : {

                                }
                              }
,
                          "start" : 2018,
                          "duration" : 1362,
                          "mediaStart" : 0,
                          "mediaDuration" : 26386,
                          "scalar" : 1,
                          "metadata" : {
                            "WinSubProjectDisplayName" : "",
                            "clipSpeedAttribute" : false,
                            "default-scale0" : 0.25,
                            "default-scale1" : 0.25,
                            "default-translation0" : 880.0,
                            "default-translation1" : -480.0
                          }
                        },
                        {
                          "id" : 547,
                          "_type" : "UnifiedMedia",
                          "video" : 
                              {
                                "id" : 548,
                                "_type" : "VMFile",
                                "src" : 7,
                                "trackNumber" : 1,
                                "attributes" : {
                                  "ident" : "Rec 02-07-19_001"
                                },
                                "effects" : [

                                ],
                                "start" : 3380,
                                "duration" : 218,
                                "mediaStart" : 5246,
                                "mediaDuration" : 218,
                                "scalar" : 1,
                                "animationTracks" : {

                                }
                              },
                          "audio" : 
                              {
                                "id" : 549,
                                "_type" : "AMFile",
                                "src" : 7,
                                "trackNumber" : 2,
                                "attributes" : {
                                  "ident" : "",
                                  "sampleRate" : 44100,
                                  "bitDepth" : 16,
                                  "gain" : 1.0,
                                  "mixToMono" : false
                                },
                                  "channelNumber" : "0,1",
                                "effects" : [

                                ],
                                "start" : 3380,
                                "duration" : 218,
                                "mediaStart" : 5246,
                                "mediaDuration" : 218,
                                "scalar" : 1,
                                "animationTracks" : {

                                }
                              }
,
                          "start" : 3380,
                          "duration" : 218,
                          "mediaStart" : 0,
                          "mediaDuration" : 26386,
                          "scalar" : 1,
                          "metadata" : {
                            "WinSubProjectDisplayName" : "",
                            "clipSpeedAttribute" : false,
                            "default-scale0" : 0.25,
                            "default-scale1" : 0.25,
                            "default-translation0" : 880.0,
                            "default-translation1" : -480.0
                          }
                        },
                        {
                          "id" : 550,
                          "_type" : "UnifiedMedia",
                          "video" : 
                              {
                                "id" : 551,
                                "_type" : "VMFile",
                                "src" : 7,
                                "trackNumber" : 1,
                                "attributes" : {
                                  "ident" : "Rec 02-07-19_001"
                                },
                                "effects" : [

                                ],
                                "start" : 3598,
                                "duration" : 473,
                                "mediaStart" : 6154,
                                "mediaDuration" : 473,
                                "scalar" : 1,
                                "animationTracks" : {

                                }
                              },
                          "audio" : 
                              {
                                "id" : 552,
                                "_type" : "AMFile",
                                "src" : 7,
                                "trackNumber" : 2,
                                "attributes" : {
                                  "ident" : "",
                                  "sampleRate" : 44100,
                                  "bitDepth" : 16,
                                  "gain" : 1.0,
                                  "mixToMono" : false
                                },
                                  "channelNumber" : "0,1",
                                "effects" : [

                                ],
                                "start" : 3598,
                                "duration" : 473,
                                "mediaStart" : 6154,
                                "mediaDuration" : 473,
                                "scalar" : 1,
                                "animationTracks" : {

                                }
                              }
,
                          "start" : 3598,
                          "duration" : 473,
                          "mediaStart" : 0,
                          "mediaDuration" : 26386,
                          "scalar" : 1,
                          "metadata" : {
                            "WinSubProjectDisplayName" : "",
                            "clipSpeedAttribute" : false,
                            "default-scale0" : 0.25,
                            "default-scale1" : 0.25,
                            "default-translation0" : 880.0,
                            "default-translation1" : -480.0
                          }
                        },
                        {
                          "id" : 553,
                          "_type" : "UnifiedMedia",
                          "video" : 
                              {
                                "id" : 554,
                                "_type" : "VMFile",
                                "src" : 7,
                                "trackNumber" : 1,
                                "attributes" : {
                                  "ident" : "Rec 02-07-19_001"
                                },
                                "effects" : [

                                ],
                                "start" : 4071,
                                "duration" : 164,
                                "mediaStart" : 6726,
                                "mediaDuration" : 164,
                                "scalar" : 1,
                                "animationTracks" : {

                                }
                              },
                          "audio" : 
                              {
                                "id" : 555,
                                "_type" : "AMFile",
                                "src" : 7,
                                "trackNumber" : 2,
                                "attributes" : {
                                  "ident" : "",
                                  "sampleRate" : 44100,
                                  "bitDepth" : 16,
                                  "gain" : 1.0,
                                  "mixToMono" : false
                                },
                                  "channelNumber" : "0,1",
                                "effects" : [

                                ],
                                "start" : 4071,
                                "duration" : 164,
                                "mediaStart" : 6726,
                                "mediaDuration" : 164,
                                "scalar" : 1,
                                "animationTracks" : {

                                }
                              }
,
                          "start" : 4071,
                          "duration" : 164,
                          "mediaStart" : 0,
                          "mediaDuration" : 26386,
                          "scalar" : 1,
                          "metadata" : {
                            "WinSubProjectDisplayName" : "",
                            "clipSpeedAttribute" : false,
                            "default-scale0" : 0.25,
                            "default-scale1" : 0.25,
                            "default-translation0" : 880.0,
                            "default-translation1" : -480.0
                          }
                        },
                        {
                          "id" : 556,
                          "_type" : "UnifiedMedia",
                          "video" : 
                              {
                                "id" : 557,
                                "_type" : "VMFile",
                                "src" : 7,
                                "trackNumber" : 1,
                                "attributes" : {
                                  "ident" : "Rec 02-07-19_001"
                                },
                                "effects" : [

                                ],
                                "start" : 4235,
                                "duration" : 19279,
                                "mediaStart" : 7107,
                                "mediaDuration" : 19279,
                                "scalar" : 1,
                                "animationTracks" : {

                                }
                              },
                          "audio" : 
                              {
                                "id" : 558,
                                "_type" : "AMFile",
                                "src" : 7,
                                "trackNumber" : 2,
                                "attributes" : {
                                  "ident" : "",
                                  "sampleRate" : 44100,
                                  "bitDepth" : 16,
                                  "gain" : 1.0,
                                  "mixToMono" : false
                                },
                                  "channelNumber" : "0,1",
                                "effects" : [

                                ],
                                "start" : 4235,
                                "duration" : 19279,
                                "mediaStart" : 7107,
                                "mediaDuration" : 19279,
                                "scalar" : 1,
                                "animationTracks" : {

                                }
                              }
,
                          "start" : 4235,
                          "duration" : 19279,
                          "mediaStart" : 0,
                          "mediaDuration" : 26386,
                          "scalar" : 1,
                          "metadata" : {
                            "WinSubProjectDisplayName" : "",
                            "clipSpeedAttribute" : false,
                            "default-scale0" : 0.25,
                            "default-scale1" : 0.25,
                            "default-translation0" : 880.0,
                            "default-translation1" : -480.0
                          }
                        }
                    ],
                    "effects" : [

                    ],
                    "start" : 18709,
                    "duration" : 140,
                    "mediaStart" : 4502,
                    "mediaDuration" : 420,
                    "scalar" : "1/3",
                    "metadata" : {
                      "WinSubProjectDisplayName" : "",
                      "clipSpeedAttribute" : true
                    },
                    "animationTracks" : {

                    }
                  },
                  {
                    "id" : 559,
                    "_type" : "StitchedMedia",
                    "minMediaStart" : 0,
                    "attributes" : {
                      "ident" : "Rec 02-07-19_001",
                      "gain" : 1.0,
                      "mixToMono" : false
                    },
                    "parameters" : {
                      "translation0" : 703.999999999945,
                      "translation1" : -347.999999999936,
                      "scale0" : 0.8,
                      "scale1" : 0.8,
                      "volume" : 1.0,
                      "cursorOpacity" : 1.0,
                      "cursorScale" : 1.0
                    },
                    "medias" : [
                        {
                          "id" : 560,
                          "_type" : "UnifiedMedia",
                          "video" : 
                              {
                                "id" : 561,
                                "_type" : "VMFile",
                                "src" : 7,
                                "trackNumber" : 1,
                                "attributes" : {
                                  "ident" : "Rec 02-07-19_001"
                                },
                                "effects" : [

                                ],
                                "start" : 0,
                                "duration" : 496,
                                "mediaStart" : 0,
                                "mediaDuration" : 496,
                                "scalar" : 1,
                                "animationTracks" : {

                                }
                              },
                          "audio" : 
                              {
                                "id" : 562,
                                "_type" : "AMFile",
                                "src" : 7,
                                "trackNumber" : 2,
                                "attributes" : {
                                  "ident" : "",
                                  "sampleRate" : 44100,
                                  "bitDepth" : 16,
                                  "gain" : 1.0,
                                  "mixToMono" : false
                                },
                                  "channelNumber" : "0,1",
                                "effects" : [

                                ],
                                "start" : 0,
                                "duration" : 496,
                                "mediaStart" : 0,
                                "mediaDuration" : 496,
                                "scalar" : 1,
                                "animationTracks" : {

                                }
                              }
,
                          "start" : 0,
                          "duration" : 496,
                          "mediaStart" : 0,
                          "mediaDuration" : 26386,
                          "scalar" : 1,
                          "metadata" : {
                            "WinSubProjectDisplayName" : "",
                            "clipSpeedAttribute" : false,
                            "default-scale0" : 0.25,
                            "default-scale1" : 0.25,
                            "default-translation0" : 880.0,
                            "default-translation1" : -480.0
                          }
                        },
                        {
                          "id" : 563,
                          "_type" : "UnifiedMedia",
                          "video" : 
                              {
                                "id" : 564,
                                "_type" : "VMFile",
                                "src" : 7,
                                "trackNumber" : 1,
                                "attributes" : {
                                  "ident" : "Rec 02-07-19_001"
                                },
                                "effects" : [

                                ],
                                "start" : 496,
                                "duration" : 190,
                                "mediaStart" : 715,
                                "mediaDuration" : 190,
                                "scalar" : 1,
                                "animationTracks" : {

                                }
                              },
                          "audio" : 
                              {
                                "id" : 565,
                                "_type" : "AMFile",
                                "src" : 7,
                                "trackNumber" : 2,
                                "attributes" : {
                                  "ident" : "",
                                  "sampleRate" : 44100,
                                  "bitDepth" : 16,
                                  "gain" : 1.0,
                                  "mixToMono" : false
                                },
                                  "channelNumber" : "0,1",
                                "effects" : [

                                ],
                                "start" : 496,
                                "duration" : 190,
                                "mediaStart" : 715,
                                "mediaDuration" : 190,
                                "scalar" : 1,
                                "animationTracks" : {

                                }
                              }
,
                          "start" : 496,
                          "duration" : 190,
                          "mediaStart" : 0,
                          "mediaDuration" : 26386,
                          "scalar" : 1,
                          "metadata" : {
                            "WinSubProjectDisplayName" : "",
                            "clipSpeedAttribute" : false,
                            "default-scale0" : 0.25,
                            "default-scale1" : 0.25,
                            "default-translation0" : 880.0,
                            "default-translation1" : -480.0
                          }
                        },
                        {
                          "id" : 566,
                          "_type" : "UnifiedMedia",
                          "video" : 
                              {
                                "id" : 567,
                                "_type" : "VMFile",
                                "src" : 7,
                                "trackNumber" : 1,
                                "attributes" : {
                                  "ident" : "Rec 02-07-19_001"
                                },
                                "effects" : [

                                ],
                                "start" : 686,
                                "duration" : 239,
                                "mediaStart" : 1444,
                                "mediaDuration" : 239,
                                "scalar" : 1,
                                "animationTracks" : {

                                }
                              },
                          "audio" : 
                              {
                                "id" : 568,
                                "_type" : "AMFile",
                                "src" : 7,
                                "trackNumber" : 2,
                                "attributes" : {
                                  "ident" : "",
                                  "sampleRate" : 44100,
                                  "bitDepth" : 16,
                                  "gain" : 1.0,
                                  "mixToMono" : false
                                },
                                  "channelNumber" : "0,1",
                                "effects" : [

                                ],
                                "start" : 686,
                                "duration" : 239,
                                "mediaStart" : 1444,
                                "mediaDuration" : 239,
                                "scalar" : 1,
                                "animationTracks" : {

                                }
                              }
,
                          "start" : 686,
                          "duration" : 239,
                          "mediaStart" : 0,
                          "mediaDuration" : 26386,
                          "scalar" : 1,
                          "metadata" : {
                            "WinSubProjectDisplayName" : "",
                            "clipSpeedAttribute" : false,
                            "default-scale0" : 0.25,
                            "default-scale1" : 0.25,
                            "default-translation0" : 880.0,
                            "default-translation1" : -480.0
                          }
                        },
                        {
                          "id" : 569,
                          "_type" : "UnifiedMedia",
                          "video" : 
                              {
                                "id" : 570,
                                "_type" : "VMFile",
                                "src" : 7,
                                "trackNumber" : 1,
                                "attributes" : {
                                  "ident" : "Rec 02-07-19_001"
                                },
                                "effects" : [

                                ],
                                "start" : 925,
                                "duration" : 128,
                                "mediaStart" : 1750,
                                "mediaDuration" : 128,
                                "scalar" : 1,
                                "animationTracks" : {

                                }
                              },
                          "audio" : 
                              {
                                "id" : 571,
                                "_type" : "AMFile",
                                "src" : 7,
                                "trackNumber" : 2,
                                "attributes" : {
                                  "ident" : "",
                                  "sampleRate" : 44100,
                                  "bitDepth" : 16,
                                  "gain" : 1.0,
                                  "mixToMono" : false
                                },
                                  "channelNumber" : "0,1",
                                "effects" : [

                                ],
                                "start" : 925,
                                "duration" : 128,
                                "mediaStart" : 1750,
                                "mediaDuration" : 128,
                                "scalar" : 1,
                                "animationTracks" : {

                                }
                              }
,
                          "start" : 925,
                          "duration" : 128,
                          "mediaStart" : 0,
                          "mediaDuration" : 26386,
                          "scalar" : 1,
                          "metadata" : {
                            "WinSubProjectDisplayName" : "",
                            "clipSpeedAttribute" : false,
                            "default-scale0" : 0.25,
                            "default-scale1" : 0.25,
                            "default-translation0" : 880.0,
                            "default-translation1" : -480.0
                          }
                        },
                        {
                          "id" : 572,
                          "_type" : "UnifiedMedia",
                          "video" : 
                              {
                                "id" : 573,
                                "_type" : "VMFile",
                                "src" : 7,
                                "trackNumber" : 1,
                                "attributes" : {
                                  "ident" : "Rec 02-07-19_001"
                                },
                                "effects" : [

                                ],
                                "start" : 1053,
                                "duration" : 298,
                                "mediaStart" : 1939,
                                "mediaDuration" : 298,
                                "scalar" : 1,
                                "animationTracks" : {

                                }
                              },
                          "audio" : 
                              {
                                "id" : 574,
                                "_type" : "AMFile",
                                "src" : 7,
                                "trackNumber" : 2,
                                "attributes" : {
                                  "ident" : "",
                                  "sampleRate" : 44100,
                                  "bitDepth" : 16,
                                  "gain" : 1.0,
                                  "mixToMono" : false
                                },
                                  "channelNumber" : "0,1",
                                "effects" : [

                                ],
                                "start" : 1053,
                                "duration" : 298,
                                "mediaStart" : 1939,
                                "mediaDuration" : 298,
                                "scalar" : 1,
                                "animationTracks" : {

                                }
                              }
,
                          "start" : 1053,
                          "duration" : 298,
                          "mediaStart" : 0,
                          "mediaDuration" : 26386,
                          "scalar" : 1,
                          "metadata" : {
                            "WinSubProjectDisplayName" : "",
                            "clipSpeedAttribute" : false,
                            "default-scale0" : 0.25,
                            "default-scale1" : 0.25,
                            "default-translation0" : 880.0,
                            "default-translation1" : -480.0
                          }
                        },
                        {
                          "id" : 575,
                          "_type" : "UnifiedMedia",
                          "video" : 
                              {
                                "id" : 576,
                                "_type" : "VMFile",
                                "src" : 7,
                                "trackNumber" : 1,
                                "attributes" : {
                                  "ident" : "Rec 02-07-19_001"
                                },
                                "effects" : [

                                ],
                                "start" : 1351,
                                "duration" : 524,
                                "mediaStart" : 2386,
                                "mediaDuration" : 524,
                                "scalar" : 1,
                                "animationTracks" : {

                                }
                              },
                          "audio" : 
                              {
                                "id" : 577,
                                "_type" : "AMFile",
                                "src" : 7,
                                "trackNumber" : 2,
                                "attributes" : {
                                  "ident" : "",
                                  "sampleRate" : 44100,
                                  "bitDepth" : 16,
                                  "gain" : 1.0,
                                  "mixToMono" : false
                                },
                                  "channelNumber" : "0,1",
                                "effects" : [

                                ],
                                "start" : 1351,
                                "duration" : 524,
                                "mediaStart" : 2386,
                                "mediaDuration" : 524,
                                "scalar" : 1,
                                "animationTracks" : {

                                }
                              }
,
                          "start" : 1351,
                          "duration" : 524,
                          "mediaStart" : 0,
                          "mediaDuration" : 26386,
                          "scalar" : 1,
                          "metadata" : {
                            "WinSubProjectDisplayName" : "",
                            "clipSpeedAttribute" : false,
                            "default-scale0" : 0.25,
                            "default-scale1" : 0.25,
                            "default-translation0" : 880.0,
                            "default-translation1" : -480.0
                          }
                        },
                        {
                          "id" : 578,
                          "_type" : "UnifiedMedia",
                          "video" : 
                              {
                                "id" : 579,
                                "_type" : "VMFile",
                                "src" : 7,
                                "trackNumber" : 1,
                                "attributes" : {
                                  "ident" : "Rec 02-07-19_001"
                                },
                                "effects" : [

                                ],
                                "start" : 1875,
                                "duration" : 143,
                                "mediaStart" : 3086,
                                "mediaDuration" : 143,
                                "scalar" : 1,
                                "animationTracks" : {

                                }
                              },
                          "audio" : 
                              {
                                "id" : 580,
                                "_type" : "AMFile",
                                "src" : 7,
                                "trackNumber" : 2,
                                "attributes" : {
                                  "ident" : "",
                                  "sampleRate" : 44100,
                                  "bitDepth" : 16,
                                  "gain" : 1.0,
                                  "mixToMono" : false
                                },
                                  "channelNumber" : "0,1",
                                "effects" : [

                                ],
                                "start" : 1875,
                                "duration" : 143,
                                "mediaStart" : 3086,
                                "mediaDuration" : 143,
                                "scalar" : 1,
                                "animationTracks" : {

                                }
                              }
,
                          "start" : 1875,
                          "duration" : 143,
                          "mediaStart" : 0,
                          "mediaDuration" : 26386,
                          "scalar" : 1,
                          "metadata" : {
                            "WinSubProjectDisplayName" : "",
                            "clipSpeedAttribute" : false,
                            "default-scale0" : 0.25,
                            "default-scale1" : 0.25,
                            "default-translation0" : 880.0,
                            "default-translation1" : -480.0
                          }
                        },
                        {
                          "id" : 581,
                          "_type" : "UnifiedMedia",
                          "video" : 
                              {
                                "id" : 582,
                                "_type" : "VMFile",
                                "src" : 7,
                                "trackNumber" : 1,
                                "attributes" : {
                                  "ident" : "Rec 02-07-19_001"
                                },
                                "effects" : [

                                ],
                                "start" : 2018,
                                "duration" : 1362,
                                "mediaStart" : 3692,
                                "mediaDuration" : 1362,
                                "scalar" : 1,
                                "animationTracks" : {

                                }
                              },
                          "audio" : 
                              {
                                "id" : 583,
                                "_type" : "AMFile",
                                "src" : 7,
                                "trackNumber" : 2,
                                "attributes" : {
                                  "ident" : "",
                                  "sampleRate" : 44100,
                                  "bitDepth" : 16,
                                  "gain" : 1.0,
                                  "mixToMono" : false
                                },
                                  "channelNumber" : "0,1",
                                "effects" : [

                                ],
                                "start" : 2018,
                                "duration" : 1362,
                                "mediaStart" : 3692,
                                "mediaDuration" : 1362,
                                "scalar" : 1,
                                "animationTracks" : {

                                }
                              }
,
                          "start" : 2018,
                          "duration" : 1362,
                          "mediaStart" : 0,
                          "mediaDuration" : 26386,
                          "scalar" : 1,
                          "metadata" : {
                            "WinSubProjectDisplayName" : "",
                            "clipSpeedAttribute" : false,
                            "default-scale0" : 0.25,
                            "default-scale1" : 0.25,
                            "default-translation0" : 880.0,
                            "default-translation1" : -480.0
                          }
                        },
                        {
                          "id" : 584,
                          "_type" : "UnifiedMedia",
                          "video" : 
                              {
                                "id" : 585,
                                "_type" : "VMFile",
                                "src" : 7,
                                "trackNumber" : 1,
                                "attributes" : {
                                  "ident" : "Rec 02-07-19_001"
                                },
                                "effects" : [

                                ],
                                "start" : 3380,
                                "duration" : 218,
                                "mediaStart" : 5246,
                                "mediaDuration" : 218,
                                "scalar" : 1,
                                "animationTracks" : {

                                }
                              },
                          "audio" : 
                              {
                                "id" : 586,
                                "_type" : "AMFile",
                                "src" : 7,
                                "trackNumber" : 2,
                                "attributes" : {
                                  "ident" : "",
                                  "sampleRate" : 44100,
                                  "bitDepth" : 16,
                                  "gain" : 1.0,
                                  "mixToMono" : false
                                },
                                  "channelNumber" : "0,1",
                                "effects" : [

                                ],
                                "start" : 3380,
                                "duration" : 218,
                                "mediaStart" : 5246,
                                "mediaDuration" : 218,
                                "scalar" : 1,
                                "animationTracks" : {

                                }
                              }
,
                          "start" : 3380,
                          "duration" : 218,
                          "mediaStart" : 0,
                          "mediaDuration" : 26386,
                          "scalar" : 1,
                          "metadata" : {
                            "WinSubProjectDisplayName" : "",
                            "clipSpeedAttribute" : false,
                            "default-scale0" : 0.25,
                            "default-scale1" : 0.25,
                            "default-translation0" : 880.0,
                            "default-translation1" : -480.0
                          }
                        },
                        {
                          "id" : 587,
                          "_type" : "UnifiedMedia",
                          "video" : 
                              {
                                "id" : 588,
                                "_type" : "VMFile",
                                "src" : 7,
                                "trackNumber" : 1,
                                "attributes" : {
                                  "ident" : "Rec 02-07-19_001"
                                },
                                "effects" : [

                                ],
                                "start" : 3598,
                                "duration" : 473,
                                "mediaStart" : 6154,
                                "mediaDuration" : 473,
                                "scalar" : 1,
                                "animationTracks" : {

                                }
                              },
                          "audio" : 
                              {
                                "id" : 589,
                                "_type" : "AMFile",
                                "src" : 7,
                                "trackNumber" : 2,
                                "attributes" : {
                                  "ident" : "",
                                  "sampleRate" : 44100,
                                  "bitDepth" : 16,
                                  "gain" : 1.0,
                                  "mixToMono" : false
                                },
                                  "channelNumber" : "0,1",
                                "effects" : [

                                ],
                                "start" : 3598,
                                "duration" : 473,
                                "mediaStart" : 6154,
                                "mediaDuration" : 473,
                                "scalar" : 1,
                                "animationTracks" : {

                                }
                              }
,
                          "start" : 3598,
                          "duration" : 473,
                          "mediaStart" : 0,
                          "mediaDuration" : 26386,
                          "scalar" : 1,
                          "metadata" : {
                            "WinSubProjectDisplayName" : "",
                            "clipSpeedAttribute" : false,
                            "default-scale0" : 0.25,
                            "default-scale1" : 0.25,
                            "default-translation0" : 880.0,
                            "default-translation1" : -480.0
                          }
                        },
                        {
                          "id" : 590,
                          "_type" : "UnifiedMedia",
                          "video" : 
                              {
                                "id" : 591,
                                "_type" : "VMFile",
                                "src" : 7,
                                "trackNumber" : 1,
                                "attributes" : {
                                  "ident" : "Rec 02-07-19_001"
                                },
                                "effects" : [

                                ],
                                "start" : 4071,
                                "duration" : 164,
                                "mediaStart" : 6726,
                                "mediaDuration" : 164,
                                "scalar" : 1,
                                "animationTracks" : {

                                }
                              },
                          "audio" : 
                              {
                                "id" : 592,
                                "_type" : "AMFile",
                                "src" : 7,
                                "trackNumber" : 2,
                                "attributes" : {
                                  "ident" : "",
                                  "sampleRate" : 44100,
                                  "bitDepth" : 16,
                                  "gain" : 1.0,
                                  "mixToMono" : false
                                },
                                  "channelNumber" : "0,1",
                                "effects" : [

                                ],
                                "start" : 4071,
                                "duration" : 164,
                                "mediaStart" : 6726,
                                "mediaDuration" : 164,
                                "scalar" : 1,
                                "animationTracks" : {

                                }
                              }
,
                          "start" : 4071,
                          "duration" : 164,
                          "mediaStart" : 0,
                          "mediaDuration" : 26386,
                          "scalar" : 1,
                          "metadata" : {
                            "WinSubProjectDisplayName" : "",
                            "clipSpeedAttribute" : false,
                            "default-scale0" : 0.25,
                            "default-scale1" : 0.25,
                            "default-translation0" : 880.0,
                            "default-translation1" : -480.0
                          }
                        },
                        {
                          "id" : 593,
                          "_type" : "UnifiedMedia",
                          "video" : 
                              {
                                "id" : 594,
                                "_type" : "VMFile",
                                "src" : 7,
                                "trackNumber" : 1,
                                "attributes" : {
                                  "ident" : "Rec 02-07-19_001"
                                },
                                "effects" : [

                                ],
                                "start" : 4235,
                                "duration" : 1279,
                                "mediaStart" : 7107,
                                "mediaDuration" : 1279,
                                "scalar" : 1,
                                "animationTracks" : {

                                }
                              },
                          "audio" : 
                              {
                                "id" : 595,
                                "_type" : "AMFile",
                                "src" : 7,
                                "trackNumber" : 2,
                                "attributes" : {
                                  "ident" : "",
                                  "sampleRate" : 44100,
                                  "bitDepth" : 16,
                                  "gain" : 1.0,
                                  "mixToMono" : false
                                },
                                  "channelNumber" : "0,1",
                                "effects" : [

                                ],
                                "start" : 4235,
                                "duration" : 1279,
                                "mediaStart" : 7107,
                                "mediaDuration" : 1279,
                                "scalar" : 1,
                                "animationTracks" : {

                                }
                              }
,
                          "start" : 4235,
                          "duration" : 1279,
                          "mediaStart" : 0,
                          "mediaDuration" : 26386,
                          "scalar" : 1,
                          "metadata" : {
                            "WinSubProjectDisplayName" : "",
                            "clipSpeedAttribute" : false,
                            "default-scale0" : 0.25,
                            "default-scale1" : 0.25,
                            "default-translation0" : 880.0,
                            "default-translation1" : -480.0
                          }
                        },
                        {
                          "id" : 596,
                          "_type" : "UnifiedMedia",
                          "video" : 
                              {
                                "id" : 597,
                                "_type" : "VMFile",
                                "src" : 7,
                                "trackNumber" : 1,
                                "attributes" : {
                                  "ident" : "Rec 02-07-19_001"
                                },
                                "effects" : [

                                ],
                                "start" : 5514,
                                "duration" : 17868,
                                "mediaStart" : 8518,
                                "mediaDuration" : 17868,
                                "scalar" : 1,
                                "animationTracks" : {

                                }
                              },
                          "audio" : 
                              {
                                "id" : 598,
                                "_type" : "AMFile",
                                "src" : 7,
                                "trackNumber" : 2,
                                "attributes" : {
                                  "ident" : "",
                                  "sampleRate" : 44100,
                                  "bitDepth" : 16,
                                  "gain" : 1.0,
                                  "mixToMono" : false
                                },
                                  "channelNumber" : "0,1",
                                "effects" : [

                                ],
                                "start" : 5514,
                                "duration" : 17868,
                                "mediaStart" : 8518,
                                "mediaDuration" : 17868,
                                "scalar" : 1,
                                "animationTracks" : {

                                }
                              }
,
                          "start" : 5514,
                          "duration" : 17868,
                          "mediaStart" : 0,
                          "mediaDuration" : 26386,
                          "scalar" : 1,
                          "metadata" : {
                            "WinSubProjectDisplayName" : "",
                            "clipSpeedAttribute" : false,
                            "default-scale0" : 0.25,
                            "default-scale1" : 0.25,
                            "default-translation0" : 880.0,
                            "default-translation1" : -480.0
                          }
                        }
                    ],
                    "effects" : [

                    ],
                    "start" : 18849,
                    "duration" : 314,
                    "mediaStart" : 4922,
                    "mediaDuration" : 314,
                    "scalar" : 1,
                    "metadata" : {
                      "WinSubProjectDisplayName" : "",
                      "clipSpeedAttribute" : false
                    },
                    "animationTracks" : {

                    }
                  },
                  {
                    "id" : 599,
                    "_type" : "StitchedMedia",
                    "minMediaStart" : 0,
                    "attributes" : {
                      "ident" : "Rec 02-07-19_001",
                      "gain" : 1.0,
                      "mixToMono" : false
                    },
                    "parameters" : {
                      "translation0" : {
                        "type" : "double",
                        "defaultValue" : 703.999999999945,
                        "interp" : "eioe"
                      },
                      "translation1" : {
                        "type" : "double",
                        "defaultValue" : -347.999999999936,
                        "interp" : "eioe"
                      },
                      "scale0" : {
                        "type" : "double",
                        "defaultValue" : 0.8,
                        "interp" : "eioe"
                      },
                      "scale1" : {
                        "type" : "double",
                        "defaultValue" : 0.8,
                        "interp" : "eioe"
                      },
                      "volume" : 1.0,
                      "cursorOpacity" : {
                        "type" : "double",
                        "defaultValue" : 1.0,
                        "interp" : "linr"
                      },
                      "cursorScale" : {
                        "type" : "double",
                        "defaultValue" : 1.0,
                        "interp" : "linr"
                      }
                    },
                    "medias" : [
                        {
                          "id" : 600,
                          "_type" : "UnifiedMedia",
                          "video" : 
                              {
                                "id" : 601,
                                "_type" : "VMFile",
                                "src" : 7,
                                "trackNumber" : 1,
                                "attributes" : {
                                  "ident" : "Rec 02-07-19_001"
                                },
                                "effects" : [

                                ],
                                "start" : 0,
                                "duration" : 496,
                                "mediaStart" : 0,
                                "mediaDuration" : 496,
                                "scalar" : 1,
                                "animationTracks" : {

                                }
                              },
                          "audio" : 
                              {
                                "id" : 602,
                                "_type" : "AMFile",
                                "src" : 7,
                                "trackNumber" : 2,
                                "attributes" : {
                                  "ident" : "",
                                  "sampleRate" : 44100,
                                  "bitDepth" : 16,
                                  "gain" : 1.0,
                                  "mixToMono" : false
                                },
                                  "channelNumber" : "0,1",
                                "effects" : [

                                ],
                                "start" : 0,
                                "duration" : 496,
                                "mediaStart" : 0,
                                "mediaDuration" : 496,
                                "scalar" : 1,
                                "animationTracks" : {

                                }
                              }
,
                          "start" : 0,
                          "duration" : 496,
                          "mediaStart" : 0,
                          "mediaDuration" : 26386,
                          "scalar" : 1,
                          "metadata" : {
                            "WinSubProjectDisplayName" : "",
                            "clipSpeedAttribute" : false,
                            "default-scale0" : 0.25,
                            "default-scale1" : 0.25,
                            "default-translation0" : 880.0,
                            "default-translation1" : -480.0
                          }
                        },
                        {
                          "id" : 603,
                          "_type" : "UnifiedMedia",
                          "video" : 
                              {
                                "id" : 604,
                                "_type" : "VMFile",
                                "src" : 7,
                                "trackNumber" : 1,
                                "attributes" : {
                                  "ident" : "Rec 02-07-19_001"
                                },
                                "effects" : [

                                ],
                                "start" : 496,
                                "duration" : 190,
                                "mediaStart" : 715,
                                "mediaDuration" : 190,
                                "scalar" : 1,
                                "animationTracks" : {

                                }
                              },
                          "audio" : 
                              {
                                "id" : 605,
                                "_type" : "AMFile",
                                "src" : 7,
                                "trackNumber" : 2,
                                "attributes" : {
                                  "ident" : "",
                                  "sampleRate" : 44100,
                                  "bitDepth" : 16,
                                  "gain" : 1.0,
                                  "mixToMono" : false
                                },
                                  "channelNumber" : "0,1",
                                "effects" : [

                                ],
                                "start" : 496,
                                "duration" : 190,
                                "mediaStart" : 715,
                                "mediaDuration" : 190,
                                "scalar" : 1,
                                "animationTracks" : {

                                }
                              }
,
                          "start" : 496,
                          "duration" : 190,
                          "mediaStart" : 0,
                          "mediaDuration" : 26386,
                          "scalar" : 1,
                          "metadata" : {
                            "WinSubProjectDisplayName" : "",
                            "clipSpeedAttribute" : false,
                            "default-scale0" : 0.25,
                            "default-scale1" : 0.25,
                            "default-translation0" : 880.0,
                            "default-translation1" : -480.0
                          }
                        },
                        {
                          "id" : 606,
                          "_type" : "UnifiedMedia",
                          "video" : 
                              {
                                "id" : 607,
                                "_type" : "VMFile",
                                "src" : 7,
                                "trackNumber" : 1,
                                "attributes" : {
                                  "ident" : "Rec 02-07-19_001"
                                },
                                "effects" : [

                                ],
                                "start" : 686,
                                "duration" : 239,
                                "mediaStart" : 1444,
                                "mediaDuration" : 239,
                                "scalar" : 1,
                                "animationTracks" : {

                                }
                              },
                          "audio" : 
                              {
                                "id" : 608,
                                "_type" : "AMFile",
                                "src" : 7,
                                "trackNumber" : 2,
                                "attributes" : {
                                  "ident" : "",
                                  "sampleRate" : 44100,
                                  "bitDepth" : 16,
                                  "gain" : 1.0,
                                  "mixToMono" : false
                                },
                                  "channelNumber" : "0,1",
                                "effects" : [

                                ],
                                "start" : 686,
                                "duration" : 239,
                                "mediaStart" : 1444,
                                "mediaDuration" : 239,
                                "scalar" : 1,
                                "animationTracks" : {

                                }
                              }
,
                          "start" : 686,
                          "duration" : 239,
                          "mediaStart" : 0,
                          "mediaDuration" : 26386,
                          "scalar" : 1,
                          "metadata" : {
                            "WinSubProjectDisplayName" : "",
                            "clipSpeedAttribute" : false,
                            "default-scale0" : 0.25,
                            "default-scale1" : 0.25,
                            "default-translation0" : 880.0,
                            "default-translation1" : -480.0
                          }
                        },
                        {
                          "id" : 609,
                          "_type" : "UnifiedMedia",
                          "video" : 
                              {
                                "id" : 610,
                                "_type" : "VMFile",
                                "src" : 7,
                                "trackNumber" : 1,
                                "attributes" : {
                                  "ident" : "Rec 02-07-19_001"
                                },
                                "effects" : [

                                ],
                                "start" : 925,
                                "duration" : 128,
                                "mediaStart" : 1750,
                                "mediaDuration" : 128,
                                "scalar" : 1,
                                "animationTracks" : {

                                }
                              },
                          "audio" : 
                              {
                                "id" : 611,
                                "_type" : "AMFile",
                                "src" : 7,
                                "trackNumber" : 2,
                                "attributes" : {
                                  "ident" : "",
                                  "sampleRate" : 44100,
                                  "bitDepth" : 16,
                                  "gain" : 1.0,
                                  "mixToMono" : false
                                },
                                  "channelNumber" : "0,1",
                                "effects" : [

                                ],
                                "start" : 925,
                                "duration" : 128,
                                "mediaStart" : 1750,
                                "mediaDuration" : 128,
                                "scalar" : 1,
                                "animationTracks" : {

                                }
                              }
,
                          "start" : 925,
                          "duration" : 128,
                          "mediaStart" : 0,
                          "mediaDuration" : 26386,
                          "scalar" : 1,
                          "metadata" : {
                            "WinSubProjectDisplayName" : "",
                            "clipSpeedAttribute" : false,
                            "default-scale0" : 0.25,
                            "default-scale1" : 0.25,
                            "default-translation0" : 880.0,
                            "default-translation1" : -480.0
                          }
                        },
                        {
                          "id" : 612,
                          "_type" : "UnifiedMedia",
                          "video" : 
                              {
                                "id" : 613,
                                "_type" : "VMFile",
                                "src" : 7,
                                "trackNumber" : 1,
                                "attributes" : {
                                  "ident" : "Rec 02-07-19_001"
                                },
                                "effects" : [

                                ],
                                "start" : 1053,
                                "duration" : 298,
                                "mediaStart" : 1939,
                                "mediaDuration" : 298,
                                "scalar" : 1,
                                "animationTracks" : {

                                }
                              },
                          "audio" : 
                              {
                                "id" : 614,
                                "_type" : "AMFile",
                                "src" : 7,
                                "trackNumber" : 2,
                                "attributes" : {
                                  "ident" : "",
                                  "sampleRate" : 44100,
                                  "bitDepth" : 16,
                                  "gain" : 1.0,
                                  "mixToMono" : false
                                },
                                  "channelNumber" : "0,1",
                                "effects" : [

                                ],
                                "start" : 1053,
                                "duration" : 298,
                                "mediaStart" : 1939,
                                "mediaDuration" : 298,
                                "scalar" : 1,
                                "animationTracks" : {

                                }
                              }
,
                          "start" : 1053,
                          "duration" : 298,
                          "mediaStart" : 0,
                          "mediaDuration" : 26386,
                          "scalar" : 1,
                          "metadata" : {
                            "WinSubProjectDisplayName" : "",
                            "clipSpeedAttribute" : false,
                            "default-scale0" : 0.25,
                            "default-scale1" : 0.25,
                            "default-translation0" : 880.0,
                            "default-translation1" : -480.0
                          }
                        },
                        {
                          "id" : 615,
                          "_type" : "UnifiedMedia",
                          "video" : 
                              {
                                "id" : 616,
                                "_type" : "VMFile",
                                "src" : 7,
                                "trackNumber" : 1,
                                "attributes" : {
                                  "ident" : "Rec 02-07-19_001"
                                },
                                "effects" : [

                                ],
                                "start" : 1351,
                                "duration" : 524,
                                "mediaStart" : 2386,
                                "mediaDuration" : 524,
                                "scalar" : 1,
                                "animationTracks" : {

                                }
                              },
                          "audio" : 
                              {
                                "id" : 617,
                                "_type" : "AMFile",
                                "src" : 7,
                                "trackNumber" : 2,
                                "attributes" : {
                                  "ident" : "",
                                  "sampleRate" : 44100,
                                  "bitDepth" : 16,
                                  "gain" : 1.0,
                                  "mixToMono" : false
                                },
                                  "channelNumber" : "0,1",
                                "effects" : [

                                ],
                                "start" : 1351,
                                "duration" : 524,
                                "mediaStart" : 2386,
                                "mediaDuration" : 524,
                                "scalar" : 1,
                                "animationTracks" : {

                                }
                              }
,
                          "start" : 1351,
                          "duration" : 524,
                          "mediaStart" : 0,
                          "mediaDuration" : 26386,
                          "scalar" : 1,
                          "metadata" : {
                            "WinSubProjectDisplayName" : "",
                            "clipSpeedAttribute" : false,
                            "default-scale0" : 0.25,
                            "default-scale1" : 0.25,
                            "default-translation0" : 880.0,
                            "default-translation1" : -480.0
                          }
                        },
                        {
                          "id" : 618,
                          "_type" : "UnifiedMedia",
                          "video" : 
                              {
                                "id" : 619,
                                "_type" : "VMFile",
                                "src" : 7,
                                "trackNumber" : 1,
                                "attributes" : {
                                  "ident" : "Rec 02-07-19_001"
                                },
                                "effects" : [

                                ],
                                "start" : 1875,
                                "duration" : 143,
                                "mediaStart" : 3086,
                                "mediaDuration" : 143,
                                "scalar" : 1,
                                "animationTracks" : {

                                }
                              },
                          "audio" : 
                              {
                                "id" : 620,
                                "_type" : "AMFile",
                                "src" : 7,
                                "trackNumber" : 2,
                                "attributes" : {
                                  "ident" : "",
                                  "sampleRate" : 44100,
                                  "bitDepth" : 16,
                                  "gain" : 1.0,
                                  "mixToMono" : false
                                },
                                  "channelNumber" : "0,1",
                                "effects" : [

                                ],
                                "start" : 1875,
                                "duration" : 143,
                                "mediaStart" : 3086,
                                "mediaDuration" : 143,
                                "scalar" : 1,
                                "animationTracks" : {

                                }
                              }
,
                          "start" : 1875,
                          "duration" : 143,
                          "mediaStart" : 0,
                          "mediaDuration" : 26386,
                          "scalar" : 1,
                          "metadata" : {
                            "WinSubProjectDisplayName" : "",
                            "clipSpeedAttribute" : false,
                            "default-scale0" : 0.25,
                            "default-scale1" : 0.25,
                            "default-translation0" : 880.0,
                            "default-translation1" : -480.0
                          }
                        },
                        {
                          "id" : 621,
                          "_type" : "UnifiedMedia",
                          "video" : 
                              {
                                "id" : 622,
                                "_type" : "VMFile",
                                "src" : 7,
                                "trackNumber" : 1,
                                "attributes" : {
                                  "ident" : "Rec 02-07-19_001"
                                },
                                "effects" : [

                                ],
                                "start" : 2018,
                                "duration" : 1362,
                                "mediaStart" : 3692,
                                "mediaDuration" : 1362,
                                "scalar" : 1,
                                "animationTracks" : {

                                }
                              },
                          "audio" : 
                              {
                                "id" : 623,
                                "_type" : "AMFile",
                                "src" : 7,
                                "trackNumber" : 2,
                                "attributes" : {
                                  "ident" : "",
                                  "sampleRate" : 44100,
                                  "bitDepth" : 16,
                                  "gain" : 1.0,
                                  "mixToMono" : false
                                },
                                  "channelNumber" : "0,1",
                                "effects" : [

                                ],
                                "start" : 2018,
                                "duration" : 1362,
                                "mediaStart" : 3692,
                                "mediaDuration" : 1362,
                                "scalar" : 1,
                                "animationTracks" : {

                                }
                              }
,
                          "start" : 2018,
                          "duration" : 1362,
                          "mediaStart" : 0,
                          "mediaDuration" : 26386,
                          "scalar" : 1,
                          "metadata" : {
                            "WinSubProjectDisplayName" : "",
                            "clipSpeedAttribute" : false,
                            "default-scale0" : 0.25,
                            "default-scale1" : 0.25,
                            "default-translation0" : 880.0,
                            "default-translation1" : -480.0
                          }
                        },
                        {
                          "id" : 624,
                          "_type" : "UnifiedMedia",
                          "video" : 
                              {
                                "id" : 625,
                                "_type" : "VMFile",
                                "src" : 7,
                                "trackNumber" : 1,
                                "attributes" : {
                                  "ident" : "Rec 02-07-19_001"
                                },
                                "effects" : [

                                ],
                                "start" : 3380,
                                "duration" : 218,
                                "mediaStart" : 5246,
                                "mediaDuration" : 218,
                                "scalar" : 1,
                                "animationTracks" : {

                                }
                              },
                          "audio" : 
                              {
                                "id" : 626,
                                "_type" : "AMFile",
                                "src" : 7,
                                "trackNumber" : 2,
                                "attributes" : {
                                  "ident" : "",
                                  "sampleRate" : 44100,
                                  "bitDepth" : 16,
                                  "gain" : 1.0,
                                  "mixToMono" : false
                                },
                                  "channelNumber" : "0,1",
                                "effects" : [

                                ],
                                "start" : 3380,
                                "duration" : 218,
                                "mediaStart" : 5246,
                                "mediaDuration" : 218,
                                "scalar" : 1,
                                "animationTracks" : {

                                }
                              }
,
                          "start" : 3380,
                          "duration" : 218,
                          "mediaStart" : 0,
                          "mediaDuration" : 26386,
                          "scalar" : 1,
                          "metadata" : {
                            "WinSubProjectDisplayName" : "",
                            "clipSpeedAttribute" : false,
                            "default-scale0" : 0.25,
                            "default-scale1" : 0.25,
                            "default-translation0" : 880.0,
                            "default-translation1" : -480.0
                          }
                        },
                        {
                          "id" : 627,
                          "_type" : "UnifiedMedia",
                          "video" : 
                              {
                                "id" : 628,
                                "_type" : "VMFile",
                                "src" : 7,
                                "trackNumber" : 1,
                                "attributes" : {
                                  "ident" : "Rec 02-07-19_001"
                                },
                                "effects" : [

                                ],
                                "start" : 3598,
                                "duration" : 473,
                                "mediaStart" : 6154,
                                "mediaDuration" : 473,
                                "scalar" : 1,
                                "animationTracks" : {

                                }
                              },
                          "audio" : 
                              {
                                "id" : 629,
                                "_type" : "AMFile",
                                "src" : 7,
                                "trackNumber" : 2,
                                "attributes" : {
                                  "ident" : "",
                                  "sampleRate" : 44100,
                                  "bitDepth" : 16,
                                  "gain" : 1.0,
                                  "mixToMono" : false
                                },
                                  "channelNumber" : "0,1",
                                "effects" : [

                                ],
                                "start" : 3598,
                                "duration" : 473,
                                "mediaStart" : 6154,
                                "mediaDuration" : 473,
                                "scalar" : 1,
                                "animationTracks" : {

                                }
                              }
,
                          "start" : 3598,
                          "duration" : 473,
                          "mediaStart" : 0,
                          "mediaDuration" : 26386,
                          "scalar" : 1,
                          "metadata" : {
                            "WinSubProjectDisplayName" : "",
                            "clipSpeedAttribute" : false,
                            "default-scale0" : 0.25,
                            "default-scale1" : 0.25,
                            "default-translation0" : 880.0,
                            "default-translation1" : -480.0
                          }
                        },
                        {
                          "id" : 630,
                          "_type" : "UnifiedMedia",
                          "video" : 
                              {
                                "id" : 631,
                                "_type" : "VMFile",
                                "src" : 7,
                                "trackNumber" : 1,
                                "attributes" : {
                                  "ident" : "Rec 02-07-19_001"
                                },
                                "effects" : [

                                ],
                                "start" : 4071,
                                "duration" : 164,
                                "mediaStart" : 6726,
                                "mediaDuration" : 164,
                                "scalar" : 1,
                                "animationTracks" : {

                                }
                              },
                          "audio" : 
                              {
                                "id" : 632,
                                "_type" : "AMFile",
                                "src" : 7,
                                "trackNumber" : 2,
                                "attributes" : {
                                  "ident" : "",
                                  "sampleRate" : 44100,
                                  "bitDepth" : 16,
                                  "gain" : 1.0,
                                  "mixToMono" : false
                                },
                                  "channelNumber" : "0,1",
                                "effects" : [

                                ],
                                "start" : 4071,
                                "duration" : 164,
                                "mediaStart" : 6726,
                                "mediaDuration" : 164,
                                "scalar" : 1,
                                "animationTracks" : {

                                }
                              }
,
                          "start" : 4071,
                          "duration" : 164,
                          "mediaStart" : 0,
                          "mediaDuration" : 26386,
                          "scalar" : 1,
                          "metadata" : {
                            "WinSubProjectDisplayName" : "",
                            "clipSpeedAttribute" : false,
                            "default-scale0" : 0.25,
                            "default-scale1" : 0.25,
                            "default-translation0" : 880.0,
                            "default-translation1" : -480.0
                          }
                        },
                        {
                          "id" : 633,
                          "_type" : "UnifiedMedia",
                          "video" : 
                              {
                                "id" : 634,
                                "_type" : "VMFile",
                                "src" : 7,
                                "trackNumber" : 1,
                                "attributes" : {
                                  "ident" : "Rec 02-07-19_001"
                                },
                                "effects" : [

                                ],
                                "start" : 4235,
                                "duration" : 1279,
                                "mediaStart" : 7107,
                                "mediaDuration" : 1279,
                                "scalar" : 1,
                                "animationTracks" : {

                                }
                              },
                          "audio" : 
                              {
                                "id" : 635,
                                "_type" : "AMFile",
                                "src" : 7,
                                "trackNumber" : 2,
                                "attributes" : {
                                  "ident" : "",
                                  "sampleRate" : 44100,
                                  "bitDepth" : 16,
                                  "gain" : 1.0,
                                  "mixToMono" : false
                                },
                                  "channelNumber" : "0,1",
                                "effects" : [

                                ],
                                "start" : 4235,
                                "duration" : 1279,
                                "mediaStart" : 7107,
                                "mediaDuration" : 1279,
                                "scalar" : 1,
                                "animationTracks" : {

                                }
                              }
,
                          "start" : 4235,
                          "duration" : 1279,
                          "mediaStart" : 0,
                          "mediaDuration" : 26386,
                          "scalar" : 1,
                          "metadata" : {
                            "WinSubProjectDisplayName" : "",
                            "clipSpeedAttribute" : false,
                            "default-scale0" : 0.25,
                            "default-scale1" : 0.25,
                            "default-translation0" : 880.0,
                            "default-translation1" : -480.0
                          }
                        },
                        {
                          "id" : 636,
                          "_type" : "UnifiedMedia",
                          "video" : 
                              {
                                "id" : 637,
                                "_type" : "VMFile",
                                "src" : 7,
                                "trackNumber" : 1,
                                "attributes" : {
                                  "ident" : "Rec 02-07-19_001"
                                },
                                "effects" : [

                                ],
                                "start" : 5514,
                                "duration" : 17868,
                                "mediaStart" : 8518,
                                "mediaDuration" : 17868,
                                "scalar" : 1,
                                "animationTracks" : {

                                }
                              },
                          "audio" : 
                              {
                                "id" : 638,
                                "_type" : "AMFile",
                                "src" : 7,
                                "trackNumber" : 2,
                                "attributes" : {
                                  "ident" : "",
                                  "sampleRate" : 44100,
                                  "bitDepth" : 16,
                                  "gain" : 1.0,
                                  "mixToMono" : false
                                },
                                  "channelNumber" : "0,1",
                                "effects" : [

                                ],
                                "start" : 5514,
                                "duration" : 17868,
                                "mediaStart" : 8518,
                                "mediaDuration" : 17868,
                                "scalar" : 1,
                                "animationTracks" : {

                                }
                              }
,
                          "start" : 5514,
                          "duration" : 17868,
                          "mediaStart" : 0,
                          "mediaDuration" : 26386,
                          "scalar" : 1,
                          "metadata" : {
                            "WinSubProjectDisplayName" : "",
                            "clipSpeedAttribute" : false,
                            "default-scale0" : 0.25,
                            "default-scale1" : 0.25,
                            "default-translation0" : 880.0,
                            "default-translation1" : -480.0
                          }
                        }
                    ],
                    "effects" : [

                    ],
                    "start" : 19163,
                    "duration" : 85,
                    "mediaStart" : 5236,
                    "mediaDuration" : 169,
                    "scalar" : "85/169",
                    "metadata" : {
                      "WinSubProjectDisplayName" : "",
                      "clipSpeedAttribute" : true
                    },
                    "animationTracks" : {

                    }
                  },
                  {
                    "id" : 639,
                    "_type" : "StitchedMedia",
                    "minMediaStart" : 0,
                    "attributes" : {
                      "ident" : "Rec 02-07-19_001",
                      "gain" : 1.0,
                      "mixToMono" : false
                    },
                    "parameters" : {
                      "translation0" : {
                        "type" : "double",
                        "defaultValue" : 703.999999999945,
                        "interp" : "eioe"
                      },
                      "translation1" : {
                        "type" : "double",
                        "defaultValue" : -347.999999999936,
                        "interp" : "eioe"
                      },
                      "scale0" : {
                        "type" : "double",
                        "defaultValue" : 0.8,
                        "interp" : "eioe"
                      },
                      "scale1" : {
                        "type" : "double",
                        "defaultValue" : 0.8,
                        "interp" : "eioe"
                      },
                      "volume" : 1.0,
                      "cursorOpacity" : {
                        "type" : "double",
                        "defaultValue" : 1.0,
                        "interp" : "linr"
                      },
                      "cursorScale" : {
                        "type" : "double",
                        "defaultValue" : 1.0,
                        "interp" : "linr"
                      }
                    },
                    "medias" : [
                        {
                          "id" : 640,
                          "_type" : "UnifiedMedia",
                          "video" : 
                              {
                                "id" : 641,
                                "_type" : "VMFile",
                                "src" : 7,
                                "trackNumber" : 1,
                                "attributes" : {
                                  "ident" : "Rec 02-07-19_001"
                                },
                                "effects" : [

                                ],
                                "start" : 0,
                                "duration" : 496,
                                "mediaStart" : 0,
                                "mediaDuration" : 496,
                                "scalar" : 1,
                                "animationTracks" : {

                                }
                              },
                          "audio" : 
                              {
                                "id" : 642,
                                "_type" : "AMFile",
                                "src" : 7,
                                "trackNumber" : 2,
                                "attributes" : {
                                  "ident" : "",
                                  "sampleRate" : 44100,
                                  "bitDepth" : 16,
                                  "gain" : 1.0,
                                  "mixToMono" : false
                                },
                                  "channelNumber" : "0,1",
                                "effects" : [

                                ],
                                "start" : 0,
                                "duration" : 496,
                                "mediaStart" : 0,
                                "mediaDuration" : 496,
                                "scalar" : 1,
                                "animationTracks" : {

                                }
                              }
,
                          "start" : 0,
                          "duration" : 496,
                          "mediaStart" : 0,
                          "mediaDuration" : 26386,
                          "scalar" : 1,
                          "metadata" : {
                            "WinSubProjectDisplayName" : "",
                            "clipSpeedAttribute" : false,
                            "default-scale0" : 0.25,
                            "default-scale1" : 0.25,
                            "default-translation0" : 880.0,
                            "default-translation1" : -480.0
                          }
                        },
                        {
                          "id" : 643,
                          "_type" : "UnifiedMedia",
                          "video" : 
                              {
                                "id" : 644,
                                "_type" : "VMFile",
                                "src" : 7,
                                "trackNumber" : 1,
                                "attributes" : {
                                  "ident" : "Rec 02-07-19_001"
                                },
                                "effects" : [

                                ],
                                "start" : 496,
                                "duration" : 190,
                                "mediaStart" : 715,
                                "mediaDuration" : 190,
                                "scalar" : 1,
                                "animationTracks" : {

                                }
                              },
                          "audio" : 
                              {
                                "id" : 645,
                                "_type" : "AMFile",
                                "src" : 7,
                                "trackNumber" : 2,
                                "attributes" : {
                                  "ident" : "",
                                  "sampleRate" : 44100,
                                  "bitDepth" : 16,
                                  "gain" : 1.0,
                                  "mixToMono" : false
                                },
                                  "channelNumber" : "0,1",
                                "effects" : [

                                ],
                                "start" : 496,
                                "duration" : 190,
                                "mediaStart" : 715,
                                "mediaDuration" : 190,
                                "scalar" : 1,
                                "animationTracks" : {

                                }
                              }
,
                          "start" : 496,
                          "duration" : 190,
                          "mediaStart" : 0,
                          "mediaDuration" : 26386,
                          "scalar" : 1,
                          "metadata" : {
                            "WinSubProjectDisplayName" : "",
                            "clipSpeedAttribute" : false,
                            "default-scale0" : 0.25,
                            "default-scale1" : 0.25,
                            "default-translation0" : 880.0,
                            "default-translation1" : -480.0
                          }
                        },
                        {
                          "id" : 646,
                          "_type" : "UnifiedMedia",
                          "video" : 
                              {
                                "id" : 647,
                                "_type" : "VMFile",
                                "src" : 7,
                                "trackNumber" : 1,
                                "attributes" : {
                                  "ident" : "Rec 02-07-19_001"
                                },
                                "effects" : [

                                ],
                                "start" : 686,
                                "duration" : 239,
                                "mediaStart" : 1444,
                                "mediaDuration" : 239,
                                "scalar" : 1,
                                "animationTracks" : {

                                }
                              },
                          "audio" : 
                              {
                                "id" : 648,
                                "_type" : "AMFile",
                                "src" : 7,
                                "trackNumber" : 2,
                                "attributes" : {
                                  "ident" : "",
                                  "sampleRate" : 44100,
                                  "bitDepth" : 16,
                                  "gain" : 1.0,
                                  "mixToMono" : false
                                },
                                  "channelNumber" : "0,1",
                                "effects" : [

                                ],
                                "start" : 686,
                                "duration" : 239,
                                "mediaStart" : 1444,
                                "mediaDuration" : 239,
                                "scalar" : 1,
                                "animationTracks" : {

                                }
                              }
,
                          "start" : 686,
                          "duration" : 239,
                          "mediaStart" : 0,
                          "mediaDuration" : 26386,
                          "scalar" : 1,
                          "metadata" : {
                            "WinSubProjectDisplayName" : "",
                            "clipSpeedAttribute" : false,
                            "default-scale0" : 0.25,
                            "default-scale1" : 0.25,
                            "default-translation0" : 880.0,
                            "default-translation1" : -480.0
                          }
                        },
                        {
                          "id" : 649,
                          "_type" : "UnifiedMedia",
                          "video" : 
                              {
                                "id" : 650,
                                "_type" : "VMFile",
                                "src" : 7,
                                "trackNumber" : 1,
                                "attributes" : {
                                  "ident" : "Rec 02-07-19_001"
                                },
                                "effects" : [

                                ],
                                "start" : 925,
                                "duration" : 128,
                                "mediaStart" : 1750,
                                "mediaDuration" : 128,
                                "scalar" : 1,
                                "animationTracks" : {

                                }
                              },
                          "audio" : 
                              {
                                "id" : 651,
                                "_type" : "AMFile",
                                "src" : 7,
                                "trackNumber" : 2,
                                "attributes" : {
                                  "ident" : "",
                                  "sampleRate" : 44100,
                                  "bitDepth" : 16,
                                  "gain" : 1.0,
                                  "mixToMono" : false
                                },
                                  "channelNumber" : "0,1",
                                "effects" : [

                                ],
                                "start" : 925,
                                "duration" : 128,
                                "mediaStart" : 1750,
                                "mediaDuration" : 128,
                                "scalar" : 1,
                                "animationTracks" : {

                                }
                              }
,
                          "start" : 925,
                          "duration" : 128,
                          "mediaStart" : 0,
                          "mediaDuration" : 26386,
                          "scalar" : 1,
                          "metadata" : {
                            "WinSubProjectDisplayName" : "",
                            "clipSpeedAttribute" : false,
                            "default-scale0" : 0.25,
                            "default-scale1" : 0.25,
                            "default-translation0" : 880.0,
                            "default-translation1" : -480.0
                          }
                        },
                        {
                          "id" : 652,
                          "_type" : "UnifiedMedia",
                          "video" : 
                              {
                                "id" : 653,
                                "_type" : "VMFile",
                                "src" : 7,
                                "trackNumber" : 1,
                                "attributes" : {
                                  "ident" : "Rec 02-07-19_001"
                                },
                                "effects" : [

                                ],
                                "start" : 1053,
                                "duration" : 298,
                                "mediaStart" : 1939,
                                "mediaDuration" : 298,
                                "scalar" : 1,
                                "animationTracks" : {

                                }
                              },
                          "audio" : 
                              {
                                "id" : 654,
                                "_type" : "AMFile",
                                "src" : 7,
                                "trackNumber" : 2,
                                "attributes" : {
                                  "ident" : "",
                                  "sampleRate" : 44100,
                                  "bitDepth" : 16,
                                  "gain" : 1.0,
                                  "mixToMono" : false
                                },
                                  "channelNumber" : "0,1",
                                "effects" : [

                                ],
                                "start" : 1053,
                                "duration" : 298,
                                "mediaStart" : 1939,
                                "mediaDuration" : 298,
                                "scalar" : 1,
                                "animationTracks" : {

                                }
                              }
,
                          "start" : 1053,
                          "duration" : 298,
                          "mediaStart" : 0,
                          "mediaDuration" : 26386,
                          "scalar" : 1,
                          "metadata" : {
                            "WinSubProjectDisplayName" : "",
                            "clipSpeedAttribute" : false,
                            "default-scale0" : 0.25,
                            "default-scale1" : 0.25,
                            "default-translation0" : 880.0,
                            "default-translation1" : -480.0
                          }
                        },
                        {
                          "id" : 655,
                          "_type" : "UnifiedMedia",
                          "video" : 
                              {
                                "id" : 656,
                                "_type" : "VMFile",
                                "src" : 7,
                                "trackNumber" : 1,
                                "attributes" : {
                                  "ident" : "Rec 02-07-19_001"
                                },
                                "effects" : [

                                ],
                                "start" : 1351,
                                "duration" : 524,
                                "mediaStart" : 2386,
                                "mediaDuration" : 524,
                                "scalar" : 1,
                                "animationTracks" : {

                                }
                              },
                          "audio" : 
                              {
                                "id" : 657,
                                "_type" : "AMFile",
                                "src" : 7,
                                "trackNumber" : 2,
                                "attributes" : {
                                  "ident" : "",
                                  "sampleRate" : 44100,
                                  "bitDepth" : 16,
                                  "gain" : 1.0,
                                  "mixToMono" : false
                                },
                                  "channelNumber" : "0,1",
                                "effects" : [

                                ],
                                "start" : 1351,
                                "duration" : 524,
                                "mediaStart" : 2386,
                                "mediaDuration" : 524,
                                "scalar" : 1,
                                "animationTracks" : {

                                }
                              }
,
                          "start" : 1351,
                          "duration" : 524,
                          "mediaStart" : 0,
                          "mediaDuration" : 26386,
                          "scalar" : 1,
                          "metadata" : {
                            "WinSubProjectDisplayName" : "",
                            "clipSpeedAttribute" : false,
                            "default-scale0" : 0.25,
                            "default-scale1" : 0.25,
                            "default-translation0" : 880.0,
                            "default-translation1" : -480.0
                          }
                        },
                        {
                          "id" : 658,
                          "_type" : "UnifiedMedia",
                          "video" : 
                              {
                                "id" : 659,
                                "_type" : "VMFile",
                                "src" : 7,
                                "trackNumber" : 1,
                                "attributes" : {
                                  "ident" : "Rec 02-07-19_001"
                                },
                                "effects" : [

                                ],
                                "start" : 1875,
                                "duration" : 143,
                                "mediaStart" : 3086,
                                "mediaDuration" : 143,
                                "scalar" : 1,
                                "animationTracks" : {

                                }
                              },
                          "audio" : 
                              {
                                "id" : 660,
                                "_type" : "AMFile",
                                "src" : 7,
                                "trackNumber" : 2,
                                "attributes" : {
                                  "ident" : "",
                                  "sampleRate" : 44100,
                                  "bitDepth" : 16,
                                  "gain" : 1.0,
                                  "mixToMono" : false
                                },
                                  "channelNumber" : "0,1",
                                "effects" : [

                                ],
                                "start" : 1875,
                                "duration" : 143,
                                "mediaStart" : 3086,
                                "mediaDuration" : 143,
                                "scalar" : 1,
                                "animationTracks" : {

                                }
                              }
,
                          "start" : 1875,
                          "duration" : 143,
                          "mediaStart" : 0,
                          "mediaDuration" : 26386,
                          "scalar" : 1,
                          "metadata" : {
                            "WinSubProjectDisplayName" : "",
                            "clipSpeedAttribute" : false,
                            "default-scale0" : 0.25,
                            "default-scale1" : 0.25,
                            "default-translation0" : 880.0,
                            "default-translation1" : -480.0
                          }
                        },
                        {
                          "id" : 661,
                          "_type" : "UnifiedMedia",
                          "video" : 
                              {
                                "id" : 662,
                                "_type" : "VMFile",
                                "src" : 7,
                                "trackNumber" : 1,
                                "attributes" : {
                                  "ident" : "Rec 02-07-19_001"
                                },
                                "effects" : [

                                ],
                                "start" : 2018,
                                "duration" : 1362,
                                "mediaStart" : 3692,
                                "mediaDuration" : 1362,
                                "scalar" : 1,
                                "animationTracks" : {

                                }
                              },
                          "audio" : 
                              {
                                "id" : 663,
                                "_type" : "AMFile",
                                "src" : 7,
                                "trackNumber" : 2,
                                "attributes" : {
                                  "ident" : "",
                                  "sampleRate" : 44100,
                                  "bitDepth" : 16,
                                  "gain" : 1.0,
                                  "mixToMono" : false
                                },
                                  "channelNumber" : "0,1",
                                "effects" : [

                                ],
                                "start" : 2018,
                                "duration" : 1362,
                                "mediaStart" : 3692,
                                "mediaDuration" : 1362,
                                "scalar" : 1,
                                "animationTracks" : {

                                }
                              }
,
                          "start" : 2018,
                          "duration" : 1362,
                          "mediaStart" : 0,
                          "mediaDuration" : 26386,
                          "scalar" : 1,
                          "metadata" : {
                            "WinSubProjectDisplayName" : "",
                            "clipSpeedAttribute" : false,
                            "default-scale0" : 0.25,
                            "default-scale1" : 0.25,
                            "default-translation0" : 880.0,
                            "default-translation1" : -480.0
                          }
                        },
                        {
                          "id" : 664,
                          "_type" : "UnifiedMedia",
                          "video" : 
                              {
                                "id" : 665,
                                "_type" : "VMFile",
                                "src" : 7,
                                "trackNumber" : 1,
                                "attributes" : {
                                  "ident" : "Rec 02-07-19_001"
                                },
                                "effects" : [

                                ],
                                "start" : 3380,
                                "duration" : 218,
                                "mediaStart" : 5246,
                                "mediaDuration" : 218,
                                "scalar" : 1,
                                "animationTracks" : {

                                }
                              },
                          "audio" : 
                              {
                                "id" : 666,
                                "_type" : "AMFile",
                                "src" : 7,
                                "trackNumber" : 2,
                                "attributes" : {
                                  "ident" : "",
                                  "sampleRate" : 44100,
                                  "bitDepth" : 16,
                                  "gain" : 1.0,
                                  "mixToMono" : false
                                },
                                  "channelNumber" : "0,1",
                                "effects" : [

                                ],
                                "start" : 3380,
                                "duration" : 218,
                                "mediaStart" : 5246,
                                "mediaDuration" : 218,
                                "scalar" : 1,
                                "animationTracks" : {

                                }
                              }
,
                          "start" : 3380,
                          "duration" : 218,
                          "mediaStart" : 0,
                          "mediaDuration" : 26386,
                          "scalar" : 1,
                          "metadata" : {
                            "WinSubProjectDisplayName" : "",
                            "clipSpeedAttribute" : false,
                            "default-scale0" : 0.25,
                            "default-scale1" : 0.25,
                            "default-translation0" : 880.0,
                            "default-translation1" : -480.0
                          }
                        },
                        {
                          "id" : 667,
                          "_type" : "UnifiedMedia",
                          "video" : 
                              {
                                "id" : 668,
                                "_type" : "VMFile",
                                "src" : 7,
                                "trackNumber" : 1,
                                "attributes" : {
                                  "ident" : "Rec 02-07-19_001"
                                },
                                "effects" : [

                                ],
                                "start" : 3598,
                                "duration" : 473,
                                "mediaStart" : 6154,
                                "mediaDuration" : 473,
                                "scalar" : 1,
                                "animationTracks" : {

                                }
                              },
                          "audio" : 
                              {
                                "id" : 669,
                                "_type" : "AMFile",
                                "src" : 7,
                                "trackNumber" : 2,
                                "attributes" : {
                                  "ident" : "",
                                  "sampleRate" : 44100,
                                  "bitDepth" : 16,
                                  "gain" : 1.0,
                                  "mixToMono" : false
                                },
                                  "channelNumber" : "0,1",
                                "effects" : [

                                ],
                                "start" : 3598,
                                "duration" : 473,
                                "mediaStart" : 6154,
                                "mediaDuration" : 473,
                                "scalar" : 1,
                                "animationTracks" : {

                                }
                              }
,
                          "start" : 3598,
                          "duration" : 473,
                          "mediaStart" : 0,
                          "mediaDuration" : 26386,
                          "scalar" : 1,
                          "metadata" : {
                            "WinSubProjectDisplayName" : "",
                            "clipSpeedAttribute" : false,
                            "default-scale0" : 0.25,
                            "default-scale1" : 0.25,
                            "default-translation0" : 880.0,
                            "default-translation1" : -480.0
                          }
                        },
                        {
                          "id" : 670,
                          "_type" : "UnifiedMedia",
                          "video" : 
                              {
                                "id" : 671,
                                "_type" : "VMFile",
                                "src" : 7,
                                "trackNumber" : 1,
                                "attributes" : {
                                  "ident" : "Rec 02-07-19_001"
                                },
                                "effects" : [

                                ],
                                "start" : 4071,
                                "duration" : 164,
                                "mediaStart" : 6726,
                                "mediaDuration" : 164,
                                "scalar" : 1,
                                "animationTracks" : {

                                }
                              },
                          "audio" : 
                              {
                                "id" : 672,
                                "_type" : "AMFile",
                                "src" : 7,
                                "trackNumber" : 2,
                                "attributes" : {
                                  "ident" : "",
                                  "sampleRate" : 44100,
                                  "bitDepth" : 16,
                                  "gain" : 1.0,
                                  "mixToMono" : false
                                },
                                  "channelNumber" : "0,1",
                                "effects" : [

                                ],
                                "start" : 4071,
                                "duration" : 164,
                                "mediaStart" : 6726,
                                "mediaDuration" : 164,
                                "scalar" : 1,
                                "animationTracks" : {

                                }
                              }
,
                          "start" : 4071,
                          "duration" : 164,
                          "mediaStart" : 0,
                          "mediaDuration" : 26386,
                          "scalar" : 1,
                          "metadata" : {
                            "WinSubProjectDisplayName" : "",
                            "clipSpeedAttribute" : false,
                            "default-scale0" : 0.25,
                            "default-scale1" : 0.25,
                            "default-translation0" : 880.0,
                            "default-translation1" : -480.0
                          }
                        },
                        {
                          "id" : 673,
                          "_type" : "UnifiedMedia",
                          "video" : 
                              {
                                "id" : 674,
                                "_type" : "VMFile",
                                "src" : 7,
                                "trackNumber" : 1,
                                "attributes" : {
                                  "ident" : "Rec 02-07-19_001"
                                },
                                "effects" : [

                                ],
                                "start" : 4235,
                                "duration" : 1279,
                                "mediaStart" : 7107,
                                "mediaDuration" : 1279,
                                "scalar" : 1,
                                "animationTracks" : {

                                }
                              },
                          "audio" : 
                              {
                                "id" : 675,
                                "_type" : "AMFile",
                                "src" : 7,
                                "trackNumber" : 2,
                                "attributes" : {
                                  "ident" : "",
                                  "sampleRate" : 44100,
                                  "bitDepth" : 16,
                                  "gain" : 1.0,
                                  "mixToMono" : false
                                },
                                  "channelNumber" : "0,1",
                                "effects" : [

                                ],
                                "start" : 4235,
                                "duration" : 1279,
                                "mediaStart" : 7107,
                                "mediaDuration" : 1279,
                                "scalar" : 1,
                                "animationTracks" : {

                                }
                              }
,
                          "start" : 4235,
                          "duration" : 1279,
                          "mediaStart" : 0,
                          "mediaDuration" : 26386,
                          "scalar" : 1,
                          "metadata" : {
                            "WinSubProjectDisplayName" : "",
                            "clipSpeedAttribute" : false,
                            "default-scale0" : 0.25,
                            "default-scale1" : 0.25,
                            "default-translation0" : 880.0,
                            "default-translation1" : -480.0
                          }
                        },
                        {
                          "id" : 676,
                          "_type" : "UnifiedMedia",
                          "video" : 
                              {
                                "id" : 677,
                                "_type" : "VMFile",
                                "src" : 7,
                                "trackNumber" : 1,
                                "attributes" : {
                                  "ident" : "Rec 02-07-19_001"
                                },
                                "effects" : [

                                ],
                                "start" : 5514,
                                "duration" : 17868,
                                "mediaStart" : 8518,
                                "mediaDuration" : 17868,
                                "scalar" : 1,
                                "animationTracks" : {

                                }
                              },
                          "audio" : 
                              {
                                "id" : 678,
                                "_type" : "AMFile",
                                "src" : 7,
                                "trackNumber" : 2,
                                "attributes" : {
                                  "ident" : "",
                                  "sampleRate" : 44100,
                                  "bitDepth" : 16,
                                  "gain" : 1.0,
                                  "mixToMono" : false
                                },
                                  "channelNumber" : "0,1",
                                "effects" : [

                                ],
                                "start" : 5514,
                                "duration" : 17868,
                                "mediaStart" : 8518,
                                "mediaDuration" : 17868,
                                "scalar" : 1,
                                "animationTracks" : {

                                }
                              }
,
                          "start" : 5514,
                          "duration" : 17868,
                          "mediaStart" : 0,
                          "mediaDuration" : 26386,
                          "scalar" : 1,
                          "metadata" : {
                            "WinSubProjectDisplayName" : "",
                            "clipSpeedAttribute" : false,
                            "default-scale0" : 0.25,
                            "default-scale1" : 0.25,
                            "default-translation0" : 880.0,
                            "default-translation1" : -480.0
                          }
                        }
                    ],
                    "effects" : [

                    ],
                    "start" : 19248,
                    "duration" : 209,
                    "mediaStart" : 5405,
                    "mediaDuration" : 209,
                    "scalar" : 1,
                    "metadata" : {
                      "WinSubProjectDisplayName" : "",
                      "clipSpeedAttribute" : false,
                      "default-scale0" : 0.8,
                      "default-scale1" : 0.8,
                      "default-translation0" : 703.999999999945,
                      "default-translation1" : -347.999999999936
                    },
                    "animationTracks" : {

                    }
                  },
                  {
                    "id" : 679,
                    "_type" : "StitchedMedia",
                    "minMediaStart" : 0,
                    "attributes" : {
                      "ident" : "Rec 02-07-19_001",
                      "gain" : 1.0,
                      "mixToMono" : false
                    },
                    "parameters" : {
                      "translation0" : {
                        "type" : "double",
                        "defaultValue" : 703.999999999945,
                        "interp" : "eioe"
                      },
                      "translation1" : {
                        "type" : "double",
                        "defaultValue" : -347.999999999936,
                        "interp" : "eioe"
                      },
                      "scale0" : {
                        "type" : "double",
                        "defaultValue" : 0.8,
                        "interp" : "eioe"
                      },
                      "scale1" : {
                        "type" : "double",
                        "defaultValue" : 0.8,
                        "interp" : "eioe"
                      },
                      "volume" : 1.0,
                      "cursorOpacity" : {
                        "type" : "double",
                        "defaultValue" : 1.0,
                        "interp" : "linr"
                      },
                      "cursorScale" : {
                        "type" : "double",
                        "defaultValue" : 1.0,
                        "interp" : "linr"
                      }
                    },
                    "medias" : [
                        {
                          "id" : 680,
                          "_type" : "UnifiedMedia",
                          "video" : 
                              {
                                "id" : 681,
                                "_type" : "VMFile",
                                "src" : 7,
                                "trackNumber" : 1,
                                "attributes" : {
                                  "ident" : "Rec 02-07-19_001"
                                },
                                "effects" : [

                                ],
                                "start" : 0,
                                "duration" : 496,
                                "mediaStart" : 0,
                                "mediaDuration" : 496,
                                "scalar" : 1,
                                "animationTracks" : {

                                }
                              },
                          "audio" : 
                              {
                                "id" : 682,
                                "_type" : "AMFile",
                                "src" : 7,
                                "trackNumber" : 2,
                                "attributes" : {
                                  "ident" : "",
                                  "sampleRate" : 44100,
                                  "bitDepth" : 16,
                                  "gain" : 1.0,
                                  "mixToMono" : false
                                },
                                  "channelNumber" : "0,1",
                                "effects" : [

                                ],
                                "start" : 0,
                                "duration" : 496,
                                "mediaStart" : 0,
                                "mediaDuration" : 496,
                                "scalar" : 1,
                                "animationTracks" : {

                                }
                              }
,
                          "start" : 0,
                          "duration" : 496,
                          "mediaStart" : 0,
                          "mediaDuration" : 26386,
                          "scalar" : 1,
                          "metadata" : {
                            "WinSubProjectDisplayName" : "",
                            "clipSpeedAttribute" : false,
                            "default-scale0" : 0.25,
                            "default-scale1" : 0.25,
                            "default-translation0" : 880.0,
                            "default-translation1" : -480.0
                          }
                        },
                        {
                          "id" : 683,
                          "_type" : "UnifiedMedia",
                          "video" : 
                              {
                                "id" : 684,
                                "_type" : "VMFile",
                                "src" : 7,
                                "trackNumber" : 1,
                                "attributes" : {
                                  "ident" : "Rec 02-07-19_001"
                                },
                                "effects" : [

                                ],
                                "start" : 496,
                                "duration" : 190,
                                "mediaStart" : 715,
                                "mediaDuration" : 190,
                                "scalar" : 1,
                                "animationTracks" : {

                                }
                              },
                          "audio" : 
                              {
                                "id" : 685,
                                "_type" : "AMFile",
                                "src" : 7,
                                "trackNumber" : 2,
                                "attributes" : {
                                  "ident" : "",
                                  "sampleRate" : 44100,
                                  "bitDepth" : 16,
                                  "gain" : 1.0,
                                  "mixToMono" : false
                                },
                                  "channelNumber" : "0,1",
                                "effects" : [

                                ],
                                "start" : 496,
                                "duration" : 190,
                                "mediaStart" : 715,
                                "mediaDuration" : 190,
                                "scalar" : 1,
                                "animationTracks" : {

                                }
                              }
,
                          "start" : 496,
                          "duration" : 190,
                          "mediaStart" : 0,
                          "mediaDuration" : 26386,
                          "scalar" : 1,
                          "metadata" : {
                            "WinSubProjectDisplayName" : "",
                            "clipSpeedAttribute" : false,
                            "default-scale0" : 0.25,
                            "default-scale1" : 0.25,
                            "default-translation0" : 880.0,
                            "default-translation1" : -480.0
                          }
                        },
                        {
                          "id" : 686,
                          "_type" : "UnifiedMedia",
                          "video" : 
                              {
                                "id" : 687,
                                "_type" : "VMFile",
                                "src" : 7,
                                "trackNumber" : 1,
                                "attributes" : {
                                  "ident" : "Rec 02-07-19_001"
                                },
                                "effects" : [

                                ],
                                "start" : 686,
                                "duration" : 239,
                                "mediaStart" : 1444,
                                "mediaDuration" : 239,
                                "scalar" : 1,
                                "animationTracks" : {

                                }
                              },
                          "audio" : 
                              {
                                "id" : 688,
                                "_type" : "AMFile",
                                "src" : 7,
                                "trackNumber" : 2,
                                "attributes" : {
                                  "ident" : "",
                                  "sampleRate" : 44100,
                                  "bitDepth" : 16,
                                  "gain" : 1.0,
                                  "mixToMono" : false
                                },
                                  "channelNumber" : "0,1",
                                "effects" : [

                                ],
                                "start" : 686,
                                "duration" : 239,
                                "mediaStart" : 1444,
                                "mediaDuration" : 239,
                                "scalar" : 1,
                                "animationTracks" : {

                                }
                              }
,
                          "start" : 686,
                          "duration" : 239,
                          "mediaStart" : 0,
                          "mediaDuration" : 26386,
                          "scalar" : 1,
                          "metadata" : {
                            "WinSubProjectDisplayName" : "",
                            "clipSpeedAttribute" : false,
                            "default-scale0" : 0.25,
                            "default-scale1" : 0.25,
                            "default-translation0" : 880.0,
                            "default-translation1" : -480.0
                          }
                        },
                        {
                          "id" : 689,
                          "_type" : "UnifiedMedia",
                          "video" : 
                              {
                                "id" : 690,
                                "_type" : "VMFile",
                                "src" : 7,
                                "trackNumber" : 1,
                                "attributes" : {
                                  "ident" : "Rec 02-07-19_001"
                                },
                                "effects" : [

                                ],
                                "start" : 925,
                                "duration" : 128,
                                "mediaStart" : 1750,
                                "mediaDuration" : 128,
                                "scalar" : 1,
                                "animationTracks" : {

                                }
                              },
                          "audio" : 
                              {
                                "id" : 691,
                                "_type" : "AMFile",
                                "src" : 7,
                                "trackNumber" : 2,
                                "attributes" : {
                                  "ident" : "",
                                  "sampleRate" : 44100,
                                  "bitDepth" : 16,
                                  "gain" : 1.0,
                                  "mixToMono" : false
                                },
                                  "channelNumber" : "0,1",
                                "effects" : [

                                ],
                                "start" : 925,
                                "duration" : 128,
                                "mediaStart" : 1750,
                                "mediaDuration" : 128,
                                "scalar" : 1,
                                "animationTracks" : {

                                }
                              }
,
                          "start" : 925,
                          "duration" : 128,
                          "mediaStart" : 0,
                          "mediaDuration" : 26386,
                          "scalar" : 1,
                          "metadata" : {
                            "WinSubProjectDisplayName" : "",
                            "clipSpeedAttribute" : false,
                            "default-scale0" : 0.25,
                            "default-scale1" : 0.25,
                            "default-translation0" : 880.0,
                            "default-translation1" : -480.0
                          }
                        },
                        {
                          "id" : 692,
                          "_type" : "UnifiedMedia",
                          "video" : 
                              {
                                "id" : 693,
                                "_type" : "VMFile",
                                "src" : 7,
                                "trackNumber" : 1,
                                "attributes" : {
                                  "ident" : "Rec 02-07-19_001"
                                },
                                "effects" : [

                                ],
                                "start" : 1053,
                                "duration" : 298,
                                "mediaStart" : 1939,
                                "mediaDuration" : 298,
                                "scalar" : 1,
                                "animationTracks" : {

                                }
                              },
                          "audio" : 
                              {
                                "id" : 694,
                                "_type" : "AMFile",
                                "src" : 7,
                                "trackNumber" : 2,
                                "attributes" : {
                                  "ident" : "",
                                  "sampleRate" : 44100,
                                  "bitDepth" : 16,
                                  "gain" : 1.0,
                                  "mixToMono" : false
                                },
                                  "channelNumber" : "0,1",
                                "effects" : [

                                ],
                                "start" : 1053,
                                "duration" : 298,
                                "mediaStart" : 1939,
                                "mediaDuration" : 298,
                                "scalar" : 1,
                                "animationTracks" : {

                                }
                              }
,
                          "start" : 1053,
                          "duration" : 298,
                          "mediaStart" : 0,
                          "mediaDuration" : 26386,
                          "scalar" : 1,
                          "metadata" : {
                            "WinSubProjectDisplayName" : "",
                            "clipSpeedAttribute" : false,
                            "default-scale0" : 0.25,
                            "default-scale1" : 0.25,
                            "default-translation0" : 880.0,
                            "default-translation1" : -480.0
                          }
                        },
                        {
                          "id" : 695,
                          "_type" : "UnifiedMedia",
                          "video" : 
                              {
                                "id" : 696,
                                "_type" : "VMFile",
                                "src" : 7,
                                "trackNumber" : 1,
                                "attributes" : {
                                  "ident" : "Rec 02-07-19_001"
                                },
                                "effects" : [

                                ],
                                "start" : 1351,
                                "duration" : 524,
                                "mediaStart" : 2386,
                                "mediaDuration" : 524,
                                "scalar" : 1,
                                "animationTracks" : {

                                }
                              },
                          "audio" : 
                              {
                                "id" : 697,
                                "_type" : "AMFile",
                                "src" : 7,
                                "trackNumber" : 2,
                                "attributes" : {
                                  "ident" : "",
                                  "sampleRate" : 44100,
                                  "bitDepth" : 16,
                                  "gain" : 1.0,
                                  "mixToMono" : false
                                },
                                  "channelNumber" : "0,1",
                                "effects" : [

                                ],
                                "start" : 1351,
                                "duration" : 524,
                                "mediaStart" : 2386,
                                "mediaDuration" : 524,
                                "scalar" : 1,
                                "animationTracks" : {

                                }
                              }
,
                          "start" : 1351,
                          "duration" : 524,
                          "mediaStart" : 0,
                          "mediaDuration" : 26386,
                          "scalar" : 1,
                          "metadata" : {
                            "WinSubProjectDisplayName" : "",
                            "clipSpeedAttribute" : false,
                            "default-scale0" : 0.25,
                            "default-scale1" : 0.25,
                            "default-translation0" : 880.0,
                            "default-translation1" : -480.0
                          }
                        },
                        {
                          "id" : 698,
                          "_type" : "UnifiedMedia",
                          "video" : 
                              {
                                "id" : 699,
                                "_type" : "VMFile",
                                "src" : 7,
                                "trackNumber" : 1,
                                "attributes" : {
                                  "ident" : "Rec 02-07-19_001"
                                },
                                "effects" : [

                                ],
                                "start" : 1875,
                                "duration" : 143,
                                "mediaStart" : 3086,
                                "mediaDuration" : 143,
                                "scalar" : 1,
                                "animationTracks" : {

                                }
                              },
                          "audio" : 
                              {
                                "id" : 700,
                                "_type" : "AMFile",
                                "src" : 7,
                                "trackNumber" : 2,
                                "attributes" : {
                                  "ident" : "",
                                  "sampleRate" : 44100,
                                  "bitDepth" : 16,
                                  "gain" : 1.0,
                                  "mixToMono" : false
                                },
                                  "channelNumber" : "0,1",
                                "effects" : [

                                ],
                                "start" : 1875,
                                "duration" : 143,
                                "mediaStart" : 3086,
                                "mediaDuration" : 143,
                                "scalar" : 1,
                                "animationTracks" : {

                                }
                              }
,
                          "start" : 1875,
                          "duration" : 143,
                          "mediaStart" : 0,
                          "mediaDuration" : 26386,
                          "scalar" : 1,
                          "metadata" : {
                            "WinSubProjectDisplayName" : "",
                            "clipSpeedAttribute" : false,
                            "default-scale0" : 0.25,
                            "default-scale1" : 0.25,
                            "default-translation0" : 880.0,
                            "default-translation1" : -480.0
                          }
                        },
                        {
                          "id" : 701,
                          "_type" : "UnifiedMedia",
                          "video" : 
                              {
                                "id" : 702,
                                "_type" : "VMFile",
                                "src" : 7,
                                "trackNumber" : 1,
                                "attributes" : {
                                  "ident" : "Rec 02-07-19_001"
                                },
                                "effects" : [

                                ],
                                "start" : 2018,
                                "duration" : 1362,
                                "mediaStart" : 3692,
                                "mediaDuration" : 1362,
                                "scalar" : 1,
                                "animationTracks" : {

                                }
                              },
                          "audio" : 
                              {
                                "id" : 703,
                                "_type" : "AMFile",
                                "src" : 7,
                                "trackNumber" : 2,
                                "attributes" : {
                                  "ident" : "",
                                  "sampleRate" : 44100,
                                  "bitDepth" : 16,
                                  "gain" : 1.0,
                                  "mixToMono" : false
                                },
                                  "channelNumber" : "0,1",
                                "effects" : [

                                ],
                                "start" : 2018,
                                "duration" : 1362,
                                "mediaStart" : 3692,
                                "mediaDuration" : 1362,
                                "scalar" : 1,
                                "animationTracks" : {

                                }
                              }
,
                          "start" : 2018,
                          "duration" : 1362,
                          "mediaStart" : 0,
                          "mediaDuration" : 26386,
                          "scalar" : 1,
                          "metadata" : {
                            "WinSubProjectDisplayName" : "",
                            "clipSpeedAttribute" : false,
                            "default-scale0" : 0.25,
                            "default-scale1" : 0.25,
                            "default-translation0" : 880.0,
                            "default-translation1" : -480.0
                          }
                        },
                        {
                          "id" : 704,
                          "_type" : "UnifiedMedia",
                          "video" : 
                              {
                                "id" : 705,
                                "_type" : "VMFile",
                                "src" : 7,
                                "trackNumber" : 1,
                                "attributes" : {
                                  "ident" : "Rec 02-07-19_001"
                                },
                                "effects" : [

                                ],
                                "start" : 3380,
                                "duration" : 218,
                                "mediaStart" : 5246,
                                "mediaDuration" : 218,
                                "scalar" : 1,
                                "animationTracks" : {

                                }
                              },
                          "audio" : 
                              {
                                "id" : 706,
                                "_type" : "AMFile",
                                "src" : 7,
                                "trackNumber" : 2,
                                "attributes" : {
                                  "ident" : "",
                                  "sampleRate" : 44100,
                                  "bitDepth" : 16,
                                  "gain" : 1.0,
                                  "mixToMono" : false
                                },
                                  "channelNumber" : "0,1",
                                "effects" : [

                                ],
                                "start" : 3380,
                                "duration" : 218,
                                "mediaStart" : 5246,
                                "mediaDuration" : 218,
                                "scalar" : 1,
                                "animationTracks" : {

                                }
                              }
,
                          "start" : 3380,
                          "duration" : 218,
                          "mediaStart" : 0,
                          "mediaDuration" : 26386,
                          "scalar" : 1,
                          "metadata" : {
                            "WinSubProjectDisplayName" : "",
                            "clipSpeedAttribute" : false,
                            "default-scale0" : 0.25,
                            "default-scale1" : 0.25,
                            "default-translation0" : 880.0,
                            "default-translation1" : -480.0
                          }
                        },
                        {
                          "id" : 707,
                          "_type" : "UnifiedMedia",
                          "video" : 
                              {
                                "id" : 708,
                                "_type" : "VMFile",
                                "src" : 7,
                                "trackNumber" : 1,
                                "attributes" : {
                                  "ident" : "Rec 02-07-19_001"
                                },
                                "effects" : [

                                ],
                                "start" : 3598,
                                "duration" : 473,
                                "mediaStart" : 6154,
                                "mediaDuration" : 473,
                                "scalar" : 1,
                                "animationTracks" : {

                                }
                              },
                          "audio" : 
                              {
                                "id" : 709,
                                "_type" : "AMFile",
                                "src" : 7,
                                "trackNumber" : 2,
                                "attributes" : {
                                  "ident" : "",
                                  "sampleRate" : 44100,
                                  "bitDepth" : 16,
                                  "gain" : 1.0,
                                  "mixToMono" : false
                                },
                                  "channelNumber" : "0,1",
                                "effects" : [

                                ],
                                "start" : 3598,
                                "duration" : 473,
                                "mediaStart" : 6154,
                                "mediaDuration" : 473,
                                "scalar" : 1,
                                "animationTracks" : {

                                }
                              }
,
                          "start" : 3598,
                          "duration" : 473,
                          "mediaStart" : 0,
                          "mediaDuration" : 26386,
                          "scalar" : 1,
                          "metadata" : {
                            "WinSubProjectDisplayName" : "",
                            "clipSpeedAttribute" : false,
                            "default-scale0" : 0.25,
                            "default-scale1" : 0.25,
                            "default-translation0" : 880.0,
                            "default-translation1" : -480.0
                          }
                        },
                        {
                          "id" : 710,
                          "_type" : "UnifiedMedia",
                          "video" : 
                              {
                                "id" : 711,
                                "_type" : "VMFile",
                                "src" : 7,
                                "trackNumber" : 1,
                                "attributes" : {
                                  "ident" : "Rec 02-07-19_001"
                                },
                                "effects" : [

                                ],
                                "start" : 4071,
                                "duration" : 164,
                                "mediaStart" : 6726,
                                "mediaDuration" : 164,
                                "scalar" : 1,
                                "animationTracks" : {

                                }
                              },
                          "audio" : 
                              {
                                "id" : 712,
                                "_type" : "AMFile",
                                "src" : 7,
                                "trackNumber" : 2,
                                "attributes" : {
                                  "ident" : "",
                                  "sampleRate" : 44100,
                                  "bitDepth" : 16,
                                  "gain" : 1.0,
                                  "mixToMono" : false
                                },
                                  "channelNumber" : "0,1",
                                "effects" : [

                                ],
                                "start" : 4071,
                                "duration" : 164,
                                "mediaStart" : 6726,
                                "mediaDuration" : 164,
                                "scalar" : 1,
                                "animationTracks" : {

                                }
                              }
,
                          "start" : 4071,
                          "duration" : 164,
                          "mediaStart" : 0,
                          "mediaDuration" : 26386,
                          "scalar" : 1,
                          "metadata" : {
                            "WinSubProjectDisplayName" : "",
                            "clipSpeedAttribute" : false,
                            "default-scale0" : 0.25,
                            "default-scale1" : 0.25,
                            "default-translation0" : 880.0,
                            "default-translation1" : -480.0
                          }
                        },
                        {
                          "id" : 713,
                          "_type" : "UnifiedMedia",
                          "video" : 
                              {
                                "id" : 714,
                                "_type" : "VMFile",
                                "src" : 7,
                                "trackNumber" : 1,
                                "attributes" : {
                                  "ident" : "Rec 02-07-19_001"
                                },
                                "effects" : [

                                ],
                                "start" : 4235,
                                "duration" : 1279,
                                "mediaStart" : 7107,
                                "mediaDuration" : 1279,
                                "scalar" : 1,
                                "animationTracks" : {

                                }
                              },
                          "audio" : 
                              {
                                "id" : 715,
                                "_type" : "AMFile",
                                "src" : 7,
                                "trackNumber" : 2,
                                "attributes" : {
                                  "ident" : "",
                                  "sampleRate" : 44100,
                                  "bitDepth" : 16,
                                  "gain" : 1.0,
                                  "mixToMono" : false
                                },
                                  "channelNumber" : "0,1",
                                "effects" : [

                                ],
                                "start" : 4235,
                                "duration" : 1279,
                                "mediaStart" : 7107,
                                "mediaDuration" : 1279,
                                "scalar" : 1,
                                "animationTracks" : {

                                }
                              }
,
                          "start" : 4235,
                          "duration" : 1279,
                          "mediaStart" : 0,
                          "mediaDuration" : 26386,
                          "scalar" : 1,
                          "metadata" : {
                            "WinSubProjectDisplayName" : "",
                            "clipSpeedAttribute" : false,
                            "default-scale0" : 0.25,
                            "default-scale1" : 0.25,
                            "default-translation0" : 880.0,
                            "default-translation1" : -480.0
                          }
                        },
                        {
                          "id" : 716,
                          "_type" : "UnifiedMedia",
                          "video" : 
                              {
                                "id" : 717,
                                "_type" : "VMFile",
                                "src" : 7,
                                "trackNumber" : 1,
                                "attributes" : {
                                  "ident" : "Rec 02-07-19_001"
                                },
                                "effects" : [

                                ],
                                "start" : 5514,
                                "duration" : 17868,
                                "mediaStart" : 8518,
                                "mediaDuration" : 17868,
                                "scalar" : 1,
                                "animationTracks" : {

                                }
                              },
                          "audio" : 
                              {
                                "id" : 718,
                                "_type" : "AMFile",
                                "src" : 7,
                                "trackNumber" : 2,
                                "attributes" : {
                                  "ident" : "",
                                  "sampleRate" : 44100,
                                  "bitDepth" : 16,
                                  "gain" : 1.0,
                                  "mixToMono" : false
                                },
                                  "channelNumber" : "0,1",
                                "effects" : [

                                ],
                                "start" : 5514,
                                "duration" : 17868,
                                "mediaStart" : 8518,
                                "mediaDuration" : 17868,
                                "scalar" : 1,
                                "animationTracks" : {

                                }
                              }
,
                          "start" : 5514,
                          "duration" : 17868,
                          "mediaStart" : 0,
                          "mediaDuration" : 26386,
                          "scalar" : 1,
                          "metadata" : {
                            "WinSubProjectDisplayName" : "",
                            "clipSpeedAttribute" : false,
                            "default-scale0" : 0.25,
                            "default-scale1" : 0.25,
                            "default-translation0" : 880.0,
                            "default-translation1" : -480.0
                          }
                        }
                    ],
                    "effects" : [

                    ],
                    "start" : 19457,
                    "duration" : 104,
                    "mediaStart" : 5614,
                    "mediaDuration" : 311,
                    "scalar" : "104/311",
                    "metadata" : {
                      "WinSubProjectDisplayName" : "",
                      "clipSpeedAttribute" : true,
                      "default-scale0" : 0.8,
                      "default-scale1" : 0.8,
                      "default-translation0" : 703.999999999945,
                      "default-translation1" : -347.999999999936
                    },
                    "animationTracks" : {

                    }
                  },
                  {
                    "id" : 719,
                    "_type" : "StitchedMedia",
                    "minMediaStart" : 0,
                    "attributes" : {
                      "ident" : "Rec 02-07-19_001",
                      "gain" : 1.0,
                      "mixToMono" : false
                    },
                    "parameters" : {
                      "translation0" : 703.999999999945,
                      "translation1" : -347.999999999936,
                      "scale0" : 0.8,
                      "scale1" : 0.8,
                      "volume" : 1.0,
                      "cursorOpacity" : 1.0,
                      "cursorScale" : 1.0
                    },
                    "medias" : [
                        {
                          "id" : 720,
                          "_type" : "UnifiedMedia",
                          "video" : 
                              {
                                "id" : 721,
                                "_type" : "VMFile",
                                "src" : 7,
                                "trackNumber" : 1,
                                "attributes" : {
                                  "ident" : "Rec 02-07-19_001"
                                },
                                "effects" : [

                                ],
                                "start" : 0,
                                "duration" : 496,
                                "mediaStart" : 0,
                                "mediaDuration" : 496,
                                "scalar" : 1,
                                "animationTracks" : {

                                }
                              },
                          "audio" : 
                              {
                                "id" : 722,
                                "_type" : "AMFile",
                                "src" : 7,
                                "trackNumber" : 2,
                                "attributes" : {
                                  "ident" : "",
                                  "sampleRate" : 44100,
                                  "bitDepth" : 16,
                                  "gain" : 1.0,
                                  "mixToMono" : false
                                },
                                  "channelNumber" : "0,1",
                                "effects" : [

                                ],
                                "start" : 0,
                                "duration" : 496,
                                "mediaStart" : 0,
                                "mediaDuration" : 496,
                                "scalar" : 1,
                                "animationTracks" : {

                                }
                              }
,
                          "start" : 0,
                          "duration" : 496,
                          "mediaStart" : 0,
                          "mediaDuration" : 26386,
                          "scalar" : 1,
                          "metadata" : {
                            "WinSubProjectDisplayName" : "",
                            "clipSpeedAttribute" : false,
                            "default-scale0" : 0.25,
                            "default-scale1" : 0.25,
                            "default-translation0" : 880.0,
                            "default-translation1" : -480.0
                          }
                        },
                        {
                          "id" : 723,
                          "_type" : "UnifiedMedia",
                          "video" : 
                              {
                                "id" : 724,
                                "_type" : "VMFile",
                                "src" : 7,
                                "trackNumber" : 1,
                                "attributes" : {
                                  "ident" : "Rec 02-07-19_001"
                                },
                                "effects" : [

                                ],
                                "start" : 496,
                                "duration" : 190,
                                "mediaStart" : 715,
                                "mediaDuration" : 190,
                                "scalar" : 1,
                                "animationTracks" : {

                                }
                              },
                          "audio" : 
                              {
                                "id" : 725,
                                "_type" : "AMFile",
                                "src" : 7,
                                "trackNumber" : 2,
                                "attributes" : {
                                  "ident" : "",
                                  "sampleRate" : 44100,
                                  "bitDepth" : 16,
                                  "gain" : 1.0,
                                  "mixToMono" : false
                                },
                                  "channelNumber" : "0,1",
                                "effects" : [

                                ],
                                "start" : 496,
                                "duration" : 190,
                                "mediaStart" : 715,
                                "mediaDuration" : 190,
                                "scalar" : 1,
                                "animationTracks" : {

                                }
                              }
,
                          "start" : 496,
                          "duration" : 190,
                          "mediaStart" : 0,
                          "mediaDuration" : 26386,
                          "scalar" : 1,
                          "metadata" : {
                            "WinSubProjectDisplayName" : "",
                            "clipSpeedAttribute" : false,
                            "default-scale0" : 0.25,
                            "default-scale1" : 0.25,
                            "default-translation0" : 880.0,
                            "default-translation1" : -480.0
                          }
                        },
                        {
                          "id" : 726,
                          "_type" : "UnifiedMedia",
                          "video" : 
                              {
                                "id" : 727,
                                "_type" : "VMFile",
                                "src" : 7,
                                "trackNumber" : 1,
                                "attributes" : {
                                  "ident" : "Rec 02-07-19_001"
                                },
                                "effects" : [

                                ],
                                "start" : 686,
                                "duration" : 239,
                                "mediaStart" : 1444,
                                "mediaDuration" : 239,
                                "scalar" : 1,
                                "animationTracks" : {

                                }
                              },
                          "audio" : 
                              {
                                "id" : 728,
                                "_type" : "AMFile",
                                "src" : 7,
                                "trackNumber" : 2,
                                "attributes" : {
                                  "ident" : "",
                                  "sampleRate" : 44100,
                                  "bitDepth" : 16,
                                  "gain" : 1.0,
                                  "mixToMono" : false
                                },
                                  "channelNumber" : "0,1",
                                "effects" : [

                                ],
                                "start" : 686,
                                "duration" : 239,
                                "mediaStart" : 1444,
                                "mediaDuration" : 239,
                                "scalar" : 1,
                                "animationTracks" : {

                                }
                              }
,
                          "start" : 686,
                          "duration" : 239,
                          "mediaStart" : 0,
                          "mediaDuration" : 26386,
                          "scalar" : 1,
                          "metadata" : {
                            "WinSubProjectDisplayName" : "",
                            "clipSpeedAttribute" : false,
                            "default-scale0" : 0.25,
                            "default-scale1" : 0.25,
                            "default-translation0" : 880.0,
                            "default-translation1" : -480.0
                          }
                        },
                        {
                          "id" : 729,
                          "_type" : "UnifiedMedia",
                          "video" : 
                              {
                                "id" : 730,
                                "_type" : "VMFile",
                                "src" : 7,
                                "trackNumber" : 1,
                                "attributes" : {
                                  "ident" : "Rec 02-07-19_001"
                                },
                                "effects" : [

                                ],
                                "start" : 925,
                                "duration" : 128,
                                "mediaStart" : 1750,
                                "mediaDuration" : 128,
                                "scalar" : 1,
                                "animationTracks" : {

                                }
                              },
                          "audio" : 
                              {
                                "id" : 731,
                                "_type" : "AMFile",
                                "src" : 7,
                                "trackNumber" : 2,
                                "attributes" : {
                                  "ident" : "",
                                  "sampleRate" : 44100,
                                  "bitDepth" : 16,
                                  "gain" : 1.0,
                                  "mixToMono" : false
                                },
                                  "channelNumber" : "0,1",
                                "effects" : [

                                ],
                                "start" : 925,
                                "duration" : 128,
                                "mediaStart" : 1750,
                                "mediaDuration" : 128,
                                "scalar" : 1,
                                "animationTracks" : {

                                }
                              }
,
                          "start" : 925,
                          "duration" : 128,
                          "mediaStart" : 0,
                          "mediaDuration" : 26386,
                          "scalar" : 1,
                          "metadata" : {
                            "WinSubProjectDisplayName" : "",
                            "clipSpeedAttribute" : false,
                            "default-scale0" : 0.25,
                            "default-scale1" : 0.25,
                            "default-translation0" : 880.0,
                            "default-translation1" : -480.0
                          }
                        },
                        {
                          "id" : 732,
                          "_type" : "UnifiedMedia",
                          "video" : 
                              {
                                "id" : 733,
                                "_type" : "VMFile",
                                "src" : 7,
                                "trackNumber" : 1,
                                "attributes" : {
                                  "ident" : "Rec 02-07-19_001"
                                },
                                "effects" : [

                                ],
                                "start" : 1053,
                                "duration" : 298,
                                "mediaStart" : 1939,
                                "mediaDuration" : 298,
                                "scalar" : 1,
                                "animationTracks" : {

                                }
                              },
                          "audio" : 
                              {
                                "id" : 734,
                                "_type" : "AMFile",
                                "src" : 7,
                                "trackNumber" : 2,
                                "attributes" : {
                                  "ident" : "",
                                  "sampleRate" : 44100,
                                  "bitDepth" : 16,
                                  "gain" : 1.0,
                                  "mixToMono" : false
                                },
                                  "channelNumber" : "0,1",
                                "effects" : [

                                ],
                                "start" : 1053,
                                "duration" : 298,
                                "mediaStart" : 1939,
                                "mediaDuration" : 298,
                                "scalar" : 1,
                                "animationTracks" : {

                                }
                              }
,
                          "start" : 1053,
                          "duration" : 298,
                          "mediaStart" : 0,
                          "mediaDuration" : 26386,
                          "scalar" : 1,
                          "metadata" : {
                            "WinSubProjectDisplayName" : "",
                            "clipSpeedAttribute" : false,
                            "default-scale0" : 0.25,
                            "default-scale1" : 0.25,
                            "default-translation0" : 880.0,
                            "default-translation1" : -480.0
                          }
                        },
                        {
                          "id" : 735,
                          "_type" : "UnifiedMedia",
                          "video" : 
                              {
                                "id" : 736,
                                "_type" : "VMFile",
                                "src" : 7,
                                "trackNumber" : 1,
                                "attributes" : {
                                  "ident" : "Rec 02-07-19_001"
                                },
                                "effects" : [

                                ],
                                "start" : 1351,
                                "duration" : 524,
                                "mediaStart" : 2386,
                                "mediaDuration" : 524,
                                "scalar" : 1,
                                "animationTracks" : {

                                }
                              },
                          "audio" : 
                              {
                                "id" : 737,
                                "_type" : "AMFile",
                                "src" : 7,
                                "trackNumber" : 2,
                                "attributes" : {
                                  "ident" : "",
                                  "sampleRate" : 44100,
                                  "bitDepth" : 16,
                                  "gain" : 1.0,
                                  "mixToMono" : false
                                },
                                  "channelNumber" : "0,1",
                                "effects" : [

                                ],
                                "start" : 1351,
                                "duration" : 524,
                                "mediaStart" : 2386,
                                "mediaDuration" : 524,
                                "scalar" : 1,
                                "animationTracks" : {

                                }
                              }
,
                          "start" : 1351,
                          "duration" : 524,
                          "mediaStart" : 0,
                          "mediaDuration" : 26386,
                          "scalar" : 1,
                          "metadata" : {
                            "WinSubProjectDisplayName" : "",
                            "clipSpeedAttribute" : false,
                            "default-scale0" : 0.25,
                            "default-scale1" : 0.25,
                            "default-translation0" : 880.0,
                            "default-translation1" : -480.0
                          }
                        },
                        {
                          "id" : 738,
                          "_type" : "UnifiedMedia",
                          "video" : 
                              {
                                "id" : 739,
                                "_type" : "VMFile",
                                "src" : 7,
                                "trackNumber" : 1,
                                "attributes" : {
                                  "ident" : "Rec 02-07-19_001"
                                },
                                "effects" : [

                                ],
                                "start" : 1875,
                                "duration" : 143,
                                "mediaStart" : 3086,
                                "mediaDuration" : 143,
                                "scalar" : 1,
                                "animationTracks" : {

                                }
                              },
                          "audio" : 
                              {
                                "id" : 740,
                                "_type" : "AMFile",
                                "src" : 7,
                                "trackNumber" : 2,
                                "attributes" : {
                                  "ident" : "",
                                  "sampleRate" : 44100,
                                  "bitDepth" : 16,
                                  "gain" : 1.0,
                                  "mixToMono" : false
                                },
                                  "channelNumber" : "0,1",
                                "effects" : [

                                ],
                                "start" : 1875,
                                "duration" : 143,
                                "mediaStart" : 3086,
                                "mediaDuration" : 143,
                                "scalar" : 1,
                                "animationTracks" : {

                                }
                              }
,
                          "start" : 1875,
                          "duration" : 143,
                          "mediaStart" : 0,
                          "mediaDuration" : 26386,
                          "scalar" : 1,
                          "metadata" : {
                            "WinSubProjectDisplayName" : "",
                            "clipSpeedAttribute" : false,
                            "default-scale0" : 0.25,
                            "default-scale1" : 0.25,
                            "default-translation0" : 880.0,
                            "default-translation1" : -480.0
                          }
                        },
                        {
                          "id" : 741,
                          "_type" : "UnifiedMedia",
                          "video" : 
                              {
                                "id" : 742,
                                "_type" : "VMFile",
                                "src" : 7,
                                "trackNumber" : 1,
                                "attributes" : {
                                  "ident" : "Rec 02-07-19_001"
                                },
                                "effects" : [

                                ],
                                "start" : 2018,
                                "duration" : 1362,
                                "mediaStart" : 3692,
                                "mediaDuration" : 1362,
                                "scalar" : 1,
                                "animationTracks" : {

                                }
                              },
                          "audio" : 
                              {
                                "id" : 743,
                                "_type" : "AMFile",
                                "src" : 7,
                                "trackNumber" : 2,
                                "attributes" : {
                                  "ident" : "",
                                  "sampleRate" : 44100,
                                  "bitDepth" : 16,
                                  "gain" : 1.0,
                                  "mixToMono" : false
                                },
                                  "channelNumber" : "0,1",
                                "effects" : [

                                ],
                                "start" : 2018,
                                "duration" : 1362,
                                "mediaStart" : 3692,
                                "mediaDuration" : 1362,
                                "scalar" : 1,
                                "animationTracks" : {

                                }
                              }
,
                          "start" : 2018,
                          "duration" : 1362,
                          "mediaStart" : 0,
                          "mediaDuration" : 26386,
                          "scalar" : 1,
                          "metadata" : {
                            "WinSubProjectDisplayName" : "",
                            "clipSpeedAttribute" : false,
                            "default-scale0" : 0.25,
                            "default-scale1" : 0.25,
                            "default-translation0" : 880.0,
                            "default-translation1" : -480.0
                          }
                        },
                        {
                          "id" : 744,
                          "_type" : "UnifiedMedia",
                          "video" : 
                              {
                                "id" : 745,
                                "_type" : "VMFile",
                                "src" : 7,
                                "trackNumber" : 1,
                                "attributes" : {
                                  "ident" : "Rec 02-07-19_001"
                                },
                                "effects" : [

                                ],
                                "start" : 3380,
                                "duration" : 218,
                                "mediaStart" : 5246,
                                "mediaDuration" : 218,
                                "scalar" : 1,
                                "animationTracks" : {

                                }
                              },
                          "audio" : 
                              {
                                "id" : 746,
                                "_type" : "AMFile",
                                "src" : 7,
                                "trackNumber" : 2,
                                "attributes" : {
                                  "ident" : "",
                                  "sampleRate" : 44100,
                                  "bitDepth" : 16,
                                  "gain" : 1.0,
                                  "mixToMono" : false
                                },
                                  "channelNumber" : "0,1",
                                "effects" : [

                                ],
                                "start" : 3380,
                                "duration" : 218,
                                "mediaStart" : 5246,
                                "mediaDuration" : 218,
                                "scalar" : 1,
                                "animationTracks" : {

                                }
                              }
,
                          "start" : 3380,
                          "duration" : 218,
                          "mediaStart" : 0,
                          "mediaDuration" : 26386,
                          "scalar" : 1,
                          "metadata" : {
                            "WinSubProjectDisplayName" : "",
                            "clipSpeedAttribute" : false,
                            "default-scale0" : 0.25,
                            "default-scale1" : 0.25,
                            "default-translation0" : 880.0,
                            "default-translation1" : -480.0
                          }
                        },
                        {
                          "id" : 747,
                          "_type" : "UnifiedMedia",
                          "video" : 
                              {
                                "id" : 748,
                                "_type" : "VMFile",
                                "src" : 7,
                                "trackNumber" : 1,
                                "attributes" : {
                                  "ident" : "Rec 02-07-19_001"
                                },
                                "effects" : [

                                ],
                                "start" : 3598,
                                "duration" : 473,
                                "mediaStart" : 6154,
                                "mediaDuration" : 473,
                                "scalar" : 1,
                                "animationTracks" : {

                                }
                              },
                          "audio" : 
                              {
                                "id" : 749,
                                "_type" : "AMFile",
                                "src" : 7,
                                "trackNumber" : 2,
                                "attributes" : {
                                  "ident" : "",
                                  "sampleRate" : 44100,
                                  "bitDepth" : 16,
                                  "gain" : 1.0,
                                  "mixToMono" : false
                                },
                                  "channelNumber" : "0,1",
                                "effects" : [

                                ],
                                "start" : 3598,
                                "duration" : 473,
                                "mediaStart" : 6154,
                                "mediaDuration" : 473,
                                "scalar" : 1,
                                "animationTracks" : {

                                }
                              }
,
                          "start" : 3598,
                          "duration" : 473,
                          "mediaStart" : 0,
                          "mediaDuration" : 26386,
                          "scalar" : 1,
                          "metadata" : {
                            "WinSubProjectDisplayName" : "",
                            "clipSpeedAttribute" : false,
                            "default-scale0" : 0.25,
                            "default-scale1" : 0.25,
                            "default-translation0" : 880.0,
                            "default-translation1" : -480.0
                          }
                        },
                        {
                          "id" : 750,
                          "_type" : "UnifiedMedia",
                          "video" : 
                              {
                                "id" : 751,
                                "_type" : "VMFile",
                                "src" : 7,
                                "trackNumber" : 1,
                                "attributes" : {
                                  "ident" : "Rec 02-07-19_001"
                                },
                                "effects" : [

                                ],
                                "start" : 4071,
                                "duration" : 164,
                                "mediaStart" : 6726,
                                "mediaDuration" : 164,
                                "scalar" : 1,
                                "animationTracks" : {

                                }
                              },
                          "audio" : 
                              {
                                "id" : 752,
                                "_type" : "AMFile",
                                "src" : 7,
                                "trackNumber" : 2,
                                "attributes" : {
                                  "ident" : "",
                                  "sampleRate" : 44100,
                                  "bitDepth" : 16,
                                  "gain" : 1.0,
                                  "mixToMono" : false
                                },
                                  "channelNumber" : "0,1",
                                "effects" : [

                                ],
                                "start" : 4071,
                                "duration" : 164,
                                "mediaStart" : 6726,
                                "mediaDuration" : 164,
                                "scalar" : 1,
                                "animationTracks" : {

                                }
                              }
,
                          "start" : 4071,
                          "duration" : 164,
                          "mediaStart" : 0,
                          "mediaDuration" : 26386,
                          "scalar" : 1,
                          "metadata" : {
                            "WinSubProjectDisplayName" : "",
                            "clipSpeedAttribute" : false,
                            "default-scale0" : 0.25,
                            "default-scale1" : 0.25,
                            "default-translation0" : 880.0,
                            "default-translation1" : -480.0
                          }
                        },
                        {
                          "id" : 753,
                          "_type" : "UnifiedMedia",
                          "video" : 
                              {
                                "id" : 754,
                                "_type" : "VMFile",
                                "src" : 7,
                                "trackNumber" : 1,
                                "attributes" : {
                                  "ident" : "Rec 02-07-19_001"
                                },
                                "effects" : [

                                ],
                                "start" : 4235,
                                "duration" : 1279,
                                "mediaStart" : 7107,
                                "mediaDuration" : 1279,
                                "scalar" : 1,
                                "animationTracks" : {

                                }
                              },
                          "audio" : 
                              {
                                "id" : 755,
                                "_type" : "AMFile",
                                "src" : 7,
                                "trackNumber" : 2,
                                "attributes" : {
                                  "ident" : "",
                                  "sampleRate" : 44100,
                                  "bitDepth" : 16,
                                  "gain" : 1.0,
                                  "mixToMono" : false
                                },
                                  "channelNumber" : "0,1",
                                "effects" : [

                                ],
                                "start" : 4235,
                                "duration" : 1279,
                                "mediaStart" : 7107,
                                "mediaDuration" : 1279,
                                "scalar" : 1,
                                "animationTracks" : {

                                }
                              }
,
                          "start" : 4235,
                          "duration" : 1279,
                          "mediaStart" : 0,
                          "mediaDuration" : 26386,
                          "scalar" : 1,
                          "metadata" : {
                            "WinSubProjectDisplayName" : "",
                            "clipSpeedAttribute" : false,
                            "default-scale0" : 0.25,
                            "default-scale1" : 0.25,
                            "default-translation0" : 880.0,
                            "default-translation1" : -480.0
                          }
                        },
                        {
                          "id" : 756,
                          "_type" : "UnifiedMedia",
                          "video" : 
                              {
                                "id" : 757,
                                "_type" : "VMFile",
                                "src" : 7,
                                "trackNumber" : 1,
                                "attributes" : {
                                  "ident" : "Rec 02-07-19_001"
                                },
                                "effects" : [

                                ],
                                "start" : 5514,
                                "duration" : 1542,
                                "mediaStart" : 8518,
                                "mediaDuration" : 1542,
                                "scalar" : 1,
                                "animationTracks" : {

                                }
                              },
                          "audio" : 
                              {
                                "id" : 758,
                                "_type" : "AMFile",
                                "src" : 7,
                                "trackNumber" : 2,
                                "attributes" : {
                                  "ident" : "",
                                  "sampleRate" : 44100,
                                  "bitDepth" : 16,
                                  "gain" : 1.0,
                                  "mixToMono" : false
                                },
                                  "channelNumber" : "0,1",
                                "effects" : [

                                ],
                                "start" : 5514,
                                "duration" : 1542,
                                "mediaStart" : 8518,
                                "mediaDuration" : 1542,
                                "scalar" : 1,
                                "animationTracks" : {

                                }
                              }
,
                          "start" : 5514,
                          "duration" : 1542,
                          "mediaStart" : 0,
                          "mediaDuration" : 26386,
                          "scalar" : 1,
                          "metadata" : {
                            "WinSubProjectDisplayName" : "",
                            "clipSpeedAttribute" : false,
                            "default-scale0" : 0.25,
                            "default-scale1" : 0.25,
                            "default-translation0" : 880.0,
                            "default-translation1" : -480.0
                          }
                        },
                        {
                          "id" : 759,
                          "_type" : "UnifiedMedia",
                          "video" : 
                              {
                                "id" : 760,
                                "_type" : "VMFile",
                                "src" : 7,
                                "trackNumber" : 1,
                                "attributes" : {
                                  "ident" : "Rec 02-07-19_001"
                                },
                                "effects" : [

                                ],
                                "start" : 7056,
                                "duration" : 15994,
                                "mediaStart" : 10392,
                                "mediaDuration" : 15994,
                                "scalar" : 1,
                                "animationTracks" : {

                                }
                              },
                          "audio" : 
                              {
                                "id" : 761,
                                "_type" : "AMFile",
                                "src" : 7,
                                "trackNumber" : 2,
                                "attributes" : {
                                  "ident" : "",
                                  "sampleRate" : 44100,
                                  "bitDepth" : 16,
                                  "gain" : 1.0,
                                  "mixToMono" : false
                                },
                                  "channelNumber" : "0,1",
                                "effects" : [

                                ],
                                "start" : 7056,
                                "duration" : 15994,
                                "mediaStart" : 10392,
                                "mediaDuration" : 15994,
                                "scalar" : 1,
                                "animationTracks" : {

                                }
                              }
,
                          "start" : 7056,
                          "duration" : 15994,
                          "mediaStart" : 0,
                          "mediaDuration" : 26386,
                          "scalar" : 1,
                          "metadata" : {
                            "WinSubProjectDisplayName" : "",
                            "clipSpeedAttribute" : false,
                            "default-scale0" : 0.25,
                            "default-scale1" : 0.25,
                            "default-translation0" : 880.0,
                            "default-translation1" : -480.0
                          }
                        }
                    ],
                    "effects" : [

                    ],
                    "start" : 19561,
                    "duration" : 1466,
                    "mediaStart" : 5925,
                    "mediaDuration" : 1466,
                    "scalar" : 1,
                    "metadata" : {
                      "WinSubProjectDisplayName" : "",
                      "clipSpeedAttribute" : false
                    },
                    "animationTracks" : {

                    }
                  },
                  {
                    "id" : 762,
                    "_type" : "StitchedMedia",
                    "minMediaStart" : 0,
                    "attributes" : {
                      "ident" : "Rec 02-07-19_001",
                      "gain" : 1.0,
                      "mixToMono" : false
                    },
                    "parameters" : {
                      "translation0" : {
                        "type" : "double",
                        "defaultValue" : 703.999999999945,
                        "interp" : "eioe"
                      },
                      "translation1" : {
                        "type" : "double",
                        "defaultValue" : -347.999999999936,
                        "interp" : "eioe"
                      },
                      "scale0" : {
                        "type" : "double",
                        "defaultValue" : 0.8,
                        "interp" : "eioe"
                      },
                      "scale1" : {
                        "type" : "double",
                        "defaultValue" : 0.8,
                        "interp" : "eioe"
                      },
                      "volume" : 1.0,
                      "cursorOpacity" : {
                        "type" : "double",
                        "defaultValue" : 1.0,
                        "interp" : "linr"
                      },
                      "cursorScale" : {
                        "type" : "double",
                        "defaultValue" : 1.0,
                        "interp" : "linr"
                      }
                    },
                    "medias" : [
                        {
                          "id" : 763,
                          "_type" : "UnifiedMedia",
                          "video" : 
                              {
                                "id" : 764,
                                "_type" : "VMFile",
                                "src" : 7,
                                "trackNumber" : 1,
                                "attributes" : {
                                  "ident" : "Rec 02-07-19_001"
                                },
                                "effects" : [

                                ],
                                "start" : 0,
                                "duration" : 496,
                                "mediaStart" : 0,
                                "mediaDuration" : 496,
                                "scalar" : 1,
                                "animationTracks" : {

                                }
                              },
                          "audio" : 
                              {
                                "id" : 765,
                                "_type" : "AMFile",
                                "src" : 7,
                                "trackNumber" : 2,
                                "attributes" : {
                                  "ident" : "",
                                  "sampleRate" : 44100,
                                  "bitDepth" : 16,
                                  "gain" : 1.0,
                                  "mixToMono" : false
                                },
                                  "channelNumber" : "0,1",
                                "effects" : [

                                ],
                                "start" : 0,
                                "duration" : 496,
                                "mediaStart" : 0,
                                "mediaDuration" : 496,
                                "scalar" : 1,
                                "animationTracks" : {

                                }
                              }
,
                          "start" : 0,
                          "duration" : 496,
                          "mediaStart" : 0,
                          "mediaDuration" : 26386,
                          "scalar" : 1,
                          "metadata" : {
                            "WinSubProjectDisplayName" : "",
                            "clipSpeedAttribute" : false,
                            "default-scale0" : 0.25,
                            "default-scale1" : 0.25,
                            "default-translation0" : 880.0,
                            "default-translation1" : -480.0
                          }
                        },
                        {
                          "id" : 766,
                          "_type" : "UnifiedMedia",
                          "video" : 
                              {
                                "id" : 767,
                                "_type" : "VMFile",
                                "src" : 7,
                                "trackNumber" : 1,
                                "attributes" : {
                                  "ident" : "Rec 02-07-19_001"
                                },
                                "effects" : [

                                ],
                                "start" : 496,
                                "duration" : 190,
                                "mediaStart" : 715,
                                "mediaDuration" : 190,
                                "scalar" : 1,
                                "animationTracks" : {

                                }
                              },
                          "audio" : 
                              {
                                "id" : 768,
                                "_type" : "AMFile",
                                "src" : 7,
                                "trackNumber" : 2,
                                "attributes" : {
                                  "ident" : "",
                                  "sampleRate" : 44100,
                                  "bitDepth" : 16,
                                  "gain" : 1.0,
                                  "mixToMono" : false
                                },
                                  "channelNumber" : "0,1",
                                "effects" : [

                                ],
                                "start" : 496,
                                "duration" : 190,
                                "mediaStart" : 715,
                                "mediaDuration" : 190,
                                "scalar" : 1,
                                "animationTracks" : {

                                }
                              }
,
                          "start" : 496,
                          "duration" : 190,
                          "mediaStart" : 0,
                          "mediaDuration" : 26386,
                          "scalar" : 1,
                          "metadata" : {
                            "WinSubProjectDisplayName" : "",
                            "clipSpeedAttribute" : false,
                            "default-scale0" : 0.25,
                            "default-scale1" : 0.25,
                            "default-translation0" : 880.0,
                            "default-translation1" : -480.0
                          }
                        },
                        {
                          "id" : 769,
                          "_type" : "UnifiedMedia",
                          "video" : 
                              {
                                "id" : 770,
                                "_type" : "VMFile",
                                "src" : 7,
                                "trackNumber" : 1,
                                "attributes" : {
                                  "ident" : "Rec 02-07-19_001"
                                },
                                "effects" : [

                                ],
                                "start" : 686,
                                "duration" : 239,
                                "mediaStart" : 1444,
                                "mediaDuration" : 239,
                                "scalar" : 1,
                                "animationTracks" : {

                                }
                              },
                          "audio" : 
                              {
                                "id" : 771,
                                "_type" : "AMFile",
                                "src" : 7,
                                "trackNumber" : 2,
                                "attributes" : {
                                  "ident" : "",
                                  "sampleRate" : 44100,
                                  "bitDepth" : 16,
                                  "gain" : 1.0,
                                  "mixToMono" : false
                                },
                                  "channelNumber" : "0,1",
                                "effects" : [

                                ],
                                "start" : 686,
                                "duration" : 239,
                                "mediaStart" : 1444,
                                "mediaDuration" : 239,
                                "scalar" : 1,
                                "animationTracks" : {

                                }
                              }
,
                          "start" : 686,
                          "duration" : 239,
                          "mediaStart" : 0,
                          "mediaDuration" : 26386,
                          "scalar" : 1,
                          "metadata" : {
                            "WinSubProjectDisplayName" : "",
                            "clipSpeedAttribute" : false,
                            "default-scale0" : 0.25,
                            "default-scale1" : 0.25,
                            "default-translation0" : 880.0,
                            "default-translation1" : -480.0
                          }
                        },
                        {
                          "id" : 772,
                          "_type" : "UnifiedMedia",
                          "video" : 
                              {
                                "id" : 773,
                                "_type" : "VMFile",
                                "src" : 7,
                                "trackNumber" : 1,
                                "attributes" : {
                                  "ident" : "Rec 02-07-19_001"
                                },
                                "effects" : [

                                ],
                                "start" : 925,
                                "duration" : 128,
                                "mediaStart" : 1750,
                                "mediaDuration" : 128,
                                "scalar" : 1,
                                "animationTracks" : {

                                }
                              },
                          "audio" : 
                              {
                                "id" : 774,
                                "_type" : "AMFile",
                                "src" : 7,
                                "trackNumber" : 2,
                                "attributes" : {
                                  "ident" : "",
                                  "sampleRate" : 44100,
                                  "bitDepth" : 16,
                                  "gain" : 1.0,
                                  "mixToMono" : false
                                },
                                  "channelNumber" : "0,1",
                                "effects" : [

                                ],
                                "start" : 925,
                                "duration" : 128,
                                "mediaStart" : 1750,
                                "mediaDuration" : 128,
                                "scalar" : 1,
                                "animationTracks" : {

                                }
                              }
,
                          "start" : 925,
                          "duration" : 128,
                          "mediaStart" : 0,
                          "mediaDuration" : 26386,
                          "scalar" : 1,
                          "metadata" : {
                            "WinSubProjectDisplayName" : "",
                            "clipSpeedAttribute" : false,
                            "default-scale0" : 0.25,
                            "default-scale1" : 0.25,
                            "default-translation0" : 880.0,
                            "default-translation1" : -480.0
                          }
                        },
                        {
                          "id" : 775,
                          "_type" : "UnifiedMedia",
                          "video" : 
                              {
                                "id" : 776,
                                "_type" : "VMFile",
                                "src" : 7,
                                "trackNumber" : 1,
                                "attributes" : {
                                  "ident" : "Rec 02-07-19_001"
                                },
                                "effects" : [

                                ],
                                "start" : 1053,
                                "duration" : 298,
                                "mediaStart" : 1939,
                                "mediaDuration" : 298,
                                "scalar" : 1,
                                "animationTracks" : {

                                }
                              },
                          "audio" : 
                              {
                                "id" : 777,
                                "_type" : "AMFile",
                                "src" : 7,
                                "trackNumber" : 2,
                                "attributes" : {
                                  "ident" : "",
                                  "sampleRate" : 44100,
                                  "bitDepth" : 16,
                                  "gain" : 1.0,
                                  "mixToMono" : false
                                },
                                  "channelNumber" : "0,1",
                                "effects" : [

                                ],
                                "start" : 1053,
                                "duration" : 298,
                                "mediaStart" : 1939,
                                "mediaDuration" : 298,
                                "scalar" : 1,
                                "animationTracks" : {

                                }
                              }
,
                          "start" : 1053,
                          "duration" : 298,
                          "mediaStart" : 0,
                          "mediaDuration" : 26386,
                          "scalar" : 1,
                          "metadata" : {
                            "WinSubProjectDisplayName" : "",
                            "clipSpeedAttribute" : false,
                            "default-scale0" : 0.25,
                            "default-scale1" : 0.25,
                            "default-translation0" : 880.0,
                            "default-translation1" : -480.0
                          }
                        },
                        {
                          "id" : 778,
                          "_type" : "UnifiedMedia",
                          "video" : 
                              {
                                "id" : 779,
                                "_type" : "VMFile",
                                "src" : 7,
                                "trackNumber" : 1,
                                "attributes" : {
                                  "ident" : "Rec 02-07-19_001"
                                },
                                "effects" : [

                                ],
                                "start" : 1351,
                                "duration" : 524,
                                "mediaStart" : 2386,
                                "mediaDuration" : 524,
                                "scalar" : 1,
                                "animationTracks" : {

                                }
                              },
                          "audio" : 
                              {
                                "id" : 780,
                                "_type" : "AMFile",
                                "src" : 7,
                                "trackNumber" : 2,
                                "attributes" : {
                                  "ident" : "",
                                  "sampleRate" : 44100,
                                  "bitDepth" : 16,
                                  "gain" : 1.0,
                                  "mixToMono" : false
                                },
                                  "channelNumber" : "0,1",
                                "effects" : [

                                ],
                                "start" : 1351,
                                "duration" : 524,
                                "mediaStart" : 2386,
                                "mediaDuration" : 524,
                                "scalar" : 1,
                                "animationTracks" : {

                                }
                              }
,
                          "start" : 1351,
                          "duration" : 524,
                          "mediaStart" : 0,
                          "mediaDuration" : 26386,
                          "scalar" : 1,
                          "metadata" : {
                            "WinSubProjectDisplayName" : "",
                            "clipSpeedAttribute" : false,
                            "default-scale0" : 0.25,
                            "default-scale1" : 0.25,
                            "default-translation0" : 880.0,
                            "default-translation1" : -480.0
                          }
                        },
                        {
                          "id" : 781,
                          "_type" : "UnifiedMedia",
                          "video" : 
                              {
                                "id" : 782,
                                "_type" : "VMFile",
                                "src" : 7,
                                "trackNumber" : 1,
                                "attributes" : {
                                  "ident" : "Rec 02-07-19_001"
                                },
                                "effects" : [

                                ],
                                "start" : 1875,
                                "duration" : 143,
                                "mediaStart" : 3086,
                                "mediaDuration" : 143,
                                "scalar" : 1,
                                "animationTracks" : {

                                }
                              },
                          "audio" : 
                              {
                                "id" : 783,
                                "_type" : "AMFile",
                                "src" : 7,
                                "trackNumber" : 2,
                                "attributes" : {
                                  "ident" : "",
                                  "sampleRate" : 44100,
                                  "bitDepth" : 16,
                                  "gain" : 1.0,
                                  "mixToMono" : false
                                },
                                  "channelNumber" : "0,1",
                                "effects" : [

                                ],
                                "start" : 1875,
                                "duration" : 143,
                                "mediaStart" : 3086,
                                "mediaDuration" : 143,
                                "scalar" : 1,
                                "animationTracks" : {

                                }
                              }
,
                          "start" : 1875,
                          "duration" : 143,
                          "mediaStart" : 0,
                          "mediaDuration" : 26386,
                          "scalar" : 1,
                          "metadata" : {
                            "WinSubProjectDisplayName" : "",
                            "clipSpeedAttribute" : false,
                            "default-scale0" : 0.25,
                            "default-scale1" : 0.25,
                            "default-translation0" : 880.0,
                            "default-translation1" : -480.0
                          }
                        },
                        {
                          "id" : 784,
                          "_type" : "UnifiedMedia",
                          "video" : 
                              {
                                "id" : 785,
                                "_type" : "VMFile",
                                "src" : 7,
                                "trackNumber" : 1,
                                "attributes" : {
                                  "ident" : "Rec 02-07-19_001"
                                },
                                "effects" : [

                                ],
                                "start" : 2018,
                                "duration" : 1362,
                                "mediaStart" : 3692,
                                "mediaDuration" : 1362,
                                "scalar" : 1,
                                "animationTracks" : {

                                }
                              },
                          "audio" : 
                              {
                                "id" : 786,
                                "_type" : "AMFile",
                                "src" : 7,
                                "trackNumber" : 2,
                                "attributes" : {
                                  "ident" : "",
                                  "sampleRate" : 44100,
                                  "bitDepth" : 16,
                                  "gain" : 1.0,
                                  "mixToMono" : false
                                },
                                  "channelNumber" : "0,1",
                                "effects" : [

                                ],
                                "start" : 2018,
                                "duration" : 1362,
                                "mediaStart" : 3692,
                                "mediaDuration" : 1362,
                                "scalar" : 1,
                                "animationTracks" : {

                                }
                              }
,
                          "start" : 2018,
                          "duration" : 1362,
                          "mediaStart" : 0,
                          "mediaDuration" : 26386,
                          "scalar" : 1,
                          "metadata" : {
                            "WinSubProjectDisplayName" : "",
                            "clipSpeedAttribute" : false,
                            "default-scale0" : 0.25,
                            "default-scale1" : 0.25,
                            "default-translation0" : 880.0,
                            "default-translation1" : -480.0
                          }
                        },
                        {
                          "id" : 787,
                          "_type" : "UnifiedMedia",
                          "video" : 
                              {
                                "id" : 788,
                                "_type" : "VMFile",
                                "src" : 7,
                                "trackNumber" : 1,
                                "attributes" : {
                                  "ident" : "Rec 02-07-19_001"
                                },
                                "effects" : [

                                ],
                                "start" : 3380,
                                "duration" : 218,
                                "mediaStart" : 5246,
                                "mediaDuration" : 218,
                                "scalar" : 1,
                                "animationTracks" : {

                                }
                              },
                          "audio" : 
                              {
                                "id" : 789,
                                "_type" : "AMFile",
                                "src" : 7,
                                "trackNumber" : 2,
                                "attributes" : {
                                  "ident" : "",
                                  "sampleRate" : 44100,
                                  "bitDepth" : 16,
                                  "gain" : 1.0,
                                  "mixToMono" : false
                                },
                                  "channelNumber" : "0,1",
                                "effects" : [

                                ],
                                "start" : 3380,
                                "duration" : 218,
                                "mediaStart" : 5246,
                                "mediaDuration" : 218,
                                "scalar" : 1,
                                "animationTracks" : {

                                }
                              }
,
                          "start" : 3380,
                          "duration" : 218,
                          "mediaStart" : 0,
                          "mediaDuration" : 26386,
                          "scalar" : 1,
                          "metadata" : {
                            "WinSubProjectDisplayName" : "",
                            "clipSpeedAttribute" : false,
                            "default-scale0" : 0.25,
                            "default-scale1" : 0.25,
                            "default-translation0" : 880.0,
                            "default-translation1" : -480.0
                          }
                        },
                        {
                          "id" : 790,
                          "_type" : "UnifiedMedia",
                          "video" : 
                              {
                                "id" : 791,
                                "_type" : "VMFile",
                                "src" : 7,
                                "trackNumber" : 1,
                                "attributes" : {
                                  "ident" : "Rec 02-07-19_001"
                                },
                                "effects" : [

                                ],
                                "start" : 3598,
                                "duration" : 473,
                                "mediaStart" : 6154,
                                "mediaDuration" : 473,
                                "scalar" : 1,
                                "animationTracks" : {

                                }
                              },
                          "audio" : 
                              {
                                "id" : 792,
                                "_type" : "AMFile",
                                "src" : 7,
                                "trackNumber" : 2,
                                "attributes" : {
                                  "ident" : "",
                                  "sampleRate" : 44100,
                                  "bitDepth" : 16,
                                  "gain" : 1.0,
                                  "mixToMono" : false
                                },
                                  "channelNumber" : "0,1",
                                "effects" : [

                                ],
                                "start" : 3598,
                                "duration" : 473,
                                "mediaStart" : 6154,
                                "mediaDuration" : 473,
                                "scalar" : 1,
                                "animationTracks" : {

                                }
                              }
,
                          "start" : 3598,
                          "duration" : 473,
                          "mediaStart" : 0,
                          "mediaDuration" : 26386,
                          "scalar" : 1,
                          "metadata" : {
                            "WinSubProjectDisplayName" : "",
                            "clipSpeedAttribute" : false,
                            "default-scale0" : 0.25,
                            "default-scale1" : 0.25,
                            "default-translation0" : 880.0,
                            "default-translation1" : -480.0
                          }
                        },
                        {
                          "id" : 793,
                          "_type" : "UnifiedMedia",
                          "video" : 
                              {
                                "id" : 794,
                                "_type" : "VMFile",
                                "src" : 7,
                                "trackNumber" : 1,
                                "attributes" : {
                                  "ident" : "Rec 02-07-19_001"
                                },
                                "effects" : [

                                ],
                                "start" : 4071,
                                "duration" : 164,
                                "mediaStart" : 6726,
                                "mediaDuration" : 164,
                                "scalar" : 1,
                                "animationTracks" : {

                                }
                              },
                          "audio" : 
                              {
                                "id" : 795,
                                "_type" : "AMFile",
                                "src" : 7,
                                "trackNumber" : 2,
                                "attributes" : {
                                  "ident" : "",
                                  "sampleRate" : 44100,
                                  "bitDepth" : 16,
                                  "gain" : 1.0,
                                  "mixToMono" : false
                                },
                                  "channelNumber" : "0,1",
                                "effects" : [

                                ],
                                "start" : 4071,
                                "duration" : 164,
                                "mediaStart" : 6726,
                                "mediaDuration" : 164,
                                "scalar" : 1,
                                "animationTracks" : {

                                }
                              }
,
                          "start" : 4071,
                          "duration" : 164,
                          "mediaStart" : 0,
                          "mediaDuration" : 26386,
                          "scalar" : 1,
                          "metadata" : {
                            "WinSubProjectDisplayName" : "",
                            "clipSpeedAttribute" : false,
                            "default-scale0" : 0.25,
                            "default-scale1" : 0.25,
                            "default-translation0" : 880.0,
                            "default-translation1" : -480.0
                          }
                        },
                        {
                          "id" : 796,
                          "_type" : "UnifiedMedia",
                          "video" : 
                              {
                                "id" : 797,
                                "_type" : "VMFile",
                                "src" : 7,
                                "trackNumber" : 1,
                                "attributes" : {
                                  "ident" : "Rec 02-07-19_001"
                                },
                                "effects" : [

                                ],
                                "start" : 4235,
                                "duration" : 1279,
                                "mediaStart" : 7107,
                                "mediaDuration" : 1279,
                                "scalar" : 1,
                                "animationTracks" : {

                                }
                              },
                          "audio" : 
                              {
                                "id" : 798,
                                "_type" : "AMFile",
                                "src" : 7,
                                "trackNumber" : 2,
                                "attributes" : {
                                  "ident" : "",
                                  "sampleRate" : 44100,
                                  "bitDepth" : 16,
                                  "gain" : 1.0,
                                  "mixToMono" : false
                                },
                                  "channelNumber" : "0,1",
                                "effects" : [

                                ],
                                "start" : 4235,
                                "duration" : 1279,
                                "mediaStart" : 7107,
                                "mediaDuration" : 1279,
                                "scalar" : 1,
                                "animationTracks" : {

                                }
                              }
,
                          "start" : 4235,
                          "duration" : 1279,
                          "mediaStart" : 0,
                          "mediaDuration" : 26386,
                          "scalar" : 1,
                          "metadata" : {
                            "WinSubProjectDisplayName" : "",
                            "clipSpeedAttribute" : false,
                            "default-scale0" : 0.25,
                            "default-scale1" : 0.25,
                            "default-translation0" : 880.0,
                            "default-translation1" : -480.0
                          }
                        },
                        {
                          "id" : 799,
                          "_type" : "UnifiedMedia",
                          "video" : 
                              {
                                "id" : 800,
                                "_type" : "VMFile",
                                "src" : 7,
                                "trackNumber" : 1,
                                "attributes" : {
                                  "ident" : "Rec 02-07-19_001"
                                },
                                "effects" : [

                                ],
                                "start" : 5514,
                                "duration" : 1542,
                                "mediaStart" : 8518,
                                "mediaDuration" : 1542,
                                "scalar" : 1,
                                "animationTracks" : {

                                }
                              },
                          "audio" : 
                              {
                                "id" : 801,
                                "_type" : "AMFile",
                                "src" : 7,
                                "trackNumber" : 2,
                                "attributes" : {
                                  "ident" : "",
                                  "sampleRate" : 44100,
                                  "bitDepth" : 16,
                                  "gain" : 1.0,
                                  "mixToMono" : false
                                },
                                  "channelNumber" : "0,1",
                                "effects" : [

                                ],
                                "start" : 5514,
                                "duration" : 1542,
                                "mediaStart" : 8518,
                                "mediaDuration" : 1542,
                                "scalar" : 1,
                                "animationTracks" : {

                                }
                              }
,
                          "start" : 5514,
                          "duration" : 1542,
                          "mediaStart" : 0,
                          "mediaDuration" : 26386,
                          "scalar" : 1,
                          "metadata" : {
                            "WinSubProjectDisplayName" : "",
                            "clipSpeedAttribute" : false,
                            "default-scale0" : 0.25,
                            "default-scale1" : 0.25,
                            "default-translation0" : 880.0,
                            "default-translation1" : -480.0
                          }
                        },
                        {
                          "id" : 802,
                          "_type" : "UnifiedMedia",
                          "video" : 
                              {
                                "id" : 803,
                                "_type" : "VMFile",
                                "src" : 7,
                                "trackNumber" : 1,
                                "attributes" : {
                                  "ident" : "Rec 02-07-19_001"
                                },
                                "effects" : [

                                ],
                                "start" : 7056,
                                "duration" : 15994,
                                "mediaStart" : 10392,
                                "mediaDuration" : 15994,
                                "scalar" : 1,
                                "animationTracks" : {

                                }
                              },
                          "audio" : 
                              {
                                "id" : 804,
                                "_type" : "AMFile",
                                "src" : 7,
                                "trackNumber" : 2,
                                "attributes" : {
                                  "ident" : "",
                                  "sampleRate" : 44100,
                                  "bitDepth" : 16,
                                  "gain" : 1.0,
                                  "mixToMono" : false
                                },
                                  "channelNumber" : "0,1",
                                "effects" : [

                                ],
                                "start" : 7056,
                                "duration" : 15994,
                                "mediaStart" : 10392,
                                "mediaDuration" : 15994,
                                "scalar" : 1,
                                "animationTracks" : {

                                }
                              }
,
                          "start" : 7056,
                          "duration" : 15994,
                          "mediaStart" : 0,
                          "mediaDuration" : 26386,
                          "scalar" : 1,
                          "metadata" : {
                            "WinSubProjectDisplayName" : "",
                            "clipSpeedAttribute" : false,
                            "default-scale0" : 0.25,
                            "default-scale1" : 0.25,
                            "default-translation0" : 880.0,
                            "default-translation1" : -480.0
                          }
                        }
                    ],
                    "effects" : [

                    ],
                    "start" : 21027,
                    "duration" : 166,
                    "mediaStart" : 7391,
                    "mediaDuration" : 497,
                    "scalar" : "166/497",
                    "metadata" : {
                      "WinSubProjectDisplayName" : "",
                      "clipSpeedAttribute" : true
                    },
                    "animationTracks" : {

                    }
                  },
                  {
                    "id" : 805,
                    "_type" : "StitchedMedia",
                    "minMediaStart" : 0,
                    "attributes" : {
                      "ident" : "Rec 02-07-19_001",
                      "gain" : 1.0,
                      "mixToMono" : false
                    },
                    "parameters" : {
                      "translation0" : 703.999999999945,
                      "translation1" : -347.999999999936,
                      "scale0" : 0.8,
                      "scale1" : 0.8,
                      "volume" : 1.0,
                      "cursorOpacity" : 1.0,
                      "cursorScale" : 1.0
                    },
                    "medias" : [
                        {
                          "id" : 806,
                          "_type" : "UnifiedMedia",
                          "video" : 
                              {
                                "id" : 807,
                                "_type" : "VMFile",
                                "src" : 7,
                                "trackNumber" : 1,
                                "attributes" : {
                                  "ident" : "Rec 02-07-19_001"
                                },
                                "effects" : [

                                ],
                                "start" : 0,
                                "duration" : 496,
                                "mediaStart" : 0,
                                "mediaDuration" : 496,
                                "scalar" : 1,
                                "animationTracks" : {

                                }
                              },
                          "audio" : 
                              {
                                "id" : 808,
                                "_type" : "AMFile",
                                "src" : 7,
                                "trackNumber" : 2,
                                "attributes" : {
                                  "ident" : "",
                                  "sampleRate" : 44100,
                                  "bitDepth" : 16,
                                  "gain" : 1.0,
                                  "mixToMono" : false
                                },
                                  "channelNumber" : "0,1",
                                "effects" : [

                                ],
                                "start" : 0,
                                "duration" : 496,
                                "mediaStart" : 0,
                                "mediaDuration" : 496,
                                "scalar" : 1,
                                "animationTracks" : {

                                }
                              }
,
                          "start" : 0,
                          "duration" : 496,
                          "mediaStart" : 0,
                          "mediaDuration" : 26386,
                          "scalar" : 1,
                          "metadata" : {
                            "WinSubProjectDisplayName" : "",
                            "clipSpeedAttribute" : false,
                            "default-scale0" : 0.25,
                            "default-scale1" : 0.25,
                            "default-translation0" : 880.0,
                            "default-translation1" : -480.0
                          }
                        },
                        {
                          "id" : 809,
                          "_type" : "UnifiedMedia",
                          "video" : 
                              {
                                "id" : 810,
                                "_type" : "VMFile",
                                "src" : 7,
                                "trackNumber" : 1,
                                "attributes" : {
                                  "ident" : "Rec 02-07-19_001"
                                },
                                "effects" : [

                                ],
                                "start" : 496,
                                "duration" : 190,
                                "mediaStart" : 715,
                                "mediaDuration" : 190,
                                "scalar" : 1,
                                "animationTracks" : {

                                }
                              },
                          "audio" : 
                              {
                                "id" : 811,
                                "_type" : "AMFile",
                                "src" : 7,
                                "trackNumber" : 2,
                                "attributes" : {
                                  "ident" : "",
                                  "sampleRate" : 44100,
                                  "bitDepth" : 16,
                                  "gain" : 1.0,
                                  "mixToMono" : false
                                },
                                  "channelNumber" : "0,1",
                                "effects" : [

                                ],
                                "start" : 496,
                                "duration" : 190,
                                "mediaStart" : 715,
                                "mediaDuration" : 190,
                                "scalar" : 1,
                                "animationTracks" : {

                                }
                              }
,
                          "start" : 496,
                          "duration" : 190,
                          "mediaStart" : 0,
                          "mediaDuration" : 26386,
                          "scalar" : 1,
                          "metadata" : {
                            "WinSubProjectDisplayName" : "",
                            "clipSpeedAttribute" : false,
                            "default-scale0" : 0.25,
                            "default-scale1" : 0.25,
                            "default-translation0" : 880.0,
                            "default-translation1" : -480.0
                          }
                        },
                        {
                          "id" : 812,
                          "_type" : "UnifiedMedia",
                          "video" : 
                              {
                                "id" : 813,
                                "_type" : "VMFile",
                                "src" : 7,
                                "trackNumber" : 1,
                                "attributes" : {
                                  "ident" : "Rec 02-07-19_001"
                                },
                                "effects" : [

                                ],
                                "start" : 686,
                                "duration" : 239,
                                "mediaStart" : 1444,
                                "mediaDuration" : 239,
                                "scalar" : 1,
                                "animationTracks" : {

                                }
                              },
                          "audio" : 
                              {
                                "id" : 814,
                                "_type" : "AMFile",
                                "src" : 7,
                                "trackNumber" : 2,
                                "attributes" : {
                                  "ident" : "",
                                  "sampleRate" : 44100,
                                  "bitDepth" : 16,
                                  "gain" : 1.0,
                                  "mixToMono" : false
                                },
                                  "channelNumber" : "0,1",
                                "effects" : [

                                ],
                                "start" : 686,
                                "duration" : 239,
                                "mediaStart" : 1444,
                                "mediaDuration" : 239,
                                "scalar" : 1,
                                "animationTracks" : {

                                }
                              }
,
                          "start" : 686,
                          "duration" : 239,
                          "mediaStart" : 0,
                          "mediaDuration" : 26386,
                          "scalar" : 1,
                          "metadata" : {
                            "WinSubProjectDisplayName" : "",
                            "clipSpeedAttribute" : false,
                            "default-scale0" : 0.25,
                            "default-scale1" : 0.25,
                            "default-translation0" : 880.0,
                            "default-translation1" : -480.0
                          }
                        },
                        {
                          "id" : 815,
                          "_type" : "UnifiedMedia",
                          "video" : 
                              {
                                "id" : 816,
                                "_type" : "VMFile",
                                "src" : 7,
                                "trackNumber" : 1,
                                "attributes" : {
                                  "ident" : "Rec 02-07-19_001"
                                },
                                "effects" : [

                                ],
                                "start" : 925,
                                "duration" : 128,
                                "mediaStart" : 1750,
                                "mediaDuration" : 128,
                                "scalar" : 1,
                                "animationTracks" : {

                                }
                              },
                          "audio" : 
                              {
                                "id" : 817,
                                "_type" : "AMFile",
                                "src" : 7,
                                "trackNumber" : 2,
                                "attributes" : {
                                  "ident" : "",
                                  "sampleRate" : 44100,
                                  "bitDepth" : 16,
                                  "gain" : 1.0,
                                  "mixToMono" : false
                                },
                                  "channelNumber" : "0,1",
                                "effects" : [

                                ],
                                "start" : 925,
                                "duration" : 128,
                                "mediaStart" : 1750,
                                "mediaDuration" : 128,
                                "scalar" : 1,
                                "animationTracks" : {

                                }
                              }
,
                          "start" : 925,
                          "duration" : 128,
                          "mediaStart" : 0,
                          "mediaDuration" : 26386,
                          "scalar" : 1,
                          "metadata" : {
                            "WinSubProjectDisplayName" : "",
                            "clipSpeedAttribute" : false,
                            "default-scale0" : 0.25,
                            "default-scale1" : 0.25,
                            "default-translation0" : 880.0,
                            "default-translation1" : -480.0
                          }
                        },
                        {
                          "id" : 818,
                          "_type" : "UnifiedMedia",
                          "video" : 
                              {
                                "id" : 819,
                                "_type" : "VMFile",
                                "src" : 7,
                                "trackNumber" : 1,
                                "attributes" : {
                                  "ident" : "Rec 02-07-19_001"
                                },
                                "effects" : [

                                ],
                                "start" : 1053,
                                "duration" : 298,
                                "mediaStart" : 1939,
                                "mediaDuration" : 298,
                                "scalar" : 1,
                                "animationTracks" : {

                                }
                              },
                          "audio" : 
                              {
                                "id" : 820,
                                "_type" : "AMFile",
                                "src" : 7,
                                "trackNumber" : 2,
                                "attributes" : {
                                  "ident" : "",
                                  "sampleRate" : 44100,
                                  "bitDepth" : 16,
                                  "gain" : 1.0,
                                  "mixToMono" : false
                                },
                                  "channelNumber" : "0,1",
                                "effects" : [

                                ],
                                "start" : 1053,
                                "duration" : 298,
                                "mediaStart" : 1939,
                                "mediaDuration" : 298,
                                "scalar" : 1,
                                "animationTracks" : {

                                }
                              }
,
                          "start" : 1053,
                          "duration" : 298,
                          "mediaStart" : 0,
                          "mediaDuration" : 26386,
                          "scalar" : 1,
                          "metadata" : {
                            "WinSubProjectDisplayName" : "",
                            "clipSpeedAttribute" : false,
                            "default-scale0" : 0.25,
                            "default-scale1" : 0.25,
                            "default-translation0" : 880.0,
                            "default-translation1" : -480.0
                          }
                        },
                        {
                          "id" : 821,
                          "_type" : "UnifiedMedia",
                          "video" : 
                              {
                                "id" : 822,
                                "_type" : "VMFile",
                                "src" : 7,
                                "trackNumber" : 1,
                                "attributes" : {
                                  "ident" : "Rec 02-07-19_001"
                                },
                                "effects" : [

                                ],
                                "start" : 1351,
                                "duration" : 524,
                                "mediaStart" : 2386,
                                "mediaDuration" : 524,
                                "scalar" : 1,
                                "animationTracks" : {

                                }
                              },
                          "audio" : 
                              {
                                "id" : 823,
                                "_type" : "AMFile",
                                "src" : 7,
                                "trackNumber" : 2,
                                "attributes" : {
                                  "ident" : "",
                                  "sampleRate" : 44100,
                                  "bitDepth" : 16,
                                  "gain" : 1.0,
                                  "mixToMono" : false
                                },
                                  "channelNumber" : "0,1",
                                "effects" : [

                                ],
                                "start" : 1351,
                                "duration" : 524,
                                "mediaStart" : 2386,
                                "mediaDuration" : 524,
                                "scalar" : 1,
                                "animationTracks" : {

                                }
                              }
,
                          "start" : 1351,
                          "duration" : 524,
                          "mediaStart" : 0,
                          "mediaDuration" : 26386,
                          "scalar" : 1,
                          "metadata" : {
                            "WinSubProjectDisplayName" : "",
                            "clipSpeedAttribute" : false,
                            "default-scale0" : 0.25,
                            "default-scale1" : 0.25,
                            "default-translation0" : 880.0,
                            "default-translation1" : -480.0
                          }
                        },
                        {
                          "id" : 824,
                          "_type" : "UnifiedMedia",
                          "video" : 
                              {
                                "id" : 825,
                                "_type" : "VMFile",
                                "src" : 7,
                                "trackNumber" : 1,
                                "attributes" : {
                                  "ident" : "Rec 02-07-19_001"
                                },
                                "effects" : [

                                ],
                                "start" : 1875,
                                "duration" : 143,
                                "mediaStart" : 3086,
                                "mediaDuration" : 143,
                                "scalar" : 1,
                                "animationTracks" : {

                                }
                              },
                          "audio" : 
                              {
                                "id" : 826,
                                "_type" : "AMFile",
                                "src" : 7,
                                "trackNumber" : 2,
                                "attributes" : {
                                  "ident" : "",
                                  "sampleRate" : 44100,
                                  "bitDepth" : 16,
                                  "gain" : 1.0,
                                  "mixToMono" : false
                                },
                                  "channelNumber" : "0,1",
                                "effects" : [

                                ],
                                "start" : 1875,
                                "duration" : 143,
                                "mediaStart" : 3086,
                                "mediaDuration" : 143,
                                "scalar" : 1,
                                "animationTracks" : {

                                }
                              }
,
                          "start" : 1875,
                          "duration" : 143,
                          "mediaStart" : 0,
                          "mediaDuration" : 26386,
                          "scalar" : 1,
                          "metadata" : {
                            "WinSubProjectDisplayName" : "",
                            "clipSpeedAttribute" : false,
                            "default-scale0" : 0.25,
                            "default-scale1" : 0.25,
                            "default-translation0" : 880.0,
                            "default-translation1" : -480.0
                          }
                        },
                        {
                          "id" : 827,
                          "_type" : "UnifiedMedia",
                          "video" : 
                              {
                                "id" : 828,
                                "_type" : "VMFile",
                                "src" : 7,
                                "trackNumber" : 1,
                                "attributes" : {
                                  "ident" : "Rec 02-07-19_001"
                                },
                                "effects" : [

                                ],
                                "start" : 2018,
                                "duration" : 1362,
                                "mediaStart" : 3692,
                                "mediaDuration" : 1362,
                                "scalar" : 1,
                                "animationTracks" : {

                                }
                              },
                          "audio" : 
                              {
                                "id" : 829,
                                "_type" : "AMFile",
                                "src" : 7,
                                "trackNumber" : 2,
                                "attributes" : {
                                  "ident" : "",
                                  "sampleRate" : 44100,
                                  "bitDepth" : 16,
                                  "gain" : 1.0,
                                  "mixToMono" : false
                                },
                                  "channelNumber" : "0,1",
                                "effects" : [

                                ],
                                "start" : 2018,
                                "duration" : 1362,
                                "mediaStart" : 3692,
                                "mediaDuration" : 1362,
                                "scalar" : 1,
                                "animationTracks" : {

                                }
                              }
,
                          "start" : 2018,
                          "duration" : 1362,
                          "mediaStart" : 0,
                          "mediaDuration" : 26386,
                          "scalar" : 1,
                          "metadata" : {
                            "WinSubProjectDisplayName" : "",
                            "clipSpeedAttribute" : false,
                            "default-scale0" : 0.25,
                            "default-scale1" : 0.25,
                            "default-translation0" : 880.0,
                            "default-translation1" : -480.0
                          }
                        },
                        {
                          "id" : 830,
                          "_type" : "UnifiedMedia",
                          "video" : 
                              {
                                "id" : 831,
                                "_type" : "VMFile",
                                "src" : 7,
                                "trackNumber" : 1,
                                "attributes" : {
                                  "ident" : "Rec 02-07-19_001"
                                },
                                "effects" : [

                                ],
                                "start" : 3380,
                                "duration" : 218,
                                "mediaStart" : 5246,
                                "mediaDuration" : 218,
                                "scalar" : 1,
                                "animationTracks" : {

                                }
                              },
                          "audio" : 
                              {
                                "id" : 832,
                                "_type" : "AMFile",
                                "src" : 7,
                                "trackNumber" : 2,
                                "attributes" : {
                                  "ident" : "",
                                  "sampleRate" : 44100,
                                  "bitDepth" : 16,
                                  "gain" : 1.0,
                                  "mixToMono" : false
                                },
                                  "channelNumber" : "0,1",
                                "effects" : [

                                ],
                                "start" : 3380,
                                "duration" : 218,
                                "mediaStart" : 5246,
                                "mediaDuration" : 218,
                                "scalar" : 1,
                                "animationTracks" : {

                                }
                              }
,
                          "start" : 3380,
                          "duration" : 218,
                          "mediaStart" : 0,
                          "mediaDuration" : 26386,
                          "scalar" : 1,
                          "metadata" : {
                            "WinSubProjectDisplayName" : "",
                            "clipSpeedAttribute" : false,
                            "default-scale0" : 0.25,
                            "default-scale1" : 0.25,
                            "default-translation0" : 880.0,
                            "default-translation1" : -480.0
                          }
                        },
                        {
                          "id" : 833,
                          "_type" : "UnifiedMedia",
                          "video" : 
                              {
                                "id" : 834,
                                "_type" : "VMFile",
                                "src" : 7,
                                "trackNumber" : 1,
                                "attributes" : {
                                  "ident" : "Rec 02-07-19_001"
                                },
                                "effects" : [

                                ],
                                "start" : 3598,
                                "duration" : 473,
                                "mediaStart" : 6154,
                                "mediaDuration" : 473,
                                "scalar" : 1,
                                "animationTracks" : {

                                }
                              },
                          "audio" : 
                              {
                                "id" : 835,
                                "_type" : "AMFile",
                                "src" : 7,
                                "trackNumber" : 2,
                                "attributes" : {
                                  "ident" : "",
                                  "sampleRate" : 44100,
                                  "bitDepth" : 16,
                                  "gain" : 1.0,
                                  "mixToMono" : false
                                },
                                  "channelNumber" : "0,1",
                                "effects" : [

                                ],
                                "start" : 3598,
                                "duration" : 473,
                                "mediaStart" : 6154,
                                "mediaDuration" : 473,
                                "scalar" : 1,
                                "animationTracks" : {

                                }
                              }
,
                          "start" : 3598,
                          "duration" : 473,
                          "mediaStart" : 0,
                          "mediaDuration" : 26386,
                          "scalar" : 1,
                          "metadata" : {
                            "WinSubProjectDisplayName" : "",
                            "clipSpeedAttribute" : false,
                            "default-scale0" : 0.25,
                            "default-scale1" : 0.25,
                            "default-translation0" : 880.0,
                            "default-translation1" : -480.0
                          }
                        },
                        {
                          "id" : 836,
                          "_type" : "UnifiedMedia",
                          "video" : 
                              {
                                "id" : 837,
                                "_type" : "VMFile",
                                "src" : 7,
                                "trackNumber" : 1,
                                "attributes" : {
                                  "ident" : "Rec 02-07-19_001"
                                },
                                "effects" : [

                                ],
                                "start" : 4071,
                                "duration" : 164,
                                "mediaStart" : 6726,
                                "mediaDuration" : 164,
                                "scalar" : 1,
                                "animationTracks" : {

                                }
                              },
                          "audio" : 
                              {
                                "id" : 838,
                                "_type" : "AMFile",
                                "src" : 7,
                                "trackNumber" : 2,
                                "attributes" : {
                                  "ident" : "",
                                  "sampleRate" : 44100,
                                  "bitDepth" : 16,
                                  "gain" : 1.0,
                                  "mixToMono" : false
                                },
                                  "channelNumber" : "0,1",
                                "effects" : [

                                ],
                                "start" : 4071,
                                "duration" : 164,
                                "mediaStart" : 6726,
                                "mediaDuration" : 164,
                                "scalar" : 1,
                                "animationTracks" : {

                                }
                              }
,
                          "start" : 4071,
                          "duration" : 164,
                          "mediaStart" : 0,
                          "mediaDuration" : 26386,
                          "scalar" : 1,
                          "metadata" : {
                            "WinSubProjectDisplayName" : "",
                            "clipSpeedAttribute" : false,
                            "default-scale0" : 0.25,
                            "default-scale1" : 0.25,
                            "default-translation0" : 880.0,
                            "default-translation1" : -480.0
                          }
                        },
                        {
                          "id" : 839,
                          "_type" : "UnifiedMedia",
                          "video" : 
                              {
                                "id" : 840,
                                "_type" : "VMFile",
                                "src" : 7,
                                "trackNumber" : 1,
                                "attributes" : {
                                  "ident" : "Rec 02-07-19_001"
                                },
                                "effects" : [

                                ],
                                "start" : 4235,
                                "duration" : 1279,
                                "mediaStart" : 7107,
                                "mediaDuration" : 1279,
                                "scalar" : 1,
                                "animationTracks" : {

                                }
                              },
                          "audio" : 
                              {
                                "id" : 841,
                                "_type" : "AMFile",
                                "src" : 7,
                                "trackNumber" : 2,
                                "attributes" : {
                                  "ident" : "",
                                  "sampleRate" : 44100,
                                  "bitDepth" : 16,
                                  "gain" : 1.0,
                                  "mixToMono" : false
                                },
                                  "channelNumber" : "0,1",
                                "effects" : [

                                ],
                                "start" : 4235,
                                "duration" : 1279,
                                "mediaStart" : 7107,
                                "mediaDuration" : 1279,
                                "scalar" : 1,
                                "animationTracks" : {

                                }
                              }
,
                          "start" : 4235,
                          "duration" : 1279,
                          "mediaStart" : 0,
                          "mediaDuration" : 26386,
                          "scalar" : 1,
                          "metadata" : {
                            "WinSubProjectDisplayName" : "",
                            "clipSpeedAttribute" : false,
                            "default-scale0" : 0.25,
                            "default-scale1" : 0.25,
                            "default-translation0" : 880.0,
                            "default-translation1" : -480.0
                          }
                        },
                        {
                          "id" : 842,
                          "_type" : "UnifiedMedia",
                          "video" : 
                              {
                                "id" : 843,
                                "_type" : "VMFile",
                                "src" : 7,
                                "trackNumber" : 1,
                                "attributes" : {
                                  "ident" : "Rec 02-07-19_001"
                                },
                                "effects" : [

                                ],
                                "start" : 5514,
                                "duration" : 1542,
                                "mediaStart" : 8518,
                                "mediaDuration" : 1542,
                                "scalar" : 1,
                                "animationTracks" : {

                                }
                              },
                          "audio" : 
                              {
                                "id" : 844,
                                "_type" : "AMFile",
                                "src" : 7,
                                "trackNumber" : 2,
                                "attributes" : {
                                  "ident" : "",
                                  "sampleRate" : 44100,
                                  "bitDepth" : 16,
                                  "gain" : 1.0,
                                  "mixToMono" : false
                                },
                                  "channelNumber" : "0,1",
                                "effects" : [

                                ],
                                "start" : 5514,
                                "duration" : 1542,
                                "mediaStart" : 8518,
                                "mediaDuration" : 1542,
                                "scalar" : 1,
                                "animationTracks" : {

                                }
                              }
,
                          "start" : 5514,
                          "duration" : 1542,
                          "mediaStart" : 0,
                          "mediaDuration" : 26386,
                          "scalar" : 1,
                          "metadata" : {
                            "WinSubProjectDisplayName" : "",
                            "clipSpeedAttribute" : false,
                            "default-scale0" : 0.25,
                            "default-scale1" : 0.25,
                            "default-translation0" : 880.0,
                            "default-translation1" : -480.0
                          }
                        },
                        {
                          "id" : 845,
                          "_type" : "UnifiedMedia",
                          "video" : 
                              {
                                "id" : 846,
                                "_type" : "VMFile",
                                "src" : 7,
                                "trackNumber" : 1,
                                "attributes" : {
                                  "ident" : "Rec 02-07-19_001"
                                },
                                "effects" : [

                                ],
                                "start" : 7056,
                                "duration" : 846,
                                "mediaStart" : 10392,
                                "mediaDuration" : 846,
                                "scalar" : 1,
                                "animationTracks" : {

                                }
                              },
                          "audio" : 
                              {
                                "id" : 847,
                                "_type" : "AMFile",
                                "src" : 7,
                                "trackNumber" : 2,
                                "attributes" : {
                                  "ident" : "",
                                  "sampleRate" : 44100,
                                  "bitDepth" : 16,
                                  "gain" : 1.0,
                                  "mixToMono" : false
                                },
                                  "channelNumber" : "0,1",
                                "effects" : [

                                ],
                                "start" : 7056,
                                "duration" : 846,
                                "mediaStart" : 10392,
                                "mediaDuration" : 846,
                                "scalar" : 1,
                                "animationTracks" : {

                                }
                              }
,
                          "start" : 7056,
                          "duration" : 846,
                          "mediaStart" : 0,
                          "mediaDuration" : 26386,
                          "scalar" : 1,
                          "metadata" : {
                            "WinSubProjectDisplayName" : "",
                            "clipSpeedAttribute" : false,
                            "default-scale0" : 0.25,
                            "default-scale1" : 0.25,
                            "default-translation0" : 880.0,
                            "default-translation1" : -480.0
                          }
                        },
                        {
                          "id" : 848,
                          "_type" : "UnifiedMedia",
                          "video" : 
                              {
                                "id" : 849,
                                "_type" : "VMFile",
                                "src" : 7,
                                "trackNumber" : 1,
                                "attributes" : {
                                  "ident" : "Rec 02-07-19_001"
                                },
                                "effects" : [

                                ],
                                "start" : 7902,
                                "duration" : 451,
                                "mediaStart" : 11363,
                                "mediaDuration" : 451,
                                "scalar" : 1,
                                "animationTracks" : {

                                }
                              },
                          "audio" : 
                              {
                                "id" : 850,
                                "_type" : "AMFile",
                                "src" : 7,
                                "trackNumber" : 2,
                                "attributes" : {
                                  "ident" : "",
                                  "sampleRate" : 44100,
                                  "bitDepth" : 16,
                                  "gain" : 1.0,
                                  "mixToMono" : false
                                },
                                  "channelNumber" : "0,1",
                                "effects" : [

                                ],
                                "start" : 7902,
                                "duration" : 451,
                                "mediaStart" : 11363,
                                "mediaDuration" : 451,
                                "scalar" : 1,
                                "animationTracks" : {

                                }
                              }
,
                          "start" : 7902,
                          "duration" : 451,
                          "mediaStart" : 0,
                          "mediaDuration" : 26386,
                          "scalar" : 1,
                          "metadata" : {
                            "WinSubProjectDisplayName" : "",
                            "clipSpeedAttribute" : false,
                            "default-scale0" : 0.25,
                            "default-scale1" : 0.25,
                            "default-translation0" : 880.0,
                            "default-translation1" : -480.0
                          }
                        },
                        {
                          "id" : 851,
                          "_type" : "UnifiedMedia",
                          "video" : 
                              {
                                "id" : 852,
                                "_type" : "VMFile",
                                "src" : 7,
                                "trackNumber" : 1,
                                "attributes" : {
                                  "ident" : "Rec 02-07-19_001"
                                },
                                "effects" : [

                                ],
                                "start" : 8353,
                                "duration" : 423,
                                "mediaStart" : 12079,
                                "mediaDuration" : 423,
                                "scalar" : 1,
                                "animationTracks" : {

                                }
                              },
                          "audio" : 
                              {
                                "id" : 853,
                                "_type" : "AMFile",
                                "src" : 7,
                                "trackNumber" : 2,
                                "attributes" : {
                                  "ident" : "",
                                  "sampleRate" : 44100,
                                  "bitDepth" : 16,
                                  "gain" : 1.0,
                                  "mixToMono" : false
                                },
                                  "channelNumber" : "0,1",
                                "effects" : [

                                ],
                                "start" : 8353,
                                "duration" : 423,
                                "mediaStart" : 12079,
                                "mediaDuration" : 423,
                                "scalar" : 1,
                                "animationTracks" : {

                                }
                              }
,
                          "start" : 8353,
                          "duration" : 423,
                          "mediaStart" : 0,
                          "mediaDuration" : 26386,
                          "scalar" : 1,
                          "metadata" : {
                            "WinSubProjectDisplayName" : "",
                            "clipSpeedAttribute" : false,
                            "default-scale0" : 0.25,
                            "default-scale1" : 0.25,
                            "default-translation0" : 880.0,
                            "default-translation1" : -480.0
                          }
                        },
                        {
                          "id" : 854,
                          "_type" : "UnifiedMedia",
                          "video" : 
                              {
                                "id" : 855,
                                "_type" : "VMFile",
                                "src" : 7,
                                "trackNumber" : 1,
                                "attributes" : {
                                  "ident" : "Rec 02-07-19_001"
                                },
                                "effects" : [

                                ],
                                "start" : 8776,
                                "duration" : 13579,
                                "mediaStart" : 12807,
                                "mediaDuration" : 13579,
                                "scalar" : 1,
                                "animationTracks" : {

                                }
                              },
                          "audio" : 
                              {
                                "id" : 856,
                                "_type" : "AMFile",
                                "src" : 7,
                                "trackNumber" : 2,
                                "attributes" : {
                                  "ident" : "",
                                  "sampleRate" : 44100,
                                  "bitDepth" : 16,
                                  "gain" : 1.0,
                                  "mixToMono" : false
                                },
                                  "channelNumber" : "0,1",
                                "effects" : [

                                ],
                                "start" : 8776,
                                "duration" : 13579,
                                "mediaStart" : 12807,
                                "mediaDuration" : 13579,
                                "scalar" : 1,
                                "animationTracks" : {

                                }
                              }
,
                          "start" : 8776,
                          "duration" : 13579,
                          "mediaStart" : 0,
                          "mediaDuration" : 26386,
                          "scalar" : 1,
                          "metadata" : {
                            "WinSubProjectDisplayName" : "",
                            "clipSpeedAttribute" : false,
                            "default-scale0" : 0.25,
                            "default-scale1" : 0.25,
                            "default-translation0" : 880.0,
                            "default-translation1" : -480.0
                          }
                        }
                    ],
                    "effects" : [

                    ],
                    "start" : 21193,
                    "duration" : 1219,
                    "mediaStart" : 7888,
                    "mediaDuration" : 1219,
                    "scalar" : 1,
                    "metadata" : {
                      "WinSubProjectDisplayName" : "",
                      "clipSpeedAttribute" : false
                    },
                    "animationTracks" : {

                    }
                  },
                  {
                    "id" : 857,
                    "_type" : "StitchedMedia",
                    "minMediaStart" : 0,
                    "attributes" : {
                      "ident" : "Rec 02-07-19_001",
                      "gain" : 1.0,
                      "mixToMono" : false
                    },
                    "parameters" : {
                      "translation0" : {
                        "type" : "double",
                        "defaultValue" : 703.999999999945,
                        "interp" : "eioe"
                      },
                      "translation1" : {
                        "type" : "double",
                        "defaultValue" : -347.999999999936,
                        "interp" : "eioe"
                      },
                      "scale0" : {
                        "type" : "double",
                        "defaultValue" : 0.8,
                        "interp" : "eioe"
                      },
                      "scale1" : {
                        "type" : "double",
                        "defaultValue" : 0.8,
                        "interp" : "eioe"
                      },
                      "volume" : 1.0,
                      "cursorOpacity" : {
                        "type" : "double",
                        "defaultValue" : 1.0,
                        "interp" : "linr"
                      },
                      "cursorScale" : {
                        "type" : "double",
                        "defaultValue" : 1.0,
                        "interp" : "linr"
                      }
                    },
                    "medias" : [
                        {
                          "id" : 858,
                          "_type" : "UnifiedMedia",
                          "video" : 
                              {
                                "id" : 859,
                                "_type" : "VMFile",
                                "src" : 7,
                                "trackNumber" : 1,
                                "attributes" : {
                                  "ident" : "Rec 02-07-19_001"
                                },
                                "effects" : [

                                ],
                                "start" : 0,
                                "duration" : 496,
                                "mediaStart" : 0,
                                "mediaDuration" : 496,
                                "scalar" : 1,
                                "animationTracks" : {

                                }
                              },
                          "audio" : 
                              {
                                "id" : 860,
                                "_type" : "AMFile",
                                "src" : 7,
                                "trackNumber" : 2,
                                "attributes" : {
                                  "ident" : "",
                                  "sampleRate" : 44100,
                                  "bitDepth" : 16,
                                  "gain" : 1.0,
                                  "mixToMono" : false
                                },
                                  "channelNumber" : "0,1",
                                "effects" : [

                                ],
                                "start" : 0,
                                "duration" : 496,
                                "mediaStart" : 0,
                                "mediaDuration" : 496,
                                "scalar" : 1,
                                "animationTracks" : {

                                }
                              }
,
                          "start" : 0,
                          "duration" : 496,
                          "mediaStart" : 0,
                          "mediaDuration" : 26386,
                          "scalar" : 1,
                          "metadata" : {
                            "WinSubProjectDisplayName" : "",
                            "clipSpeedAttribute" : false,
                            "default-scale0" : 0.25,
                            "default-scale1" : 0.25,
                            "default-translation0" : 880.0,
                            "default-translation1" : -480.0
                          }
                        },
                        {
                          "id" : 861,
                          "_type" : "UnifiedMedia",
                          "video" : 
                              {
                                "id" : 862,
                                "_type" : "VMFile",
                                "src" : 7,
                                "trackNumber" : 1,
                                "attributes" : {
                                  "ident" : "Rec 02-07-19_001"
                                },
                                "effects" : [

                                ],
                                "start" : 496,
                                "duration" : 190,
                                "mediaStart" : 715,
                                "mediaDuration" : 190,
                                "scalar" : 1,
                                "animationTracks" : {

                                }
                              },
                          "audio" : 
                              {
                                "id" : 863,
                                "_type" : "AMFile",
                                "src" : 7,
                                "trackNumber" : 2,
                                "attributes" : {
                                  "ident" : "",
                                  "sampleRate" : 44100,
                                  "bitDepth" : 16,
                                  "gain" : 1.0,
                                  "mixToMono" : false
                                },
                                  "channelNumber" : "0,1",
                                "effects" : [

                                ],
                                "start" : 496,
                                "duration" : 190,
                                "mediaStart" : 715,
                                "mediaDuration" : 190,
                                "scalar" : 1,
                                "animationTracks" : {

                                }
                              }
,
                          "start" : 496,
                          "duration" : 190,
                          "mediaStart" : 0,
                          "mediaDuration" : 26386,
                          "scalar" : 1,
                          "metadata" : {
                            "WinSubProjectDisplayName" : "",
                            "clipSpeedAttribute" : false,
                            "default-scale0" : 0.25,
                            "default-scale1" : 0.25,
                            "default-translation0" : 880.0,
                            "default-translation1" : -480.0
                          }
                        },
                        {
                          "id" : 864,
                          "_type" : "UnifiedMedia",
                          "video" : 
                              {
                                "id" : 865,
                                "_type" : "VMFile",
                                "src" : 7,
                                "trackNumber" : 1,
                                "attributes" : {
                                  "ident" : "Rec 02-07-19_001"
                                },
                                "effects" : [

                                ],
                                "start" : 686,
                                "duration" : 239,
                                "mediaStart" : 1444,
                                "mediaDuration" : 239,
                                "scalar" : 1,
                                "animationTracks" : {

                                }
                              },
                          "audio" : 
                              {
                                "id" : 866,
                                "_type" : "AMFile",
                                "src" : 7,
                                "trackNumber" : 2,
                                "attributes" : {
                                  "ident" : "",
                                  "sampleRate" : 44100,
                                  "bitDepth" : 16,
                                  "gain" : 1.0,
                                  "mixToMono" : false
                                },
                                  "channelNumber" : "0,1",
                                "effects" : [

                                ],
                                "start" : 686,
                                "duration" : 239,
                                "mediaStart" : 1444,
                                "mediaDuration" : 239,
                                "scalar" : 1,
                                "animationTracks" : {

                                }
                              }
,
                          "start" : 686,
                          "duration" : 239,
                          "mediaStart" : 0,
                          "mediaDuration" : 26386,
                          "scalar" : 1,
                          "metadata" : {
                            "WinSubProjectDisplayName" : "",
                            "clipSpeedAttribute" : false,
                            "default-scale0" : 0.25,
                            "default-scale1" : 0.25,
                            "default-translation0" : 880.0,
                            "default-translation1" : -480.0
                          }
                        },
                        {
                          "id" : 867,
                          "_type" : "UnifiedMedia",
                          "video" : 
                              {
                                "id" : 868,
                                "_type" : "VMFile",
                                "src" : 7,
                                "trackNumber" : 1,
                                "attributes" : {
                                  "ident" : "Rec 02-07-19_001"
                                },
                                "effects" : [

                                ],
                                "start" : 925,
                                "duration" : 128,
                                "mediaStart" : 1750,
                                "mediaDuration" : 128,
                                "scalar" : 1,
                                "animationTracks" : {

                                }
                              },
                          "audio" : 
                              {
                                "id" : 869,
                                "_type" : "AMFile",
                                "src" : 7,
                                "trackNumber" : 2,
                                "attributes" : {
                                  "ident" : "",
                                  "sampleRate" : 44100,
                                  "bitDepth" : 16,
                                  "gain" : 1.0,
                                  "mixToMono" : false
                                },
                                  "channelNumber" : "0,1",
                                "effects" : [

                                ],
                                "start" : 925,
                                "duration" : 128,
                                "mediaStart" : 1750,
                                "mediaDuration" : 128,
                                "scalar" : 1,
                                "animationTracks" : {

                                }
                              }
,
                          "start" : 925,
                          "duration" : 128,
                          "mediaStart" : 0,
                          "mediaDuration" : 26386,
                          "scalar" : 1,
                          "metadata" : {
                            "WinSubProjectDisplayName" : "",
                            "clipSpeedAttribute" : false,
                            "default-scale0" : 0.25,
                            "default-scale1" : 0.25,
                            "default-translation0" : 880.0,
                            "default-translation1" : -480.0
                          }
                        },
                        {
                          "id" : 870,
                          "_type" : "UnifiedMedia",
                          "video" : 
                              {
                                "id" : 871,
                                "_type" : "VMFile",
                                "src" : 7,
                                "trackNumber" : 1,
                                "attributes" : {
                                  "ident" : "Rec 02-07-19_001"
                                },
                                "effects" : [

                                ],
                                "start" : 1053,
                                "duration" : 298,
                                "mediaStart" : 1939,
                                "mediaDuration" : 298,
                                "scalar" : 1,
                                "animationTracks" : {

                                }
                              },
                          "audio" : 
                              {
                                "id" : 872,
                                "_type" : "AMFile",
                                "src" : 7,
                                "trackNumber" : 2,
                                "attributes" : {
                                  "ident" : "",
                                  "sampleRate" : 44100,
                                  "bitDepth" : 16,
                                  "gain" : 1.0,
                                  "mixToMono" : false
                                },
                                  "channelNumber" : "0,1",
                                "effects" : [

                                ],
                                "start" : 1053,
                                "duration" : 298,
                                "mediaStart" : 1939,
                                "mediaDuration" : 298,
                                "scalar" : 1,
                                "animationTracks" : {

                                }
                              }
,
                          "start" : 1053,
                          "duration" : 298,
                          "mediaStart" : 0,
                          "mediaDuration" : 26386,
                          "scalar" : 1,
                          "metadata" : {
                            "WinSubProjectDisplayName" : "",
                            "clipSpeedAttribute" : false,
                            "default-scale0" : 0.25,
                            "default-scale1" : 0.25,
                            "default-translation0" : 880.0,
                            "default-translation1" : -480.0
                          }
                        },
                        {
                          "id" : 873,
                          "_type" : "UnifiedMedia",
                          "video" : 
                              {
                                "id" : 874,
                                "_type" : "VMFile",
                                "src" : 7,
                                "trackNumber" : 1,
                                "attributes" : {
                                  "ident" : "Rec 02-07-19_001"
                                },
                                "effects" : [

                                ],
                                "start" : 1351,
                                "duration" : 524,
                                "mediaStart" : 2386,
                                "mediaDuration" : 524,
                                "scalar" : 1,
                                "animationTracks" : {

                                }
                              },
                          "audio" : 
                              {
                                "id" : 875,
                                "_type" : "AMFile",
                                "src" : 7,
                                "trackNumber" : 2,
                                "attributes" : {
                                  "ident" : "",
                                  "sampleRate" : 44100,
                                  "bitDepth" : 16,
                                  "gain" : 1.0,
                                  "mixToMono" : false
                                },
                                  "channelNumber" : "0,1",
                                "effects" : [

                                ],
                                "start" : 1351,
                                "duration" : 524,
                                "mediaStart" : 2386,
                                "mediaDuration" : 524,
                                "scalar" : 1,
                                "animationTracks" : {

                                }
                              }
,
                          "start" : 1351,
                          "duration" : 524,
                          "mediaStart" : 0,
                          "mediaDuration" : 26386,
                          "scalar" : 1,
                          "metadata" : {
                            "WinSubProjectDisplayName" : "",
                            "clipSpeedAttribute" : false,
                            "default-scale0" : 0.25,
                            "default-scale1" : 0.25,
                            "default-translation0" : 880.0,
                            "default-translation1" : -480.0
                          }
                        },
                        {
                          "id" : 876,
                          "_type" : "UnifiedMedia",
                          "video" : 
                              {
                                "id" : 877,
                                "_type" : "VMFile",
                                "src" : 7,
                                "trackNumber" : 1,
                                "attributes" : {
                                  "ident" : "Rec 02-07-19_001"
                                },
                                "effects" : [

                                ],
                                "start" : 1875,
                                "duration" : 143,
                                "mediaStart" : 3086,
                                "mediaDuration" : 143,
                                "scalar" : 1,
                                "animationTracks" : {

                                }
                              },
                          "audio" : 
                              {
                                "id" : 878,
                                "_type" : "AMFile",
                                "src" : 7,
                                "trackNumber" : 2,
                                "attributes" : {
                                  "ident" : "",
                                  "sampleRate" : 44100,
                                  "bitDepth" : 16,
                                  "gain" : 1.0,
                                  "mixToMono" : false
                                },
                                  "channelNumber" : "0,1",
                                "effects" : [

                                ],
                                "start" : 1875,
                                "duration" : 143,
                                "mediaStart" : 3086,
                                "mediaDuration" : 143,
                                "scalar" : 1,
                                "animationTracks" : {

                                }
                              }
,
                          "start" : 1875,
                          "duration" : 143,
                          "mediaStart" : 0,
                          "mediaDuration" : 26386,
                          "scalar" : 1,
                          "metadata" : {
                            "WinSubProjectDisplayName" : "",
                            "clipSpeedAttribute" : false,
                            "default-scale0" : 0.25,
                            "default-scale1" : 0.25,
                            "default-translation0" : 880.0,
                            "default-translation1" : -480.0
                          }
                        },
                        {
                          "id" : 879,
                          "_type" : "UnifiedMedia",
                          "video" : 
                              {
                                "id" : 880,
                                "_type" : "VMFile",
                                "src" : 7,
                                "trackNumber" : 1,
                                "attributes" : {
                                  "ident" : "Rec 02-07-19_001"
                                },
                                "effects" : [

                                ],
                                "start" : 2018,
                                "duration" : 1362,
                                "mediaStart" : 3692,
                                "mediaDuration" : 1362,
                                "scalar" : 1,
                                "animationTracks" : {

                                }
                              },
                          "audio" : 
                              {
                                "id" : 881,
                                "_type" : "AMFile",
                                "src" : 7,
                                "trackNumber" : 2,
                                "attributes" : {
                                  "ident" : "",
                                  "sampleRate" : 44100,
                                  "bitDepth" : 16,
                                  "gain" : 1.0,
                                  "mixToMono" : false
                                },
                                  "channelNumber" : "0,1",
                                "effects" : [

                                ],
                                "start" : 2018,
                                "duration" : 1362,
                                "mediaStart" : 3692,
                                "mediaDuration" : 1362,
                                "scalar" : 1,
                                "animationTracks" : {

                                }
                              }
,
                          "start" : 2018,
                          "duration" : 1362,
                          "mediaStart" : 0,
                          "mediaDuration" : 26386,
                          "scalar" : 1,
                          "metadata" : {
                            "WinSubProjectDisplayName" : "",
                            "clipSpeedAttribute" : false,
                            "default-scale0" : 0.25,
                            "default-scale1" : 0.25,
                            "default-translation0" : 880.0,
                            "default-translation1" : -480.0
                          }
                        },
                        {
                          "id" : 882,
                          "_type" : "UnifiedMedia",
                          "video" : 
                              {
                                "id" : 883,
                                "_type" : "VMFile",
                                "src" : 7,
                                "trackNumber" : 1,
                                "attributes" : {
                                  "ident" : "Rec 02-07-19_001"
                                },
                                "effects" : [

                                ],
                                "start" : 3380,
                                "duration" : 218,
                                "mediaStart" : 5246,
                                "mediaDuration" : 218,
                                "scalar" : 1,
                                "animationTracks" : {

                                }
                              },
                          "audio" : 
                              {
                                "id" : 884,
                                "_type" : "AMFile",
                                "src" : 7,
                                "trackNumber" : 2,
                                "attributes" : {
                                  "ident" : "",
                                  "sampleRate" : 44100,
                                  "bitDepth" : 16,
                                  "gain" : 1.0,
                                  "mixToMono" : false
                                },
                                  "channelNumber" : "0,1",
                                "effects" : [

                                ],
                                "start" : 3380,
                                "duration" : 218,
                                "mediaStart" : 5246,
                                "mediaDuration" : 218,
                                "scalar" : 1,
                                "animationTracks" : {

                                }
                              }
,
                          "start" : 3380,
                          "duration" : 218,
                          "mediaStart" : 0,
                          "mediaDuration" : 26386,
                          "scalar" : 1,
                          "metadata" : {
                            "WinSubProjectDisplayName" : "",
                            "clipSpeedAttribute" : false,
                            "default-scale0" : 0.25,
                            "default-scale1" : 0.25,
                            "default-translation0" : 880.0,
                            "default-translation1" : -480.0
                          }
                        },
                        {
                          "id" : 885,
                          "_type" : "UnifiedMedia",
                          "video" : 
                              {
                                "id" : 886,
                                "_type" : "VMFile",
                                "src" : 7,
                                "trackNumber" : 1,
                                "attributes" : {
                                  "ident" : "Rec 02-07-19_001"
                                },
                                "effects" : [

                                ],
                                "start" : 3598,
                                "duration" : 473,
                                "mediaStart" : 6154,
                                "mediaDuration" : 473,
                                "scalar" : 1,
                                "animationTracks" : {

                                }
                              },
                          "audio" : 
                              {
                                "id" : 887,
                                "_type" : "AMFile",
                                "src" : 7,
                                "trackNumber" : 2,
                                "attributes" : {
                                  "ident" : "",
                                  "sampleRate" : 44100,
                                  "bitDepth" : 16,
                                  "gain" : 1.0,
                                  "mixToMono" : false
                                },
                                  "channelNumber" : "0,1",
                                "effects" : [

                                ],
                                "start" : 3598,
                                "duration" : 473,
                                "mediaStart" : 6154,
                                "mediaDuration" : 473,
                                "scalar" : 1,
                                "animationTracks" : {

                                }
                              }
,
                          "start" : 3598,
                          "duration" : 473,
                          "mediaStart" : 0,
                          "mediaDuration" : 26386,
                          "scalar" : 1,
                          "metadata" : {
                            "WinSubProjectDisplayName" : "",
                            "clipSpeedAttribute" : false,
                            "default-scale0" : 0.25,
                            "default-scale1" : 0.25,
                            "default-translation0" : 880.0,
                            "default-translation1" : -480.0
                          }
                        },
                        {
                          "id" : 888,
                          "_type" : "UnifiedMedia",
                          "video" : 
                              {
                                "id" : 889,
                                "_type" : "VMFile",
                                "src" : 7,
                                "trackNumber" : 1,
                                "attributes" : {
                                  "ident" : "Rec 02-07-19_001"
                                },
                                "effects" : [

                                ],
                                "start" : 4071,
                                "duration" : 164,
                                "mediaStart" : 6726,
                                "mediaDuration" : 164,
                                "scalar" : 1,
                                "animationTracks" : {

                                }
                              },
                          "audio" : 
                              {
                                "id" : 890,
                                "_type" : "AMFile",
                                "src" : 7,
                                "trackNumber" : 2,
                                "attributes" : {
                                  "ident" : "",
                                  "sampleRate" : 44100,
                                  "bitDepth" : 16,
                                  "gain" : 1.0,
                                  "mixToMono" : false
                                },
                                  "channelNumber" : "0,1",
                                "effects" : [

                                ],
                                "start" : 4071,
                                "duration" : 164,
                                "mediaStart" : 6726,
                                "mediaDuration" : 164,
                                "scalar" : 1,
                                "animationTracks" : {

                                }
                              }
,
                          "start" : 4071,
                          "duration" : 164,
                          "mediaStart" : 0,
                          "mediaDuration" : 26386,
                          "scalar" : 1,
                          "metadata" : {
                            "WinSubProjectDisplayName" : "",
                            "clipSpeedAttribute" : false,
                            "default-scale0" : 0.25,
                            "default-scale1" : 0.25,
                            "default-translation0" : 880.0,
                            "default-translation1" : -480.0
                          }
                        },
                        {
                          "id" : 891,
                          "_type" : "UnifiedMedia",
                          "video" : 
                              {
                                "id" : 892,
                                "_type" : "VMFile",
                                "src" : 7,
                                "trackNumber" : 1,
                                "attributes" : {
                                  "ident" : "Rec 02-07-19_001"
                                },
                                "effects" : [

                                ],
                                "start" : 4235,
                                "duration" : 1279,
                                "mediaStart" : 7107,
                                "mediaDuration" : 1279,
                                "scalar" : 1,
                                "animationTracks" : {

                                }
                              },
                          "audio" : 
                              {
                                "id" : 893,
                                "_type" : "AMFile",
                                "src" : 7,
                                "trackNumber" : 2,
                                "attributes" : {
                                  "ident" : "",
                                  "sampleRate" : 44100,
                                  "bitDepth" : 16,
                                  "gain" : 1.0,
                                  "mixToMono" : false
                                },
                                  "channelNumber" : "0,1",
                                "effects" : [

                                ],
                                "start" : 4235,
                                "duration" : 1279,
                                "mediaStart" : 7107,
                                "mediaDuration" : 1279,
                                "scalar" : 1,
                                "animationTracks" : {

                                }
                              }
,
                          "start" : 4235,
                          "duration" : 1279,
                          "mediaStart" : 0,
                          "mediaDuration" : 26386,
                          "scalar" : 1,
                          "metadata" : {
                            "WinSubProjectDisplayName" : "",
                            "clipSpeedAttribute" : false,
                            "default-scale0" : 0.25,
                            "default-scale1" : 0.25,
                            "default-translation0" : 880.0,
                            "default-translation1" : -480.0
                          }
                        },
                        {
                          "id" : 894,
                          "_type" : "UnifiedMedia",
                          "video" : 
                              {
                                "id" : 895,
                                "_type" : "VMFile",
                                "src" : 7,
                                "trackNumber" : 1,
                                "attributes" : {
                                  "ident" : "Rec 02-07-19_001"
                                },
                                "effects" : [

                                ],
                                "start" : 5514,
                                "duration" : 1542,
                                "mediaStart" : 8518,
                                "mediaDuration" : 1542,
                                "scalar" : 1,
                                "animationTracks" : {

                                }
                              },
                          "audio" : 
                              {
                                "id" : 896,
                                "_type" : "AMFile",
                                "src" : 7,
                                "trackNumber" : 2,
                                "attributes" : {
                                  "ident" : "",
                                  "sampleRate" : 44100,
                                  "bitDepth" : 16,
                                  "gain" : 1.0,
                                  "mixToMono" : false
                                },
                                  "channelNumber" : "0,1",
                                "effects" : [

                                ],
                                "start" : 5514,
                                "duration" : 1542,
                                "mediaStart" : 8518,
                                "mediaDuration" : 1542,
                                "scalar" : 1,
                                "animationTracks" : {

                                }
                              }
,
                          "start" : 5514,
                          "duration" : 1542,
                          "mediaStart" : 0,
                          "mediaDuration" : 26386,
                          "scalar" : 1,
                          "metadata" : {
                            "WinSubProjectDisplayName" : "",
                            "clipSpeedAttribute" : false,
                            "default-scale0" : 0.25,
                            "default-scale1" : 0.25,
                            "default-translation0" : 880.0,
                            "default-translation1" : -480.0
                          }
                        },
                        {
                          "id" : 897,
                          "_type" : "UnifiedMedia",
                          "video" : 
                              {
                                "id" : 898,
                                "_type" : "VMFile",
                                "src" : 7,
                                "trackNumber" : 1,
                                "attributes" : {
                                  "ident" : "Rec 02-07-19_001"
                                },
                                "effects" : [

                                ],
                                "start" : 7056,
                                "duration" : 846,
                                "mediaStart" : 10392,
                                "mediaDuration" : 846,
                                "scalar" : 1,
                                "animationTracks" : {

                                }
                              },
                          "audio" : 
                              {
                                "id" : 899,
                                "_type" : "AMFile",
                                "src" : 7,
                                "trackNumber" : 2,
                                "attributes" : {
                                  "ident" : "",
                                  "sampleRate" : 44100,
                                  "bitDepth" : 16,
                                  "gain" : 1.0,
                                  "mixToMono" : false
                                },
                                  "channelNumber" : "0,1",
                                "effects" : [

                                ],
                                "start" : 7056,
                                "duration" : 846,
                                "mediaStart" : 10392,
                                "mediaDuration" : 846,
                                "scalar" : 1,
                                "animationTracks" : {

                                }
                              }
,
                          "start" : 7056,
                          "duration" : 846,
                          "mediaStart" : 0,
                          "mediaDuration" : 26386,
                          "scalar" : 1,
                          "metadata" : {
                            "WinSubProjectDisplayName" : "",
                            "clipSpeedAttribute" : false,
                            "default-scale0" : 0.25,
                            "default-scale1" : 0.25,
                            "default-translation0" : 880.0,
                            "default-translation1" : -480.0
                          }
                        },
                        {
                          "id" : 900,
                          "_type" : "UnifiedMedia",
                          "video" : 
                              {
                                "id" : 901,
                                "_type" : "VMFile",
                                "src" : 7,
                                "trackNumber" : 1,
                                "attributes" : {
                                  "ident" : "Rec 02-07-19_001"
                                },
                                "effects" : [

                                ],
                                "start" : 7902,
                                "duration" : 451,
                                "mediaStart" : 11363,
                                "mediaDuration" : 451,
                                "scalar" : 1,
                                "animationTracks" : {

                                }
                              },
                          "audio" : 
                              {
                                "id" : 902,
                                "_type" : "AMFile",
                                "src" : 7,
                                "trackNumber" : 2,
                                "attributes" : {
                                  "ident" : "",
                                  "sampleRate" : 44100,
                                  "bitDepth" : 16,
                                  "gain" : 1.0,
                                  "mixToMono" : false
                                },
                                  "channelNumber" : "0,1",
                                "effects" : [

                                ],
                                "start" : 7902,
                                "duration" : 451,
                                "mediaStart" : 11363,
                                "mediaDuration" : 451,
                                "scalar" : 1,
                                "animationTracks" : {

                                }
                              }
,
                          "start" : 7902,
                          "duration" : 451,
                          "mediaStart" : 0,
                          "mediaDuration" : 26386,
                          "scalar" : 1,
                          "metadata" : {
                            "WinSubProjectDisplayName" : "",
                            "clipSpeedAttribute" : false,
                            "default-scale0" : 0.25,
                            "default-scale1" : 0.25,
                            "default-translation0" : 880.0,
                            "default-translation1" : -480.0
                          }
                        },
                        {
                          "id" : 903,
                          "_type" : "UnifiedMedia",
                          "video" : 
                              {
                                "id" : 904,
                                "_type" : "VMFile",
                                "src" : 7,
                                "trackNumber" : 1,
                                "attributes" : {
                                  "ident" : "Rec 02-07-19_001"
                                },
                                "effects" : [

                                ],
                                "start" : 8353,
                                "duration" : 423,
                                "mediaStart" : 12079,
                                "mediaDuration" : 423,
                                "scalar" : 1,
                                "animationTracks" : {

                                }
                              },
                          "audio" : 
                              {
                                "id" : 905,
                                "_type" : "AMFile",
                                "src" : 7,
                                "trackNumber" : 2,
                                "attributes" : {
                                  "ident" : "",
                                  "sampleRate" : 44100,
                                  "bitDepth" : 16,
                                  "gain" : 1.0,
                                  "mixToMono" : false
                                },
                                  "channelNumber" : "0,1",
                                "effects" : [

                                ],
                                "start" : 8353,
                                "duration" : 423,
                                "mediaStart" : 12079,
                                "mediaDuration" : 423,
                                "scalar" : 1,
                                "animationTracks" : {

                                }
                              }
,
                          "start" : 8353,
                          "duration" : 423,
                          "mediaStart" : 0,
                          "mediaDuration" : 26386,
                          "scalar" : 1,
                          "metadata" : {
                            "WinSubProjectDisplayName" : "",
                            "clipSpeedAttribute" : false,
                            "default-scale0" : 0.25,
                            "default-scale1" : 0.25,
                            "default-translation0" : 880.0,
                            "default-translation1" : -480.0
                          }
                        },
                        {
                          "id" : 906,
                          "_type" : "UnifiedMedia",
                          "video" : 
                              {
                                "id" : 907,
                                "_type" : "VMFile",
                                "src" : 7,
                                "trackNumber" : 1,
                                "attributes" : {
                                  "ident" : "Rec 02-07-19_001"
                                },
                                "effects" : [

                                ],
                                "start" : 8776,
                                "duration" : 13579,
                                "mediaStart" : 12807,
                                "mediaDuration" : 13579,
                                "scalar" : 1,
                                "animationTracks" : {

                                }
                              },
                          "audio" : 
                              {
                                "id" : 908,
                                "_type" : "AMFile",
                                "src" : 7,
                                "trackNumber" : 2,
                                "attributes" : {
                                  "ident" : "",
                                  "sampleRate" : 44100,
                                  "bitDepth" : 16,
                                  "gain" : 1.0,
                                  "mixToMono" : false
                                },
                                  "channelNumber" : "0,1",
                                "effects" : [

                                ],
                                "start" : 8776,
                                "duration" : 13579,
                                "mediaStart" : 12807,
                                "mediaDuration" : 13579,
                                "scalar" : 1,
                                "animationTracks" : {

                                }
                              }
,
                          "start" : 8776,
                          "duration" : 13579,
                          "mediaStart" : 0,
                          "mediaDuration" : 26386,
                          "scalar" : 1,
                          "metadata" : {
                            "WinSubProjectDisplayName" : "",
                            "clipSpeedAttribute" : false,
                            "default-scale0" : 0.25,
                            "default-scale1" : 0.25,
                            "default-translation0" : 880.0,
                            "default-translation1" : -480.0
                          }
                        }
                    ],
                    "effects" : [

                    ],
                    "start" : 22412,
                    "duration" : 402,
                    "mediaStart" : 9107,
                    "mediaDuration" : 1609,
                    "scalar" : "402/1609",
                    "metadata" : {
                      "WinSubProjectDisplayName" : "",
                      "clipSpeedAttribute" : true
                    },
                    "animationTracks" : {

                    }
                  },
                  {
                    "id" : 909,
                    "_type" : "StitchedMedia",
                    "minMediaStart" : 0,
                    "attributes" : {
                      "ident" : "Rec 02-07-19_001",
                      "gain" : 1.0,
                      "mixToMono" : false
                    },
                    "parameters" : {
                      "translation0" : {
                        "type" : "double",
                        "defaultValue" : 703.999999999945,
                        "interp" : "eioe"
                      },
                      "translation1" : {
                        "type" : "double",
                        "defaultValue" : -347.999999999936,
                        "interp" : "eioe"
                      },
                      "scale0" : {
                        "type" : "double",
                        "defaultValue" : 0.8,
                        "interp" : "eioe"
                      },
                      "scale1" : {
                        "type" : "double",
                        "defaultValue" : 0.8,
                        "interp" : "eioe"
                      },
                      "volume" : 1.0,
                      "cursorOpacity" : {
                        "type" : "double",
                        "defaultValue" : 1.0,
                        "interp" : "linr"
                      },
                      "cursorScale" : {
                        "type" : "double",
                        "defaultValue" : 1.0,
                        "interp" : "linr"
                      }
                    },
                    "medias" : [
                        {
                          "id" : 910,
                          "_type" : "UnifiedMedia",
                          "video" : 
                              {
                                "id" : 911,
                                "_type" : "VMFile",
                                "src" : 7,
                                "trackNumber" : 1,
                                "attributes" : {
                                  "ident" : "Rec 02-07-19_001"
                                },
                                "effects" : [

                                ],
                                "start" : 0,
                                "duration" : 496,
                                "mediaStart" : 0,
                                "mediaDuration" : 496,
                                "scalar" : 1,
                                "animationTracks" : {

                                }
                              },
                          "audio" : 
                              {
                                "id" : 912,
                                "_type" : "AMFile",
                                "src" : 7,
                                "trackNumber" : 2,
                                "attributes" : {
                                  "ident" : "",
                                  "sampleRate" : 44100,
                                  "bitDepth" : 16,
                                  "gain" : 1.0,
                                  "mixToMono" : false
                                },
                                  "channelNumber" : "0,1",
                                "effects" : [

                                ],
                                "start" : 0,
                                "duration" : 496,
                                "mediaStart" : 0,
                                "mediaDuration" : 496,
                                "scalar" : 1,
                                "animationTracks" : {

                                }
                              }
,
                          "start" : 0,
                          "duration" : 496,
                          "mediaStart" : 0,
                          "mediaDuration" : 26386,
                          "scalar" : 1,
                          "metadata" : {
                            "WinSubProjectDisplayName" : "",
                            "clipSpeedAttribute" : false,
                            "default-scale0" : 0.25,
                            "default-scale1" : 0.25,
                            "default-translation0" : 880.0,
                            "default-translation1" : -480.0
                          }
                        },
                        {
                          "id" : 913,
                          "_type" : "UnifiedMedia",
                          "video" : 
                              {
                                "id" : 914,
                                "_type" : "VMFile",
                                "src" : 7,
                                "trackNumber" : 1,
                                "attributes" : {
                                  "ident" : "Rec 02-07-19_001"
                                },
                                "effects" : [

                                ],
                                "start" : 496,
                                "duration" : 190,
                                "mediaStart" : 715,
                                "mediaDuration" : 190,
                                "scalar" : 1,
                                "animationTracks" : {

                                }
                              },
                          "audio" : 
                              {
                                "id" : 915,
                                "_type" : "AMFile",
                                "src" : 7,
                                "trackNumber" : 2,
                                "attributes" : {
                                  "ident" : "",
                                  "sampleRate" : 44100,
                                  "bitDepth" : 16,
                                  "gain" : 1.0,
                                  "mixToMono" : false
                                },
                                  "channelNumber" : "0,1",
                                "effects" : [

                                ],
                                "start" : 496,
                                "duration" : 190,
                                "mediaStart" : 715,
                                "mediaDuration" : 190,
                                "scalar" : 1,
                                "animationTracks" : {

                                }
                              }
,
                          "start" : 496,
                          "duration" : 190,
                          "mediaStart" : 0,
                          "mediaDuration" : 26386,
                          "scalar" : 1,
                          "metadata" : {
                            "WinSubProjectDisplayName" : "",
                            "clipSpeedAttribute" : false,
                            "default-scale0" : 0.25,
                            "default-scale1" : 0.25,
                            "default-translation0" : 880.0,
                            "default-translation1" : -480.0
                          }
                        },
                        {
                          "id" : 916,
                          "_type" : "UnifiedMedia",
                          "video" : 
                              {
                                "id" : 917,
                                "_type" : "VMFile",
                                "src" : 7,
                                "trackNumber" : 1,
                                "attributes" : {
                                  "ident" : "Rec 02-07-19_001"
                                },
                                "effects" : [

                                ],
                                "start" : 686,
                                "duration" : 239,
                                "mediaStart" : 1444,
                                "mediaDuration" : 239,
                                "scalar" : 1,
                                "animationTracks" : {

                                }
                              },
                          "audio" : 
                              {
                                "id" : 918,
                                "_type" : "AMFile",
                                "src" : 7,
                                "trackNumber" : 2,
                                "attributes" : {
                                  "ident" : "",
                                  "sampleRate" : 44100,
                                  "bitDepth" : 16,
                                  "gain" : 1.0,
                                  "mixToMono" : false
                                },
                                  "channelNumber" : "0,1",
                                "effects" : [

                                ],
                                "start" : 686,
                                "duration" : 239,
                                "mediaStart" : 1444,
                                "mediaDuration" : 239,
                                "scalar" : 1,
                                "animationTracks" : {

                                }
                              }
,
                          "start" : 686,
                          "duration" : 239,
                          "mediaStart" : 0,
                          "mediaDuration" : 26386,
                          "scalar" : 1,
                          "metadata" : {
                            "WinSubProjectDisplayName" : "",
                            "clipSpeedAttribute" : false,
                            "default-scale0" : 0.25,
                            "default-scale1" : 0.25,
                            "default-translation0" : 880.0,
                            "default-translation1" : -480.0
                          }
                        },
                        {
                          "id" : 919,
                          "_type" : "UnifiedMedia",
                          "video" : 
                              {
                                "id" : 920,
                                "_type" : "VMFile",
                                "src" : 7,
                                "trackNumber" : 1,
                                "attributes" : {
                                  "ident" : "Rec 02-07-19_001"
                                },
                                "effects" : [

                                ],
                                "start" : 925,
                                "duration" : 128,
                                "mediaStart" : 1750,
                                "mediaDuration" : 128,
                                "scalar" : 1,
                                "animationTracks" : {

                                }
                              },
                          "audio" : 
                              {
                                "id" : 921,
                                "_type" : "AMFile",
                                "src" : 7,
                                "trackNumber" : 2,
                                "attributes" : {
                                  "ident" : "",
                                  "sampleRate" : 44100,
                                  "bitDepth" : 16,
                                  "gain" : 1.0,
                                  "mixToMono" : false
                                },
                                  "channelNumber" : "0,1",
                                "effects" : [

                                ],
                                "start" : 925,
                                "duration" : 128,
                                "mediaStart" : 1750,
                                "mediaDuration" : 128,
                                "scalar" : 1,
                                "animationTracks" : {

                                }
                              }
,
                          "start" : 925,
                          "duration" : 128,
                          "mediaStart" : 0,
                          "mediaDuration" : 26386,
                          "scalar" : 1,
                          "metadata" : {
                            "WinSubProjectDisplayName" : "",
                            "clipSpeedAttribute" : false,
                            "default-scale0" : 0.25,
                            "default-scale1" : 0.25,
                            "default-translation0" : 880.0,
                            "default-translation1" : -480.0
                          }
                        },
                        {
                          "id" : 922,
                          "_type" : "UnifiedMedia",
                          "video" : 
                              {
                                "id" : 923,
                                "_type" : "VMFile",
                                "src" : 7,
                                "trackNumber" : 1,
                                "attributes" : {
                                  "ident" : "Rec 02-07-19_001"
                                },
                                "effects" : [

                                ],
                                "start" : 1053,
                                "duration" : 298,
                                "mediaStart" : 1939,
                                "mediaDuration" : 298,
                                "scalar" : 1,
                                "animationTracks" : {

                                }
                              },
                          "audio" : 
                              {
                                "id" : 924,
                                "_type" : "AMFile",
                                "src" : 7,
                                "trackNumber" : 2,
                                "attributes" : {
                                  "ident" : "",
                                  "sampleRate" : 44100,
                                  "bitDepth" : 16,
                                  "gain" : 1.0,
                                  "mixToMono" : false
                                },
                                  "channelNumber" : "0,1",
                                "effects" : [

                                ],
                                "start" : 1053,
                                "duration" : 298,
                                "mediaStart" : 1939,
                                "mediaDuration" : 298,
                                "scalar" : 1,
                                "animationTracks" : {

                                }
                              }
,
                          "start" : 1053,
                          "duration" : 298,
                          "mediaStart" : 0,
                          "mediaDuration" : 26386,
                          "scalar" : 1,
                          "metadata" : {
                            "WinSubProjectDisplayName" : "",
                            "clipSpeedAttribute" : false,
                            "default-scale0" : 0.25,
                            "default-scale1" : 0.25,
                            "default-translation0" : 880.0,
                            "default-translation1" : -480.0
                          }
                        },
                        {
                          "id" : 925,
                          "_type" : "UnifiedMedia",
                          "video" : 
                              {
                                "id" : 926,
                                "_type" : "VMFile",
                                "src" : 7,
                                "trackNumber" : 1,
                                "attributes" : {
                                  "ident" : "Rec 02-07-19_001"
                                },
                                "effects" : [

                                ],
                                "start" : 1351,
                                "duration" : 524,
                                "mediaStart" : 2386,
                                "mediaDuration" : 524,
                                "scalar" : 1,
                                "animationTracks" : {

                                }
                              },
                          "audio" : 
                              {
                                "id" : 927,
                                "_type" : "AMFile",
                                "src" : 7,
                                "trackNumber" : 2,
                                "attributes" : {
                                  "ident" : "",
                                  "sampleRate" : 44100,
                                  "bitDepth" : 16,
                                  "gain" : 1.0,
                                  "mixToMono" : false
                                },
                                  "channelNumber" : "0,1",
                                "effects" : [

                                ],
                                "start" : 1351,
                                "duration" : 524,
                                "mediaStart" : 2386,
                                "mediaDuration" : 524,
                                "scalar" : 1,
                                "animationTracks" : {

                                }
                              }
,
                          "start" : 1351,
                          "duration" : 524,
                          "mediaStart" : 0,
                          "mediaDuration" : 26386,
                          "scalar" : 1,
                          "metadata" : {
                            "WinSubProjectDisplayName" : "",
                            "clipSpeedAttribute" : false,
                            "default-scale0" : 0.25,
                            "default-scale1" : 0.25,
                            "default-translation0" : 880.0,
                            "default-translation1" : -480.0
                          }
                        },
                        {
                          "id" : 928,
                          "_type" : "UnifiedMedia",
                          "video" : 
                              {
                                "id" : 929,
                                "_type" : "VMFile",
                                "src" : 7,
                                "trackNumber" : 1,
                                "attributes" : {
                                  "ident" : "Rec 02-07-19_001"
                                },
                                "effects" : [

                                ],
                                "start" : 1875,
                                "duration" : 143,
                                "mediaStart" : 3086,
                                "mediaDuration" : 143,
                                "scalar" : 1,
                                "animationTracks" : {

                                }
                              },
                          "audio" : 
                              {
                                "id" : 930,
                                "_type" : "AMFile",
                                "src" : 7,
                                "trackNumber" : 2,
                                "attributes" : {
                                  "ident" : "",
                                  "sampleRate" : 44100,
                                  "bitDepth" : 16,
                                  "gain" : 1.0,
                                  "mixToMono" : false
                                },
                                  "channelNumber" : "0,1",
                                "effects" : [

                                ],
                                "start" : 1875,
                                "duration" : 143,
                                "mediaStart" : 3086,
                                "mediaDuration" : 143,
                                "scalar" : 1,
                                "animationTracks" : {

                                }
                              }
,
                          "start" : 1875,
                          "duration" : 143,
                          "mediaStart" : 0,
                          "mediaDuration" : 26386,
                          "scalar" : 1,
                          "metadata" : {
                            "WinSubProjectDisplayName" : "",
                            "clipSpeedAttribute" : false,
                            "default-scale0" : 0.25,
                            "default-scale1" : 0.25,
                            "default-translation0" : 880.0,
                            "default-translation1" : -480.0
                          }
                        },
                        {
                          "id" : 931,
                          "_type" : "UnifiedMedia",
                          "video" : 
                              {
                                "id" : 932,
                                "_type" : "VMFile",
                                "src" : 7,
                                "trackNumber" : 1,
                                "attributes" : {
                                  "ident" : "Rec 02-07-19_001"
                                },
                                "effects" : [

                                ],
                                "start" : 2018,
                                "duration" : 1362,
                                "mediaStart" : 3692,
                                "mediaDuration" : 1362,
                                "scalar" : 1,
                                "animationTracks" : {

                                }
                              },
                          "audio" : 
                              {
                                "id" : 933,
                                "_type" : "AMFile",
                                "src" : 7,
                                "trackNumber" : 2,
                                "attributes" : {
                                  "ident" : "",
                                  "sampleRate" : 44100,
                                  "bitDepth" : 16,
                                  "gain" : 1.0,
                                  "mixToMono" : false
                                },
                                  "channelNumber" : "0,1",
                                "effects" : [

                                ],
                                "start" : 2018,
                                "duration" : 1362,
                                "mediaStart" : 3692,
                                "mediaDuration" : 1362,
                                "scalar" : 1,
                                "animationTracks" : {

                                }
                              }
,
                          "start" : 2018,
                          "duration" : 1362,
                          "mediaStart" : 0,
                          "mediaDuration" : 26386,
                          "scalar" : 1,
                          "metadata" : {
                            "WinSubProjectDisplayName" : "",
                            "clipSpeedAttribute" : false,
                            "default-scale0" : 0.25,
                            "default-scale1" : 0.25,
                            "default-translation0" : 880.0,
                            "default-translation1" : -480.0
                          }
                        },
                        {
                          "id" : 934,
                          "_type" : "UnifiedMedia",
                          "video" : 
                              {
                                "id" : 935,
                                "_type" : "VMFile",
                                "src" : 7,
                                "trackNumber" : 1,
                                "attributes" : {
                                  "ident" : "Rec 02-07-19_001"
                                },
                                "effects" : [

                                ],
                                "start" : 3380,
                                "duration" : 218,
                                "mediaStart" : 5246,
                                "mediaDuration" : 218,
                                "scalar" : 1,
                                "animationTracks" : {

                                }
                              },
                          "audio" : 
                              {
                                "id" : 936,
                                "_type" : "AMFile",
                                "src" : 7,
                                "trackNumber" : 2,
                                "attributes" : {
                                  "ident" : "",
                                  "sampleRate" : 44100,
                                  "bitDepth" : 16,
                                  "gain" : 1.0,
                                  "mixToMono" : false
                                },
                                  "channelNumber" : "0,1",
                                "effects" : [

                                ],
                                "start" : 3380,
                                "duration" : 218,
                                "mediaStart" : 5246,
                                "mediaDuration" : 218,
                                "scalar" : 1,
                                "animationTracks" : {

                                }
                              }
,
                          "start" : 3380,
                          "duration" : 218,
                          "mediaStart" : 0,
                          "mediaDuration" : 26386,
                          "scalar" : 1,
                          "metadata" : {
                            "WinSubProjectDisplayName" : "",
                            "clipSpeedAttribute" : false,
                            "default-scale0" : 0.25,
                            "default-scale1" : 0.25,
                            "default-translation0" : 880.0,
                            "default-translation1" : -480.0
                          }
                        },
                        {
                          "id" : 937,
                          "_type" : "UnifiedMedia",
                          "video" : 
                              {
                                "id" : 938,
                                "_type" : "VMFile",
                                "src" : 7,
                                "trackNumber" : 1,
                                "attributes" : {
                                  "ident" : "Rec 02-07-19_001"
                                },
                                "effects" : [

                                ],
                                "start" : 3598,
                                "duration" : 473,
                                "mediaStart" : 6154,
                                "mediaDuration" : 473,
                                "scalar" : 1,
                                "animationTracks" : {

                                }
                              },
                          "audio" : 
                              {
                                "id" : 939,
                                "_type" : "AMFile",
                                "src" : 7,
                                "trackNumber" : 2,
                                "attributes" : {
                                  "ident" : "",
                                  "sampleRate" : 44100,
                                  "bitDepth" : 16,
                                  "gain" : 1.0,
                                  "mixToMono" : false
                                },
                                  "channelNumber" : "0,1",
                                "effects" : [

                                ],
                                "start" : 3598,
                                "duration" : 473,
                                "mediaStart" : 6154,
                                "mediaDuration" : 473,
                                "scalar" : 1,
                                "animationTracks" : {

                                }
                              }
,
                          "start" : 3598,
                          "duration" : 473,
                          "mediaStart" : 0,
                          "mediaDuration" : 26386,
                          "scalar" : 1,
                          "metadata" : {
                            "WinSubProjectDisplayName" : "",
                            "clipSpeedAttribute" : false,
                            "default-scale0" : 0.25,
                            "default-scale1" : 0.25,
                            "default-translation0" : 880.0,
                            "default-translation1" : -480.0
                          }
                        },
                        {
                          "id" : 940,
                          "_type" : "UnifiedMedia",
                          "video" : 
                              {
                                "id" : 941,
                                "_type" : "VMFile",
                                "src" : 7,
                                "trackNumber" : 1,
                                "attributes" : {
                                  "ident" : "Rec 02-07-19_001"
                                },
                                "effects" : [

                                ],
                                "start" : 4071,
                                "duration" : 164,
                                "mediaStart" : 6726,
                                "mediaDuration" : 164,
                                "scalar" : 1,
                                "animationTracks" : {

                                }
                              },
                          "audio" : 
                              {
                                "id" : 942,
                                "_type" : "AMFile",
                                "src" : 7,
                                "trackNumber" : 2,
                                "attributes" : {
                                  "ident" : "",
                                  "sampleRate" : 44100,
                                  "bitDepth" : 16,
                                  "gain" : 1.0,
                                  "mixToMono" : false
                                },
                                  "channelNumber" : "0,1",
                                "effects" : [

                                ],
                                "start" : 4071,
                                "duration" : 164,
                                "mediaStart" : 6726,
                                "mediaDuration" : 164,
                                "scalar" : 1,
                                "animationTracks" : {

                                }
                              }
,
                          "start" : 4071,
                          "duration" : 164,
                          "mediaStart" : 0,
                          "mediaDuration" : 26386,
                          "scalar" : 1,
                          "metadata" : {
                            "WinSubProjectDisplayName" : "",
                            "clipSpeedAttribute" : false,
                            "default-scale0" : 0.25,
                            "default-scale1" : 0.25,
                            "default-translation0" : 880.0,
                            "default-translation1" : -480.0
                          }
                        },
                        {
                          "id" : 943,
                          "_type" : "UnifiedMedia",
                          "video" : 
                              {
                                "id" : 944,
                                "_type" : "VMFile",
                                "src" : 7,
                                "trackNumber" : 1,
                                "attributes" : {
                                  "ident" : "Rec 02-07-19_001"
                                },
                                "effects" : [

                                ],
                                "start" : 4235,
                                "duration" : 1279,
                                "mediaStart" : 7107,
                                "mediaDuration" : 1279,
                                "scalar" : 1,
                                "animationTracks" : {

                                }
                              },
                          "audio" : 
                              {
                                "id" : 945,
                                "_type" : "AMFile",
                                "src" : 7,
                                "trackNumber" : 2,
                                "attributes" : {
                                  "ident" : "",
                                  "sampleRate" : 44100,
                                  "bitDepth" : 16,
                                  "gain" : 1.0,
                                  "mixToMono" : false
                                },
                                  "channelNumber" : "0,1",
                                "effects" : [

                                ],
                                "start" : 4235,
                                "duration" : 1279,
                                "mediaStart" : 7107,
                                "mediaDuration" : 1279,
                                "scalar" : 1,
                                "animationTracks" : {

                                }
                              }
,
                          "start" : 4235,
                          "duration" : 1279,
                          "mediaStart" : 0,
                          "mediaDuration" : 26386,
                          "scalar" : 1,
                          "metadata" : {
                            "WinSubProjectDisplayName" : "",
                            "clipSpeedAttribute" : false,
                            "default-scale0" : 0.25,
                            "default-scale1" : 0.25,
                            "default-translation0" : 880.0,
                            "default-translation1" : -480.0
                          }
                        },
                        {
                          "id" : 946,
                          "_type" : "UnifiedMedia",
                          "video" : 
                              {
                                "id" : 947,
                                "_type" : "VMFile",
                                "src" : 7,
                                "trackNumber" : 1,
                                "attributes" : {
                                  "ident" : "Rec 02-07-19_001"
                                },
                                "effects" : [

                                ],
                                "start" : 5514,
                                "duration" : 1542,
                                "mediaStart" : 8518,
                                "mediaDuration" : 1542,
                                "scalar" : 1,
                                "animationTracks" : {

                                }
                              },
                          "audio" : 
                              {
                                "id" : 948,
                                "_type" : "AMFile",
                                "src" : 7,
                                "trackNumber" : 2,
                                "attributes" : {
                                  "ident" : "",
                                  "sampleRate" : 44100,
                                  "bitDepth" : 16,
                                  "gain" : 1.0,
                                  "mixToMono" : false
                                },
                                  "channelNumber" : "0,1",
                                "effects" : [

                                ],
                                "start" : 5514,
                                "duration" : 1542,
                                "mediaStart" : 8518,
                                "mediaDuration" : 1542,
                                "scalar" : 1,
                                "animationTracks" : {

                                }
                              }
,
                          "start" : 5514,
                          "duration" : 1542,
                          "mediaStart" : 0,
                          "mediaDuration" : 26386,
                          "scalar" : 1,
                          "metadata" : {
                            "WinSubProjectDisplayName" : "",
                            "clipSpeedAttribute" : false,
                            "default-scale0" : 0.25,
                            "default-scale1" : 0.25,
                            "default-translation0" : 880.0,
                            "default-translation1" : -480.0
                          }
                        },
                        {
                          "id" : 949,
                          "_type" : "UnifiedMedia",
                          "video" : 
                              {
                                "id" : 950,
                                "_type" : "VMFile",
                                "src" : 7,
                                "trackNumber" : 1,
                                "attributes" : {
                                  "ident" : "Rec 02-07-19_001"
                                },
                                "effects" : [

                                ],
                                "start" : 7056,
                                "duration" : 846,
                                "mediaStart" : 10392,
                                "mediaDuration" : 846,
                                "scalar" : 1,
                                "animationTracks" : {

                                }
                              },
                          "audio" : 
                              {
                                "id" : 951,
                                "_type" : "AMFile",
                                "src" : 7,
                                "trackNumber" : 2,
                                "attributes" : {
                                  "ident" : "",
                                  "sampleRate" : 44100,
                                  "bitDepth" : 16,
                                  "gain" : 1.0,
                                  "mixToMono" : false
                                },
                                  "channelNumber" : "0,1",
                                "effects" : [

                                ],
                                "start" : 7056,
                                "duration" : 846,
                                "mediaStart" : 10392,
                                "mediaDuration" : 846,
                                "scalar" : 1,
                                "animationTracks" : {

                                }
                              }
,
                          "start" : 7056,
                          "duration" : 846,
                          "mediaStart" : 0,
                          "mediaDuration" : 26386,
                          "scalar" : 1,
                          "metadata" : {
                            "WinSubProjectDisplayName" : "",
                            "clipSpeedAttribute" : false,
                            "default-scale0" : 0.25,
                            "default-scale1" : 0.25,
                            "default-translation0" : 880.0,
                            "default-translation1" : -480.0
                          }
                        },
                        {
                          "id" : 952,
                          "_type" : "UnifiedMedia",
                          "video" : 
                              {
                                "id" : 953,
                                "_type" : "VMFile",
                                "src" : 7,
                                "trackNumber" : 1,
                                "attributes" : {
                                  "ident" : "Rec 02-07-19_001"
                                },
                                "effects" : [

                                ],
                                "start" : 7902,
                                "duration" : 451,
                                "mediaStart" : 11363,
                                "mediaDuration" : 451,
                                "scalar" : 1,
                                "animationTracks" : {

                                }
                              },
                          "audio" : 
                              {
                                "id" : 954,
                                "_type" : "AMFile",
                                "src" : 7,
                                "trackNumber" : 2,
                                "attributes" : {
                                  "ident" : "",
                                  "sampleRate" : 44100,
                                  "bitDepth" : 16,
                                  "gain" : 1.0,
                                  "mixToMono" : false
                                },
                                  "channelNumber" : "0,1",
                                "effects" : [

                                ],
                                "start" : 7902,
                                "duration" : 451,
                                "mediaStart" : 11363,
                                "mediaDuration" : 451,
                                "scalar" : 1,
                                "animationTracks" : {

                                }
                              }
,
                          "start" : 7902,
                          "duration" : 451,
                          "mediaStart" : 0,
                          "mediaDuration" : 26386,
                          "scalar" : 1,
                          "metadata" : {
                            "WinSubProjectDisplayName" : "",
                            "clipSpeedAttribute" : false,
                            "default-scale0" : 0.25,
                            "default-scale1" : 0.25,
                            "default-translation0" : 880.0,
                            "default-translation1" : -480.0
                          }
                        },
                        {
                          "id" : 955,
                          "_type" : "UnifiedMedia",
                          "video" : 
                              {
                                "id" : 956,
                                "_type" : "VMFile",
                                "src" : 7,
                                "trackNumber" : 1,
                                "attributes" : {
                                  "ident" : "Rec 02-07-19_001"
                                },
                                "effects" : [

                                ],
                                "start" : 8353,
                                "duration" : 423,
                                "mediaStart" : 12079,
                                "mediaDuration" : 423,
                                "scalar" : 1,
                                "animationTracks" : {

                                }
                              },
                          "audio" : 
                              {
                                "id" : 957,
                                "_type" : "AMFile",
                                "src" : 7,
                                "trackNumber" : 2,
                                "attributes" : {
                                  "ident" : "",
                                  "sampleRate" : 44100,
                                  "bitDepth" : 16,
                                  "gain" : 1.0,
                                  "mixToMono" : false
                                },
                                  "channelNumber" : "0,1",
                                "effects" : [

                                ],
                                "start" : 8353,
                                "duration" : 423,
                                "mediaStart" : 12079,
                                "mediaDuration" : 423,
                                "scalar" : 1,
                                "animationTracks" : {

                                }
                              }
,
                          "start" : 8353,
                          "duration" : 423,
                          "mediaStart" : 0,
                          "mediaDuration" : 26386,
                          "scalar" : 1,
                          "metadata" : {
                            "WinSubProjectDisplayName" : "",
                            "clipSpeedAttribute" : false,
                            "default-scale0" : 0.25,
                            "default-scale1" : 0.25,
                            "default-translation0" : 880.0,
                            "default-translation1" : -480.0
                          }
                        },
                        {
                          "id" : 958,
                          "_type" : "UnifiedMedia",
                          "video" : 
                              {
                                "id" : 959,
                                "_type" : "VMFile",
                                "src" : 7,
                                "trackNumber" : 1,
                                "attributes" : {
                                  "ident" : "Rec 02-07-19_001"
                                },
                                "effects" : [

                                ],
                                "start" : 8776,
                                "duration" : 2615,
                                "mediaStart" : 12807,
                                "mediaDuration" : 2615,
                                "scalar" : 1,
                                "animationTracks" : {

                                }
                              },
                          "audio" : 
                              {
                                "id" : 960,
                                "_type" : "AMFile",
                                "src" : 7,
                                "trackNumber" : 2,
                                "attributes" : {
                                  "ident" : "",
                                  "sampleRate" : 44100,
                                  "bitDepth" : 16,
                                  "gain" : 1.0,
                                  "mixToMono" : false
                                },
                                  "channelNumber" : "0,1",
                                "effects" : [

                                ],
                                "start" : 8776,
                                "duration" : 2615,
                                "mediaStart" : 12807,
                                "mediaDuration" : 2615,
                                "scalar" : 1,
                                "animationTracks" : {

                                }
                              }
,
                          "start" : 8776,
                          "duration" : 2615,
                          "mediaStart" : 0,
                          "mediaDuration" : 26386,
                          "scalar" : 1,
                          "metadata" : {
                            "WinSubProjectDisplayName" : "",
                            "clipSpeedAttribute" : false,
                            "default-scale0" : 0.25,
                            "default-scale1" : 0.25,
                            "default-translation0" : 880.0,
                            "default-translation1" : -480.0
                          }
                        },
                        {
                          "id" : 961,
                          "_type" : "UnifiedMedia",
                          "video" : 
                              {
                                "id" : 962,
                                "_type" : "VMFile",
                                "src" : 7,
                                "trackNumber" : 1,
                                "attributes" : {
                                  "ident" : "Rec 02-07-19_001"
                                },
                                "effects" : [

                                ],
                                "start" : 11391,
                                "duration" : 10080,
                                "mediaStart" : 16306,
                                "mediaDuration" : 10080,
                                "scalar" : 1,
                                "animationTracks" : {

                                }
                              },
                          "audio" : 
                              {
                                "id" : 963,
                                "_type" : "AMFile",
                                "src" : 7,
                                "trackNumber" : 2,
                                "attributes" : {
                                  "ident" : "",
                                  "sampleRate" : 44100,
                                  "bitDepth" : 16,
                                  "gain" : 1.0,
                                  "mixToMono" : false
                                },
                                  "channelNumber" : "0,1",
                                "effects" : [

                                ],
                                "start" : 11391,
                                "duration" : 10080,
                                "mediaStart" : 16306,
                                "mediaDuration" : 10080,
                                "scalar" : 1,
                                "animationTracks" : {

                                }
                              }
,
                          "start" : 11391,
                          "duration" : 10080,
                          "mediaStart" : 0,
                          "mediaDuration" : 26386,
                          "scalar" : 1,
                          "metadata" : {
                            "WinSubProjectDisplayName" : "",
                            "clipSpeedAttribute" : false,
                            "default-scale0" : 0.25,
                            "default-scale1" : 0.25,
                            "default-translation0" : 880.0,
                            "default-translation1" : -480.0
                          }
                        }
                    ],
                    "effects" : [

                    ],
                    "start" : 22814,
                    "duration" : 1627,
                    "mediaStart" : 11392,
                    "mediaDuration" : 1627,
                    "scalar" : 1,
                    "metadata" : {
                      "WinSubProjectDisplayName" : "",
                      "clipSpeedAttribute" : false
                    },
                    "animationTracks" : {

                    }
                  },
                  {
                    "id" : 964,
                    "_type" : "StitchedMedia",
                    "minMediaStart" : 0,
                    "attributes" : {
                      "ident" : "Rec 02-07-19_001",
                      "gain" : 1.0,
                      "mixToMono" : false
                    },
                    "parameters" : {
                      "translation0" : {
                        "type" : "double",
                        "defaultValue" : 703.999999999945,
                        "interp" : "eioe"
                      },
                      "translation1" : {
                        "type" : "double",
                        "defaultValue" : -347.999999999936,
                        "interp" : "eioe"
                      },
                      "scale0" : {
                        "type" : "double",
                        "defaultValue" : 0.8,
                        "interp" : "eioe"
                      },
                      "scale1" : {
                        "type" : "double",
                        "defaultValue" : 0.8,
                        "interp" : "eioe"
                      },
                      "volume" : 1.0,
                      "cursorOpacity" : {
                        "type" : "double",
                        "defaultValue" : 1.0,
                        "interp" : "linr"
                      },
                      "cursorScale" : {
                        "type" : "double",
                        "defaultValue" : 1.0,
                        "interp" : "linr"
                      }
                    },
                    "medias" : [
                        {
                          "id" : 965,
                          "_type" : "UnifiedMedia",
                          "video" : 
                              {
                                "id" : 966,
                                "_type" : "VMFile",
                                "src" : 7,
                                "trackNumber" : 1,
                                "attributes" : {
                                  "ident" : "Rec 02-07-19_001"
                                },
                                "effects" : [

                                ],
                                "start" : 0,
                                "duration" : 496,
                                "mediaStart" : 0,
                                "mediaDuration" : 496,
                                "scalar" : 1,
                                "animationTracks" : {

                                }
                              },
                          "audio" : 
                              {
                                "id" : 967,
                                "_type" : "AMFile",
                                "src" : 7,
                                "trackNumber" : 2,
                                "attributes" : {
                                  "ident" : "",
                                  "sampleRate" : 44100,
                                  "bitDepth" : 16,
                                  "gain" : 1.0,
                                  "mixToMono" : false
                                },
                                  "channelNumber" : "0,1",
                                "effects" : [

                                ],
                                "start" : 0,
                                "duration" : 496,
                                "mediaStart" : 0,
                                "mediaDuration" : 496,
                                "scalar" : 1,
                                "animationTracks" : {

                                }
                              }
,
                          "start" : 0,
                          "duration" : 496,
                          "mediaStart" : 0,
                          "mediaDuration" : 26386,
                          "scalar" : 1,
                          "metadata" : {
                            "WinSubProjectDisplayName" : "",
                            "clipSpeedAttribute" : false,
                            "default-scale0" : 0.25,
                            "default-scale1" : 0.25,
                            "default-translation0" : 880.0,
                            "default-translation1" : -480.0
                          }
                        },
                        {
                          "id" : 968,
                          "_type" : "UnifiedMedia",
                          "video" : 
                              {
                                "id" : 969,
                                "_type" : "VMFile",
                                "src" : 7,
                                "trackNumber" : 1,
                                "attributes" : {
                                  "ident" : "Rec 02-07-19_001"
                                },
                                "effects" : [

                                ],
                                "start" : 496,
                                "duration" : 190,
                                "mediaStart" : 715,
                                "mediaDuration" : 190,
                                "scalar" : 1,
                                "animationTracks" : {

                                }
                              },
                          "audio" : 
                              {
                                "id" : 970,
                                "_type" : "AMFile",
                                "src" : 7,
                                "trackNumber" : 2,
                                "attributes" : {
                                  "ident" : "",
                                  "sampleRate" : 44100,
                                  "bitDepth" : 16,
                                  "gain" : 1.0,
                                  "mixToMono" : false
                                },
                                  "channelNumber" : "0,1",
                                "effects" : [

                                ],
                                "start" : 496,
                                "duration" : 190,
                                "mediaStart" : 715,
                                "mediaDuration" : 190,
                                "scalar" : 1,
                                "animationTracks" : {

                                }
                              }
,
                          "start" : 496,
                          "duration" : 190,
                          "mediaStart" : 0,
                          "mediaDuration" : 26386,
                          "scalar" : 1,
                          "metadata" : {
                            "WinSubProjectDisplayName" : "",
                            "clipSpeedAttribute" : false,
                            "default-scale0" : 0.25,
                            "default-scale1" : 0.25,
                            "default-translation0" : 880.0,
                            "default-translation1" : -480.0
                          }
                        },
                        {
                          "id" : 971,
                          "_type" : "UnifiedMedia",
                          "video" : 
                              {
                                "id" : 972,
                                "_type" : "VMFile",
                                "src" : 7,
                                "trackNumber" : 1,
                                "attributes" : {
                                  "ident" : "Rec 02-07-19_001"
                                },
                                "effects" : [

                                ],
                                "start" : 686,
                                "duration" : 239,
                                "mediaStart" : 1444,
                                "mediaDuration" : 239,
                                "scalar" : 1,
                                "animationTracks" : {

                                }
                              },
                          "audio" : 
                              {
                                "id" : 973,
                                "_type" : "AMFile",
                                "src" : 7,
                                "trackNumber" : 2,
                                "attributes" : {
                                  "ident" : "",
                                  "sampleRate" : 44100,
                                  "bitDepth" : 16,
                                  "gain" : 1.0,
                                  "mixToMono" : false
                                },
                                  "channelNumber" : "0,1",
                                "effects" : [

                                ],
                                "start" : 686,
                                "duration" : 239,
                                "mediaStart" : 1444,
                                "mediaDuration" : 239,
                                "scalar" : 1,
                                "animationTracks" : {

                                }
                              }
,
                          "start" : 686,
                          "duration" : 239,
                          "mediaStart" : 0,
                          "mediaDuration" : 26386,
                          "scalar" : 1,
                          "metadata" : {
                            "WinSubProjectDisplayName" : "",
                            "clipSpeedAttribute" : false,
                            "default-scale0" : 0.25,
                            "default-scale1" : 0.25,
                            "default-translation0" : 880.0,
                            "default-translation1" : -480.0
                          }
                        },
                        {
                          "id" : 974,
                          "_type" : "UnifiedMedia",
                          "video" : 
                              {
                                "id" : 975,
                                "_type" : "VMFile",
                                "src" : 7,
                                "trackNumber" : 1,
                                "attributes" : {
                                  "ident" : "Rec 02-07-19_001"
                                },
                                "effects" : [

                                ],
                                "start" : 925,
                                "duration" : 128,
                                "mediaStart" : 1750,
                                "mediaDuration" : 128,
                                "scalar" : 1,
                                "animationTracks" : {

                                }
                              },
                          "audio" : 
                              {
                                "id" : 976,
                                "_type" : "AMFile",
                                "src" : 7,
                                "trackNumber" : 2,
                                "attributes" : {
                                  "ident" : "",
                                  "sampleRate" : 44100,
                                  "bitDepth" : 16,
                                  "gain" : 1.0,
                                  "mixToMono" : false
                                },
                                  "channelNumber" : "0,1",
                                "effects" : [

                                ],
                                "start" : 925,
                                "duration" : 128,
                                "mediaStart" : 1750,
                                "mediaDuration" : 128,
                                "scalar" : 1,
                                "animationTracks" : {

                                }
                              }
,
                          "start" : 925,
                          "duration" : 128,
                          "mediaStart" : 0,
                          "mediaDuration" : 26386,
                          "scalar" : 1,
                          "metadata" : {
                            "WinSubProjectDisplayName" : "",
                            "clipSpeedAttribute" : false,
                            "default-scale0" : 0.25,
                            "default-scale1" : 0.25,
                            "default-translation0" : 880.0,
                            "default-translation1" : -480.0
                          }
                        },
                        {
                          "id" : 977,
                          "_type" : "UnifiedMedia",
                          "video" : 
                              {
                                "id" : 978,
                                "_type" : "VMFile",
                                "src" : 7,
                                "trackNumber" : 1,
                                "attributes" : {
                                  "ident" : "Rec 02-07-19_001"
                                },
                                "effects" : [

                                ],
                                "start" : 1053,
                                "duration" : 298,
                                "mediaStart" : 1939,
                                "mediaDuration" : 298,
                                "scalar" : 1,
                                "animationTracks" : {

                                }
                              },
                          "audio" : 
                              {
                                "id" : 979,
                                "_type" : "AMFile",
                                "src" : 7,
                                "trackNumber" : 2,
                                "attributes" : {
                                  "ident" : "",
                                  "sampleRate" : 44100,
                                  "bitDepth" : 16,
                                  "gain" : 1.0,
                                  "mixToMono" : false
                                },
                                  "channelNumber" : "0,1",
                                "effects" : [

                                ],
                                "start" : 1053,
                                "duration" : 298,
                                "mediaStart" : 1939,
                                "mediaDuration" : 298,
                                "scalar" : 1,
                                "animationTracks" : {

                                }
                              }
,
                          "start" : 1053,
                          "duration" : 298,
                          "mediaStart" : 0,
                          "mediaDuration" : 26386,
                          "scalar" : 1,
                          "metadata" : {
                            "WinSubProjectDisplayName" : "",
                            "clipSpeedAttribute" : false,
                            "default-scale0" : 0.25,
                            "default-scale1" : 0.25,
                            "default-translation0" : 880.0,
                            "default-translation1" : -480.0
                          }
                        },
                        {
                          "id" : 980,
                          "_type" : "UnifiedMedia",
                          "video" : 
                              {
                                "id" : 981,
                                "_type" : "VMFile",
                                "src" : 7,
                                "trackNumber" : 1,
                                "attributes" : {
                                  "ident" : "Rec 02-07-19_001"
                                },
                                "effects" : [

                                ],
                                "start" : 1351,
                                "duration" : 524,
                                "mediaStart" : 2386,
                                "mediaDuration" : 524,
                                "scalar" : 1,
                                "animationTracks" : {

                                }
                              },
                          "audio" : 
                              {
                                "id" : 982,
                                "_type" : "AMFile",
                                "src" : 7,
                                "trackNumber" : 2,
                                "attributes" : {
                                  "ident" : "",
                                  "sampleRate" : 44100,
                                  "bitDepth" : 16,
                                  "gain" : 1.0,
                                  "mixToMono" : false
                                },
                                  "channelNumber" : "0,1",
                                "effects" : [

                                ],
                                "start" : 1351,
                                "duration" : 524,
                                "mediaStart" : 2386,
                                "mediaDuration" : 524,
                                "scalar" : 1,
                                "animationTracks" : {

                                }
                              }
,
                          "start" : 1351,
                          "duration" : 524,
                          "mediaStart" : 0,
                          "mediaDuration" : 26386,
                          "scalar" : 1,
                          "metadata" : {
                            "WinSubProjectDisplayName" : "",
                            "clipSpeedAttribute" : false,
                            "default-scale0" : 0.25,
                            "default-scale1" : 0.25,
                            "default-translation0" : 880.0,
                            "default-translation1" : -480.0
                          }
                        },
                        {
                          "id" : 983,
                          "_type" : "UnifiedMedia",
                          "video" : 
                              {
                                "id" : 984,
                                "_type" : "VMFile",
                                "src" : 7,
                                "trackNumber" : 1,
                                "attributes" : {
                                  "ident" : "Rec 02-07-19_001"
                                },
                                "effects" : [

                                ],
                                "start" : 1875,
                                "duration" : 143,
                                "mediaStart" : 3086,
                                "mediaDuration" : 143,
                                "scalar" : 1,
                                "animationTracks" : {

                                }
                              },
                          "audio" : 
                              {
                                "id" : 985,
                                "_type" : "AMFile",
                                "src" : 7,
                                "trackNumber" : 2,
                                "attributes" : {
                                  "ident" : "",
                                  "sampleRate" : 44100,
                                  "bitDepth" : 16,
                                  "gain" : 1.0,
                                  "mixToMono" : false
                                },
                                  "channelNumber" : "0,1",
                                "effects" : [

                                ],
                                "start" : 1875,
                                "duration" : 143,
                                "mediaStart" : 3086,
                                "mediaDuration" : 143,
                                "scalar" : 1,
                                "animationTracks" : {

                                }
                              }
,
                          "start" : 1875,
                          "duration" : 143,
                          "mediaStart" : 0,
                          "mediaDuration" : 26386,
                          "scalar" : 1,
                          "metadata" : {
                            "WinSubProjectDisplayName" : "",
                            "clipSpeedAttribute" : false,
                            "default-scale0" : 0.25,
                            "default-scale1" : 0.25,
                            "default-translation0" : 880.0,
                            "default-translation1" : -480.0
                          }
                        },
                        {
                          "id" : 986,
                          "_type" : "UnifiedMedia",
                          "video" : 
                              {
                                "id" : 987,
                                "_type" : "VMFile",
                                "src" : 7,
                                "trackNumber" : 1,
                                "attributes" : {
                                  "ident" : "Rec 02-07-19_001"
                                },
                                "effects" : [

                                ],
                                "start" : 2018,
                                "duration" : 1362,
                                "mediaStart" : 3692,
                                "mediaDuration" : 1362,
                                "scalar" : 1,
                                "animationTracks" : {

                                }
                              },
                          "audio" : 
                              {
                                "id" : 988,
                                "_type" : "AMFile",
                                "src" : 7,
                                "trackNumber" : 2,
                                "attributes" : {
                                  "ident" : "",
                                  "sampleRate" : 44100,
                                  "bitDepth" : 16,
                                  "gain" : 1.0,
                                  "mixToMono" : false
                                },
                                  "channelNumber" : "0,1",
                                "effects" : [

                                ],
                                "start" : 2018,
                                "duration" : 1362,
                                "mediaStart" : 3692,
                                "mediaDuration" : 1362,
                                "scalar" : 1,
                                "animationTracks" : {

                                }
                              }
,
                          "start" : 2018,
                          "duration" : 1362,
                          "mediaStart" : 0,
                          "mediaDuration" : 26386,
                          "scalar" : 1,
                          "metadata" : {
                            "WinSubProjectDisplayName" : "",
                            "clipSpeedAttribute" : false,
                            "default-scale0" : 0.25,
                            "default-scale1" : 0.25,
                            "default-translation0" : 880.0,
                            "default-translation1" : -480.0
                          }
                        },
                        {
                          "id" : 989,
                          "_type" : "UnifiedMedia",
                          "video" : 
                              {
                                "id" : 990,
                                "_type" : "VMFile",
                                "src" : 7,
                                "trackNumber" : 1,
                                "attributes" : {
                                  "ident" : "Rec 02-07-19_001"
                                },
                                "effects" : [

                                ],
                                "start" : 3380,
                                "duration" : 218,
                                "mediaStart" : 5246,
                                "mediaDuration" : 218,
                                "scalar" : 1,
                                "animationTracks" : {

                                }
                              },
                          "audio" : 
                              {
                                "id" : 991,
                                "_type" : "AMFile",
                                "src" : 7,
                                "trackNumber" : 2,
                                "attributes" : {
                                  "ident" : "",
                                  "sampleRate" : 44100,
                                  "bitDepth" : 16,
                                  "gain" : 1.0,
                                  "mixToMono" : false
                                },
                                  "channelNumber" : "0,1",
                                "effects" : [

                                ],
                                "start" : 3380,
                                "duration" : 218,
                                "mediaStart" : 5246,
                                "mediaDuration" : 218,
                                "scalar" : 1,
                                "animationTracks" : {

                                }
                              }
,
                          "start" : 3380,
                          "duration" : 218,
                          "mediaStart" : 0,
                          "mediaDuration" : 26386,
                          "scalar" : 1,
                          "metadata" : {
                            "WinSubProjectDisplayName" : "",
                            "clipSpeedAttribute" : false,
                            "default-scale0" : 0.25,
                            "default-scale1" : 0.25,
                            "default-translation0" : 880.0,
                            "default-translation1" : -480.0
                          }
                        },
                        {
                          "id" : 992,
                          "_type" : "UnifiedMedia",
                          "video" : 
                              {
                                "id" : 993,
                                "_type" : "VMFile",
                                "src" : 7,
                                "trackNumber" : 1,
                                "attributes" : {
                                  "ident" : "Rec 02-07-19_001"
                                },
                                "effects" : [

                                ],
                                "start" : 3598,
                                "duration" : 473,
                                "mediaStart" : 6154,
                                "mediaDuration" : 473,
                                "scalar" : 1,
                                "animationTracks" : {

                                }
                              },
                          "audio" : 
                              {
                                "id" : 994,
                                "_type" : "AMFile",
                                "src" : 7,
                                "trackNumber" : 2,
                                "attributes" : {
                                  "ident" : "",
                                  "sampleRate" : 44100,
                                  "bitDepth" : 16,
                                  "gain" : 1.0,
                                  "mixToMono" : false
                                },
                                  "channelNumber" : "0,1",
                                "effects" : [

                                ],
                                "start" : 3598,
                                "duration" : 473,
                                "mediaStart" : 6154,
                                "mediaDuration" : 473,
                                "scalar" : 1,
                                "animationTracks" : {

                                }
                              }
,
                          "start" : 3598,
                          "duration" : 473,
                          "mediaStart" : 0,
                          "mediaDuration" : 26386,
                          "scalar" : 1,
                          "metadata" : {
                            "WinSubProjectDisplayName" : "",
                            "clipSpeedAttribute" : false,
                            "default-scale0" : 0.25,
                            "default-scale1" : 0.25,
                            "default-translation0" : 880.0,
                            "default-translation1" : -480.0
                          }
                        },
                        {
                          "id" : 995,
                          "_type" : "UnifiedMedia",
                          "video" : 
                              {
                                "id" : 996,
                                "_type" : "VMFile",
                                "src" : 7,
                                "trackNumber" : 1,
                                "attributes" : {
                                  "ident" : "Rec 02-07-19_001"
                                },
                                "effects" : [

                                ],
                                "start" : 4071,
                                "duration" : 164,
                                "mediaStart" : 6726,
                                "mediaDuration" : 164,
                                "scalar" : 1,
                                "animationTracks" : {

                                }
                              },
                          "audio" : 
                              {
                                "id" : 997,
                                "_type" : "AMFile",
                                "src" : 7,
                                "trackNumber" : 2,
                                "attributes" : {
                                  "ident" : "",
                                  "sampleRate" : 44100,
                                  "bitDepth" : 16,
                                  "gain" : 1.0,
                                  "mixToMono" : false
                                },
                                  "channelNumber" : "0,1",
                                "effects" : [

                                ],
                                "start" : 4071,
                                "duration" : 164,
                                "mediaStart" : 6726,
                                "mediaDuration" : 164,
                                "scalar" : 1,
                                "animationTracks" : {

                                }
                              }
,
                          "start" : 4071,
                          "duration" : 164,
                          "mediaStart" : 0,
                          "mediaDuration" : 26386,
                          "scalar" : 1,
                          "metadata" : {
                            "WinSubProjectDisplayName" : "",
                            "clipSpeedAttribute" : false,
                            "default-scale0" : 0.25,
                            "default-scale1" : 0.25,
                            "default-translation0" : 880.0,
                            "default-translation1" : -480.0
                          }
                        },
                        {
                          "id" : 998,
                          "_type" : "UnifiedMedia",
                          "video" : 
                              {
                                "id" : 999,
                                "_type" : "VMFile",
                                "src" : 7,
                                "trackNumber" : 1,
                                "attributes" : {
                                  "ident" : "Rec 02-07-19_001"
                                },
                                "effects" : [

                                ],
                                "start" : 4235,
                                "duration" : 1279,
                                "mediaStart" : 7107,
                                "mediaDuration" : 1279,
                                "scalar" : 1,
                                "animationTracks" : {

                                }
                              },
                          "audio" : 
                              {
                                "id" : 1000,
                                "_type" : "AMFile",
                                "src" : 7,
                                "trackNumber" : 2,
                                "attributes" : {
                                  "ident" : "",
                                  "sampleRate" : 44100,
                                  "bitDepth" : 16,
                                  "gain" : 1.0,
                                  "mixToMono" : false
                                },
                                  "channelNumber" : "0,1",
                                "effects" : [

                                ],
                                "start" : 4235,
                                "duration" : 1279,
                                "mediaStart" : 7107,
                                "mediaDuration" : 1279,
                                "scalar" : 1,
                                "animationTracks" : {

                                }
                              }
,
                          "start" : 4235,
                          "duration" : 1279,
                          "mediaStart" : 0,
                          "mediaDuration" : 26386,
                          "scalar" : 1,
                          "metadata" : {
                            "WinSubProjectDisplayName" : "",
                            "clipSpeedAttribute" : false,
                            "default-scale0" : 0.25,
                            "default-scale1" : 0.25,
                            "default-translation0" : 880.0,
                            "default-translation1" : -480.0
                          }
                        },
                        {
                          "id" : 1001,
                          "_type" : "UnifiedMedia",
                          "video" : 
                              {
                                "id" : 1002,
                                "_type" : "VMFile",
                                "src" : 7,
                                "trackNumber" : 1,
                                "attributes" : {
                                  "ident" : "Rec 02-07-19_001"
                                },
                                "effects" : [

                                ],
                                "start" : 5514,
                                "duration" : 1542,
                                "mediaStart" : 8518,
                                "mediaDuration" : 1542,
                                "scalar" : 1,
                                "animationTracks" : {

                                }
                              },
                          "audio" : 
                              {
                                "id" : 1003,
                                "_type" : "AMFile",
                                "src" : 7,
                                "trackNumber" : 2,
                                "attributes" : {
                                  "ident" : "",
                                  "sampleRate" : 44100,
                                  "bitDepth" : 16,
                                  "gain" : 1.0,
                                  "mixToMono" : false
                                },
                                  "channelNumber" : "0,1",
                                "effects" : [

                                ],
                                "start" : 5514,
                                "duration" : 1542,
                                "mediaStart" : 8518,
                                "mediaDuration" : 1542,
                                "scalar" : 1,
                                "animationTracks" : {

                                }
                              }
,
                          "start" : 5514,
                          "duration" : 1542,
                          "mediaStart" : 0,
                          "mediaDuration" : 26386,
                          "scalar" : 1,
                          "metadata" : {
                            "WinSubProjectDisplayName" : "",
                            "clipSpeedAttribute" : false,
                            "default-scale0" : 0.25,
                            "default-scale1" : 0.25,
                            "default-translation0" : 880.0,
                            "default-translation1" : -480.0
                          }
                        },
                        {
                          "id" : 1004,
                          "_type" : "UnifiedMedia",
                          "video" : 
                              {
                                "id" : 1005,
                                "_type" : "VMFile",
                                "src" : 7,
                                "trackNumber" : 1,
                                "attributes" : {
                                  "ident" : "Rec 02-07-19_001"
                                },
                                "effects" : [

                                ],
                                "start" : 7056,
                                "duration" : 846,
                                "mediaStart" : 10392,
                                "mediaDuration" : 846,
                                "scalar" : 1,
                                "animationTracks" : {

                                }
                              },
                          "audio" : 
                              {
                                "id" : 1006,
                                "_type" : "AMFile",
                                "src" : 7,
                                "trackNumber" : 2,
                                "attributes" : {
                                  "ident" : "",
                                  "sampleRate" : 44100,
                                  "bitDepth" : 16,
                                  "gain" : 1.0,
                                  "mixToMono" : false
                                },
                                  "channelNumber" : "0,1",
                                "effects" : [

                                ],
                                "start" : 7056,
                                "duration" : 846,
                                "mediaStart" : 10392,
                                "mediaDuration" : 846,
                                "scalar" : 1,
                                "animationTracks" : {

                                }
                              }
,
                          "start" : 7056,
                          "duration" : 846,
                          "mediaStart" : 0,
                          "mediaDuration" : 26386,
                          "scalar" : 1,
                          "metadata" : {
                            "WinSubProjectDisplayName" : "",
                            "clipSpeedAttribute" : false,
                            "default-scale0" : 0.25,
                            "default-scale1" : 0.25,
                            "default-translation0" : 880.0,
                            "default-translation1" : -480.0
                          }
                        },
                        {
                          "id" : 1007,
                          "_type" : "UnifiedMedia",
                          "video" : 
                              {
                                "id" : 1008,
                                "_type" : "VMFile",
                                "src" : 7,
                                "trackNumber" : 1,
                                "attributes" : {
                                  "ident" : "Rec 02-07-19_001"
                                },
                                "effects" : [

                                ],
                                "start" : 7902,
                                "duration" : 451,
                                "mediaStart" : 11363,
                                "mediaDuration" : 451,
                                "scalar" : 1,
                                "animationTracks" : {

                                }
                              },
                          "audio" : 
                              {
                                "id" : 1009,
                                "_type" : "AMFile",
                                "src" : 7,
                                "trackNumber" : 2,
                                "attributes" : {
                                  "ident" : "",
                                  "sampleRate" : 44100,
                                  "bitDepth" : 16,
                                  "gain" : 1.0,
                                  "mixToMono" : false
                                },
                                  "channelNumber" : "0,1",
                                "effects" : [

                                ],
                                "start" : 7902,
                                "duration" : 451,
                                "mediaStart" : 11363,
                                "mediaDuration" : 451,
                                "scalar" : 1,
                                "animationTracks" : {

                                }
                              }
,
                          "start" : 7902,
                          "duration" : 451,
                          "mediaStart" : 0,
                          "mediaDuration" : 26386,
                          "scalar" : 1,
                          "metadata" : {
                            "WinSubProjectDisplayName" : "",
                            "clipSpeedAttribute" : false,
                            "default-scale0" : 0.25,
                            "default-scale1" : 0.25,
                            "default-translation0" : 880.0,
                            "default-translation1" : -480.0
                          }
                        },
                        {
                          "id" : 1010,
                          "_type" : "UnifiedMedia",
                          "video" : 
                              {
                                "id" : 1011,
                                "_type" : "VMFile",
                                "src" : 7,
                                "trackNumber" : 1,
                                "attributes" : {
                                  "ident" : "Rec 02-07-19_001"
                                },
                                "effects" : [

                                ],
                                "start" : 8353,
                                "duration" : 423,
                                "mediaStart" : 12079,
                                "mediaDuration" : 423,
                                "scalar" : 1,
                                "animationTracks" : {

                                }
                              },
                          "audio" : 
                              {
                                "id" : 1012,
                                "_type" : "AMFile",
                                "src" : 7,
                                "trackNumber" : 2,
                                "attributes" : {
                                  "ident" : "",
                                  "sampleRate" : 44100,
                                  "bitDepth" : 16,
                                  "gain" : 1.0,
                                  "mixToMono" : false
                                },
                                  "channelNumber" : "0,1",
                                "effects" : [

                                ],
                                "start" : 8353,
                                "duration" : 423,
                                "mediaStart" : 12079,
                                "mediaDuration" : 423,
                                "scalar" : 1,
                                "animationTracks" : {

                                }
                              }
,
                          "start" : 8353,
                          "duration" : 423,
                          "mediaStart" : 0,
                          "mediaDuration" : 26386,
                          "scalar" : 1,
                          "metadata" : {
                            "WinSubProjectDisplayName" : "",
                            "clipSpeedAttribute" : false,
                            "default-scale0" : 0.25,
                            "default-scale1" : 0.25,
                            "default-translation0" : 880.0,
                            "default-translation1" : -480.0
                          }
                        },
                        {
                          "id" : 1013,
                          "_type" : "UnifiedMedia",
                          "video" : 
                              {
                                "id" : 1014,
                                "_type" : "VMFile",
                                "src" : 7,
                                "trackNumber" : 1,
                                "attributes" : {
                                  "ident" : "Rec 02-07-19_001"
                                },
                                "effects" : [

                                ],
                                "start" : 8776,
                                "duration" : 2615,
                                "mediaStart" : 12807,
                                "mediaDuration" : 2615,
                                "scalar" : 1,
                                "animationTracks" : {

                                }
                              },
                          "audio" : 
                              {
                                "id" : 1015,
                                "_type" : "AMFile",
                                "src" : 7,
                                "trackNumber" : 2,
                                "attributes" : {
                                  "ident" : "",
                                  "sampleRate" : 44100,
                                  "bitDepth" : 16,
                                  "gain" : 1.0,
                                  "mixToMono" : false
                                },
                                  "channelNumber" : "0,1",
                                "effects" : [

                                ],
                                "start" : 8776,
                                "duration" : 2615,
                                "mediaStart" : 12807,
                                "mediaDuration" : 2615,
                                "scalar" : 1,
                                "animationTracks" : {

                                }
                              }
,
                          "start" : 8776,
                          "duration" : 2615,
                          "mediaStart" : 0,
                          "mediaDuration" : 26386,
                          "scalar" : 1,
                          "metadata" : {
                            "WinSubProjectDisplayName" : "",
                            "clipSpeedAttribute" : false,
                            "default-scale0" : 0.25,
                            "default-scale1" : 0.25,
                            "default-translation0" : 880.0,
                            "default-translation1" : -480.0
                          }
                        },
                        {
                          "id" : 1016,
                          "_type" : "UnifiedMedia",
                          "video" : 
                              {
                                "id" : 1017,
                                "_type" : "VMFile",
                                "src" : 7,
                                "trackNumber" : 1,
                                "attributes" : {
                                  "ident" : "Rec 02-07-19_001"
                                },
                                "effects" : [

                                ],
                                "start" : 11391,
                                "duration" : 10080,
                                "mediaStart" : 16306,
                                "mediaDuration" : 10080,
                                "scalar" : 1,
                                "animationTracks" : {

                                }
                              },
                          "audio" : 
                              {
                                "id" : 1018,
                                "_type" : "AMFile",
                                "src" : 7,
                                "trackNumber" : 2,
                                "attributes" : {
                                  "ident" : "",
                                  "sampleRate" : 44100,
                                  "bitDepth" : 16,
                                  "gain" : 1.0,
                                  "mixToMono" : false
                                },
                                  "channelNumber" : "0,1",
                                "effects" : [

                                ],
                                "start" : 11391,
                                "duration" : 10080,
                                "mediaStart" : 16306,
                                "mediaDuration" : 10080,
                                "scalar" : 1,
                                "animationTracks" : {

                                }
                              }
,
                          "start" : 11391,
                          "duration" : 10080,
                          "mediaStart" : 0,
                          "mediaDuration" : 26386,
                          "scalar" : 1,
                          "metadata" : {
                            "WinSubProjectDisplayName" : "",
                            "clipSpeedAttribute" : false,
                            "default-scale0" : 0.25,
                            "default-scale1" : 0.25,
                            "default-translation0" : 880.0,
                            "default-translation1" : -480.0
                          }
                        }
                    ],
                    "effects" : [

                    ],
                    "start" : 24441,
                    "duration" : 181,
                    "mediaStart" : 13220,
                    "mediaDuration" : 181,
                    "scalar" : 1,
                    "metadata" : {
                      "WinSubProjectDisplayName" : "",
                      "clipSpeedAttribute" : false
                    },
                    "animationTracks" : {

                    }
                  },
                  {
                    "id" : 1019,
                    "_type" : "StitchedMedia",
                    "minMediaStart" : 0,
                    "attributes" : {
                      "ident" : "Rec 02-07-19_001",
                      "gain" : 1.0,
                      "mixToMono" : false
                    },
                    "parameters" : {
                      "translation0" : {
                        "type" : "double",
                        "defaultValue" : 703.999999999945,
                        "interp" : "eioe"
                      },
                      "translation1" : {
                        "type" : "double",
                        "defaultValue" : -347.999999999936,
                        "interp" : "eioe"
                      },
                      "scale0" : {
                        "type" : "double",
                        "defaultValue" : 0.8,
                        "interp" : "eioe"
                      },
                      "scale1" : {
                        "type" : "double",
                        "defaultValue" : 0.8,
                        "interp" : "eioe"
                      },
                      "volume" : 1.0,
                      "cursorOpacity" : {
                        "type" : "double",
                        "defaultValue" : 1.0,
                        "interp" : "linr"
                      },
                      "cursorScale" : {
                        "type" : "double",
                        "defaultValue" : 1.0,
                        "interp" : "linr"
                      }
                    },
                    "medias" : [
                        {
                          "id" : 1020,
                          "_type" : "UnifiedMedia",
                          "video" : 
                              {
                                "id" : 1021,
                                "_type" : "VMFile",
                                "src" : 7,
                                "trackNumber" : 1,
                                "attributes" : {
                                  "ident" : "Rec 02-07-19_001"
                                },
                                "effects" : [

                                ],
                                "start" : 0,
                                "duration" : 496,
                                "mediaStart" : 0,
                                "mediaDuration" : 496,
                                "scalar" : 1,
                                "animationTracks" : {

                                }
                              },
                          "audio" : 
                              {
                                "id" : 1022,
                                "_type" : "AMFile",
                                "src" : 7,
                                "trackNumber" : 2,
                                "attributes" : {
                                  "ident" : "",
                                  "sampleRate" : 44100,
                                  "bitDepth" : 16,
                                  "gain" : 1.0,
                                  "mixToMono" : false
                                },
                                  "channelNumber" : "0,1",
                                "effects" : [

                                ],
                                "start" : 0,
                                "duration" : 496,
                                "mediaStart" : 0,
                                "mediaDuration" : 496,
                                "scalar" : 1,
                                "animationTracks" : {

                                }
                              }
,
                          "start" : 0,
                          "duration" : 496,
                          "mediaStart" : 0,
                          "mediaDuration" : 26386,
                          "scalar" : 1,
                          "metadata" : {
                            "WinSubProjectDisplayName" : "",
                            "clipSpeedAttribute" : false,
                            "default-scale0" : 0.25,
                            "default-scale1" : 0.25,
                            "default-translation0" : 880.0,
                            "default-translation1" : -480.0
                          }
                        },
                        {
                          "id" : 1023,
                          "_type" : "UnifiedMedia",
                          "video" : 
                              {
                                "id" : 1024,
                                "_type" : "VMFile",
                                "src" : 7,
                                "trackNumber" : 1,
                                "attributes" : {
                                  "ident" : "Rec 02-07-19_001"
                                },
                                "effects" : [

                                ],
                                "start" : 496,
                                "duration" : 190,
                                "mediaStart" : 715,
                                "mediaDuration" : 190,
                                "scalar" : 1,
                                "animationTracks" : {

                                }
                              },
                          "audio" : 
                              {
                                "id" : 1025,
                                "_type" : "AMFile",
                                "src" : 7,
                                "trackNumber" : 2,
                                "attributes" : {
                                  "ident" : "",
                                  "sampleRate" : 44100,
                                  "bitDepth" : 16,
                                  "gain" : 1.0,
                                  "mixToMono" : false
                                },
                                  "channelNumber" : "0,1",
                                "effects" : [

                                ],
                                "start" : 496,
                                "duration" : 190,
                                "mediaStart" : 715,
                                "mediaDuration" : 190,
                                "scalar" : 1,
                                "animationTracks" : {

                                }
                              }
,
                          "start" : 496,
                          "duration" : 190,
                          "mediaStart" : 0,
                          "mediaDuration" : 26386,
                          "scalar" : 1,
                          "metadata" : {
                            "WinSubProjectDisplayName" : "",
                            "clipSpeedAttribute" : false,
                            "default-scale0" : 0.25,
                            "default-scale1" : 0.25,
                            "default-translation0" : 880.0,
                            "default-translation1" : -480.0
                          }
                        },
                        {
                          "id" : 1026,
                          "_type" : "UnifiedMedia",
                          "video" : 
                              {
                                "id" : 1027,
                                "_type" : "VMFile",
                                "src" : 7,
                                "trackNumber" : 1,
                                "attributes" : {
                                  "ident" : "Rec 02-07-19_001"
                                },
                                "effects" : [

                                ],
                                "start" : 686,
                                "duration" : 239,
                                "mediaStart" : 1444,
                                "mediaDuration" : 239,
                                "scalar" : 1,
                                "animationTracks" : {

                                }
                              },
                          "audio" : 
                              {
                                "id" : 1028,
                                "_type" : "AMFile",
                                "src" : 7,
                                "trackNumber" : 2,
                                "attributes" : {
                                  "ident" : "",
                                  "sampleRate" : 44100,
                                  "bitDepth" : 16,
                                  "gain" : 1.0,
                                  "mixToMono" : false
                                },
                                  "channelNumber" : "0,1",
                                "effects" : [

                                ],
                                "start" : 686,
                                "duration" : 239,
                                "mediaStart" : 1444,
                                "mediaDuration" : 239,
                                "scalar" : 1,
                                "animationTracks" : {

                                }
                              }
,
                          "start" : 686,
                          "duration" : 239,
                          "mediaStart" : 0,
                          "mediaDuration" : 26386,
                          "scalar" : 1,
                          "metadata" : {
                            "WinSubProjectDisplayName" : "",
                            "clipSpeedAttribute" : false,
                            "default-scale0" : 0.25,
                            "default-scale1" : 0.25,
                            "default-translation0" : 880.0,
                            "default-translation1" : -480.0
                          }
                        },
                        {
                          "id" : 1029,
                          "_type" : "UnifiedMedia",
                          "video" : 
                              {
                                "id" : 1030,
                                "_type" : "VMFile",
                                "src" : 7,
                                "trackNumber" : 1,
                                "attributes" : {
                                  "ident" : "Rec 02-07-19_001"
                                },
                                "effects" : [

                                ],
                                "start" : 925,
                                "duration" : 128,
                                "mediaStart" : 1750,
                                "mediaDuration" : 128,
                                "scalar" : 1,
                                "animationTracks" : {

                                }
                              },
                          "audio" : 
                              {
                                "id" : 1031,
                                "_type" : "AMFile",
                                "src" : 7,
                                "trackNumber" : 2,
                                "attributes" : {
                                  "ident" : "",
                                  "sampleRate" : 44100,
                                  "bitDepth" : 16,
                                  "gain" : 1.0,
                                  "mixToMono" : false
                                },
                                  "channelNumber" : "0,1",
                                "effects" : [

                                ],
                                "start" : 925,
                                "duration" : 128,
                                "mediaStart" : 1750,
                                "mediaDuration" : 128,
                                "scalar" : 1,
                                "animationTracks" : {

                                }
                              }
,
                          "start" : 925,
                          "duration" : 128,
                          "mediaStart" : 0,
                          "mediaDuration" : 26386,
                          "scalar" : 1,
                          "metadata" : {
                            "WinSubProjectDisplayName" : "",
                            "clipSpeedAttribute" : false,
                            "default-scale0" : 0.25,
                            "default-scale1" : 0.25,
                            "default-translation0" : 880.0,
                            "default-translation1" : -480.0
                          }
                        },
                        {
                          "id" : 1032,
                          "_type" : "UnifiedMedia",
                          "video" : 
                              {
                                "id" : 1033,
                                "_type" : "VMFile",
                                "src" : 7,
                                "trackNumber" : 1,
                                "attributes" : {
                                  "ident" : "Rec 02-07-19_001"
                                },
                                "effects" : [

                                ],
                                "start" : 1053,
                                "duration" : 298,
                                "mediaStart" : 1939,
                                "mediaDuration" : 298,
                                "scalar" : 1,
                                "animationTracks" : {

                                }
                              },
                          "audio" : 
                              {
                                "id" : 1034,
                                "_type" : "AMFile",
                                "src" : 7,
                                "trackNumber" : 2,
                                "attributes" : {
                                  "ident" : "",
                                  "sampleRate" : 44100,
                                  "bitDepth" : 16,
                                  "gain" : 1.0,
                                  "mixToMono" : false
                                },
                                  "channelNumber" : "0,1",
                                "effects" : [

                                ],
                                "start" : 1053,
                                "duration" : 298,
                                "mediaStart" : 1939,
                                "mediaDuration" : 298,
                                "scalar" : 1,
                                "animationTracks" : {

                                }
                              }
,
                          "start" : 1053,
                          "duration" : 298,
                          "mediaStart" : 0,
                          "mediaDuration" : 26386,
                          "scalar" : 1,
                          "metadata" : {
                            "WinSubProjectDisplayName" : "",
                            "clipSpeedAttribute" : false,
                            "default-scale0" : 0.25,
                            "default-scale1" : 0.25,
                            "default-translation0" : 880.0,
                            "default-translation1" : -480.0
                          }
                        },
                        {
                          "id" : 1035,
                          "_type" : "UnifiedMedia",
                          "video" : 
                              {
                                "id" : 1036,
                                "_type" : "VMFile",
                                "src" : 7,
                                "trackNumber" : 1,
                                "attributes" : {
                                  "ident" : "Rec 02-07-19_001"
                                },
                                "effects" : [

                                ],
                                "start" : 1351,
                                "duration" : 524,
                                "mediaStart" : 2386,
                                "mediaDuration" : 524,
                                "scalar" : 1,
                                "animationTracks" : {

                                }
                              },
                          "audio" : 
                              {
                                "id" : 1037,
                                "_type" : "AMFile",
                                "src" : 7,
                                "trackNumber" : 2,
                                "attributes" : {
                                  "ident" : "",
                                  "sampleRate" : 44100,
                                  "bitDepth" : 16,
                                  "gain" : 1.0,
                                  "mixToMono" : false
                                },
                                  "channelNumber" : "0,1",
                                "effects" : [

                                ],
                                "start" : 1351,
                                "duration" : 524,
                                "mediaStart" : 2386,
                                "mediaDuration" : 524,
                                "scalar" : 1,
                                "animationTracks" : {

                                }
                              }
,
                          "start" : 1351,
                          "duration" : 524,
                          "mediaStart" : 0,
                          "mediaDuration" : 26386,
                          "scalar" : 1,
                          "metadata" : {
                            "WinSubProjectDisplayName" : "",
                            "clipSpeedAttribute" : false,
                            "default-scale0" : 0.25,
                            "default-scale1" : 0.25,
                            "default-translation0" : 880.0,
                            "default-translation1" : -480.0
                          }
                        },
                        {
                          "id" : 1038,
                          "_type" : "UnifiedMedia",
                          "video" : 
                              {
                                "id" : 1039,
                                "_type" : "VMFile",
                                "src" : 7,
                                "trackNumber" : 1,
                                "attributes" : {
                                  "ident" : "Rec 02-07-19_001"
                                },
                                "effects" : [

                                ],
                                "start" : 1875,
                                "duration" : 143,
                                "mediaStart" : 3086,
                                "mediaDuration" : 143,
                                "scalar" : 1,
                                "animationTracks" : {

                                }
                              },
                          "audio" : 
                              {
                                "id" : 1040,
                                "_type" : "AMFile",
                                "src" : 7,
                                "trackNumber" : 2,
                                "attributes" : {
                                  "ident" : "",
                                  "sampleRate" : 44100,
                                  "bitDepth" : 16,
                                  "gain" : 1.0,
                                  "mixToMono" : false
                                },
                                  "channelNumber" : "0,1",
                                "effects" : [

                                ],
                                "start" : 1875,
                                "duration" : 143,
                                "mediaStart" : 3086,
                                "mediaDuration" : 143,
                                "scalar" : 1,
                                "animationTracks" : {

                                }
                              }
,
                          "start" : 1875,
                          "duration" : 143,
                          "mediaStart" : 0,
                          "mediaDuration" : 26386,
                          "scalar" : 1,
                          "metadata" : {
                            "WinSubProjectDisplayName" : "",
                            "clipSpeedAttribute" : false,
                            "default-scale0" : 0.25,
                            "default-scale1" : 0.25,
                            "default-translation0" : 880.0,
                            "default-translation1" : -480.0
                          }
                        },
                        {
                          "id" : 1041,
                          "_type" : "UnifiedMedia",
                          "video" : 
                              {
                                "id" : 1042,
                                "_type" : "VMFile",
                                "src" : 7,
                                "trackNumber" : 1,
                                "attributes" : {
                                  "ident" : "Rec 02-07-19_001"
                                },
                                "effects" : [

                                ],
                                "start" : 2018,
                                "duration" : 1362,
                                "mediaStart" : 3692,
                                "mediaDuration" : 1362,
                                "scalar" : 1,
                                "animationTracks" : {

                                }
                              },
                          "audio" : 
                              {
                                "id" : 1043,
                                "_type" : "AMFile",
                                "src" : 7,
                                "trackNumber" : 2,
                                "attributes" : {
                                  "ident" : "",
                                  "sampleRate" : 44100,
                                  "bitDepth" : 16,
                                  "gain" : 1.0,
                                  "mixToMono" : false
                                },
                                  "channelNumber" : "0,1",
                                "effects" : [

                                ],
                                "start" : 2018,
                                "duration" : 1362,
                                "mediaStart" : 3692,
                                "mediaDuration" : 1362,
                                "scalar" : 1,
                                "animationTracks" : {

                                }
                              }
,
                          "start" : 2018,
                          "duration" : 1362,
                          "mediaStart" : 0,
                          "mediaDuration" : 26386,
                          "scalar" : 1,
                          "metadata" : {
                            "WinSubProjectDisplayName" : "",
                            "clipSpeedAttribute" : false,
                            "default-scale0" : 0.25,
                            "default-scale1" : 0.25,
                            "default-translation0" : 880.0,
                            "default-translation1" : -480.0
                          }
                        },
                        {
                          "id" : 1044,
                          "_type" : "UnifiedMedia",
                          "video" : 
                              {
                                "id" : 1045,
                                "_type" : "VMFile",
                                "src" : 7,
                                "trackNumber" : 1,
                                "attributes" : {
                                  "ident" : "Rec 02-07-19_001"
                                },
                                "effects" : [

                                ],
                                "start" : 3380,
                                "duration" : 218,
                                "mediaStart" : 5246,
                                "mediaDuration" : 218,
                                "scalar" : 1,
                                "animationTracks" : {

                                }
                              },
                          "audio" : 
                              {
                                "id" : 1046,
                                "_type" : "AMFile",
                                "src" : 7,
                                "trackNumber" : 2,
                                "attributes" : {
                                  "ident" : "",
                                  "sampleRate" : 44100,
                                  "bitDepth" : 16,
                                  "gain" : 1.0,
                                  "mixToMono" : false
                                },
                                  "channelNumber" : "0,1",
                                "effects" : [

                                ],
                                "start" : 3380,
                                "duration" : 218,
                                "mediaStart" : 5246,
                                "mediaDuration" : 218,
                                "scalar" : 1,
                                "animationTracks" : {

                                }
                              }
,
                          "start" : 3380,
                          "duration" : 218,
                          "mediaStart" : 0,
                          "mediaDuration" : 26386,
                          "scalar" : 1,
                          "metadata" : {
                            "WinSubProjectDisplayName" : "",
                            "clipSpeedAttribute" : false,
                            "default-scale0" : 0.25,
                            "default-scale1" : 0.25,
                            "default-translation0" : 880.0,
                            "default-translation1" : -480.0
                          }
                        },
                        {
                          "id" : 1047,
                          "_type" : "UnifiedMedia",
                          "video" : 
                              {
                                "id" : 1048,
                                "_type" : "VMFile",
                                "src" : 7,
                                "trackNumber" : 1,
                                "attributes" : {
                                  "ident" : "Rec 02-07-19_001"
                                },
                                "effects" : [

                                ],
                                "start" : 3598,
                                "duration" : 473,
                                "mediaStart" : 6154,
                                "mediaDuration" : 473,
                                "scalar" : 1,
                                "animationTracks" : {

                                }
                              },
                          "audio" : 
                              {
                                "id" : 1049,
                                "_type" : "AMFile",
                                "src" : 7,
                                "trackNumber" : 2,
                                "attributes" : {
                                  "ident" : "",
                                  "sampleRate" : 44100,
                                  "bitDepth" : 16,
                                  "gain" : 1.0,
                                  "mixToMono" : false
                                },
                                  "channelNumber" : "0,1",
                                "effects" : [

                                ],
                                "start" : 3598,
                                "duration" : 473,
                                "mediaStart" : 6154,
                                "mediaDuration" : 473,
                                "scalar" : 1,
                                "animationTracks" : {

                                }
                              }
,
                          "start" : 3598,
                          "duration" : 473,
                          "mediaStart" : 0,
                          "mediaDuration" : 26386,
                          "scalar" : 1,
                          "metadata" : {
                            "WinSubProjectDisplayName" : "",
                            "clipSpeedAttribute" : false,
                            "default-scale0" : 0.25,
                            "default-scale1" : 0.25,
                            "default-translation0" : 880.0,
                            "default-translation1" : -480.0
                          }
                        },
                        {
                          "id" : 1050,
                          "_type" : "UnifiedMedia",
                          "video" : 
                              {
                                "id" : 1051,
                                "_type" : "VMFile",
                                "src" : 7,
                                "trackNumber" : 1,
                                "attributes" : {
                                  "ident" : "Rec 02-07-19_001"
                                },
                                "effects" : [

                                ],
                                "start" : 4071,
                                "duration" : 164,
                                "mediaStart" : 6726,
                                "mediaDuration" : 164,
                                "scalar" : 1,
                                "animationTracks" : {

                                }
                              },
                          "audio" : 
                              {
                                "id" : 1052,
                                "_type" : "AMFile",
                                "src" : 7,
                                "trackNumber" : 2,
                                "attributes" : {
                                  "ident" : "",
                                  "sampleRate" : 44100,
                                  "bitDepth" : 16,
                                  "gain" : 1.0,
                                  "mixToMono" : false
                                },
                                  "channelNumber" : "0,1",
                                "effects" : [

                                ],
                                "start" : 4071,
                                "duration" : 164,
                                "mediaStart" : 6726,
                                "mediaDuration" : 164,
                                "scalar" : 1,
                                "animationTracks" : {

                                }
                              }
,
                          "start" : 4071,
                          "duration" : 164,
                          "mediaStart" : 0,
                          "mediaDuration" : 26386,
                          "scalar" : 1,
                          "metadata" : {
                            "WinSubProjectDisplayName" : "",
                            "clipSpeedAttribute" : false,
                            "default-scale0" : 0.25,
                            "default-scale1" : 0.25,
                            "default-translation0" : 880.0,
                            "default-translation1" : -480.0
                          }
                        },
                        {
                          "id" : 1053,
                          "_type" : "UnifiedMedia",
                          "video" : 
                              {
                                "id" : 1054,
                                "_type" : "VMFile",
                                "src" : 7,
                                "trackNumber" : 1,
                                "attributes" : {
                                  "ident" : "Rec 02-07-19_001"
                                },
                                "effects" : [

                                ],
                                "start" : 4235,
                                "duration" : 1279,
                                "mediaStart" : 7107,
                                "mediaDuration" : 1279,
                                "scalar" : 1,
                                "animationTracks" : {

                                }
                              },
                          "audio" : 
                              {
                                "id" : 1055,
                                "_type" : "AMFile",
                                "src" : 7,
                                "trackNumber" : 2,
                                "attributes" : {
                                  "ident" : "",
                                  "sampleRate" : 44100,
                                  "bitDepth" : 16,
                                  "gain" : 1.0,
                                  "mixToMono" : false
                                },
                                  "channelNumber" : "0,1",
                                "effects" : [

                                ],
                                "start" : 4235,
                                "duration" : 1279,
                                "mediaStart" : 7107,
                                "mediaDuration" : 1279,
                                "scalar" : 1,
                                "animationTracks" : {

                                }
                              }
,
                          "start" : 4235,
                          "duration" : 1279,
                          "mediaStart" : 0,
                          "mediaDuration" : 26386,
                          "scalar" : 1,
                          "metadata" : {
                            "WinSubProjectDisplayName" : "",
                            "clipSpeedAttribute" : false,
                            "default-scale0" : 0.25,
                            "default-scale1" : 0.25,
                            "default-translation0" : 880.0,
                            "default-translation1" : -480.0
                          }
                        },
                        {
                          "id" : 1056,
                          "_type" : "UnifiedMedia",
                          "video" : 
                              {
                                "id" : 1057,
                                "_type" : "VMFile",
                                "src" : 7,
                                "trackNumber" : 1,
                                "attributes" : {
                                  "ident" : "Rec 02-07-19_001"
                                },
                                "effects" : [

                                ],
                                "start" : 5514,
                                "duration" : 1542,
                                "mediaStart" : 8518,
                                "mediaDuration" : 1542,
                                "scalar" : 1,
                                "animationTracks" : {

                                }
                              },
                          "audio" : 
                              {
                                "id" : 1058,
                                "_type" : "AMFile",
                                "src" : 7,
                                "trackNumber" : 2,
                                "attributes" : {
                                  "ident" : "",
                                  "sampleRate" : 44100,
                                  "bitDepth" : 16,
                                  "gain" : 1.0,
                                  "mixToMono" : false
                                },
                                  "channelNumber" : "0,1",
                                "effects" : [

                                ],
                                "start" : 5514,
                                "duration" : 1542,
                                "mediaStart" : 8518,
                                "mediaDuration" : 1542,
                                "scalar" : 1,
                                "animationTracks" : {

                                }
                              }
,
                          "start" : 5514,
                          "duration" : 1542,
                          "mediaStart" : 0,
                          "mediaDuration" : 26386,
                          "scalar" : 1,
                          "metadata" : {
                            "WinSubProjectDisplayName" : "",
                            "clipSpeedAttribute" : false,
                            "default-scale0" : 0.25,
                            "default-scale1" : 0.25,
                            "default-translation0" : 880.0,
                            "default-translation1" : -480.0
                          }
                        },
                        {
                          "id" : 1059,
                          "_type" : "UnifiedMedia",
                          "video" : 
                              {
                                "id" : 1060,
                                "_type" : "VMFile",
                                "src" : 7,
                                "trackNumber" : 1,
                                "attributes" : {
                                  "ident" : "Rec 02-07-19_001"
                                },
                                "effects" : [

                                ],
                                "start" : 7056,
                                "duration" : 846,
                                "mediaStart" : 10392,
                                "mediaDuration" : 846,
                                "scalar" : 1,
                                "animationTracks" : {

                                }
                              },
                          "audio" : 
                              {
                                "id" : 1061,
                                "_type" : "AMFile",
                                "src" : 7,
                                "trackNumber" : 2,
                                "attributes" : {
                                  "ident" : "",
                                  "sampleRate" : 44100,
                                  "bitDepth" : 16,
                                  "gain" : 1.0,
                                  "mixToMono" : false
                                },
                                  "channelNumber" : "0,1",
                                "effects" : [

                                ],
                                "start" : 7056,
                                "duration" : 846,
                                "mediaStart" : 10392,
                                "mediaDuration" : 846,
                                "scalar" : 1,
                                "animationTracks" : {

                                }
                              }
,
                          "start" : 7056,
                          "duration" : 846,
                          "mediaStart" : 0,
                          "mediaDuration" : 26386,
                          "scalar" : 1,
                          "metadata" : {
                            "WinSubProjectDisplayName" : "",
                            "clipSpeedAttribute" : false,
                            "default-scale0" : 0.25,
                            "default-scale1" : 0.25,
                            "default-translation0" : 880.0,
                            "default-translation1" : -480.0
                          }
                        },
                        {
                          "id" : 1062,
                          "_type" : "UnifiedMedia",
                          "video" : 
                              {
                                "id" : 1063,
                                "_type" : "VMFile",
                                "src" : 7,
                                "trackNumber" : 1,
                                "attributes" : {
                                  "ident" : "Rec 02-07-19_001"
                                },
                                "effects" : [

                                ],
                                "start" : 7902,
                                "duration" : 451,
                                "mediaStart" : 11363,
                                "mediaDuration" : 451,
                                "scalar" : 1,
                                "animationTracks" : {

                                }
                              },
                          "audio" : 
                              {
                                "id" : 1064,
                                "_type" : "AMFile",
                                "src" : 7,
                                "trackNumber" : 2,
                                "attributes" : {
                                  "ident" : "",
                                  "sampleRate" : 44100,
                                  "bitDepth" : 16,
                                  "gain" : 1.0,
                                  "mixToMono" : false
                                },
                                  "channelNumber" : "0,1",
                                "effects" : [

                                ],
                                "start" : 7902,
                                "duration" : 451,
                                "mediaStart" : 11363,
                                "mediaDuration" : 451,
                                "scalar" : 1,
                                "animationTracks" : {

                                }
                              }
,
                          "start" : 7902,
                          "duration" : 451,
                          "mediaStart" : 0,
                          "mediaDuration" : 26386,
                          "scalar" : 1,
                          "metadata" : {
                            "WinSubProjectDisplayName" : "",
                            "clipSpeedAttribute" : false,
                            "default-scale0" : 0.25,
                            "default-scale1" : 0.25,
                            "default-translation0" : 880.0,
                            "default-translation1" : -480.0
                          }
                        },
                        {
                          "id" : 1065,
                          "_type" : "UnifiedMedia",
                          "video" : 
                              {
                                "id" : 1066,
                                "_type" : "VMFile",
                                "src" : 7,
                                "trackNumber" : 1,
                                "attributes" : {
                                  "ident" : "Rec 02-07-19_001"
                                },
                                "effects" : [

                                ],
                                "start" : 8353,
                                "duration" : 423,
                                "mediaStart" : 12079,
                                "mediaDuration" : 423,
                                "scalar" : 1,
                                "animationTracks" : {

                                }
                              },
                          "audio" : 
                              {
                                "id" : 1067,
                                "_type" : "AMFile",
                                "src" : 7,
                                "trackNumber" : 2,
                                "attributes" : {
                                  "ident" : "",
                                  "sampleRate" : 44100,
                                  "bitDepth" : 16,
                                  "gain" : 1.0,
                                  "mixToMono" : false
                                },
                                  "channelNumber" : "0,1",
                                "effects" : [

                                ],
                                "start" : 8353,
                                "duration" : 423,
                                "mediaStart" : 12079,
                                "mediaDuration" : 423,
                                "scalar" : 1,
                                "animationTracks" : {

                                }
                              }
,
                          "start" : 8353,
                          "duration" : 423,
                          "mediaStart" : 0,
                          "mediaDuration" : 26386,
                          "scalar" : 1,
                          "metadata" : {
                            "WinSubProjectDisplayName" : "",
                            "clipSpeedAttribute" : false,
                            "default-scale0" : 0.25,
                            "default-scale1" : 0.25,
                            "default-translation0" : 880.0,
                            "default-translation1" : -480.0
                          }
                        },
                        {
                          "id" : 1068,
                          "_type" : "UnifiedMedia",
                          "video" : 
                              {
                                "id" : 1069,
                                "_type" : "VMFile",
                                "src" : 7,
                                "trackNumber" : 1,
                                "attributes" : {
                                  "ident" : "Rec 02-07-19_001"
                                },
                                "effects" : [

                                ],
                                "start" : 8776,
                                "duration" : 2615,
                                "mediaStart" : 12807,
                                "mediaDuration" : 2615,
                                "scalar" : 1,
                                "animationTracks" : {

                                }
                              },
                          "audio" : 
                              {
                                "id" : 1070,
                                "_type" : "AMFile",
                                "src" : 7,
                                "trackNumber" : 2,
                                "attributes" : {
                                  "ident" : "",
                                  "sampleRate" : 44100,
                                  "bitDepth" : 16,
                                  "gain" : 1.0,
                                  "mixToMono" : false
                                },
                                  "channelNumber" : "0,1",
                                "effects" : [

                                ],
                                "start" : 8776,
                                "duration" : 2615,
                                "mediaStart" : 12807,
                                "mediaDuration" : 2615,
                                "scalar" : 1,
                                "animationTracks" : {

                                }
                              }
,
                          "start" : 8776,
                          "duration" : 2615,
                          "mediaStart" : 0,
                          "mediaDuration" : 26386,
                          "scalar" : 1,
                          "metadata" : {
                            "WinSubProjectDisplayName" : "",
                            "clipSpeedAttribute" : false,
                            "default-scale0" : 0.25,
                            "default-scale1" : 0.25,
                            "default-translation0" : 880.0,
                            "default-translation1" : -480.0
                          }
                        },
                        {
                          "id" : 1071,
                          "_type" : "UnifiedMedia",
                          "video" : 
                              {
                                "id" : 1072,
                                "_type" : "VMFile",
                                "src" : 7,
                                "trackNumber" : 1,
                                "attributes" : {
                                  "ident" : "Rec 02-07-19_001"
                                },
                                "effects" : [

                                ],
                                "start" : 11391,
                                "duration" : 10080,
                                "mediaStart" : 16306,
                                "mediaDuration" : 10080,
                                "scalar" : 1,
                                "animationTracks" : {

                                }
                              },
                          "audio" : 
                              {
                                "id" : 1073,
                                "_type" : "AMFile",
                                "src" : 7,
                                "trackNumber" : 2,
                                "attributes" : {
                                  "ident" : "",
                                  "sampleRate" : 44100,
                                  "bitDepth" : 16,
                                  "gain" : 1.0,
                                  "mixToMono" : false
                                },
                                  "channelNumber" : "0,1",
                                "effects" : [

                                ],
                                "start" : 11391,
                                "duration" : 10080,
                                "mediaStart" : 16306,
                                "mediaDuration" : 10080,
                                "scalar" : 1,
                                "animationTracks" : {

                                }
                              }
,
                          "start" : 11391,
                          "duration" : 10080,
                          "mediaStart" : 0,
                          "mediaDuration" : 26386,
                          "scalar" : 1,
                          "metadata" : {
                            "WinSubProjectDisplayName" : "",
                            "clipSpeedAttribute" : false,
                            "default-scale0" : 0.25,
                            "default-scale1" : 0.25,
                            "default-translation0" : 880.0,
                            "default-translation1" : -480.0
                          }
                        }
                    ],
                    "effects" : [

                    ],
                    "start" : 24622,
                    "duration" : 197,
                    "mediaStart" : 13401,
                    "mediaDuration" : 592,
                    "scalar" : "197/592",
                    "metadata" : {
                      "WinSubProjectDisplayName" : "",
                      "clipSpeedAttribute" : true
                    },
                    "animationTracks" : {

                    }
                  },
                  {
                    "id" : 1074,
                    "_type" : "StitchedMedia",
                    "minMediaStart" : 0,
                    "attributes" : {
                      "ident" : "Rec 02-07-19_001",
                      "gain" : 1.0,
                      "mixToMono" : false
                    },
                    "parameters" : {
                      "translation0" : 703.999999999945,
                      "translation1" : -347.999999999936,
                      "scale0" : 0.8,
                      "scale1" : 0.8,
                      "volume" : 1.0,
                      "cursorOpacity" : 1.0,
                      "cursorScale" : 1.0
                    },
                    "medias" : [
                        {
                          "id" : 1075,
                          "_type" : "UnifiedMedia",
                          "video" : 
                              {
                                "id" : 1076,
                                "_type" : "VMFile",
                                "src" : 7,
                                "trackNumber" : 1,
                                "attributes" : {
                                  "ident" : "Rec 02-07-19_001"
                                },
                                "effects" : [

                                ],
                                "start" : 0,
                                "duration" : 496,
                                "mediaStart" : 0,
                                "mediaDuration" : 496,
                                "scalar" : 1,
                                "animationTracks" : {

                                }
                              },
                          "audio" : 
                              {
                                "id" : 1077,
                                "_type" : "AMFile",
                                "src" : 7,
                                "trackNumber" : 2,
                                "attributes" : {
                                  "ident" : "",
                                  "sampleRate" : 44100,
                                  "bitDepth" : 16,
                                  "gain" : 1.0,
                                  "mixToMono" : false
                                },
                                  "channelNumber" : "0,1",
                                "effects" : [

                                ],
                                "start" : 0,
                                "duration" : 496,
                                "mediaStart" : 0,
                                "mediaDuration" : 496,
                                "scalar" : 1,
                                "animationTracks" : {

                                }
                              }
,
                          "start" : 0,
                          "duration" : 496,
                          "mediaStart" : 0,
                          "mediaDuration" : 26386,
                          "scalar" : 1,
                          "metadata" : {
                            "WinSubProjectDisplayName" : "",
                            "clipSpeedAttribute" : false,
                            "default-scale0" : 0.25,
                            "default-scale1" : 0.25,
                            "default-translation0" : 880.0,
                            "default-translation1" : -480.0
                          }
                        },
                        {
                          "id" : 1078,
                          "_type" : "UnifiedMedia",
                          "video" : 
                              {
                                "id" : 1079,
                                "_type" : "VMFile",
                                "src" : 7,
                                "trackNumber" : 1,
                                "attributes" : {
                                  "ident" : "Rec 02-07-19_001"
                                },
                                "effects" : [

                                ],
                                "start" : 496,
                                "duration" : 190,
                                "mediaStart" : 715,
                                "mediaDuration" : 190,
                                "scalar" : 1,
                                "animationTracks" : {

                                }
                              },
                          "audio" : 
                              {
                                "id" : 1080,
                                "_type" : "AMFile",
                                "src" : 7,
                                "trackNumber" : 2,
                                "attributes" : {
                                  "ident" : "",
                                  "sampleRate" : 44100,
                                  "bitDepth" : 16,
                                  "gain" : 1.0,
                                  "mixToMono" : false
                                },
                                  "channelNumber" : "0,1",
                                "effects" : [

                                ],
                                "start" : 496,
                                "duration" : 190,
                                "mediaStart" : 715,
                                "mediaDuration" : 190,
                                "scalar" : 1,
                                "animationTracks" : {

                                }
                              }
,
                          "start" : 496,
                          "duration" : 190,
                          "mediaStart" : 0,
                          "mediaDuration" : 26386,
                          "scalar" : 1,
                          "metadata" : {
                            "WinSubProjectDisplayName" : "",
                            "clipSpeedAttribute" : false,
                            "default-scale0" : 0.25,
                            "default-scale1" : 0.25,
                            "default-translation0" : 880.0,
                            "default-translation1" : -480.0
                          }
                        },
                        {
                          "id" : 1081,
                          "_type" : "UnifiedMedia",
                          "video" : 
                              {
                                "id" : 1082,
                                "_type" : "VMFile",
                                "src" : 7,
                                "trackNumber" : 1,
                                "attributes" : {
                                  "ident" : "Rec 02-07-19_001"
                                },
                                "effects" : [

                                ],
                                "start" : 686,
                                "duration" : 239,
                                "mediaStart" : 1444,
                                "mediaDuration" : 239,
                                "scalar" : 1,
                                "animationTracks" : {

                                }
                              },
                          "audio" : 
                              {
                                "id" : 1083,
                                "_type" : "AMFile",
                                "src" : 7,
                                "trackNumber" : 2,
                                "attributes" : {
                                  "ident" : "",
                                  "sampleRate" : 44100,
                                  "bitDepth" : 16,
                                  "gain" : 1.0,
                                  "mixToMono" : false
                                },
                                  "channelNumber" : "0,1",
                                "effects" : [

                                ],
                                "start" : 686,
                                "duration" : 239,
                                "mediaStart" : 1444,
                                "mediaDuration" : 239,
                                "scalar" : 1,
                                "animationTracks" : {

                                }
                              }
,
                          "start" : 686,
                          "duration" : 239,
                          "mediaStart" : 0,
                          "mediaDuration" : 26386,
                          "scalar" : 1,
                          "metadata" : {
                            "WinSubProjectDisplayName" : "",
                            "clipSpeedAttribute" : false,
                            "default-scale0" : 0.25,
                            "default-scale1" : 0.25,
                            "default-translation0" : 880.0,
                            "default-translation1" : -480.0
                          }
                        },
                        {
                          "id" : 1084,
                          "_type" : "UnifiedMedia",
                          "video" : 
                              {
                                "id" : 1085,
                                "_type" : "VMFile",
                                "src" : 7,
                                "trackNumber" : 1,
                                "attributes" : {
                                  "ident" : "Rec 02-07-19_001"
                                },
                                "effects" : [

                                ],
                                "start" : 925,
                                "duration" : 128,
                                "mediaStart" : 1750,
                                "mediaDuration" : 128,
                                "scalar" : 1,
                                "animationTracks" : {

                                }
                              },
                          "audio" : 
                              {
                                "id" : 1086,
                                "_type" : "AMFile",
                                "src" : 7,
                                "trackNumber" : 2,
                                "attributes" : {
                                  "ident" : "",
                                  "sampleRate" : 44100,
                                  "bitDepth" : 16,
                                  "gain" : 1.0,
                                  "mixToMono" : false
                                },
                                  "channelNumber" : "0,1",
                                "effects" : [

                                ],
                                "start" : 925,
                                "duration" : 128,
                                "mediaStart" : 1750,
                                "mediaDuration" : 128,
                                "scalar" : 1,
                                "animationTracks" : {

                                }
                              }
,
                          "start" : 925,
                          "duration" : 128,
                          "mediaStart" : 0,
                          "mediaDuration" : 26386,
                          "scalar" : 1,
                          "metadata" : {
                            "WinSubProjectDisplayName" : "",
                            "clipSpeedAttribute" : false,
                            "default-scale0" : 0.25,
                            "default-scale1" : 0.25,
                            "default-translation0" : 880.0,
                            "default-translation1" : -480.0
                          }
                        },
                        {
                          "id" : 1087,
                          "_type" : "UnifiedMedia",
                          "video" : 
                              {
                                "id" : 1088,
                                "_type" : "VMFile",
                                "src" : 7,
                                "trackNumber" : 1,
                                "attributes" : {
                                  "ident" : "Rec 02-07-19_001"
                                },
                                "effects" : [

                                ],
                                "start" : 1053,
                                "duration" : 298,
                                "mediaStart" : 1939,
                                "mediaDuration" : 298,
                                "scalar" : 1,
                                "animationTracks" : {

                                }
                              },
                          "audio" : 
                              {
                                "id" : 1089,
                                "_type" : "AMFile",
                                "src" : 7,
                                "trackNumber" : 2,
                                "attributes" : {
                                  "ident" : "",
                                  "sampleRate" : 44100,
                                  "bitDepth" : 16,
                                  "gain" : 1.0,
                                  "mixToMono" : false
                                },
                                  "channelNumber" : "0,1",
                                "effects" : [

                                ],
                                "start" : 1053,
                                "duration" : 298,
                                "mediaStart" : 1939,
                                "mediaDuration" : 298,
                                "scalar" : 1,
                                "animationTracks" : {

                                }
                              }
,
                          "start" : 1053,
                          "duration" : 298,
                          "mediaStart" : 0,
                          "mediaDuration" : 26386,
                          "scalar" : 1,
                          "metadata" : {
                            "WinSubProjectDisplayName" : "",
                            "clipSpeedAttribute" : false,
                            "default-scale0" : 0.25,
                            "default-scale1" : 0.25,
                            "default-translation0" : 880.0,
                            "default-translation1" : -480.0
                          }
                        },
                        {
                          "id" : 1090,
                          "_type" : "UnifiedMedia",
                          "video" : 
                              {
                                "id" : 1091,
                                "_type" : "VMFile",
                                "src" : 7,
                                "trackNumber" : 1,
                                "attributes" : {
                                  "ident" : "Rec 02-07-19_001"
                                },
                                "effects" : [

                                ],
                                "start" : 1351,
                                "duration" : 524,
                                "mediaStart" : 2386,
                                "mediaDuration" : 524,
                                "scalar" : 1,
                                "animationTracks" : {

                                }
                              },
                          "audio" : 
                              {
                                "id" : 1092,
                                "_type" : "AMFile",
                                "src" : 7,
                                "trackNumber" : 2,
                                "attributes" : {
                                  "ident" : "",
                                  "sampleRate" : 44100,
                                  "bitDepth" : 16,
                                  "gain" : 1.0,
                                  "mixToMono" : false
                                },
                                  "channelNumber" : "0,1",
                                "effects" : [

                                ],
                                "start" : 1351,
                                "duration" : 524,
                                "mediaStart" : 2386,
                                "mediaDuration" : 524,
                                "scalar" : 1,
                                "animationTracks" : {

                                }
                              }
,
                          "start" : 1351,
                          "duration" : 524,
                          "mediaStart" : 0,
                          "mediaDuration" : 26386,
                          "scalar" : 1,
                          "metadata" : {
                            "WinSubProjectDisplayName" : "",
                            "clipSpeedAttribute" : false,
                            "default-scale0" : 0.25,
                            "default-scale1" : 0.25,
                            "default-translation0" : 880.0,
                            "default-translation1" : -480.0
                          }
                        },
                        {
                          "id" : 1093,
                          "_type" : "UnifiedMedia",
                          "video" : 
                              {
                                "id" : 1094,
                                "_type" : "VMFile",
                                "src" : 7,
                                "trackNumber" : 1,
                                "attributes" : {
                                  "ident" : "Rec 02-07-19_001"
                                },
                                "effects" : [

                                ],
                                "start" : 1875,
                                "duration" : 143,
                                "mediaStart" : 3086,
                                "mediaDuration" : 143,
                                "scalar" : 1,
                                "animationTracks" : {

                                }
                              },
                          "audio" : 
                              {
                                "id" : 1095,
                                "_type" : "AMFile",
                                "src" : 7,
                                "trackNumber" : 2,
                                "attributes" : {
                                  "ident" : "",
                                  "sampleRate" : 44100,
                                  "bitDepth" : 16,
                                  "gain" : 1.0,
                                  "mixToMono" : false
                                },
                                  "channelNumber" : "0,1",
                                "effects" : [

                                ],
                                "start" : 1875,
                                "duration" : 143,
                                "mediaStart" : 3086,
                                "mediaDuration" : 143,
                                "scalar" : 1,
                                "animationTracks" : {

                                }
                              }
,
                          "start" : 1875,
                          "duration" : 143,
                          "mediaStart" : 0,
                          "mediaDuration" : 26386,
                          "scalar" : 1,
                          "metadata" : {
                            "WinSubProjectDisplayName" : "",
                            "clipSpeedAttribute" : false,
                            "default-scale0" : 0.25,
                            "default-scale1" : 0.25,
                            "default-translation0" : 880.0,
                            "default-translation1" : -480.0
                          }
                        },
                        {
                          "id" : 1096,
                          "_type" : "UnifiedMedia",
                          "video" : 
                              {
                                "id" : 1097,
                                "_type" : "VMFile",
                                "src" : 7,
                                "trackNumber" : 1,
                                "attributes" : {
                                  "ident" : "Rec 02-07-19_001"
                                },
                                "effects" : [

                                ],
                                "start" : 2018,
                                "duration" : 1362,
                                "mediaStart" : 3692,
                                "mediaDuration" : 1362,
                                "scalar" : 1,
                                "animationTracks" : {

                                }
                              },
                          "audio" : 
                              {
                                "id" : 1098,
                                "_type" : "AMFile",
                                "src" : 7,
                                "trackNumber" : 2,
                                "attributes" : {
                                  "ident" : "",
                                  "sampleRate" : 44100,
                                  "bitDepth" : 16,
                                  "gain" : 1.0,
                                  "mixToMono" : false
                                },
                                  "channelNumber" : "0,1",
                                "effects" : [

                                ],
                                "start" : 2018,
                                "duration" : 1362,
                                "mediaStart" : 3692,
                                "mediaDuration" : 1362,
                                "scalar" : 1,
                                "animationTracks" : {

                                }
                              }
,
                          "start" : 2018,
                          "duration" : 1362,
                          "mediaStart" : 0,
                          "mediaDuration" : 26386,
                          "scalar" : 1,
                          "metadata" : {
                            "WinSubProjectDisplayName" : "",
                            "clipSpeedAttribute" : false,
                            "default-scale0" : 0.25,
                            "default-scale1" : 0.25,
                            "default-translation0" : 880.0,
                            "default-translation1" : -480.0
                          }
                        },
                        {
                          "id" : 1099,
                          "_type" : "UnifiedMedia",
                          "video" : 
                              {
                                "id" : 1100,
                                "_type" : "VMFile",
                                "src" : 7,
                                "trackNumber" : 1,
                                "attributes" : {
                                  "ident" : "Rec 02-07-19_001"
                                },
                                "effects" : [

                                ],
                                "start" : 3380,
                                "duration" : 218,
                                "mediaStart" : 5246,
                                "mediaDuration" : 218,
                                "scalar" : 1,
                                "animationTracks" : {

                                }
                              },
                          "audio" : 
                              {
                                "id" : 1101,
                                "_type" : "AMFile",
                                "src" : 7,
                                "trackNumber" : 2,
                                "attributes" : {
                                  "ident" : "",
                                  "sampleRate" : 44100,
                                  "bitDepth" : 16,
                                  "gain" : 1.0,
                                  "mixToMono" : false
                                },
                                  "channelNumber" : "0,1",
                                "effects" : [

                                ],
                                "start" : 3380,
                                "duration" : 218,
                                "mediaStart" : 5246,
                                "mediaDuration" : 218,
                                "scalar" : 1,
                                "animationTracks" : {

                                }
                              }
,
                          "start" : 3380,
                          "duration" : 218,
                          "mediaStart" : 0,
                          "mediaDuration" : 26386,
                          "scalar" : 1,
                          "metadata" : {
                            "WinSubProjectDisplayName" : "",
                            "clipSpeedAttribute" : false,
                            "default-scale0" : 0.25,
                            "default-scale1" : 0.25,
                            "default-translation0" : 880.0,
                            "default-translation1" : -480.0
                          }
                        },
                        {
                          "id" : 1102,
                          "_type" : "UnifiedMedia",
                          "video" : 
                              {
                                "id" : 1103,
                                "_type" : "VMFile",
                                "src" : 7,
                                "trackNumber" : 1,
                                "attributes" : {
                                  "ident" : "Rec 02-07-19_001"
                                },
                                "effects" : [

                                ],
                                "start" : 3598,
                                "duration" : 473,
                                "mediaStart" : 6154,
                                "mediaDuration" : 473,
                                "scalar" : 1,
                                "animationTracks" : {

                                }
                              },
                          "audio" : 
                              {
                                "id" : 1104,
                                "_type" : "AMFile",
                                "src" : 7,
                                "trackNumber" : 2,
                                "attributes" : {
                                  "ident" : "",
                                  "sampleRate" : 44100,
                                  "bitDepth" : 16,
                                  "gain" : 1.0,
                                  "mixToMono" : false
                                },
                                  "channelNumber" : "0,1",
                                "effects" : [

                                ],
                                "start" : 3598,
                                "duration" : 473,
                                "mediaStart" : 6154,
                                "mediaDuration" : 473,
                                "scalar" : 1,
                                "animationTracks" : {

                                }
                              }
,
                          "start" : 3598,
                          "duration" : 473,
                          "mediaStart" : 0,
                          "mediaDuration" : 26386,
                          "scalar" : 1,
                          "metadata" : {
                            "WinSubProjectDisplayName" : "",
                            "clipSpeedAttribute" : false,
                            "default-scale0" : 0.25,
                            "default-scale1" : 0.25,
                            "default-translation0" : 880.0,
                            "default-translation1" : -480.0
                          }
                        },
                        {
                          "id" : 1105,
                          "_type" : "UnifiedMedia",
                          "video" : 
                              {
                                "id" : 1106,
                                "_type" : "VMFile",
                                "src" : 7,
                                "trackNumber" : 1,
                                "attributes" : {
                                  "ident" : "Rec 02-07-19_001"
                                },
                                "effects" : [

                                ],
                                "start" : 4071,
                                "duration" : 164,
                                "mediaStart" : 6726,
                                "mediaDuration" : 164,
                                "scalar" : 1,
                                "animationTracks" : {

                                }
                              },
                          "audio" : 
                              {
                                "id" : 1107,
                                "_type" : "AMFile",
                                "src" : 7,
                                "trackNumber" : 2,
                                "attributes" : {
                                  "ident" : "",
                                  "sampleRate" : 44100,
                                  "bitDepth" : 16,
                                  "gain" : 1.0,
                                  "mixToMono" : false
                                },
                                  "channelNumber" : "0,1",
                                "effects" : [

                                ],
                                "start" : 4071,
                                "duration" : 164,
                                "mediaStart" : 6726,
                                "mediaDuration" : 164,
                                "scalar" : 1,
                                "animationTracks" : {

                                }
                              }
,
                          "start" : 4071,
                          "duration" : 164,
                          "mediaStart" : 0,
                          "mediaDuration" : 26386,
                          "scalar" : 1,
                          "metadata" : {
                            "WinSubProjectDisplayName" : "",
                            "clipSpeedAttribute" : false,
                            "default-scale0" : 0.25,
                            "default-scale1" : 0.25,
                            "default-translation0" : 880.0,
                            "default-translation1" : -480.0
                          }
                        },
                        {
                          "id" : 1108,
                          "_type" : "UnifiedMedia",
                          "video" : 
                              {
                                "id" : 1109,
                                "_type" : "VMFile",
                                "src" : 7,
                                "trackNumber" : 1,
                                "attributes" : {
                                  "ident" : "Rec 02-07-19_001"
                                },
                                "effects" : [

                                ],
                                "start" : 4235,
                                "duration" : 1279,
                                "mediaStart" : 7107,
                                "mediaDuration" : 1279,
                                "scalar" : 1,
                                "animationTracks" : {

                                }
                              },
                          "audio" : 
                              {
                                "id" : 1110,
                                "_type" : "AMFile",
                                "src" : 7,
                                "trackNumber" : 2,
                                "attributes" : {
                                  "ident" : "",
                                  "sampleRate" : 44100,
                                  "bitDepth" : 16,
                                  "gain" : 1.0,
                                  "mixToMono" : false
                                },
                                  "channelNumber" : "0,1",
                                "effects" : [

                                ],
                                "start" : 4235,
                                "duration" : 1279,
                                "mediaStart" : 7107,
                                "mediaDuration" : 1279,
                                "scalar" : 1,
                                "animationTracks" : {

                                }
                              }
,
                          "start" : 4235,
                          "duration" : 1279,
                          "mediaStart" : 0,
                          "mediaDuration" : 26386,
                          "scalar" : 1,
                          "metadata" : {
                            "WinSubProjectDisplayName" : "",
                            "clipSpeedAttribute" : false,
                            "default-scale0" : 0.25,
                            "default-scale1" : 0.25,
                            "default-translation0" : 880.0,
                            "default-translation1" : -480.0
                          }
                        },
                        {
                          "id" : 1111,
                          "_type" : "UnifiedMedia",
                          "video" : 
                              {
                                "id" : 1112,
                                "_type" : "VMFile",
                                "src" : 7,
                                "trackNumber" : 1,
                                "attributes" : {
                                  "ident" : "Rec 02-07-19_001"
                                },
                                "effects" : [

                                ],
                                "start" : 5514,
                                "duration" : 1542,
                                "mediaStart" : 8518,
                                "mediaDuration" : 1542,
                                "scalar" : 1,
                                "animationTracks" : {

                                }
                              },
                          "audio" : 
                              {
                                "id" : 1113,
                                "_type" : "AMFile",
                                "src" : 7,
                                "trackNumber" : 2,
                                "attributes" : {
                                  "ident" : "",
                                  "sampleRate" : 44100,
                                  "bitDepth" : 16,
                                  "gain" : 1.0,
                                  "mixToMono" : false
                                },
                                  "channelNumber" : "0,1",
                                "effects" : [

                                ],
                                "start" : 5514,
                                "duration" : 1542,
                                "mediaStart" : 8518,
                                "mediaDuration" : 1542,
                                "scalar" : 1,
                                "animationTracks" : {

                                }
                              }
,
                          "start" : 5514,
                          "duration" : 1542,
                          "mediaStart" : 0,
                          "mediaDuration" : 26386,
                          "scalar" : 1,
                          "metadata" : {
                            "WinSubProjectDisplayName" : "",
                            "clipSpeedAttribute" : false,
                            "default-scale0" : 0.25,
                            "default-scale1" : 0.25,
                            "default-translation0" : 880.0,
                            "default-translation1" : -480.0
                          }
                        },
                        {
                          "id" : 1114,
                          "_type" : "UnifiedMedia",
                          "video" : 
                              {
                                "id" : 1115,
                                "_type" : "VMFile",
                                "src" : 7,
                                "trackNumber" : 1,
                                "attributes" : {
                                  "ident" : "Rec 02-07-19_001"
                                },
                                "effects" : [

                                ],
                                "start" : 7056,
                                "duration" : 846,
                                "mediaStart" : 10392,
                                "mediaDuration" : 846,
                                "scalar" : 1,
                                "animationTracks" : {

                                }
                              },
                          "audio" : 
                              {
                                "id" : 1116,
                                "_type" : "AMFile",
                                "src" : 7,
                                "trackNumber" : 2,
                                "attributes" : {
                                  "ident" : "",
                                  "sampleRate" : 44100,
                                  "bitDepth" : 16,
                                  "gain" : 1.0,
                                  "mixToMono" : false
                                },
                                  "channelNumber" : "0,1",
                                "effects" : [

                                ],
                                "start" : 7056,
                                "duration" : 846,
                                "mediaStart" : 10392,
                                "mediaDuration" : 846,
                                "scalar" : 1,
                                "animationTracks" : {

                                }
                              }
,
                          "start" : 7056,
                          "duration" : 846,
                          "mediaStart" : 0,
                          "mediaDuration" : 26386,
                          "scalar" : 1,
                          "metadata" : {
                            "WinSubProjectDisplayName" : "",
                            "clipSpeedAttribute" : false,
                            "default-scale0" : 0.25,
                            "default-scale1" : 0.25,
                            "default-translation0" : 880.0,
                            "default-translation1" : -480.0
                          }
                        },
                        {
                          "id" : 1117,
                          "_type" : "UnifiedMedia",
                          "video" : 
                              {
                                "id" : 1118,
                                "_type" : "VMFile",
                                "src" : 7,
                                "trackNumber" : 1,
                                "attributes" : {
                                  "ident" : "Rec 02-07-19_001"
                                },
                                "effects" : [

                                ],
                                "start" : 7902,
                                "duration" : 451,
                                "mediaStart" : 11363,
                                "mediaDuration" : 451,
                                "scalar" : 1,
                                "animationTracks" : {

                                }
                              },
                          "audio" : 
                              {
                                "id" : 1119,
                                "_type" : "AMFile",
                                "src" : 7,
                                "trackNumber" : 2,
                                "attributes" : {
                                  "ident" : "",
                                  "sampleRate" : 44100,
                                  "bitDepth" : 16,
                                  "gain" : 1.0,
                                  "mixToMono" : false
                                },
                                  "channelNumber" : "0,1",
                                "effects" : [

                                ],
                                "start" : 7902,
                                "duration" : 451,
                                "mediaStart" : 11363,
                                "mediaDuration" : 451,
                                "scalar" : 1,
                                "animationTracks" : {

                                }
                              }
,
                          "start" : 7902,
                          "duration" : 451,
                          "mediaStart" : 0,
                          "mediaDuration" : 26386,
                          "scalar" : 1,
                          "metadata" : {
                            "WinSubProjectDisplayName" : "",
                            "clipSpeedAttribute" : false,
                            "default-scale0" : 0.25,
                            "default-scale1" : 0.25,
                            "default-translation0" : 880.0,
                            "default-translation1" : -480.0
                          }
                        },
                        {
                          "id" : 1120,
                          "_type" : "UnifiedMedia",
                          "video" : 
                              {
                                "id" : 1121,
                                "_type" : "VMFile",
                                "src" : 7,
                                "trackNumber" : 1,
                                "attributes" : {
                                  "ident" : "Rec 02-07-19_001"
                                },
                                "effects" : [

                                ],
                                "start" : 8353,
                                "duration" : 423,
                                "mediaStart" : 12079,
                                "mediaDuration" : 423,
                                "scalar" : 1,
                                "animationTracks" : {

                                }
                              },
                          "audio" : 
                              {
                                "id" : 1122,
                                "_type" : "AMFile",
                                "src" : 7,
                                "trackNumber" : 2,
                                "attributes" : {
                                  "ident" : "",
                                  "sampleRate" : 44100,
                                  "bitDepth" : 16,
                                  "gain" : 1.0,
                                  "mixToMono" : false
                                },
                                  "channelNumber" : "0,1",
                                "effects" : [

                                ],
                                "start" : 8353,
                                "duration" : 423,
                                "mediaStart" : 12079,
                                "mediaDuration" : 423,
                                "scalar" : 1,
                                "animationTracks" : {

                                }
                              }
,
                          "start" : 8353,
                          "duration" : 423,
                          "mediaStart" : 0,
                          "mediaDuration" : 26386,
                          "scalar" : 1,
                          "metadata" : {
                            "WinSubProjectDisplayName" : "",
                            "clipSpeedAttribute" : false,
                            "default-scale0" : 0.25,
                            "default-scale1" : 0.25,
                            "default-translation0" : 880.0,
                            "default-translation1" : -480.0
                          }
                        },
                        {
                          "id" : 1123,
                          "_type" : "UnifiedMedia",
                          "video" : 
                              {
                                "id" : 1124,
                                "_type" : "VMFile",
                                "src" : 7,
                                "trackNumber" : 1,
                                "attributes" : {
                                  "ident" : "Rec 02-07-19_001"
                                },
                                "effects" : [

                                ],
                                "start" : 8776,
                                "duration" : 2615,
                                "mediaStart" : 12807,
                                "mediaDuration" : 2615,
                                "scalar" : 1,
                                "animationTracks" : {

                                }
                              },
                          "audio" : 
                              {
                                "id" : 1125,
                                "_type" : "AMFile",
                                "src" : 7,
                                "trackNumber" : 2,
                                "attributes" : {
                                  "ident" : "",
                                  "sampleRate" : 44100,
                                  "bitDepth" : 16,
                                  "gain" : 1.0,
                                  "mixToMono" : false
                                },
                                  "channelNumber" : "0,1",
                                "effects" : [

                                ],
                                "start" : 8776,
                                "duration" : 2615,
                                "mediaStart" : 12807,
                                "mediaDuration" : 2615,
                                "scalar" : 1,
                                "animationTracks" : {

                                }
                              }
,
                          "start" : 8776,
                          "duration" : 2615,
                          "mediaStart" : 0,
                          "mediaDuration" : 26386,
                          "scalar" : 1,
                          "metadata" : {
                            "WinSubProjectDisplayName" : "",
                            "clipSpeedAttribute" : false,
                            "default-scale0" : 0.25,
                            "default-scale1" : 0.25,
                            "default-translation0" : 880.0,
                            "default-translation1" : -480.0
                          }
                        },
                        {
                          "id" : 1126,
                          "_type" : "UnifiedMedia",
                          "video" : 
                              {
                                "id" : 1127,
                                "_type" : "VMFile",
                                "src" : 7,
                                "trackNumber" : 1,
                                "attributes" : {
                                  "ident" : "Rec 02-07-19_001"
                                },
                                "effects" : [

                                ],
                                "start" : 11391,
                                "duration" : 2763,
                                "mediaStart" : 16306,
                                "mediaDuration" : 2763,
                                "scalar" : 1,
                                "animationTracks" : {

                                }
                              },
                          "audio" : 
                              {
                                "id" : 1128,
                                "_type" : "AMFile",
                                "src" : 7,
                                "trackNumber" : 2,
                                "attributes" : {
                                  "ident" : "",
                                  "sampleRate" : 44100,
                                  "bitDepth" : 16,
                                  "gain" : 1.0,
                                  "mixToMono" : false
                                },
                                  "channelNumber" : "0,1",
                                "effects" : [

                                ],
                                "start" : 11391,
                                "duration" : 2763,
                                "mediaStart" : 16306,
                                "mediaDuration" : 2763,
                                "scalar" : 1,
                                "animationTracks" : {

                                }
                              }
,
                          "start" : 11391,
                          "duration" : 2763,
                          "mediaStart" : 0,
                          "mediaDuration" : 26386,
                          "scalar" : 1,
                          "metadata" : {
                            "WinSubProjectDisplayName" : "",
                            "clipSpeedAttribute" : false,
                            "default-scale0" : 0.25,
                            "default-scale1" : 0.25,
                            "default-translation0" : 880.0,
                            "default-translation1" : -480.0
                          }
                        },
                        {
                          "id" : 1129,
                          "_type" : "UnifiedMedia",
                          "video" : 
                              {
                                "id" : 1130,
                                "_type" : "VMFile",
                                "src" : 7,
                                "trackNumber" : 1,
                                "attributes" : {
                                  "ident" : "Rec 02-07-19_001"
                                },
                                "effects" : [

                                ],
                                "start" : 14154,
                                "duration" : 153,
                                "mediaStart" : 20839,
                                "mediaDuration" : 153,
                                "scalar" : 1,
                                "animationTracks" : {

                                }
                              },
                          "audio" : 
                              {
                                "id" : 1131,
                                "_type" : "AMFile",
                                "src" : 7,
                                "trackNumber" : 2,
                                "attributes" : {
                                  "ident" : "",
                                  "sampleRate" : 44100,
                                  "bitDepth" : 16,
                                  "gain" : 1.0,
                                  "mixToMono" : false
                                },
                                  "channelNumber" : "0,1",
                                "effects" : [

                                ],
                                "start" : 14154,
                                "duration" : 153,
                                "mediaStart" : 20839,
                                "mediaDuration" : 153,
                                "scalar" : 1,
                                "animationTracks" : {

                                }
                              }
,
                          "start" : 14154,
                          "duration" : 153,
                          "mediaStart" : 0,
                          "mediaDuration" : 26386,
                          "scalar" : 1,
                          "metadata" : {
                            "WinSubProjectDisplayName" : "",
                            "clipSpeedAttribute" : false,
                            "default-scale0" : 0.25,
                            "default-scale1" : 0.25,
                            "default-translation0" : 880.0,
                            "default-translation1" : -480.0
                          }
                        },
                        {
                          "id" : 1132,
                          "_type" : "UnifiedMedia",
                          "video" : 
                              {
                                "id" : 1133,
                                "_type" : "VMFile",
                                "src" : 7,
                                "trackNumber" : 1,
                                "attributes" : {
                                  "ident" : "Rec 02-07-19_001"
                                },
                                "effects" : [

                                ],
                                "start" : 14307,
                                "duration" : 5285,
                                "mediaStart" : 21101,
                                "mediaDuration" : 5285,
                                "scalar" : 1,
                                "animationTracks" : {

                                }
                              },
                          "audio" : 
                              {
                                "id" : 1134,
                                "_type" : "AMFile",
                                "src" : 7,
                                "trackNumber" : 2,
                                "attributes" : {
                                  "ident" : "",
                                  "sampleRate" : 44100,
                                  "bitDepth" : 16,
                                  "gain" : 1.0,
                                  "mixToMono" : false
                                },
                                  "channelNumber" : "0,1",
                                "effects" : [

                                ],
                                "start" : 14307,
                                "duration" : 5285,
                                "mediaStart" : 21101,
                                "mediaDuration" : 5285,
                                "scalar" : 1,
                                "animationTracks" : {

                                }
                              }
,
                          "start" : 14307,
                          "duration" : 5285,
                          "mediaStart" : 0,
                          "mediaDuration" : 26386,
                          "scalar" : 1,
                          "metadata" : {
                            "WinSubProjectDisplayName" : "",
                            "clipSpeedAttribute" : false,
                            "default-scale0" : 0.25,
                            "default-scale1" : 0.25,
                            "default-translation0" : 880.0,
                            "default-translation1" : -480.0
                          }
                        }
                    ],
                    "effects" : [

                    ],
                    "start" : 24819,
                    "duration" : 864,
                    "mediaStart" : 13993,
                    "mediaDuration" : 864,
                    "scalar" : 1,
                    "metadata" : {
                      "WinSubProjectDisplayName" : "",
                      "clipSpeedAttribute" : false
                    },
                    "animationTracks" : {

                    }
                  },
                  {
                    "id" : 1135,
                    "_type" : "StitchedMedia",
                    "minMediaStart" : 0,
                    "attributes" : {
                      "ident" : "Rec 02-07-19_001",
                      "gain" : 1.0,
                      "mixToMono" : false
                    },
                    "parameters" : {
                      "translation0" : 703.999999999945,
                      "translation1" : -347.999999999936,
                      "scale0" : 0.8,
                      "scale1" : 0.8,
                      "volume" : 1.0,
                      "cursorOpacity" : 1.0,
                      "cursorScale" : 1.0
                    },
                    "medias" : [
                        {
                          "id" : 1136,
                          "_type" : "UnifiedMedia",
                          "video" : 
                              {
                                "id" : 1137,
                                "_type" : "VMFile",
                                "src" : 7,
                                "trackNumber" : 1,
                                "attributes" : {
                                  "ident" : "Rec 02-07-19_001"
                                },
                                "effects" : [

                                ],
                                "start" : 0,
                                "duration" : 496,
                                "mediaStart" : 0,
                                "mediaDuration" : 496,
                                "scalar" : 1,
                                "animationTracks" : {

                                }
                              },
                          "audio" : 
                              {
                                "id" : 1138,
                                "_type" : "AMFile",
                                "src" : 7,
                                "trackNumber" : 2,
                                "attributes" : {
                                  "ident" : "",
                                  "sampleRate" : 44100,
                                  "bitDepth" : 16,
                                  "gain" : 1.0,
                                  "mixToMono" : false
                                },
                                  "channelNumber" : "0,1",
                                "effects" : [

                                ],
                                "start" : 0,
                                "duration" : 496,
                                "mediaStart" : 0,
                                "mediaDuration" : 496,
                                "scalar" : 1,
                                "animationTracks" : {

                                }
                              }
,
                          "start" : 0,
                          "duration" : 496,
                          "mediaStart" : 0,
                          "mediaDuration" : 26386,
                          "scalar" : 1,
                          "metadata" : {
                            "WinSubProjectDisplayName" : "",
                            "clipSpeedAttribute" : false,
                            "default-scale0" : 0.25,
                            "default-scale1" : 0.25,
                            "default-translation0" : 880.0,
                            "default-translation1" : -480.0
                          }
                        },
                        {
                          "id" : 1139,
                          "_type" : "UnifiedMedia",
                          "video" : 
                              {
                                "id" : 1140,
                                "_type" : "VMFile",
                                "src" : 7,
                                "trackNumber" : 1,
                                "attributes" : {
                                  "ident" : "Rec 02-07-19_001"
                                },
                                "effects" : [

                                ],
                                "start" : 496,
                                "duration" : 190,
                                "mediaStart" : 715,
                                "mediaDuration" : 190,
                                "scalar" : 1,
                                "animationTracks" : {

                                }
                              },
                          "audio" : 
                              {
                                "id" : 1141,
                                "_type" : "AMFile",
                                "src" : 7,
                                "trackNumber" : 2,
                                "attributes" : {
                                  "ident" : "",
                                  "sampleRate" : 44100,
                                  "bitDepth" : 16,
                                  "gain" : 1.0,
                                  "mixToMono" : false
                                },
                                  "channelNumber" : "0,1",
                                "effects" : [

                                ],
                                "start" : 496,
                                "duration" : 190,
                                "mediaStart" : 715,
                                "mediaDuration" : 190,
                                "scalar" : 1,
                                "animationTracks" : {

                                }
                              }
,
                          "start" : 496,
                          "duration" : 190,
                          "mediaStart" : 0,
                          "mediaDuration" : 26386,
                          "scalar" : 1,
                          "metadata" : {
                            "WinSubProjectDisplayName" : "",
                            "clipSpeedAttribute" : false,
                            "default-scale0" : 0.25,
                            "default-scale1" : 0.25,
                            "default-translation0" : 880.0,
                            "default-translation1" : -480.0
                          }
                        },
                        {
                          "id" : 1142,
                          "_type" : "UnifiedMedia",
                          "video" : 
                              {
                                "id" : 1143,
                                "_type" : "VMFile",
                                "src" : 7,
                                "trackNumber" : 1,
                                "attributes" : {
                                  "ident" : "Rec 02-07-19_001"
                                },
                                "effects" : [

                                ],
                                "start" : 686,
                                "duration" : 239,
                                "mediaStart" : 1444,
                                "mediaDuration" : 239,
                                "scalar" : 1,
                                "animationTracks" : {

                                }
                              },
                          "audio" : 
                              {
                                "id" : 1144,
                                "_type" : "AMFile",
                                "src" : 7,
                                "trackNumber" : 2,
                                "attributes" : {
                                  "ident" : "",
                                  "sampleRate" : 44100,
                                  "bitDepth" : 16,
                                  "gain" : 1.0,
                                  "mixToMono" : false
                                },
                                  "channelNumber" : "0,1",
                                "effects" : [

                                ],
                                "start" : 686,
                                "duration" : 239,
                                "mediaStart" : 1444,
                                "mediaDuration" : 239,
                                "scalar" : 1,
                                "animationTracks" : {

                                }
                              }
,
                          "start" : 686,
                          "duration" : 239,
                          "mediaStart" : 0,
                          "mediaDuration" : 26386,
                          "scalar" : 1,
                          "metadata" : {
                            "WinSubProjectDisplayName" : "",
                            "clipSpeedAttribute" : false,
                            "default-scale0" : 0.25,
                            "default-scale1" : 0.25,
                            "default-translation0" : 880.0,
                            "default-translation1" : -480.0
                          }
                        },
                        {
                          "id" : 1145,
                          "_type" : "UnifiedMedia",
                          "video" : 
                              {
                                "id" : 1146,
                                "_type" : "VMFile",
                                "src" : 7,
                                "trackNumber" : 1,
                                "attributes" : {
                                  "ident" : "Rec 02-07-19_001"
                                },
                                "effects" : [

                                ],
                                "start" : 925,
                                "duration" : 128,
                                "mediaStart" : 1750,
                                "mediaDuration" : 128,
                                "scalar" : 1,
                                "animationTracks" : {

                                }
                              },
                          "audio" : 
                              {
                                "id" : 1147,
                                "_type" : "AMFile",
                                "src" : 7,
                                "trackNumber" : 2,
                                "attributes" : {
                                  "ident" : "",
                                  "sampleRate" : 44100,
                                  "bitDepth" : 16,
                                  "gain" : 1.0,
                                  "mixToMono" : false
                                },
                                  "channelNumber" : "0,1",
                                "effects" : [

                                ],
                                "start" : 925,
                                "duration" : 128,
                                "mediaStart" : 1750,
                                "mediaDuration" : 128,
                                "scalar" : 1,
                                "animationTracks" : {

                                }
                              }
,
                          "start" : 925,
                          "duration" : 128,
                          "mediaStart" : 0,
                          "mediaDuration" : 26386,
                          "scalar" : 1,
                          "metadata" : {
                            "WinSubProjectDisplayName" : "",
                            "clipSpeedAttribute" : false,
                            "default-scale0" : 0.25,
                            "default-scale1" : 0.25,
                            "default-translation0" : 880.0,
                            "default-translation1" : -480.0
                          }
                        },
                        {
                          "id" : 1148,
                          "_type" : "UnifiedMedia",
                          "video" : 
                              {
                                "id" : 1149,
                                "_type" : "VMFile",
                                "src" : 7,
                                "trackNumber" : 1,
                                "attributes" : {
                                  "ident" : "Rec 02-07-19_001"
                                },
                                "effects" : [

                                ],
                                "start" : 1053,
                                "duration" : 298,
                                "mediaStart" : 1939,
                                "mediaDuration" : 298,
                                "scalar" : 1,
                                "animationTracks" : {

                                }
                              },
                          "audio" : 
                              {
                                "id" : 1150,
                                "_type" : "AMFile",
                                "src" : 7,
                                "trackNumber" : 2,
                                "attributes" : {
                                  "ident" : "",
                                  "sampleRate" : 44100,
                                  "bitDepth" : 16,
                                  "gain" : 1.0,
                                  "mixToMono" : false
                                },
                                  "channelNumber" : "0,1",
                                "effects" : [

                                ],
                                "start" : 1053,
                                "duration" : 298,
                                "mediaStart" : 1939,
                                "mediaDuration" : 298,
                                "scalar" : 1,
                                "animationTracks" : {

                                }
                              }
,
                          "start" : 1053,
                          "duration" : 298,
                          "mediaStart" : 0,
                          "mediaDuration" : 26386,
                          "scalar" : 1,
                          "metadata" : {
                            "WinSubProjectDisplayName" : "",
                            "clipSpeedAttribute" : false,
                            "default-scale0" : 0.25,
                            "default-scale1" : 0.25,
                            "default-translation0" : 880.0,
                            "default-translation1" : -480.0
                          }
                        },
                        {
                          "id" : 1151,
                          "_type" : "UnifiedMedia",
                          "video" : 
                              {
                                "id" : 1152,
                                "_type" : "VMFile",
                                "src" : 7,
                                "trackNumber" : 1,
                                "attributes" : {
                                  "ident" : "Rec 02-07-19_001"
                                },
                                "effects" : [

                                ],
                                "start" : 1351,
                                "duration" : 524,
                                "mediaStart" : 2386,
                                "mediaDuration" : 524,
                                "scalar" : 1,
                                "animationTracks" : {

                                }
                              },
                          "audio" : 
                              {
                                "id" : 1153,
                                "_type" : "AMFile",
                                "src" : 7,
                                "trackNumber" : 2,
                                "attributes" : {
                                  "ident" : "",
                                  "sampleRate" : 44100,
                                  "bitDepth" : 16,
                                  "gain" : 1.0,
                                  "mixToMono" : false
                                },
                                  "channelNumber" : "0,1",
                                "effects" : [

                                ],
                                "start" : 1351,
                                "duration" : 524,
                                "mediaStart" : 2386,
                                "mediaDuration" : 524,
                                "scalar" : 1,
                                "animationTracks" : {

                                }
                              }
,
                          "start" : 1351,
                          "duration" : 524,
                          "mediaStart" : 0,
                          "mediaDuration" : 26386,
                          "scalar" : 1,
                          "metadata" : {
                            "WinSubProjectDisplayName" : "",
                            "clipSpeedAttribute" : false,
                            "default-scale0" : 0.25,
                            "default-scale1" : 0.25,
                            "default-translation0" : 880.0,
                            "default-translation1" : -480.0
                          }
                        },
                        {
                          "id" : 1154,
                          "_type" : "UnifiedMedia",
                          "video" : 
                              {
                                "id" : 1155,
                                "_type" : "VMFile",
                                "src" : 7,
                                "trackNumber" : 1,
                                "attributes" : {
                                  "ident" : "Rec 02-07-19_001"
                                },
                                "effects" : [

                                ],
                                "start" : 1875,
                                "duration" : 143,
                                "mediaStart" : 3086,
                                "mediaDuration" : 143,
                                "scalar" : 1,
                                "animationTracks" : {

                                }
                              },
                          "audio" : 
                              {
                                "id" : 1156,
                                "_type" : "AMFile",
                                "src" : 7,
                                "trackNumber" : 2,
                                "attributes" : {
                                  "ident" : "",
                                  "sampleRate" : 44100,
                                  "bitDepth" : 16,
                                  "gain" : 1.0,
                                  "mixToMono" : false
                                },
                                  "channelNumber" : "0,1",
                                "effects" : [

                                ],
                                "start" : 1875,
                                "duration" : 143,
                                "mediaStart" : 3086,
                                "mediaDuration" : 143,
                                "scalar" : 1,
                                "animationTracks" : {

                                }
                              }
,
                          "start" : 1875,
                          "duration" : 143,
                          "mediaStart" : 0,
                          "mediaDuration" : 26386,
                          "scalar" : 1,
                          "metadata" : {
                            "WinSubProjectDisplayName" : "",
                            "clipSpeedAttribute" : false,
                            "default-scale0" : 0.25,
                            "default-scale1" : 0.25,
                            "default-translation0" : 880.0,
                            "default-translation1" : -480.0
                          }
                        },
                        {
                          "id" : 1157,
                          "_type" : "UnifiedMedia",
                          "video" : 
                              {
                                "id" : 1158,
                                "_type" : "VMFile",
                                "src" : 7,
                                "trackNumber" : 1,
                                "attributes" : {
                                  "ident" : "Rec 02-07-19_001"
                                },
                                "effects" : [

                                ],
                                "start" : 2018,
                                "duration" : 1362,
                                "mediaStart" : 3692,
                                "mediaDuration" : 1362,
                                "scalar" : 1,
                                "animationTracks" : {

                                }
                              },
                          "audio" : 
                              {
                                "id" : 1159,
                                "_type" : "AMFile",
                                "src" : 7,
                                "trackNumber" : 2,
                                "attributes" : {
                                  "ident" : "",
                                  "sampleRate" : 44100,
                                  "bitDepth" : 16,
                                  "gain" : 1.0,
                                  "mixToMono" : false
                                },
                                  "channelNumber" : "0,1",
                                "effects" : [

                                ],
                                "start" : 2018,
                                "duration" : 1362,
                                "mediaStart" : 3692,
                                "mediaDuration" : 1362,
                                "scalar" : 1,
                                "animationTracks" : {

                                }
                              }
,
                          "start" : 2018,
                          "duration" : 1362,
                          "mediaStart" : 0,
                          "mediaDuration" : 26386,
                          "scalar" : 1,
                          "metadata" : {
                            "WinSubProjectDisplayName" : "",
                            "clipSpeedAttribute" : false,
                            "default-scale0" : 0.25,
                            "default-scale1" : 0.25,
                            "default-translation0" : 880.0,
                            "default-translation1" : -480.0
                          }
                        },
                        {
                          "id" : 1160,
                          "_type" : "UnifiedMedia",
                          "video" : 
                              {
                                "id" : 1161,
                                "_type" : "VMFile",
                                "src" : 7,
                                "trackNumber" : 1,
                                "attributes" : {
                                  "ident" : "Rec 02-07-19_001"
                                },
                                "effects" : [

                                ],
                                "start" : 3380,
                                "duration" : 218,
                                "mediaStart" : 5246,
                                "mediaDuration" : 218,
                                "scalar" : 1,
                                "animationTracks" : {

                                }
                              },
                          "audio" : 
                              {
                                "id" : 1162,
                                "_type" : "AMFile",
                                "src" : 7,
                                "trackNumber" : 2,
                                "attributes" : {
                                  "ident" : "",
                                  "sampleRate" : 44100,
                                  "bitDepth" : 16,
                                  "gain" : 1.0,
                                  "mixToMono" : false
                                },
                                  "channelNumber" : "0,1",
                                "effects" : [

                                ],
                                "start" : 3380,
                                "duration" : 218,
                                "mediaStart" : 5246,
                                "mediaDuration" : 218,
                                "scalar" : 1,
                                "animationTracks" : {

                                }
                              }
,
                          "start" : 3380,
                          "duration" : 218,
                          "mediaStart" : 0,
                          "mediaDuration" : 26386,
                          "scalar" : 1,
                          "metadata" : {
                            "WinSubProjectDisplayName" : "",
                            "clipSpeedAttribute" : false,
                            "default-scale0" : 0.25,
                            "default-scale1" : 0.25,
                            "default-translation0" : 880.0,
                            "default-translation1" : -480.0
                          }
                        },
                        {
                          "id" : 1163,
                          "_type" : "UnifiedMedia",
                          "video" : 
                              {
                                "id" : 1164,
                                "_type" : "VMFile",
                                "src" : 7,
                                "trackNumber" : 1,
                                "attributes" : {
                                  "ident" : "Rec 02-07-19_001"
                                },
                                "effects" : [

                                ],
                                "start" : 3598,
                                "duration" : 473,
                                "mediaStart" : 6154,
                                "mediaDuration" : 473,
                                "scalar" : 1,
                                "animationTracks" : {

                                }
                              },
                          "audio" : 
                              {
                                "id" : 1165,
                                "_type" : "AMFile",
                                "src" : 7,
                                "trackNumber" : 2,
                                "attributes" : {
                                  "ident" : "",
                                  "sampleRate" : 44100,
                                  "bitDepth" : 16,
                                  "gain" : 1.0,
                                  "mixToMono" : false
                                },
                                  "channelNumber" : "0,1",
                                "effects" : [

                                ],
                                "start" : 3598,
                                "duration" : 473,
                                "mediaStart" : 6154,
                                "mediaDuration" : 473,
                                "scalar" : 1,
                                "animationTracks" : {

                                }
                              }
,
                          "start" : 3598,
                          "duration" : 473,
                          "mediaStart" : 0,
                          "mediaDuration" : 26386,
                          "scalar" : 1,
                          "metadata" : {
                            "WinSubProjectDisplayName" : "",
                            "clipSpeedAttribute" : false,
                            "default-scale0" : 0.25,
                            "default-scale1" : 0.25,
                            "default-translation0" : 880.0,
                            "default-translation1" : -480.0
                          }
                        },
                        {
                          "id" : 1166,
                          "_type" : "UnifiedMedia",
                          "video" : 
                              {
                                "id" : 1167,
                                "_type" : "VMFile",
                                "src" : 7,
                                "trackNumber" : 1,
                                "attributes" : {
                                  "ident" : "Rec 02-07-19_001"
                                },
                                "effects" : [

                                ],
                                "start" : 4071,
                                "duration" : 164,
                                "mediaStart" : 6726,
                                "mediaDuration" : 164,
                                "scalar" : 1,
                                "animationTracks" : {

                                }
                              },
                          "audio" : 
                              {
                                "id" : 1168,
                                "_type" : "AMFile",
                                "src" : 7,
                                "trackNumber" : 2,
                                "attributes" : {
                                  "ident" : "",
                                  "sampleRate" : 44100,
                                  "bitDepth" : 16,
                                  "gain" : 1.0,
                                  "mixToMono" : false
                                },
                                  "channelNumber" : "0,1",
                                "effects" : [

                                ],
                                "start" : 4071,
                                "duration" : 164,
                                "mediaStart" : 6726,
                                "mediaDuration" : 164,
                                "scalar" : 1,
                                "animationTracks" : {

                                }
                              }
,
                          "start" : 4071,
                          "duration" : 164,
                          "mediaStart" : 0,
                          "mediaDuration" : 26386,
                          "scalar" : 1,
                          "metadata" : {
                            "WinSubProjectDisplayName" : "",
                            "clipSpeedAttribute" : false,
                            "default-scale0" : 0.25,
                            "default-scale1" : 0.25,
                            "default-translation0" : 880.0,
                            "default-translation1" : -480.0
                          }
                        },
                        {
                          "id" : 1169,
                          "_type" : "UnifiedMedia",
                          "video" : 
                              {
                                "id" : 1170,
                                "_type" : "VMFile",
                                "src" : 7,
                                "trackNumber" : 1,
                                "attributes" : {
                                  "ident" : "Rec 02-07-19_001"
                                },
                                "effects" : [

                                ],
                                "start" : 4235,
                                "duration" : 1279,
                                "mediaStart" : 7107,
                                "mediaDuration" : 1279,
                                "scalar" : 1,
                                "animationTracks" : {

                                }
                              },
                          "audio" : 
                              {
                                "id" : 1171,
                                "_type" : "AMFile",
                                "src" : 7,
                                "trackNumber" : 2,
                                "attributes" : {
                                  "ident" : "",
                                  "sampleRate" : 44100,
                                  "bitDepth" : 16,
                                  "gain" : 1.0,
                                  "mixToMono" : false
                                },
                                  "channelNumber" : "0,1",
                                "effects" : [

                                ],
                                "start" : 4235,
                                "duration" : 1279,
                                "mediaStart" : 7107,
                                "mediaDuration" : 1279,
                                "scalar" : 1,
                                "animationTracks" : {

                                }
                              }
,
                          "start" : 4235,
                          "duration" : 1279,
                          "mediaStart" : 0,
                          "mediaDuration" : 26386,
                          "scalar" : 1,
                          "metadata" : {
                            "WinSubProjectDisplayName" : "",
                            "clipSpeedAttribute" : false,
                            "default-scale0" : 0.25,
                            "default-scale1" : 0.25,
                            "default-translation0" : 880.0,
                            "default-translation1" : -480.0
                          }
                        },
                        {
                          "id" : 1172,
                          "_type" : "UnifiedMedia",
                          "video" : 
                              {
                                "id" : 1173,
                                "_type" : "VMFile",
                                "src" : 7,
                                "trackNumber" : 1,
                                "attributes" : {
                                  "ident" : "Rec 02-07-19_001"
                                },
                                "effects" : [

                                ],
                                "start" : 5514,
                                "duration" : 1542,
                                "mediaStart" : 8518,
                                "mediaDuration" : 1542,
                                "scalar" : 1,
                                "animationTracks" : {

                                }
                              },
                          "audio" : 
                              {
                                "id" : 1174,
                                "_type" : "AMFile",
                                "src" : 7,
                                "trackNumber" : 2,
                                "attributes" : {
                                  "ident" : "",
                                  "sampleRate" : 44100,
                                  "bitDepth" : 16,
                                  "gain" : 1.0,
                                  "mixToMono" : false
                                },
                                  "channelNumber" : "0,1",
                                "effects" : [

                                ],
                                "start" : 5514,
                                "duration" : 1542,
                                "mediaStart" : 8518,
                                "mediaDuration" : 1542,
                                "scalar" : 1,
                                "animationTracks" : {

                                }
                              }
,
                          "start" : 5514,
                          "duration" : 1542,
                          "mediaStart" : 0,
                          "mediaDuration" : 26386,
                          "scalar" : 1,
                          "metadata" : {
                            "WinSubProjectDisplayName" : "",
                            "clipSpeedAttribute" : false,
                            "default-scale0" : 0.25,
                            "default-scale1" : 0.25,
                            "default-translation0" : 880.0,
                            "default-translation1" : -480.0
                          }
                        },
                        {
                          "id" : 1175,
                          "_type" : "UnifiedMedia",
                          "video" : 
                              {
                                "id" : 1176,
                                "_type" : "VMFile",
                                "src" : 7,
                                "trackNumber" : 1,
                                "attributes" : {
                                  "ident" : "Rec 02-07-19_001"
                                },
                                "effects" : [

                                ],
                                "start" : 7056,
                                "duration" : 846,
                                "mediaStart" : 10392,
                                "mediaDuration" : 846,
                                "scalar" : 1,
                                "animationTracks" : {

                                }
                              },
                          "audio" : 
                              {
                                "id" : 1177,
                                "_type" : "AMFile",
                                "src" : 7,
                                "trackNumber" : 2,
                                "attributes" : {
                                  "ident" : "",
                                  "sampleRate" : 44100,
                                  "bitDepth" : 16,
                                  "gain" : 1.0,
                                  "mixToMono" : false
                                },
                                  "channelNumber" : "0,1",
                                "effects" : [

                                ],
                                "start" : 7056,
                                "duration" : 846,
                                "mediaStart" : 10392,
                                "mediaDuration" : 846,
                                "scalar" : 1,
                                "animationTracks" : {

                                }
                              }
,
                          "start" : 7056,
                          "duration" : 846,
                          "mediaStart" : 0,
                          "mediaDuration" : 26386,
                          "scalar" : 1,
                          "metadata" : {
                            "WinSubProjectDisplayName" : "",
                            "clipSpeedAttribute" : false,
                            "default-scale0" : 0.25,
                            "default-scale1" : 0.25,
                            "default-translation0" : 880.0,
                            "default-translation1" : -480.0
                          }
                        },
                        {
                          "id" : 1178,
                          "_type" : "UnifiedMedia",
                          "video" : 
                              {
                                "id" : 1179,
                                "_type" : "VMFile",
                                "src" : 7,
                                "trackNumber" : 1,
                                "attributes" : {
                                  "ident" : "Rec 02-07-19_001"
                                },
                                "effects" : [

                                ],
                                "start" : 7902,
                                "duration" : 451,
                                "mediaStart" : 11363,
                                "mediaDuration" : 451,
                                "scalar" : 1,
                                "animationTracks" : {

                                }
                              },
                          "audio" : 
                              {
                                "id" : 1180,
                                "_type" : "AMFile",
                                "src" : 7,
                                "trackNumber" : 2,
                                "attributes" : {
                                  "ident" : "",
                                  "sampleRate" : 44100,
                                  "bitDepth" : 16,
                                  "gain" : 1.0,
                                  "mixToMono" : false
                                },
                                  "channelNumber" : "0,1",
                                "effects" : [

                                ],
                                "start" : 7902,
                                "duration" : 451,
                                "mediaStart" : 11363,
                                "mediaDuration" : 451,
                                "scalar" : 1,
                                "animationTracks" : {

                                }
                              }
,
                          "start" : 7902,
                          "duration" : 451,
                          "mediaStart" : 0,
                          "mediaDuration" : 26386,
                          "scalar" : 1,
                          "metadata" : {
                            "WinSubProjectDisplayName" : "",
                            "clipSpeedAttribute" : false,
                            "default-scale0" : 0.25,
                            "default-scale1" : 0.25,
                            "default-translation0" : 880.0,
                            "default-translation1" : -480.0
                          }
                        },
                        {
                          "id" : 1181,
                          "_type" : "UnifiedMedia",
                          "video" : 
                              {
                                "id" : 1182,
                                "_type" : "VMFile",
                                "src" : 7,
                                "trackNumber" : 1,
                                "attributes" : {
                                  "ident" : "Rec 02-07-19_001"
                                },
                                "effects" : [

                                ],
                                "start" : 8353,
                                "duration" : 423,
                                "mediaStart" : 12079,
                                "mediaDuration" : 423,
                                "scalar" : 1,
                                "animationTracks" : {

                                }
                              },
                          "audio" : 
                              {
                                "id" : 1183,
                                "_type" : "AMFile",
                                "src" : 7,
                                "trackNumber" : 2,
                                "attributes" : {
                                  "ident" : "",
                                  "sampleRate" : 44100,
                                  "bitDepth" : 16,
                                  "gain" : 1.0,
                                  "mixToMono" : false
                                },
                                  "channelNumber" : "0,1",
                                "effects" : [

                                ],
                                "start" : 8353,
                                "duration" : 423,
                                "mediaStart" : 12079,
                                "mediaDuration" : 423,
                                "scalar" : 1,
                                "animationTracks" : {

                                }
                              }
,
                          "start" : 8353,
                          "duration" : 423,
                          "mediaStart" : 0,
                          "mediaDuration" : 26386,
                          "scalar" : 1,
                          "metadata" : {
                            "WinSubProjectDisplayName" : "",
                            "clipSpeedAttribute" : false,
                            "default-scale0" : 0.25,
                            "default-scale1" : 0.25,
                            "default-translation0" : 880.0,
                            "default-translation1" : -480.0
                          }
                        },
                        {
                          "id" : 1184,
                          "_type" : "UnifiedMedia",
                          "video" : 
                              {
                                "id" : 1185,
                                "_type" : "VMFile",
                                "src" : 7,
                                "trackNumber" : 1,
                                "attributes" : {
                                  "ident" : "Rec 02-07-19_001"
                                },
                                "effects" : [

                                ],
                                "start" : 8776,
                                "duration" : 2615,
                                "mediaStart" : 12807,
                                "mediaDuration" : 2615,
                                "scalar" : 1,
                                "animationTracks" : {

                                }
                              },
                          "audio" : 
                              {
                                "id" : 1186,
                                "_type" : "AMFile",
                                "src" : 7,
                                "trackNumber" : 2,
                                "attributes" : {
                                  "ident" : "",
                                  "sampleRate" : 44100,
                                  "bitDepth" : 16,
                                  "gain" : 1.0,
                                  "mixToMono" : false
                                },
                                  "channelNumber" : "0,1",
                                "effects" : [

                                ],
                                "start" : 8776,
                                "duration" : 2615,
                                "mediaStart" : 12807,
                                "mediaDuration" : 2615,
                                "scalar" : 1,
                                "animationTracks" : {

                                }
                              }
,
                          "start" : 8776,
                          "duration" : 2615,
                          "mediaStart" : 0,
                          "mediaDuration" : 26386,
                          "scalar" : 1,
                          "metadata" : {
                            "WinSubProjectDisplayName" : "",
                            "clipSpeedAttribute" : false,
                            "default-scale0" : 0.25,
                            "default-scale1" : 0.25,
                            "default-translation0" : 880.0,
                            "default-translation1" : -480.0
                          }
                        },
                        {
                          "id" : 1187,
                          "_type" : "UnifiedMedia",
                          "video" : 
                              {
                                "id" : 1188,
                                "_type" : "VMFile",
                                "src" : 7,
                                "trackNumber" : 1,
                                "attributes" : {
                                  "ident" : "Rec 02-07-19_001"
                                },
                                "effects" : [

                                ],
                                "start" : 11391,
                                "duration" : 2763,
                                "mediaStart" : 16306,
                                "mediaDuration" : 2763,
                                "scalar" : 1,
                                "animationTracks" : {

                                }
                              },
                          "audio" : 
                              {
                                "id" : 1189,
                                "_type" : "AMFile",
                                "src" : 7,
                                "trackNumber" : 2,
                                "attributes" : {
                                  "ident" : "",
                                  "sampleRate" : 44100,
                                  "bitDepth" : 16,
                                  "gain" : 1.0,
                                  "mixToMono" : false
                                },
                                  "channelNumber" : "0,1",
                                "effects" : [

                                ],
                                "start" : 11391,
                                "duration" : 2763,
                                "mediaStart" : 16306,
                                "mediaDuration" : 2763,
                                "scalar" : 1,
                                "animationTracks" : {

                                }
                              }
,
                          "start" : 11391,
                          "duration" : 2763,
                          "mediaStart" : 0,
                          "mediaDuration" : 26386,
                          "scalar" : 1,
                          "metadata" : {
                            "WinSubProjectDisplayName" : "",
                            "clipSpeedAttribute" : false,
                            "default-scale0" : 0.25,
                            "default-scale1" : 0.25,
                            "default-translation0" : 880.0,
                            "default-translation1" : -480.0
                          }
                        },
                        {
                          "id" : 1190,
                          "_type" : "UnifiedMedia",
                          "video" : 
                              {
                                "id" : 1191,
                                "_type" : "VMFile",
                                "src" : 7,
                                "trackNumber" : 1,
                                "attributes" : {
                                  "ident" : "Rec 02-07-19_001"
                                },
                                "effects" : [

                                ],
                                "start" : 14154,
                                "duration" : 153,
                                "mediaStart" : 20839,
                                "mediaDuration" : 153,
                                "scalar" : 1,
                                "animationTracks" : {

                                }
                              },
                          "audio" : 
                              {
                                "id" : 1192,
                                "_type" : "AMFile",
                                "src" : 7,
                                "trackNumber" : 2,
                                "attributes" : {
                                  "ident" : "",
                                  "sampleRate" : 44100,
                                  "bitDepth" : 16,
                                  "gain" : 1.0,
                                  "mixToMono" : false
                                },
                                  "channelNumber" : "0,1",
                                "effects" : [

                                ],
                                "start" : 14154,
                                "duration" : 153,
                                "mediaStart" : 20839,
                                "mediaDuration" : 153,
                                "scalar" : 1,
                                "animationTracks" : {

                                }
                              }
,
                          "start" : 14154,
                          "duration" : 153,
                          "mediaStart" : 0,
                          "mediaDuration" : 26386,
                          "scalar" : 1,
                          "metadata" : {
                            "WinSubProjectDisplayName" : "",
                            "clipSpeedAttribute" : false,
                            "default-scale0" : 0.25,
                            "default-scale1" : 0.25,
                            "default-translation0" : 880.0,
                            "default-translation1" : -480.0
                          }
                        },
                        {
                          "id" : 1193,
                          "_type" : "UnifiedMedia",
                          "video" : 
                              {
                                "id" : 1194,
                                "_type" : "VMFile",
                                "src" : 7,
                                "trackNumber" : 1,
                                "attributes" : {
                                  "ident" : "Rec 02-07-19_001"
                                },
                                "effects" : [

                                ],
                                "start" : 14307,
                                "duration" : 5285,
                                "mediaStart" : 21101,
                                "mediaDuration" : 5285,
                                "scalar" : 1,
                                "animationTracks" : {

                                }
                              },
                          "audio" : 
                              {
                                "id" : 1195,
                                "_type" : "AMFile",
                                "src" : 7,
                                "trackNumber" : 2,
                                "attributes" : {
                                  "ident" : "",
                                  "sampleRate" : 44100,
                                  "bitDepth" : 16,
                                  "gain" : 1.0,
                                  "mixToMono" : false
                                },
                                  "channelNumber" : "0,1",
                                "effects" : [

                                ],
                                "start" : 14307,
                                "duration" : 5285,
                                "mediaStart" : 21101,
                                "mediaDuration" : 5285,
                                "scalar" : 1,
                                "animationTracks" : {

                                }
                              }
,
                          "start" : 14307,
                          "duration" : 5285,
                          "mediaStart" : 0,
                          "mediaDuration" : 26386,
                          "scalar" : 1,
                          "metadata" : {
                            "WinSubProjectDisplayName" : "",
                            "clipSpeedAttribute" : false,
                            "default-scale0" : 0.25,
                            "default-scale1" : 0.25,
                            "default-translation0" : 880.0,
                            "default-translation1" : -480.0
                          }
                        }
                    ],
                    "effects" : [

                    ],
                    "start" : 25683,
                    "duration" : 231,
                    "mediaStart" : 14857,
                    "mediaDuration" : 925,
                    "scalar" : "231/925",
                    "metadata" : {
                      "WinSubProjectDisplayName" : "",
                      "clipSpeedAttribute" : true
                    },
                    "animationTracks" : {

                    }
                  },
                  {
                    "id" : 1196,
                    "_type" : "UnifiedMedia",
                    "video" : 
                        {
                          "id" : 1197,
                          "_type" : "VMFile",
                          "src" : 7,
                          "trackNumber" : 1,
                          "attributes" : {
                            "ident" : "Rec 02-07-19_001"
                          },
                          "parameters" : {
                            "translation0" : {
                              "type" : "double",
                              "defaultValue" : 703.999999999945,
                              "interp" : "eioe"
                            },
                            "translation1" : {
                              "type" : "double",
                              "defaultValue" : -347.999999999936,
                              "interp" : "eioe"
                            },
                            "scale0" : {
                              "type" : "double",
                              "defaultValue" : 0.8,
                              "interp" : "eioe"
                            },
                            "scale1" : {
                              "type" : "double",
                              "defaultValue" : 0.8,
                              "interp" : "eioe"
                            }
                          },
                          "effects" : [

                          ],
                          "start" : 25914,
                          "duration" : 788,
                          "mediaStart" : 22781,
                          "mediaDuration" : 788,
                          "scalar" : 1,
                          "animationTracks" : {

                          }
                        },
                    "audio" : 
                        {
                          "id" : 1198,
                          "_type" : "AMFile",
                          "src" : 7,
                          "trackNumber" : 2,
                          "attributes" : {
                            "ident" : "",
                            "sampleRate" : 44100,
                            "bitDepth" : 16,
                            "gain" : 1.0,
                            "mixToMono" : false
                          },
                            "channelNumber" : "0,1",
                          "effects" : [

                          ],
                          "start" : 25914,
                          "duration" : 788,
                          "mediaStart" : 22781,
                          "mediaDuration" : 788,
                          "scalar" : 1,
                          "animationTracks" : {

                          }
                        }
,
                    "start" : 25914,
                    "duration" : 788,
                    "mediaStart" : 0,
                    "mediaDuration" : 26386,
                    "scalar" : 1,
                    "metadata" : {
                      "WinSubProjectDisplayName" : "",
                      "clipSpeedAttribute" : false,
                      "default-scale0" : 0.25,
                      "default-scale1" : 0.25,
                      "default-translation0" : 880.0,
                      "default-translation1" : -480.0
                    }
                  },
                  {
                    "id" : 1199,
                    "_type" : "UnifiedMedia",
                    "video" : 
                        {
                          "id" : 1200,
                          "_type" : "VMFile",
                          "src" : 7,
                          "trackNumber" : 1,
                          "attributes" : {
                            "ident" : "Rec 02-07-19_001"
                          },
                          "parameters" : {
                            "translation0" : {
                              "type" : "double",
                              "defaultValue" : 703.999999999945,
                              "interp" : "eioe"
                            },
                            "translation1" : {
                              "type" : "double",
                              "defaultValue" : -347.999999999936,
                              "interp" : "eioe"
                            },
                            "scale0" : {
                              "type" : "double",
                              "defaultValue" : 0.8,
                              "interp" : "eioe"
                            },
                            "scale1" : {
                              "type" : "double",
                              "defaultValue" : 0.8,
                              "interp" : "eioe"
                            }
                          },
                          "effects" : [

                          ],
                          "start" : 26702,
                          "duration" : 115,
                          "mediaStart" : 23569,
                          "mediaDuration" : 346,
                          "scalar" : "115/346",
                          "animationTracks" : {

                          }
                        },
                    "audio" : 
                        {
                          "id" : 1201,
                          "_type" : "AMFile",
                          "src" : 7,
                          "trackNumber" : 2,
                          "attributes" : {
                            "ident" : "",
                            "sampleRate" : 44100,
                            "bitDepth" : 16,
                            "gain" : 1.0,
                            "mixToMono" : false
                          },
                            "channelNumber" : "0,1",
                          "effects" : [

                          ],
                          "start" : 26702,
                          "duration" : 115,
                          "mediaStart" : 23569,
                          "mediaDuration" : 346,
                          "scalar" : "115/346",
                          "animationTracks" : {

                          }
                        }
,
                    "start" : 26702,
                    "duration" : 115,
                    "mediaStart" : 0,
                    "mediaDuration" : 26386,
                    "scalar" : "115/346",
                    "metadata" : {
                      "WinSubProjectDisplayName" : "",
                      "clipSpeedAttribute" : true,
                      "default-scale0" : 0.25,
                      "default-scale1" : 0.25,
                      "default-translation0" : 880.0,
                      "default-translation1" : -480.0
                    }
                  },
                  {
                    "id" : 1202,
                    "_type" : "StitchedMedia",
                    "minMediaStart" : 0,
                    "attributes" : {
                      "ident" : "Rec 02-07-19_001",
                      "gain" : 1.0,
                      "mixToMono" : false
                    },
                    "parameters" : {
                      "translation0" : 703.999999999945,
                      "translation1" : -347.999999999936,
                      "scale0" : 0.8,
                      "scale1" : 0.8,
                      "volume" : 1.0,
                      "cursorOpacity" : 1.0,
                      "cursorScale" : 1.0
                    },
                    "medias" : [
                        {
                          "id" : 1203,
                          "_type" : "UnifiedMedia",
                          "video" : 
                              {
                                "id" : 1204,
                                "_type" : "VMFile",
                                "src" : 7,
                                "trackNumber" : 1,
                                "attributes" : {
                                  "ident" : "Rec 02-07-19_001"
                                },
                                "effects" : [

                                ],
                                "start" : 0,
                                "duration" : 25233,
                                "mediaStart" : 0,
                                "mediaDuration" : 25233,
                                "scalar" : 1,
                                "animationTracks" : {

                                }
                              },
                          "audio" : 
                              {
                                "id" : 1205,
                                "_type" : "AMFile",
                                "src" : 7,
                                "trackNumber" : 2,
                                "attributes" : {
                                  "ident" : "",
                                  "sampleRate" : 44100,
                                  "bitDepth" : 16,
                                  "gain" : 1.0,
                                  "mixToMono" : false
                                },
                                  "channelNumber" : "0,1",
                                "effects" : [

                                ],
                                "start" : 0,
                                "duration" : 25233,
                                "mediaStart" : 0,
                                "mediaDuration" : 25233,
                                "scalar" : 1,
                                "animationTracks" : {

                                }
                              }
,
                          "start" : 0,
                          "duration" : 25233,
                          "mediaStart" : 0,
                          "mediaDuration" : 26386,
                          "scalar" : 1,
                          "metadata" : {
                            "WinSubProjectDisplayName" : "",
                            "clipSpeedAttribute" : false,
                            "default-scale0" : 0.25,
                            "default-scale1" : 0.25,
                            "default-translation0" : 880.0,
                            "default-translation1" : -480.0
                          }
                        },
                        {
                          "id" : 1206,
                          "_type" : "UnifiedMedia",
                          "video" : 
                              {
                                "id" : 1207,
                                "_type" : "VMFile",
                                "src" : 7,
                                "trackNumber" : 1,
                                "attributes" : {
                                  "ident" : "Rec 02-07-19_001"
                                },
                                "effects" : [

                                ],
                                "start" : 25233,
                                "duration" : 133,
                                "mediaStart" : 25358,
                                "mediaDuration" : 133,
                                "scalar" : 1,
                                "animationTracks" : {

                                }
                              },
                          "audio" : 
                              {
                                "id" : 1208,
                                "_type" : "AMFile",
                                "src" : 7,
                                "trackNumber" : 2,
                                "attributes" : {
                                  "ident" : "",
                                  "sampleRate" : 44100,
                                  "bitDepth" : 16,
                                  "gain" : 1.0,
                                  "mixToMono" : false
                                },
                                  "channelNumber" : "0,1",
                                "effects" : [

                                ],
                                "start" : 25233,
                                "duration" : 133,
                                "mediaStart" : 25358,
                                "mediaDuration" : 133,
                                "scalar" : 1,
                                "animationTracks" : {

                                }
                              }
,
                          "start" : 25233,
                          "duration" : 133,
                          "mediaStart" : 0,
                          "mediaDuration" : 26386,
                          "scalar" : 1,
                          "metadata" : {
                            "WinSubProjectDisplayName" : "",
                            "clipSpeedAttribute" : false,
                            "default-scale0" : 0.25,
                            "default-scale1" : 0.25,
                            "default-translation0" : 880.0,
                            "default-translation1" : -480.0
                          }
                        },
                        {
                          "id" : 1209,
                          "_type" : "UnifiedMedia",
                          "video" : 
                              {
                                "id" : 1210,
                                "_type" : "VMFile",
                                "src" : 7,
                                "trackNumber" : 1,
                                "attributes" : {
                                  "ident" : "Rec 02-07-19_001"
                                },
                                "effects" : [

                                ],
                                "start" : 25366,
                                "duration" : 708,
                                "mediaStart" : 25678,
                                "mediaDuration" : 708,
                                "scalar" : 1,
                                "animationTracks" : {

                                }
                              },
                          "audio" : 
                              {
                                "id" : 1211,
                                "_type" : "AMFile",
                                "src" : 7,
                                "trackNumber" : 2,
                                "attributes" : {
                                  "ident" : "",
                                  "sampleRate" : 44100,
                                  "bitDepth" : 16,
                                  "gain" : 1.0,
                                  "mixToMono" : false
                                },
                                  "channelNumber" : "0,1",
                                "effects" : [

                                ],
                                "start" : 25366,
                                "duration" : 708,
                                "mediaStart" : 25678,
                                "mediaDuration" : 708,
                                "scalar" : 1,
                                "animationTracks" : {

                                }
                              }
,
                          "start" : 25366,
                          "duration" : 708,
                          "mediaStart" : 0,
                          "mediaDuration" : 26386,
                          "scalar" : 1,
                          "metadata" : {
                            "WinSubProjectDisplayName" : "",
                            "clipSpeedAttribute" : false,
                            "default-scale0" : 0.25,
                            "default-scale1" : 0.25,
                            "default-translation0" : 880.0,
                            "default-translation1" : -480.0
                          }
                        }
                    ],
                    "effects" : [

                    ],
                    "start" : 26817,
                    "duration" : 2038,
                    "mediaStart" : 23915,
                    "mediaDuration" : 2038,
                    "scalar" : 1,
                    "metadata" : {
                      "WinSubProjectDisplayName" : "",
                      "clipSpeedAttribute" : false
                    },
                    "animationTracks" : {

                    }
                  },
                  {
                    "id" : 1212,
                    "_type" : "StitchedMedia",
                    "minMediaStart" : 0,
                    "attributes" : {
                      "ident" : "Rec 02-07-19_002",
                      "gain" : 1.0,
                      "mixToMono" : false
                    },
                    "parameters" : {
                      "translation0" : 528.863636363418,
                      "translation1" : -216.647727272564,
                      "scale0" : 1.34730113636432,
                      "scale1" : 1.34730113636432,
                      "volume" : 1.0,
                      "cursorOpacity" : 1.0,
                      "cursorScale" : 1.0
                    },
                    "medias" : [
                        {
                          "id" : 1213,
                          "_type" : "UnifiedMedia",
                          "video" : 
                              {
                                "id" : 1214,
                                "_type" : "VMFile",
                                "src" : 9,
                                "trackNumber" : 1,
                                "attributes" : {
                                  "ident" : "Rec 02-07-19_002"
                                },
                                "effects" : [

                                ],
                                "start" : 0,
                                "duration" : 763,
                                "mediaStart" : 0,
                                "mediaDuration" : 763,
                                "scalar" : 1,
                                "animationTracks" : {

                                }
                              },
                          "audio" : 
                              {
                                "id" : 1215,
                                "_type" : "AMFile",
                                "src" : 9,
                                "trackNumber" : 2,
                                "attributes" : {
                                  "ident" : "",
                                  "sampleRate" : 44100,
                                  "bitDepth" : 16,
                                  "gain" : 1.0,
                                  "mixToMono" : false
                                },
                                  "channelNumber" : "0,1",
                                "effects" : [

                                ],
                                "start" : 0,
                                "duration" : 763,
                                "mediaStart" : 0,
                                "mediaDuration" : 763,
                                "scalar" : 1,
                                "animationTracks" : {

                                }
                              }
,
                          "start" : 0,
                          "duration" : 763,
                          "mediaStart" : 0,
                          "mediaDuration" : 1696,
                          "scalar" : 1,
                          "metadata" : {
                            "WinSubProjectDisplayName" : "",
                            "clipSpeedAttribute" : false,
                            "default-scale0" : 0.25,
                            "default-scale1" : 0.25,
                            "default-translation0" : 880.0,
                            "default-translation1" : -480.0
                          }
                        },
                        {
                          "id" : 1216,
                          "_type" : "UnifiedMedia",
                          "video" : 
                              {
                                "id" : 1217,
                                "_type" : "VMFile",
                                "src" : 9,
                                "trackNumber" : 1,
                                "attributes" : {
                                  "ident" : "Rec 02-07-19_002"
                                },
                                "effects" : [

                                ],
                                "start" : 763,
                                "duration" : 833,
                                "mediaStart" : 863,
                                "mediaDuration" : 833,
                                "scalar" : 1,
                                "animationTracks" : {

                                }
                              },
                          "audio" : 
                              {
                                "id" : 1218,
                                "_type" : "AMFile",
                                "src" : 9,
                                "trackNumber" : 2,
                                "attributes" : {
                                  "ident" : "",
                                  "sampleRate" : 44100,
                                  "bitDepth" : 16,
                                  "gain" : 1.0,
                                  "mixToMono" : false
                                },
                                  "channelNumber" : "0,1",
                                "effects" : [

                                ],
                                "start" : 763,
                                "duration" : 833,
                                "mediaStart" : 863,
                                "mediaDuration" : 833,
                                "scalar" : 1,
                                "animationTracks" : {

                                }
                              }
,
                          "start" : 763,
                          "duration" : 833,
                          "mediaStart" : 0,
                          "mediaDuration" : 1696,
                          "scalar" : 1,
                          "metadata" : {
                            "WinSubProjectDisplayName" : "",
                            "clipSpeedAttribute" : false,
                            "default-scale0" : 0.25,
                            "default-scale1" : 0.25,
                            "default-translation0" : 880.0,
                            "default-translation1" : -480.0
                          }
                        }
                    ],
                    "effects" : [

                    ],
                    "start" : 28855,
                    "duration" : 1100,
                    "mediaStart" : 443,
                    "mediaDuration" : 1100,
                    "scalar" : 1,
                    "metadata" : {
                      "WinSubProjectDisplayName" : "",
                      "clipSpeedAttribute" : false
                    },
                    "animationTracks" : {

                    }
                  },
                  {
                    "id" : 1219,
                    "_type" : "IMFile",
                    "src" : 10,
                    "trackNumber" : 0,
                    "trimStartSum" : 0,
                    "attributes" : {
                      "ident" : "Functions"
                    },
                    "parameters" : {
                      "translation0" : {
                        "type" : "double",
                        "defaultValue" : -505.819375000225,
                        "interp" : "eioe",
                        "keyframes" : [
                          {
                            "endTime" : 237,
                            "time" : 0,
                            "value" : 505.819374999883,
                            "duration" : 237
                          }
                        ]
                      },
                      "translation1" : {
                        "type" : "double",
                        "defaultValue" : -5.72795144648808e-11,
                        "interp" : "eioe",
                        "keyframes" : [
                          {
                            "endTime" : 237,
                            "time" : 0,
                            "value" : 0.0,
                            "duration" : 237
                          }
                        ]
                      },
                      "scale0" : {
                        "type" : "double",
                        "defaultValue" : 3.12875,
                        "interp" : "eioe"
                      },
                      "scale1" : {
                        "type" : "double",
                        "defaultValue" : 3.12875,
                        "interp" : "eioe"
                      },
                      "opacity" : {
                        "type" : "double",
                        "defaultValue" : 0.5,
                        "interp" : "linr"
                      }
                    },
                    "effects" : [

                    ],
                    "start" : 29955,
                    "duration" : 245,
                    "mediaStart" : 0,
                    "mediaDuration" : 1,
                    "scalar" : 1,
                    "metadata" : {
                      "WinSubProjectDisplayName" : "",
                      "clipSpeedAttribute" : false
                    },
                    "animationTracks" : {
                      "visual" : [
                        {
                          "endTime" : 237,
                          "duration" : 237,
                          "range" : [ 0, 237],
                          "interp" : "linr"
                        }
                      ]
                    }
                  }
                ],
                "transitions" : [
                  {
                    "name" : "Fade",
                    "duration" : 30,
                    "trivial" : false,
                    "useAudioPreRoll" : true,
                    "useVisualPreRoll" : true,
                    "leftMedia" : 398
                  },
                  {
                    "name" : "Fade",
                    "duration" : 30,
                    "trivial" : false,
                    "useAudioPreRoll" : true,
                    "useVisualPreRoll" : true,
                    "leftMedia" : 1219
                  }
                ]
              },
              {
                "trackIndex" : 2,
                "medias" : [
                  {
                    "id" : 1220,
                    "_type" : "IMFile",
                    "src" : 14,
                    "trackNumber" : 0,
                    "trimStartSum" : 0,
                    "attributes" : {
                      "ident" : "Functions2"
                    },
                    "parameters" : {
                      "translation0" : {
                        "type" : "double",
                        "defaultValue" : -929.594568303547,
                        "interp" : "eioe",
                        "keyframes" : [
                          {
                            "endTime" : 194,
                            "time" : 0,
                            "value" : 929.379236272673,
                            "duration" : 194
                          }
                        ]
                      },
                      "translation1" : {
                        "type" : "double",
                        "defaultValue" : 2.23960405776324e-10,
                        "interp" : "eioe",
                        "keyframes" : [
                          {
                            "endTime" : 194,
                            "time" : 0,
                            "value" : 1.74160241783738e-10,
                            "duration" : 194
                          }
                        ]
                      },
                      "scale0" : {
                        "type" : "double",
                        "defaultValue" : 1.99957099957146,
                        "interp" : "eioe"
                      },
                      "scale1" : {
                        "type" : "double",
                        "defaultValue" : 1.99957099957146,
                        "interp" : "eioe"
                      },
                      "opacity" : {
                        "type" : "double",
                        "defaultValue" : 0.75,
                        "interp" : "linr"
                      }
                    },
                    "effects" : [

                    ],
                    "start" : 4255,
                    "duration" : 194,
                    "mediaStart" : 0,
                    "mediaDuration" : 1,
                    "scalar" : 1,
                    "metadata" : {
                      "WinSubProjectDisplayName" : "",
                      "clipSpeedAttribute" : false
                    },
                    "animationTracks" : {
                      "visual" : [
                        {
                          "endTime" : 194,
                          "duration" : 194,
                          "range" : [ 0, 194],
                          "interp" : "linr"
                        }
                      ]
                    }
                  },
                  {
                    "id" : 1221,
                    "_type" : "IMFile",
                    "src" : 8,
                    "trackNumber" : 0,
                    "trimStartSum" : 0,
                    "attributes" : {
                      "ident" : "PreLaunchandStop"
                    },
                    "parameters" : {
                      "translation0" : {
                        "type" : "double",
                        "defaultValue" : -1.06261666132923e-10,
                        "interp" : "eioe"
                      },
                      "translation1" : {
                        "type" : "double",
                        "defaultValue" : 163.106348470819,
                        "interp" : "eioe"
                      },
                      "scale0" : {
                        "type" : "double",
                        "defaultValue" : 1.44578313253038,
                        "interp" : "eioe"
                      },
                      "scale1" : {
                        "type" : "double",
                        "defaultValue" : 1.44578313253038,
                        "interp" : "eioe"
                      }
                    },
                    "effects" : [

                    ],
                    "start" : 17258,
                    "duration" : 327,
                    "mediaStart" : 0,
                    "mediaDuration" : 1,
                    "scalar" : 1,
                    "metadata" : {
                      "WinSubProjectDisplayName" : "",
                      "clipSpeedAttribute" : false,
                      "default-scale0" : 1.0,
                      "default-scale1" : 1.0,
                      "default-translation0" : 0.0,
                      "default-translation1" : -0.5
                    },
                    "animationTracks" : {

                    }
                  },
                  {
                    "id" : 1222,
                    "_type" : "IMFile",
                    "src" : 11,
                    "trackNumber" : 0,
                    "trimStartSum" : 0,
                    "attributes" : {
                      "ident" : "Functions2"
                    },
                    "parameters" : {
                      "translation0" : {
                        "type" : "double",
                        "defaultValue" : -929.594568303547,
                        "interp" : "eioe",
                        "keyframes" : [
                          {
                            "endTime" : 237,
                            "time" : 0,
                            "value" : 929.379236272673,
                            "duration" : 237
                          }
                        ]
                      },
                      "translation1" : {
                        "type" : "double",
                        "defaultValue" : 2.23960405776324e-10,
                        "interp" : "eioe",
                        "keyframes" : [
                          {
                            "endTime" : 237,
                            "time" : 0,
                            "value" : 1.74160241783738e-10,
                            "duration" : 237
                          }
                        ]
                      },
                      "scale0" : {
                        "type" : "double",
                        "defaultValue" : 1.99957099957146,
                        "interp" : "eioe"
                      },
                      "scale1" : {
                        "type" : "double",
                        "defaultValue" : 1.99957099957146,
                        "interp" : "eioe"
                      },
                      "opacity" : {
                        "type" : "double",
                        "defaultValue" : 0.75,
                        "interp" : "linr"
                      }
                    },
                    "effects" : [

                    ],
                    "start" : 29955,
                    "duration" : 245,
                    "mediaStart" : 0,
                    "mediaDuration" : 1,
                    "scalar" : 1,
                    "metadata" : {
                      "WinSubProjectDisplayName" : "",
                      "clipSpeedAttribute" : false
                    },
                    "animationTracks" : {
                      "visual" : [
                        {
                          "endTime" : 237,
                          "duration" : 237,
                          "range" : [ 0, 237],
                          "interp" : "linr"
                        }
                      ]
                    }
                  }
                ],
                "transitions" : [
                  {
                    "name" : "Fade",
                    "duration" : 30,
                    "trivial" : false,
                    "useAudioPreRoll" : true,
                    "useVisualPreRoll" : true,
                    "leftMedia" : 1220
                  },
                  {
                    "name" : "Fade",
                    "duration" : 30,
                    "trivial" : false,
                    "useAudioPreRoll" : true,
                    "useVisualPreRoll" : true,
                    "leftMedia" : 1222
                  }
                ]
              },
              {
                "trackIndex" : 3,
                "medias" : [
                  {
                    "id" : 1223,
                    "_type" : "Callout",
                    "def" : {
                      "kind" : "remix",
                      "shape" : "shape-rectangle",
                      "style" : "abstract",
                      "fill-color-blue" : {
                        "type" : "double",
                        "defaultValue" : 0.725490196078431,
                        "interp" : "linr"
                      },
                      "fill-color-green" : {
                        "type" : "double",
                        "defaultValue" : 0.501960784313725,
                        "interp" : "linr"
                      },
                      "fill-color-opacity" : {
                        "type" : "double",
                        "defaultValue" : 1.0,
                        "interp" : "linr"
                      },
                      "fill-color-red" : {
                        "type" : "double",
                        "defaultValue" : 0.16078431372549,
                        "interp" : "linr"
                      },
                      "height" : {
                        "type" : "double",
                        "defaultValue" : 1970.84482462071,
                        "interp" : "linr",
                        "keyframes" : [
                          {
                            "endTime" : 30,
                            "time" : 16,
                            "value" : 2076.8721495867,
                            "duration" : 14
                          }
                        ]
                      },
                      "stroke-color-blue" : {
                        "type" : "double",
                        "defaultValue" : 1.0,
                        "interp" : "linr"
                      },
                      "stroke-color-green" : {
                        "type" : "double",
                        "defaultValue" : 1.0,
                        "interp" : "linr"
                      },
                      "stroke-color-opacity" : {
                        "type" : "double",
                        "defaultValue" : 1.0,
                        "interp" : "linr"
                      },
                      "stroke-color-red" : {
                        "type" : "double",
                        "defaultValue" : 1.0,
                        "interp" : "linr"
                      },
                      "stroke-width" : {
                        "type" : "double",
                        "defaultValue" : 0.0,
                        "interp" : "linr"
                      },
                      "width" : {
                        "type" : "double",
                        "defaultValue" : 6.44547658048049,
                        "interp" : "linr",
                        "keyframes" : [
                          {
                            "endTime" : 30,
                            "time" : 16,
                            "value" : 2391.32375475305,
                            "duration" : 14
                          }
                        ]
                      },
                      "horizontal-alignment" : "center",
                      "stroke-style" : "solid",
                      "vertical-alignment" : "center",
                      "textAttributes" : {
                        "type" : "textAttributeList",
                        "keyframes" : [
                          {
                            "endTime" : 0,
                            "time" : 0,
                            "value" : null,
                            "duration" : 0
                          }
                        ]
                      }
                    },
                    "attributes" : {
                      "autoRotateText" : true
                    },
                    "parameters" : {
                      "translation0" : {
                        "type" : "double",
                        "defaultValue" : 1.4495071809506e-10,
                        "interp" : "eioe",
                        "keyframes" : [
                          {
                            "endTime" : 30,
                            "time" : 16,
                            "value" : -13.887551219374,
                            "duration" : 14
                          }
                        ]
                      },
                      "translation1" : {
                        "type" : "double",
                        "defaultValue" : 1.32370558958428e-10,
                        "interp" : "eioe",
                        "keyframes" : [
                          {
                            "endTime" : 30,
                            "time" : 16,
                            "value" : 7.9327799320001,
                            "duration" : 14
                          }
                        ]
                      },
                      "rotation2" : {
                        "type" : "double",
                        "defaultValue" : -0.518985227673131,
                        "interp" : "eioe"
                      },
                      "scale0" : {
                        "type" : "double",
                        "defaultValue" : 1.0,
                        "interp" : "eioe",
                        "keyframes" : [
                          {
                            "endTime" : 30,
                            "time" : 16,
                            "value" : 0.960881542699724,
                            "duration" : 14
                          }
                        ]
                      },
                      "scale1" : {
                        "type" : "double",
                        "defaultValue" : 1.0,
                        "interp" : "eioe",
                        "keyframes" : [
                          {
                            "endTime" : 30,
                            "time" : 16,
                            "value" : 0.960881542699724,
                            "duration" : 14
                          }
                        ]
                      },
                      "opacity" : {
                        "type" : "double",
                        "defaultValue" : 0.7,
                        "interp" : "linr",
                        "keyframes" : [
                          {
                            "endTime" : 30,
                            "time" : 16,
                            "value" : 0.7,
                            "duration" : 14
                          }
                        ]
                      }
                    },
                    "effects" : [

                    ],
                    "start" : 4255,
                    "duration" : 194,
                    "mediaStart" : 8,
                    "mediaDuration" : 194,
                    "scalar" : 1,
                    "metadata" : {
                      "WinSubProjectDisplayName" : "",
                      "clipSpeedAttribute" : false
                    },
                    "animationTracks" : {
                      "visual" : [
                        {
                          "endTime" : 30,
                          "duration" : 14,
                          "range" : [ 16, 14]
                        }
                      ]
                    }
                  },
                  {
                    "id" : 1224,
                    "_type" : "Callout",
                    "def" : {
                      "kind" : "TypeWinSpotlight",
                      "shape" : "",
                      "style" : "",
                      "height" : 270.0,
                      "intensity" : 0.5,
                      "width" : 480.0,
                      "filename" : "C:\\Program Files\\TechSmith\\Camtasia 2018\\Media\\Studio\\Callouts\\ReverseHighlight_100x100.xml",
                      "name" : "Spotlight",
                      "xmlContent" : "﻿<?xml version=\"1.0\"?>\n\n<Overlay version=\"1.0.1\">\n\n<Overlay_Filename>ReverseHighlight_100x100.png</Overlay_Filename>\n<Overlay_Name>Spotlight</Overlay_Name>\n<Text_Top>0</Text_Top>\n<Text_Left>0</Text_Left>\n<Text_Bottom>0</Text_Bottom>\n<Text_Right>0</Text_Right>\n<Fill_Color>0</Fill_Color>\n<Border_Color>0</Border_Color>\n</Overlay>"
                    },
                    "attributes" : {
                      "autoRotateText" : true
                    },
                    "parameters" : {
                      "translation0" : -1.69961822393816e-10,
                      "translation1" : 163.106348470869,
                      "scale0" : 4.00000000000071,
                      "scale1" : 1.9651941097727
                    },
                    "effects" : [

                    ],
                    "start" : 17258,
                    "duration" : 327,
                    "mediaStart" : 0,
                    "mediaDuration" : 327,
                    "scalar" : 1,
                    "metadata" : {
                      "WinSubProjectDisplayName" : "",
                      "clipSpeedAttribute" : false,
                      "default-scale0" : 1.0,
                      "default-scale1" : 1.0,
                      "default-translation0" : 0.0,
                      "default-translation1" : 0.0
                    },
                    "animationTracks" : {

                    }
                  },
                  {
                    "id" : 1225,
                    "_type" : "Callout",
                    "def" : {
                      "kind" : "remix",
                      "shape" : "shape-rectangle",
                      "style" : "abstract",
                      "fill-color-blue" : {
                        "type" : "double",
                        "defaultValue" : 0.725490196078431,
                        "interp" : "linr"
                      },
                      "fill-color-green" : {
                        "type" : "double",
                        "defaultValue" : 0.501960784313725,
                        "interp" : "linr"
                      },
                      "fill-color-opacity" : {
                        "type" : "double",
                        "defaultValue" : 1.0,
                        "interp" : "linr"
                      },
                      "fill-color-red" : {
                        "type" : "double",
                        "defaultValue" : 0.16078431372549,
                        "interp" : "linr"
                      },
                      "height" : {
                        "type" : "double",
                        "defaultValue" : 1970.84482462071,
                        "interp" : "linr",
                        "keyframes" : [
                          {
                            "endTime" : 30,
                            "time" : 16,
                            "value" : 2076.8721495867,
                            "duration" : 14
                          }
                        ]
                      },
                      "stroke-color-blue" : {
                        "type" : "double",
                        "defaultValue" : 1.0,
                        "interp" : "linr"
                      },
                      "stroke-color-green" : {
                        "type" : "double",
                        "defaultValue" : 1.0,
                        "interp" : "linr"
                      },
                      "stroke-color-opacity" : {
                        "type" : "double",
                        "defaultValue" : 1.0,
                        "interp" : "linr"
                      },
                      "stroke-color-red" : {
                        "type" : "double",
                        "defaultValue" : 1.0,
                        "interp" : "linr"
                      },
                      "stroke-width" : {
                        "type" : "double",
                        "defaultValue" : 0.0,
                        "interp" : "linr"
                      },
                      "width" : {
                        "type" : "double",
                        "defaultValue" : 6.44547658048049,
                        "interp" : "linr",
                        "keyframes" : [
                          {
                            "endTime" : 30,
                            "time" : 16,
                            "value" : 2391.32375475305,
                            "duration" : 14
                          }
                        ]
                      },
                      "horizontal-alignment" : "center",
                      "stroke-style" : "solid",
                      "vertical-alignment" : "center",
                      "textAttributes" : {
                        "type" : "textAttributeList",
                        "keyframes" : [
                          {
                            "endTime" : 0,
                            "time" : 0,
                            "value" : null,
                            "duration" : 0
                          }
                        ]
                      }
                    },
                    "attributes" : {
                      "autoRotateText" : true
                    },
                    "parameters" : {
                      "translation0" : {
                        "type" : "double",
                        "defaultValue" : 1.4495071809506e-10,
                        "interp" : "eioe",
                        "keyframes" : [
                          {
                            "endTime" : 30,
                            "time" : 16,
                            "value" : -13.887551219374,
                            "duration" : 14
                          }
                        ]
                      },
                      "translation1" : {
                        "type" : "double",
                        "defaultValue" : 1.32370558958428e-10,
                        "interp" : "eioe",
                        "keyframes" : [
                          {
                            "endTime" : 30,
                            "time" : 16,
                            "value" : 7.9327799320001,
                            "duration" : 14
                          }
                        ]
                      },
                      "rotation2" : {
                        "type" : "double",
                        "defaultValue" : -0.518985227673131,
                        "interp" : "eioe"
                      },
                      "scale0" : {
                        "type" : "double",
                        "defaultValue" : 1.0,
                        "interp" : "eioe",
                        "keyframes" : [
                          {
                            "endTime" : 30,
                            "time" : 16,
                            "value" : 0.960881542699724,
                            "duration" : 14
                          }
                        ]
                      },
                      "scale1" : {
                        "type" : "double",
                        "defaultValue" : 1.0,
                        "interp" : "eioe",
                        "keyframes" : [
                          {
                            "endTime" : 30,
                            "time" : 16,
                            "value" : 0.960881542699724,
                            "duration" : 14
                          }
                        ]
                      },
                      "opacity" : {
                        "type" : "double",
                        "defaultValue" : 0.7,
                        "interp" : "linr",
                        "keyframes" : [
                          {
                            "endTime" : 30,
                            "time" : 16,
                            "value" : 0.7,
                            "duration" : 14
                          }
                        ]
                      }
                    },
                    "effects" : [

                    ],
                    "start" : 29955,
                    "duration" : 245,
                    "mediaStart" : 8,
                    "mediaDuration" : 245,
                    "scalar" : 1,
                    "metadata" : {
                      "WinSubProjectDisplayName" : "",
                      "clipSpeedAttribute" : false
                    },
                    "animationTracks" : {
                      "visual" : [
                        {
                          "endTime" : 30,
                          "duration" : 14,
                          "range" : [ 16, 14]
                        }
                      ]
                    }
                  }
                ],
                "transitions" : [
                  {
                    "name" : "Fade",
                    "duration" : 30,
                    "trivial" : false,
                    "useAudioPreRoll" : true,
                    "useVisualPreRoll" : true,
                    "leftMedia" : 1223
                  },
                  {
                    "name" : "Fade",
                    "duration" : 30,
                    "trivial" : false,
                    "useAudioPreRoll" : true,
                    "useVisualPreRoll" : true,
                    "leftMedia" : 1225
                  }
                ]
              },
              {
                "trackIndex" : 4,
                "medias" : [
                  {
                    "id" : 1226,
                    "_type" : "Callout",
                    "def" : {
                      "kind" : "remix",
                      "shape" : "shape-rectangle",
                      "style" : "urban",
                      "fill-color-blue" : {
                        "type" : "double",
                        "defaultValue" : 1.0,
                        "interp" : "linr",
                        "keyframes" : [
                          {
                            "endTime" : 10,
                            "time" : 0,
                            "value" : 1.0,
                            "duration" : 10
                          },
                          {
                            "endTime" : 33,
                            "time" : 19,
                            "value" : 1.0,
                            "duration" : 14
                          }
                        ]
                      },
                      "fill-color-green" : {
                        "type" : "double",
                        "defaultValue" : 1.0,
                        "interp" : "linr",
                        "keyframes" : [
                          {
                            "endTime" : 10,
                            "time" : 0,
                            "value" : 1.0,
                            "duration" : 10
                          },
                          {
                            "endTime" : 33,
                            "time" : 19,
                            "value" : 1.0,
                            "duration" : 14
                          }
                        ]
                      },
                      "fill-color-opacity" : {
                        "type" : "double",
                        "defaultValue" : 1.0,
                        "interp" : "linr"
                      },
                      "fill-color-red" : {
                        "type" : "double",
                        "defaultValue" : 1.0,
                        "interp" : "linr",
                        "keyframes" : [
                          {
                            "endTime" : 10,
                            "time" : 0,
                            "value" : 1.0,
                            "duration" : 10
                          },
                          {
                            "endTime" : 33,
                            "time" : 19,
                            "value" : 1.0,
                            "duration" : 14
                          }
                        ]
                      },
                      "height" : {
                        "type" : "double",
                        "defaultValue" : 6.861561236135,
                        "interp" : "linr",
                        "keyframes" : [
                          {
                            "endTime" : 10,
                            "time" : 0,
                            "value" : 1314.7048957085,
                            "duration" : 10
                          }
                        ]
                      },
                      "stroke-color-blue" : {
                        "type" : "double",
                        "defaultValue" : 1.0,
                        "interp" : "linr"
                      },
                      "stroke-color-green" : {
                        "type" : "double",
                        "defaultValue" : 1.0,
                        "interp" : "linr"
                      },
                      "stroke-color-opacity" : {
                        "type" : "double",
                        "defaultValue" : 1.0,
                        "interp" : "linr"
                      },
                      "stroke-color-red" : {
                        "type" : "double",
                        "defaultValue" : 1.0,
                        "interp" : "linr"
                      },
                      "stroke-width" : {
                        "type" : "double",
                        "defaultValue" : 0.0,
                        "interp" : "linr"
                      },
                      "width" : {
                        "type" : "double",
                        "defaultValue" : 7.99999999997041,
                        "interp" : "linr"
                      },
                      "horizontal-alignment" : "center",
                      "stroke-style" : "solid",
                      "vertical-alignment" : "center",
                      "textAttributes" : {
                        "type" : "textAttributeList",
                        "keyframes" : [
                          {
                            "endTime" : 0,
                            "time" : 0,
                            "value" : null,
                            "duration" : 0
                          }
                        ]
                      }
                    },
                    "attributes" : {
                      "autoRotateText" : true
                    },
                    "parameters" : {
                      "translation0" : {
                        "type" : "double",
                        "defaultValue" : -1.00044417195022e-11,
                        "interp" : "eioe",
                        "keyframes" : [
                          {
                            "endTime" : 10,
                            "time" : 0,
                            "value" : -1.00044417195022e-11,
                            "duration" : 10
                          },
                          {
                            "endTime" : 33,
                            "time" : 19,
                            "value" : -1300.00000000008,
                            "duration" : 14
                          }
                        ]
                      },
                      "translation1" : {
                        "type" : "double",
                        "defaultValue" : -3.00914848594402e-12,
                        "interp" : "eioe",
                        "keyframes" : [
                          {
                            "endTime" : 10,
                            "time" : 0,
                            "value" : -3.00914848594402e-12,
                            "duration" : 10
                          },
                          {
                            "endTime" : 33,
                            "time" : 19,
                            "value" : -3.00914848594402e-12,
                            "duration" : 14
                          }
                        ]
                      },
                      "rotation2" : {
                        "type" : "double",
                        "defaultValue" : -0.523598775598299,
                        "interp" : "eioe",
                        "keyframes" : [
                          {
                            "endTime" : 10,
                            "time" : 0,
                            "value" : -0.523598775598299,
                            "duration" : 10
                          },
                          {
                            "endTime" : 33,
                            "time" : 19,
                            "value" : -0.523598775598299,
                            "duration" : 14
                          }
                        ]
                      },
                      "opacity" : {
                        "type" : "double",
                        "defaultValue" : 1.0,
                        "interp" : "linr",
                        "keyframes" : [
                          {
                            "endTime" : 10,
                            "time" : 0,
                            "value" : 0.7,
                            "duration" : 10
                          },
                          {
                            "endTime" : 33,
                            "time" : 19,
                            "value" : 0.7,
                            "duration" : 14
                          }
                        ]
                      }
                    },
                    "effects" : [

                    ],
                    "start" : 4255,
                    "duration" : 26,
                    "mediaStart" : 11,
                    "mediaDuration" : 26,
                    "scalar" : 1,
                    "metadata" : {
                      "WinSubProjectDisplayName" : "",
                      "clipSpeedAttribute" : false
                    },
                    "animationTracks" : {
                      "visual" : [
                        {
                          "endTime" : 10,
                          "duration" : 10,
                          "range" : [ 0, 10]
                        },
                        {
                          "endTime" : 33,
                          "duration" : 14,
                          "range" : [ 19, 14],
                          "interp" : "linr"
                        }
                      ]
                    }
                  },
                  {
                    "id" : 1227,
                    "_type" : "Callout",
                    "def" : {
                      "kind" : "remix",
                      "shape" : "shape-rectangle",
                      "style" : "urban",
                      "fill-color-blue" : {
                        "type" : "double",
                        "defaultValue" : 1.0,
                        "interp" : "linr",
                        "keyframes" : [
                          {
                            "endTime" : 10,
                            "time" : 0,
                            "value" : 1.0,
                            "duration" : 10
                          },
                          {
                            "endTime" : 33,
                            "time" : 19,
                            "value" : 1.0,
                            "duration" : 14
                          }
                        ]
                      },
                      "fill-color-green" : {
                        "type" : "double",
                        "defaultValue" : 1.0,
                        "interp" : "linr",
                        "keyframes" : [
                          {
                            "endTime" : 10,
                            "time" : 0,
                            "value" : 1.0,
                            "duration" : 10
                          },
                          {
                            "endTime" : 33,
                            "time" : 19,
                            "value" : 1.0,
                            "duration" : 14
                          }
                        ]
                      },
                      "fill-color-opacity" : {
                        "type" : "double",
                        "defaultValue" : 1.0,
                        "interp" : "linr"
                      },
                      "fill-color-red" : {
                        "type" : "double",
                        "defaultValue" : 1.0,
                        "interp" : "linr",
                        "keyframes" : [
                          {
                            "endTime" : 10,
                            "time" : 0,
                            "value" : 1.0,
                            "duration" : 10
                          },
                          {
                            "endTime" : 33,
                            "time" : 19,
                            "value" : 1.0,
                            "duration" : 14
                          }
                        ]
                      },
                      "height" : {
                        "type" : "double",
                        "defaultValue" : 6.861561236135,
                        "interp" : "linr",
                        "keyframes" : [
                          {
                            "endTime" : 10,
                            "time" : 0,
                            "value" : 1314.7048957085,
                            "duration" : 10
                          }
                        ]
                      },
                      "stroke-color-blue" : {
                        "type" : "double",
                        "defaultValue" : 1.0,
                        "interp" : "linr"
                      },
                      "stroke-color-green" : {
                        "type" : "double",
                        "defaultValue" : 1.0,
                        "interp" : "linr"
                      },
                      "stroke-color-opacity" : {
                        "type" : "double",
                        "defaultValue" : 1.0,
                        "interp" : "linr"
                      },
                      "stroke-color-red" : {
                        "type" : "double",
                        "defaultValue" : 1.0,
                        "interp" : "linr"
                      },
                      "stroke-width" : {
                        "type" : "double",
                        "defaultValue" : 0.0,
                        "interp" : "linr"
                      },
                      "width" : {
                        "type" : "double",
                        "defaultValue" : 7.99999999997041,
                        "interp" : "linr"
                      },
                      "horizontal-alignment" : "center",
                      "stroke-style" : "solid",
                      "vertical-alignment" : "center",
                      "textAttributes" : {
                        "type" : "textAttributeList",
                        "keyframes" : [
                          {
                            "endTime" : 0,
                            "time" : 0,
                            "value" : null,
                            "duration" : 0
                          }
                        ]
                      }
                    },
                    "attributes" : {
                      "autoRotateText" : true
                    },
                    "parameters" : {
                      "translation0" : {
                        "type" : "double",
                        "defaultValue" : -1.00044417195022e-11,
                        "interp" : "eioe",
                        "keyframes" : [
                          {
                            "endTime" : 10,
                            "time" : 0,
                            "value" : -1.00044417195022e-11,
                            "duration" : 10
                          },
                          {
                            "endTime" : 33,
                            "time" : 19,
                            "value" : -1300.00000000008,
                            "duration" : 14
                          }
                        ]
                      },
                      "translation1" : {
                        "type" : "double",
                        "defaultValue" : -3.00914848594402e-12,
                        "interp" : "eioe",
                        "keyframes" : [
                          {
                            "endTime" : 10,
                            "time" : 0,
                            "value" : -3.00914848594402e-12,
                            "duration" : 10
                          },
                          {
                            "endTime" : 33,
                            "time" : 19,
                            "value" : -3.00914848594402e-12,
                            "duration" : 14
                          }
                        ]
                      },
                      "rotation2" : {
                        "type" : "double",
                        "defaultValue" : -0.523598775598299,
                        "interp" : "eioe",
                        "keyframes" : [
                          {
                            "endTime" : 10,
                            "time" : 0,
                            "value" : -0.523598775598299,
                            "duration" : 10
                          },
                          {
                            "endTime" : 33,
                            "time" : 19,
                            "value" : -0.523598775598299,
                            "duration" : 14
                          }
                        ]
                      },
                      "opacity" : {
                        "type" : "double",
                        "defaultValue" : 1.0,
                        "interp" : "linr",
                        "keyframes" : [
                          {
                            "endTime" : 10,
                            "time" : 0,
                            "value" : 0.7,
                            "duration" : 10
                          },
                          {
                            "endTime" : 33,
                            "time" : 19,
                            "value" : 0.7,
                            "duration" : 14
                          }
                        ]
                      }
                    },
                    "effects" : [

                    ],
                    "start" : 29955,
                    "duration" : 26,
                    "mediaStart" : 11,
                    "mediaDuration" : 26,
                    "scalar" : 1,
                    "metadata" : {
                      "WinSubProjectDisplayName" : "",
                      "clipSpeedAttribute" : false
                    },
                    "animationTracks" : {
                      "visual" : [
                        {
                          "endTime" : 10,
                          "duration" : 10,
                          "range" : [ 0, 10]
                        },
                        {
                          "endTime" : 33,
                          "duration" : 14,
                          "range" : [ 19, 14],
                          "interp" : "linr"
                        }
                      ]
                    }
                  }
                ]
              },
              {
                "trackIndex" : 5,
                "medias" : [
                  {
                    "id" : 1228,
                    "_type" : "Callout",
                    "def" : {
                      "kind" : "remix",
                      "shape" : "shape-rectangle",
                      "style" : "urban",
                      "fill-color-blue" : {
                        "type" : "double",
                        "defaultValue" : 1.0,
                        "interp" : "linr",
                        "keyframes" : [
                          {
                            "endTime" : 10,
                            "time" : 0,
                            "value" : 1.0,
                            "duration" : 10
                          },
                          {
                            "endTime" : 33,
                            "time" : 19,
                            "value" : 1.0,
                            "duration" : 14
                          }
                        ]
                      },
                      "fill-color-green" : {
                        "type" : "double",
                        "defaultValue" : 1.0,
                        "interp" : "linr",
                        "keyframes" : [
                          {
                            "endTime" : 10,
                            "time" : 0,
                            "value" : 1.0,
                            "duration" : 10
                          },
                          {
                            "endTime" : 33,
                            "time" : 19,
                            "value" : 1.0,
                            "duration" : 14
                          }
                        ]
                      },
                      "fill-color-opacity" : {
                        "type" : "double",
                        "defaultValue" : 1.0,
                        "interp" : "linr"
                      },
                      "fill-color-red" : {
                        "type" : "double",
                        "defaultValue" : 1.0,
                        "interp" : "linr",
                        "keyframes" : [
                          {
                            "endTime" : 10,
                            "time" : 0,
                            "value" : 1.0,
                            "duration" : 10
                          },
                          {
                            "endTime" : 33,
                            "time" : 19,
                            "value" : 1.0,
                            "duration" : 14
                          }
                        ]
                      },
                      "height" : {
                        "type" : "double",
                        "defaultValue" : 6.861561236135,
                        "interp" : "linr",
                        "keyframes" : [
                          {
                            "endTime" : 10,
                            "time" : 0,
                            "value" : 1314.7048957085,
                            "duration" : 10
                          }
                        ]
                      },
                      "stroke-color-blue" : {
                        "type" : "double",
                        "defaultValue" : 1.0,
                        "interp" : "linr"
                      },
                      "stroke-color-green" : {
                        "type" : "double",
                        "defaultValue" : 1.0,
                        "interp" : "linr"
                      },
                      "stroke-color-opacity" : {
                        "type" : "double",
                        "defaultValue" : 1.0,
                        "interp" : "linr"
                      },
                      "stroke-color-red" : {
                        "type" : "double",
                        "defaultValue" : 1.0,
                        "interp" : "linr"
                      },
                      "stroke-width" : {
                        "type" : "double",
                        "defaultValue" : 0.0,
                        "interp" : "linr"
                      },
                      "width" : {
                        "type" : "double",
                        "defaultValue" : 7.99999999997041,
                        "interp" : "linr"
                      },
                      "horizontal-alignment" : "center",
                      "stroke-style" : "solid",
                      "vertical-alignment" : "center",
                      "textAttributes" : {
                        "type" : "textAttributeList",
                        "keyframes" : [
                          {
                            "endTime" : 0,
                            "time" : 0,
                            "value" : null,
                            "duration" : 0
                          }
                        ]
                      }
                    },
                    "attributes" : {
                      "autoRotateText" : true
                    },
                    "parameters" : {
                      "translation0" : {
                        "type" : "double",
                        "defaultValue" : -1.00044417195022e-11,
                        "interp" : "eioe",
                        "keyframes" : [
                          {
                            "endTime" : 10,
                            "time" : 0,
                            "value" : -2.70270270271305,
                            "duration" : 10
                          },
                          {
                            "endTime" : 33,
                            "time" : 19,
                            "value" : 1302.00000000006,
                            "duration" : 14
                          }
                        ]
                      },
                      "translation1" : {
                        "type" : "double",
                        "defaultValue" : -3.00914848594402e-12,
                        "interp" : "eioe",
                        "keyframes" : [
                          {
                            "endTime" : 10,
                            "time" : 0,
                            "value" : -3.00914848594402e-12,
                            "duration" : 10
                          },
                          {
                            "endTime" : 33,
                            "time" : 19,
                            "value" : -3.00914848594402e-12,
                            "duration" : 14
                          }
                        ]
                      },
                      "rotation2" : {
                        "type" : "double",
                        "defaultValue" : -0.523598775598299,
                        "interp" : "eioe",
                        "keyframes" : [
                          {
                            "endTime" : 10,
                            "time" : 0,
                            "value" : -0.523598775598299,
                            "duration" : 10
                          },
                          {
                            "endTime" : 33,
                            "time" : 19,
                            "value" : -0.523598775598299,
                            "duration" : 14
                          }
                        ]
                      },
                      "opacity" : {
                        "type" : "double",
                        "defaultValue" : 1.0,
                        "interp" : "linr",
                        "keyframes" : [
                          {
                            "endTime" : 10,
                            "time" : 0,
                            "value" : 0.7,
                            "duration" : 10
                          },
                          {
                            "endTime" : 33,
                            "time" : 19,
                            "value" : 0.7,
                            "duration" : 14
                          }
                        ]
                      }
                    },
                    "effects" : [

                    ],
                    "start" : 4255,
                    "duration" : 26,
                    "mediaStart" : 11,
                    "mediaDuration" : 26,
                    "scalar" : 1,
                    "metadata" : {
                      "WinSubProjectDisplayName" : "",
                      "clipSpeedAttribute" : false
                    },
                    "animationTracks" : {
                      "visual" : [
                        {
                          "endTime" : 10,
                          "duration" : 10,
                          "range" : [ 0, 10]
                        },
                        {
                          "endTime" : 33,
                          "duration" : 14,
                          "range" : [ 19, 14],
                          "interp" : "linr"
                        }
                      ]
                    }
                  },
                  {
                    "id" : 1229,
                    "_type" : "Callout",
                    "def" : {
                      "kind" : "remix",
                      "shape" : "shape-rectangle",
                      "style" : "urban",
                      "fill-color-blue" : {
                        "type" : "double",
                        "defaultValue" : 1.0,
                        "interp" : "linr",
                        "keyframes" : [
                          {
                            "endTime" : 10,
                            "time" : 0,
                            "value" : 1.0,
                            "duration" : 10
                          },
                          {
                            "endTime" : 33,
                            "time" : 19,
                            "value" : 1.0,
                            "duration" : 14
                          }
                        ]
                      },
                      "fill-color-green" : {
                        "type" : "double",
                        "defaultValue" : 1.0,
                        "interp" : "linr",
                        "keyframes" : [
                          {
                            "endTime" : 10,
                            "time" : 0,
                            "value" : 1.0,
                            "duration" : 10
                          },
                          {
                            "endTime" : 33,
                            "time" : 19,
                            "value" : 1.0,
                            "duration" : 14
                          }
                        ]
                      },
                      "fill-color-opacity" : {
                        "type" : "double",
                        "defaultValue" : 1.0,
                        "interp" : "linr"
                      },
                      "fill-color-red" : {
                        "type" : "double",
                        "defaultValue" : 1.0,
                        "interp" : "linr",
                        "keyframes" : [
                          {
                            "endTime" : 10,
                            "time" : 0,
                            "value" : 1.0,
                            "duration" : 10
                          },
                          {
                            "endTime" : 33,
                            "time" : 19,
                            "value" : 1.0,
                            "duration" : 14
                          }
                        ]
                      },
                      "height" : {
                        "type" : "double",
                        "defaultValue" : 6.861561236135,
                        "interp" : "linr",
                        "keyframes" : [
                          {
                            "endTime" : 10,
                            "time" : 0,
                            "value" : 1314.7048957085,
                            "duration" : 10
                          }
                        ]
                      },
                      "stroke-color-blue" : {
                        "type" : "double",
                        "defaultValue" : 1.0,
                        "interp" : "linr"
                      },
                      "stroke-color-green" : {
                        "type" : "double",
                        "defaultValue" : 1.0,
                        "interp" : "linr"
                      },
                      "stroke-color-opacity" : {
                        "type" : "double",
                        "defaultValue" : 1.0,
                        "interp" : "linr"
                      },
                      "stroke-color-red" : {
                        "type" : "double",
                        "defaultValue" : 1.0,
                        "interp" : "linr"
                      },
                      "stroke-width" : {
                        "type" : "double",
                        "defaultValue" : 0.0,
                        "interp" : "linr"
                      },
                      "width" : {
                        "type" : "double",
                        "defaultValue" : 7.99999999997041,
                        "interp" : "linr"
                      },
                      "horizontal-alignment" : "center",
                      "stroke-style" : "solid",
                      "vertical-alignment" : "center",
                      "textAttributes" : {
                        "type" : "textAttributeList",
                        "keyframes" : [
                          {
                            "endTime" : 0,
                            "time" : 0,
                            "value" : null,
                            "duration" : 0
                          }
                        ]
                      }
                    },
                    "attributes" : {
                      "autoRotateText" : true
                    },
                    "parameters" : {
                      "translation0" : {
                        "type" : "double",
                        "defaultValue" : -1.00044417195022e-11,
                        "interp" : "eioe",
                        "keyframes" : [
                          {
                            "endTime" : 10,
                            "time" : 0,
                            "value" : -2.70270270271305,
                            "duration" : 10
                          },
                          {
                            "endTime" : 33,
                            "time" : 19,
                            "value" : 1302.00000000006,
                            "duration" : 14
                          }
                        ]
                      },
                      "translation1" : {
                        "type" : "double",
                        "defaultValue" : -3.00914848594402e-12,
                        "interp" : "eioe",
                        "keyframes" : [
                          {
                            "endTime" : 10,
                            "time" : 0,
                            "value" : -3.00914848594402e-12,
                            "duration" : 10
                          },
                          {
                            "endTime" : 33,
                            "time" : 19,
                            "value" : -3.00914848594402e-12,
                            "duration" : 14
                          }
                        ]
                      },
                      "rotation2" : {
                        "type" : "double",
                        "defaultValue" : -0.523598775598299,
                        "interp" : "eioe",
                        "keyframes" : [
                          {
                            "endTime" : 10,
                            "time" : 0,
                            "value" : -0.523598775598299,
                            "duration" : 10
                          },
                          {
                            "endTime" : 33,
                            "time" : 19,
                            "value" : -0.523598775598299,
                            "duration" : 14
                          }
                        ]
                      },
                      "opacity" : {
                        "type" : "double",
                        "defaultValue" : 1.0,
                        "interp" : "linr",
                        "keyframes" : [
                          {
                            "endTime" : 10,
                            "time" : 0,
                            "value" : 0.7,
                            "duration" : 10
                          },
                          {
                            "endTime" : 33,
                            "time" : 19,
                            "value" : 0.7,
                            "duration" : 14
                          }
                        ]
                      }
                    },
                    "effects" : [

                    ],
                    "start" : 29955,
                    "duration" : 26,
                    "mediaStart" : 11,
                    "mediaDuration" : 26,
                    "scalar" : 1,
                    "metadata" : {
                      "WinSubProjectDisplayName" : "",
                      "clipSpeedAttribute" : false
                    },
                    "animationTracks" : {
                      "visual" : [
                        {
                          "endTime" : 10,
                          "duration" : 10,
                          "range" : [ 0, 10]
                        },
                        {
                          "endTime" : 33,
                          "duration" : 14,
                          "range" : [ 19, 14],
                          "interp" : "linr"
                        }
                      ]
                    }
                  }
                ]
              },
              {
                "trackIndex" : 6,
                "medias" : [
                  {
                    "id" : 1230,
                    "_type" : "IMFile",
                    "src" : 15,
                    "trackNumber" : 0,
                    "trimStartSum" : 0,
                    "attributes" : {
                      "ident" : "Lens-Shadow-001"
                    },
                    "parameters" : {
                      "translation0" : {
                        "type" : "double",
                        "defaultValue" : -3.86989995604381e-10,
                        "interp" : "eioe"
                      },
                      "translation1" : {
                        "type" : "double",
                        "defaultValue" : 2.41130670985967e-10,
                        "interp" : "eioe"
                      },
                      "opacity" : {
                        "type" : "double",
                        "defaultValue" : 0.5,
                        "interp" : "linr"
                      }
                    },
                    "effects" : [

                    ],
                    "start" : 4255,
                    "duration" : 194,
                    "mediaStart" : 0,
                    "mediaDuration" : 1,
                    "scalar" : 1,
                    "metadata" : {
                      "WinSubProjectDisplayName" : "",
                      "clipSpeedAttribute" : false
                    },
                    "animationTracks" : {

                    }
                  },
                  {
                    "id" : 1231,
                    "_type" : "IMFile",
                    "src" : 12,
                    "trackNumber" : 0,
                    "trimStartSum" : 0,
                    "attributes" : {
                      "ident" : "Lens-Shadow-001"
                    },
                    "parameters" : {
                      "translation0" : {
                        "type" : "double",
                        "defaultValue" : -3.86989995604381e-10,
                        "interp" : "eioe"
                      },
                      "translation1" : {
                        "type" : "double",
                        "defaultValue" : 2.41130670985967e-10,
                        "interp" : "eioe"
                      },
                      "opacity" : {
                        "type" : "double",
                        "defaultValue" : 0.5,
                        "interp" : "linr"
                      }
                    },
                    "effects" : [

                    ],
                    "start" : 29955,
                    "duration" : 245,
                    "mediaStart" : 0,
                    "mediaDuration" : 1,
                    "scalar" : 1,
                    "metadata" : {
                      "WinSubProjectDisplayName" : "",
                      "clipSpeedAttribute" : false
                    },
                    "animationTracks" : {

                    }
                  }
                ],
                "transitions" : [
                  {
                    "name" : "Fade",
                    "duration" : 30,
                    "trivial" : true,
                    "useAudioPreRoll" : false,
                    "useVisualPreRoll" : true,
                    "leftMedia" : 1230
                  },
                  {
                    "name" : "Fade",
                    "duration" : 30,
                    "trivial" : true,
                    "useAudioPreRoll" : false,
                    "useVisualPreRoll" : true,
                    "leftMedia" : 1231
                  }
                ]
              },
              {
                "trackIndex" : 7,
                "medias" : [
                  {
                    "id" : 1232,
                    "_type" : "Callout",
                    "def" : {
                      "kind" : "remix",
                      "shape" : "text",
                      "style" : "basic",
                      "height" : {
                        "type" : "double",
                        "defaultValue" : 309.837837837942,
                        "interp" : "linr"
                      },
                      "width" : {
                        "type" : "double",
                        "defaultValue" : 1153.09090909266,
                        "interp" : "linr"
                      },
                      "word-wrap" : {
                        "type" : "double",
                        "defaultValue" : 1.0,
                        "interp" : "linr"
                      },
                      "horizontal-alignment" : "center",
                      "text" : "User Events in\rActor Framework",
                      "vertical-alignment" : "center",
                      "font" : {
                        "color-blue" : {
                          "type" : "double",
                          "defaultValue" : 1.0,
                          "interp" : "linr"
                        },
                        "color-green" : {
                          "type" : "double",
                          "defaultValue" : 1.0,
                          "interp" : "linr"
                        },
                        "color-red" : {
                          "type" : "double",
                          "defaultValue" : 1.0,
                          "interp" : "linr"
                        },
                        "size" : {
                          "type" : "double",
                          "defaultValue" : 96.0,
                          "interp" : "linr"
                        },
                        "tracking" : {
                          "type" : "double",
                          "defaultValue" : 0.0,
                          "interp" : "linr"
                        },
                        "name" : "Montserrat",
                        "weight" : "Regular"
                      },
                      "textAttributes" : {
                        "type" : "textAttributeList",
                        "keyframes" : [
                          {
                            "endTime" : 0,
                            "time" : 0,
                            "value" : [{"name":"underline","rangeEnd":30,"rangeStart":0,"value":0,"valueType":"int"},{"name":"fontWeight","rangeEnd":30,"rangeStart":0,"value":700,"valueType":"int"},{"name":"fontItalic","rangeEnd":30,"rangeStart":0,"value":0,"valueType":"int"},{"name":"fgColor","rangeEnd":30,"rangeStart":0,"value":"(35,40,47,255)","valueType":"color"},{"name":"fontSize","rangeEnd":30,"rangeStart":0,"value":99,"valueType":"double"},{"name":"strikethrough","rangeEnd":30,"rangeStart":0,"value":0,"valueType":"int"},{"name":"fontName","rangeEnd":30,"rangeStart":0,"value":"Montserrat","valueType":"string"}],
                            "duration" : 0
                          }
                        ]
                      }
                    },
                    "attributes" : {
                      "autoRotateText" : true
                    },
                    "parameters" : {
                      "translation0" : {
                        "type" : "double",
                        "defaultValue" : 0.454545453686023,
                        "interp" : "eioe"
                      },
                      "translation1" : {
                        "type" : "double",
                        "defaultValue" : -241.837837837959,
                        "interp" : "eioe"
                      },
                      "opacity" : {
                        "type" : "double",
                        "defaultValue" : 0.7,
                        "interp" : "linr"
                      }
                    },
                    "effects" : [
                        {
                          "_type" : "GenericBehaviorEffect",
                          "effectName" : "pulsating",
                          "start" : 0,
                          "duration" : 151                        ,
                          "in" : {
                            "attributes" : {
                              "name" : "grow",
                              "type" : 1,
                              "characterOrder" : 6,
                              "offsetBetweenCharacters" : 1,
                              "suggestedDurationPerCharacter" : 18,
                              "overlapProportion" : "3/4",
                              "movement" : 30,
                              "springDamping" : 5.0,
                              "springStiffness" : 50.0,
                              "bounceBounciness" : 0.45
                            }
                          
                          },
                          "center" : {
                            "attributes" : {
                              "name" : "none",
                              "type" : 1,
                              "characterOrder" : 6,
                              "offsetBetweenCharacters" : 0,
                              "secondsPerLoop" : 1,
                              "numberOfLoops" : -1,
                              "delayBetweenLoops" : 0,
                              "offsetBetweenCharacters" : 0
                            }
                          
                          },
                          "out" : {
                            "attributes" : {
                              "name" : "none",
                              "type" : 1,
                              "characterOrder" : 6,
                              "offsetBetweenCharacters" : 0,
                              "suggestedDurationPerCharacter" : 0,
                              "overlapProportion" : 0,
                              "movement" : -1,
                              "springDamping" : 5.0,
                              "springStiffness" : 50.0,
                              "bounceBounciness" : 0.45
                            }
                          
                          }
                        }
                    ],
                    "start" : 4298,
                    "duration" : 151,
                    "mediaStart" : 0,
                    "mediaDuration" : 151,
                    "scalar" : 1,
                    "metadata" : {
                      "WinSubProjectDisplayName" : "",
                      "clipSpeedAttribute" : false,
                      "default-HAlign" : "center",
                      "default-VAlign" : "center",
                      "default-text-attributes" : "[{\"name\":\"fgColor\",\"rangeEnd\":14,\"rangeStart\":0,\"value\":\"(35,40,47,255)\",\"valueType\":\"color\"},{\"name\":\"underline\",\"rangeEnd\":14,\"rangeStart\":0,\"value\":0,\"valueType\":\"int\"},{\"name\":\"strikethrough\",\"rangeEnd\":14,\"rangeStart\":0,\"value\":0,\"valueType\":\"int\"},{\"name\":\"fontWeight\",\"rangeEnd\":14,\"rangeStart\":0,\"value\":700,\"valueType\":\"int\"},{\"name\":\"fontItalic\",\"rangeEnd\":14,\"rangeStart\":0,\"value\":0,\"valueType\":\"int\"},{\"name\":\"fontSize\",\"rangeEnd\":14,\"rangeStart\":0,\"value\":99,\"valueType\":\"double\"},{\"name\":\"fontName\",\"rangeEnd\":14,\"rangeStart\":0,\"value\":\"Montserrat\",\"valueType\":\"string\"}]",
                      "effectApplied" : "none"
                    },
                    "animationTracks" : {

                    }
                  },
                  {
                    "id" : 1233,
                    "_type" : "Callout",
                    "def" : {
                      "kind" : "remix",
                      "shape" : "text",
                      "style" : "basic",
                      "height" : {
                        "type" : "double",
                        "defaultValue" : 309.837837837942,
                        "interp" : "linr"
                      },
                      "width" : {
                        "type" : "double",
                        "defaultValue" : 1919.99999999941,
                        "interp" : "linr"
                      },
                      "word-wrap" : {
                        "type" : "double",
                        "defaultValue" : 1.0,
                        "interp" : "linr"
                      },
                      "horizontal-alignment" : "center",
                      "text" : "User Events in Actor Framework",
                      "vertical-alignment" : "center",
                      "font" : {
                        "color-blue" : {
                          "type" : "double",
                          "defaultValue" : 1.0,
                          "interp" : "linr"
                        },
                        "color-green" : {
                          "type" : "double",
                          "defaultValue" : 1.0,
                          "interp" : "linr"
                        },
                        "color-red" : {
                          "type" : "double",
                          "defaultValue" : 1.0,
                          "interp" : "linr"
                        },
                        "size" : {
                          "type" : "double",
                          "defaultValue" : 96.0,
                          "interp" : "linr"
                        },
                        "tracking" : {
                          "type" : "double",
                          "defaultValue" : 0.0,
                          "interp" : "linr"
                        },
                        "name" : "Montserrat",
                        "weight" : "Regular"
                      },
                      "textAttributes" : {
                        "type" : "textAttributeList",
                        "keyframes" : [
                          {
                            "endTime" : 0,
                            "time" : 0,
                            "value" : [{"name":"fontWeight","rangeEnd":30,"rangeStart":0,"value":700,"valueType":"int"},{"name":"strikethrough","rangeEnd":30,"rangeStart":0,"value":0,"valueType":"int"},{"name":"underline","rangeEnd":30,"rangeStart":0,"value":0,"valueType":"int"},{"name":"fontName","rangeEnd":30,"rangeStart":0,"value":"Montserrat","valueType":"string"},{"name":"fontSize","rangeEnd":30,"rangeStart":0,"value":99,"valueType":"double"},{"name":"fontItalic","rangeEnd":30,"rangeStart":0,"value":0,"valueType":"int"},{"name":"fgColor","rangeEnd":30,"rangeStart":0,"value":"(35,40,47,255)","valueType":"color"}],
                            "duration" : 0
                          }
                        ]
                      }
                    },
                    "attributes" : {
                      "autoRotateText" : true
                    },
                    "parameters" : {
                      "translation0" : {
                        "type" : "double",
                        "defaultValue" : 3.09000824927352e-10,
                        "interp" : "eioe"
                      },
                      "translation1" : {
                        "type" : "double",
                        "defaultValue" : 109.162166286322,
                        "interp" : "eioe"
                      },
                      "opacity" : {
                        "type" : "double",
                        "defaultValue" : 0.7,
                        "interp" : "linr"
                      }
                    },
                    "effects" : [
                        {
                          "_type" : "GenericBehaviorEffect",
                          "effectName" : "pulsating",
                          "start" : 0,
                          "duration" : 202                        ,
                          "in" : {
                            "attributes" : {
                              "name" : "grow",
                              "type" : 1,
                              "characterOrder" : 6,
                              "offsetBetweenCharacters" : 1,
                              "suggestedDurationPerCharacter" : 18,
                              "overlapProportion" : "3/4",
                              "movement" : 30,
                              "springDamping" : 5.0,
                              "springStiffness" : 50.0,
                              "bounceBounciness" : 0.45
                            }
                          
                          },
                          "center" : {
                            "attributes" : {
                              "name" : "none",
                              "type" : 1,
                              "characterOrder" : 6,
                              "offsetBetweenCharacters" : 0,
                              "secondsPerLoop" : 1,
                              "numberOfLoops" : -1,
                              "delayBetweenLoops" : 0,
                              "offsetBetweenCharacters" : 0
                            }
                          
                          },
                          "out" : {
                            "attributes" : {
                              "name" : "none",
                              "type" : 1,
                              "characterOrder" : 6,
                              "offsetBetweenCharacters" : 0,
                              "suggestedDurationPerCharacter" : 0,
                              "overlapProportion" : 0,
                              "movement" : -1,
                              "springDamping" : 5.0,
                              "springStiffness" : 50.0,
                              "bounceBounciness" : 0.45
                            }
                          
                          }
                        }
                    ],
                    "start" : 29998,
                    "duration" : 202,
                    "mediaStart" : 0,
                    "mediaDuration" : 202,
                    "scalar" : 1,
                    "metadata" : {
                      "WinSubProjectDisplayName" : "",
                      "clipSpeedAttribute" : false,
                      "default-HAlign" : "center",
                      "default-VAlign" : "center",
                      "default-text-attributes" : "[{\"name\":\"fgColor\",\"rangeEnd\":25,\"rangeStart\":0,\"value\":\"(35,40,47,255)\",\"valueType\":\"color\"},{\"name\":\"fontSize\",\"rangeEnd\":25,\"rangeStart\":0,\"value\":99,\"valueType\":\"double\"},{\"name\":\"fontWeight\",\"rangeEnd\":25,\"rangeStart\":0,\"value\":700,\"valueType\":\"int\"},{\"name\":\"fontItalic\",\"rangeEnd\":25,\"rangeStart\":0,\"value\":0,\"valueType\":\"int\"},{\"name\":\"underline\",\"rangeEnd\":25,\"rangeStart\":0,\"value\":0,\"valueType\":\"int\"},{\"name\":\"strikethrough\",\"rangeEnd\":25,\"rangeStart\":0,\"value\":0,\"valueType\":\"int\"},{\"name\":\"fontName\",\"rangeEnd\":25,\"rangeStart\":0,\"value\":\"Montserrat\",\"valueType\":\"string\"}]",
                      "default-translation1" : 94.1621621620822,
                      "effectApplied" : "none"
                    },
                    "animationTracks" : {

                    }
                  }
                ],
                "transitions" : [
                  {
                    "name" : "Fade",
                    "duration" : 30,
                    "trivial" : true,
                    "useAudioPreRoll" : false,
                    "useVisualPreRoll" : true,
                    "leftMedia" : 1232
                  },
                  {
                    "name" : "Fade",
                    "duration" : 30,
                    "trivial" : true,
                    "useAudioPreRoll" : false,
                    "useVisualPreRoll" : true,
                    "leftMedia" : 1233
                  }
                ]
              },
              {
                "trackIndex" : 8,
                "medias" : [
                  {
                    "id" : 1234,
                    "_type" : "Callout",
                    "def" : {
                      "kind" : "remix",
                      "shape" : "text",
                      "style" : "basic",
                      "height" : {
                        "type" : "double",
                        "defaultValue" : 187.999999999995,
                        "interp" : "linr"
                      },
                      "width" : {
                        "type" : "double",
                        "defaultValue" : 1920.21538461358,
                        "interp" : "linr"
                      },
                      "word-wrap" : {
                        "type" : "double",
                        "defaultValue" : 1.0,
                        "interp" : "linr"
                      },
                      "horizontal-alignment" : "center",
                      "text" : "Tom's LabVIEW Adventure",
                      "vertical-alignment" : "center",
                      "font" : {
                        "color-blue" : {
                          "type" : "double",
                          "defaultValue" : 1.0,
                          "interp" : "linr"
                        },
                        "color-green" : {
                          "type" : "double",
                          "defaultValue" : 1.0,
                          "interp" : "linr"
                        },
                        "color-red" : {
                          "type" : "double",
                          "defaultValue" : 1.0,
                          "interp" : "linr"
                        },
                        "size" : {
                          "type" : "double",
                          "defaultValue" : 96.0,
                          "interp" : "linr"
                        },
                        "tracking" : {
                          "type" : "double",
                          "defaultValue" : 0.0,
                          "interp" : "linr"
                        },
                        "name" : "Montserrat",
                        "weight" : "Regular"
                      },
                      "textAttributes" : {
                        "type" : "textAttributeList",
                        "keyframes" : [
                          {
                            "endTime" : 0,
                            "time" : 0,
                            "value" : [{"name":"fontItalic","rangeEnd":23,"rangeStart":0,"value":0,"valueType":"int"},{"name":"fontName","rangeEnd":23,"rangeStart":0,"value":"Montserrat","valueType":"string"},{"name":"strikethrough","rangeEnd":23,"rangeStart":0,"value":0,"valueType":"int"},{"name":"fontSize","rangeEnd":23,"rangeStart":0,"value":125,"valueType":"double"},{"name":"fontWeight","rangeEnd":23,"rangeStart":0,"value":400,"valueType":"int"},{"name":"underline","rangeEnd":23,"rangeStart":0,"value":0,"valueType":"int"},{"name":"fgColor","rangeEnd":23,"rangeStart":0,"value":"(255,255,255,255)","valueType":"color"}],
                            "duration" : 0
                          }
                        ]
                      }
                    },
                    "attributes" : {
                      "autoRotateText" : true
                    },
                    "parameters" : {
                      "translation0" : {
                        "type" : "double",
                        "defaultValue" : 0.284641677818968,
                        "interp" : "eioe"
                      },
                      "translation1" : {
                        "type" : "double",
                        "defaultValue" : 1.49380063874105e-10,
                        "interp" : "eioe"
                      }
                    },
                    "effects" : [
                        {
                          "_type" : "GenericBehaviorEffect",
                          "effectName" : "popUp",
                          "start" : 2,
                          "duration" : 182                        ,
                          "in" : {
                            "attributes" : {
                              "name" : "hinge",
                              "type" : 1,
                              "characterOrder" : 6,
                              "offsetBetweenCharacters" : "3/2",
                              "suggestedDurationPerCharacter" : "147/2",
                              "overlapProportion" : "1/3",
                              "movement" : 30,
                              "springDamping" : 5.0,
                              "springStiffness" : 50.0,
                              "bounceBounciness" : 0.45
                            },
                            "parameters" : {
                              "direction" : {
                                "type" : "int",
                                "valueBounds" : {
                                  "minValue" : 0,
                                  "maxValue" : 3,
                                  "defaultValue" : 3
                                },
                                "uiHints" : {
                                  "userInterfaceType" : 2,
                                  "unitType" : 0
                                },
                                "keyframes" : [
                                  {
                                    "endTime" : 0,
                                    "time" : 0,
                                    "value" : 3,
                                    "duration" : 0
                                  }
                                ]
                              }
                            }
                          
                          },
                          "center" : {
                            "attributes" : {
                              "name" : "none",
                              "type" : 1,
                              "characterOrder" : 6,
                              "offsetBetweenCharacters" : 0,
                              "secondsPerLoop" : 1,
                              "numberOfLoops" : -1,
                              "delayBetweenLoops" : 0,
                              "offsetBetweenCharacters" : 0
                            }
                          
                          },
                          "out" : {
                            "attributes" : {
                              "name" : "none",
                              "type" : 1,
                              "characterOrder" : 6,
                              "offsetBetweenCharacters" : 0,
                              "suggestedDurationPerCharacter" : 0,
                              "overlapProportion" : 0,
                              "movement" : -1,
                              "springDamping" : 5.0,
                              "springStiffness" : 50.0,
                              "bounceBounciness" : 0.45
                            }
                          
                          }
                        }
                    ],
                    "start" : 4267,
                    "duration" : 182,
                    "mediaStart" : 2,
                    "mediaDuration" : 182,
                    "scalar" : 1,
                    "metadata" : {
                      "WinSubProjectDisplayName" : "",
                      "clipSpeedAttribute" : false,
                      "effectApplied" : "none"
                    },
                    "animationTracks" : {

                    }
                  },
                  {
                    "id" : 1235,
                    "_type" : "Callout",
                    "def" : {
                      "kind" : "remix",
                      "shape" : "text",
                      "style" : "basic",
                      "height" : {
                        "type" : "double",
                        "defaultValue" : 187.999999999995,
                        "interp" : "linr"
                      },
                      "width" : {
                        "type" : "double",
                        "defaultValue" : 1920.21538461358,
                        "interp" : "linr"
                      },
                      "word-wrap" : {
                        "type" : "double",
                        "defaultValue" : 1.0,
                        "interp" : "linr"
                      },
                      "horizontal-alignment" : "center",
                      "text" : "Tom's LabVIEW Adventure",
                      "vertical-alignment" : "center",
                      "font" : {
                        "color-blue" : {
                          "type" : "double",
                          "defaultValue" : 1.0,
                          "interp" : "linr"
                        },
                        "color-green" : {
                          "type" : "double",
                          "defaultValue" : 1.0,
                          "interp" : "linr"
                        },
                        "color-red" : {
                          "type" : "double",
                          "defaultValue" : 1.0,
                          "interp" : "linr"
                        },
                        "size" : {
                          "type" : "double",
                          "defaultValue" : 96.0,
                          "interp" : "linr"
                        },
                        "tracking" : {
                          "type" : "double",
                          "defaultValue" : 0.0,
                          "interp" : "linr"
                        },
                        "name" : "Montserrat",
                        "weight" : "Regular"
                      },
                      "textAttributes" : {
                        "type" : "textAttributeList",
                        "keyframes" : [
                          {
                            "endTime" : 0,
                            "time" : 0,
                            "value" : [{"name":"fontItalic","rangeEnd":23,"rangeStart":0,"value":0,"valueType":"int"},{"name":"fontName","rangeEnd":23,"rangeStart":0,"value":"Montserrat","valueType":"string"},{"name":"strikethrough","rangeEnd":23,"rangeStart":0,"value":0,"valueType":"int"},{"name":"fontSize","rangeEnd":23,"rangeStart":0,"value":125,"valueType":"double"},{"name":"fontWeight","rangeEnd":23,"rangeStart":0,"value":400,"valueType":"int"},{"name":"underline","rangeEnd":23,"rangeStart":0,"value":0,"valueType":"int"},{"name":"fgColor","rangeEnd":23,"rangeStart":0,"value":"(255,255,255,255)","valueType":"color"}],
                            "duration" : 0
                          }
                        ]
                      }
                    },
                    "attributes" : {
                      "autoRotateText" : true
                    },
                    "parameters" : {
                      "translation0" : {
                        "type" : "double",
                        "defaultValue" : 0.284641677818968,
                        "interp" : "eioe"
                      },
                      "translation1" : {
                        "type" : "double",
                        "defaultValue" : 264.00000000018,
                        "interp" : "eioe"
                      }
                    },
                    "effects" : [
                        {
                          "_type" : "GenericBehaviorEffect",
                          "effectName" : "popUp",
                          "start" : 2,
                          "duration" : 233                        ,
                          "in" : {
                            "attributes" : {
                              "name" : "hinge",
                              "type" : 1,
                              "characterOrder" : 6,
                              "offsetBetweenCharacters" : "3/2",
                              "suggestedDurationPerCharacter" : "147/2",
                              "overlapProportion" : "1/3",
                              "movement" : 30,
                              "springDamping" : 5.0,
                              "springStiffness" : 50.0,
                              "bounceBounciness" : 0.45
                            },
                            "parameters" : {
                              "direction" : {
                                "type" : "int",
                                "valueBounds" : {
                                  "minValue" : 0,
                                  "maxValue" : 3,
                                  "defaultValue" : 3
                                },
                                "uiHints" : {
                                  "userInterfaceType" : 2,
                                  "unitType" : 0
                                },
                                "keyframes" : [
                                  {
                                    "endTime" : 0,
                                    "time" : 0,
                                    "value" : 3,
                                    "duration" : 0
                                  }
                                ]
                              }
                            }
                          
                          },
                          "center" : {
                            "attributes" : {
                              "name" : "none",
                              "type" : 1,
                              "characterOrder" : 6,
                              "offsetBetweenCharacters" : 0,
                              "secondsPerLoop" : 1,
                              "numberOfLoops" : -1,
                              "delayBetweenLoops" : 0,
                              "offsetBetweenCharacters" : 0
                            }
                          
                          },
                          "out" : {
                            "attributes" : {
                              "name" : "none",
                              "type" : 1,
                              "characterOrder" : 6,
                              "offsetBetweenCharacters" : 0,
                              "suggestedDurationPerCharacter" : 0,
                              "overlapProportion" : 0,
                              "movement" : -1,
                              "springDamping" : 5.0,
                              "springStiffness" : 50.0,
                              "bounceBounciness" : 0.45
                            }
                          
                          }
                        }
                    ],
                    "start" : 29967,
                    "duration" : 233,
                    "mediaStart" : 2,
                    "mediaDuration" : 233,
                    "scalar" : 1,
                    "metadata" : {
                      "WinSubProjectDisplayName" : "",
                      "clipSpeedAttribute" : false,
                      "effectApplied" : "none"
                    },
                    "animationTracks" : {

                    }
                  }
                ],
                "transitions" : [
                  {
                    "name" : "Fade",
                    "duration" : 30,
                    "trivial" : true,
                    "useAudioPreRoll" : false,
                    "useVisualPreRoll" : true,
                    "leftMedia" : 1234
                  },
                  {
                    "name" : "Fade",
                    "duration" : 30,
                    "trivial" : true,
                    "useAudioPreRoll" : false,
                    "useVisualPreRoll" : true,
                    "leftMedia" : 1235
                  }
                ]
              },
              {
                "trackIndex" : 9,
                "medias" : [
                  {
                    "id" : 1236,
                    "_type" : "Callout",
                    "def" : {
                      "kind" : "remix",
                      "shape" : "text-rectangle",
                      "style" : "basic",
                      "fill-color-blue" : {
                        "type" : "double",
                        "defaultValue" : 0.235294117647059,
                        "interp" : "linr"
                      },
                      "fill-color-green" : {
                        "type" : "double",
                        "defaultValue" : 0.298039215686275,
                        "interp" : "linr"
                      },
                      "fill-color-opacity" : {
                        "type" : "double",
                        "defaultValue" : 1.0,
                        "interp" : "linr"
                      },
                      "fill-color-red" : {
                        "type" : "double",
                        "defaultValue" : 0.901960784313726,
                        "interp" : "linr"
                      },
                      "height" : {
                        "type" : "double",
                        "defaultValue" : 83.9999999998924,
                        "interp" : "linr"
                      },
                      "stroke-color-blue" : {
                        "type" : "double",
                        "defaultValue" : 0.56078431372549,
                        "interp" : "linr"
                      },
                      "stroke-color-green" : {
                        "type" : "double",
                        "defaultValue" : 0.686274509803922,
                        "interp" : "linr"
                      },
                      "stroke-color-opacity" : {
                        "type" : "double",
                        "defaultValue" : 1.0,
                        "interp" : "linr"
                      },
                      "stroke-color-red" : {
                        "type" : "double",
                        "defaultValue" : 0.0196078431372549,
                        "interp" : "linr"
                      },
                      "stroke-width" : {
                        "type" : "double",
                        "defaultValue" : 0.0,
                        "interp" : "linr"
                      },
                      "width" : {
                        "type" : "double",
                        "defaultValue" : 732.000000000374,
                        "interp" : "linr"
                      },
                      "word-wrap" : {
                        "type" : "double",
                        "defaultValue" : 1.0,
                        "interp" : "linr"
                      },
                      "horizontal-alignment" : "left",
                      "stroke-style" : "solid",
                      "text" : "Tom McQuilllan",
                      "vertical-alignment" : "center",
                      "font" : {
                        "color-blue" : {
                          "type" : "double",
                          "defaultValue" : 0.266666666666667,
                          "interp" : "linr"
                        },
                        "color-green" : {
                          "type" : "double",
                          "defaultValue" : 0.231372549019608,
                          "interp" : "linr"
                        },
                        "color-opacity" : {
                          "type" : "double",
                          "defaultValue" : 1.0,
                          "interp" : "linr"
                        },
                        "color-red" : {
                          "type" : "double",
                          "defaultValue" : 0.184313725490196,
                          "interp" : "linr"
                        },
                        "size" : {
                          "type" : "double",
                          "defaultValue" : 64.0,
                          "interp" : "linr"
                        },
                        "tracking" : {
                          "type" : "double",
                          "defaultValue" : 0.0,
                          "interp" : "linr"
                        },
                        "name" : "Montserrat",
                        "weight" : "Regular"
                      },
                      "textAttributes" : {
                        "type" : "textAttributeList",
                        "keyframes" : [
                          {
                            "endTime" : 0,
                            "time" : 0,
                            "value" : [{"name":"fgColor","rangeEnd":14,"rangeStart":0,"value":"(216,222,227,255)","valueType":"color"},{"name":"fontName","rangeEnd":14,"rangeStart":0,"value":"Montserrat","valueType":"string"},{"name":"fontSize","rangeEnd":14,"rangeStart":0,"value":64,"valueType":"double"},{"name":"underline","rangeEnd":14,"rangeStart":0,"value":0,"valueType":"int"},{"name":"fontItalic","rangeEnd":14,"rangeStart":0,"value":0,"valueType":"int"},{"name":"strikethrough","rangeEnd":14,"rangeStart":0,"value":0,"valueType":"int"},{"name":"fontWeight","rangeEnd":14,"rangeStart":0,"value":400,"valueType":"int"}],
                            "duration" : 0
                          }
                        ]
                      }
                    },
                    "attributes" : {
                      "autoRotateText" : true
                    },
                    "parameters" : {
                      "translation0" : {
                        "type" : "double",
                        "defaultValue" : -80.999999999489,
                        "interp" : "eioe"
                      },
                      "translation1" : {
                        "type" : "double",
                        "defaultValue" : 145.99999999995,
                        "interp" : "eioe"
                      }
                    },
                    "effects" : [

                    ],
                    "start" : 4270,
                    "duration" : 179,
                    "mediaStart" : 0,
                    "mediaDuration" : 179,
                    "scalar" : 1,
                    "metadata" : {
                      "WinSubProjectDisplayName" : "",
                      "clipSpeedAttribute" : false,
                      "effectApplied" : "none"
                    },
                    "animationTracks" : {

                    }
                  },
                  {
                    "id" : 1237,
                    "_type" : "Callout",
                    "def" : {
                      "kind" : "remix",
                      "shape" : "text-rectangle",
                      "style" : "basic",
                      "fill-color-blue" : {
                        "type" : "double",
                        "defaultValue" : 0.235294117647059,
                        "interp" : "linr"
                      },
                      "fill-color-green" : {
                        "type" : "double",
                        "defaultValue" : 0.298039215686275,
                        "interp" : "linr"
                      },
                      "fill-color-opacity" : {
                        "type" : "double",
                        "defaultValue" : 1.0,
                        "interp" : "linr"
                      },
                      "fill-color-red" : {
                        "type" : "double",
                        "defaultValue" : 0.901960784313726,
                        "interp" : "linr"
                      },
                      "height" : {
                        "type" : "double",
                        "defaultValue" : 83.9999999998924,
                        "interp" : "linr"
                      },
                      "stroke-color-blue" : {
                        "type" : "double",
                        "defaultValue" : 0.56078431372549,
                        "interp" : "linr"
                      },
                      "stroke-color-green" : {
                        "type" : "double",
                        "defaultValue" : 0.686274509803922,
                        "interp" : "linr"
                      },
                      "stroke-color-opacity" : {
                        "type" : "double",
                        "defaultValue" : 1.0,
                        "interp" : "linr"
                      },
                      "stroke-color-red" : {
                        "type" : "double",
                        "defaultValue" : 0.0196078431372549,
                        "interp" : "linr"
                      },
                      "stroke-width" : {
                        "type" : "double",
                        "defaultValue" : 0.0,
                        "interp" : "linr"
                      },
                      "width" : {
                        "type" : "double",
                        "defaultValue" : 732.000000000374,
                        "interp" : "linr"
                      },
                      "word-wrap" : {
                        "type" : "double",
                        "defaultValue" : 1.0,
                        "interp" : "linr"
                      },
                      "horizontal-alignment" : "left",
                      "stroke-style" : "solid",
                      "text" : "Tom McQuilllan",
                      "vertical-alignment" : "center",
                      "font" : {
                        "color-blue" : {
                          "type" : "double",
                          "defaultValue" : 0.266666666666667,
                          "interp" : "linr"
                        },
                        "color-green" : {
                          "type" : "double",
                          "defaultValue" : 0.231372549019608,
                          "interp" : "linr"
                        },
                        "color-opacity" : {
                          "type" : "double",
                          "defaultValue" : 1.0,
                          "interp" : "linr"
                        },
                        "color-red" : {
                          "type" : "double",
                          "defaultValue" : 0.184313725490196,
                          "interp" : "linr"
                        },
                        "size" : {
                          "type" : "double",
                          "defaultValue" : 64.0,
                          "interp" : "linr"
                        },
                        "tracking" : {
                          "type" : "double",
                          "defaultValue" : 0.0,
                          "interp" : "linr"
                        },
                        "name" : "Montserrat",
                        "weight" : "Regular"
                      },
                      "textAttributes" : {
                        "type" : "textAttributeList",
                        "keyframes" : [
                          {
                            "endTime" : 0,
                            "time" : 0,
                            "value" : [{"name":"fgColor","rangeEnd":14,"rangeStart":0,"value":"(216,222,227,255)","valueType":"color"},{"name":"fontName","rangeEnd":14,"rangeStart":0,"value":"Montserrat","valueType":"string"},{"name":"fontSize","rangeEnd":14,"rangeStart":0,"value":64,"valueType":"double"},{"name":"underline","rangeEnd":14,"rangeStart":0,"value":0,"valueType":"int"},{"name":"fontItalic","rangeEnd":14,"rangeStart":0,"value":0,"valueType":"int"},{"name":"strikethrough","rangeEnd":14,"rangeStart":0,"value":0,"valueType":"int"},{"name":"fontWeight","rangeEnd":14,"rangeStart":0,"value":400,"valueType":"int"}],
                            "duration" : 0
                          }
                        ]
                      }
                    },
                    "attributes" : {
                      "autoRotateText" : true
                    },
                    "parameters" : {
                      "translation0" : {
                        "type" : "double",
                        "defaultValue" : -460.999999999473,
                        "interp" : "eioe"
                      },
                      "translation1" : {
                        "type" : "double",
                        "defaultValue" : 409.99999999998,
                        "interp" : "eioe"
                      }
                    },
                    "effects" : [

                    ],
                    "start" : 29970,
                    "duration" : 230,
                    "mediaStart" : 0,
                    "mediaDuration" : 230,
                    "scalar" : 1,
                    "metadata" : {
                      "WinSubProjectDisplayName" : "",
                      "clipSpeedAttribute" : false,
                      "effectApplied" : "none"
                    },
                    "animationTracks" : {

                    }
                  }
                ],
                "transitions" : [
                  {
                    "name" : "Fade",
                    "duration" : 30,
                    "trivial" : true,
                    "useAudioPreRoll" : false,
                    "useVisualPreRoll" : true,
                    "leftMedia" : 1236
                  },
                  {
                    "name" : "Fade",
                    "duration" : 30,
                    "trivial" : true,
                    "useAudioPreRoll" : false,
                    "useVisualPreRoll" : true,
                    "leftMedia" : 1237
                  }
                ]
              },
              {
                "trackIndex" : 10,
                "medias" : [
                ]
              }
            ]
          }
        }
      ]
    },
    "trackAttributes" : [
      {
        "ident" : "",
        "audioMuted" : false,
        "videoHidden" : false,
        "metadata" : {
          "IsLocked" : "False",
          "WinTrackHeight" : "56"
        }
      },
      {
        "ident" : "",
        "audioMuted" : false,
        "videoHidden" : false,
        "metadata" : {
          "IsLocked" : "False",
          "WinTrackHeight" : "56"
        }
      },
      {
        "ident" : "",
        "audioMuted" : false,
        "videoHidden" : false,
        "metadata" : {
          "IsLocked" : "False",
          "WinTrackHeight" : "56"
        }
      },
      {
        "ident" : "",
        "audioMuted" : false,
        "videoHidden" : false,
        "metadata" : {
          "IsLocked" : "False",
          "WinTrackHeight" : "56"
        }
      },
      {
        "ident" : "",
        "audioMuted" : false,
        "videoHidden" : false,
        "metadata" : {
          "IsLocked" : "False",
          "WinTrackHeight" : "56"
        }
      },
      {
        "ident" : "",
        "audioMuted" : false,
        "videoHidden" : false,
        "metadata" : {
          "IsLocked" : "False",
          "WinTrackHeight" : "56"
        }
      },
      {
        "ident" : "",
        "audioMuted" : false,
        "videoHidden" : false,
        "metadata" : {
          "IsLocked" : "False",
          "WinTrackHeight" : "56"
        }
      },
      {
        "ident" : "",
        "audioMuted" : false,
        "videoHidden" : false,
        "metadata" : {
          "IsLocked" : "False",
          "WinTrackHeight" : "56"
        }
      },
      {
        "ident" : "",
        "audioMuted" : false,
        "videoHidden" : false,
        "metadata" : {
          "IsLocked" : "False",
          "WinTrackHeight" : "56"
        }
      },
      {
        "ident" : "",
        "audioMuted" : false,
        "videoHidden" : false,
        "metadata" : {
          "IsLocked" : "False",
          "WinTrackHeight" : "56"
        }
      },
      {
        "ident" : "",
        "audioMuted" : false,
        "videoHidden" : false,
        "metadata" : {
          "IsLocked" : "False",
          "WinTrackHeight" : "56"
        }
      }
    ],
    "captionAttributes" : {
      "enabled" : true,
      "fontName" : "Arial",
      "fontSize" : 64,
      "backgroundColor" : [ 0, 0, 0, 191],
      "foregroundColor" : [ 255, 255, 255, 255],
      "lang" : "en",
      "alignment" : 0,
      "defaultFontSize" : true,
      "opacity" : 0.5,
      "backgroundEnabled" : true,
      "backgroundOnlyAroundText" : true
    },
    "backgroundColor" : [ 0, 0, 0, 255]
  },
  "metadata" : {
    "AutoSaveFile" : "",
    "CanvasZoom" : 49,
    "Date" : "2019-02-06 10:21:47 PM",
    "IsAutoSave" : "0",
    "Language" : "ENU",
    "ProfileName" : "",
    "ProjectDimensionsChanged" : "1",
    "Title" : "5. Chat Window Application - Actor Framework Overrides and User Events",
    "audioNarrationNotes" : "",
    "calloutStyle" : "Basic",
    "canvasDetached" : "False",
    "canvasPositionHeight" : "0",
    "canvasPositionLeft" : "0",
    "canvasPositionTop" : "0",
    "canvasPositionWidth" : "0"
  }
}
